<svg xmlns="http://www.w3.org/2000/svg" viewBox="0 0 750 500"><g id="BACKGROUND"><rect width="750" height="500" fill="#fff"/></g><g id="OBJECT"><path d="M652.43,347.24s45.79-42.07,27.9-93-52.44-47.74-83.2-98.79S535.07,73.09,456.49,88.41c-71.82,14-95.77,65.17-142.21,63.17S201.43,234.4,272.43,326.41Z" fill="#f0dbd8"/><polygon points="128.76 88.41 128.76 358.39 263.31 313.49 263.31 60.41 128.76 88.41" fill="#f7ac8f"/><polygon points="143.4 98.5 143.4 343.5 252.34 315.33 252.34 75.5 143.4 98.5" fill="#db815f"/><polygon points="233.78 197.38 233.78 236.28 245.78 232.25 245.78 193.92 233.78 197.38" fill="#f7ac8f"/><path d="M169.71,123.73,169.8,147a3.5,3.5,0,0,0,4.35,3.22l56.29-11.93a5.06,5.06,0,0,0,4.14-4.86l-.09-22.18a4.21,4.21,0,0,0-5.18-3.87l-55.38,11.4A5.12,5.12,0,0,0,169.71,123.73Z" fill="#fff9bf"/><path d="M194.24,120.55l.85-.21.17,4.64c.06,1.85-.78,2.62-1.93,2.9a2.49,2.49,0,0,1-.92.06l.1-.76a1.89,1.89,0,0,0,.73,0c.77-.19,1.21-.66,1.16-2Z" fill="#b55c58"/><path d="M202.32,122a4.08,4.08,0,0,1-2.95,4.38c-1.76.43-3-.69-3.11-2.79a4.13,4.13,0,0,1,3-4.37C201,118.82,202.25,120,202.32,122Zm-5.15,1.35c.05,1.48.87,2.62,2.22,2.29s2.08-1.81,2-3.38c0-1.37-.8-2.64-2.22-2.3S197.12,121.86,197.17,123.38Z" fill="#b55c58"/><path d="M203.32,118.48a8.92,8.92,0,0,1,1.56-.51,2.45,2.45,0,0,1,1.84.07,1.16,1.16,0,0,1,.6,1.08,2.09,2.09,0,0,1-1.07,1.77v0a1.38,1.38,0,0,1,1.43,1.39,2.3,2.3,0,0,1-.51,1.51,4,4,0,0,1-2.27,1.2,9.82,9.82,0,0,1-1.34.25Zm1,2.62.78-.19a1.58,1.58,0,0,0,1.39-1.49c0-.81-.63-1-1.5-.78a4.72,4.72,0,0,0-.75.24Zm.12,3.29a5.37,5.37,0,0,0,.72-.13c.88-.22,1.69-.75,1.65-1.75s-.82-1.13-1.76-.91l-.71.17Z" fill="#b55c58"/><path d="M177.16,135.18l.25,7-.86.22-.24-7.06Z" fill="#b55c58"/><path d="M178.91,141.85l-.25-7,.94-.23,2.25,3a15.47,15.47,0,0,1,1.27,2l0,0c-.11-.92-.16-1.76-.2-2.86l-.1-2.93.81-.2.24,7-.86.22-2.24-3a17.19,17.19,0,0,1-1.32-2l0,0c.08.87.13,1.71.17,2.88l.11,3Z" fill="#b55c58"/><path d="M186.44,133.65l-2,.5,0-.77,4.92-1.22,0,.77-2,.5.22,6.22-.87.22Z" fill="#b55c58"/><path d="M193.62,134.82l-2.58.65.08,2.51,2.88-.73,0,.75-3.74.95-.24-7,3.58-.89,0,.76-2.73.67.08,2.2,2.58-.64Z" fill="#b55c58"/><path d="M194.9,130.87a10.13,10.13,0,0,1,1.64-.55,2.43,2.43,0,0,1,1.94.09,1.42,1.42,0,0,1,.57,1.19,2.35,2.35,0,0,1-1.19,2.07v0c.52.06.84.48,1,1.15a9.2,9.2,0,0,0,.58,1.77l-.89.23a8.58,8.58,0,0,1-.5-1.54c-.23-.91-.6-1.18-1.38-1l-.81.2.11,3-.86.22Zm1,2.95.88-.22a1.74,1.74,0,0,0,1.45-1.69c0-.89-.67-1.13-1.58-.91a3.63,3.63,0,0,0-.84.29Z" fill="#b55c58"/><path d="M202.06,136l-2.41-6.35.92-.23,1.16,3.14c.32.86.59,1.63.8,2.4h0c.16-.84.4-1.78.67-2.75l1-3.68.91-.23L203,135.72Z" fill="#b55c58"/><path d="M206.71,127.86l.25,6.86-.86.22-.24-6.87Z" fill="#b55c58"/><path d="M211.78,130.27l-2.58.65.09,2.47,2.88-.73,0,.74-3.73.94-.25-6.85,3.59-.88,0,.74-2.73.68.08,2.16,2.58-.64Z" fill="#b55c58"/><path d="M214.48,132.82l-1.93-6.39.91-.23.91,3.25c.23.81.44,1.61.58,2.24h0c.08-.7.26-1.56.45-2.5l.77-3.65.89-.22.93,3.25a21.57,21.57,0,0,1,.55,2.21h0c.11-.78.27-1.58.45-2.48l.75-3.63.88-.22L219,131.67l-.89.23-1-3.32a17.64,17.64,0,0,1-.51-2.11h0c-.1.71-.22,1.41-.43,2.35l-.82,3.77Z" fill="#b55c58"/><path d="M156.43,338.81s35.85-17.11,162.9-33.45,289.1-4.95,346.1,47.05-57.66,104-206.83,82-266.17-3-337.17-8S32,358.39,156.43,338.81Z" fill="#f9c0af"/><path d="M293.41,356.71S317,345,359,341.41s58.84,14.48,121.91,15.3,130.64,4.6,139.49,16.06,5.33,29.37-75.16,30.24-206.49-16-233.49-15.23S266.53,368.07,293.41,356.71Z" fill="#d69683"/><path d="M91.35,353.82s.93,12.29,6.52,13.51l5,20.47s3.11,3.1,17.85,3.72,18.16-3.1,18.16-3.1l3.41-21.09A13.15,13.15,0,0,0,150,353.82Z" fill="#ee8d00"/><path d="M150,353.81c0,2.28-8.54,4.22-20.36,4.88-2.83.16-5.84.24-9,.24h-.41c-1.25,0-2.48,0-3.68,0-4.48-.11-8.63-.39-12.23-.82-7.84-.91-13-2.48-13-4.26,0-1.26,2.66-2.44,7.07-3.33h0a95.4,95.4,0,0,1,13.1-1.53c2.46-.15,5.06-.23,7.75-.25h1.4c3.39,0,6.64.11,9.67.29C141.8,349.68,150,351.58,150,353.81Z" fill="#432200"/><path d="M126.52,334.32s-.84-17.16,9-25.9,8.72-10.62,10.15-18.9,9.77-13.56,13.83-11.91-8,13-2.76,17.54.47,9.68-3.34,13.39,1.45,5.74-1,13.08-13.08,8.85-11.87,14.27,2.12,12-2.16,16.41a34.49,34.49,0,0,1-9.33,6.63S125.91,342.87,126.52,334.32Z" fill="#496b52"/><path d="M134.65,322.78c-3.34,8.15-6.6,17.92-6.6,17.92a41.83,41.83,0,0,1,2.3,8.28c.53,3.26.61,6.9-.71,9.71-2.83.16-5.84.24-9,.24h-.41c-1.25,0-2.48,0-3.68,0-1.11-2.1-3-5.78-5.06-9.94-3.92-8.08-8.21-18-7.69-21.75,0,0-2.39-15,0-25.47.76-3.38,2-6.28,4-8,8.15-7.22-7.22-17.69,0-25.84s14.43-8.38,11.64-18.39,13-4.89,10.94,8.38,0,15.6,3.72,22.11-12.8,21.18-9.08,24.91S138,314.63,134.65,322.78Z" fill="#739465"/><path d="M120.27,358.93c-1.25,0-2.48,0-3.68,0-4.48-.11-8.63-.39-12.23-.82,0-1.73-.63-5.63-5.93-7.59h0c-6.91-2.56-8.78-7.45-5.52-16.29s-3-8.38-10.94-16.06-1.39-16.06-2.56-21.19-7.21-3.25-9.54-8.84,3.72-13-1.4-17-2.83-7.33,1.4-5.59c0,0,4.89.93,10,6.29s.46,10.47,5.82,11.17,11.87,4.65,11.17,11.17c-.45,4.19,3.15,5.11,6.94,7.58a15.92,15.92,0,0,1,5.86,6.39c4.42,8.84-.7,20.25,3,24.44,2.21,2.49,5.08,9.1,6.59,16.14A40.49,40.49,0,0,1,120.27,358.93Z" fill="#94b171"/><polygon points="312.92 304.88 304.67 367.26 308.79 367.26 319.92 310.98 343.17 313.63 348.17 375.38 352.63 375.38 351.42 313.88 370.42 303.23 377.43 361.76 380.42 362.39 382.17 360.69 376.73 288.25 312.92 304.88" fill="#b35555"/><path d="M328.67,300.88s15.75,3.2,21.75,2.35,26.5-12.35,27-16.35-18-4.5-18-4.5Z" fill="#334947"/><path d="M304.63,247.21s9,11.63,17.67,13.35,12.41-9.39,12.41-9.39Z" fill="#e28869"/><path d="M338.83,193.92s-9,4.69-11,28.27-3.41,28-3.41,28L334,253,341,209.42Z" fill="#769069"/><path d="M313.31,357c-.39-7.91-1.25-22-2.78-32.49-2.23-15.33-6.08-24.17-6.08-24.17l14.24-10.61-17.1-9s-8.65,5.66-12.22,10.94c-2.95,4.36,12.41,50.06,17.84,65.83h0s-9.2,14.16-12.56,17.61.11,3.77,6.28,2.69,9.56-8.35,11.24-8.94,1.53,2.48,1.53,2.48l2.91-.24s2.32-5.22-1.39-11.7A8.92,8.92,0,0,0,313.31,357Z" fill="#e28869"/><path d="M339.4,374.3l-2.87.57s-.21-3.07-1.8-2.29-4.13,8.38-10.15,10.15-9.5,1.83-6.55-2a97.79,97.79,0,0,0,6.23-10.65l.12-.23c2.26-4.26,4.14-8,4.14-8-7.18-15.06-27.59-58.74-25.16-63.4,2.95-5.65,10.91-12.24,10.91-12.24l16.8,14-11.74,5.14s4.82,8.35,8.77,23.33c2.7,10.23,5.15,24.16,6.44,32a7.94,7.94,0,0,1,1.38,1.23,9.73,9.73,0,0,1,.78.94C341.12,368.84,339.4,374.3,339.4,374.3Z" fill="#f39f7d"/><path d="M370.76,196.31c2.3,1.71-4.51,46-4.51,46s2.92,13.59,2.89,16-9.68,6.55-17.54,7.21S334,260.34,334,260.34s2.34-24.4.87-29.15-4.26-11.95-3.77-17.84,7.7-19.43,7.7-19.43S357.82,186.7,370.76,196.31Z" fill="#a1b173"/><path d="M330.85,170.51s2.11,12.37,5.06,16.68,7.91,6.26,11.3,4.81c0,0-.26,5.28,2.7,6.38s7.91-7.22,7.91-7.22L356,184.39s1-15.58-.51-20.59S331.61,156.87,330.85,170.51Z" fill="#f39f7d"/><path d="M369,256.51s6.65,16.17,1.8,27-40.94,16.93-40.94,16.93S317.54,288.09,294.7,286c0,0,13-11.07,24.07-15.49s14.84-4.86,14.84-4.86l.62-7.4S344,266.11,369,256.51Z" fill="#44467f"/><path d="M339.4,374.3l-2.87.57s-.21-3.07-1.8-2.29-4.13,8.38-10.15,10.15-9.5,1.83-6.55-2a97.79,97.79,0,0,0,6.23-10.65,2.08,2.08,0,0,0,1.46,1.56c3.2,1.15,7.3-9.25,10.2-9.78a9.73,9.73,0,0,1,.78.94C341.12,368.84,339.4,374.3,339.4,374.3Z" fill="#1d1700"/><path d="M316.67,371.11l-2.91.24s.13-3.07-1.53-2.47-5.05,7.86-11.23,8.94-9.64.76-6.29-2.69a97.66,97.66,0,0,0,7.39-9.88,2.1,2.1,0,0,0,1.28,1.72c3,1.5,8.29-8.38,11.23-8.58a9.48,9.48,0,0,1,.66,1C319,365.88,316.67,371.11,316.67,371.11Z" fill="#1d1700"/><path d="M370.76,196.31s4.91,3.12,6.38,13.43-7.36,44.55-7.36,44.55L359,247.77l5.67-29S364.7,199.73,370.76,196.31Z" fill="#769069"/><path d="M336.85,158.29s-7.37-3.22-11.61,3.54,3.48,14.73,8.23,10.87c0,0,7.1,2,14.41-4.29,0,0-1,5,1.67,7.65,0,0,.19,2.71,1.27,3.19,0,0-.37-5.25,1.49-6.05s3.13,1.88,2.55,5.38-2.43,4.39-2.43,4.39.78,5.71,4.59,5.15,6.09-13.31,5.71-19.14-3.21-7.85-3.21-7.85-.36-3.67-6.32-6.09S336.85,158.29,336.85,158.29Z" fill="#b55c58"/><path d="M355.74,158.85s-3.5-5.14,2.74-7,11.61,6.47,9,10.88S357.26,165.49,355.74,158.85Z" fill="#b55c58"/><path d="M302.41,234.34l16.46-2.7,18.21,20.51s-8.76,7.86-24.6,4.36l-21-24.87Z" fill="#fff"/><path d="M338.75,242.47s16.74,2.09,22.09,3.49,9.07,6.27,9.07,7.9-3.48,5.05-9.88,4.44-26.93-11-26.93-11v-5.93Z" fill="#f39f7d"/><path d="M337.08,242.16s-9.6-5.15-11.35-5.74-8.83.7-9.88,1.52,1.75,1.39,5.12.69l-.12.59s-6.63.46-6.16,1.56,2.27.64,2.27.64-2.1.93-1.34,1.46,3.6,0,3.6,0l2.39.23s-3.72.93-4.25,2.09,1.17.93,2,.58l1.28-.52a63.79,63.79,0,0,0,8.48,2.5,47,47,0,0,0,5.93.58Z" fill="#f39f7d"/><path d="M296.66,237.77a1.71,1.71,0,0,0-.2,2.9c1.71,1.78,5.61.42,5.4,0-.65-1.2-3.68-1.13-3.68-1.13Z" fill="#e28869"/><path d="M299.11,240.6a1.7,1.7,0,0,0-.2,2.89c1.72,1.78,5.61.42,5.4,0-.64-1.19-3.68-1.12-3.68-1.12Z" fill="#e28869"/><path d="M300.65,242.31a1.7,1.7,0,0,0-.2,2.89c1.72,1.78,5.61.42,5.4,0-.65-1.2-3.68-1.12-3.68-1.12Z" fill="#e28869"/><path d="M302.84,244.82a1.42,1.42,0,0,0-.17,2.4c1.43,1.48,4.67.35,4.49,0-.53-1-3.05-.94-3.05-.94Z" fill="#e28869"/><polygon points="387.92 310.84 379.67 373.23 383.79 373.23 394.92 316.95 418.17 319.59 423.17 381.34 427.63 381.34 426.42 319.84 445.42 309.19 452.43 367.72 455.42 368.36 457.17 366.65 451.72 294.22 387.92 310.84" fill="#b35555"/><path d="M403.67,306.84s15.75,3.21,21.75,2.36,26.5-12.36,27-16.36-18-4.5-18-4.5Z" fill="#334947"/><path d="M413.88,197.82s-9.17,4.77-11.17,28.77-3.47,28.5-3.47,28.5l9.76,2.83,7-44.33Z" fill="#de845f"/><path d="M387.91,363.82c-.4-8.05-1.28-22.42-2.83-33.07-2.28-15.61-6.2-24.61-6.2-24.61l14.5-10.8L376,286.18s-8.81,5.76-12.44,11.13c-3,4.44,12.63,51,18.17,67h0s-9.37,14.41-12.79,17.92.11,3.84,6.4,2.74,9.73-8.5,11.43-9.1,1.56,2.53,1.56,2.53l3-.25s2.37-5.31-1.41-11.91A9.06,9.06,0,0,0,387.91,363.82Z" fill="#e28869"/><path d="M414.46,381.42l-2.92.58s-.21-3.12-1.83-2.33S405.5,388.2,399.38,390s-9.67,1.87-6.67-2a100.75,100.75,0,0,0,6.34-10.84l.12-.24c2.3-4.33,4.22-8.17,4.22-8.17-7.31-15.33-28.09-59.79-25.61-64.54,3-5.75,11.1-12.46,11.1-12.46L406,306l-12,5.23s4.91,8.5,8.93,23.75c2.75,10.41,5.24,24.59,6.55,32.54a7.82,7.82,0,0,1,1.41,1.25,10.13,10.13,0,0,1,.79,1C416.21,375.87,414.46,381.42,414.46,381.42Z" fill="#f39f7d"/><path d="M437.21,195.55s6.68,3.18,9.17,4.69-4.59,46.85-4.59,46.85,3,13.83,2.95,16.33-9.86,6.67-17.86,7.33S409,265.42,409,265.42s2.38-24.83.88-29.67-4.34-12.16-3.84-18.16,7.84-19.77,7.84-19.77S432.71,193.68,437.21,195.55Z" fill="#bb5759"/><path d="M413.91,185.75s-5.83,7.75-1.45,11.88c0,0,.87,4.37,3.37,4.87a5.87,5.87,0,0,0,3.75,1.49,24.35,24.35,0,0,1,3-8.44C425,191.75,414.86,185.25,413.91,185.75Z" fill="#1e2144"/><path d="M409,168.36s.06,12.78,2.31,17.6,6.9,7.6,10.55,6.7c0,0-1.14,5.27,1.65,6.86s9.14-5.93,9.14-5.93l-.67-7.1s3.59-15.49,2.91-20.76S412,154.8,409,168.36Z" fill="#f39f7d"/><path d="M412.46,162.63s1.75,9.87,14.75,9.75c0,0-1.33,5.46.42,6.62,0,0,1.33-3.25,3.41-3.5s2.09,5,.75,7.42-3.25,1.87-3.25,1.87,1.09,14.71-4,18.21c0,0,2.84,3.42,6.42,1.5a5.92,5.92,0,0,0,6.58-.08c3.75-2.25,2-5.58,4.17-7s4.25-4.67,2.17-9.42-4.09-9.75-4.09-9.75,1.34-8.33-1.75-15.08-10-7.67-13.66-7.67S413.7,158.17,412.46,162.63Z" fill="#1e2144"/><path d="M408,165.09c-2.06,7.2,1.22,9.6,1.22,9.6s.83-8.95,3.47-11.07,7.73-7.2,7.73-7.2S411.13,154.34,408,165.09Z" fill="#1e2144"/><path d="M444.55,261.53S451.32,278,446.38,289s-41.51,17.67-41.51,17.67-12.66-13-35.91-15.17c0,0,13.25-11.27,24.5-15.77s15.11-4.94,15.11-4.94l.62-7.54S419.15,271.3,444.55,261.53Z" fill="#4a7257"/><path d="M414.46,381.42l-2.92.58s-.21-3.12-1.83-2.33S405.5,388.2,399.38,390s-9.67,1.87-6.67-2a100.75,100.75,0,0,0,6.34-10.84,2.12,2.12,0,0,0,1.49,1.59c3.25,1.17,7.43-9.42,10.38-10a10.13,10.13,0,0,1,.79,1C416.21,375.87,414.46,381.42,414.46,381.42Z" fill="#1d1700"/><path d="M391.32,378.18l-3,.25s.14-3.13-1.56-2.52-5.14,8-11.42,9.1-9.82.78-6.41-2.73a101,101,0,0,0,7.52-10.06,2.1,2.1,0,0,0,1.3,1.74c3.1,1.53,8.44-8.52,11.43-8.73a11,11,0,0,1,.68,1C393.68,372.86,391.32,378.18,391.32,378.18Z" fill="#1d1700"/><path d="M446.38,200.24s5,3.18,6.5,13.68-9.07,51.73-9.07,51.73l-11.1-4.12,7.5-38.44S440.22,203.73,446.38,200.24Z" fill="#de845f"/><path d="M404,253.75a4.8,4.8,0,0,1,5,4.17c.62,4.35-8.32,21.82-8.32,21.82l-5.72-2s2.81-21,4.28-22.66S404,253.75,404,253.75Z" fill="#e28869"/><path d="M401.78,276.63a7,7,0,0,1,2.05,3.11c.25,1.51,1.27,2.3.63,3.26s-1.25-1.43-2.25-1.93-2.5,1.32-2.75,2.16-1.06,5.1-1.94,5.28-.81-1.57-.81-1.57-.63.31-1.75-1a21.77,21.77,0,0,1-1.69-2.67c-.49-.57,0-1.95,0-1.95l2.13-4.69Z" fill="#e28869"/><path d="M433,260.75l-30.25,17.13,1.62,4.75s35.82-10.08,39.48-17C443.81,265.65,442.46,259.63,433,260.75Z" fill="#f39f7d"/><path d="M405.27,276.48c-.14,0-9.86,1.44-11.81,1.81s-5.82,5-5.86,6.29,4.74-3.27,4.74-3.27l.14.47s-4,4.28-3.53,5.63,1.44-.47,1.44-.47-.79,1.77.14,1.95,2.6-2.6,2.6-2.6l1.77-.88s-1.58,1.92-1.54,3.49,1.21.65,1.58-.42a5,5,0,0,1,1.21-1.82s7-1.31,9.85-4.35S405.27,276.48,405.27,276.48Z" fill="#f39f7d"/><polygon points="476.02 311.87 467.77 374.25 471.89 374.25 483.02 317.98 506.27 320.62 511.27 382.37 515.73 382.37 514.52 320.87 533.52 310.22 540.53 368.75 543.52 369.38 545.27 367.68 539.83 295.24 476.02 311.87" fill="#b35555"/><path d="M491.77,307.87s15.75,3.21,21.75,2.35,26.5-12.35,27-16.35-18-4.5-18-4.5Z" fill="#334947"/><polygon points="469.69 373.4 469.1 381.15 478.77 381.15 479.85 373.4 469.69 373.4" fill="#432d00"/><path d="M467.35,381.15s-12.16,10.5-10.75,12.42,5.67,2.16,10.75,0a69.79,69.79,0,0,0,8.92-4.59s4.58-2.16,4.67-2.66-1.7-8.51-1.7-8.51l-9.93.59Z" fill="#1d1700"/><polygon points="453.94 366.43 453.35 374.18 463.02 374.18 464.1 366.43 453.94 366.43" fill="#432d00"/><path d="M451.6,374.18s-12.16,10.5-10.75,12.41,5.67,2.17,10.75,0a69,69,0,0,0,8.92-4.58s4.58-2.17,4.67-2.67-1.7-8.5-1.7-8.5l-9.93.59Z" fill="#1d1700"/><path d="M501.69,266.9S460.57,278.65,453,297c-2.94,7.15,0,71.92,0,71.92h11.81l4.32-48.38,51.35-46.41Z" fill="#1e2247"/><path d="M535.52,262.73s2.33,18.84-3,26.5-44,26-44,26-3.91,48-7.76,59.34H467.85s1.4-59.17,1.67-67,42.83-33.5,42.83-33.5Z" fill="#44467f"/><path d="M477.52,211.57s-6.67,43.66-10.92,52.66-8,22-8,22l7.25,3s14.81-19.25,16.91-30.5,5.71-25,5.71-25Z" fill="#91af71"/><path d="M460,283.11s-6.31,7.12-7.62,9.81-1.57,6.31-.63,6.81S453,297,453,297l.44-.06s-.94,3.69.19,5.69,1.37-1.69,1.37-1.69.13,2.81,1.19,2.75,1.12-6.12,1.12-6.12.38,5.37,1.69,5,.44-5.5,1-6.75a9.9,9.9,0,0,1,1.69-2.41s-1.75,5-.31,5.41,2.44-3.67,3.93-6.21a9.52,9.52,0,0,0,.82-5.92S461.67,283.61,460,283.11Z" fill="#e28869"/><path d="M492.73,200.36s-5.71,1.37-15.21,11.21c0,0,3.17,17.83,12.33,32s8.5,27.16,8.5,27.16,3.84,2.5,14,3.34,23.17-11.34,23.17-11.34-4-52.33-11.17-59.16-21-5.34-21-5.34Z" fill="#4a7257"/><path d="M473.6,180.61s3.63,12.25,7.13,16.25,8.75,5.37,12,3.5c0,0,.37,5.37,3.5,6.12s7.12-8.25,7.12-8.25l-2.62-6.62s-.88-15.88-3-20.75S472.73,166.73,473.6,180.61Z" fill="#f39f7d"/><path d="M494,166.11s-2.38-4.75-10.88-4.63-13,8.63-14.25,14.5a9,9,0,0,1-6.37,7,5.18,5.18,0,0,0,5.25,2.5s2.62,3.38,8.87,1.25,10-8.87,13.5-9.25c0,0-.42,6.08,4.88,7.13,0,0-1.06-4.88,1.19-5.94s3.1,5.11,3.1,7a3.5,3.5,0,0,1-1.85,2.83l3.22,1.71s4.15-15.52,1.53-20.21S494,166.11,494,166.11Z" fill="#1e2144"/><path d="M515,205.53s-5.08,43.54-6.92,50.2-33.41,28.5-33.41,28.5l5.5,7.34s36-16.67,40.5-26,9.66-48.67,7.5-56.17S518.19,197,515,205.53Z" fill="#91af71"/><path d="M475.55,283.67a58,58,0,0,0-8,3.23c-2.55,1.46-4.86,6-5.36,8.33s1.75.63,2.37-1a7.93,7.93,0,0,1,1.07-2.12l.62.25s-2.44,5.25-1.81,6.75,1.81-1.06,1.81-1.06-.5,2.06.63,2.06,2.75-4.06,2.75-4.06l.93-1.07s-1.18,3.57-.81,4.75,1.75.19,2.06-2.06,3.19-2.87,4.44-3.62,4.42-2.73,4.42-2.73S478.62,285.42,475.55,283.67Z" fill="#f39f7d"/><polygon points="502.14 195.17 496.94 206.53 503.35 210.4 506.02 198.1 502.14 195.17" fill="#91af71"/><path d="M496.23,206.48l-2.65,2.43-2.89,2.66V201.18l2-.82S493.89,205.45,496.23,206.48Z" fill="#91af71"/><polygon points="551.18 320.3 542.93 382.68 547.06 382.68 558.18 326.41 581.43 329.05 586.43 390.8 590.89 390.8 589.68 329.3 608.68 318.65 615.69 377.18 618.68 377.81 620.43 376.11 614.99 303.67 551.18 320.3" fill="#b35555"/><path d="M566.93,316.3s15.75,3.2,21.75,2.35,26.5-12.35,27-16.35-18-4.5-18-4.5Z" fill="#334947"/><path d="M563.93,210.13s-11.25,24.17-13.37,37.42,1.75,16,10,17.91,17.12,0,17.12,0Z" fill="#fff"/><path d="M580,201.4s-4.36,1.72-16.1,8.73c0,0-3.1,16.17,2.05,32.23s1.12,28.45,1.12,28.45,3,3.41,12.64,6.87,25.32-4.9,25.32-4.9,9.8-51.56,4.67-60-18.89-10.63-18.89-10.63Z" fill="#fff"/><polygon points="590.19 199.41 582.49 208.46 587.67 213.87 593.45 202.69 590.19 199.41" fill="#432d00"/><path d="M581.81,208.23l-6.67,3.46,2.71-10,2.18-.26S579.82,206.62,581.81,208.23Z" fill="#432d00"/><polygon points="557.34 379.57 558.6 387.24 567.99 384.97 567.23 377.18 557.34 379.57" fill="#432d00"/><path d="M556.9,387.65s-9.36,13.06-7.54,14.59,6,.78,10.45-2.52a70.35,70.35,0,0,0,7.59-6.55s4-3.18,3.91-3.69-3.65-7.87-3.65-7.87l-9.51,2.91Z" fill="#1d1700"/><polygon points="524.31 374.93 523.72 382.68 533.39 382.68 534.47 374.93 524.31 374.93" fill="#432d00"/><path d="M522,382.68s-12.16,10.5-10.75,12.42,5.67,2.16,10.75,0a69.79,69.79,0,0,0,8.92-4.59s4.58-2.16,4.67-2.66-1.7-8.51-1.7-8.51l-9.93.59Z" fill="#1d1700"/><path d="M572.06,275.41S531,287.16,523.41,305.49c-2.94,7.15,0,71.92,0,71.92h11.81L539.54,329l51.35-46.41Z" fill="#1e2247"/><path d="M566.63,176.85s.15,12.78,2.42,17.58,7,7.56,10.59,6.64c0,0-1.1,5.27,1.7,6.85s7.79-4.27,8.59-6.87c.52-1.71-.2-6.22-.2-6.22s3.48-15.51,2.77-20.78S569.57,163.27,566.63,176.85Z" fill="#f39f7d"/><path d="M605.56,209.1l-11.25,46.82L565,249.61l-4,8.69s27.67,17.87,41,11.61c10.29-4.82,14.12-38.36,11.37-51.36C611.87,211.16,606,207.2,605.56,209.1Z" fill="#fff"/><path d="M565,249.61s-6.66-4.47-8.2-4.56a1.4,1.4,0,0,0-1.53,1.44,1.62,1.62,0,0,0-1.67,2,2.36,2.36,0,0,0-.5,2.61,2,2,0,0,0-.22,2.44l.9,1.22,1.26-1.31a10.31,10.31,0,0,0,6.82,2.93Z" fill="#ffc7a5"/><path d="M605.89,271.24s-25.46,6.41-38.79-.43l-1.34,7.71a26.21,26.21,0,0,1,7.1,10.24h0c-12.59,8.1-32.78,21.93-33,27.31-.27,7.84,15.29,65.84,15.29,65.84l14.5-4.63-10.84-53.54s38.72-18.33,44-26S605.89,271.24,605.89,271.24Z" fill="#44467f"/><path d="M586,187.25s-1.17-1.75-1.09-5.42a21,21,0,0,1,.54-5.08,5,5,0,0,1-5.29,0c-2.58-1.75-2.83,1.92-6,1.17s-3-3-6.08-1.65-6.25.9-8.08-1.69-1.17-7.33,2.41-8.91,6.09.66,7.67-1.92,7.75-3.17,10.58-1,4.47-.25,7.28,1,5.33,3.35,4.62,6.17c0,0,2.35.41,2.69,5.16s-5.49,20.18-5.49,20.18l-1.35-4.93s2.84-3.58,2.25-7.5S587.19,179.08,586,187.25Z" fill="#b55c58"/><path d="M604.4,211.69s-6.86,16.73-5.87,30.39" fill="none" stroke="#d0d1d3" stroke-linecap="round" stroke-miterlimit="10"/><polyline points="564.99 249.61 594.31 255.92 596.06 253.05" fill="none" stroke="#d0d1d3" stroke-linecap="round" stroke-miterlimit="10"/><path d="M563,247.38s-.16-26.75,3.62-35.69" fill="none" stroke="#d0d1d3" stroke-linecap="round" stroke-miterlimit="10"/><path d="M561.43,258.56s33.12,21.61,44.57,7.77" fill="none" stroke="#d0d1d3" stroke-linecap="round" stroke-miterlimit="10"/><path d="M587.11,254.37a31.6,31.6,0,0,1,3.49-7.78c2.08-3,4.46-4.58,6.71-4.58s5.79.91,7,2.58-5.62.46-5.62.46,4.75,1.71,5.5,3.41-6.21-.37-6.21-.37,2.92,1.21,3.92,3-5-.21-5-.21,3.08,1.42,3.41,2.71-4.2-.54-4.2-.54-.8,2.54-1.75,2.87Z" fill="#ffc7a5"/></g></svg>