<svg id="Ñëîé_1" data-name="Ñëîé 1" xmlns="http://www.w3.org/2000/svg" viewBox="0 0 3500 2000"><rect id="_15" data-name="15" width="3500" height="2000" fill="#fff"/><g id="_14" data-name="14"><path d="M393.85,1538c-6.45-13-12.83-26.52-19-40.11l15.11-3c6.1,13.51,12.44,26.92,18.84,39.85Zm2704.6-16.82-15.65-1.27c2.6-13.87,5.07-27.83,7.34-41.51l15.68,1.13C3103.54,1493.26,3101.06,1507.27,3098.45,1521.18Zm-2741-63.7c-5.52-13.43-10.87-27.11-15.91-40.66l15.32-2.48c5,13.47,10.33,27.07,15.82,40.43Zm2754.8-19.66-15.7-1c2-13.92,3.85-27.92,5.49-41.61l15.73.82C3116.13,1409.79,3114.28,1423.85,3112.27,1437.82ZM327.15,1375.91c-4.56-13.68-8.89-27.52-12.89-41.13l15.49-2c4,13.52,8.28,27.27,12.8,40.87Zm2795.16-21.69-15.74-.66c1.34-13.91,2.51-27.94,3.48-41.71l15.76.49C3124.83,1326.16,3123.66,1340.25,3122.31,1354.22ZM303,1293.45c-3.51-13.85-6.75-27.82-9.65-41.52l15.62-1.43c2.88,13.6,6.1,27.48,9.59,41.24Zm2825.26-23-15.77-.3c.61-14,1-28,1.26-41.75l15.77.11C3129.26,1242.28,3128.83,1256.39,3128.22,1270.42ZM285.39,1210.24c-2.35-14-4.39-28.06-6.08-41.82l15.72-.84c1.68,13.66,3.71,27.63,6,41.52Zm2828.38-23.62c-.18-14-.58-28-1.19-41.74l15.76-.3c.61,13.78,1,27.89,1.21,42ZM275.18,1126.48c-1.05-14.07-1.74-28.2-2.07-42l15.77-.16c.32,13.68,1,27.7,2.05,41.65ZM3110,1103.18c-1.08-14-2.41-28-3.95-41.65l15.72-.77c1.56,13.75,2.89,27.85,4,41.89ZM289,1042.66l-15.77-.22c.44-14.11,1.29-28.24,2.52-42l15.75.61C290.31,1014.68,289.47,1028.68,289,1042.66ZM3100.61,1020c-2.1-14-4.49-27.9-7.09-41.44l15.65-1.31c2.62,13.63,5,27.67,7.14,41.72ZM296.53,959.54l-15.69-1c2.14-14,4.75-28.11,7.76-41.76l15.61,1.49C301.23,931.74,298.65,945.64,296.53,959.54Zm2788.16-22.3c-3.28-13.88-6.88-27.7-10.7-41.08l15.49-1.93c3.86,13.49,7.49,27.42,10.8,41.41Zm-1865.38-1.47c-21.92-2.28-37.77-8.85-59.73-20.21l10-8.06c19.24,9.93,33.13,15.88,51.44,17.93ZM1274,911l-14-4.72c7.22-9.32,13.61-22.25,19-38.44l15.41,2.22C1288.63,887.39,1282,900.78,1274,911Zm-160.74-25.29c-12.57-9.22-26-19.83-41-32.45l12.39-6.42c14.85,12.43,28.06,22.87,40.39,31.93Zm-798.55-8.52-15.48-2c4.08-13.88,8.71-27.72,13.74-41.13l15.31,2.5C323.34,849.85,318.78,863.51,314.74,877.22Zm2746.5-21.87c-4.67-13.73-9.71-27.35-15-40.46l15.25-2.66c5.32,13.24,10.4,27,15.12,40.84ZM1305,828.25l-15.65-1.33c2.42-12.41,4.6-26,6.64-41.54l15.71.9C1309.62,802,1307.43,815.7,1305,828.25Zm-271.37-8.45c-12.82-11.41-26.12-23.48-37.58-33.89l12.77-6.1c11.43,10.39,24.71,22.43,37.48,33.8ZM2188.35,819a93,93,0,0,1-35.82-7.19l8.41-8.8c17.25,7.18,34.23,7.2,52.55,1.47l6.79,9.38A106.57,106.57,0,0,1,2188.35,819ZM345.09,796.55l-15.08-3c6.26-13.51,13.14-27,20.43-39.93l14.79,3.6C358,770,351.27,783.23,345.09,796.55Zm1926.76-9.92-11.58-7a428.64,428.64,0,0,0,39.19-32.19l12.78,6.09A440.88,440.88,0,0,1,2271.85,786.63Zm-164.17-7.14a315.17,315.17,0,0,1-30.92-37.37l14.26-4.45a304.1,304.1,0,0,0,29.9,36.16Zm921.16-4.61c-6.36-13.47-13.14-26.73-20.16-39.41l14.82-3.56c7.11,12.84,14,26.26,20.4,39.89ZM958.65,752c-14.43-13-26.45-23.67-37.85-33.58l12.58-6.28c11.44,10,23.52,20.67,38,33.72Zm357.78-7.73-15.74-.67c1.19-12.18,2.41-25.87,3.72-41.85l15.75.56C1318.85,718.35,1317.63,732.08,1316.43,744.29ZM388.88,718.7l-14.43-4.2q13-19.38,27.69-38l14,4.81Q401.65,699.6,388.88,718.7Zm1959.49,0L2335.19,713c11.21-11.23,22.79-23.14,34.51-35.16l13.26,5.62C2371.22,695.51,2359.63,707.42,2348.37,718.7Zm-297-15.38c-7.14-11.81-14.53-24.69-22.57-39.39l14.84-3.53c8,14.59,15.3,27.37,22.38,39.07Zm934.11-6.48c-8.48-13-17.45-25.67-26.66-37.59l14.06-4.72c9.36,12.13,18.48,25,27.1,38.21ZM881.86,685.49c-14.31-11.71-27.63-22.13-40.72-31.86l11.79-6.9c13.26,9.86,26.74,20.4,41.21,32.24Zm441.58-25.1-15.75-.52c1.06-13.89,2.11-27.79,3.24-41.93l15.75.55C1325.55,632.62,1324.5,646.51,1323.44,660.39Zm1094.1-12-13.15-5.73c13.17-13.14,25-24.51,36-34.76l12.85,6C2442.31,624,2430.62,635.3,2417.54,648.34ZM447.4,645.41l-13.29-5.6a370.77,370.77,0,0,1,38-34.34l12.05,6.71A358.62,358.62,0,0,0,447.4,645.41Zm1560.34-21.15c-7.23-14-14.33-28-20.32-39.79l15-3.29c6,11.82,13.06,25.78,20.28,39.72Zm-1210-.73a540.35,540.35,0,0,0-47.11-27.16l9.61-8.24a557,557,0,0,1,48.5,28Zm2130.43-.45A470.77,470.77,0,0,0,2893,588.91l12.58-6.27a482.2,482.2,0,0,1,36.08,35ZM528.38,583.89l-9.57-8.26a232.13,232.13,0,0,1,58.27-20.3l4.61,9.94A212.09,212.09,0,0,0,528.38,583.89Zm1962.93-3.18-12.25-6.54a528.73,528.73,0,0,1,42.85-31.65l11.15,7.35A517.52,517.52,0,0,0,2491.31,580.71Zm-1161.1-4.09-15.74-.61c1.37-15.12,2.72-28.84,4.15-42l15.73.75C1332.93,547.87,1331.58,561.55,1330.21,576.62Zm-631.7-2.17A260.51,260.51,0,0,0,641,562.2l2.14-10.3a283.17,283.17,0,0,1,62.43,13.24ZM2852.4,557.64a370.91,370.91,0,0,0-46.73-26.9l9.29-8.4a386.37,386.37,0,0,1,48.73,28Zm-885.09-12.95C1959.46,529.23,1953,516.61,1947,505l14.92-3.37c6,11.64,12.53,24.27,20.38,39.77Zm613-21.36-9-8.52a279.5,279.5,0,0,1,58.23-19.69l4.87,9.89A259.8,259.8,0,0,0,2580.27,523.33Zm172.1-12.74a285.7,285.7,0,0,0-58.78-10l1.47-10.35A307.84,307.84,0,0,1,2758.49,501Zm-1413-17.53-15.71-.92c2-14.59,4.11-28.68,6.36-41.87l15.67,1.16C1343.47,464.55,1341.35,478.55,1339.39,493.06ZM1926,465.46c-7.62-14-14.8-26.84-22-39.18l14.74-3.71c7.19,12.41,14.41,25.29,22.07,39.38ZM1353.74,410l-15.61-1.49c3.19-14.56,6.7-28.55,10.42-41.61l15.51,1.93C1360.37,381.71,1356.9,395.56,1353.74,410Zm526.84-22.52c-8.47-13.44-17-26.29-25.39-38.21l14.31-4.37c8.46,12,17.09,25,25.65,38.59Zm-503.13-59.34-15.3-2.51a384,384,0,0,1,18-40.65l14.93,3.37A374.81,374.81,0,0,0,1377.45,328.12Zm449.73-16.18c-10.38-12.88-21-25-31.5-35.93l13.33-5.56c10.74,11.19,21.54,23.51,32.1,36.62Zm-408.4-61.7-14.14-4.6a216.65,216.65,0,0,1,34.14-36.35l12.39,6.43A205.2,205.2,0,0,0,1418.78,250.24Zm340.75-8a339.76,339.76,0,0,0-42.28-30l10.58-7.71a353,353,0,0,1,44,31.21Zm-264.36-53.52-8.5-8.75a212.32,212.32,0,0,1,61.18-15.23l2.4,10.27A191.31,191.31,0,0,0,1495.17,188.77Zm172.32,0a261.22,261.22,0,0,0-56.89-13.27l2.77-10.23a282.33,282.33,0,0,1,61.6,14.35Z" fill="#dce6ff"/><path d="M694.41,1594.24S310.27,972.43,586.71,834c184.78-92.55,380.63,111.47,614.39,3.54,208.12-96.09,142-388.43,473.87-428.84,373.18-45.43,455.35,499.82,761.6,425.3,371.62-90.44,741.28,93.15,421.83,761.46Z" fill="#d4e8ff"/><path d="M3198.41,1379.87c-130.89-12.79-109.53,102.74-296.1,102.74-170.58,0-225.15-439.95-349.26-314.19-636.27,644.74-266.8-274.19-772.81-285.86-228.81-5.28-381.27,155.52-437.5,440.24-81.49,257.4-270.5-196.32-465-154.13-123.62,26.81-109.46,313.94-280,313.94-186.57,0-165.21-115.53-296.1-102.74-140.92,13.77-183,218.25-183,218.25H3381.42S3339.33,1393.64,3198.41,1379.87Z" fill="#eef7ff"/><path d="M3082.5,1504.92c-120.41-5.46-100.76,43.88-272.4,43.88-156.93,0-152.62-110.56-257.63-134.06-193.39-43.27-352.83,175.73-427.8,65.82-142.41-291.65-557.73-437.9-749.34,0-75,109.91-250.31-86.21-427.8-65.82-109.25,12.55-100.7,134.06-257.63,134.06-171.64,0-152-49.34-272.4-43.88-129.65,5.88-168.37,93.2-168.37,93.2H3250.87S3212.15,1510.8,3082.5,1504.92Z" fill="#dce6ff"/><path d="M121,1598.12s-22.89,55,71.95,68.79c129.71,18.84,891.13,68.35,706.15,106-104.42,21.24,53.31,50.07,561.9,60.69s1381.3-31,1087.82-92.54,902.23-14.86,829.4-142.9Z" fill="#cfddf9"/></g><path id="_13" data-name="13" d="M2673.4,625.22c-1.4-6.71-66.79-.85-75,3.91a145.85,145.85,0,0,0,10-28.93c6.47,3.49,76-14.36,74.46-21.18-2.52-6.41-66.82,11.09-73.58,17.24a172.44,172.44,0,0,0,3.52-30.15c4.82,4.15,74-27.84,70.61-34s-67.41,24.48-70.55,31.4a204.15,204.15,0,0,0-1.13-24.89c7.79,1,69-33.43,65.9-39.68-4.1-5.51-61.16,27.72-66.39,35.47-.91-7.4-2.38-15.53-4.11-23.39,8.07-.46,62.83-43.39,58.9-49.13-4.89-4.74-55.28,35.89-59.86,44.56q-2.56-12.39-4.52-23.5c8.46-1,62.25-43.2,58.43-49-4.84-4.66-54.08,35-59.32,43.86-1.5-8.92-2.73-17.19-3.72-24.86,8.24-.71,62.57-43.31,58.69-49.08-4.84-4.66-54.14,35-59.34,43.89-1-8.56-1.75-16.3-2.24-23.29,7.1.9,64.08-43.8,59.85-49.38-4.9-4.79-56,36.42-60.14,44.95-.56-9.51-.67-17.49-.55-24.08,7.08.27,59-50.6,54.16-55.65-5.3-4.08-49.51,40.25-54,49.77.26-21,7.62-23.38,13.45-48.33,13.51-49.32,2.86-52.22-10.42-2.83-6.9,25.39-5.76,31-7.32,48.13-2-11.41-27-64.66-33-62.54-6.58,2.49,26.28,71.67,32.6,71.32-.13,6.3,0,13.84.46,22.74-3.32-10.36-39.35-60-45.09-56.8-5.93,3.77,39.31,65,45.54,63.77.5,6.77,1.21,14.24,2.21,22.45-5.73-9.64-50.13-50.29-55-46-4.4,5.42,48.23,52.75,55.9,53.15q1.47,11,3.6,23.55c-5.8-8.5-57.65-44.7-62.11-39.69-3.83,5.86,56,46.61,63.07,45.21q2,11.14,4.55,23.56c-7.8-7.56-63-34.37-66.56-28.82-2.38,6.51,59.3,35.67,67.83,34.82,1.7,7.8,3,15.5,3.83,22.7-4-7.09-66.3-37.69-69.78-31.67-3.38,6.17,65,38.65,70.13,34.78a196.79,196.79,0,0,1,1.07,23.62c-4.82-7.22-65.78-37.15-69.36-31.23-2.84,6.4,62.45,37.28,69.27,34.89a167.73,167.73,0,0,1-3.63,29.59c-3.57-7.42-63-42.79-67-37.09-3.34,6.16,59.21,42.15,66.23,40.33a141.19,141.19,0,0,1-9.82,27.95c-4.8-8.21-58.47-45.82-63-40.69-3.24,6.08,51.91,43.63,61,44.73-11.55,22.11-25.17,32.65-25.34,32.78l2.63,3.47c.61-.46,14.81-11.39,26.91-34.88C2602.34,637.58,2673.7,632.21,2673.4,625.22Z" fill="#ce4abf"/><path id="_12" data-name="12" d="M2784,490.48c13.86,19,24.5,36.63,28.77,46.94q3.42-20.19,7-37.5c-11.35-4.58-66-104.11-56.4-109.91,9.67-3.8,55.19,80.95,58.8,98.64q4.26-19.39,8.55-35.11c-10.1-1.33-46.1-117.94-35.12-120.48,4.57-1.38,16.46,24.53,26.56,57.89,6.43,21.25,10.58,40.37,11.56,51.83,4-13.73,7.8-25.18,11.32-34.63-9.73-2.79-22.83-124.78-11.57-125,10.19,0,19.81,93.57,16.75,112,11.39-25,12.68-34.2,36.51-68.88,46.18-67.62,60.77-57.64,14.26,9.79-22,34.67-34.39,34.36-45.89,65.95,11.67-12,102.15-55.71,107.9-46.7,4.61,10.23-100.68,59.61-111.29,55.48-3.68,9.9-7.72,22-11.91,36.7,10.74-10.65,109.91-46,114.68-36.15,3.39,10.69-106.25,48.09-116.58,43-3,10.83-6,22.92-8.94,36.4,12.46-10.66,108.16-44.61,112.92-35,2.73,10.8-101.75,46.4-114.68,43.15-2.55,12.12-5.08,25.27-7.51,39.54,12.51-10.66,108.1-44.56,112.86-34.92,2.62,10.79-100.82,46.05-114.23,43.15q-2.91,17.83-5.6,37.91C2824.14,573.85,2922,539,2926.78,548.8c2.82,10.79-102.48,46.67-115,43.13-1.53,12.68-3.54,25.47-6.15,37.53,11.91-9,115.93-29,119.12-18.51,1.27,11.1-109.27,30.79-120.6,25.13a327.57,327.57,0,0,1-11.35,38.15c8.55-8.74,121.44-21.14,123.14-10.08s-119.25,22.8-124.63,14.09a271.14,271.14,0,0,1-21.21,43.64c13.49-5.7,119.87,1.87,120.2,12.87-1.37,11.12-115.49,1.36-123.67-7.32A233.18,233.18,0,0,1,2736,765.81c14.81-2.9,117,22.9,115.45,33.75-3.31,10.71-113.87-18.87-120.45-28.84-30.71,29.12-58,38.13-59.13,38.51l-2.14-6.64c.27-.09,26.46-8.81,55.64-36.15-13-6.36-76.67-92.46-68.49-99.86,9.59-5.29,70.7,79.77,73.68,94.82a224.94,224.94,0,0,0,29.62-37.06c-11.51-.91-87.12-88.5-78.77-96,9.08-6.45,80.06,78.31,81.6,91.48A267.66,267.66,0,0,0,2784.18,677c-11.52.06-94-81.24-86.25-89.37,8.61-7,84.79,70.36,88.33,83.88a319.45,319.45,0,0,0,10.88-36.27c-9.77,3.16-96-82.15-87.64-89.65,8.52-7.2,86.35,71.86,88.75,84.77,2.53-11.33,4.66-23.65,6.21-36.34-13.27-3.14-91.23-80-84.11-88.51,8.35-6.44,77.49,63.14,85.37,78.77q2.67-20.14,5.58-38c-11.32-1.53-80.38-94.91-71.44-101.7C2743.72,441.76,2763.48,462.32,2784,490.48Z" fill="#7689d6"/><path id="_11" data-name="11" d="M2974.71,732.08c.11,14.78-.9,27.67-2.49,34.5q9.14-9.06,17.31-16.58c-4.12-6.49,4.41-77.31,11.42-76.77,6.33,1.6-1.44,61.54-6.07,71.89,6.19-5.56,11.92-10.47,17.21-14.8-4.66-4.38,19.63-77.1,26.16-74.38,2.84,1-.57,18.55-7.62,39.28-4.49,13.21-9.37,24.49-13.06,30.7,7-5.56,13.19-10,18.45-13.54-3.95-5,34-72.08,39.85-68.09,5.19,3.75-24.13,55-32.42,63.3,15-8.61,19-12.83,43.85-21.82,48.34-17.63,52.13-7.2,3.7,10.22-23.93,9.64-30.13,5-47.56,16.89,10.35-1.86,72.55,8.93,72.19,15.64-1.39,6.91-73.23-6.4-77.14-12.4-5.5,3.71-12,8.42-19.51,14.39,9.38-1.51,73,16.72,71.79,23.5-2.18,6.7-71.86-14.32-75.26-20.71-5.48,4.45-11.44,9.53-17.89,15.32,10.27-.88,71.56,16.8,70.46,23.47-2.56,6.51-68.94-13.54-74.35-19.93q-8.61,7.88-18.31,17.44c10.29-.86,71.51,16.8,70.42,23.47-2.62,6.47-68.34-13.37-74.13-19.76q-8,8-16.73,17.31c9.72-1.27,72.44,16.75,71.31,23.49-2.51,6.55-69.42-13.66-74.52-20.06-5.42,5.92-11.13,11.71-16.88,16.91,9.36-.2,69.82,27.61,67.61,34.14-3.42,6.14-67.07-24.26-70.79-31.3A203.59,203.59,0,0,1,2912,829.14c7.56-1.34,69.75,33.64,66.57,39.91s-69.24-32-68.8-38.41a170.42,170.42,0,0,1-26.8,14.52c9,2,60.53,44.82,56.67,50.56-4.77,5.18-59.48-41.57-60.48-49a146.6,146.6,0,0,1-29.66,8.41c8.63,3.94,51.36,54.5,46.61,59.48-5.6,4.26-51.25-51.31-51-58.81-26.33,3.64-43.55-1.73-44.28-2l1.33-4.17c.17.05,16.74,5.18,41.64,1.9-4.32-8-5.32-75.28,1.57-76.06,6.83.81,6.91,66.61,2.93,75.38a140.94,140.94,0,0,0,28.69-8.08c-5.55-4.68-12.11-77.08-5.11-77.85,7,0,12.24,69.29,8.2,76.58a168.28,168.28,0,0,0,26.47-14.13c-5.91-4.18-18.27-75.88-11.35-77.2,7-.42,17.55,67,14.42,75.16a200.57,200.57,0,0,0,18.82-14.54c-6.14-2-19-77.09-11.94-77.85,7-.56,17.79,68.29,14.3,75.77,5.43-4.86,11-10.38,16.47-16.29-5.63-6.46-17.32-74.24-10.57-76,6.62-.24,16.47,60.6,14.77,71.47q8.75-9.32,16.77-17.38c-5.22-4.93-6.32-77.89.73-78.08C2972,692.46,2974.54,710.19,2974.71,732.08Z" fill="#7689d6"/><path id="_10" data-name="10" d="M884.5,619c3.12-6.11,64.67,16.74,71.33,23.49a145.58,145.58,0,0,1-2.09-30.55c-7.16,1.66-69.55-33.84-66.26-40,4.12-5.52,61.55,28.27,66.45,36a172.86,172.86,0,0,1,4.53-30c-5.73,2.74-64.09-46.33-59.18-51.36s58.6,41.35,59.81,48.84a202.25,202.25,0,0,1,7.64-23.71c-7.79-1-57.77-50.39-53.15-55.62,5.41-4.23,51.72,42.83,54.73,51.69,2.82-6.9,6.38-14.36,10.12-21.48-7.67-2.57-49.21-58.39-43.9-62.9,6-3.29,43.88,49.16,46,58.74q5.75-11.28,10.54-21.49c-7.89-3.2-48.69-58.05-43.48-62.63,5.9-3.22,43,47.95,45.69,57.91q5.7-12.3,10.13-23c-7.77-2.85-49-58.24-43.72-62.78,5.91-3.23,43,48,45.71,57.95,3.24-8,6-15.27,8.29-21.89-7.09-1-50.31-59.11-44.75-63.38,6-3.33,44.39,49.85,46.19,59.19,3.05-9,5.26-16.7,6.87-23.09-6.9-1.6-43.63-64.34-37.62-67.94,6.19-2.54,37.19,51.86,39,62.22,5.26-20.29-1.2-24.57-.26-50.17-.06-51.13,11-51.14,10.8,0,0,26.3-2.6,31.4-5.6,48.35,4.89-10.5,43-55.29,48.24-51.66,5.69,4.13-44.21,62.23-50.21,60.22-1.53,6.11-3.61,13.36-6.43,21.82,5.92-9.12,53.76-47.56,58.44-42.94,4.74,5.2-55,52.42-60.71,49.54-2.26,6.41-4.91,13.43-8,21.09,8.06-7.8,61.59-35.33,65.17-29.93,2.81,6.39-60.41,38.21-67.92,36.58q-4.29,10.19-9.66,21.77c7.83-6.67,67.38-28,70.36-22,2.15,6.66-66.33,30.22-72.74,27q-4.86,10.23-10.6,21.54c9.52-5.25,69.85-16.58,71.8-10.3.59,6.91-66.59,18.82-74.59,15.75-3.7,7.09-7,14.18-9.67,20.9,5.74-5.78,73.88-18.92,75.66-12.2s-72.89,20.18-76.82,15.1a199.56,199.56,0,0,0-7.24,22.51c6.54-5.69,73.23-18.54,75.13-11.88,1.06,6.92-70,19.54-76,15.44a166.93,166.93,0,0,0-4.28,29.51c5.39-6.22,72-24.73,74.36-18.18,1.6,6.82-68.21,25.09-74.5,21.5a140.46,140.46,0,0,0,2.12,29.55c6.79-6.67,68.46-28.84,71.46-22.7,1.53,6.72-61.56,28.44-70.57,27.12,5.32,24.37,15.69,38.13,15.82,38.29l-3.45,2.66c-.47-.61-11.3-14.89-16.79-40.73C949.81,649.61,882.37,625.66,884.5,619Z" fill="#ce4abf"/><path id="_9" data-name="9" d="M825.92,1051.5c-6.11-3.11,16.67-64.69,23.42-71.36a146.17,146.17,0,0,1-30.56,2.13c1.68,7.16-33.76,69.59-39.93,66.31-5.53-4.11,28.19-61.59,35.9-66.5a172.55,172.55,0,0,1-30-4.49c2.74,5.73-46.25,64.14-51.29,59.24s41.28-58.64,48.77-59.87a201.39,201.39,0,0,1-23.72-7.61c-1,7.8-50.32,57.83-55.55,53.22-4.24-5.41,42.76-51.78,51.62-54.79-6.91-2.82-14.37-6.36-21.5-10.09-2.55,7.67-58.33,49.27-62.84,44-3.3-6,49.11-43.95,58.68-46.1q-11.28-5.71-21.5-10.51c-3.19,7.9-58,48.76-62.57,43.56-3.23-5.9,47.89-43,57.85-45.76-8.21-3.79-15.87-7.14-23-10.11-2.84,7.77-58.19,49-62.74,43.8-3.23-5.9,48-43.09,57.9-45.78-8-3.23-15.28-6-21.9-8.26-1,7.09-59,50.37-63.32,44.82-3.34-6,49.8-44.45,59.13-46.26-9-3-16.71-5.24-23.1-6.84-1.59,6.91-64.28,43.71-67.89,37.7-2.55-6.18,51.81-37.25,62.17-39-20.29-5.24-24.56,1.23-50.17.32-51.13.12-51.15-10.92,0-10.8,26.3,0,31.4,2.56,48.36,5.54-10.51-4.87-55.34-43-51.72-48.18,4.12-5.7,62.28,44.14,60.28,50.14,6.11,1.52,13.37,3.6,21.83,6.4-9.13-5.91-47.62-53.7-43-58.39,5.19-4.74,52.49,55,49.61,60.65,6.41,2.25,13.44,4.9,21.1,8-7.81-8-35.41-61.55-30-65.13,6.39-2.83,38.28,60.36,36.66,67.87q10.18,4.29,21.79,9.64c-6.69-7.82-28-67.35-22-70.34,6.66-2.16,30.3,66.3,27.11,72.71q10.23,4.85,21.55,10.57c-5.26-9.51-16.67-69.83-10.39-71.79,6.91-.6,18.9,66.57,15.85,74.58,7.08,3.69,14.18,6.94,20.9,9.65-5.78-5.75-19-73.86-12.28-75.65s20.26,72.87,15.19,76.8a199.15,199.15,0,0,0,22.51,7.21c-5.69-6.54-18.62-73.21-12-75.11,6.92-1.07,19.63,70,15.53,76a166.93,166.93,0,0,0,29.52,4.25c-6.23-5.39-24.81-72-18.27-74.34,6.82-1.62,25.17,68.18,21.59,74.47A140.07,140.07,0,0,0,849,975.77c-6.67-6.78-28.91-68.42-22.78-71.43,6.72-1.54,28.52,61.52,27.21,70.54,24.36-5.35,38.1-15.74,38.27-15.87l2.66,3.45c-.61.47-14.87,11.32-40.71,16.83C856.46,986.16,832.59,1053.62,825.92,1051.5Z" fill="#ce4abf"/><path id="_8" data-name="8" d="M770.06,570c-8.83,21.8-14.89,41.47-16.53,52.51q-8.22-18.76-15.9-34.69c9.9-7.19,38.78-117,28.1-120.3-10.3-1.34-34,91.91-33.16,110-5.89-11.86-11.5-22.49-16.79-32,9.47-3.73,16.14-125.59,4.88-125.39-4.77-.23-10,27.79-11.75,62.59-1.09,22.18-.48,41.74,1.34,53.09-7.16-12.35-13.66-22.54-19.37-30.86,8.77-5.05-8.07-126.59-19.06-124.11-9.88,2.51,3.44,95.58,10.87,112.67-17.12-21.52-20.59-30.11-52.11-58-61.19-54.42-72.92-41.21-11.46,13,29.77,28.3,41.68,25,60.49,52.87-14.22-8.82-112.6-29.31-116-19.17-2,11,112.12,33.44,121.42,26.87,6,8.71,12.83,19.49,20.44,32.72-13-7.73-117.78-18-120-7.3-.71,11.2,114.73,20.92,123.52,13.47,5.49,9.79,11.33,20.8,17.48,33.15-14.67-7.32-115.74-17.08-118-6.56,0,11.14,110,20.37,121.72,14.08,5.41,11.14,11,23.29,16.86,36.55-14.71-7.31-115.67-17-117.95-6.55.07,11.11,109,20.27,121.27,14.2q7.15,16.61,14.62,35.43c-13.65-7.58-117-17.68-119.3-7-.12,11.16,110.73,20.46,122,14,4.55,11.93,9.6,23.85,15.06,34.92C769,704.32,663.26,710,662.7,721c1.46,11.07,113.48,3.4,123.1-4.84a325.7,325.7,0,0,0,20.25,34.27c-10.41-6.41-122.94,8.91-121.92,20S805.36,763.72,808.47,754a271.37,271.37,0,0,0,31.14,37.2c-14.46-2.26-115.85,30.85-113.5,41.61,4,10.46,112.39-26.66,118.21-37.06a234.28,234.28,0,0,0,39,29.83c-15.07.77-107.95,50.55-103.83,60.71,5.8,9.58,105.91-45.9,109.88-57.16,36.84,20.81,65.45,22.95,66.69,23l.47-7c-.29,0-27.81-2.14-62.74-21.6,11.1-9.32,52-108.28,42.26-113.47-10.59-2.81-49.27,94.51-48.51,109.84a225.75,225.75,0,0,1-37.73-28.78c11-3.67,63.1-107,53.18-112.22-10.37-4.06-58.71,95.38-57,108.53a267.36,267.36,0,0,1-30.88-36.42c11.19-2.73,71.5-101.59,62-107.6-10-4.69-65.21,88.81-65.38,102.78a319.48,319.48,0,0,1-19.34-32.55c10.25.7,73.27-103,63.31-108.21-10-4.92-66.36,90.64-65.57,103.74-5.2-10.37-10.25-21.81-14.83-33.75,12.12-6.27,69.14-99.71,60.17-106.25-9.66-4.23-59.89,80-63.75,97.11q-7.47-18.92-14.62-35.55c10.61-4.23,55-111.55,44.68-116C797.34,513,783.15,537.74,770.06,570Z" fill="#7689d6"/><g id="_7" data-name="7"><path d="M1077,617.58H960.25a46.86,46.86,0,0,0-46.87,46.87c-13.61,102.87,34.17,671.6-32.93,744.39-67.14,65.44-228.24,36.18-230.76,49.93l-17.45,95.31c-10.08,72.47,115,72.19,171,76.8,150-.36,252.7-63,297.44-195.79,44.74-103.64,15.22-650.95,23.29-770.64A46.89,46.89,0,0,0,1077,617.58Z" fill="#f49f9f"/><path d="M2033.86,747c-221.27-254.52-664.94-156-763.95,166.82-85.45,240-16.15,573.34,236.07,679.86,167.81,73.69,388,37.1,513.85-98.9C2191.66,1320.18,2207.39,940.85,2033.86,747Zm-338,694.81c-333.2-9.79-317.91-651,1.34-650C2023.2,795.83,2020.6,1440,1695.88,1441.82Z" fill="#f49f9f"/><path d="M2868.66,1123.24a295,295,0,0,0-56.4-45.34C2938,986.1,2942.71,777.68,2816,686.48c-65-52.28-150.54-75.61-277.08-75.61-79.6,0-165.09,7.58-223.1,19.8a46.86,46.86,0,0,0-37.21,45.86v890a46.87,46.87,0,0,0,40.46,46.43c68,12.35,303.83,19.17,387.9-11.07C2924.58,1559,3022.11,1282.26,2868.66,1123.24Zm-171.23-227.9c-1.12,102.79-124.45,108.84-208.3,104.83V796.52C2574.29,793.6,2695.94,783.29,2697.43,895.34Zm-208.3,287.16c86.72-.16,230.83-6.66,236.49,127.65,2.34,124-135.5,133.72-236.49,128Z" fill="#f49f9f"/><path d="M1007.6,617.58H890.81A46.86,46.86,0,0,0,844,664.45c-12.64,104,32.61,668.77-32.94,744.39-11.36,13.48-31.46,29-86.65,29-40,0-70-10-81-14.27-26.35-11-58.65,7-63.09,35.24l-17.45,95.31c-10.07,72.45,115,72.2,170.94,76.8,150-.37,252.7-63,297.45-195.79,44.9-103.83,15.09-650.81,23.28-770.64A46.88,46.88,0,0,0,1007.6,617.58Z" fill="#fcb4b4"/><path d="M1964.43,747c-221.27-254.52-664.95-156-763.95,166.82-85.46,240-16.16,573.34,236.07,679.86,167.8,73.69,388,37.1,513.84-98.9C2122.22,1320.18,2138,940.85,1964.43,747Zm-338,694.81c-333.2-9.79-317.91-651,1.33-650C1953.77,795.83,1951.17,1440,1626.45,1441.82Z" fill="#fcb4b4"/><path d="M2799.22,1123.24a294.6,294.6,0,0,0-56.39-45.34c125.77-91.8,130.45-300.22,3.73-391.42-65-52.28-150.54-75.61-277.09-75.61-79.6,0-165.08,7.58-223.09,19.8a46.87,46.87,0,0,0-37.22,45.86v890a46.88,46.88,0,0,0,40.47,46.43c68,12.35,303.82,19.17,387.89-11.07C2855.14,1559,2952.68,1282.26,2799.22,1123.24ZM2628,895.34c-1.12,102.79-124.46,108.84-208.31,104.83V796.52C2504.86,793.6,2626.51,783.29,2628,895.34ZM2419.69,1182.5c86.72-.16,230.84-6.66,236.5,127.65,2.34,124-135.5,133.72-236.5,128Z" fill="#fcb4b4"/></g><g id="_6" data-name="6"><path d="M1688,309.26s8.86-17.11,35.86-12.06,33.37,39.31,42.53,54.9c19.41,33,25.23,68.14,15.14,85-11.2,18.73-35.93,11.41-72,8-38.54-3.58-54.69-37-30.71-83Z" fill="#c92828"/><path d="M1699.23,388.79c-10.56,15.48-17.3,91-17.52,96.84l-55-4.07c-3.6-27.63,33-84.3,66.46-91h0A55.93,55.93,0,0,1,1699.23,388.79Z" fill="#3a72aa"/><path d="M1542.66,804.94l53.68-.59c-.13-8.58-2.42-25.9-.72-35.69l-23.17,3c.64,4.7,2.07,14.9-5.74,17.34-10.11,3.16-21.13,2.19-27.44,10A3.92,3.92,0,0,0,1542.66,804.94Z" fill="#f99370"/><path d="M1597.92,799.17a13.51,13.51,0,0,1-1.58,5.18l-54.2.6a3.85,3.85,0,0,1-3.73-5c2-5.83,9-14.35,34-15.93,0,0,8.53,2.44,22.48-.25C1594.91,783.73,1598.74,791.8,1597.92,799.17Z" fill="#1d3f70"/><path d="M1554.35,797.82a1.1,1.1,0,0,1-1-.68,11.64,11.64,0,0,0-5.79-6.39c-2.87-4.38,5.33-1.33,7.82,5.55A1.11,1.11,0,0,1,1554.35,797.82Z" fill="#e8c0a6"/><path d="M1562.87,796.7a1.11,1.11,0,0,1-1-.77,15.21,15.21,0,0,0-6.84-8.25c-2.62-5.09,6.93.29,8.93,7.58A1.1,1.1,0,0,1,1562.87,796.7Z" fill="#e8c0a6"/><path d="M1572.57,795.4a1.12,1.12,0,0,1-1-.73,19.76,19.76,0,0,0-6.93-9.06c-2-5.35,6.65,1.07,9,8.31A1.11,1.11,0,0,1,1572.57,795.4Z" fill="#e8c0a6"/><path d="M1538.44,799.82l59.48-.65a13.51,13.51,0,0,1-1.58,5.18l-54.2.6A3.85,3.85,0,0,1,1538.44,799.82Z" fill="#395b96"/><path d="M1712.74,600c-26.43-1.11-72.46-15.66-92.31,17.95-21.74,36.72-16.42,114.6-14.22,152.25-29,9.34-44.6,0-44.6,0-12.36-77.06-53.06-252.56,83-228.21h91.27C1751.18,573.08,1737.53,599.46,1712.74,600Z" fill="#3a72aa"/><path d="M1607,804.94l53.68-.59c-.14-8.58-2.42-25.9-.72-35.7l-23.17,3c.64,4.7,2.25,14.9-5.74,17.34-10.14,3.09-21.13,2.19-27.44,10A3.92,3.92,0,0,0,1607,804.94Z" fill="#f99370"/><path d="M1662.3,799.16a13.51,13.51,0,0,1-1.58,5.19l-54.21.6a3.85,3.85,0,0,1-3.72-5c2-5.84,9-14.35,34-15.93,0,0,8.53,2.44,22.48-.25C1659.29,783.73,1663.12,791.79,1662.3,799.16Z" fill="#1d3f70"/><path d="M1618.73,797.82a1.12,1.12,0,0,1-1-.68,11.64,11.64,0,0,0-5.79-6.4c-2.88-4.37,5.33-1.33,7.82,5.55A1.11,1.11,0,0,1,1618.73,797.82Z" fill="#e8c0a6"/><path d="M1627.25,796.69a1.09,1.09,0,0,1-1-.76,15.21,15.21,0,0,0-6.84-8.25c-2.62-5.09,6.93.28,8.93,7.58A1.1,1.1,0,0,1,1627.25,796.69Z" fill="#e8c0a6"/><path d="M1637,795.39a1.11,1.11,0,0,1-1-.72,19.7,19.7,0,0,0-6.93-9.06c-2-5.35,6.65,1.06,9,8.31A1.1,1.1,0,0,1,1637,795.39Z" fill="#e8c0a6"/><path d="M1602.82,799.82l59.48-.66a13.51,13.51,0,0,1-1.58,5.19l-54.21.6A3.85,3.85,0,0,1,1602.82,799.82Z" fill="#395b96"/><path d="M1652.07,542l-7.8,56.9c-34.13,13.45-36.43,50.31-39.54,90.73C1588.93,627.14,1590.14,563.06,1652.07,542Z" fill="#23659b"/><path d="M1747.13,602.62c-27.66,17-55.28-1.55-74.72,37.71-15.7,34.37-6.9,100.06-2.59,129.85-29,9.34-44.6,0-44.6,0-17.2-66.47-56.54-220.94,54.62-228.22,30.44-1,70.44-.7,97.34-2.32C1777.18,539.64,1784.65,579.52,1747.13,602.62Z" fill="#3a72aa"/><path d="M1777.72,523.92c2.35,16.83-1.06,36.41-1.06,36.41-35.94-11.43-68.61-12.48-123.19-20.11,34.47-103.25-45.37-31,45.76-151.43l22.56,2C1747.42,410.1,1763.92,435.65,1777.72,523.92Z" fill="#3a72aa"/><path d="M1652.67,462.45a.92.92,0,0,1-.92-1c1.82-15.08,17.8-34.63,19.9-33.59,1.43,1.84-17,18-18.08,33.75A.91.91,0,0,1,1652.67,462.45Z" fill="#23659b"/><g id="_15-2" data-name="15"><polygon points="1557.14 547.87 1677.93 547.87 1653.88 459.32 1533.82 459.32 1557.14 547.87" fill="#163260"/><rect x="1557.14" y="547.43" width="120.8" height="6.01" fill="#234270"/><polygon points="1652.07 459.32 1656.39 459.32 1679.95 547.43 1737.27 547.43 1737.27 553.44 1675.92 553.44 1675.92 548.06 1652.07 459.32" fill="#0b274f"/></g><path d="M1761.51,408c27.85,20.87,42.72,58.43,35.37,92.58C1794.06,519.75,1782,538,1763,543.43c-9.35,3.74-53,9.75-50.93-5.73.69-3.71,4-5.08,7.17-6.07,5.26-1.86,10.68-3.91,15.69-6.19,9-4.66,20.52-9,22.48-19.1,4.16-23.54-5.48-46.55-23.07-61.92,0,0-.08-.07.18.12C1710.7,426.79,1737.54,390.45,1761.51,408Z" fill="#f99370"/><path d="M1778.2,539.22a101.75,101.75,0,0,1-37.93,8.65s2.39-15.4-8.74-21.75c62.7-47.65-26.86-67.71-9.66-137.73C1789.11,389.59,1858.53,491.5,1778.2,539.22Z" fill="#3a72aa"/><path d="M1685.48,547.43s5.38-18.81,37.5-16.64l6.72,16.64Z" fill="#f99370"/><path d="M1747.73,547.35c-4.6.51-7.46.52-7.46.52s2.39-15.4-8.74-21.75a60.39,60.39,0,0,0,6.32-4.94A28.47,28.47,0,0,1,1747.73,547.35Z" fill="#23659b"/><path d="M1737.27,523.81a.91.91,0,0,1-.59-1.6c27.84-24.81,14.2-51.08-2.36-68.09-.81-.83.54-2.14,1.34-1.24C1753.27,470.49,1766.63,499.58,1737.27,523.81Z" fill="#23659b"/><path d="M1747.13,547.44c-5.21-3,14.62-1.52,29.7-8.64a.91.91,0,0,1,1.19.49.93.93,0,0,1-.49,1.2A98.44,98.44,0,0,1,1747.13,547.44Z" fill="#23659b"/><path d="M1728.09,416.57c-.64,4.81-5.25,6.31-6.4,6.05-16.17-6.91-4.67,14.92-11.32,17.14-5.59,1.87-6.26-5.43-11.14-5.83-7.08-.58-8.52,3.28-11,.94-3.46-3.27,4.93-9,3.85-14.81-.75-4.1-8.91,0-8.8-8.42.13-8.29,9.62-20.71,9.92-21.09h0c6-3.33,19-1.82,24.87-1.75.09-.59,3.81-.4,3.81-.4a10,10,0,0,1,5.11.37C1728.21,395.5,1729.37,409.34,1728.09,416.57Z" fill="#f4d4be"/><path d="M1699.78,380.77l-.55,8s-.75,7.72-.75,22.06c0,20.17,5,17.82,11.89,3.73,3.8-7.74,11.5-25.56,11.5-25.56a81.92,81.92,0,0,1,.39-8.51Z" fill="#f99370"/><path d="M1726.65,357.81a11.4,11.4,0,0,1-.33,1.14c-.48-.4-3.23,12.95-4.23,23.13-9.65,5.65-20.81,4.9-22.73,4.31.52-15.06,1.78-37.59,13.38-41.79C1720.51,342.14,1728.75,349.8,1726.65,357.81Z" fill="#e57d61"/><path d="M1697.42,308.21c-29.14-3.5-33.76,42.49-14,59.41Z" fill="#c92828"/><path d="M1731.76,340.61c1.41,10.05,1.5,21.83-4.11,30.48h0c-15.33,25.07-66.05,8.9-52.15-20.82a29.64,29.64,0,0,0,3.34-12.32C1679.29,296.91,1727.7,305.52,1731.76,340.61Z" fill="#f99370"/><path d="M1693.43,346c-1.39-1.39.83-3.54,2.18-2.11A1.52,1.52,0,0,1,1693.43,346Z" fill="#c16256"/><path d="M1680.63,347.67c-1.39-1.4.83-3.55,2.17-2.11S1682,349.1,1680.63,347.67Z" fill="#c16256"/><path d="M1688.25,359.05c-2.56.41-6.27-.26-3.85-3.33,2.28-2.32,2.55-8.61,2.55-8.68a.57.57,0,0,1,1.14,0c0,.27-.28,6.79-2.87,9.43-.29.3-.6.71-.38,1,.61.72,3.49.84,5.15-.31a.58.58,0,0,1,.8.14C1691.22,358.52,1689.15,358.78,1688.25,359.05Z" fill="#c16256"/><path d="M1731.76,340.61c1.41,10.05,1.5,21.83-4.11,30.48h0c2.59-6.49,1.61-18.93,1.61-18.93l-3.57-4.57c-36.52-.49-41.89-28-41.89-28C1699.84,298,1729.86,317.47,1731.76,340.61Z" fill="#e57d61"/><path d="M1686.59,316.1s5.43,27.13,38.48,28.77l8.86-9.18C1738.05,312.08,1710,287.89,1686.59,316.1Z" fill="#c92828"/><path d="M1739.33,343.58c1.17,11.48-13.34,12.8-14.26,1.29C1723.9,333.38,1738.41,332.07,1739.33,343.58Z" fill="#f99370"/><path d="M1735.91,340.6h0c-1.48-4.55-10.24.31-6.51.48,0-.2,3.89-2.52,5.1-.5-3.82,1.8-5.1,8.93-2.88,6.63,0,0,.46-4.11,3.47-5.64C1736.59,351.94,1737.94,344.75,1735.91,340.6Z" fill="#c16256"/><path d="M1734.88,350.44a1.29,1.29,0,0,1-2.46.76A1.29,1.29,0,0,1,1734.88,350.44Z" fill="#f4d4be"/><path d="M1698.48,445c0,3.33-5.18,3.33-5.13,0S1698.53,441.71,1698.48,445Z" fill="#23659b"/><path d="M1693.44,463.1c0,3.32-5.17,3.32-5.12,0S1693.49,459.77,1693.44,463.1Z" fill="#23659b"/><path d="M1693.44,479.35c0,3.32-5.17,3.32-5.12,0S1693.49,476,1693.44,479.35Z" fill="#23659b"/><path d="M1605.3,757.25c.48,8.06.91,12.93.91,12.93-29,9.34-44.6,0-44.6,0s-.82-4-2.07-11C1559.89,759.33,1578.13,768.29,1605.3,757.25Z" fill="#23659b"/><path d="M1669.82,770.18c-29,9.34-44.6,0-44.6,0s-1.06-3.74-2.7-10.19c0,0,16.08,8.32,45.79,0C1669.18,766.37,1669.82,770.18,1669.82,770.18Z" fill="#23659b"/><path d="M1687.23,547.24c-5.7.18,15.07-14.08,21.27-10.59a.92.92,0,0,1-.82,1C1696,538.87,1688.22,547.2,1687.23,547.24Z" fill="#e57d61"/><path d="M1696,547.56c-4.33-1.85,9.13-5,15.79-6.82a.93.93,0,0,1,1.08.71.91.91,0,0,1-.71,1.08C1705.09,544,1696.75,547.48,1696,547.56Z" fill="#e57d61"/><path d="M1698.19,341.31a.67.67,0,0,1-.4-.14c-3.65-2.85-7-1.93-7.1-1.88a.65.65,0,0,1-.81-.44.65.65,0,0,1,.44-.81,9.56,9.56,0,0,1,8.27,2.11.65.65,0,0,1,.11.91A.66.66,0,0,1,1698.19,341.31Z" fill="#c16256"/><path d="M1679.11,342.88a.62.62,0,0,1-.36-.12.65.65,0,0,1-.18-.9c.09-.12,2.11-3.08,5.49-2.95a.65.65,0,0,1,.62.68.63.63,0,0,1-.67.62,5.65,5.65,0,0,0-4.36,2.38A.67.67,0,0,1,1679.11,342.88Z" fill="#c16256"/><path d="M1693.14,365.19a2.53,2.53,0,0,1-2.06-.92c-1-1.3-.34-3.45,1.51-4.88s4.11-1.54,5.12-.24h0c1,1.3.34,3.45-1.52,4.89A5.14,5.14,0,0,1,1693.14,365.19Zm2.49-5.65a3.84,3.84,0,0,0-2.24.87c-1.35,1-1.76,2.45-1.28,3.07s1.94.57,3.28-.47,1.76-2.45,1.29-3.07h0A1.29,1.29,0,0,0,1695.63,359.54Z" fill="#c16256"/></g><g id="_5" data-name="5"><path d="M3230.24,1661.76l1.12-.58c0,.78,1,3.51,1.76,3.51l33.15.68c.79,0,1.27-1.47,1.27-2.26l2.83-.81c0-5-.41-6.76-2.6-10.61-8.06-10.71,1.56-58.63,1.28-71.15,2-3.42-34.91-.74-35.43-1.54a1.42,1.42,0,0,0-1.42,1.53l4.35,54.75C3238.5,1645.68,3230.52,1652,3230.24,1661.76Z" fill="#f99370"/><path d="M3066.24,1666.54h66c5.77-.24,5.73-6.12,4.66-10.68-3.63-16.43,2.79-54.17,4-71.08a5.26,5.26,0,0,0-5.23-5.78c-48.73-.5-32.83-4.4-29.06,48.17,2.88,18.36-19,21.87-31.51,23.9C3066.91,1651.66,3053.16,1662.88,3066.24,1666.54Z" fill="#f99370"/><path d="M3139.46,1659.68c-.18,3.24-1.79,6.94-5.54,6.86h-68.51c-16.16-6,8.06-27.43,39.69-27.31C3127.59,1645.4,3140.22,1627.87,3139.46,1659.68Z" fill="#103663"/><path d="M3265.12,1666.54h-29.28c-14.27-2-4-29.33,14.63-27.35C3269.15,1636.82,3279.38,1664.61,3265.12,1666.54Z" fill="#103663"/><path d="M3081.74,1657.27a1.45,1.45,0,0,1-1.34-.91c-2.64-6.5-7.38-8.49-7.59-8.57-3.7-5.84,7.06-1.68,10.28,7.47A1.47,1.47,0,0,1,3081.74,1657.27Z" fill="#e8c0a6"/><path d="M3093.06,1655.9a1.45,1.45,0,0,1-1.39-1,20.11,20.11,0,0,0-9-11c-3.36-6.79,9.15.48,11.73,10.17A1.46,1.46,0,0,1,3093.06,1655.9Z" fill="#e8c0a6"/><path d="M3105.93,1654.32a1.46,1.46,0,0,1-1.37-1,26.3,26.3,0,0,0-9.06-12.11C3091.78,1631.2,3112.28,1651.64,3105.93,1654.32Z" fill="#e8c0a6"/><path d="M3261,1647.89c-8.13-4.93-20.61-.48-20.65-.13-8.5-1.83,11.59-9,21.39-2.58A1.46,1.46,0,0,1,3261,1647.89Z" fill="#e8c0a6"/><path d="M3060.62,1659.68h78.84a18.18,18.18,0,0,1-2.16,6.86h-71.89A5.1,5.1,0,0,1,3060.62,1659.68Z" fill="#0f2e54"/><path d="M3265.12,1666.54h-29.28a6.5,6.5,0,0,1-6.5-6.86h42.27A6.5,6.5,0,0,1,3265.12,1666.54Z" fill="#0f2e54"/><path d="M3101.5,996.53s-7.18-20.12,9.9-29.9l12.95,6.7Z" fill="#c92828"/><path d="M3113.37,1158.91c-64.47,49.22-145.18,38.22-190.92,4l-2.39-23.39c105.5,8.17,131.13-42.42,199-73.13C3119.1,1066.38,3114.09,1157.34,3113.37,1158.91Z" fill="#3a72aa"/><path d="M3275.43,1601.78q-.16,6.88-.39,13.93s-24.84,16.39-49.33,4.93c-9.58-52.17-30-163.93-50.64-298.7-.27-4-37.38,180.69-24.57,303,0,0-27.55,7.11-52.4-2.21-17.46-62.39-18.07-175.61-5.59-412.47,0,0,74.61-4.21,128.87-31.12C3268.15,1233.37,3281.08,1511.23,3275.43,1601.78Z" fill="#9358e0"/><path d="M3125.54,1064c-3.09-16.36-10.6-45.78,1.7-53,8.66-4.75,20.87,1.25,19.79,12.1-.92-.38,1.39,29.63,4.62,37.53C3177.15,1063.75,3108.17,1100,3125.54,1064Z" fill="#f99370"/><path d="M3147.05,1021.64c0,.46,0,.93,0,1.39-.67-.3.4,16.3,2.38,28.14-10.27,6.93-23,6.8-25.4,6.71-1.87-17.41-8.54-39,3.23-47C3135.3,1005.75,3147,1011.92,3147.05,1021.64Z" fill="#e57d61"/><path d="M3114.68,1618c-30.67-143.11.54-331,5.22-332.34C3122.3,1286.79,3095,1475.58,3114.68,1618Z" fill="#7640cc"/><path d="M3249.45,1619.92c-24.8-157.1-52.5-339.65-49-342.36C3204,1278.06,3232.18,1464.05,3249.45,1619.92Z" fill="#7640cc"/><path d="M3162.7,1007.79c.08,11.91-1.63,25.63-9.5,34.85h0c-.32.37-.64.72-1,1.06,0,0,0,0,0,0-11.9,11.28-30.75,13.28-45.82,4.62h0c-12.12-8-17.66-20.64-13.86-31.72,2.61-6.59,8.36-13,9-20.11C3105.38,953.29,3162.43,961.72,3162.7,1007.79Z" fill="#f99370"/><path d="M3117.26,1008.1c-1.4-1.84,1.51-4,2.86-2.12S3118.6,1010,3117.26,1008.1Z" fill="#c16256"/><path d="M3102.09,1008.11c-1.4-1.84,1.51-4,2.86-2.12S3103.43,1010,3102.09,1008.11Z" fill="#c16256"/><path d="M3162.7,1007.79c.08,11.91-1.63,25.63-9.5,34.85h0c-.32.37-.64.72-1,1.06,9.33-18.67,6.82-22.52,2.62-35.52-13.75-9.78-13.26-23.13-26.13-23.07a155.66,155.66,0,0,1-23.37-1.71C3119.75,952.67,3162.88,970.45,3162.7,1007.79Z" fill="#e57d61"/><path d="M3108.76,1022.55c-2.93-.08-6.69-1.43-3.52-4.48,3-2.36,4.29-9.64,4.3-9.71,3-2.79-.05,8.14-3.47,10.77-2.33,2,3.35,2.66,5.45,1.49C3114.56,1021.11,3110.07,1022.93,3108.76,1022.55Z" fill="#c16256"/><path d="M3248.19,1259.76c-36.13,27.33-121.81,34.44-157.88,21.38-12.16-5.14-13.86-46.09-12.45-86.31,2.16-53.61,15.23-92.36,40-128.19a45.42,45.42,0,0,1,7.7-2.67c-.12,4.9,1,19.06,26.11-3.41.11.09,7.5-.9,9.81.09,2.4,1.83,29.59,19.52,30.28,22.39,2.05,8.61,11.23,29.89,21.27,54.7,11.61,29,23.51,58.74,28.62,85.91C3243.61,1235,3255.35,1249.11,3248.19,1259.76Z" fill="#23659b"/><path d="M3164.75,991.73c-4.05-34.07-25.11-33-25.11-33h0c-18.13-24.14-58.56-12-41.73,15.1,9.55,16.72,34-1.92,48.39,19.5,5.79,8.61,9.38,13.92,19.43,18.33C3165.73,1011.62,3167.05,1001,3164.75,991.73Z" fill="#c92828"/><path d="M3171,1012.41c-.4,13.55-17.5,12.84-16.78-.7C3154.66,998.16,3171.76,998.87,3171,1012.41Z" fill="#f99370"/><path d="M3109.19,1032.22c-2.42.23-4.6-1-2.39-1.6.27.07,6.86,1.76,13.75-4.64a.69.69,0,0,1,1,0C3119.47,1031.15,3111.17,1032.18,3109.19,1032.22Z" fill="#c16256"/><path d="M3161.08,1060.83c-8.27,14.09-44.77,36.06-43.26,5.83a43.14,43.14,0,0,1,7.71-2.69c-.06.8-1.5,21.59,26.12-3.42C3151.61,1060.76,3159,1059.43,3161.08,1060.83Z" fill="#3a72aa"/><path d="M3150.5,1624.92s-27.55,7.11-52.4-2.21c0,0-1.63-4.76-4.21-14.21,0,0,32.05,11.94,55.16,0Q3149.71,1616.77,3150.5,1624.92Z" fill="#7640cc"/><path d="M3275.43,1601.78q-.16,6.88-.39,13.93s-24.84,16.39-49.33,4.93c0,0-.8-4.28-2.24-12.14C3223.47,1608.5,3249.85,1616.37,3275.43,1601.78Z" fill="#7640cc"/><path d="M3208.44,1074.74s36.65,29,45,76.58c13,74.08-22.27,114.53-97.68,135a18.53,18.53,0,0,0-12.5-12.29s36.1-27.87,45.19-61.21,4.7-81.44-12.65-100.34C3175.77,1112.5,3189.38,1081.33,3208.44,1074.74Z" fill="#3a72aa"/><path d="M3183.16,1064.41c-8.13-8.78-22.75-9.41-25.29-1.09-8,26.28-19.72,50.07-23.67,57.79a8.65,8.65,0,0,0-4.19-1.18c-18.77-26.82-14.56-51.77-14.56-51.77-11.66-.8-19.3,3.71-23.44,10.81-20.26,7.44-17.82,23.42.71,35.45,4.32,9.53,11.64,18,21.4,22.63-7.08,16.23-15.64,41.88-5.9,46.8,4.38,4.15,15.23,6,15.51-6.09.22-10,.76-25.25,2-34.7a8.46,8.46,0,0,0,3.39-.26s1.44,33.49-4.09,54.43,20.41,17,28.92,10.1c6.67-5.39.83-48-8.9-71a79.64,79.64,0,0,0,17.47-13.55h0C3173.06,1112.12,3246.06,1071,3183.16,1064.41Z" fill="#1d3f70"/><rect x="3033.59" y="1024" width="26.7" height="437.27" transform="matrix(0.59, -0.81, 0.81, 0.59, 245.97, 2969.63)" fill="#eb5648"/><rect x="3117.72" y="1189.67" width="26.7" height="228.88" transform="matrix(0.59, -0.81, 0.81, 0.59, 230.83, 3062.77)" fill="#ce3932"/><circle cx="2740.02" cy="1020.04" r="160.51" transform="translate(81.26 2236.25) rotate(-45)" fill="#fff" opacity="0.4"/><path d="M2576.31,1078.38a172.93,172.93,0,0,0,23.82,44.9l9.53-9.54,9.6-9.59,204.86-204.87,19.14-19.14-1.84-1.33a173.07,173.07,0,0,0-43-22.55l-10.52,10.54-10.82,10.82h0L2597.66,1057l-10.85,10.85Z" fill="#fff" opacity="0.4"/><path d="M2616.14,1142a174.49,174.49,0,0,0,66.83,42.25l10.58-10.58,10.89-10.89,178.38-178.39,10.84-10.83L2904.29,963A171.91,171.91,0,0,0,2862,896.13L2843.15,915,2635,1123.15l-9.45,9.46Z" fill="#fff" opacity="0.4"/><path d="M2683,1184.28c117.7,45.62,253.67-66.51,228.61-192.41-22.4-149.91-224.16-199-312.78-73.23C2530.1,1011,2576.13,1149.4,2683,1184.28ZM2843.15,915c106.59,104.39,4.4,284-138.71,247.8C2653.62,1151,2610,1108,2597.66,1057,2559.94,914.33,2737.89,811.25,2843.15,915Z" fill="#ce3932"/><path d="M2907.3,1161.2c-6.78,5.48-12.78-4-3.3-5l-.12.09C2907.6,1153.36,2910.85,1158.56,2907.3,1161.2Z" fill="#f99370"/><path d="M2902.54,1157.76c-8.8,4.74-11.34-7.16-2.81-5.57-.19,0,.82-.2.64-.18C2904.64,1149.88,2906.33,1156,2902.54,1157.76Z" fill="#f99370"/><path d="M2897.43,1154.31l-3.27.63c-4.6.72-4-6-.14-6.47l3.27-.63C2901.89,1147.13,2901.28,1153.83,2897.43,1154.31Z" fill="#f99370"/><path d="M2893.46,1150.63l-3.27.63c-4.6.71-4-6-.14-6.47l3.27-.63C2897.92,1143.44,2897.31,1150.15,2893.46,1150.63Z" fill="#f99370"/><path d="M3116.64,1278.46l6.42,4.63-.08.13a32.37,32.37,0,0,1-10.88,10.26,105.82,105.82,0,0,1-13,6.77c-6.12,9.16,18.91-1.92,22-2.56l.05.11a153.12,153.12,0,0,1-18.23,13.84c-4.12,10.95,20-7.48,22.92-9.12l0,0a89.19,89.19,0,0,1-15.62,15.26c-3.18,11.46,19.82-9.24,22.05-11.77l.08,0a91.56,91.56,0,0,1-10.23,14.15c-1.51,11.28,15.78-9.79,17.5-12.32,1.82-1,10.76-9.44,16.1-21.58,1.76-4-8.94-14.51-12.5-12.29-2.67,1.67-11.31,1.67-13.18,2.21C3125.68,1276.88,3121.16,1276.75,3116.64,1278.46Z" fill="#f99370"/><path d="M3125.14,1003.49a.65.65,0,0,0,.45-.17.68.68,0,0,0,0-1,13.37,13.37,0,0,0-10-4.07.67.67,0,0,0-.63.7.68.68,0,0,0,.71.63,12.22,12.22,0,0,1,8.89,3.65A.7.7,0,0,0,3125.14,1003.49Z" fill="#c16256"/><path d="M3101.72,1001.56a.65.65,0,0,0,.41-.15,9.78,9.78,0,0,1,6.88-1.8.66.66,0,0,0,.22-1.31,10.9,10.9,0,0,0-7.93,2.07.67.67,0,0,0,.42,1.19Z" fill="#c16256"/><path d="M3159,1007.74c-.47-1.38,3.81-3.12,6.9-1.54,1.57.7,3.69,6.43,1.36,9.65a.68.68,0,0,1-.67-.76c.37-2.83.24-5-.35-6.34a.67.67,0,0,1-.17.08c-.18,0-4.46,1.06-5.54,7.15a.75.75,0,0,1-.73.61h-.14a.75.75,0,0,1-.6-.86c1.08-6.05,5-7.81,6.29-8.23-.07,0-.12-.12-.19-.16C3162.18,1005.66,3160,1008.93,3159,1007.74Z" fill="#c16256"/></g><g id="_4" data-name="4"><path d="M1298.83,1662.74l-1.08-.57c0,.76-.94,3.4-1.71,3.4l-32.12.66c-.76,0-1.23-1.43-1.23-2.19l-2.74-.78c-.22-9.91,7.84-16.31,5.89-26.65,0,0-10.19-183.68-7.13-265.33.74-19.83,78.55-32.86,77.6-22.49-7,76.63-43.59,288.3-43.59,288.3A28,28,0,0,0,1296,1653C1298.1,1656.69,1298.84,1657.93,1298.83,1662.74Z" fill="#f99370"/><path d="M1438.09,1667.36h-64A5.1,5.1,0,0,1,1369,1662c7.09-32.45-25.36-199.11-25.2-313.62,0-3,69.36,5.09,72.32,39.75,5.33,62.45-17.2,241.11-17.2,241.11-2.14,18.71,17.8,20.66,30.54,23.14,5.06,1.27,10.35,3.25,12.82,7A5.09,5.09,0,0,1,1438.09,1667.36Z" fill="#f99370"/><path d="M1253.89,1604.69c.33,10.78.55,17.16.55,17.16,26.6,11,54.1.69,54.1.69l1.85-15.82,29.25-250c9.76,84.15,14.64,203.4,16.21,247.66.39,11,.57,17.42.57,17.42,3.56.83,7,1.46,10.36,1.93,25.44,3.61,43.6-1.93,43.6-1.93s.75-6.25,1.87-17.42c5-49.76,17.75-197,6.16-322.18-6.1-65.93-161-36.71-161-36.71s-3.84,24.46-6,179.79C1250.57,1484.3,1252.82,1568.82,1253.89,1604.69Z" fill="#eb5648"/><path d="M1396.43,1615l-5.86-.61c18.78-181.19.2-324.29,0-325.72l5.84-.78C1396.61,1289.34,1415.29,1433.09,1396.43,1615Z" fill="#ce3932"/><path d="M1285.07,1616.12l-5.86-.64c9.37-85.56,28.06-322.9,28.24-325.29l5.87.46C1313.14,1293,1294.45,1530.47,1285.07,1616.12Z" fill="#ce3932"/><path d="M1349.34,1139.66c124.11,10,185.07-106,33.67-129.88-6.81-.55-18.16-3.26-18.87,6.68a7.76,7.76,0,0,0,4.11,7.13c15,9.12,62.2,26.76,55.08,46.35-4.76,13.06-49.73,15.11-73.19,17.51C1316,1087.09,1315.2,1139,1349.34,1139.66Z" fill="#f99370"/><path d="M1418.42,1282.25s-4.35,7.48-16.46,13.2-34.44,15.69-43,15.29-8.18-10.42-15.11-11.28-3.51,8-12.1,11.29-38.86-.44-77.28-20.33v-21.89Z" fill="#f4d4be"/><path d="M1346.87,1086.16l38.84,41.52,10.72,11.45c18.23.83,42.44-8.17,60.35-22.27l0,0c21.38-16.86,33.76-41,16.22-64.31-32.23-42.89-90-42.75-90-42.75-13.36,5.22-11.23,16.63-11.23,16.63,61.75,30.68,51,56.12,21.72,54.56S1346.87,1086.16,1346.87,1086.16Z" fill="#3a72aa"/><path d="M1385.71,1127.68l10.72,11.45c18.23.83,42.44-8.17,60.35-22.27-20.14,12.41-50.74,18.51-54.81,14.64s-14.72-13.21-14.72-13.21Z" fill="#23659b"/><path d="M1255.62,1279.7q8.81,2.47,17.28,4.38c86.36,19.63,145.51-1.83,145.51-1.83-4.48-66.65-8.34-170.7-62.92-193.86-9-4.27-25.63-.89-34.16-1.28-13.66,9.77-25.11,26.75-34.43,46.92C1264.4,1182.77,1254.35,1250.17,1255.62,1279.7Z" fill="#3a72aa"/><path d="M1367.15,1660.72a20.69,20.69,0,0,0,.6,3,5,5,0,0,0,4.76,3.6h66.38a4.93,4.93,0,0,0,4.69-6.52.56.56,0,0,1,0-.12c-2.58-7.24-10.66-18.08-42-19.85a14.94,14.94,0,0,0-2.5.17c-2.36.56-15,1.66-28.22-.17a10.22,10.22,0,0,0-2.63,3.91C1366.88,1648.67,1366.44,1654.9,1367.15,1660.72Z" fill="#1d3f70"/><path d="M1265,1667.36h28.37a6.29,6.29,0,0,0,6.3-6.52v-.12c-.35-7.8-3.65-19.69-20.47-19.85s-20.14,12-20.48,19.85v.14A6.29,6.29,0,0,0,1265,1667.36Z" fill="#1d3f70"/><path d="M1443.54,1660.72h-76.39a17.45,17.45,0,0,0,2.1,6.64h69.64a4.93,4.93,0,0,0,4.69-6.52A.56.56,0,0,1,1443.54,1660.72Z" fill="#395b96"/><path d="M1265,1667.36h28.37a6.29,6.29,0,0,0,6.3-6.52v-.12h-41v.14A6.29,6.29,0,0,0,1265,1667.36Z" fill="#395b96"/><path d="M1368.82,1023.63s-7.78-1.65-9.8-5.89c-5-10.57-16.84-23.58-16.84-23.58s4.16-3.21,11-1.11,20.31,16,20.31,16Z" fill="#f99370"/><path d="M1289.46,1324.5c-2.82,2.25-7-3.68-10.26-4.18a40,40,0,0,0,2.71,10,178.65,178.65,0,0,0,11.95,15c1.06,9.43-14.21-9-16.45-10.69l-.09.05a128.75,128.75,0,0,0,8.8,17.82c-.91,10.25-13-13.73-14.46-16h-.05a74.61,74.61,0,0,0,6.14,17.88c-2.17,10.05-11.91-14.86-12.68-17.74H1265a77.31,77.31,0,0,0,2.31,14.88c-3.41,9.25-8.49-13.65-8.83-16.36-1-1.49-4.67-11.49-3.93-22.89.25-3.74,13.56-7.51,15.47-4.4,1.44,2.34,7.82,5.69,9.08,6.86C1282,1316.54,1290.87,1320.7,1289.46,1324.5Z" fill="#f99370"/><path d="M1252,1310.73h0c1.07,1.33,2.15,2.64,3.24,3.91l14.73-6.84s-.37-.86-1-2.53a.15.15,0,0,1,0-.06c-3.32-9.28-13.39-42.6-6-87,7.88-47.52,45.47-74.81,50.39-121.89.31-2.84,7.91-6.21,7.95-9.21,0,0-8.93,3.08-11.09,3.37-10.93,1.51-42.34,8.08-65.07,46.82C1202.54,1210,1220.58,1271.65,1252,1310.73Z" fill="#f99370"/><path d="M1255.62,1279.7q8.81,2.47,17.28,4.38c-3.09-21.78-2.13-50.48,1.44-71,4.06-23.2,30.46-68.21,30.46-68.21L1286.9,1134C1264.4,1182.77,1254.35,1250.17,1255.62,1279.7Z" fill="#23659b"/><path d="M1252,1310.73h0a34,34,0,0,1,17-5.46.15.15,0,0,1,0-.06c-.66-2.37-17.68-65,5.31-113.52,21.47-45.28,54.24-62.46,47-92-.66-2.73,1.25-9.71,0-12.61-10.93,1.51-56.81,10-79.54,48.79C1199.16,1208.57,1220.58,1271.65,1252,1310.73Z" fill="#3a72aa"/><path d="M1359,1017.74s3.62-20.42-14.31-27l-11.32,8.51Z" fill="#1d3f70"/><path d="M1346.87,1086.15c.26-1.88.41-3.92.49-6.06.49-12.31-1.43-27.59-2.42-33.3a7.44,7.44,0,0,0-.55-2.29c-.09-.36-.19-.71-.31-1.06a11.64,11.64,0,0,0-7.38-7.77h0a14,14,0,0,0-14.14,3.39,2.2,2.2,0,0,0-.2.23,11.52,11.52,0,0,0-2.9,9.83c0,.19,0,.38.09.56s.1.51.16.77c.59-.4,2.25,15.66,2.26,27.31a51.16,51.16,0,0,1-.63,9.35C1297.42,1094.28,1357.55,1102.67,1346.87,1086.15Z" fill="#f99370"/><path d="M1319.45,1049.12c0,.19,0,.38.09.56s.1.51.16.77c.59-.4,2.25,15.66,2.26,27.31,11,5,23.17,2.79,25.4,2.33.49-12.31-1.43-27.59-2.42-33.3-.3-1.34-.52-2.12-.55-2.29-.09-.36-.19-.71-.31-1.06a12.66,12.66,0,0,0-7.38-7.77h0a12.7,12.7,0,0,0-14.14,3.39,2.2,2.2,0,0,0-.2.23A12.67,12.67,0,0,0,1319.45,1049.12Z" fill="#e57d61"/><path d="M1302.24,1038.39c1.84,11.41,5.69,24.27,14.71,31.82h0a28.46,28.46,0,0,0,12.79,5.87c26.37,7.63,58-23.77,37-46-7-6.45-8.63-17.15-13.64-24.14C1330.8,975.92,1296.08,1007.38,1302.24,1038.39Z" fill="#f99370"/><path d="M1345.8,1031.35a1.73,1.73,0,1,0-2.33.76A1.73,1.73,0,0,0,1345.8,1031.35Z" fill="#c16256"/><path d="M1360.32,1028.91a1.73,1.73,0,1,0-2.32.76A1.73,1.73,0,0,0,1360.32,1028.91Z" fill="#c16256"/><path d="M1302.24,1038.39c.13.94.27,1.87.45,2.81s.34,1.73.54,2.61a1.94,1.94,0,0,1,.07.33c.22.91.44,1.79.66,2.66.16.57.32,1.15.49,1.71s.37,1.27.57,1.88a65.21,65.21,0,0,0,2.28,6.22c.57,1.31,1.17,2.56,1.8,3.74a32.44,32.44,0,0,0,7.85,9.86h0a24.36,24.36,0,0,0,2.35,1.72c-6.86-6.81-10.84-21.4-10.84-21.4l1.62-12.37c11.07-11.22,6.3-23.83,6.3-23.83,18.52,5.19,24.76-6.23,24.76-6.23,5.86.75,12-2.2,12-2.2-.5-.76-1-1.49-1.56-2.18a28,28,0,0,0-4.16-4.36,22,22,0,0,0-4.21-2.83,20.25,20.25,0,0,0-3.08-1.29l-.3-.1a23,23,0,0,0-7.88-.95,31.59,31.59,0,0,0-6,.85,27.28,27.28,0,0,0-12.75,7c-.14.14-.27.27-.42.4a34.62,34.62,0,0,0-6.43,9A47,47,0,0,0,1302.24,1038.39Z" fill="#e57d61"/><path d="M1307.92,1008.66s13.5,6.12.5,26.86l-8.47,7S1280.77,1012.32,1307.92,1008.66Z" fill="#1d3f70"/><path d="M1354.83,1043.93c2.3,0,4.81-1,5.4-2.39.2-.46.46-1.62-1.32-2.59-3.27-1.77-5.66-8.53-5.69-8.59a.65.65,0,0,0-.83-.41.66.66,0,0,0-.4.84c.1.29,2.59,7.31,6.3,9.31.42.23.89.58.74.93-.43,1-3.53,2.09-5.72,1.38a.65.65,0,0,0-.82.43.65.65,0,0,0,.42.82A6.28,6.28,0,0,0,1354.83,1043.93Z" fill="#c16256"/><path d="M1295,1044.15c1.16,5.48,5.67,9.17,10.08,8.24s7-6.13,5.88-11.61-5.67-9.16-10.08-8.23S1293.83,1038.68,1295,1044.15Z" fill="#f99370"/><path d="M1299.11,1046.83l.19,0a.66.66,0,0,0,.43-.82c-1.17-3.85-1.13-6.5.12-7.66,1.66-1.54,5.09-.24,5.12-.22a.66.66,0,1,0,.48-1.22c-.17-.07-4.22-1.62-6.49.48-1.67,1.55-1.83,4.58-.48,9A.66.66,0,0,0,1299.11,1046.83Z" fill="#c16256"/><path d="M1305.21,1045.92a.8.8,0,0,0,.26-.05.66.66,0,0,0,.34-.86c-.09-.22-2.4-5.52-7.4-5.85a.66.66,0,0,0-.69.61.64.64,0,0,0,.61.69c4.18.28,6.26,5,6.28,5.06A.65.65,0,0,0,1305.21,1045.92Z" fill="#c16256"/><path d="M1307.49,988.65a13.65,13.65,0,0,1,2.44-2.42c9.19-7.13,13.53-19.14,13.53-19.14s5.8,7.29,8,15.84a96,96,0,0,0,9.76-14.12,34.78,34.78,0,0,1,5.14,12.37,31.16,31.16,0,0,1,14.18-7.35c8.79,24.54-11.13,28.92-19.89,29.67-8.74,10.08-24.12,11-32.8,7l-10.17,13.15C1281.54,998.83,1299.39,990.88,1307.49,988.65Z" fill="#1d3f70"/><path d="M1339.64,1356.77c9.76,84.15,14.64,203.4,16.21,247.66.39,11,.57,17.42.57,17.42,3.56.83,7,1.46,10.36,1.93h0s-.16-6.3-.45-16.84c-1.38-49.25-5.57-191-9.29-214.13C1352.56,1364.77,1339.64,1356.77,1339.64,1356.77Z" fill="#ce3932"/><path d="M1355.85,1604.43c.39,11,.57,17.42.57,17.42,3.56.83,7,1.46,10.36,1.93,25.44,3.61,43.6-1.93,43.6-1.93s.75-6.25,1.87-17.42c0,0-15.89,8.34-45.89,2.5C1363,1606.28,1359.53,1605.46,1355.85,1604.43Z" fill="#ce3932"/><path d="M1253.89,1604.69c.33,10.78.55,17.16.55,17.16,26.6,11,54.1.69,54.1.69l1.85-15.82s-28.86,11.1-56.49-2Z" fill="#ce3932"/><path d="M1346.87,1086.15a16.18,16.18,0,0,1,10.93-2.9s8.47,14.21-4.42,21.73c0,0-2.12-6.65-8.69-7.85,0,0,2,6.31,1.29,10.17,0,0-17.64-.68-29-10a34.21,34.21,0,0,1-6.77-8,15,15,0,0,1,11.13-2.13s10.39,8.26,20.2,6.93C1349.78,1092.91,1346.87,1086.15,1346.87,1086.15Z" fill="#f4d4be"/><path d="M1351.66,1056.26a5,5,0,0,1-4-2.69h0c-1.3-2.26-1-4.9.71-5.87s4.13.06,5.43,2.32,1,4.9-.7,5.88A2.76,2.76,0,0,1,1351.66,1056.26Zm-2.94-3.32c.94,1.63,2.64,2.48,3.71,1.86s1.18-2.51.24-4.14-2.65-2.49-3.71-1.87-1.18,2.52-.24,4.15Z" fill="#c16256"/><path d="M1337.2,1029.47h0a.62.62,0,0,1-.6-.65,12.11,12.11,0,0,1,6.61-10.66.64.64,0,0,1,.83.33.63.63,0,0,1-.33.83,10.84,10.84,0,0,0-5.85,9.55A.62.62,0,0,1,1337.2,1029.47Z" fill="#c16256"/><path d="M1359.32,1023.67a.66.66,0,0,1-.48-.22s-3.6-4.08-8.15-4.08a.63.63,0,0,1,0-1.26c5.13,0,8.94,4.33,9.1,4.51a.63.63,0,0,1-.06.89A.61.61,0,0,1,1359.32,1023.67Z" fill="#c16256"/></g><g id="_3" data-name="3"><path d="M890.37,1662.88l-38.92.52c0-4.81.39-6.56,2.52-10.28,7.82-10.38-1.52-56.8-1.25-68.93-1.81-3.32,33.81-.71,34.37-1.5a1.38,1.38,0,0,1,1.38,1.49l-4.21,53C882.37,1647.3,890.1,1653.38,890.37,1662.88Z" fill="#f99370"/><path d="M1034.13,1667.5H970.07a5.1,5.1,0,0,1-5.09-5.37,40.77,40.77,0,0,1,.57-5,85.64,85.64,0,0,0,1.21-16.15c0-2.59-.2-5.19-.47-7.77l-4.61-44.94a5.1,5.1,0,0,1,5.07-5.61H995a5.09,5.09,0,0,1,5.06,5.72l-5.14,40.95a17.82,17.82,0,0,0,13.42,19.5c6.25,1.55,12.6,2.49,17.14,3.65l1.74.48h0c4.82,1.37,8.8,3.17,11.1,6.55A5.09,5.09,0,0,1,1034.13,1667.5Z" fill="#f99370"/><path d="M963.11,1660.86c.17,3.14,1.73,6.72,5.37,6.64h66.45a4.93,4.93,0,0,0,4.65-6.64c-2.58-7.24-11.74-18-43.14-19.81a112.76,112.76,0,0,1-29.68,0A32.23,32.23,0,0,0,963.11,1660.86Z" fill="#103663"/><path d="M856.54,1667.5h28.4a6.29,6.29,0,0,0,6.31-6.52v-.12c-.35-7.8-3.66-19.7-20.49-19.85s-20.17,12-20.51,19.85v.14A6.28,6.28,0,0,0,856.54,1667.5Z" fill="#103663"/><path d="M1019.09,1658.52a1.39,1.39,0,0,1-.53-.1,1.41,1.41,0,0,1-.78-1.84c3-7.47,8.69-9.77,8.93-9.86a1.41,1.41,0,1,1,1,2.62h0c-.19.08-4.8,2-7.35,8.3A1.42,1.42,0,0,1,1019.09,1658.52Z" fill="#e8c0a6"/><path d="M1008.12,1657.2a1.23,1.23,0,0,1-.42-.07,1.4,1.4,0,0,1-.93-1.76,22.23,22.23,0,0,1,10.07-12.36,1.41,1.41,0,1,1,1.3,2.5,19.77,19.77,0,0,0-8.68,10.69A1.4,1.4,0,0,1,1008.12,1657.2Z" fill="#e8c0a6"/><path d="M995.63,1655.66a1.29,1.29,0,0,1-.47-.08,1.4,1.4,0,0,1-.86-1.79,27.85,27.85,0,0,1,9.89-13.16,1.41,1.41,0,0,1,1.56,2.36,25.45,25.45,0,0,0-8.79,11.73A1.41,1.41,0,0,1,995.63,1655.66Z" fill="#e8c0a6"/><path d="M860.56,1649.44a1.41,1.41,0,0,1-.72-2.63c9.53-5.57,21.42-.29,21.92-.06a1.41,1.41,0,0,1,.71,1.86,1.43,1.43,0,0,1-1.87.71c-.11-.06-11.08-4.9-19.33-.07A1.4,1.4,0,0,1,860.56,1649.44Z" fill="#e8c0a6"/><path d="M1039.58,1660.86H963.11a17.43,17.43,0,0,0,2.09,6.64h69.73a4.93,4.93,0,0,0,4.69-6.52Z" fill="#0f2e54"/><path d="M856.54,1667.5h28.4a6.29,6.29,0,0,0,6.31-6.52v-.12h-41v.14A6.28,6.28,0,0,0,856.54,1667.5Z" fill="#0f2e54"/><path d="M845.64,1631.31s32,7.34,48.52-.55c0,0,.68-4,1.87-11,7-41.38,24.85-163.55,38.25-239.58,0,0,13.09,118.28,21.05,239.58.43,6.53.66,10.44.63,11a91.72,91.72,0,0,0,9.79,2.5c10.39,2.11,26.75,3.77,37.32-3.28,0,0,.41-3.59,1.07-10.21,4.78-47.47,18.7-173.92-8.6-322.11,0,0-80.86,18.94-140.46,1.93,0,0-12.29,126.41-9.09,320.18A92.43,92.43,0,0,1,845.64,1631.31Z" fill="#1d3f70"/><path d="M990.75,1625.16h-.14a1.89,1.89,0,0,1-1.76-2c12-171.25-13.08-330.77-13.34-332.36a1.9,1.9,0,0,1,3.76-.6c.26,1.59,25.44,161.54,13.38,333.23A1.9,1.9,0,0,1,990.75,1625.16Z" fill="#103663"/><path d="M870.84,1625.16h-.08a1.9,1.9,0,0,1-1.83-2c7.4-176.07,33.9-332.61,34.16-334.17a1.92,1.92,0,0,1,2.2-1.55,1.89,1.89,0,0,1,1.56,2.19c-.27,1.56-26.73,157.87-34.11,333.69A1.9,1.9,0,0,1,870.84,1625.16Z" fill="#103663"/><path d="M845.64,1631.31s32,7.34,48.52-.55c0,0,.68-4,1.87-11,0,0-24.07,5.25-50,0A62.9,62.9,0,0,1,845.64,1631.31Z" fill="#103663"/><path d="M957.13,1131.62c23.91,25.53,37.89,58.6,48.64,91.29,9.2,31.65,24.81,62.36,48.8,85.37,7.73,5.83-.92,18.17-9,12.79-14.93-9.6-27.82-22-39.37-35.43-31.59-35.46-43.36-86.28-81.54-116.21,0,0,.15.17.18.19C900.1,1148.4,932.2,1110.63,957.13,1131.62Z" fill="#f99370"/><path d="M1039.71,1291.6s-1,9.17-13.76,14.57c-76.44-54.61-87.92-115-80-182.77C994.44,1130.14,1013.56,1255.37,1039.71,1291.6Z" fill="#eb5648"/><path d="M947,1028.19s7.47-2,9.94,4.83-2.95,9.66.66,16,6.4,8,3.78,12.58-6.52,4.14-6.42,10.69c0,0-14-22.25-13.68-33.81S947,1028.19,947,1028.19Z" fill="#8c4225"/><path d="M1008.21,1292a259,259,0,0,1-32.11-33l-5.05-100s21.21,29.93,30.64,75.17C1008,1264.13,1008.53,1282.82,1008.21,1292Z" fill="#d64343"/><path d="M933.74,1119.1c.24-1.8.39-3.75.47-5.78.46-11.74-1.37-26.3-2.32-31.75a6.93,6.93,0,0,0-.52-2.18c-.09-.34-.19-.68-.3-1a11.08,11.08,0,0,0-7-7.41h0a13.34,13.34,0,0,0-13.48,3.23l-.2.22a11,11,0,0,0-2.76,9.38c0,.17,0,.36.08.53l.15.73c.57-.38,2.15,14.93,2.16,26a48.65,48.65,0,0,1-.6,8.91C886.57,1126.84,955.16,1149.32,933.74,1119.1Z" fill="#f99370"/><path d="M907.58,1083.8c0,.17,0,.36.08.53l.15.73c.57-.38,2.15,14.93,2.16,26,10.45,4.75,22.1,2.66,24.24,2.22.46-11.74-1.37-26.3-2.32-31.75-.28-1.27-.49-2-.52-2.18-.09-.34-.19-.68-.3-1a12.08,12.08,0,0,0-7-7.41h0a12.14,12.14,0,0,0-13.48,3.23l-.2.22A12.1,12.1,0,0,0,907.58,1083.8Z" fill="#e57d61"/><path d="M944.23,1105.47c-10.65,6.5-24.37,5.67-34.27.78a27,27,0,0,1-10.46-8.4h0c-29.79-49.44,40.42-102.65,51.11-38.73C955,1076.9,967,1090.37,944.23,1105.47Z" fill="#f99370"/><path d="M941,1090l-12.07-10.54s-2.72,7.34,2.25,10.76C935.91,1093.48,941,1090,941,1090Z" fill="#f9f8f3"/><path d="M935.2,1068.63a1.65,1.65,0,1,0-2.33.16A1.65,1.65,0,0,0,935.2,1068.63Z" fill="#c16256"/><path d="M949.2,1069.75a1.65,1.65,0,1,0-2.32.16A1.64,1.64,0,0,0,949.2,1069.75Z" fill="#c16256"/><path d="M940.84,1090.6a.63.63,0,0,0,.56-1.08L929.33,1079a.62.62,0,0,0-.88.06.63.63,0,0,0,.06.88l12.07,10.54A.73.73,0,0,0,940.84,1090.6Z" fill="#c16256"/><path d="M948.17,1048.62s-6.86,2.7-12.49-.75-8.56-2.16-9.62,2.78-9.61,1.25-11.24,3.28-1.5,6.7-4.25,9.16-13.72,3.6-13.72,3.6l-.87,11.13s-.26,15.64,5.29,22.17a21.39,21.39,0,0,1-1.77-2.14h0a30.89,30.89,0,0,1-5-10.94c-.31-1.24-.58-2.53-.79-3.87a60.13,60.13,0,0,1-.67-6.28c0-.62-.13-3-.15-3.57,0-.86,15.52-37.2,18.47-39,.17-.09,34.8,8.36,35.61,10.21C947.32,1045.2,948,1048.16,948.17,1048.62Z" fill="#e57d61"/><path d="M940.63,1082.36c2.13.54,4.68.19,5.56-1,.28-.37.79-1.39-.63-2.69-2.61-2.39-3.26-9.2-3.26-9.27a.62.62,0,1,0-1.24.11c0,.3.7,7.36,3.66,10.08.34.3.69.73.47,1-.62.82-3.75,1.11-5.61,0a.61.61,0,0,0-.86.2.62.62,0,0,0,.2.85A5.91,5.91,0,0,0,940.63,1082.36Z" fill="#c16256"/><path d="M855.08,1299.59s-5.22,4.27-1.24,12c5.23,10.09,75,22.94,89.81,20.59,4.49-.72,7.87-9.51,8.16-13.22,0,0,7.24,11.16,14.31,10.65s28.59-12.73,31-21.09.68-13,.68-13Z" fill="#e8c0a6"/><path d="M855.08,1299.59c1.14,6.64,56,17.45,82.86,15.08,42.71-3.76,49.32-11.05,57.6-17,9.91-7.14,6.54-31-.94-67.48-6.31-30.83-16.46-62-27.74-78a128.13,128.13,0,0,0-19.59-21.82c-6.95-6.16-12.25-9.63-13.52-11.27h0c.18.7,4.68,19.46-24.38.89l-8.94,1.59C860.81,1163.2,844.28,1236.71,855.08,1299.59Z" fill="#eb5648"/><path d="M947,1044.44s6.74-5,2.47-11.07-2.19-12.93-10-13.65-10.83-.52-18.44-4.77-16.49,1.85-17.48,7.1-11.94,2.49-15.33,9.06-2.28,9.09-3,12.11-11.31,4.59-11.26,12.28,6.39,8.1,6.39,13-5.55,12-.86,15.92c7,5.86,15.07,2.48,15.07,2.48s-5.16-21.49,5.13-23.12c5-.79,10.12-2.27,10.21-9.43s9.56-2.55,12.78-5.45,2.59-7.52,7.17-7.36S935.93,1047.65,947,1044.44Z" fill="#8c4225"/><polygon points="1029.01 1212.56 1000.03 1213.7 1017.91 1158.89 1046.88 1157.74 1029.01 1212.56" fill="#163356"/><polygon points="1015.39 1156.37 1017.91 1158.89 1000.03 1213.7 997.51 1211.19 1015.39 1156.37" fill="#2e619e"/><polygon points="1044.37 1155.22 1046.88 1157.74 1017.91 1158.89 1015.39 1156.37 1044.37 1155.22" fill="#2e619e"/><path d="M1003.19,1199.79c.85-.52,1.84-1.17,2.75-1.81s1.84-1.3,2.74-2q2.72-2,5.24-4.31a61.17,61.17,0,0,0,4.73-4.8,40.46,40.46,0,0,0,3.91-5.35l0-.07a2.16,2.16,0,0,1,3.83,2,45.11,45.11,0,0,1-3.62,6.58,68.33,68.33,0,0,1-4.5,5.89c-1.61,1.86-3.3,3.65-5,5.37-.88.85-1.78,1.7-2.69,2.52s-1.82,1.61-2.89,2.45a3.95,3.95,0,1,1-4.92-6.18l.39-.27Z" fill="#f99370"/><path d="M1006.38,1201.9l.26-.07.36-.12.74-.27c.49-.19,1-.42,1.5-.63,1-.47,2-1,3-1.55a37.1,37.1,0,0,0,5.56-3.9,38.55,38.55,0,0,0,4.85-4.88,42.63,42.63,0,0,0,4-5.7l.06-.1a2.16,2.16,0,0,1,3.81,2,48.07,48.07,0,0,1-3.68,6.85,45.15,45.15,0,0,1-10.73,11.52c-1.07.81-2.18,1.56-3.33,2.28-.59.34-1.17.69-1.79,1l-.94.48-.49.24c-.18.08-.33.15-.59.25l-1.35.53a4.14,4.14,0,0,1-3-7.7A4.28,4.28,0,0,1,1006.38,1201.9Z" fill="#f99370"/><path d="M1007.36,1206.6c.9-.36,2-.87,3-1.38s2-1.06,3.06-1.63a61.81,61.81,0,0,0,5.84-3.77,51.63,51.63,0,0,0,5.35-4.44,43.35,43.35,0,0,0,4.61-5.15l.07-.09a2.16,2.16,0,0,1,3.56,2.44,49.81,49.81,0,0,1-4.41,6.34,58.2,58.2,0,0,1-5.28,5.6,69.57,69.57,0,0,1-5.9,4.92c-1,.76-2.08,1.5-3.16,2.22s-2.13,1.37-3.42,2.08a3.95,3.95,0,0,1-3.81-6.92,3.36,3.36,0,0,1,.43-.2Z" fill="#f99370"/><path d="M1007.49,1211.57c.37-.1.92-.28,1.39-.45s1-.35,1.48-.54c1-.38,2-.8,2.95-1.25a50.12,50.12,0,0,0,5.63-3,38.86,38.86,0,0,0,5.09-3.82,31.27,31.27,0,0,0,4.24-4.67l.09-.11a2.16,2.16,0,0,1,3.6,2.37,36.14,36.14,0,0,1-4.19,6,44.18,44.18,0,0,1-5.22,5.11,57.2,57.2,0,0,1-5.88,4.27c-1,.64-2.07,1.26-3.15,1.84-.53.3-1.08.58-1.63.86s-1.08.53-1.77.83l-.06,0a4,4,0,1,1-3.1-7.27A3,3,0,0,1,1007.49,1211.57Z" fill="#f99370"/><path d="M990.42,1212.71s2.7-11.87,12.34-15.32,11.32-4.74,11.32-4.74l13.85,13s-8.47,12-25.7,20.53Z" fill="#f99370"/><path d="M990.42,1212.71s4.4-18.44,14.18-23.35l-2.73,8.38Z" fill="#f99370"/><path d="M915.68,1164.22c-7,20.85-17.66,52-6.88,72,25.39,22.71,60-2.6,79.39-22.41,7.58-11.84,24.63-2.69,17.26,9.59a161.2,161.2,0,0,1-18.74,21.78c-26.38,28.09-71.71,42.59-103.51,14.22-27.21-28.75-20.86-72.34-15.85-107.89C875.59,1118.94,924.39,1131.7,915.68,1164.22Z" fill="#f99370"/><path d="M990.42,1242.28a84.91,84.91,0,0,1-6.49,7.83h0c-21.91,23.56-60.29,40.15-92.94,20-36.17-22.38-44.09-70.9-36-103,10.31-40.89,45.43-45.45,45.43-45.45s23.78,18.85,24.19,33.19-12.89,34.65-7.11,65.45c4.43,23.6,37.84,12.43,53.23,5.92h0c4.7-2,7.72-3.55,7.72-3.55C980,1238,990.42,1242.28,990.42,1242.28Z" fill="#eb5648"/><path d="M900.43,1121.6a11.1,11.1,0,0,0,2.06,5.2,25.13,25.13,0,0,0,6.63,6.21c8.84,6,21.21,9.46,21.21,9.46l3.42-10.08c4.37,1.08,8.23,7.2,8.23,7.2,3.58-3.28,4.94-6.51,5.29-9.21a11.26,11.26,0,0,0-1.28-7,14,14,0,0,0-12.24-4.3h0c.18.7,4.68,19.46-24.38.89C906,1118.43,900.43,1121.6,900.43,1121.6Z" fill="#e8c0a6"/><path d="M1076.15,1310.59c-1.62,3.45-7.7.06-10.93,1.28a43.3,43.3,0,0,0,7.4,7.61,182,182,0,0,0,17.88,7.51c5.72,7.87-16.77-1-19.56-1.49a.41.41,0,0,1,0,.09,135.12,135.12,0,0,0,16.6,11.59c4,9.53-17.94-5.88-20.56-7.24l0,0a78.76,78.76,0,0,0,14.35,12.94c3.22,10-17.83-7.47-19.89-9.62l-.08,0a81.59,81.59,0,0,0,9.54,12.14c1.74,9.91-14.28-8.09-15.89-10.27-1.65-.82-10.05-8-15.2-18.56-1.69-3.45,8.39-13.31,11.61-11.47,2.42,1.38,9.26,1.31,10.94,1.72C1066.14,1307.27,1074.91,1306.32,1076.15,1310.59Z" fill="#f99370"/><path d="M990.42,1242.28a84.91,84.91,0,0,1-6.49,7.83h0c-15.5-6.89-13.25-23.57-13.19-23.95h0c4.7-2,7.72-3.55,7.72-3.55C980,1238,990.42,1242.28,990.42,1242.28Z" fill="#d64343"/><path d="M1039.71,1291.6s-1,9.17-13.76,14.57c0,0-2.46-1.74-6.49-4.9a30.68,30.68,0,0,0,16.86-15.18Q1038,1289.15,1039.71,1291.6Z" fill="#d64343"/><path d="M936.52,1235.32a30,30,0,0,1-10.19-1.49c-15.08-5.57-10.7-41.08-10.5-42.58a1.25,1.25,0,0,1,1.4-1.09,1.26,1.26,0,0,1,1.09,1.41c0,.35-4.33,35,8.88,39.9,13.73,5.07,45.12-5.92,45.44-6a1.26,1.26,0,1,1,.84,2.37C972.42,1228.19,952,1235.32,936.52,1235.32Z" fill="#d64343"/><path d="M923,1279.67a61.65,61.65,0,0,1-7.83-.49c-48-6-60.85-59.58-61-60.13a1.26,1.26,0,0,1,2.45-.56c.12.53,12.58,52.45,58.83,58.2,39.78,4.93,69.29-31.12,69.59-31.48a1.26,1.26,0,1,1,2,1.57C986.79,1247.14,960.19,1279.67,923,1279.67Z" fill="#d64343"/><path d="M889.17,1068.74c.24,5.58,4.08,10,8.57,9.75s7.93-4.88,7.69-10.46-4.08-9.94-8.57-9.75S888.93,1063.16,889.17,1068.74Z" fill="#f99370"/><path d="M893,1072.07a.65.65,0,0,1-.64-.57c-.61-4.58,0-7.53,2-8.78,2.57-1.69,6.3.49,6.46.59a.65.65,0,0,1-.67,1.12s-3.19-1.86-5.08-.62c-1.42.94-1.89,3.54-1.37,7.52a.64.64,0,0,1-.56.73Z" fill="#c16256"/><path d="M899.18,1072.17a.65.65,0,0,1-.63-.5c0-.05-1.28-5.05-5.36-6a.64.64,0,0,1-.48-.78.65.65,0,0,1,.78-.49c4.86,1.14,6.27,6.73,6.32,7a.65.65,0,0,1-.48.79Z" fill="#c16256"/></g><g id="_2" data-name="2"><path d="M1906.12,1012s-66.09,8.56-39.36,166.76h95.83S1967.68,1026.32,1906.12,1012Z" fill="#163260"/><path d="M2115.81,1416.47l-93.18,34.3a3.09,3.09,0,0,1-4-1.83c.92-2-31.59-75.91-24.92-75.57.08-.25,93.33-34.26,93.51-34.46a3.09,3.09,0,0,1,4,1.83l26.42,71.76A3.09,3.09,0,0,1,2115.81,1416.47Z" fill="#8a9edd"/><path d="M2115.81,1416.47l-93.18,34.3a3.09,3.09,0,0,1-4-1.83c.88-1.83-31.56-76-24.92-75.58l.39.07s29.86,70.67,122.32,36.62l.37.21C2117.82,1412.31,2118.63,1415.48,2115.81,1416.47Z" fill="#7689d6"/><rect x="2009.52" y="1358.85" width="93.37" height="71.05" transform="translate(-355.15 796.35) rotate(-20.21)" fill="#fff"/><path d="M2112.29,1411.58l-87.62,32.27-19.85-53.92c15.13,18.07,47.84,41.94,107.45,21.61Z" fill="#f5faff"/><path d="M2116.92,1384.84c-2.08-5.63-6.24-16.95-8.31-22.58-1-3-5.47,0-7.28.42l-2.89-7.83a2.12,2.12,0,0,0-2.72-1.26l-4.21,1.55c-1.51.41-3.51,1.37-2.77,3.28l15.55,42.23c.67,1.91,2.83,1.4,4.23.7,1.6-.89,6.64-1.34,5.48-4.27l-2.89-7.84C2112.74,1388.36,2118.1,1387.81,2116.92,1384.84Zm-8.6-11.13a1.38,1.38,0,0,1,.95,2.6A1.38,1.38,0,0,1,2108.32,1373.71Z" fill="#fcb4b4"/><path d="M2112.74,1399.8c-1.91.24-7.36,4.16-8.45.85l-15.55-42.23a2.11,2.11,0,0,1,1.25-2.72s10.78,35.09,26.93,29.14c1.19,3-4.19,3.52-5.81,4.4l2.89,7.84A2.12,2.12,0,0,1,2112.74,1399.8Z" fill="#f49f9f"/><path d="M2112.76,1373.55c-4.55-12.35-11.43-10.87-11.43-10.87,1.81-.38,6.25-3.45,7.27-.42Z" fill="#f9c0c0"/><path d="M2090.09,1220.18s11.3-1.59,18.41-1.17l-8,16.07s-15.9-7.62-16.65-9.37S2090.09,1220.18,2090.09,1220.18Z" fill="#e57d61"/><path d="M1881.36,1661.42a6.2,6.2,0,0,1-5.9,4.79h-29a6.24,6.24,0,0,1-5.86-8c2.24-7.53,7.41-15,6.38-23.09-.21-15.79.06-47.64,0-58h32.67c-.63,8.86-3.62,44-4.62,59.14C1873.81,1645.53,1881.59,1652.67,1881.36,1661.42Z" fill="#f99370"/><path d="M1923.66,1165.11c-7.74,19.25-12.88,50.19,10.12,61,34.72,13.8,75.06,11.62,110.58,1.29,2-.62,4-1.31,5.93-2a2,2,0,0,1,.27-.1l3.87-.13c9.37-.66,13.1,12.9,4.89,17.19-1,.5-2.69,1.58-3.67,2.06-41.17,21.73-113.7,37.84-154.88,9.9-33.48-23-36.65-69.31-26.81-105.31C1884.51,1115.13,1935,1131.51,1923.66,1165.11Z" fill="#f99370"/><path d="M2037.83,1661.42a5.27,5.27,0,0,1-5.23,4.79h-72.43c-.77-7.37,1.72-14.11,1.32-22.18h0c.33-21.44-4-47.47-5.61-66.88h41.62c-.46,8.27-6.48,42.85-6.59,57.66,4.42,16.67,28.51,11.49,39.56,18C2033.8,1654.65,2038,1657.33,2037.83,1661.42Z" fill="#f99370"/><path d="M2038.19,1661.42a4.94,4.94,0,0,1-4.93,4.79h-73.09c-.86-7.38,1.06-14.76,1.32-22.18h0a50.51,50.51,0,0,0,0-5.64c23.56,28.46,66,1.84,76.22,20.87h0A4.61,4.61,0,0,1,2038.19,1661.42Z" fill="#eb5648"/><path d="M1881.47,1661.42a6.17,6.17,0,0,1-6,4.79h-29c-8.4-.59-6.42-9.82-3.1-15.11,0,0,16.17-13.13,35.18,0C1880.17,1654.19,1882,1657.86,1881.47,1661.42Z" fill="#eb5648"/><path d="M1932.68,1121.73c36.49,7.7,58.38,43.65,67.75,77.11,6,21,7,42.87,12,64,5.65,26.64,13.26,53,23.66,78.17,4.78,11.29-8.26,21.09-16.79,11.67-17.19-21.53-30.53-45.88-41.75-71-9.07-19.67-15.26-40.73-22.09-61.23-6.29-16.5-14.64-33.7-29-43.14a21,21,0,0,0-3.91-2c.47.14,1.1.2,1.59.3C1888.85,1170,1897.37,1116.3,1932.68,1121.73Z" fill="#f99370"/><path d="M2033.23,1334.43a46.82,46.82,0,0,1-18.46,12.78c-12.55-16.37-28.9-37.5-38.79-56.27-15.57-43.68-32.53-131.82-41.32-169.85C2011.41,1133.9,2009.84,1272.9,2033.23,1334.43Z" fill="#e8c0a6"/><path d="M2013.63,1326.7c-.36,4.35-3.82,7.17-7.71,9-3.76-5-8.32-11.19-12.83-17.6l-8.69-141.5s24.65,30,27.8,115.62C2012.2,1292.19,2014.49,1316.34,2013.63,1326.7Z" fill="#d1a68f"/><path d="M2061.11,1356.25a2,2,0,0,1-2.93,1.07,41.8,41.8,0,0,0-9.92-3.59l-25.74,9.66s-4.45-3.67-4.4-12.45c0-5.1,12.61-12.15,17-10.65a59,59,0,0,1,11.07,5.68C2049.28,1347.09,2062.59,1351.94,2061.11,1356.25Z" fill="#f99370"/><path d="M1840,1633.05s23.55,8.73,39.92,1.59c10-53.2,38.81-160.53,48.63-264.2,0-4.19,32.5,145.82,24.19,260.82,10.39,3.68,33,9.3,43.46.59,7.58-54.15,27.87-207.61-3.57-370.27,0,0-66.77,8.41-125.9-7,0,0-25.8,44.49-19.3,139.67C1852.88,1486.63,1848.82,1578.57,1840,1633.05Z" fill="#1d3f70"/><path d="M2309.31,1131.83c-33.87,41-54.66,97.33-109,114.84-33.31,9.95-68.53,4.79-99.37-9-9.52-4.05-5.92-19.19,4.27-18.65,40.88,1.41,90.48-4.9,108.22-47.09,15.51-26.47,33.35-52,55.36-73.55C2291.76,1074,2328.55,1104.9,2309.31,1131.83Z" fill="#e57d61"/><path d="M1899.05,1292.19s-6.54,21.1-32.29,35.48l12.85,13.21c1-1.4,26.63-20.72,33.85-36.72Z" fill="#1d3f70"/><path d="M1846.93,1626.43c5.14-45.29,15.3-142.81,11.46-204.6-2.06-62.61,6.86-94.25,6.95-94.57,1.15-2,23-11.68,32.33-35.6.63-1.73,3.48-.79,2.77,1-8.22,21.82-28.61,33.87-32.42,36C1854.19,1381.12,1868.88,1569.62,1846.93,1626.43Z" fill="#163860"/><path d="M1998.16,1292.19c-34.41,21.6-117.06,10.18-144.79,2.17-6.32-17,10.44-39.68,7-61.22-8-50.37,17.49-100.31,47.42-111,0-.14,0-2.73,0-2.61l26.87,1.6c13.61,9.69,25.55,20.52,38.68,39.17,19.86,28.15,4.93,41.94,10.72,68.66C1985.21,1241.87,2006.34,1286.08,1998.16,1292.19Z" fill="#eb5648"/><path d="M1830.82,1326.7h0C1830.82,1326.78,1830.81,1326.78,1830.82,1326.7Z" fill="#d8b09a"/><path d="M1998.16,1292.19c-29,15.29-67.32,13.9-98.43,10.53l12.54-7.52s46.35,4.58,87.69-11.56C2000.56,1288,2000.17,1291.1,1998.16,1292.19Z" fill="#ce3932"/><path d="M1907.85,1122.09l-.09,0C1907.76,1121.92,1907.79,1121.9,1907.85,1122.09Z" fill="#d8b09a"/><path d="M1916.8,1254.73c-1.44,20.24-9,75.29-11.26,82.22,0,0-44.61,8.32-74.7-10.24.85-2.66,14.29-77.72,16.69-111.7,2.8-52,45.28-90.31,60.23-92.89C1908,1132.18,1921.21,1218.51,1916.8,1254.73Z" fill="#e8c0a6"/><path d="M2266.32,1195.7c-17.76,81.7-126,63.57-160.42,44.23,6.11-8,2.6-20.92,2.6-20.92,119.62-3.7,104.33-106.78,167.36-128.09C2275.86,1090.92,2280.51,1149.59,2266.32,1195.7Z" fill="#1d3f70"/><path d="M1934.67,1121.09s33,17.68,43.44,63.25c5.84,25.5-1.82,46,3.14,67.24,10.8,46.23,10.8,79.7,10.8,79.7s10.85.33,18.53-6.82C2010.58,1324.46,2012.3,1152,1934.67,1121.09Z" fill="#e8c0a6"/><path d="M2339.8,1661.66l1.14-.56c0,.75,1,3.34,1.78,3.34l33.74.65c.79,0,1.29-1.4,1.29-2.15l2.87-.77c0-4.73-.41-6.45-2.64-10.11-8.2-10.08,1.58-55.84,1.3-67.78,1.62-3.32-35.4-.66-36.05-1.47a1.4,1.4,0,0,0-1.44,1.46c-.37,11.87,8.86,57.77,1,67.77C2340.57,1655.71,2339.79,1656.93,2339.8,1661.66Z" fill="#f99370"/><path d="M2193.56,1666.2h67.2c5.77-.21,5.86-5.66,4.74-10.16-3.7-15.66,2.84-51.62,4.05-67.72a5.14,5.14,0,0,0-5.31-5.51c-48.94-.18-33.77-5.27-29.57,45.89,2.09,19-19.25,20.24-32.06,22.77-5.26,1.23-10.88,3.18-13.46,6.9C2186.73,1661.7,2189.27,1666.2,2193.56,1666.2Z" fill="#f99370"/><path d="M2268.06,1659.68c-.2,3.21-1.88,6.59-5.63,6.52h-69.7c-17.41-5,10.65-27.65,41.86-25.88,2.48.55,11.66,2.24,25.57.44C2267.8,1639.92,2268.39,1653.1,2268.06,1659.68Z" fill="#103663"/><path d="M2375.28,1666.2h-29.79c-14.36-1.51-4.22-28,14.89-26C2379.6,1637.82,2389.58,1664.8,2375.28,1666.2Z" fill="#103663"/><path d="M1916.8,1254.73c-.76,9-1.85,19-3.07,29-58.56-12-66.11-68-66.2-68.71a151,151,0,0,1,6.27-29.41Z" fill="#d1a68f"/><path d="M2209.34,1657.42a1.43,1.43,0,0,1-1.31-.87,15.49,15.49,0,0,0-7.73-8.15,1.44,1.44,0,0,1,1-2.69,18.12,18.12,0,0,1,9.36,9.7A1.45,1.45,0,0,1,2209.34,1657.42Z" fill="#e8c0a6"/><path d="M2220.85,1656.12a1.44,1.44,0,0,1-1.36-1c-2.35-7.1-9-10.46-9.1-10.49a1.44,1.44,0,0,1,1.26-2.58c.31.16,7.82,3.89,10.56,12.17A1.44,1.44,0,0,1,2220.85,1656.12Z" fill="#e8c0a6"/><path d="M2234,1654.61a1.45,1.45,0,0,1-1.35-.94,25.22,25.22,0,0,0-9.2-11.51,1.44,1.44,0,0,1,1.51-2.44,27.93,27.93,0,0,1,10.38,13A1.44,1.44,0,0,1,2234,1654.61Z" fill="#e8c0a6"/><path d="M2266.32,1195.7c-9.8,40.15-41.22,59.36-78.31,60.57h0s21.59-9.64,28-47.3,31.06-76.81,31.06-76.81Z" fill="#163860"/><path d="M2371.06,1648.49c-11.19-6-21.54,1.93-22.94-.87a1.43,1.43,0,0,1,.76-1.88c.52-.22,12.94-5.39,22.87.06A1.44,1.44,0,0,1,2371.06,1648.49Z" fill="#e8c0a6"/><path d="M2187.85,1659.68h80.21a16.6,16.6,0,0,1-2.2,6.52h-73.13C2189.13,1666.21,2186.57,1662.83,2187.85,1659.68Z" fill="#0f2e54"/><path d="M2375.28,1666.2h-29.79a6.38,6.38,0,0,1-6.61-6.52h43A6.36,6.36,0,0,1,2375.28,1666.2Z" fill="#0f2e54"/><path d="M2276.6,1014.32s-3.8-21.44,15-28.39l11.89,8.94Z" fill="#8c4225"/><path d="M2384,1630.61s-31.77,7.22-48.14-.54c-8.52-50-32.17-189.31-40.4-284.76-.32,5.56-17.62,230-20.92,284.76-11.31,3.55-34,7.81-46.74-.76-5.71-57.62-24.05-247.33,3.58-402.26,0,0,75.71,7.88,134.84-8.85C2382.47,1267.26,2386.79,1571.57,2384,1630.61Z" fill="#3a72aa"/><path d="M2240,1624.35c-11.48-109.65-5.09-248.71,7.5-316.59,3.78,1.46-4.38,36.26-6.75,94.47C2235.88,1453.42,2238.87,1539.33,2240,1624.35Z" fill="#23659b"/><path d="M2359,1624.35c-10.09-171-36.73-329.13-34.15-331.6C2328.42,1293.27,2355.22,1454,2359,1624.35Z" fill="#23659b"/><path d="M2289.35,1086.18c-1.65-14.4.6-35.18,2.61-43.74a12.57,12.57,0,0,1,8.08-9.28c9.51-3.31,20.77,4.8,17.85,15.52-.86-.55-3.63,30-1.72,38.51C2341.27,1094.72,2265.77,1119.48,2289.35,1086.18Z" fill="#f99370"/><path d="M2318.14,1047.29a13.52,13.52,0,0,1-.25,1.39c-.62-.41-2.37,16.45-2.38,28.69-11.5,5.23-24.33,2.93-26.67,2.45.59-16.55-1.11-42.49,11.2-46.66C2309,1029.32,2319.72,1037.5,2318.14,1047.29Z" fill="#e57d61"/><path d="M2336.22,1036c-1.94,12-6,25.5-15.45,33.42h0a29.76,29.76,0,0,1-13.43,6.17c-28,7.83-60.75-24.68-38.9-48.36,8.13-7.61,9.31-19.78,16-27.64,9.21-13.36,29.41-12.66,40.32-1.77C2334.56,1007.68,2337.93,1021.26,2336.22,1036Z" fill="#f99370"/><path d="M2278.56,1049.89l15.72-8C2295.71,1051.4,2285.77,1057.5,2278.56,1049.89Z" fill="#f9f8f3"/><path d="M2290.48,1028.62c-1.09-2.08,2.2-3.75,3.24-1.64S2291.52,1030.74,2290.48,1028.62Z" fill="#c16256"/><path d="M2275.23,1026.06c-1.1-2.08,2.2-3.76,3.24-1.64S2276.27,1028.17,2275.23,1026.06Z" fill="#c16256"/><path d="M2336.22,1036c-1.94,12-6,25.5-15.45,33.42h0a24,24,0,0,1-2.47,1.81c7.21-7.15,11.38-22.48,11.38-22.48l-1.69-13c-11.63-11.78-6.62-25-6.62-25-19.45,5.46-26-6.54-26-6.54-6.15.79-12.62-2.31-12.62-2.31,8.55-15.18,30.21-15.89,42-4.06C2334.56,1007.68,2337.92,1021.26,2336.22,1036Z" fill="#e57d61"/><path d="M2371.28,1310.4a82.16,82.16,0,0,1,0,10.42l13.11,4.81,7-2.93a27.16,27.16,0,0,1,1.7-11.63C2395.46,1304.83,2371.28,1310.4,2371.28,1310.4Z" fill="#f99370"/><path d="M2278.56,1050.58a.69.69,0,0,1-.31-1.3c.43.18,16.68-9.45,16.64-7.73a.7.7,0,0,1-.3.93C2294.22,1042.58,2279,1050.61,2278.56,1050.58Z" fill="#c16256"/><path d="M2281,1041.84c-3.32,0-8.49-2.28-4.29-5.23,3.43-1.86,5.95-9,6-9a.69.69,0,0,1,1.3.46c-.11.31-2.72,7.68-6.61,9.78-2.69,1.65,2.91,3.25,5.22,2.43a.69.69,0,0,1,.87.44C2283.65,1041.92,2281.86,1041.74,2281,1041.84Z" fill="#c16256"/><path d="M2376.72,1304.14c-4.09,3.49-10.22,6.22-17.73,8.27h0c-43.07,11.79-131.36,1.53-138.65-13.64-5.82-12.13-6.21-50,2-90.2,10.89-55.81,28-95.14,67-122.38-.2.79-5.16,21.45,26.83,1l9.84,1.75C2329.32,1142.44,2401.45,1279.39,2376.72,1304.14Z" fill="#1d3f70"/><path d="M2327.23,985.93l-.2.4c-6.47-7.68-18.26-11.43-21-19.24a33.79,33.79,0,0,0-3.54,15.86,62.15,62.15,0,0,1-8.26-11.5,18.48,18.48,0,0,0-5.39,10.65A33.22,33.22,0,0,0,2270,984c5.18,14.65,17.28,17.88,26.76,17.93,7.62,7.29,19.63,10.72,31.41,4.18-6.49,5.46-7.26,22.39,10.49,34.31,0,0,3.08-10.29,2.41-19.87C2357.66,991.66,2327.23,985.93,2327.23,985.93Z" fill="#8c4225"/><path d="M2343.83,1042.07c-3.11,13.66-19.45,10.2-16.76-3.54C2330.17,1024.86,2346.52,1028.32,2343.83,1042.07Z" fill="#f99370"/><path d="M2339.51,1044.88a.68.68,0,0,1-.66-.88c2.53-7.37-.48-10.24-5.5-8.28a.69.69,0,0,1-.5-1.28c5.72-2.34,10.41,1.28,7.31,10A.68.68,0,0,1,2339.51,1044.88Z" fill="#c16256"/><path d="M2333.1,1043.92c-2.14-.17,1.93-6.75,7.14-7.1a.69.69,0,0,1,.09,1.37C2335,1038.74,2334.35,1043.75,2333.1,1043.92Z" fill="#c16256"/><path d="M2274.52,1630.07a78.07,78.07,0,0,1-9.81,2.45s16-222.76,18.35-252.49,12.38-34.72,12.38-34.72S2274.26,1625.26,2274.52,1630.07Z" fill="#23659b"/><path d="M2275.15,1619.27c-.43,6.43-.66,10.27-.63,10.8-11.31,3.55-34,7.81-46.74-.76,0,0-.4-3.53-1.06-10C2226.72,1619.27,2249,1628.86,2275.15,1619.27Z" fill="#23659b"/><path d="M2384,1630.61s-31.77,7.22-48.14-.54c0,0-.67-3.87-1.86-10.8,0,0,21.66,5.87,49.66,0C2383.76,1626,2383.88,1630.05,2384,1630.61Z" fill="#23659b"/><path d="M1952.77,1631.26s30.37,11.31,43.46.59c0,0,.59-3.56,1.53-10.18,0,0-22.78,7.87-44.34-3.77h0Q1953.17,1624.62,1952.77,1631.26Z" fill="#163860"/><path d="M1840,1633.05s23.55,8.73,39.92,1.59c0,0,1-4.67,2.6-13,0,0-14.7,7.68-40.37-1.88C1841.47,1625.09,1840.75,1629.55,1840,1633.05Z" fill="#163860"/><path d="M1953.42,1617.9q-.26,6.72-.65,13.36s3.37,1.26,8.36,2.54c-.11-79.92,0-208.89-32.55-263.36C1928.58,1370.44,1958.1,1492.54,1953.42,1617.9Z" fill="#163860"/><path d="M1928.58,1371.92c-3.85-.18,2.36-11.82,4.64-26.43a1.48,1.48,0,0,1,2.9.59C1932.34,1361.15,1931.41,1370.9,1928.58,1371.92Z" fill="#163860"/><path d="M2050.09,1225.54c12.63-6.58,25.86-5.11,45.59,2,6.86.84,11.46,13.69.44,15.77-16.11,3-36.82-1.17-36.82-1.17Z" fill="#f99370"/><path d="M2070.6,1228.42a31.58,31.58,0,0,1,22.73-8.3c5.23-.14,8.83,7.69,3.59,7.68-6.52-1.11-17,.19-22.56,3.94C2072,1234.2,2068.19,1231,2070.6,1228.42Z" fill="#e57d61"/><path d="M2076.5,1243.4c-2.53,4.49-7.9,1.39-5.27-3.05S2079.13,1239,2076.5,1243.4Z" fill="#e57d61"/><path d="M2081.85,1243.94c-2.53,4.49-7.9,1.39-5.28-3S2084.47,1239.51,2081.85,1243.94Z" fill="#e57d61"/><path d="M2087.3,1244.49c-2.53,4.49-7.9,1.39-5.27-3S2089.93,1240.05,2087.3,1244.49Z" fill="#e57d61"/><path d="M2092.85,1244.49c-2.53,4.49-7.9,1.39-5.28-3S2095.47,1240.05,2092.85,1244.49Z" fill="#e57d61"/><path d="M2326,1088.94c.17,12.21-31.14,23-32.91,23l-3.76-11.11c-4.82,1.19-9.06,7.94-9.06,7.94-13.81-13.72-1.18-24.45,9.06-22.59v0c-.19.79-2.37,18.9,26.72.36C2319.8,1084.82,2326,1088.94,2326,1088.94Z" fill="#f4d4be"/><rect x="2311.04" y="1366.59" width="149.81" height="109.21" transform="translate(-178.47 355.22) rotate(-8.21)" fill="#8c4225"/><polygon points="2319.6 1485.93 2311.05 1481.03 2295.44 1372.95 2303.99 1377.85 2319.6 1485.93" fill="#7f341c"/><polygon points="2295.44 1372.95 2443.76 1351.59 2452.28 1356.45 2303.99 1377.85 2295.44 1372.95" fill="#7f341c"/><path d="M2406.39,1357c-14.53-29.82-52.12-21.4-60.54,8.72-.15,2.46,1.5,4.67,3.63,4.35,2.56-.43,2.86-3.55,3.95-5.44,6.05-13.74,22.6-22.68,36.35-14.73a29.8,29.8,0,0,1,10.72,10.35C2402.77,1363.84,2407,1360.55,2406.39,1357Z" fill="#8c4225"/><polygon points="2303.99 1377.85 2385.94 1421.19 2452.28 1356.45 2303.99 1377.85" fill="#99452b"/><path d="M2388.1,1430.43c-3.41,1-7.32-.63-7.83-4.41-.51-4.5-3.42-13.07,3.51-14.07,3.41-1,7.32.63,7.83,4.42C2392.12,1420.87,2395,1429.43,2388.1,1430.43Z" fill="#f4d4be"/><path d="M2371.32,1320.82s-6.83,14.67-6.83,30.54l22.55,1.28c7.33-10.6,4.36-29.94,4.36-29.94Z" fill="#f99370"/><path d="M2376.72,1304.14c-4.09,3.49-10.22,6.22-17.73,8.27,1.75-21.58-1.76-55.74-16.94-94.21s-14.49-78-14.49-78l11.19.84C2358.42,1196.12,2394.73,1288.77,2376.72,1304.14Z" fill="#163860"/><path d="M2326,1088.94c82.18,18.17,105.08,147.51,65.39,233.76,0,0-8.8,2.93-20.08-1.88,0,0-.39-61.64-25.32-111.35S2326,1088.94,2326,1088.94Z" fill="#1d3f70"/><path d="M1881.47,1661.42a6.17,6.17,0,0,1-6,4.79h-29a6.16,6.16,0,0,1-6-4.79Z" fill="#ce3932"/><path d="M2038.19,1661.42a4.94,4.94,0,0,1-4.93,4.79h-73.09a22.38,22.38,0,0,1-.24-4.79Z" fill="#ce3932"/><path d="M2033.69,1335a42.44,42.44,0,0,1-18,13.11,13.4,13.4,0,0,1-5.13-6.31s15.67-5.69,19.82-15.09A14.91,14.91,0,0,1,2033.69,1335Z" fill="#d1a68f"/><path d="M2045.66,1249.52c-51.63,42.08-153.06,49.35-185-13.23-29.39-58.12,9.85-108.27,47.21-114.19,0,0,12.35,35.39,8.36,61.67l.33,23.77c15.38,31.13,94.76,26.56,123.91,20.8C2051,1238.89,2045.66,1249.52,2045.66,1249.52Z" fill="#e8c0a6"/><path d="M2047.6,1248.52c-2.64,3.06-5.83,3.82-7.79,5.16,2.39-17.61-6.58-24.14-6.58-24.14a16.31,16.31,0,0,1,8.29-1.2C2050.09,1236.58,2047.6,1248.52,2047.6,1248.52Z" fill="#d1a68f"/><path d="M1907.74,1119s-10.59,2-16.82,9.31c0,0,10.74,23.06,18.41,33.38-9.32,16.44,2.19,38.21,7.21,45.84C1916.54,1207.54,1924.32,1154.76,1907.74,1119Z" fill="#d1a68f"/><path d="M1989.47,1233.77c-6,0-10-.2-10-.21a.84.84,0,0,1,.09-1.68,235.09,235.09,0,0,0,29.62-.62.85.85,0,0,1,.92.77.84.84,0,0,1-.77.91C2002,1233.6,1994.92,1233.77,1989.47,1233.77Z" fill="#d1a68f"/><path d="M1986.56,1278.66c-5.19-2,18.12-5.47,29.68-12.46a.84.84,0,1,1,.79,1.49C2004.5,1274.17,1987.13,1278.59,1986.56,1278.66Z" fill="#d1a68f"/><path d="M2095.16,1232.73c-6.55-.22-16.27,0-13.18-1.77.12,0,11.87,1.15,19.48.38C2104.37,1233,2096.23,1232.65,2095.16,1232.73Z" fill="#e57d61"/><path d="M2092.8,1237.46c-.16,0-14,0-10.39-1.92a63,63,0,0,0,20.2,0C2105.38,1236.91,2099.08,1237.35,2092.8,1237.46Z" fill="#e57d61"/><path d="M2370.39,1352.64c-2.39,4.57-7.85,1.62-5.36-2.89S2372.89,1348.14,2370.39,1352.64Z" fill="#f99370"/><path d="M2375.75,1353c-2.4,4.56-7.85,1.62-5.36-2.89S2378.25,1348.52,2375.75,1353Z" fill="#f99370"/><path d="M2381.22,1353.42c-2.4,4.56-7.85,1.62-5.36-2.89S2383.72,1348.91,2381.22,1353.42Z" fill="#f99370"/><path d="M2386.76,1353.26c-2.39,4.56-7.85,1.62-5.35-2.89S2389.26,1348.75,2386.76,1353.26Z" fill="#f99370"/><path d="M1941.05,1125.77c-1.28,15.34-28.26,5.27-29.5,3.28-.4-1.06-4.45-8.51-3.76-9.56l26.87,1.6S1937.12,1122.68,1941.05,1125.77Z" fill="#ce3932"/><path d="M1906.12,1012c33-5.14,65.16,35.88,46.46,72.85Z" fill="#163260"/><path d="M1934.67,1121.09c1.65-14.41-.6-35.19-2.61-43.75-3.83-16.89-30.22-10.46-25.93,6.24.86-.54,1.66,35.91,1.66,35.91C1912.09,1126.32,1934.67,1132.1,1934.67,1121.09Z" fill="#f99370"/><path d="M1907.61,1112.69c11.5,5.23,25.22,2.52,27.57,2C1939,1056.12,1909.11,1050.12,1907.61,1112.69Z" fill="#e57d61"/><path d="M1887.8,1070.92c1.93,12,6,25.49,15.44,33.42h0a29.84,29.84,0,0,0,13.42,6.17c28,7.82,60.76-24.69,38.9-48.37-7.94-7.33-9.62-20.33-15.95-27.63-9.21-13.36-29.41-12.67-40.31-1.77C1889.46,1042.59,1886.09,1056.16,1887.8,1070.92Z" fill="#f99370"/><path d="M1945.45,1084.8l-15.71-8C1928.3,1086.31,1938.25,1092.4,1945.45,1084.8Z" fill="#f9f8f3"/><path d="M1933.53,1063.53c1.1-2.08-2.2-3.76-3.23-1.64S1932.5,1065.64,1933.53,1063.53Z" fill="#c16256"/><path d="M1948.78,1061c1.1-2.09-2.19-3.76-3.23-1.65S1947.75,1063.08,1948.78,1061Z" fill="#c16256"/><path d="M1945.45,1085.49c-.39,0-15.67-8-16-8.11a.68.68,0,0,1-.29-.92c-.12-1.75,16.29,7.94,16.63,7.73A.69.69,0,0,1,1945.45,1085.49Z" fill="#c16256"/><path d="M1943,1076.74c-.86-.08-2.66.08-2.46-1.15a.68.68,0,0,1,.86-.44c2.31.82,7.92-.79,5.23-2.43-3.89-2.11-6.5-9.47-6.61-9.79a.68.68,0,0,1,1.29-.45c0,.07,2.55,7.18,6,9C1951.5,1074.47,1946.34,1076.7,1943,1076.74Z" fill="#c16256"/><path d="M1887.8,1070.92c1.93,12,6,25.49,15.44,33.42h0c-5.25-6.51-8.52-21.09-8.52-21.09l2.48-6.48c41.61-13.43,38-46.85,38-46.85-6.21-5.42-14.59-6.52-22.56-4.54C1893.16,1030.44,1885.34,1051.53,1887.8,1070.92Z" fill="#e57d61"/><path d="M1930.84,1027a57.09,57.09,0,0,0-6.16-3.52c1.47-4.43,1.73-9.93.17-16.34-8.63-31.38-45.16-21.91-37.47,9.71a34.17,34.17,0,0,0,3.66,8.73c-10.8,9.16-14.55,26.62-7.46,40.52l13.37,7.38C1934.19,1059.9,1930.84,1027,1930.84,1027Z" fill="#163260"/><path d="M1880.19,1077c3.1,13.66,19.45,10.2,16.76-3.55C1893.84,1059.77,1877.5,1063.23,1880.19,1077Z" fill="#f99370"/><path d="M1884.51,1079.79a.68.68,0,0,1-.66-.49c-3.1-8.67,1.61-12.29,7.32-10a.68.68,0,0,1-.5,1.27c-5-1.95-8,.92-5.5,8.28A.69.69,0,0,1,1884.51,1079.79Z" fill="#c16256"/><path d="M1890.92,1078.83c-1.25-.16-1.93-5.19-7.23-5.73a.69.69,0,0,1,.09-1.37C1889,1072.08,1893.05,1078.65,1890.92,1078.83Z" fill="#c16256"/><path d="M1887.69,1083.26a1.54,1.54,0,0,0,3.08,0A1.54,1.54,0,0,0,1887.69,1083.26Z" fill="#f4d4be"/><path d="M1934.87,1119s32.27,15.08,37.75,40.2c0,0,14.36,14.24,7.84,41.75,0,0-15.78-50.85-45.79-79.87Z" fill="#d1a68f"/><path d="M1939.56,1141.5c.06,3.72-5.78,3.72-5.73,0S1939.62,1137.78,1939.56,1141.5Z" fill="#ce3932"/><path d="M1945.29,1153.82c.06,3.72-5.78,3.72-5.73,0S1945.35,1150.1,1945.29,1153.82Z" fill="#ce3932"/><path d="M1951,1167.15c.06,3.71-5.78,3.71-5.73,0S1951.08,1163.43,1951,1167.15Z" fill="#ce3932"/><path d="M2369.92,1353.93c-1.35-.13.34-6.89,1.39-11.72a.56.56,0,0,1,1.08.3C2370.73,1347.52,2371.12,1353.64,2369.92,1353.93Z" fill="#e57d61"/><path d="M2375.31,1353.93c-1.38-.13.55-6.46,1.63-11.24a.56.56,0,0,1,.7-.38.58.58,0,0,1,.38.7C2376.34,1347.85,2376.48,1353.59,2375.31,1353.93Z" fill="#e57d61"/><path d="M2381.22,1354c-1.49-.32,1.23-5.7,1-11.15a.57.57,0,0,1,1.13,0,53.06,53.06,0,0,1-1.62,10.7A.56.56,0,0,1,2381.22,1354Z" fill="#e57d61"/></g><g id="_1" data-name="1"><path d="M353.25,1101.56c37.73-7.21,30.57-32.77,67.11-20,0,0,33.7-21.69,36.86,35.94,2.74,50.13-21.22,74.23-59.38,94.82-45.28,24.42-116.48-2.18-113.52-58.74C286.38,1114.24,316.21,1108.63,353.25,1101.56Z" fill="#1d3f70"/><path d="M444.87,1173.78c61.38,19.75,95.17-4.22,120.78-60.15,2.55-10.22,16.71-9.15,15.78,1.75-.18,1.82-.85,4.22-1.14,6-16.19,76.35-74.57,112.14-149,84.82C410.12,1197.19,423.6,1165,444.87,1173.78Z" fill="#f99370"/><path d="M432.16,1170.08s8.56-3.44,17.12,0,31.09,7.19,46.27,4.82,37-17.14,43.89-27.09,11-19.21,18.18-17c0,0,6.51,5.07,19.2,4,0,0,11,14.61-6.51,41.75-17.08,26.5-60.31,64.32-125.89,52.5Z" fill="#3a72aa"/><path d="M708.11,1064.73l-233,40.71h-.29c-2.17.19-3.65,3.49-3.31,7.37s2.38,6.86,4.55,6.67l.28,0,236.49-.62Z" fill="#eb5648"/><ellipse cx="710.49" cy="1091.77" rx="12" ry="27.14" transform="translate(-93 66.51) rotate(-5.03)" fill="#ce3932"/><ellipse cx="710.49" cy="1091.77" rx="9.02" ry="20.4" transform="translate(-93 66.51) rotate(-5.03)" fill="#aab9e8"/><path d="M433.05,1162.35,432,1170.2c-4,13.08-21.42,2.83-24.3-2.36,0,0,1.57-7.43,1.87-10.92Z" fill="#f99370"/><path d="M274.18,1655.5l-36.47-44.73c1.75-2.7,14.37-9.31,18-13,2.6-1.85,31.71-31.49,34.81-34.46L311.45,1589,275,1611.79a10.64,10.64,0,0,0-4.27,12.85c3.58,10.81,12.78,19,10.6,29.56A4.16,4.16,0,0,1,274.18,1655.5Z" fill="#f99370"/><path d="M240.91,1605.91a14.63,14.63,0,0,0-3.2,4.86l36.77,45.1a4.13,4.13,0,0,0,6.71-.39c3.44-5.66,5.62-17.32-10.24-39,0,0-7.87-5.36-15.24-18.7C255.71,1597.78,246.42,1600.17,240.91,1605.91Z" fill="#1d3f70"/><path d="M283.64,1641.64c-2.1.53-3.54-2.37-10.42-.37a1.19,1.19,0,0,1-1.48-.78C272.16,1636.07,287.9,1638.91,283.64,1641.64Z" fill="#e8c0a6"/><path d="M280.94,1633.35a1.17,1.17,0,0,1-1.05.06h0a16.51,16.51,0,0,0-11.51,0,1.18,1.18,0,0,1-.88-2.19,18.59,18.59,0,0,1,13.32,0A1.19,1.19,0,0,1,280.94,1633.35Z" fill="#e8c0a6"/><path d="M275.93,1624c-1.56.56-5.72-2-13.18.61a1.18,1.18,0,0,1-.81-2.21C269.53,1619.91,278.68,1620.88,275.93,1624Z" fill="#e8c0a6"/><path d="M281.25,1655.39l-40.34-49.48a14.63,14.63,0,0,0-3.2,4.86l36.77,45.1A4.14,4.14,0,0,0,281.25,1655.39Z" fill="#395b96"/><path d="M454.07,1664.51l-57.64-.63c-.95-3.08,2-17,1.54-22.13,0-2.17-.56-14-.76-16.19l4.31-32.52,25.41.28-5.82,42.56a10.64,10.64,0,0,0,7.14,11.51c10.58,4.16,22.68,2.35,29.45,10.7A4.21,4.21,0,0,1,454.07,1664.51Z" fill="#f99370"/><path d="M394.74,1658.31a14.54,14.54,0,0,0,1.69,5.57l58.2.64a4.13,4.13,0,0,0,4-5.41c-2.14-6.26-9.71-15.4-36.53-17.1,0,0-9.15,2.62-24.13-.26C398,1641.75,393.86,1650.4,394.74,1658.31Z" fill="#1d3f70"/><path d="M441.52,1656.86a1.19,1.19,0,0,1-1.09-1.63,14.85,14.85,0,0,1,7.55-8.16,1.18,1.18,0,0,1,.84,2.2,12.53,12.53,0,0,0-6.21,6.87A1.18,1.18,0,0,1,441.52,1656.86Z" fill="#e8c0a6"/><path d="M432.37,1655.66a1.18,1.18,0,0,1-1.12-1.54c2.15-7.83,12.39-13.6,9.59-8.13a16.37,16.37,0,0,0-7.35,8.85A1.18,1.18,0,0,1,432.37,1655.66Z" fill="#e8c0a6"/><path d="M422,1654.26a1.18,1.18,0,0,1-1.11-1.58,23.26,23.26,0,0,1,8.38-10.9,1.18,1.18,0,0,1,1.28,2,21.22,21.22,0,0,0-7.44,9.72A1.19,1.19,0,0,1,422,1654.26Z" fill="#e8c0a6"/><path d="M458.6,1659l-63.86-.7a14.54,14.54,0,0,0,1.69,5.57l58.2.64A4.14,4.14,0,0,0,458.6,1659Z" fill="#395b96"/><path d="M410.14,1132.11a10.83,10.83,0,0,0,.08,1.27c.59-.3.35,14.9-.93,25.79,9.69,5.88,21.35,5.2,23.49,5,1.87-13.78,2.1-26.51,1-34.65C431.24,1115.68,409.66,1118.05,410.14,1132.11Z" fill="#e57d61"/><path d="M394.46,1123.78c1.89,10.72,5.69,22.78,14.28,29.76h0a26.88,26.88,0,0,0,12.12,5.36c24.94,6.82,54.27-23.17,34.26-43.86-7.21-6.48-8.89-18.11-14.66-24.57-8.43-11.86-26.53-11-36.17-1.06C395.58,1098.36,392.74,1110.58,394.46,1123.78Z" fill="#f99370"/><path d="M435.38,1116.57a1.63,1.63,0,0,0-2.92-1.43A1.63,1.63,0,0,0,435.38,1116.57Z" fill="#c16256"/><path d="M449,1114.07a1.63,1.63,0,0,0-2.92-1.43A1.63,1.63,0,0,0,449,1114.07Z" fill="#c16256"/><path d="M423.88,1633.47c-19.62,3.8-33.82-7.81-33.82-7.81,1.16-4,2.25-8,3.29-12h0c36.11-137.49-1.7-209.8-1.7-209.8-8,71.07-27,140.72-95.54,202.09q-4.32,3.87-8.92,7.71c-15.46-3.44-29.8-28.93-29.8-28.93q3.62-4.25,6.94-8.53c75.85-97.62,37.49-202.19,72.15-266.84,18.43-34.38,91.44-12.86,119.23,19.28C502.34,1475,448.35,1587,423.88,1633.47Z" fill="#eb5648"/><path d="M445,1128.22c-1,0-3.2.43-3.16-.93a.62.62,0,0,1,.77-.41c2.08.63,5-.45,5.37-1.39.13-.33-.31-.65-.71-.85-3.48-1.69-8.09-11.33-4.9-9.12,0,.07,2.37,6.41,5.47,8C451.32,1125.89,447.74,1127.79,445,1128.22Z" fill="#c16256"/><path d="M279.16,1600.08,277,1598c.6-.64,60.25-64.31,77.12-120.55s15-149,15-150l3-.07c0,.94,1.91,94.08-15.13,150.91S279.77,1599.43,279.16,1600.08Z" fill="#ce3932"/><path d="M394.46,1123.78c1.89,10.72,5.69,22.78,14.28,29.76h0c-4.79-5.77-7.91-18.79-7.91-18.79l2.14-5.84c37.14-12.58,33.51-42.49,33.51-42.49C412.44,1069.69,389.2,1099.25,394.46,1123.78Z" fill="#e57d61"/><path d="M432.49,1083.81s3.43,29.5-29.79,42.11l-12.08-6.44C378.6,1096.71,399.29,1062.75,432.49,1083.81Z" fill="#1d3f70"/><path d="M393.38,1075.27c8.15,28,40.79,19.07,33.49-9.19C418.72,1038.06,386.08,1047,393.38,1075.27Z" fill="#1d3f70"/><path d="M387.71,1129.31c2.6,12.12,17.86,8.66,15-3.39C400.1,1113.8,384.84,1117.26,387.71,1129.31Z" fill="#f99370"/><path d="M391.7,1131.77c-2.57-2.61-1.65-8-.34-8.9,2.41-2,6.77-1,6.46.25-.76,1.23-3.26-1.33-5.61.64S393.13,1130.73,391.7,1131.77Z" fill="#c16256"/><path d="M397.43,1130.83c-1.26,0-1.78-4.62-6.63-5a.62.62,0,0,1-.58-.65C393.58,1122.54,399.73,1131.05,397.43,1130.83Z" fill="#c16256"/><path d="M394.52,1134.85a1.39,1.39,0,0,0,2.77,0A1.39,1.39,0,0,0,394.52,1134.85Z" fill="#f4d4be"/><path d="M390.06,1625.66s14.2,11.61,33.82,7.81c0,0,2.19-3.59,5.66-10.28,0,0-23.57,2.22-36.18-9.57h0Q391.82,1619.56,390.06,1625.66Z" fill="#ce3932"/><path d="M393.35,1613.62c-.36,1.4-.73,2.79-1.11,4.2h7c24.58-73.65,28.88-194.93-7.61-214,0,0,37.81,72.31,1.7,209.8Z" fill="#ce3932"/><path d="M416.38,1629.32c19.3-44,32.18-87,38.27-127.7,4.88-32.61,5.44-63.87,1.68-92.9-6.42-49.54-23.51-75.86-23.68-76.12l-2.24,1.48c.17.26,17,26.18,23.28,75.17,5.83,45.24,3.67,120-39.77,219Z" fill="#ce3932"/><path d="M461.77,1257.47c-5.11,15-12.84,30.64-3.28,60.26,1.07,7.88-2.77,10.87-2.77,10.87-36.93,12.33-89.56,1.11-121.13-14-18.09-14.72,6.61-42.72,8.05-52.32,15.41-102.37,49-98,65.72-98,5.51,6.38,19.15,16.92,23.8,5.78,24,3.45,16.84,30.34,23.13,40.21,6.5,10.29,9.28,18.56,9.91,25.86C465.88,1244,464.1,1250.63,461.77,1257.47Z" fill="#3a72aa"/><path d="M442.72,1132.8a4.93,4.93,0,0,0,1.88-.34.75.75,0,0,0-.59-1.38,4.44,4.44,0,0,1-4.68-1.28.75.75,0,1,0-1,1.09A6.34,6.34,0,0,0,442.72,1132.8Z" fill="#c16256"/><path d="M427.5,1110.78a.66.66,0,0,0,.28,0l7-2.81a.75.75,0,0,0,.41-1,.74.74,0,0,0-1-.41l-6.95,2.81a.74.74,0,0,0-.41,1A.73.73,0,0,0,427.5,1110.78Z" fill="#c16256"/><path d="M441.29,1107.12h6.27a.75.75,0,0,0,0-1.5h-6.27a.75.75,0,1,0,0,1.5Z" fill="#c16256"/><path d="M385.88,1213.71c24.91,13.37,52.91,26,82.09,22.36,43.42-8.23,58.55-57.34,60.06-96,.59-6,.47-13.55-7.39-13.9-8.9.1-7.9,10.76-10.26,16.83-21.07,66.15-45.51,71-101.66,34.47C384.94,1162.63,362.25,1198.68,385.88,1213.71Z" fill="#f99370"/><path d="M510.46,1105.59c3.4-.27,2.74,7.79,4.7,10.2a49,49,0,0,0,4.67-10.11c.75-6.74,1.13-13.51,1.21-20.3,5.33-8.84,4.52,17.11,4.9,19.67l.1,0a154.25,154.25,0,0,0,5.41-20.61c7.47-7.86.29,20.17-.11,22.83l0,0a89,89,0,0,0,7.38-18.91c8.23-7.25-1.27,20.66-2.53,23.08l.06.06a91.48,91.48,0,0,0,8.18-13.92c8.63-5.65-3,17.33-4.41,19.42-.24,1.92-5.09,10.61-13.19,19.63-2.65,3-12.51-2.18-13.76-5.87-1.18-3.46-1.46-8.44-1.62-10.24C510.63,1117.12,506.94,1107.69,510.46,1105.59Z" fill="#f99370"/><path d="M528.46,1138.09s-7.18,2.33-15.78-4.65a5.86,5.86,0,0,0-1,4.71,18.25,18.25,0,0,0,16.63,4.57A5.61,5.61,0,0,0,528.46,1138.09Z" fill="#10325b"/><path d="M461.77,1257.47h0c-54.7,6.48-76.72-30.76-76.72-30.76l80.16,9.43C465.88,1244,464.1,1250.63,461.77,1257.47Z" fill="#23659b"/><path d="M400.91,1166.75s14.06,6.81,23.32,14.68,21.14,15.37,33.2,14,24.06-6.46,30.58-19.86c6-12.27,12.54-24.86,19.64-24.44,0,0,9.92,4.7,19.31,2.39,0,0,15.23,10-2.6,52.22s-71.08,49.28-92.2,46c-32.62-5.14-58.59-29-61.33-55.21S390.73,1166.37,400.91,1166.75Z" fill="#3a72aa"/><path d="M296.12,1605.91q-4.32,3.87-8.92,7.71c-15.46-3.44-29.8-28.93-29.8-28.93q3.62-4.25,6.94-8.53S276.94,1599.66,296.12,1605.91Z" fill="#ce3932"/><path d="M515.52,1221.31a.74.74,0,0,1-.47-.16.76.76,0,0,1-.13-1.07c.12-.14,11.51-14.87,16.22-38.13,3.24-16-1.07-22.91-1.11-23a.76.76,0,0,1,1.28-.82c.19.3,4.68,7.52,1.32,24.1-4.78,23.63-16.4,38.62-16.51,38.77A.77.77,0,0,1,515.52,1221.31Z" fill="#23659b"/><path d="M455.39,1196.43a30.21,30.21,0,0,1-3.79-.2c-11-.52-27.17-13.65-27.85-14.21a.75.75,0,0,1-.11-1.07.77.77,0,0,1,1.07-.11c.16.14,16.52,13.38,27,13.87.32,0,24.07,3.33,35.06-18.47a.76.76,0,0,1,1.36.68C479.39,1194.34,462.83,1196.43,455.39,1196.43Z" fill="#23659b"/></g></svg>