<svg id="visual" viewBox="0 0 960 540" width="960" height="540" xmlns="http://www.w3.org/2000/svg" xmlns:xlink="http://www.w3.org/1999/xlink" version="1.1"><rect x="0" y="0" width="960" height="540" fill="#FFFFFF"></rect><defs><linearGradient id="grad1_0" x1="43.8%" y1="0%" x2="100%" y2="100%"><stop offset="14.444444444444446%" stop-color="#ffffff" stop-opacity="1"></stop><stop offset="85.55555555555554%" stop-color="#ffffff" stop-opacity="1"></stop></linearGradient></defs><defs><linearGradient id="grad2_0" x1="0%" y1="0%" x2="56.3%" y2="100%"><stop offset="14.444444444444446%" stop-color="#ffffff" stop-opacity="1"></stop><stop offset="85.55555555555554%" stop-color="#ffffff" stop-opacity="1"></stop></linearGradient></defs><g transform="translate(960, 0)"><path d="M0 378C-39.4 364.3 -78.8 350.7 -106.3 327.2C-133.8 303.7 -149.3 270.4 -185.7 255.6C-222.1 240.9 -279.4 244.9 -305.8 222.2C-332.2 199.5 -327.9 150.2 -334.8 108.8C-341.7 67.3 -359.8 33.7 -378 0L0 0Z" fill="#3B82F6"></path></g><g transform="translate(0, 540)"><path d="M0 -378C33.7 -357.4 67.3 -336.8 106.9 -329.1C146.5 -321.3 192 -326.3 222.2 -305.8C252.4 -285.3 267.4 -239.1 275.9 -200.4C284.4 -161.7 286.5 -130.4 302.4 -98.3C318.4 -66.1 348.2 -33 378 0L0 0Z" fill="#3B82F6"></path></g></svg>