<svg xmlns="http://www.w3.org/2000/svg" viewBox="0 0 408.61 383.66"><g id="OBJECTS"><g opacity="0.12"><path d="M379.8,441.45l-210.56-2.86c-36.43.05-72.26-26.44-94.13-67.39S45.32,276.09,52.47,226.47s28.85-94.23,58.28-123.62c18.14-18.12,39.36-30.77,61.65-34.16S218,71.53,237.14,88.26c33.29,29.13,51.32,86.56,87,109.49,16.61,10.68,35.28,12.57,52.92,19.18,34.71,13,67.71,50.34,72.32,99.92,3.38,36.39-5.09,63.46-22.59,92.09-14.47,23.67-25.94,35.23-47,32.51" transform="translate(-46.2 -67.8)" fill="#a694ea"/></g><path d="M418.89,443.35c0,4.48-72.22,8.11-161.31,8.11s-161.31-3.63-161.31-8.11,72.22-8.11,161.31-8.11S418.89,438.87,418.89,443.35Z" transform="translate(-46.2 -67.8)" fill="#cfc9f2"/><path d="M208.79,441.66q1.77-8.76,4.42-17.48t6.21-17.39q3.51-8.55,7.85-16.94t9.6-16.71q5.19-8.2,11.17-16.12c.49-.66,1-1.31,1.49-2a.8.8,0,0,0-.4-1.26c-.57-.22-1.14.72-1.5,1.19-4.07,5.29-8,10-11.57,15.5s-6.78,11-9.76,16.59-5.78,11.44-8.23,17.24-4.59,11.54-6.44,17.36-3.41,11.68-4.66,17.54l-.45,2.17a.86.86,0,0,0,.8,1.09c.56.07,1.37-.3,1.47-.82Z" transform="translate(-46.2 -67.8)" fill="#5595f2"/><path d="M246.78,357c1.44-3.45,2.67-6.7,5.22-9.45a11.9,11.9,0,0,1,4.39-2.57c.66-.22,1.62-.14,1.75.54a1.23,1.23,0,0,1-.1.68,16.16,16.16,0,0,1-3.45,5.61c-2.36,2.33-5.17,3.18-7.81,5.19" transform="translate(-46.2 -67.8)" fill="#5595f2"/><path d="M243.89,360.76c-1.78-3.39-3.53-6.49-4-10.3a12.16,12.16,0,0,1,.85-5.14c.26-.66.95-1.37,1.58-1a1.25,1.25,0,0,1,.46.53,16.38,16.38,0,0,1,2.16,6.39c.29,3.39-.88,6.15-1,9.55" transform="translate(-46.2 -67.8)" fill="#5595f2"/><path d="M243.45,361c3.57-1.38,6.85-2.78,10.69-2.85a12.18,12.18,0,0,1,5,1.43c.63.33,1.26,1.09.85,1.68a1.32,1.32,0,0,1-.58.4,16.35,16.35,0,0,1-6.59,1.43c-3.4-.09-6-1.57-9.38-2.09" transform="translate(-46.2 -67.8)" fill="#5595f2"/><path d="M236.53,371.16c-1.92-3.68-3.82-7-4.36-11.15a13.05,13.05,0,0,1,.92-5.57c.28-.72,1-1.48,1.7-1.11a1.41,1.41,0,0,1,.51.57,17.82,17.82,0,0,1,2.34,6.92c.31,3.66-1,6.66-1.11,10.34" transform="translate(-46.2 -67.8)" fill="#5595f2"/><path d="M236.08,371c3.87-1.5,7.42-3,11.57-3.08a13,13,0,0,1,5.42,1.54c.69.36,1.36,1.19.92,1.82a1.53,1.53,0,0,1-.62.44,17.8,17.8,0,0,1-7.14,1.54c-3.68-.1-6.51-1.69-10.15-2.26" transform="translate(-46.2 -67.8)" fill="#5595f2"/><path d="M228.47,384.38c-2.46-4.71-4.89-9-5.58-14.26a16.76,16.76,0,0,1,1.18-7.11c.35-.92,1.31-1.9,2.18-1.43a1.81,1.81,0,0,1,.64.73,22.8,22.8,0,0,1,3,8.84c.4,4.69-1.22,8.52-1.41,13.23" transform="translate(-46.2 -67.8)" fill="#5595f2"/><path d="M228.3,384.87c4.94-1.92,9.48-3.85,14.78-3.94a16.73,16.73,0,0,1,6.94,2c.88.46,1.74,1.52,1.18,2.33a1.89,1.89,0,0,1-.8.55,22.71,22.71,0,0,1-9.12,2c-4.71-.13-8.33-2.17-13-2.89" transform="translate(-46.2 -67.8)" fill="#5595f2"/><path d="M222.06,397.26c-2.85-4.48-5.63-8.55-6.77-13.73a16.87,16.87,0,0,1,.57-7.19c.28-.95,1.15-2,2.06-1.61a1.87,1.87,0,0,1,.7.67,22.9,22.9,0,0,1,3.73,8.56c.8,4.64-.5,8.59-.29,13.3" transform="translate(-46.2 -67.8)" fill="#5595f2"/><path d="M221.93,397.76c4.77-2.32,9.12-4.63,14.4-5.17a16.68,16.68,0,0,1,7.08,1.37c.91.38,1.86,1.37,1.37,2.22a1.92,1.92,0,0,1-.75.63,23.11,23.11,0,0,1-8.92,2.74c-4.7.27-8.48-1.46-13.18-1.79" transform="translate(-46.2 -67.8)" fill="#5595f2"/><path d="M216.45,410.61c-2.53-3.5-5-6.66-6.16-10.81a13.64,13.64,0,0,1,.12-5.86c.18-.78.83-1.68,1.59-1.41a1.58,1.58,0,0,1,.6.52,18.44,18.44,0,0,1,3.44,6.76c.87,3.72,0,7,.41,10.8" transform="translate(-46.2 -67.8)" fill="#5595f2"/><path d="M216.37,411c3.75-2.12,7.17-4.2,11.43-4.89a13.58,13.58,0,0,1,5.81.77c.76.26,1.57,1,1.21,1.73a1.58,1.58,0,0,1-.57.55,18.64,18.64,0,0,1-7.11,2.65c-3.8.45-6.95-.77-10.77-.81" transform="translate(-46.2 -67.8)" fill="#5595f2"/><path d="M212.46,422.3c-2.33-2.75-4.57-5.23-5.81-8.6a11.51,11.51,0,0,1-.28-4.89c.1-.66.59-1.45,1.23-1.26a1.21,1.21,0,0,1,.54.38,15.53,15.53,0,0,1,3.29,5.41c1,3,.46,5.82,1,9" transform="translate(-46.2 -67.8)" fill="#5595f2"/><path d="M212.42,422.65c3-2,5.7-3.95,9.19-4.8a11.4,11.4,0,0,1,4.89.27c.64.17,1.37.74,1.12,1.36a1.25,1.25,0,0,1-.45.49,15.22,15.22,0,0,1-5.74,2.66c-3.13.62-5.83-.2-9,0" transform="translate(-46.2 -67.8)" fill="#5595f2"/><path d="M209.42,432.09c-2.11-2.06-4.13-3.92-5.4-6.58a9.2,9.2,0,0,1-.6-4c0-.55.36-1.23.9-1.13a1.14,1.14,0,0,1,.47.28,12.53,12.53,0,0,1,3.1,4.16c1,2.42.82,4.72,1.53,7.24" transform="translate(-46.2 -67.8)" fill="#5595f2"/><path d="M209.41,432.38c2.29-1.86,4.36-3.66,7.15-4.62a9.34,9.34,0,0,1,4-.16c.54.1,1.18.51,1,1a1,1,0,0,1-.32.44,12.7,12.7,0,0,1-4.49,2.61c-2.51.74-4.78.28-7.37.7" transform="translate(-46.2 -67.8)" fill="#5595f2"/><path d="M140.84,439.79q-4.71-11.13-10.6-22t-13-21.36q-7-10.38-15-20.32T85,356.61Q76,347.15,65.88,338.27l-2.51-2.19a1.09,1.09,0,0,1,.18-1.78c.71-.43,1.71.66,2.31,1.18,6.84,5.91,13.35,11.08,19.54,17.4s12,12.71,17.43,19.33,10.76,13.59,15.59,20.61,9.2,14.05,13.23,21.27,7.69,14.54,10.94,22c.4.92.79,1.84,1.18,2.76a1.15,1.15,0,0,1-.76,1.66,1.92,1.92,0,0,1-2.17-.68Z" transform="translate(-46.2 -67.8)" fill="#88b4ff"/><path d="M67.54,338c-2.84-4.19-5.36-8.16-9.47-11.11a16,16,0,0,0-6.52-2.22c-.93-.11-2.18.25-2.18,1.19a1.71,1.71,0,0,0,.32.87,21.76,21.76,0,0,0,6.1,6.5c3.76,2.45,7.71,2.81,11.75,4.77" transform="translate(-46.2 -67.8)" fill="#88b4ff"/><path d="M72.38,342.11c1.44-5,2.92-9.56,2.55-14.74a16.41,16.41,0,0,0-2.52-6.58c-.52-.81-1.63-1.56-2.37-.94a1.82,1.82,0,0,0-.47.82,22.35,22.35,0,0,0-1.13,9.06c.53,4.57,2.84,7.92,3.94,12.38" transform="translate(-46.2 -67.8)" fill="#88b4ff"/><path d="M73,342.32c-5.12-.86-9.84-1.82-14.94-.87a16.58,16.58,0,0,0-6.26,3.24c-.74.61-1.36,1.8-.66,2.46a1.8,1.8,0,0,0,.87.38,22.25,22.25,0,0,0,9.12.1c4.49-1,7.55-3.71,11.87-5.31" transform="translate(-46.2 -67.8)" fill="#88b4ff"/><path d="M85,353.89c1.55-5.39,3.15-10.36,2.75-15.95A17.58,17.58,0,0,0,85,330.81c-.56-.88-1.76-1.69-2.56-1a1.93,1.93,0,0,0-.51.9,24,24,0,0,0-1.22,9.8c.57,4.94,3.07,8.57,4.27,13.4" transform="translate(-46.2 -67.8)" fill="#88b4ff"/><path d="M85.51,353.56c-5.53-.94-10.64-2-16.16-.94a17.74,17.74,0,0,0-6.78,3.51c-.8.66-1.48,1.94-.72,2.66a1.94,1.94,0,0,0,.95.41,24,24,0,0,0,9.87.11c4.85-1.13,8.17-4,12.84-5.75" transform="translate(-46.2 -67.8)" fill="#88b4ff"/><path d="M99.23,369.22c2-6.9,4-13.24,3.52-20.4-.2-2.85-1.94-6.7-3.49-9.11-.72-1.12-2.25-2.16-3.27-1.3a2.39,2.39,0,0,0-.66,1.14,30.72,30.72,0,0,0-1.56,12.53c.73,6.33,3.92,11,5.46,17.14" transform="translate(-46.2 -67.8)" fill="#88b4ff"/><path d="M99.59,369.82c-7.08-1.19-13.61-2.52-20.67-1.2-2.81.52-6.44,2.68-8.66,4.49-1,.84-1.89,2.48-.92,3.4a2.36,2.36,0,0,0,1.21.52,30.67,30.67,0,0,0,12.62.15c6.2-1.45,10.45-5.14,16.42-7.36" transform="translate(-46.2 -67.8)" fill="#88b4ff"/><path d="M111.21,384.55c2.56-6.7,5.15-12.85,5.24-20,0-2.86-1.36-6.84-2.7-9.37-.63-1.18-2.07-2.34-3.16-1.57a2.45,2.45,0,0,0-.75,1.08A30.84,30.84,0,0,0,107.22,367c.2,6.37,3,11.25,4,17.54" transform="translate(-46.2 -67.8)" fill="#88b4ff"/><path d="M111.52,385.18c-7-1.79-13.35-3.66-20.49-2.95-2.84.28-6.64,2.13-9,3.74-1.1.76-2.09,2.32-1.2,3.31a2.36,2.36,0,0,0,1.16.63,30.73,30.73,0,0,0,12.56,1.21c6.3-.91,10.85-4.23,17-5.94" transform="translate(-46.2 -67.8)" fill="#88b4ff"/><path d="M122.27,400.72c2.4-5.32,4.8-10.18,5.22-16a18.48,18.48,0,0,0-1.74-7.74c-.45-1-1.56-2-2.48-1.43a2.06,2.06,0,0,0-.67.84,25.29,25.29,0,0,0-2.72,9.9c-.14,5.17,1.88,9.27,2.39,14.42" transform="translate(-46.2 -67.8)" fill="#88b4ff"/><path d="M122.49,401.24c-5.55-1.78-10.65-3.62-16.48-3.38a18.38,18.38,0,0,0-7.49,2.6c-.93.55-1.81,1.77-1.14,2.62a2,2,0,0,0,.91.57,25.12,25.12,0,0,0,10.14,1.59c5.16-.44,9-2.91,14.06-4" transform="translate(-46.2 -67.8)" fill="#88b4ff"/><path d="M130.73,415.12c2.34-4.26,4.64-8.16,5.36-13a15.28,15.28,0,0,0-1-6.54c-.31-.85-1.17-1.77-2-1.35a1.69,1.69,0,0,0-.61.66,20.89,20.89,0,0,0-2.89,8.06c-.45,4.29,1,7.83,1.07,12.14" transform="translate(-46.2 -67.8)" fill="#88b4ff"/><path d="M130.88,415.58c-4.51-1.84-8.63-3.69-13.49-3.87a15.54,15.54,0,0,0-6.4,1.68c-.81.41-1.62,1.37-1.12,2.12a1.71,1.71,0,0,0,.73.53,20.93,20.93,0,0,0,8.33,2c4.31,0,7.67-1.84,11.95-2.42" transform="translate(-46.2 -67.8)" fill="#88b4ff"/><path d="M137.41,427.28c2.24-3.31,4.41-6.31,5.37-10.19a12.44,12.44,0,0,0-.28-5.42c-.19-.72-.82-1.53-1.51-1.25a1.34,1.34,0,0,0-.54.49,17.11,17.11,0,0,0-3,6.36c-.7,3.48.19,6.48-.06,10" transform="translate(-46.2 -67.8)" fill="#88b4ff"/><path d="M137.5,427.66c-3.54-1.85-6.77-3.67-10.73-4.19a12.47,12.47,0,0,0-5.35.89c-.7.27-1.43,1-1.08,1.64a1.35,1.35,0,0,0,.55.48,17.1,17.1,0,0,0,6.66,2.25c3.53.3,6.41-.92,10-1.07" transform="translate(-46.2 -67.8)" fill="#88b4ff"/><path d="M126,439.19q-5.46-4.9-11.5-9.35t-12.65-8.41c-4.34-2.61-8.84-5.06-13.5-7.31s-9.56-4.39-14.54-6.3-10.07-3.62-15.29-5.14l-2-.56a.65.65,0,0,1-.35-1c.27-.42,1.1-.07,1.57.06,5.29,1.48,10.21,2.65,15.25,4.52s9.86,3.92,14.59,6.14,9.43,4.7,13.9,7.32,8.69,5.36,12.78,8.29,8,6,11.69,9.26l1.37,1.21a.71.71,0,0,1,0,1.12,1.18,1.18,0,0,1-1.37.18Z" transform="translate(-46.2 -67.8)" fill="#5595f2"/><path d="M59.39,402.08c-2.64-1.57-5-3.11-8.08-3.67a9.68,9.68,0,0,0-4.16.46c-.54.18-1.14.7-.89,1.22a1.1,1.1,0,0,0,.4.4,13.45,13.45,0,0,0,5,2c2.71.38,5-.45,7.7-.41" transform="translate(-46.2 -67.8)" fill="#5595f2"/><path d="M63.13,403.11c-.49-3.11-.86-6-2.4-8.77a10.07,10.07,0,0,0-3.09-3c-.5-.31-1.3-.44-1.55.09A1.14,1.14,0,0,0,56,392a13.69,13.69,0,0,0,1.72,5.28c1.48,2.37,3.61,3.62,5.37,5.79" transform="translate(-46.2 -67.8)" fill="#5595f2"/><path d="M63.55,403.06c-3,.84-5.89,1.53-8.45,3.37a10.09,10.09,0,0,0-2.61,3.41c-.25.53-.29,1.34.27,1.52a1,1,0,0,0,.58,0,13.57,13.57,0,0,0,5-2.3c2.2-1.74,3.2-4,5.16-6" transform="translate(-46.2 -67.8)" fill="#5595f2"/><path d="M73.1,406.35c-.54-3.37-.94-6.52-2.61-9.5a10.78,10.78,0,0,0-3.34-3.21c-.54-.34-1.41-.48-1.67.1a1.18,1.18,0,0,0-.06.62,14.67,14.67,0,0,0,1.86,5.71c1.6,2.58,3.91,3.93,5.82,6.28" transform="translate(-46.2 -67.8)" fill="#5595f2"/><path d="M73.32,406c-3.29.92-6.37,1.67-9.14,3.66a10.68,10.68,0,0,0-2.83,3.68c-.27.57-.31,1.45.29,1.65a1.13,1.13,0,0,0,.63,0,14.7,14.7,0,0,0,5.47-2.49c2.37-1.87,3.46-4.32,5.58-6.48" transform="translate(-46.2 -67.8)" fill="#5595f2"/><path d="M84.91,411.1c-.69-4.31-1.2-8.33-3.33-12.14a13.74,13.74,0,0,0-4.27-4.11c-.69-.44-1.8-.61-2.14.13a1.44,1.44,0,0,0-.07.8,18.7,18.7,0,0,0,2.38,7.29c2,3.3,5,5,7.43,8" transform="translate(-46.2 -67.8)" fill="#5595f2"/><path d="M85.26,411.34c-4.2,1.17-8.14,2.12-11.68,4.67A13.84,13.84,0,0,0,70,420.72c-.35.73-.4,1.86.37,2.11a1.45,1.45,0,0,0,.8,0,18.69,18.69,0,0,0,7-3.19c3-2.39,4.42-5.52,7.13-8.28" transform="translate(-46.2 -67.8)" fill="#5595f2"/><path d="M95.47,416.44c-.32-4.35-.49-8.4-2.29-12.38a13.9,13.9,0,0,0-3.91-4.46c-.65-.49-1.74-.75-2.15-.05a1.52,1.52,0,0,0-.13.79,18.89,18.89,0,0,0,1.75,7.48c1.76,3.45,4.55,5.42,6.73,8.62" transform="translate(-46.2 -67.8)" fill="#5595f2"/><path d="M95.8,416.71c-4.29.81-8.29,1.43-12,3.67a13.74,13.74,0,0,0-4,4.38c-.41.7-.56,1.82.19,2.14a1.54,1.54,0,0,0,.8,0A18.79,18.79,0,0,0,88,424.36c3.23-2.13,4.87-5.13,7.81-7.65" transform="translate(-46.2 -67.8)" fill="#5595f2"/><path d="M105.73,422.48c0-3.54,0-6.84-1.26-10.15a11.26,11.26,0,0,0-3-3.81c-.51-.42-1.38-.69-1.74-.14a1.22,1.22,0,0,0-.15.63,15.34,15.34,0,0,0,1.06,6.15c1.26,2.89,3.43,4.62,5,7.32" transform="translate(-46.2 -67.8)" fill="#5595f2"/><path d="M106,422.72c-3.52.44-6.8.75-9.95,2.39a11.28,11.28,0,0,0-3.45,3.36c-.37.55-.54,1.45,0,1.74a1.2,1.2,0,0,0,.65.08,15.24,15.24,0,0,0,6-1.74c2.73-1.58,4.2-3.93,6.71-5.83" transform="translate(-46.2 -67.8)" fill="#5595f2"/><path d="M114.11,428.23c.18-3,.44-5.69-.4-8.53a9.35,9.35,0,0,0-2.22-3.35c-.39-.39-1.1-.67-1.43-.23a.92.92,0,0,0-.17.51,13,13,0,0,0,.49,5.19c.86,2.48,2.56,4.06,3.73,6.41" transform="translate(-46.2 -67.8)" fill="#5595f2"/><path d="M114.31,428.44c-3,.15-5.71.2-8.43,1.35a9.55,9.55,0,0,0-3.08,2.58c-.35.44-.54,1.17-.07,1.46a1.07,1.07,0,0,0,.53.1,12.74,12.74,0,0,0,5.1-1.07c2.36-1.13,3.74-3,6-4.42" transform="translate(-46.2 -67.8)" fill="#5595f2"/><path d="M120.93,433.19a19.63,19.63,0,0,0,.32-7,7.78,7.78,0,0,0-1.55-2.92c-.29-.34-.85-.63-1.16-.29a.84.84,0,0,0-.17.41,10.41,10.41,0,0,0,0,4.27c.52,2.09,1.78,3.51,2.56,5.52" transform="translate(-46.2 -67.8)" fill="#5595f2"/><path d="M121.07,433.38a19.23,19.23,0,0,0-7,.46,7.7,7.7,0,0,0-2.72,1.87c-.31.33-.53.92-.17,1.18a.8.8,0,0,0,.43.13,10.48,10.48,0,0,0,4.24-.48c2-.75,3.29-2.17,5.2-3.16" transform="translate(-46.2 -67.8)" fill="#5595f2"/><path d="M170.26,370.48l.22-.36A102.89,102.89,0,0,0,161,349c-7.3-12.38-16.85-23.32-27.33-33.16A220.1,220.1,0,0,0,104.86,293c2.81,9.26,4,14.53,6,21.84a72.52,72.52,0,0,1,2.05,11.59,118.58,118.58,0,0,0,12.78,2.6l-12.45,1.46c.67,10.49,0,21.18.71,31.72,1.21.1,2.41.18,3.62.22,3.22.12,6.54.05,9.54,1.23a115.4,115.4,0,0,1-12,8c4.54,25.09,22,50.88,43.23,64.28,8.5-5.55,12.85-15.72,14.77-25.69a78.85,78.85,0,0,0,1.22-20.74,81.19,81.19,0,0,0-1.46-10.44q-4.65,2.53-9.35,4.94A76.8,76.8,0,0,1,170.26,370.48Z" transform="translate(-46.2 -67.8)" fill="#a694ea"/><path d="M133.62,315.8a219.8,219.8,0,0,0-26.18-21c4,3.91,7,8.77,9.8,13.64,3.21,5.64,6.56,11.2,10,16.72,11.63,18.82,18.8,40.44,24.57,61.9,4.35,16.2,6.58,33.27,4.72,47.8l1.8,1.17c8.5-5.55,12.85-15.72,14.77-25.69a78.85,78.85,0,0,0,1.22-20.74,81.19,81.19,0,0,0-1.46-10.44c-3.1,1.68-6.21,3.34-9.35,4.94a76.8,76.8,0,0,1,6.77-13.58l.22-.36A102.89,102.89,0,0,0,161,349C153.65,336.58,144.1,325.64,133.62,315.8Z" transform="translate(-46.2 -67.8)" fill="#8969e2"/><path d="M158.24,428.84q-.8-11.07-2.53-22T151.3,385q-2.69-10.8-6.26-21.35T137,343q-4.46-10.2-9.78-20c-.44-.81-.88-1.62-1.33-2.42a.45.45,0,0,0-.79.43q5.4,9.69,9.95,19.8t8.22,20.55q3.68,10.46,6.45,21.2c1.84,7.12,3.38,14.33,4.62,21.58s2.16,14.61,2.77,22l.21,2.75c0,.58.94.6.9,0Z" transform="translate(-46.2 -67.8)" fill="#fff"/><path d="M156,410a77,77,0,0,0-14.59-11.92q-2.23-1.41-4.56-2.67c-.51-.27-1,.5-.46.78a76.42,76.42,0,0,1,15.18,10.75c1.3,1.18,2.56,2.42,3.78,3.69A.45.45,0,0,0,156,410Z" transform="translate(-46.2 -67.8)" fill="#fff"/><path d="M144.18,361.43A77.09,77.09,0,0,0,131.09,348c-1.4-1.11-2.83-2.19-4.3-3.21-.48-.33-.93.45-.46.78A76.36,76.36,0,0,1,140.22,358q1.72,2,3.31,4.07a.46.46,0,0,0,.64,0,.47.47,0,0,0,0-.64Z" transform="translate(-46.2 -67.8)" fill="#fff"/><path d="M152.05,388.59c1.47-3.53,2.79-7.13,4-10.77s2.17-7.37,3-11.12c.48-2.1.9-4.21,1.28-6.33a.46.46,0,0,0-.32-.55.44.44,0,0,0-.55.31q-1,5.64-2.48,11.2t-3.44,11c-.73,2-1.51,4-2.34,6a.46.46,0,0,0,.32.56.46.46,0,0,0,.55-.31Z" transform="translate(-46.2 -67.8)" fill="#fff"/><path d="M412.74,201.65c.92-13.22-8-22.25-22.44-23.25-11.83-.82-21.71,3.77-29.28,12.24a7.15,7.15,0,0,1-9.9.84l-14.79-12.2a7.08,7.08,0,0,1-1.19-9.72c13.65-17.89,34.16-28.14,61.38-26.25,33.25,2.3,55.05,22,52.84,53.83-2.78,40.11-35.4,44.92-41.61,68.33a7.11,7.11,0,0,1-7.36,5.28l-19.47-1.35a7.08,7.08,0,0,1-6.47-8.51C381,230.1,411.24,223.37,412.74,201.65Zm-46.83,110.1c.95-13.76,10.31-20.22,22.72-19.36s20.79,8.55,19.84,22.31c-.94,13.49-10.36,21-22.78,20.12S365,325.24,365.91,311.75Z" transform="translate(-46.2 -67.8)" fill="#8969e2"/><path d="M417.24,201.84c.92-13.22-8-22.25-22.44-23.25-11.83-.82-21.72,3.77-29.28,12.24a7.15,7.15,0,0,1-9.9.84l-14.79-12.2a7.08,7.08,0,0,1-1.19-9.72c13.65-17.89,34.16-28.14,61.38-26.25,33.25,2.3,55.05,22,52.84,53.83-2.78,40.11-35.4,44.92-41.62,68.33a7.09,7.09,0,0,1-7.35,5.28l-19.47-1.35a7.08,7.08,0,0,1-6.47-8.51C385.54,230.29,415.74,223.56,417.24,201.84Zm-46.83,110.1c.95-13.76,10.31-20.22,22.72-19.36s20.79,8.55,19.84,22.31c-.94,13.49-10.37,21-22.78,20.12S369.47,325.43,370.41,311.94Z" transform="translate(-46.2 -67.8)" fill="#a694ea"/><path d="M263.5,108.15c.26-3.78-2.3-6.36-6.42-6.65a10,10,0,0,0-8.38,3.5,2,2,0,0,1-2.83.24l-4.23-3.48a2,2,0,0,1-.33-2.78c3.9-5.12,9.76-8,17.55-7.51,9.51.66,15.74,6.29,15.11,15.39-.8,11.47-10.12,12.85-11.9,19.54a2,2,0,0,1-2.11,1.51l-5.56-.38a2,2,0,0,1-1.85-2.44C254.43,116.29,263.07,114.36,263.5,108.15Zm-13.4,31.49c.28-3.94,3-5.79,6.5-5.54s5.95,2.45,5.67,6.38a6.1,6.1,0,1,1-12.17-.84Z" transform="translate(-46.2 -67.8)" fill="#8969e2"/><path d="M264.78,108.21c.27-3.79-2.29-6.37-6.41-6.65a10,10,0,0,0-8.38,3.5,2.05,2.05,0,0,1-2.83.24l-4.23-3.49a2,2,0,0,1-.34-2.78c3.91-5.12,9.77-8,17.55-7.51,9.51.66,15.75,6.29,15.12,15.4-.8,11.47-10.13,12.84-11.91,19.54a2,2,0,0,1-2.1,1.51l-5.57-.39a2,2,0,0,1-1.85-2.43C255.72,116.34,264.35,114.42,264.78,108.21Zm-13.39,31.48c.27-3.93,3-5.78,6.5-5.54s5.94,2.45,5.67,6.39a6.1,6.1,0,1,1-12.17-.85Z" transform="translate(-46.2 -67.8)" fill="#a694ea"/><path d="M94.71,213.76c-1.06-2.58-3.6-3.44-6.41-2.28a7.32,7.32,0,0,0-4.38,5.05,1.51,1.51,0,0,1-1.79,1.09l-3.94-.92A1.49,1.49,0,0,1,77.06,215c.9-4.66,3.81-8.51,9.12-10.71,6.5-2.68,12.46-1,15,5.21,3.24,7.83-2.47,11.8-1.45,16.8a1.52,1.52,0,0,1-.89,1.69l-3.81,1.57a1.51,1.51,0,0,1-2-1C91.4,222.11,96.46,218,94.71,213.76Zm1.48,25.18c-1.11-2.69,0-4.79,2.47-5.79s4.73-.33,5.84,2.35a4.5,4.5,0,1,1-8.31,3.44Z" transform="translate(-46.2 -67.8)" fill="#8969e2"/><path d="M95.58,213.38c-1.07-2.58-3.6-3.45-6.42-2.29a7.36,7.36,0,0,0-4.38,5.06A1.5,1.5,0,0,1,83,217.23l-3.93-.91a1.48,1.48,0,0,1-1.13-1.73c.9-4.65,3.81-8.51,9.12-10.7,6.49-2.68,12.45-1,15,5.21,3.23,7.83-2.47,11.79-1.45,16.79a1.5,1.5,0,0,1-.9,1.69l-3.8,1.57a1.49,1.49,0,0,1-2-1C92.26,221.72,97.33,217.62,95.58,213.38Zm1.48,25.17c-1.11-2.69,0-4.78,2.47-5.78s4.73-.34,5.84,2.35a4.5,4.5,0,1,1-8.31,3.43Z" transform="translate(-46.2 -67.8)" fill="#a694ea"/><path d="M175.32,385.14c-2.64,9.85-4.56,20.2-7.95,29.81-1.75,5-4.81,7.54-9.07,8.69a34,34,0,0,0,1.27,3.5,1.52,1.52,0,0,0,1.37.91,119.14,119.14,0,0,0,12.12-.62c3.59-23.56,6.65-47.73,9.89-71.69C180.55,365.58,178,375.36,175.32,385.14Z" transform="translate(-46.2 -67.8)" fill="#020a2d"/><path d="M184.29,157.57c1,4.21-.24,8.6-1.76,12.65a17,17,0,0,0-1.22,4.17,13.48,13.48,0,0,0,.14,3.17c.65,4.76,2.3,9.77,6.22,12.54,1.44,1,3.29,3.41,5,2.93,1.15-.32,2.1-2.83,2.92-3.69,3.56-3.74,5.21-8.89,6.4-13.92a4,4,0,0,0,.16-1.28,4.5,4.5,0,0,0-.49-1.49,19.58,19.58,0,0,1-.6-14.09" transform="translate(-46.2 -67.8)" fill="#ff9670"/><path d="M184.52,162.77a5.23,5.23,0,0,1,1,.84c2.23,2.36,6.64,2.71,9.66,2.34a12.1,12.1,0,0,0,4.9-2.7,12.28,12.28,0,0,1,1-4.69l-16.76-1A14.9,14.9,0,0,1,184.52,162.77Z" transform="translate(-46.2 -67.8)" fill="#fc7f51"/><path d="M173.27,417.39s-3.78,14.46-2.05,20.22c0,0-7.61,4-15.07-1.09,0,0,7.27-2.45,4.8-23" transform="translate(-46.2 -67.8)" fill="#ff9670"/><path d="M138.8,445.24a2.5,2.5,0,0,1,1-1.13c2.53-1.44,8.69-4.85,18-9.43a32.23,32.23,0,0,0,13.14.75,61.78,61.78,0,0,1,.74,9.49C166.87,445.14,148.15,445.89,138.8,445.24Z" transform="translate(-46.2 -67.8)" fill="#030f4c"/><path d="M171.72,444.92c0,1.08-.06,2.1-.14,3H138.53v-1.56a2.45,2.45,0,0,1,.27-1.1C148.15,445.89,166.87,445.14,171.72,444.92Z" transform="translate(-46.2 -67.8)" fill="#465282"/><path d="M156.58,436.3a.59.59,0,1,0,.59-.58A.58.58,0,0,0,156.58,436.3Z" transform="translate(-46.2 -67.8)" fill="#fff"/><path d="M146.58,441.13a.58.58,0,0,0,.58.58.59.59,0,1,0,0-1.17A.58.58,0,0,0,146.58,441.13Z" transform="translate(-46.2 -67.8)" fill="#fff"/><path d="M152.08,438.84a.59.59,0,0,0,1.17,0,.59.59,0,1,0-1.17,0Z" transform="translate(-46.2 -67.8)" fill="#fff"/><path d="M213.09,418.15s3.79,14.46,2.06,20.22c0,0,7.61,4,15.07-1.09,0,0-7.28-2.45-4.8-23" transform="translate(-46.2 -67.8)" fill="#ff9670"/><path d="M247.57,446a2.56,2.56,0,0,0-1-1.13c-2.53-1.44-8.7-4.85-18-9.43a32.27,32.27,0,0,1-13.14.75,62.58,62.58,0,0,0-.75,9.49C219.49,445.9,238.21,446.65,247.57,446Z" transform="translate(-46.2 -67.8)" fill="#030f4c"/><path d="M214.64,445.68c0,1.08.07,2.1.14,3h33.06v-1.55a2.6,2.6,0,0,0-.27-1.11C238.21,446.65,219.49,445.9,214.64,445.68Z" transform="translate(-46.2 -67.8)" fill="#465282"/><path d="M229.79,437.06a.59.59,0,0,1-.59.59.59.59,0,0,1,0-1.17A.59.59,0,0,1,229.79,437.06Z" transform="translate(-46.2 -67.8)" fill="#fff"/><path d="M239.79,441.89a.59.59,0,1,1-.59-.59A.58.58,0,0,1,239.79,441.89Z" transform="translate(-46.2 -67.8)" fill="#fff"/><path d="M234.29,439.6a.59.59,0,1,1-.59-.59A.59.59,0,0,1,234.29,439.6Z" transform="translate(-46.2 -67.8)" fill="#fff"/><path d="M173.06,427.43a119.14,119.14,0,0,1-12.12.62,1.52,1.52,0,0,1-1.37-.91c-2.72-6.31-3.33-13.34-3.83-20.21-3.38-47.12-2.44-92,1.51-139.11,0-.46-.56-3.44-.21-3.74a1.83,1.83,0,0,1,1.68-.06,180.5,180.5,0,0,0,58.5,7.18c1.32-.05,2.81-.07,3.77.86.53.51-.22-.71,0,0a75.56,75.56,0,0,1,3,14.5c1.82,23.47,3.64,46.95,4.4,70.47.75,23.21.45,46.45.13,69.67a2.29,2.29,0,0,1-2,2.25l-6.43.85a20.56,20.56,0,0,1-3.33.11c-2-.12-2.89.14-3.19-.83-11.7-37.51-16.67-102.4-23.06-131.83-.2,8.2-1.44,16.33-2.68,24.44-5.31,34.8-9.43,70.94-14.74,105.74" transform="translate(-46.2 -67.8)" fill="#030f4c"/><path d="M157.25,267.82q-.69,8.24-1.26,16.4c9.31-2,19.88-1.1,28.62-1.52a86.12,86.12,0,0,0,21.25-4.1c5.15-1.59,10.63-3.41,15.13-6.53h0c-1-.93-2.45-.91-3.77-.86a180.5,180.5,0,0,1-58.5-7.18,1.83,1.83,0,0,0-1.68.06C156.69,264.38,157.29,267.36,157.25,267.82Z" transform="translate(-46.2 -67.8)" fill="#020a2d"/><path d="M228.36,357c-.39-12.09-1.06-24.16-1.87-36.23-.16,2.75-.33,5.48-.5,8.16-.91,14.51-2.94,28.91-3.77,43.43-.77,13.21-1.92,26.63-1.67,39.85.14,6.85-1.56,13.43-7.37,15.65l.36,1.19c.3,1,1.17.71,3.19.83a20.56,20.56,0,0,0,3.33-.11l6.43-.85a2.29,2.29,0,0,0,2-2.25C228.81,403.48,229.11,380.24,228.36,357Z" transform="translate(-46.2 -67.8)" fill="#020a2d"/><path d="M191.43,298.92q3.38,12.34,6.33,24.79t5.53,25.11Q205.84,361.36,208,374t3.85,25.43q1.73,12.76,3,25.57c.11,1.08.22,2.17.32,3.25,0,.49.82.49.77,0q-1.24-12.81-2.9-25.56t-3.74-25.43q-2.09-12.69-4.58-25.31t-5.43-25.14q-2.91-12.51-6.25-24.93c-.28-1.05-.57-2.1-.85-3.15a.38.38,0,0,0-.74.2Z" transform="translate(-46.2 -67.8)" fill="#465282"/><path d="M189.19,298.35q-3,12.31-5.61,24.74t-4.79,25q-2.17,12.5-3.92,25.05t-3.06,25q-1.34,12.66-2.24,25.37l-.21,3.11c0,.49.73.49.76,0Q171,414,172.24,401.4t3-25.19q1.71-12.57,3.83-25.06t4.64-24.8q2.55-12.44,5.51-24.76c.24-1,.49-2,.74-3a.38.38,0,0,0-.74-.2Z" transform="translate(-46.2 -67.8)" fill="#465282"/><path d="M156.46,286a45.53,45.53,0,0,0,7.31-11.27c.21-.44-.52-.67-.73-.22a44.52,44.52,0,0,1-7.11,10.94c-.32.36.2.92.53.55Z" transform="translate(-46.2 -67.8)" fill="#465282"/><path d="M223.14,284.87a45.51,45.51,0,0,1-9.62-9.38c-.3-.39.37-.77.66-.38a44.82,44.82,0,0,0,9.35,9.1c.4.28,0,1-.39.66Z" transform="translate(-46.2 -67.8)" fill="#465282"/><path d="M180.47,129.44a65.77,65.77,0,0,0-1.36,14.94,20.65,20.65,0,0,0,3.67,12.08c3.06,4.3,5.61,6.87,10.09,7.09s7.67-2.12,10.22-5.63a24.65,24.65,0,0,0,4.85-11.21,58.48,58.48,0,0,0-.13-18" transform="translate(-46.2 -67.8)" fill="#ff9670"/><path d="M183.56,123.61a4.37,4.37,0,0,0,1.47,3.87,4.18,4.18,0,0,0,4.05.76,4.13,4.13,0,0,0,1.81-1.15c.44-.48,1-1.39,1.73-.84a11.66,11.66,0,0,0,1.7,1.34,5.81,5.81,0,0,0,1.91.59,5.51,5.51,0,0,0,4.35-1.33.38.38,0,0,0-.51-.57,4.87,4.87,0,0,1-5.39.64,8,8,0,0,1-1.48-1.18,1.46,1.46,0,0,0-1.61-.32,5.17,5.17,0,0,0-1.35,1.25,3.62,3.62,0,0,1-3.8.79,3.57,3.57,0,0,1-2.12-3.8c.07-.49-.7-.53-.76,0Z" transform="translate(-46.2 -67.8)" fill="#561c02"/><path d="M188.64,116.79a3.62,3.62,0,0,1,3.26-.36,3.56,3.56,0,0,1,2,2.25c.14.47.89.31.75-.16a4.4,4.4,0,0,0-2.47-2.78,4.31,4.31,0,0,0-3.93.37c-.4.27-.06,1,.35.68Z" transform="translate(-46.2 -67.8)" fill="#561c02"/><path d="M201.46,122.32a3.26,3.26,0,0,1,3.64,1.42,2.56,2.56,0,0,1,.05,2.08,4.47,4.47,0,0,1-.46.93c-.18.29-.44.55-.59.85-.24.52.14.84.57,1.06a3.82,3.82,0,0,1,1.39,1.2,8.86,8.86,0,0,1,1.28,4c.06.49.81.33.74-.16a9.47,9.47,0,0,0-1.4-4.34,4.55,4.55,0,0,0-1.42-1.31c-.06,0-.47-.19-.47-.24s.27-.29.26-.27a7.22,7.22,0,0,0,.62-1,3.4,3.4,0,0,0-.34-3.83,4.23,4.23,0,0,0-4-1.16.38.38,0,0,0,.16.75Z" transform="translate(-46.2 -67.8)" fill="#561c02"/><path d="M180.43,141a5.24,5.24,0,0,0-1.55-1.56,2.09,2.09,0,0,0-2-.09,3,3,0,0,0-1.33,1.86,5.65,5.65,0,0,0-.08,2.42,4.2,4.2,0,0,0,2.05,3.2,2.44,2.44,0,0,0,3.14-1.42,5.36,5.36,0,0,0,.12-2.84" transform="translate(-46.2 -67.8)" fill="#ff9670"/><path d="M179.38,141.77a1.83,1.83,0,0,0-.56-.55.74.74,0,0,0-.72,0,1.12,1.12,0,0,0-.47.66,2.08,2.08,0,0,0,0,.86,1.49,1.49,0,0,0,.73,1.14.86.86,0,0,0,1.11-.51,1.88,1.88,0,0,0,.05-1" transform="translate(-46.2 -67.8)" fill="#fc7f51"/><path d="M207.36,142.44a4.93,4.93,0,0,1,1.69-1.3,1.91,1.91,0,0,1,1.92.24,3.12,3.12,0,0,1,1,2,5.7,5.7,0,0,1-.3,2.4,4.12,4.12,0,0,1-2.4,2.84,2.32,2.32,0,0,1-2.73-1.91,5.54,5.54,0,0,1,.31-2.82" transform="translate(-46.2 -67.8)" fill="#ff9670"/><path d="M208.24,143.33a1.86,1.86,0,0,1,.6-.46.69.69,0,0,1,.68.09,1,1,0,0,1,.35.72,2.19,2.19,0,0,1-.1.85,1.48,1.48,0,0,1-.86,1,.82.82,0,0,1-1-.68,2,2,0,0,1,.11-1" transform="translate(-46.2 -67.8)" fill="#fc7f51"/><path d="M212.06,133.83c-.21-1.55-.92-3-.86-4.6s.76-2.76.73-4.18c-.06-2.77-2.8-4.73-5.45-5.56s-5.56-1-7.86-2.6c-1.72-1.16-2.94-3-4.71-4.06a7.93,7.93,0,0,0-9,.76,9,9,0,0,0-2.86,8.69,5.2,5.2,0,0,0-5.67,3.35,6.79,6.79,0,0,0,1.49,6.67h0c-.4,1.65-.86,5.12,1.37,7.88a29.66,29.66,0,0,0,1.08-6,11.16,11.16,0,0,0,3.87,1.14,12.8,12.8,0,0,0,5.79-.72c2.32-.86,4.6-2.43,7-2a8.21,8.21,0,0,1,3.75,2.1,6.09,6.09,0,0,0,2,1.34c1.63.55,3.74-.34,5,.87a1.5,1.5,0,0,1,.2.24,29.72,29.72,0,0,0,.42,5.26,7.48,7.48,0,0,0,1.67-2.52A7.37,7.37,0,0,0,212.06,133.83Z" transform="translate(-46.2 -67.8)" fill="#6e2501"/><path d="M190.44,153.16c.71,0,2.14-.36,3.17-.37a14.49,14.49,0,0,1,2.17.21.57.57,0,0,1,.25.08.4.4,0,0,1,.12.43.85.85,0,0,1-.28.37,3.72,3.72,0,0,1-2.8.67,3.24,3.24,0,0,1-2.63-1.39" transform="translate(-46.2 -67.8)" fill="#fe6705"/><path d="M179.63,147.33c-.27,1.7,1.37,3.37,3.66,3.73s4.37-.71,4.64-2.4-1.37-3.37-3.66-3.73S179.9,145.64,179.63,147.33Z" transform="translate(-46.2 -67.8)" fill="#fc7f51"/><path d="M206.64,148.66c.31,1.68-1.28,3.4-3.56,3.83s-4.39-.59-4.71-2.27,1.28-3.41,3.56-3.84S206.32,147,206.64,148.66Z" transform="translate(-46.2 -67.8)" fill="#fc7f51"/><path d="M191,136.65c-2.85-.39-6.55-.65-8.43.57-.93.61-1.79.37-.91-.29,2.74-2.08,5.67-2,9.9-1.74a.65.65,0,0,1,.56.91,1,1,0,0,1-1.12.55Z" transform="translate(-46.2 -67.8)" fill="#6e2501"/><path d="M185,141.1a1.41,1.41,0,0,0,1.45,1.33,1.55,1.55,0,0,0-.43-3A1.41,1.41,0,0,0,185,141.1Z" transform="translate(-46.2 -67.8)" fill="#2d0e0b"/><path d="M197.82,137.22c2.56-.3,5.87-.47,7.5.7.8.58,1.58.38.82-.26-2.36-2-5-2-8.77-1.81a.62.62,0,0,0-.53.84.87.87,0,0,0,1,.53Z" transform="translate(-46.2 -67.8)" fill="#6e2501"/><path d="M202.75,142.11a1.27,1.27,0,1,1-.82-1.79A1.4,1.4,0,0,1,202.75,142.11Z" transform="translate(-46.2 -67.8)" fill="#2d0e0b"/><path d="M194.6,148.25a4.9,4.9,0,0,0,1.64-.65,6,6,0,0,1-1.92-5.59c0-.29.15-.78.51-.77s.12.78.1,1.08c-.17,2.68.9,3.56,2.7,5a.5.5,0,0,1,0,.77,5.92,5.92,0,0,1-2.71,1.24C194.12,149.45,193.82,148.38,194.6,148.25Z" transform="translate(-46.2 -67.8)" fill="#f46e45"/><path d="M185.47,146.58A5.76,5.76,0,0,1,183,145a6.16,6.16,0,0,1-1.66-4.28,6,6,0,0,1,5.86-6,5.7,5.7,0,0,1,4.1,1.81,6.07,6.07,0,0,1,1.66,4.28,5.94,5.94,0,0,1-5.86,6A5.77,5.77,0,0,1,185.47,146.58Zm3.17-10.75a4.78,4.78,0,0,0-1.41-.22,5.09,5.09,0,0,0-5,5.16,5.3,5.3,0,0,0,1.43,3.69,4.84,4.84,0,0,0,3.49,1.54,5.09,5.09,0,0,0,5-5.15,5.33,5.33,0,0,0-1.43-3.7A5,5,0,0,0,188.64,135.83Z" transform="translate(-46.2 -67.8)" fill="#d03711"/><polygon points="135.91 71.5 135.88 72.26 133.16 72.11 133.43 71.04 135.91 71.5" fill="#d03711"/><path d="M200.67,148a5.93,5.93,0,0,1-5.15-6.62,6.15,6.15,0,0,1,2.13-4.06,5.68,5.68,0,0,1,4.28-1.34,5.94,5.94,0,0,1,5.15,6.62,6.14,6.14,0,0,1-2.14,4.07,5.81,5.81,0,0,1-2.59,1.26A5.57,5.57,0,0,1,200.67,148Zm-2.47-10a5.32,5.32,0,0,0-1.84,3.51,5.09,5.09,0,0,0,4.4,5.69A4.83,4.83,0,0,0,204.4,146a5.3,5.3,0,0,0,1.84-3.51,5.09,5.09,0,0,0-4.4-5.69,4.9,4.9,0,0,0-1.43.07A5,5,0,0,0,198.2,138Z" transform="translate(-46.2 -67.8)" fill="#d03711"/><polygon points="160.25 73.29 160.25 74.04 162.23 74.36 162.05 73.28 160.25 73.29" fill="#d03711"/><path d="M192.74,140.89l-.29-.66c.11,0,2.58-1.1,3.84.56l-.57.44C194.8,140,192.76,140.88,192.74,140.89Z" transform="translate(-46.2 -67.8)" fill="#d03711"/><path d="M247.8,211.94c-4.28-7-9.3-14.24-14-21-4.54-6.56-9-12.71-16.16-16a11.17,11.17,0,0,0-1.87-1.15,49.37,49.37,0,0,0-11-4,6.1,6.1,0,0,0-2.61-.2l-.17,0c-3.48,9.11-10.09,24-10.18,23.69s-7.21-17.53-10-24.23a4.58,4.58,0,0,0-1.11,0c-5.7.45-15.51,1.92-18.76,3.67h0c-7.47,3.19-12,9.46-16.59,16.15s-9.69,14-14,21c-.26.43-.53,1-.27,1.4a1.37,1.37,0,0,0,.38.38,165.7,165.7,0,0,0,19.18,12.14,1.45,1.45,0,0,0,1,.26c.46-.09.71-.58.9-1,2-4.63,4.21-7.49,6.57-10.9l-2.52,57.48a3.08,3.08,0,0,0,.42,2.1,3,3,0,0,0,1.41.79,99.44,99.44,0,0,0,60.36.91,3.42,3.42,0,0,0,1.85-1,3.47,3.47,0,0,0,.45-2c.15-15.83-.88-31.64-2.05-47.43-.28-3.67-.54-7.35-.49-11,2.95,4.54,5.65,7.55,8.09,13.17.19.42.44.91.89,1a1.41,1.41,0,0,0,1-.26,165.7,165.7,0,0,0,19.18-12.14,1.49,1.49,0,0,0,.38-.37C248.33,212.91,248.06,212.37,247.8,211.94Z" transform="translate(-46.2 -67.8)" fill="#feb405"/><path d="M214.18,243.44c-1.16,4.53-2.09,9.05-2.81,13.66-.55,3.5-1.67,6.53-4.34,8.93-5.14,4.62-13.16,5.22-19.69,6.1a129.47,129.47,0,0,1-28.66.51,99.39,99.39,0,0,0,60.11.83,3.42,3.42,0,0,0,1.85-1,3.47,3.47,0,0,0,.45-2c.15-15.83-.88-31.64-2.05-47.42C217.74,229.88,215.92,236.68,214.18,243.44Z" transform="translate(-46.2 -67.8)" fill="#e59900"/><path d="M159.11,212.52c0-.14.06-.27.1-.4a7.76,7.76,0,0,1-.72.3c-4.11,1.35-7,4.48-11.58,4.67-3.95.17-7.83-1.17-11.51-2.63a163.69,163.69,0,0,0,15.28,9.38,1.45,1.45,0,0,0,1,.26c.46-.09.71-.58.9-1,2-4.63,4.21-7.49,6.57-10.9Z" transform="translate(-46.2 -67.8)" fill="#e59900"/><path d="M247.8,211.94c-4.28-7-9.3-14.24-14-21l-.2-.29a90.92,90.92,0,0,1,2.72,15.2c1,8.37-1.72,13.52-6.75,19.38a165.74,165.74,0,0,0,18.09-11.53,1.49,1.49,0,0,0,.38-.37C248.33,212.91,248.06,212.37,247.8,211.94Z" transform="translate(-46.2 -67.8)" fill="#e59900"/><path d="M191.8,192.81s7.84-16.52,8.74-24.69l5.91,1.8L205,188.52l-6.56-2Z" transform="translate(-46.2 -67.8)" fill="#fff"/><path d="M191.8,192.81s-7.55-16.9-8.4-25.07l-5.67,1.67,1.54,19.11,6.2-2Z" transform="translate(-46.2 -67.8)" fill="#fff"/><path d="M191.42,192.81Q189.64,209.36,189,226q-.31,8.26-.35,16.55c0,5.47.06,10.95,0,16.43a172,172,0,0,1-1,18.44c-.06.49.7.49.76,0,1.28-10.95,1-22,1-33s.38-22.06,1.14-33.06q.63-9.3,1.63-18.57c0-.49-.71-.49-.76,0Z" transform="translate(-46.2 -67.8)" fill="#fe6705"/><path d="M187.84,197.84a1.15,1.15,0,0,0,0-2.29,1.15,1.15,0,0,0,0,2.29Z" transform="translate(-46.2 -67.8)" fill="#fe6705"/><path d="M186.49,211.33a1.15,1.15,0,0,0,0-2.29,1.15,1.15,0,0,0,0,2.29Z" transform="translate(-46.2 -67.8)" fill="#fe6705"/><path d="M185.62,226.64a1.15,1.15,0,0,0,0-2.3,1.15,1.15,0,0,0,0,2.3Z" transform="translate(-46.2 -67.8)" fill="#fe6705"/><path d="M185.62,240a1.15,1.15,0,0,0,0-2.3,1.15,1.15,0,0,0,0,2.3Z" transform="translate(-46.2 -67.8)" fill="#fe6705"/><path d="M185.23,253.26a1.15,1.15,0,0,0,0-2.3,1.15,1.15,0,0,0,0,2.3Z" transform="translate(-46.2 -67.8)" fill="#fe6705"/><path d="M184.42,266.14a1.15,1.15,0,0,0,0-2.3,1.15,1.15,0,0,0,0,2.3Z" transform="translate(-46.2 -67.8)" fill="#fe6705"/><path d="M220,209.25A149.4,149.4,0,0,1,221.27,186c.3-2.23.65-4.44,1-6.65.09-.52-.77-.74-.86-.22a148.21,148.21,0,0,0-2.35,23.39c-.05,2.24-.05,4.49,0,6.73,0,.53.9.53.89,0Z" transform="translate(-46.2 -67.8)" fill="#fe6705"/><path d="M226.29,223a80.61,80.61,0,0,0,15.46-10.26q2-1.71,3.95-3.57c.35-.34-.19-.88-.54-.54a79.84,79.84,0,0,1-14.67,11.19q-2.25,1.33-4.58,2.52c-.44.23-.06.89.38.66Z" transform="translate(-46.2 -67.8)" fill="#fe6705"/><path d="M159.18,207.23A150.64,150.64,0,0,0,157.92,184q-.45-3.34-1-6.66c-.09-.51.77-.73.86-.21a149.41,149.41,0,0,1,2.35,23.39q.07,3.36,0,6.73c0,.52-.91.53-.89,0Z" transform="translate(-46.2 -67.8)" fill="#fe6705"/><path d="M152.9,220.93a80.61,80.61,0,0,1-15.46-10.26c-1.36-1.15-2.67-2.34-3.95-3.57-.35-.34.19-.88.54-.54a79.84,79.84,0,0,0,14.67,11.19q2.25,1.33,4.58,2.52c.44.22.06.89-.38.66Z" transform="translate(-46.2 -67.8)" fill="#fe6705"/><path d="M242.42,217.23l-13.51,8.39c.79,1.85,1.55,3.7,2.27,5.58a11.69,11.69,0,0,1,1,4.52,12.19,12.19,0,0,1-1.36,4.47c-5.13,11.35-10.26,22.73-16.35,33.6a2.4,2.4,0,0,0-.44,1.51,2.22,2.22,0,0,0,.69,1.11,64.2,64.2,0,0,0,6.46,6.1,391.41,391.41,0,0,0,24.94-37.66,12.92,12.92,0,0,0,1.7-3.86,11.76,11.76,0,0,0,0-3.79A71,71,0,0,0,242.42,217.23Z" transform="translate(-46.2 -67.8)" fill="#ff9670"/><path d="M214.15,275.54l2-1.56a165.77,165.77,0,0,0,14.11-21.83A39.24,39.24,0,0,0,235,237.9c.51-4.9-1.06-9.21-2.82-13.69-.07-.17-.12-.34-.17-.5l-3.08,1.91c.79,1.85,1.55,3.7,2.27,5.58a11.69,11.69,0,0,1,1,4.52,12.19,12.19,0,0,1-1.36,4.47c-5.13,11.35-10.26,22.73-16.35,33.6a2.4,2.4,0,0,0-.44,1.51A1,1,0,0,0,214.15,275.54Z" transform="translate(-46.2 -67.8)" fill="#fc7f51"/><path d="M169.32,171.87c3.79-4.5,7.09-9.57,11.74-13.26.78-.62,1.91-1.24,2.72-.64-.65,2-3.17,3.41-2.78,5.45a4.61,4.61,0,0,0,1.11,1.9c.84,1,1.68,2,2.51,3a3,3,0,0,1,.68,1.09,2.21,2.21,0,0,1-.1,1.27c-.92,2.86-4.13,4.28-6.76,5.9-5.53,3.4-9.36,8.82-12.35,14.42s-5.29,11.54-8.6,17a78.53,78.53,0,0,1-11.23,13.9,26.83,26.83,0,0,1-7.36,5.78c-2.2,1-5.36,1.33-6.7-.66a5.31,5.31,0,0,1-.45-3.73,43.89,43.89,0,0,1,7.93-19.62c7.83-10.8,24.52-24.23,29.64-31.77" transform="translate(-46.2 -67.8)" fill="#ff9670"/><path d="M172.06,172c2.92-3.59,4.8-7.92,7.49-11.72,0,0,0-.11.08-.16l0,0c.22-.3.43-.6.65-.89-4.25,3.62-7.41,8.36-11,12.61a50.26,50.26,0,0,1-5,5.92C167.19,176.18,170,174.51,172.06,172Z" transform="translate(-46.2 -67.8)" fill="#fc7f51"/><path d="M158,203.76c-5.41,6.74-13.06,20-23.39,17.65a4.71,4.71,0,0,1-2.3-1.23c-.22,1-.42,2-.56,3.08a5.31,5.31,0,0,0,.45,3.73c1.34,2,4.5,1.71,6.7.66a26.83,26.83,0,0,0,7.36-5.78A78.53,78.53,0,0,0,157.49,208a98.31,98.31,0,0,0,4.8-9.22C160.83,200.36,159.39,202,158,203.76Z" transform="translate(-46.2 -67.8)" fill="#fc7f51"/><g opacity="0.45"><path d="M289,208.45a.77.77,0,0,0,0-1.53.77.77,0,0,0,0,1.53Z" transform="translate(-46.2 -67.8)" fill="#fff"/><path d="M280.89,220.45a.77.77,0,0,0,0-1.53.77.77,0,0,0,0,1.53Z" transform="translate(-46.2 -67.8)" fill="#fff"/><path d="M293,220.32a.77.77,0,0,0,0-1.53.77.77,0,0,0,0,1.53Z" transform="translate(-46.2 -67.8)" fill="#fff"/><path d="M286.82,232.05a.77.77,0,0,0,0-1.53.77.77,0,0,0,0,1.53Z" transform="translate(-46.2 -67.8)" fill="#fff"/><path d="M301.11,230.56a.77.77,0,0,0,0-1.53.77.77,0,0,0,0,1.53Z" transform="translate(-46.2 -67.8)" fill="#fff"/><path d="M296.53,240.81a.77.77,0,0,0,0-1.53.77.77,0,0,0,0,1.53Z" transform="translate(-46.2 -67.8)" fill="#fff"/><path d="M283.31,242.43a.77.77,0,0,0,0-1.53.77.77,0,0,0,0,1.53Z" transform="translate(-46.2 -67.8)" fill="#fff"/><path d="M305.16,219a.77.77,0,0,0,0-1.53.77.77,0,0,0,0,1.53Z" transform="translate(-46.2 -67.8)" fill="#fff"/><path d="M302.46,208.72a.77.77,0,0,0,0-1.53.77.77,0,0,0,0,1.53Z" transform="translate(-46.2 -67.8)" fill="#fff"/><path d="M281.56,212.23a.77.77,0,0,0,0-1.53.77.77,0,0,0,0,1.53Z" transform="translate(-46.2 -67.8)" fill="#fff"/><path d="M276.71,203.6a.77.77,0,0,0,0-1.53.77.77,0,0,0,0,1.53Z" transform="translate(-46.2 -67.8)" fill="#fff"/><path d="M270.78,213.17a.77.77,0,0,0,0-1.53.77.77,0,0,0,0,1.53Z" transform="translate(-46.2 -67.8)" fill="#fff"/><path d="M270,223a.77.77,0,0,0,0-1.53.77.77,0,0,0,0,1.53Z" transform="translate(-46.2 -67.8)" fill="#fff"/><path d="M314.46,211.69a.77.77,0,0,0,0-1.53.77.77,0,0,0,0,1.53Z" transform="translate(-46.2 -67.8)" fill="#fff"/><path d="M315.81,201.17a.77.77,0,0,0,0-1.53.77.77,0,0,0,0,1.53Z" transform="translate(-46.2 -67.8)" fill="#fff"/><path d="M305,202.25a.77.77,0,0,0,0-1.53.77.77,0,0,0,0,1.53Z" transform="translate(-46.2 -67.8)" fill="#fff"/><path d="M314.33,225a.77.77,0,0,0,0-1.53.77.77,0,0,0,0,1.53Z" transform="translate(-46.2 -67.8)" fill="#fff"/><path d="M310,235.82a.77.77,0,0,0,0-1.53.77.77,0,0,0,0,1.53Z" transform="translate(-46.2 -67.8)" fill="#fff"/><path d="M306,244.32a.77.77,0,0,0,0-1.53.77.77,0,0,0,0,1.53Z" transform="translate(-46.2 -67.8)" fill="#fff"/><path d="M319.31,242.29a.77.77,0,0,0,0-1.53.77.77,0,0,0,0,1.53Z" transform="translate(-46.2 -67.8)" fill="#fff"/><path d="M322,233.39a.77.77,0,0,0,0-1.53.77.77,0,0,0,0,1.53Z" transform="translate(-46.2 -67.8)" fill="#fff"/><path d="M320.26,221.53a.77.77,0,0,0,0-1.53.77.77,0,0,0,0,1.53Z" transform="translate(-46.2 -67.8)" fill="#fff"/></g><path d="M310.46,438.46q.39-12.07,2-24.31c1.06-8.17,2.53-16.38,4.39-24.58s4.07-16.26,6.68-24.36,5.68-16.33,9.08-24.43,7.16-16.08,11.29-24c.51-1,1-2,1.55-2.94a1.09,1.09,0,0,0-.81-1.6c-.81-.15-1.35,1.23-1.73,1.94-4.25,8-8.47,15.13-12,23.25s-6.59,16.17-9.31,24.31-5.15,16.55-7.14,24.84-3.53,16.42-4.7,24.6-1.94,16.34-2.3,24.43c0,1-.08,2-.11,3a1.16,1.16,0,0,0,1.31,1.28c.75,0,1.76-.7,1.78-1.42Z" transform="translate(-46.2 -67.8)" fill="#88b4ff"/><path d="M342.22,317.08c1.15-4.93,2.07-9.54,4.85-13.78a16,16,0,0,1,5.28-4.41c.83-.44,2.13-.55,2.46.33a1.73,1.73,0,0,1,0,.93,21.74,21.74,0,0,1-3.34,8.25c-2.63,3.64-6.19,5.4-9.26,8.68" transform="translate(-46.2 -67.8)" fill="#88b4ff"/><path d="M339.2,322.7c-3.13-4.14-6.17-7.88-7.68-12.84a16.59,16.59,0,0,1,0-7.05c.2-.95,1-2,1.88-1.73a1.86,1.86,0,0,1,.74.6,22.47,22.47,0,0,1,4.31,8c1.14,4.46.2,8.41.77,13" transform="translate(-46.2 -67.8)" fill="#88b4ff"/><path d="M338.66,323.12c4.46-2.64,8.53-5.23,13.62-6.18a16.25,16.25,0,0,1,7,.78c.92.3,1.92,1.18,1.51,2a1.82,1.82,0,0,1-.68.67,22.23,22.23,0,0,1-8.48,3.38c-4.55.63-8.37-.75-13-.7" transform="translate(-46.2 -67.8)" fill="#88b4ff"/><path d="M331.7,338.21c-3.38-4.48-6.67-8.53-8.31-13.9a17.69,17.69,0,0,1,0-7.63c.21-1,1-2.21,2-1.87a1.87,1.87,0,0,1,.8.65,24.25,24.25,0,0,1,4.67,8.7c1.24,4.83.21,9.11.83,14" transform="translate(-46.2 -67.8)" fill="#88b4ff"/><path d="M331.07,338.1c4.82-2.86,9.22-5.67,14.74-6.69a17.66,17.66,0,0,1,7.58.84c1,.32,2.08,1.28,1.63,2.22a1.94,1.94,0,0,1-.73.72,24.08,24.08,0,0,1-9.18,3.66c-4.93.69-9.06-.81-14-.75" transform="translate(-46.2 -67.8)" fill="#88b4ff"/><path d="M323.9,357.64c-4.33-5.72-8.53-10.9-10.62-17.76-.84-2.74-.6-6.95,0-9.76.27-1.31,1.32-2.82,2.59-2.39a2.49,2.49,0,0,1,1,.83,30.79,30.79,0,0,1,6,11.13c1.59,6.16.28,11.63,1.07,17.95" transform="translate(-46.2 -67.8)" fill="#88b4ff"/><path d="M323.78,358.34c6.18-3.66,11.8-7.25,18.85-8.56,2.81-.53,7,.18,9.7,1.07,1.27.42,2.66,1.64,2.08,2.85a2.45,2.45,0,0,1-.94.92,30.8,30.8,0,0,1-11.73,4.67c-6.3.89-11.59-1-18-1" transform="translate(-46.2 -67.8)" fill="#88b4ff"/><path d="M318.23,376.26c-4.8-5.33-9.42-10.14-12.09-16.8-1.06-2.66-1.19-6.88-.85-9.72.16-1.33,1.09-2.93,2.38-2.6a2.44,2.44,0,0,1,1.09.74,30.88,30.88,0,0,1,6.89,10.58c2.1,6,1.26,11.57,2.58,17.8" transform="translate(-46.2 -67.8)" fill="#88b4ff"/><path d="M318.17,377c5.84-4.17,11.14-8.22,18.06-10.12,2.76-.76,7-.41,9.75.25,1.3.3,2.79,1.4,2.32,2.65a2.44,2.44,0,0,1-.86,1,30.71,30.71,0,0,1-11.29,5.65c-6.21,1.42-11.64,0-18,.57" transform="translate(-46.2 -67.8)" fill="#88b4ff"/><path d="M313.73,395.32c-4.15-4.09-8.14-7.77-10.62-13a18.31,18.31,0,0,1-1.16-7.85c.06-1.08.74-2.42,1.8-2.22a2,2,0,0,1,.92.54,25.15,25.15,0,0,1,6.1,8.26c2,4.77,1.58,9.32,3,14.31" transform="translate(-46.2 -67.8)" fill="#88b4ff"/><path d="M313.72,395.89c4.53-3.66,8.63-7.21,14.15-9.08a18.38,18.38,0,0,1,7.92-.27c1.07.18,2.33,1,2,2a2,2,0,0,1-.64.85,25,25,0,0,1-8.89,5.13c-5,1.45-9.44.53-14.55,1.33" transform="translate(-46.2 -67.8)" fill="#88b4ff"/><path d="M311,411.81c-3.72-3.15-7.26-5.95-9.67-10.18a15.33,15.33,0,0,1-1.46-6.45c0-.9.46-2.07,1.36-2a1.78,1.78,0,0,1,.8.4,21,21,0,0,1,5.6,6.48c2,3.84,1.91,7.65,3.37,11.72" transform="translate(-46.2 -67.8)" fill="#88b4ff"/><path d="M311,412.28c3.54-3.34,6.73-6.54,11.2-8.46a15.53,15.53,0,0,1,6.58-.73c.9.09,2,.69,1.8,1.57a1.72,1.72,0,0,1-.49.76,21,21,0,0,1-7.06,4.83c-4,1.52-7.83,1-12,2" transform="translate(-46.2 -67.8)" fill="#88b4ff"/><path d="M309.16,425.55c-3.28-2.28-6.39-4.3-8.68-7.57a12.78,12.78,0,0,1-1.69-5.16c-.08-.74.22-1.72,1-1.71a1.33,1.33,0,0,1,.68.26,17.07,17.07,0,0,1,5.07,4.87c1.9,3,2.15,6.11,3.66,9.31" transform="translate(-46.2 -67.8)" fill="#88b4ff"/><path d="M309.21,425.94c2.64-3,5-5.86,8.5-7.77a12.71,12.71,0,0,1,5.32-1.1c.74,0,1.69.41,1.59,1.15a1.32,1.32,0,0,1-.34.65,17.19,17.19,0,0,1-5.4,4.49c-3.18,1.55-6.31,1.44-9.67,2.58" transform="translate(-46.2 -67.8)" fill="#88b4ff"/><path d="M359.55,373.12c0-.14,0-.28,0-.43a103.56,103.56,0,0,1,18.79-13.61c12.49-7.11,26.22-11.85,40.21-15.17a220,220,0,0,1,36.28-5.47c-7,6.64-10.73,10.6-16.05,16a73.83,73.83,0,0,0-7.55,9,117.26,117.26,0,0,1-12.38-4.1l10.07,7.46c-5.79,8.77-10.52,18.38-16.39,27.16-1.1-.51-2.18-1-3.25-1.61-2.85-1.5-5.7-3.2-8.88-3.67a114.61,114.61,0,0,0,6.42,12.95c-16.42,19.51-44.37,33.22-69.48,34.26-4.61-9.05-3.32-20,0-29.64a79,79,0,0,1,9.26-18.6,81.3,81.3,0,0,1,6.46-8.33c1.85,3,3.72,6,5.65,8.94A76,76,0,0,0,359.55,373.12Z" transform="translate(-46.2 -67.8)" fill="#a694ea"/><path d="M418.53,343.91a218.68,218.68,0,0,1,33.17-5.23c-5.45,1.37-10.45,4.11-15.28,7-5.59,3.29-11.27,6.44-17,9.53C400,365.72,383,380.9,367.34,396.65c-11.83,11.89-22.26,25.59-27.88,39.12-.71.05-1.43.09-2.14.12-4.61-9.05-3.32-20,0-29.64a79,79,0,0,1,9.26-18.6,81.3,81.3,0,0,1,6.46-8.33c1.85,3,3.72,6,5.65,8.94a76,76,0,0,0,.89-15.14c0-.14,0-.28,0-.43a103.56,103.56,0,0,1,18.79-13.61C390.81,352,404.54,347.23,418.53,343.91Z" transform="translate(-46.2 -67.8)" fill="#8969e2"/><path d="M340.94,429.72q6.19-9.21,13.16-17.87t14.68-16.72q7.68-8,16-15.4t17.25-14q8.94-6.61,18.43-12.46c.78-.49,1.57-1,2.35-1.44.5-.3,1,.47.48.77q-9.49,5.72-18.49,12.22t-17.35,13.74q-8.39,7.25-16.14,15.18T356.61,410.2q-7,8.55-13.33,17.67l-1.55,2.28c-.32.48-1.12.05-.79-.43Z" transform="translate(-46.2 -67.8)" fill="#fff"/><path d="M352.27,414.49a77.63,77.63,0,0,1,18.59-3.09c1.76-.07,3.52-.08,5.29,0,.58,0,.59.92,0,.91A75.82,75.82,0,0,0,357.64,414c-1.72.38-3.42.82-5.12,1.32a.45.45,0,0,1-.25-.87Z" transform="translate(-46.2 -67.8)" fill="#fff"/><path d="M386.67,378.24a76.89,76.89,0,0,1,18-5.15c1.77-.27,3.54-.49,5.33-.65.58-.05.59.86,0,.91a76.27,76.27,0,0,0-18.23,3.88c-1.65.57-3.29,1.19-4.9,1.88a.45.45,0,0,1-.25-.87Z" transform="translate(-46.2 -67.8)" fill="#fff"/><path d="M366.33,397.88q.72-5.7,1.93-11.31t2.9-11.15c.63-2.05,1.32-4.1,2-6.12a.47.47,0,0,1,.55-.33.45.45,0,0,1,.32.55c-1.29,3.6-2.44,7.25-3.42,10.94s-1.82,7.47-2.49,11.25q-.56,3.18-1,6.39a.46.46,0,0,1-.55.33.47.47,0,0,1-.33-.55Z" transform="translate(-46.2 -67.8)" fill="#fff"/><path d="M357.69,437.69q5.64-4.72,11.83-8.95c4.13-2.83,8.45-5.49,12.92-8s9-4.74,13.75-6.84,9.7-4.05,14.75-5.79,10.19-3.27,15.46-4.6l2-.49a.66.66,0,0,0,.39-1c-.26-.43-1.1-.11-1.58,0-5.33,1.3-10.29,2.3-15.39,4s-10,3.56-14.79,5.63-9.59,4.37-14.16,6.83-8.87,5.05-13,7.83-8.19,5.74-12,8.86l-1.4,1.16a.71.71,0,0,0-.05,1.12,1.18,1.18,0,0,0,1.36.23Z" transform="translate(-46.2 -67.8)" fill="#5595f2"/><path d="M425.59,402.9c2.7-1.47,5.16-2.93,8.2-3.38a9.77,9.77,0,0,1,4.14.6c.54.2,1.12.75.85,1.25a1,1,0,0,1-.41.39,13.24,13.24,0,0,1-5.1,1.82c-2.72.29-4.95-.61-7.68-.68" transform="translate(-46.2 -67.8)" fill="#5595f2"/><path d="M421.81,403.81c.61-3.09,1.08-6,2.71-8.68a9.88,9.88,0,0,1,3.19-2.87c.51-.29,1.32-.39,1.54.15a1,1,0,0,1,0,.58,13.42,13.42,0,0,1-1.9,5.21c-1.55,2.33-3.73,3.5-5.57,5.61" transform="translate(-46.2 -67.8)" fill="#5595f2"/><path d="M421.4,403.74c3,.95,5.83,1.74,8.33,3.67a10,10,0,0,1,2.48,3.49c.24.54.25,1.35-.32,1.52a1.12,1.12,0,0,1-.57,0,13.51,13.51,0,0,1-5-2.48c-2.14-1.8-3.06-4.1-5-6.16" transform="translate(-46.2 -67.8)" fill="#5595f2"/><path d="M411.75,406.7c.65-3.35,1.16-6.48,2.93-9.4a10.71,10.71,0,0,1,3.45-3.1c.55-.32,1.42-.43,1.67.16a1.22,1.22,0,0,1,0,.63,14.76,14.76,0,0,1-2.06,5.64c-1.68,2.51-4,3.78-6,6.07" transform="translate(-46.2 -67.8)" fill="#5595f2"/><path d="M411.54,406.36c3.25,1,6.3,1.89,9,4a11.07,11.07,0,0,1,2.69,3.78c.25.59.26,1.47-.35,1.64a1.14,1.14,0,0,1-.63,0,14.57,14.57,0,0,1-5.37-2.67c-2.31-2-3.31-4.44-5.35-6.68" transform="translate(-46.2 -67.8)" fill="#5595f2"/><path d="M399.77,411c.84-4.28,1.49-8.28,3.75-12a13.78,13.78,0,0,1,4.42-4c.7-.41,1.82-.55,2.13.2a1.55,1.55,0,0,1,0,.8,18.76,18.76,0,0,1-2.63,7.22c-2.15,3.21-5.16,4.84-7.71,7.75" transform="translate(-46.2 -67.8)" fill="#5595f2"/><path d="M399.41,411.26c4.16,1.32,8.07,2.41,11.52,5.08a13.77,13.77,0,0,1,3.44,4.83c.33.74.34,1.87-.44,2.1a1.56,1.56,0,0,1-.8,0,18.67,18.67,0,0,1-6.87-3.43c-3-2.5-4.23-5.67-6.85-8.53" transform="translate(-46.2 -67.8)" fill="#5595f2"/><path d="M389,416c.47-4.34.78-8.38,2.71-12.29a13.86,13.86,0,0,1,4.07-4.32c.66-.47,1.76-.7,2.14,0a1.51,1.51,0,0,1,.11.79,18.64,18.64,0,0,1-2,7.41c-1.87,3.39-4.74,5.26-7,8.39" transform="translate(-46.2 -67.8)" fill="#5595f2"/><path d="M388.7,416.27c4.25,1,8.23,1.71,11.9,4.08a13.76,13.76,0,0,1,3.84,4.52c.39.71.49,1.83-.27,2.13a1.45,1.45,0,0,1-.8,0,18.81,18.81,0,0,1-7.13-2.82c-3.16-2.25-4.7-5.3-7.54-7.92" transform="translate(-46.2 -67.8)" fill="#5595f2"/><path d="M378.57,421.69c.18-3.54.23-6.83,1.61-10.1a11.21,11.21,0,0,1,3.09-3.7c.51-.41,1.4-.65,1.74-.09a1.26,1.26,0,0,1,.12.64,15.07,15.07,0,0,1-1.27,6.11c-1.35,2.84-3.58,4.5-5.29,7.14" transform="translate(-46.2 -67.8)" fill="#5595f2"/><path d="M378.31,421.92c3.5.57,6.76,1,9.85,2.73a11.18,11.18,0,0,1,3.33,3.48c.35.56.49,1.47-.11,1.74a1.19,1.19,0,0,1-.65.05,15.06,15.06,0,0,1-5.92-1.95c-2.67-1.66-4.07-4.06-6.5-6.05" transform="translate(-46.2 -67.8)" fill="#5595f2"/><path d="M370,427.14c-.08-3-.25-5.7.7-8.5a9.21,9.21,0,0,1,2.33-3.28c.4-.37,1.12-.63,1.44-.18a1,1,0,0,1,.14.52,12.5,12.5,0,0,1-.66,5.16c-.95,2.45-2.7,4-3.95,6.28" transform="translate(-46.2 -67.8)" fill="#5595f2"/><path d="M369.8,427.35c2.94.25,5.69.39,8.37,1.64a9.37,9.37,0,0,1,3,2.69c.33.44.5,1.19,0,1.45a1.08,1.08,0,0,1-.54.09,12.79,12.79,0,0,1-5.05-1.25c-2.33-1.21-3.64-3.12-5.79-4.62" transform="translate(-46.2 -67.8)" fill="#5595f2"/><path d="M363,431.87a19.62,19.62,0,0,1-.08-7,7.57,7.57,0,0,1,1.66-2.86c.3-.34.87-.6,1.16-.26a.9.9,0,0,1,.16.42,10.59,10.59,0,0,1-.15,4.27c-.59,2.07-1.9,3.45-2.75,5.43" transform="translate(-46.2 -67.8)" fill="#5595f2"/><path d="M362.86,432.05a19.41,19.41,0,0,1,7,.71,7.6,7.6,0,0,1,2.65,2c.3.34.5.93.13,1.19a1,1,0,0,1-.44.11,10.42,10.42,0,0,1-4.22-.63c-2-.82-3.21-2.28-5.09-3.34" transform="translate(-46.2 -67.8)" fill="#5595f2"/><path d="M312,179.19a12.51,12.51,0,0,1-.55,5.16c-.16.47.58.67.74.21a13,13,0,0,0,.57-5.37.39.39,0,0,0-.38-.38.39.39,0,0,0-.38.38Z" transform="translate(-46.2 -67.8)" fill="#606060"/><path d="M281.66,242.53c.2,2.66.39,5.43-.62,7.9-.87,2.14-2.62,4.06-2.5,6.37a.74.74,0,0,0,.14.46.84.84,0,0,0,.57.2,132.08,132.08,0,0,0,18.11.59c2.5-.15,5-.44,7.47-.65a103.17,103.17,0,0,1,18.6.19,59.91,59.91,0,0,1-2.53-17.35" transform="translate(-46.2 -67.8)" fill="#ff9670"/><path d="M281.59,248.54c6,.16,12.27-.36,18.24-.67,7-.37,14.28-.93,20.9-3.3a3,3,0,0,1,.32-.09c-.1-1.41-.15-2.82-.15-4.24l-39.24,2.29A23.68,23.68,0,0,1,281.59,248.54Z" transform="translate(-46.2 -67.8)" fill="#fc7f51"/><path d="M298.1,423.51l.39-17.95c-2-.11-3.93-.25-5.91-.3-1.67-.05-3.27.06-4.87-.08,1.3,9.07,2.42,17.74,2.44,20.73a27.35,27.35,0,0,1-1.82,8.51c10.32,4.9,10.14-2.41,9.94-5.38C298.15,427.2,298.06,425.36,298.1,423.51Z" transform="translate(-46.2 -67.8)" fill="#ff9670"/><path d="M289.53,429.29a25.69,25.69,0,0,0-2.93,15,4.15,4.15,0,0,0,.51,1.82,2.62,2.62,0,0,0,1.05.83,11.65,11.65,0,0,0,11.12-.27,2.1,2.1,0,0,0,.79-.67,3.24,3.24,0,0,0,.34-1.34,39.69,39.69,0,0,0-.08-8.85" transform="translate(-46.2 -67.8)" fill="#e59900"/><path d="M289.81,427.86c2.07-1.81,5-2.24,7.06-.46s2.87,5.07,3.54,8.13c.46,2.1.83,4.69-.4,6.19a3.93,3.93,0,0,1-1.65,1.06,12.78,12.78,0,0,1-7,.68,5.26,5.26,0,0,1-4.54-3.93,8.93,8.93,0,0,1,.39-4,42.44,42.44,0,0,1,2.61-7.64" transform="translate(-46.2 -67.8)" fill="#feb405"/><path d="M290.28,438c.45,0,.45-.8,0-.8s-.46.8,0,.8Z" transform="translate(-46.2 -67.8)" fill="#fff"/><path d="M297.21,437.82c.46,0,.46-.81,0-.81s-.45.81,0,.81Z" transform="translate(-46.2 -67.8)" fill="#fff"/><path d="M291.89,437.9a15.85,15.85,0,0,1,3.77-.06c.19,0,.35-.2.35-.4a.39.39,0,0,0-.35-.41,15.85,15.85,0,0,0-3.77.07.38.38,0,0,0-.35.4c0,.19.16.42.35.4Z" transform="translate(-46.2 -67.8)" fill="#fff"/><path d="M290.31,434.26c.45,0,.45-.8,0-.8s-.46.8,0,.8Z" transform="translate(-46.2 -67.8)" fill="#fff"/><path d="M297.24,434.1c.46,0,.46-.8,0-.8s-.45.8,0,.8Z" transform="translate(-46.2 -67.8)" fill="#fff"/><path d="M291.92,434.18a15.85,15.85,0,0,1,3.77-.06c.19,0,.35-.2.35-.4a.39.39,0,0,0-.35-.4,15.85,15.85,0,0,0-3.77.06.39.39,0,0,0-.35.4c0,.2.16.43.35.4Z" transform="translate(-46.2 -67.8)" fill="#fff"/><path d="M290.31,430.47c.45,0,.45-.8,0-.8s-.46.8,0,.8Z" transform="translate(-46.2 -67.8)" fill="#fff"/><path d="M297.24,430.31c.46,0,.46-.8,0-.8s-.45.8,0,.8Z" transform="translate(-46.2 -67.8)" fill="#fff"/><path d="M291.92,430.4a15.85,15.85,0,0,1,3.77-.06c.19,0,.35-.2.35-.41a.39.39,0,0,0-.35-.4,15.85,15.85,0,0,0-3.77.06.4.4,0,0,0-.35.41c0,.19.16.42.35.4Z" transform="translate(-46.2 -67.8)" fill="#fff"/><path d="M331.48,423.63l-2.4-17.8c1.94-.33,3.88-.69,5.84-1,1.66-.23,3.25-.3,4.83-.62-.27,9.16-.42,17.9-.11,20.87a27.32,27.32,0,0,0,2.76,8.25c-9.71,6-10.34-1.26-10.48-4.23C331.84,427.3,331.72,425.46,331.48,423.63Z" transform="translate(-46.2 -67.8)" fill="#ff9670"/><path d="M340.64,428.41a25.78,25.78,0,0,1,4.58,14.6,3.93,3.93,0,0,1-.3,1.86,2.59,2.59,0,0,1-.95.94,11.63,11.63,0,0,1-11.08,1,2,2,0,0,1-.86-.58,3.18,3.18,0,0,1-.49-1.29,39.49,39.49,0,0,1-.91-8.8" transform="translate(-46.2 -67.8)" fill="#e59900"/><path d="M340.2,427c-2.26-1.57-5.2-1.67-7.07.33s-2.28,5.36-2.61,8.47c-.23,2.14-.3,4.76,1.09,6.11a4,4,0,0,0,1.76.88,12.76,12.76,0,0,0,7-.12,5.27,5.27,0,0,0,4.08-4.41,9.1,9.1,0,0,0-.84-4,43.28,43.28,0,0,0-3.45-7.3" transform="translate(-46.2 -67.8)" fill="#feb405"/><path d="M340.86,437.12c-.45.05-.54-.75-.09-.8s.54.75.09.8Z" transform="translate(-46.2 -67.8)" fill="#fff"/><path d="M334,437.74c-.45.05-.54-.75-.09-.8s.54.75.09.8Z" transform="translate(-46.2 -67.8)" fill="#fff"/><path d="M339.25,437.23a15.75,15.75,0,0,0-3.75.36c-.19,0-.37-.16-.39-.36a.38.38,0,0,1,.3-.44,15.75,15.75,0,0,1,3.75-.36.4.4,0,0,1,.4.36c0,.2-.12.44-.31.44Z" transform="translate(-46.2 -67.8)" fill="#fff"/><path d="M340.42,433.43c-.45.05-.54-.74-.09-.79s.54.74.09.79Z" transform="translate(-46.2 -67.8)" fill="#fff"/><path d="M333.51,434.05c-.45.05-.54-.74-.09-.8s.54.75.09.8Z" transform="translate(-46.2 -67.8)" fill="#fff"/><path d="M338.81,433.54a15.7,15.7,0,0,0-3.75.36c-.19,0-.38-.16-.4-.36a.4.4,0,0,1,.31-.44,15.7,15.7,0,0,1,3.75-.36.4.4,0,0,1,.39.36c0,.2-.11.45-.3.44Z" transform="translate(-46.2 -67.8)" fill="#fff"/><path d="M340,429.67c-.45.05-.54-.75-.09-.8s.54.75.09.8Z" transform="translate(-46.2 -67.8)" fill="#fff"/><path d="M333.09,430.29c-.45,0-.54-.75-.09-.8s.54.75.09.8Z" transform="translate(-46.2 -67.8)" fill="#fff"/><path d="M338.38,429.78a15.8,15.8,0,0,0-3.75.36c-.18,0-.37-.16-.39-.36a.38.38,0,0,1,.3-.44,15.8,15.8,0,0,1,3.75-.36.39.39,0,0,1,.4.36c0,.19-.12.44-.31.44Z" transform="translate(-46.2 -67.8)" fill="#fff"/><path d="M278.53,226.16c-2,4.17-5,11.3-6.6,15.61a10.71,10.71,0,0,0-1,5.25,10.87,10.87,0,0,0,1.55,3.77A197,197,0,0,0,289.66,276a1.83,1.83,0,0,1,.2,2.77l-3.22,4.7c-.19.27-.42.57-.75.58s-.55-.25-.76-.48l-15.43-18c-3.77-4.39-7.58-8.83-10.38-13.9a12,12,0,0,1-1.72-4.84,12.84,12.84,0,0,1,.49-3.94,103.46,103.46,0,0,1,10.83-27.6" transform="translate(-46.2 -67.8)" fill="#ff9670"/><path d="M270.91,247a10.71,10.71,0,0,1,1-5.25c1.64-4.31,4.63-11.44,6.6-15.61l-.11-.13a5,5,0,0,1-1.35,1.16c-3.74,2.28-5.52,7.38-7,11.29-2.05,5.42-1.62,9.75.66,15.09,1.57,3.7,3.33,7.4,5.24,11,4,5.76,8,11.48,11.56,17.52l2.32-3.39a1.83,1.83,0,0,0-.2-2.77,197,197,0,0,1-17.2-25.18A10.87,10.87,0,0,1,270.91,247Z" transform="translate(-46.2 -67.8)" fill="#fc7f51"/><path d="M280.78,251.68c-5.37,5.39-7.12,13.31-8.63,20.77-1.38,6.76-2.75,13.59-2.7,20.5,0,6.2,1.24,12.33,2.3,18.44a449.37,449.37,0,0,1,6.5,64.23c.46,16,.29,33,8.43,46.84a2.53,2.53,0,0,0,3.07,1.62l8.23-.85a1.58,1.58,0,0,0,1.1-.41,1.52,1.52,0,0,0,.26-.91c2.93-41.14-1.51-82.65,3.39-123.6q10.38,62.16,25.16,123.48a1.86,1.86,0,0,0,1.78,1.42,27.42,27.42,0,0,0,10.77-1.69,1.5,1.5,0,0,0,.91-1.15c1.34-8.65.16-17.51-1-26.21Q333.31,338.78,329.86,283c-.61-10-1.29-20.46-6.56-29a1.93,1.93,0,0,0-.86-.88,2.13,2.13,0,0,0-1.38.1c-6,1.78-12.45,1.34-18.72.88-7.19-.52-14.37-1.93-21.56-2.45" transform="translate(-46.2 -67.8)" fill="#4c16c4"/><path d="M300.77,323.31c-.64,4.61-1.41,9.2-1.91,13.83-1.35,12.31-1.69,24.69-1.87,37.06-.18,11.74.2,23.8-1.36,35.46-.72,5.34-2.43,10.77-6.1,14.44l.22,0,8.23-.85a1.58,1.58,0,0,0,1.1-.41,1.52,1.52,0,0,0,.26-.91C301.68,389.12,299.34,356.1,300.77,323.31Z" transform="translate(-46.2 -67.8)" fill="#260799"/><path d="M276.32,280.32c2.06-8.21,4-20.9,13.72-23.2,4.66-1.1,9.85-.17,14.61-.5,5.5-.38,10.92-1,15.93-3.25-5.89,1.62-12.14,1.21-18.24.76-7.19-.52-14.37-1.93-21.56-2.45-5.37,5.39-7.12,13.31-8.63,20.77-1.38,6.76-2.75,13.59-2.7,20.5,0,6.2,1.24,12.33,2.3,18.44.13.71.24,1.43.36,2.14A158.52,158.52,0,0,1,276.32,280.32Z" transform="translate(-46.2 -67.8)" fill="#260799"/><path d="M340.4,394.16q-4.68-36.51-7.76-73.2c.09,4.24.1,8.48-.12,12.73-.6,11.68-1.34,23.3-.44,35s2.83,23.51,3.63,35.32c.45,6.65,1,13.62-2.42,19.12a25,25,0,0,0,7.15-1.59,1.5,1.5,0,0,0,.91-1.15C342.69,411.72,341.51,402.86,340.4,394.16Z" transform="translate(-46.2 -67.8)" fill="#260799"/><g opacity="0.75"><path d="M274.26,267.76a20.9,20.9,0,0,0,6.56-12.51c.06-.49-.67-.69-.74-.21a20.2,20.2,0,0,1-6.36,12.17c-.37.34.18.88.54.55Z" transform="translate(-46.2 -67.8)" fill="#fff"/><path d="M320.21,256.56A18.79,18.79,0,0,0,328,269.12c.41.28.79-.38.39-.66A18,18,0,0,1,321,256.35c-.08-.48-.81-.28-.74.21Z" transform="translate(-46.2 -67.8)" fill="#fff"/><path d="M281.14,254.45l-.19,1.87a.38.38,0,0,0,.39.38.39.39,0,0,0,.38-.38l.19-1.87a.39.39,0,1,0-.77,0Z" transform="translate(-46.2 -67.8)" fill="#fff"/><path d="M284.09,254.53a9.36,9.36,0,0,0-.77,3.29.39.39,0,0,0,.38.39.4.4,0,0,0,.39-.39,8.06,8.06,0,0,1,.66-2.9.4.4,0,0,0-.14-.53.39.39,0,0,0-.52.14Z" transform="translate(-46.2 -67.8)" fill="#fff"/><path d="M286.78,255.1c-.15,1.06-.31,2.12-.47,3.18a.39.39,0,0,0,.27.47.38.38,0,0,0,.47-.26l.47-3.19a.4.4,0,0,0-.27-.47.38.38,0,0,0-.47.27Z" transform="translate(-46.2 -67.8)" fill="#fff"/><path d="M289,255.66a10.44,10.44,0,0,0-.11,2.16.4.4,0,0,0,.39.38.38.38,0,0,0,.38-.38,8.51,8.51,0,0,1,0-1,4.19,4.19,0,0,1,0-.5l0-.24s0-.12,0-.05l0-.16a.38.38,0,1,0-.74-.2Z" transform="translate(-46.2 -67.8)" fill="#fff"/><path d="M291,255.76l.09,2.44a.39.39,0,0,0,.77,0l-.09-2.44a.4.4,0,0,0-.39-.38.39.39,0,0,0-.38.38Z" transform="translate(-46.2 -67.8)" fill="#fff"/><path d="M293.81,255.75l-.37,2.35a.38.38,0,1,0,.73.2l.38-2.34a.4.4,0,0,0-.27-.48.39.39,0,0,0-.47.27Z" transform="translate(-46.2 -67.8)" fill="#fff"/><path d="M296.05,255.67a15.82,15.82,0,0,0,0,3.37.4.4,0,0,0,.39.39.39.39,0,0,0,.38-.39,15.82,15.82,0,0,1,0-3.37.39.39,0,0,0-.38-.39.4.4,0,0,0-.39.39Z" transform="translate(-46.2 -67.8)" fill="#fff"/><path d="M298.77,256.23a23.92,23.92,0,0,0-.1,3.28c0,.49.79.49.77,0a25.62,25.62,0,0,1,.09-3.28.38.38,0,0,0-.38-.38.37.37,0,0,0-.38.38Z" transform="translate(-46.2 -67.8)" fill="#fff"/><path d="M301,256.51c0,1.16.09,2.31.14,3.47,0,.49.78.49.76,0l-.14-3.47c0-.49-.78-.49-.76,0Z" transform="translate(-46.2 -67.8)" fill="#fff"/><path d="M304.11,256.6a17.73,17.73,0,0,0,.09,2.82.39.39,0,0,0,.38.38.39.39,0,0,0,.38-.38,17.72,17.72,0,0,1-.08-2.82.39.39,0,0,0-.77,0Z" transform="translate(-46.2 -67.8)" fill="#fff"/><path d="M306.65,256.79a18.86,18.86,0,0,0,.07,2.91.39.39,0,0,0,.38.38.38.38,0,0,0,.38-.38,20.21,20.21,0,0,1-.07-2.91.38.38,0,0,0-.76,0Z" transform="translate(-46.2 -67.8)" fill="#fff"/><path d="M308.8,256.32v3a.38.38,0,0,0,.76,0v-3a.38.38,0,0,0-.76,0Z" transform="translate(-46.2 -67.8)" fill="#fff"/><path d="M311.06,256.51a26,26,0,0,0,.34,3.29.38.38,0,0,0,.47.27.39.39,0,0,0,.27-.47,26.52,26.52,0,0,1-.32-3.09.39.39,0,0,0-.38-.38.38.38,0,0,0-.38.38Z" transform="translate(-46.2 -67.8)" fill="#fff"/><path d="M313.31,257.17a16.07,16.07,0,0,0,.83,2.63.41.41,0,0,0,.48.27.38.38,0,0,0,.26-.47,16.07,16.07,0,0,1-.83-2.63.38.38,0,1,0-.74.2Z" transform="translate(-46.2 -67.8)" fill="#fff"/><path d="M315.85,256.33a27.43,27.43,0,0,1,.73,3.47.39.39,0,0,0,.47.27.4.4,0,0,0,.27-.47,29.46,29.46,0,0,0-.73-3.48.38.38,0,0,0-.74.21Z" transform="translate(-46.2 -67.8)" fill="#fff"/><path d="M318.73,256.13a8.8,8.8,0,0,0,.71,3.39.37.37,0,0,0,.52.13.39.39,0,0,0,.14-.52,7.73,7.73,0,0,1-.6-3,.39.39,0,0,0-.77,0Z" transform="translate(-46.2 -67.8)" fill="#fff"/><path d="M321.66,255.29c.31.76.61,1.51.91,2.27a.39.39,0,0,0,.47.26.38.38,0,0,0,.27-.47l-.91-2.26a.38.38,0,0,0-.74.2Z" transform="translate(-46.2 -67.8)" fill="#fff"/><path d="M303.64,261.85a93.74,93.74,0,0,1,0,18.5.36.36,0,0,0,.19.33,2.89,2.89,0,0,0,3.23-.63,5.82,5.82,0,0,0,1.44-3.57,27.32,27.32,0,0,0,0-4.87c-.1-1.63-.23-3.27-.39-4.9-.18-1.85-.41-3.69-.67-5.54-.07-.48-.81-.28-.74.21q.78,5.5,1.08,11.08a16.56,16.56,0,0,1-.26,5.21c-.37,1.36-1.67,3.11-3.3,2.35l.19.33a94.51,94.51,0,0,0,0-18.5c-.05-.48-.82-.49-.77,0Z" transform="translate(-46.2 -67.8)" fill="#fff"/><path d="M303.79,279.15c-.13,5-.47,10.07-1,15.09-.16,1.43-.33,2.87-.53,4.31-.05.36.72.36.77,0q1-7.51,1.39-15.07c.07-1.44.13-2.89.16-4.33,0-.37-.75-.37-.76,0Z" transform="translate(-46.2 -67.8)" fill="#fff"/><path d="M273.6,267.41c-.74,5.21-1.51,10.42-2.21,15.64a65.25,65.25,0,0,0-.51,15.42c.52,5.11,1.42,10.2,2.15,15.29q1.14,8,2.18,15.92,2,15.66,3.59,31.37t2.43,31.46c.28,5.06.28,10.19.95,15.22a32,32,0,0,0,1.71,7c.85,2.25,1.91,4.42,2.81,6.66a33.85,33.85,0,0,1,1.16,3.34.38.38,0,0,0,.74-.2c-1.32-4.62-3.91-8.76-5-13.44-1.18-4.89-1.13-10-1.38-15q-.79-15.68-2.27-31.32t-3.43-31.07c-1.3-10.26-2.81-20.49-4.28-30.73a64.4,64.4,0,0,1-.56-15.69c.52-5.27,1.39-10.52,2.13-15.77.19-1.3.37-2.59.55-3.89.07-.48-.67-.69-.73-.2Z" transform="translate(-46.2 -67.8)" fill="#fff"/><path d="M340.37,419.71q-3.33-29.46-6.65-58.92c-1.1-9.73-2.37-19.45-3.12-29.22s-.84-19.58-1.12-29.36q-.5-16.72-1-33.45a.36.36,0,1,0-.72,0l.87,29.83c.28,9.8.41,19.62,1,29.41s1.85,19.48,2.95,29.2l3.3,29.3q1.88,16.61,3.76,33.21c.05.48.78.49.72,0Z" transform="translate(-46.2 -67.8)" fill="#fff"/></g><path d="M321.91,179.36c-.57-1.62-1.59-3.16-1.52-4.87a9.71,9.71,0,0,1,.87-3c1.23-3.21,1.58-7-.3-9.92-1-1.45-2.41-2.55-3.23-4.08-.92-1.72-.93-3.75-1.4-5.64a11.67,11.67,0,0,0-4.95-6.91,11.16,11.16,0,0,0-2.3-1.13,8.25,8.25,0,0,0,0-7,10.44,10.44,0,0,0-6.8-5.34,14.88,14.88,0,0,0-8.77.65,14.38,14.38,0,0,0-6.57,4.64,9.69,9.69,0,0,0-1.88,7.68,7.77,7.77,0,0,0,1.59,3.23c-2.47,2.05-4.47,4.64-4.9,7.77-.27,2,.12,4.06-.38,6-.92,3.61-4.53,5.8-6.5,9-2.87,4.58-1.77,11,1.91,14.95s9.46,5.55,14.83,4.92c2-.23,3.9-.73,5.88-.88,6.2-.48,12.42,2.47,18.51,1.24a8.47,8.47,0,0,0,3.85-1.72,7.47,7.47,0,0,0,2.13-3.32A9.66,9.66,0,0,0,321.91,179.36Z" transform="translate(-46.2 -67.8)" fill="#6e2501"/><path d="M318.42,194.43c-7.25-1.36-10.43-5.36-10.43-5.36a18.59,18.59,0,0,1-.35-12.47c-4.44-.24-8.86-.25-13.31-.5a5,5,0,0,1-1.27-.22,18.4,18.4,0,0,1-.09,13.19s-3.17,4-10.42,5.36-10.41,4.52-10.38,8.29c0,3,20,2.94,28.31,2.79,8.34.15,28.29.2,28.31-2.79C328.82,199,325.66,195.78,318.42,194.43Z" transform="translate(-46.2 -67.8)" fill="#ff9670"/><path d="M294.24,179.81c1,1.59,5.23,3.11,7,3.31,2.25.25,4.57-.22,5.53-2-.2-3.13.44-3.28.87-4.57-4.44-.24-8.86-.25-13.31-.5a5,5,0,0,1-1.27-.22,16.24,16.24,0,0,1,.91,3.34C294.24,179.49,294,179.44,294.24,179.81Z" transform="translate(-46.2 -67.8)" fill="#fc7f51"/><path d="M289.1,165.93a5.56,5.56,0,0,0-1.51-1.51,2.58,2.58,0,0,0-2-.34,2.39,2.39,0,0,0-1.43,1.39,3.79,3.79,0,0,0-.18,2,3.9,3.9,0,0,0,1.94,3,2.51,2.51,0,0,0,3.23-.8,3.69,3.69,0,0,0,.25-2.37" transform="translate(-46.2 -67.8)" fill="#ff9670"/><path d="M288,166.42a1.82,1.82,0,0,0-.53-.54.91.91,0,0,0-.73-.12.88.88,0,0,0-.51.49,1.36,1.36,0,0,0-.06.72,1.39,1.39,0,0,0,.69,1.05.89.89,0,0,0,1.15-.28,1.34,1.34,0,0,0,.08-.84" transform="translate(-46.2 -67.8)" fill="#fc7f51"/><path d="M310.73,165.51a5.56,5.56,0,0,1,1.51-1.51,2.54,2.54,0,0,1,2.05-.34,2.39,2.39,0,0,1,1.43,1.39,3.79,3.79,0,0,1,.18,2,4,4,0,0,1-1.94,3,2.51,2.51,0,0,1-3.23-.8,3.69,3.69,0,0,1-.25-2.37" transform="translate(-46.2 -67.8)" fill="#ff9670"/><path d="M311.83,166a1.85,1.85,0,0,1,.54-.54.89.89,0,0,1,.73-.12.83.83,0,0,1,.5.49,1.27,1.27,0,0,1,.07.72,1.39,1.39,0,0,1-.69,1,.89.89,0,0,1-1.15-.28,1.41,1.41,0,0,1-.09-.84" transform="translate(-46.2 -67.8)" fill="#fc7f51"/><path d="M288,154.75a33.09,33.09,0,0,0,1.17,17.64,16.4,16.4,0,0,0,2.47,4.77,15.47,15.47,0,0,0,4.42,3.61,11.3,11.3,0,0,0,3.29,1.37,8.37,8.37,0,0,0,6.59-1.61,12.33,12.33,0,0,0,4.12-4.9,21,21,0,0,0,1.75-5.5,38.74,38.74,0,0,0,.7-8.26,30.68,30.68,0,0,0-.58-4.48c-.58-3.11-1.38-6.48-3.89-8.41-2.69-2.07-6.5-1.8-9.77-.9" transform="translate(-46.2 -67.8)" fill="#ff9670"/><path d="M289,168.94c-.13,1.26,1.14,2.42,2.84,2.59s3.18-.7,3.3-2-1.14-2.41-2.84-2.58S289.14,167.69,289,168.94Z" transform="translate(-46.2 -67.8)" fill="#fc7f51"/><path d="M310.63,169c.31,1.23-.79,2.55-2.44,3s-3.25-.25-3.55-1.47.79-2.55,2.45-3S310.33,167.82,310.63,169Z" transform="translate(-46.2 -67.8)" fill="#fc7f51"/><path d="M294.29,159.73c-1.86,0-4.23.24-5.14,1.35-.45.56-1,.48-.63-.12,1.27-1.85,3.1-2.14,5.81-2.38a.57.57,0,0,1,.54.62c0,.28-.28.6-.58.53Z" transform="translate(-46.2 -67.8)" fill="#6e2501"/><path d="M292.11,164a1.27,1.27,0,1,0,.92-1.74A1.41,1.41,0,0,0,292.11,164Z" transform="translate(-46.2 -67.8)" fill="#2d0e0b"/><path d="M305,159.73c1.87,0,4.24.24,5.14,1.35.45.56,1,.48.63-.12-1.26-1.85-3.1-2.14-5.8-2.38a.57.57,0,0,0-.55.62c0,.28.28.6.58.53Z" transform="translate(-46.2 -67.8)" fill="#6e2501"/><path d="M307.15,164a1.27,1.27,0,1,1-.92-1.74A1.4,1.4,0,0,1,307.15,164Z" transform="translate(-46.2 -67.8)" fill="#2d0e0b"/><path d="M300.72,168.56A3.89,3.89,0,0,0,302,168a4.81,4.81,0,0,1-1.79-4.4c0-.24.08-.64.37-.65s.13.62.13.86c0,2.16.88,2.82,2.4,3.88a.42.42,0,0,1,0,.62A4.76,4.76,0,0,1,301,169.4C300.4,169.55,300.11,168.71,300.72,168.56Z" transform="translate(-46.2 -67.8)" fill="#f46e45"/><path d="M303.76,173.16a42.15,42.15,0,0,0-6.68.65S301.45,176.85,303.76,173.16Z" transform="translate(-46.2 -67.8)" fill="#e53e3e"/><path d="M300,143.06c-4.37-.57-8.79,1.87-11.35,5.47s-3.47,8.16-3.39,12.57a.45.45,0,0,0,.06.28c.12.16.37.11.56,0,2.2-.8,4.29-1.9,6.54-2.53a16.32,16.32,0,0,1,5.9-.55.9.9,0,0,0,1.27-.85q.5-3,.93-6a11.55,11.55,0,0,1,1.84,6.69.83.83,0,0,0,.19.71.9.9,0,0,0,.46.11l2.28.09a1.35,1.35,0,0,0,1-.25,1.37,1.37,0,0,0,.27-.91c0-1,.07-2.1.11-3.15a12.93,12.93,0,0,1,2.66,4.93l4.64,1.7a.86.86,0,0,0,.39.09c.43,0,.66-.52.75-.94a14.17,14.17,0,0,0-1.34-8.91c-2-4.37-5.75-8.2-10.46-9.17" transform="translate(-46.2 -67.8)" fill="#6e2501"/><path d="M298.21,143.14a22.11,22.11,0,0,0-6.93,10.62.36.36,0,0,0,.69.19,21.43,21.43,0,0,1,6.75-10.3c.36-.3-.15-.81-.51-.51Z" transform="translate(-46.2 -67.8)" fill="#561c02"/><path d="M299.35,143.89a25.27,25.27,0,0,0-2.67,6.93c-.1.45.59.64.69.19a24.59,24.59,0,0,1,2.6-6.76.36.36,0,0,0-.62-.36Z" transform="translate(-46.2 -67.8)" fill="#561c02"/><path d="M301.81,144.46a13.21,13.21,0,0,1,3.72,6.48.36.36,0,0,0,.69-.19,13.86,13.86,0,0,0-3.9-6.79c-.33-.32-.84.18-.51.5Z" transform="translate(-46.2 -67.8)" fill="#561c02"/><path d="M304.5,144.63a12.93,12.93,0,0,1,7.15,10.72c0,.46.75.47.72,0A13.64,13.64,0,0,0,304.86,144c-.41-.2-.78.42-.36.62Z" transform="translate(-46.2 -67.8)" fill="#561c02"/><path d="M290.86,144.43a7.47,7.47,0,0,1-.06-4.58,3.18,3.18,0,0,1,2.92-2.12,8.79,8.79,0,0,0,2,.31,1.82,1.82,0,0,0,1.22-.78c.69-.9.88-2,1.8-2.77a3.82,3.82,0,0,1,3.76-.57c.43.17.62-.53.2-.7a4.48,4.48,0,0,0-3.57.19,4.36,4.36,0,0,0-1.49,1.17,8.73,8.73,0,0,0-.88,1.58c-.26.54-.61,1.17-1.28,1.18S294,137,293.28,137a3.94,3.94,0,0,0-3,2.24,7.86,7.86,0,0,0-.11,5.35c.11.45.81.26.7-.19Z" transform="translate(-46.2 -67.8)" fill="#561c02"/><path d="M302,137.9a3,3,0,0,1,2.75.2,4,4,0,0,1,1.69,2.08c.16.43.85.24.69-.19a4.79,4.79,0,0,0-2.09-2.55,3.74,3.74,0,0,0-3.4-.16c-.42.2-.06.82.36.62Z" transform="translate(-46.2 -67.8)" fill="#561c02"/><path d="M312.67,157.05a10.36,10.36,0,0,1,3.29,9.63c-.41,2.1-1.67,4-1.71,6.16a4.77,4.77,0,0,0,.78,2.72c.52.79,1.19,1.46,1.69,2.26a9.34,9.34,0,0,1,1.31,6.54c-.08.45.62.64.69.19a10,10,0,0,0-.69-5.78,11.37,11.37,0,0,0-1.61-2.56,5.42,5.42,0,0,1-1.43-2.8c-.23-2.28,1.21-4.31,1.65-6.47a11,11,0,0,0-3.46-10.4c-.35-.31-.86.2-.51.51Z" transform="translate(-46.2 -67.8)" fill="#561c02"/><path d="M286.41,155.53a11.71,11.71,0,0,0-2.89,4.29,17.55,17.55,0,0,0-.88,5.67,16.14,16.14,0,0,1-.33,3,11.37,11.37,0,0,1-1.07,2.75,18.51,18.51,0,0,0-2.13,5.17,11.7,11.7,0,0,0,.61,6.39c.16.43.86.25.69-.19a11.11,11.11,0,0,1-.68-5.59,15.79,15.79,0,0,1,2-5.15,14.75,14.75,0,0,0,1.07-2.4,12.45,12.45,0,0,0,.51-2.84,27.73,27.73,0,0,1,.59-5.68,10.86,10.86,0,0,1,3-4.93c.34-.32-.17-.83-.51-.51Z" transform="translate(-46.2 -67.8)" fill="#561c02"/><path d="M287.47,181.78c-1.52-2.09-1.28-4.75-.47-7.07.15-.43-.54-.62-.69-.19-.87,2.48-1.08,5.39.54,7.62.27.37.89,0,.62-.36Z" transform="translate(-46.2 -67.8)" fill="#561c02"/><path d="M273.32,199.09S297.61,206,322,195.36c0,0,4.51.24,6.76,3.79S340,219.1,340,219.1l-14.45,9.15s-1.14,10.13-2.11,16c0,0-31.57,4.09-43.15,0,0,0-2.2-13.48-2.4-16.31l-13.94-4.77S269.8,202.67,273.32,199.09Z" transform="translate(-46.2 -67.8)" fill="#fe6705"/><path d="M331.32,203.46c1.09,6.85-2.57,11.85-5.4,18.21-3.2,7.22-4.28,13.36-12.23,16.73A64,64,0,0,1,289.81,243c-4.75,0-8.09-1.57-10.44-4.49.49,3.14.91,5.72.91,5.72,11.58,4.09,43.15,0,43.15,0,1-5.89,2.11-16,2.11-16L340,219.1S334.79,209.56,331.32,203.46Z" transform="translate(-46.2 -67.8)" fill="#e55607"/><path d="M274.46,206.37c3.57-3.32,8.4-4.17,13.08-4.42,3.86-.21,7.66-.48,11.45-.92a79.12,79.12,0,0,1-25.67-1.94c-2.71,2.75-6.78,15.47-8.53,21.24C267.61,215.48,270.51,210.06,274.46,206.37Z" transform="translate(-46.2 -67.8)" fill="#e55607"/><path d="M318.36,196.63c0-1.59-1.29-2.93-2.76-3.73s-2.36-1.15-3.81-2-3.49-3-3.36-4.55A8.78,8.78,0,0,1,309,184c.59-1.25.81-2,1.4-3.21.28-.59,1.91-2.16,2-2.79.24-1.45-.65-1.66-1.33-3s-2.22-2.42-3-3.86a1,1,0,0,1-.16-.75c.21-.59,1.14-.42,1.72-.12a41.25,41.25,0,0,1,5.77,3.69,18.11,18.11,0,0,1,5.08,5.47,44.57,44.57,0,0,1,1.95,4.82c1.17,2.87,1.82,6.2,3.39,8.89,2.86,4.9,6,13.06,8.18,18.25,1.21,2.89,2.23,4.41,2.88,7.46.47,2.23,1.64,5.91,1.79,8.18.25,3.57.37,4.52-.42,7.53-.53,2-1.5,3.24-3.71,3.4-1.67.13-4.44-2.53-5.43-3.77-4.12-5.17-5.45-9.21-7-15.5a176.94,176.94,0,0,1-3.77-22.05" transform="translate(-46.2 -67.8)" fill="#ff9670"/><path d="M310.06,171.9c1.36,2.6,4.82,3.52,7.13,5.12a24.75,24.75,0,0,1,3.68,3.07c-.11-.22-.21-.45-.33-.67a18.11,18.11,0,0,0-5.08-5.47,41.25,41.25,0,0,0-5.77-3.69,2,2,0,0,0-1.31-.23A4.69,4.69,0,0,1,310.06,171.9Z" transform="translate(-46.2 -67.8)" fill="#fc7f51"/><path d="M332.91,231.26c-4.67-2.48-6.57-7.78-8.18-12.45-2-5.71-3.33-11.78-5.78-17.33a168.17,168.17,0,0,0,3.18,17.2c1.59,6.29,2.92,10.33,7,15.5,1,1.24,3.76,3.9,5.43,3.77,2.21-.16,3.18-1.39,3.71-3.4a16.36,16.36,0,0,0,.55-2.84A6.85,6.85,0,0,1,332.91,231.26Z" transform="translate(-46.2 -67.8)" fill="#fc7f51"/></g></svg>