<svg id="Layer_1" data-name="Layer 1" xmlns="http://www.w3.org/2000/svg" viewBox="0 0 1165.54 758"><path d="M366.4,393c3.26-13.6,7.5-30.43,21.41-44.89,21.64-22.49,43.3-14.94,52.95-31.28,11.6-19.65-13.67-40.91-28.35-97.76-8.75-33.9-18.71-72.48.85-100.13,17.25-24.38,49.82-32.69,79.32-30.75a157.64,157.64,0,0,1,65.11,19c44.71,24.5,41.67,45,73.71,56.14,41.38,14.32,61.1-16.54,94.63.11,29.73,14.76,40.76,54.24,46.21,74.67,12,45.08-5.09,56.15,8.81,86,13.4,28.79,33.82,28.27,73.1,65.45,0,0,30.44,28.83,53.77,67.21C918.4,474,970.43,559.62,937.6,651.63,909.81,729.48,830,787.55,758.66,782.72,717.93,780,687.77,760,687.77,760c-28.43-18.84-29.14-35.71-53.58-53.5-31.2-22.72-56.32-14.34-99.4-22.3-15.42-2.85-84.42-17.27-130.6-68.23C404.19,616,332.07,536.38,366.4,393Z" transform="translate(-5.46 -25)" fill="#221735"/><path d="M495.57,206.79a1.29,1.29,0,0,0-.37-.58,1.36,1.36,0,0,0-.57-.38,1.34,1.34,0,0,0-.69-.15l-.48.06a1.83,1.83,0,0,0-.79.47l-.28.37a1.82,1.82,0,0,0-.24.91v1.1a1.38,1.38,0,0,0,.15.7,1.52,1.52,0,0,0,.37.59,1.34,1.34,0,0,0,.58.37,1.26,1.26,0,0,0,.69.16l.47-.06a1.82,1.82,0,0,0,.79-.47c.1-.12.19-.25.28-.37a1.74,1.74,0,0,0,.25-.92v-1.1A1.31,1.31,0,0,0,495.57,206.79Z" transform="translate(-5.46 -25)" fill="#fef3ed"/><path d="M537.69,241.23c-2.31,0-2.31,3.63,0,3.63S540,241.23,537.69,241.23Z" transform="translate(-5.46 -25)" fill="#fef3ed"/><path d="M483.73,331.31c-2.3,0-2.3,3.63,0,3.63S486,331.31,483.73,331.31Z" transform="translate(-5.46 -25)" fill="#fef3ed"/><path d="M627.56,423.58c-2.3,0-2.31,3.63,0,3.63S629.87,423.58,627.56,423.58Z" transform="translate(-5.46 -25)" fill="#fef3ed"/><path d="M406.35,483.39c-2.3,0-2.3,3.63,0,3.63S408.66,483.39,406.35,483.39Z" transform="translate(-5.46 -25)" fill="#fef3ed"/><path d="M610.74,613.25c-2.3,0-2.31,3.63,0,3.63S613,613.25,610.74,613.25Z" transform="translate(-5.46 -25)" fill="#fef3ed"/><path d="M483.73,622.65c-2.3,0-2.3,3.63,0,3.63S486,622.65,483.73,622.65Z" transform="translate(-5.46 -25)" fill="#fef3ed"/><path d="M715,245c-2.3,0-2.3,3.63,0,3.63S717.34,245,715,245Z" transform="translate(-5.46 -25)" fill="#fef3ed"/><path d="M852.08,469.12a1.29,1.29,0,0,0-.37-.58,1.36,1.36,0,0,0-.57-.38,1.34,1.34,0,0,0-.69-.15l-.48.06a1.75,1.75,0,0,0-.78.47c-.1.12-.19.24-.28.37a1.73,1.73,0,0,0-.25.91v.86a1.31,1.31,0,0,0,.16.7,1.67,1.67,0,0,0,.94,1,1.35,1.35,0,0,0,.69.16l.48-.07a1.75,1.75,0,0,0,.78-.47l.28-.36a1.77,1.77,0,0,0,.25-.92v-.86A1.31,1.31,0,0,0,852.08,469.12Z" transform="translate(-5.46 -25)" fill="#fef3ed"/><path d="M772.18,393.94a1.67,1.67,0,0,0-.94-1,1.4,1.4,0,0,0-.69-.16l-.48.07a1.78,1.78,0,0,0-.79.47l-.28.36a1.86,1.86,0,0,0-.24.92v.86a1.41,1.41,0,0,0,.15.7,1.38,1.38,0,0,0,.37.58,1.4,1.4,0,0,0,.58.38,1.34,1.34,0,0,0,.69.15l.47-.06a1.78,1.78,0,0,0,.79-.47l.28-.37a1.82,1.82,0,0,0,.24-.91v-.86A1.41,1.41,0,0,0,772.18,393.94Z" transform="translate(-5.46 -25)" fill="#fef3ed"/><path d="M900,587a1.52,1.52,0,0,0-.37-.59,1.29,1.29,0,0,0-.58-.37,1.26,1.26,0,0,0-.69-.16l-.47.06a1.82,1.82,0,0,0-.79.47c-.1.12-.19.25-.28.37a1.84,1.84,0,0,0-.25.92v.85a1.41,1.41,0,0,0,.16.7,1.67,1.67,0,0,0,.94,1,1.4,1.4,0,0,0,.69.16l.48-.07a1.74,1.74,0,0,0,.79-.47l.28-.36a1.86,1.86,0,0,0,.24-.92v-.85A1.38,1.38,0,0,0,900,587Z" transform="translate(-5.46 -25)" fill="#fef3ed"/><path d="M865,532.36a3.14,3.14,0,0,0-.81-1.29,4.45,4.45,0,0,0-2.79-1.17l-1,.15a3.94,3.94,0,0,0-1.74,1l-.61.81a4,4,0,0,0-.54,2v.53a3,3,0,0,0,.34,1.54,3.08,3.08,0,0,0,.81,1.29,4.45,4.45,0,0,0,2.78,1.17l1-.15a3.94,3.94,0,0,0,1.74-1l.61-.81a4,4,0,0,0,.54-2v-.53A3,3,0,0,0,865,532.36Z" transform="translate(-5.46 -25)" fill="#fef3ed"/><path d="M684.75,670c-5.06,0-5.07,8,0,8S689.83,670,684.75,670Z" transform="translate(-5.46 -25)" fill="#fef3ed"/><path d="M440,563.22c-5.07,0-5.08,8,0,8S445.07,563.22,440,563.22Z" transform="translate(-5.46 -25)" fill="#fef3ed"/><path d="M633.45,471.81c-5.07,0-5.08,8,0,8S638.52,471.81,633.45,471.81Z" transform="translate(-5.46 -25)" fill="#fef3ed"/><path d="M545.13,311.19c-5.06,0-5.07,8,0,8S550.2,311.19,545.13,311.19Z" transform="translate(-5.46 -25)" fill="#fef3ed"/><path d="M741.11,318c-5.07,0-5.07,8,0,8S746.18,318,741.11,318Z" transform="translate(-5.46 -25)" fill="#fef3ed"/><path d="M475.75,250.9a4,4,0,0,0-1-1.76l-.84-.86a4,4,0,0,0-5.57,0l-.61.81a4,4,0,0,0-.54,2c.05.35.09.71.14,1.06a4.12,4.12,0,0,0,1,1.77l.84.85A4.31,4.31,0,0,0,472,256a2.92,2.92,0,0,0,1.51-.34,3,3,0,0,0,1.27-.83l.61-.81a3.94,3.94,0,0,0,.54-2Z" transform="translate(-5.46 -25)" fill="#fef3ed"/><path d="M499.94,138.5a2.86,2.86,0,0,0-.81-1.28,3,3,0,0,0-1.27-.83,2.89,2.89,0,0,0-1.51-.34l-1.05.14a3.89,3.89,0,0,0-1.73,1L493,138a4,4,0,0,0-.54,2v.86a3.13,3.13,0,0,0,.34,1.54,3,3,0,0,0,.82,1.28,4.25,4.25,0,0,0,2.78,1.17l1-.14a3.87,3.87,0,0,0,1.74-1c.21-.27.41-.54.62-.8a4.09,4.09,0,0,0,.53-2V140A3,3,0,0,0,499.94,138.5Z" transform="translate(-5.46 -25)" fill="#fef3ed"/><path d="M683.91,200.12c-5.06,0-5.07,8,0,8S689,200.12,683.91,200.12Z" transform="translate(-5.46 -25)" fill="#fef3ed"/><path d="M737.36,659.64c1.78,7,6,13.66,12.5,16.57a16.07,16.07,0,0,1-3.27-9.27A41.28,41.28,0,0,0,769,687.61a11.28,11.28,0,0,1-2.41-7q9.72,13.39,20.64,25.83l-6.26-21a23,23,0,0,1,7.86,3.45,31,31,0,0,0-6.5-18.64,10,10,0,0,0,6.53,1.64,63.77,63.77,0,0,0-22.31-38,27.55,27.55,0,0,0-9.17-5.31c-6-1.82-12.71.19-17.26,4.42S736,640.73,736,646.38A52.76,52.76,0,0,0,737.36,659.64Z" transform="translate(-5.46 -25)" fill="#f0664d"/><path d="M816.39,614.29c1.58,6.19,5.34,12.13,11.1,14.7a14.24,14.24,0,0,1-2.9-8.22,36.62,36.62,0,0,0,19.89,18.35,10,10,0,0,1-2.15-6.19q8.64,11.88,18.33,22.93l-5.55-18.66a20.55,20.55,0,0,1,7,3.06,27.48,27.48,0,0,0-5.78-16.55,8.83,8.83,0,0,0,5.8,1.45,56.72,56.72,0,0,0-19.8-33.73,24.46,24.46,0,0,0-8.15-4.71c-5.32-1.62-11.29.17-15.33,3.92s-3.66,6.85-3.67,11.87A47.55,47.55,0,0,0,816.39,614.29Z" transform="translate(-5.46 -25)" fill="#f0664d"/><path d="M777.21,666.18a13.18,13.18,0,0,1,3.81-14,56.48,56.48,0,0,0,23,45.59,20,20,0,0,1-.11-13.76,63,63,0,0,0,26.72,26.17,10.09,10.09,0,0,1-1.67-6.52,83.79,83.79,0,0,0,20.16,15.85,41.21,41.21,0,0,0-.06-22.41,17.64,17.64,0,0,1,9.52,4.94,41.52,41.52,0,0,0-15.34-32.82,35.43,35.43,0,0,1,13,3.56A43.31,43.31,0,0,0,834.67,642l9.66-1.69a61.47,61.47,0,0,0-34.15-33.77c-2.63-1-5.47-1.87-8.25-1.4a17.65,17.65,0,0,0-6.09,2.73q-6.55,4.06-12.81,8.6c-3.15,2.28-8.41,4.76-9.4,8.73a64.36,64.36,0,0,0-.8,26.65A63.23,63.23,0,0,0,777.21,666.18Z" transform="translate(-5.46 -25)" fill="#f5d778"/><polygon points="619.35 194.29 697.25 343.91 629.69 380.2 551.79 230.59 619.35 194.29" fill="#cbc3e0"/><polygon points="697.25 343.91 629.69 380.2 649.97 391.17 694.76 367.11 697.25 343.91" fill="#fef3ed"/><path d="M562.46,182.08h0c-6.38,3.37-10.44,11.71-9.61,22.09l4.08,51.27,67.81-35.79-39-32.86C577.89,180.14,568.84,178.71,562.46,182.08Z" transform="translate(-5.46 -25)" fill="#fef3ed"/><polygon points="782.62 536.48 738.09 560.4 649.97 391.17 694.51 367.25 782.62 536.48" fill="#702c8b"/><path d="M667.82,474.45,666,487.21a5.62,5.62,0,0,0,.36,2.87l65.27,158.2,47-25.23L684.26,480.47a5.44,5.44,0,0,0-2.17-1.89L670.55,473A2,2,0,0,0,667.82,474.45Z" transform="translate(-5.46 -25)" fill="#cbc3e0"/><path d="M735.38,438.16l-1.8,12.76a5.51,5.51,0,0,0,.36,2.87L799.21,612l47-25.23L751.82,444.18a5.43,5.43,0,0,0-2.17-1.89l-11.54-5.6A2,2,0,0,0,735.38,438.16Z" transform="translate(-5.46 -25)" fill="#cbc3e0"/><path d="M779,635.84c.67,4.63,3.52,8.74,8.79,9.92a7.21,7.21,0,0,1-1.67-6c2.73,6,8.91,10.21,16.89,11.49a5.09,5.09,0,0,1-1.23-4.54A163.27,163.27,0,0,0,816.45,662l-2.8-13.83a17.42,17.42,0,0,1,6.4,1.39,14,14,0,0,0-3.32-12.14,9.07,9.07,0,0,0,5.47.29,28.06,28.06,0,0,0-14.63-23.57,18.37,18.37,0,0,0-7.32-2.51c-5-.48-11.07,1.78-15.56,5.31s-4.56,5.91-5.27,9.85A28.47,28.47,0,0,0,779,635.84Z" transform="translate(-5.46 -25)" fill="#fd9e8a"/><path d="M701.6,456.3l-1.8,12.77a5.63,5.63,0,0,0,.36,2.87l65.27,158.2,47-25.24L718,462.33a5.53,5.53,0,0,0-2.17-1.9l-11.54-5.59A2,2,0,0,0,701.6,456.3Z" transform="translate(-5.46 -25)" fill="#fef3ed"/><polygon points="633.5 221.47 643.85 241.35 576.29 277.64 565.94 257.76 633.5 221.47" fill="#482060"/><polygon points="647.28 247.93 652.46 257.88 584.9 294.17 579.72 284.22 647.28 247.93" fill="#482060"/><path d="M616.85,319.62a6.54,6.54,0,0,1-2.66,8.76,6.33,6.33,0,0,1-8.63-2.7,6.53,6.53,0,0,1,2.66-8.76A6.35,6.35,0,0,1,616.85,319.62Z" transform="translate(-5.46 -25)" fill="#702c8b"/><path d="M634.87,309.94a6.53,6.53,0,0,1-2.66,8.76,6.34,6.34,0,0,1-8.62-2.7,6.52,6.52,0,0,1,2.66-8.76A6.32,6.32,0,0,1,634.87,309.94Z" transform="translate(-5.46 -25)" fill="#702c8b"/><path d="M652.9,300.25a6.54,6.54,0,0,1-2.66,8.77,6.35,6.35,0,0,1-8.63-2.7,6.56,6.56,0,0,1,2.66-8.77A6.35,6.35,0,0,1,652.9,300.25Z" transform="translate(-5.46 -25)" fill="#702c8b"/><polygon points="756.2 595.99 802.33 572.92 804.76 576.6 757.79 599.86 756.2 595.99" fill="#482060"/><polygon points="752.48 586.99 796.49 564.1 798.29 566.82 753.59 589.67 752.48 586.99" fill="#482060"/><polygon points="799.9 569.24 834.11 551.76 835.69 554.15 801.37 571.47 799.9 569.24" fill="#482060"/><polygon points="720.22 608.81 754.71 592.38 755.53 594.39 721.29 611.4 720.22 608.81" fill="#482060"/><path d="M542.2,425.39l12.43,1.48a4.3,4.3,0,0,1,3.3,2.27l25.67,48.11-8.07,12.86Z" transform="translate(-5.46 -25)" fill="#cbc3e0"/><path d="M538.18,390c1.18,1.59,2.84,3.82,3,6.61.16,4-2.93,6.93-4.3,8.23-3.51,3.34-9.51,5.91-13.86,3.77-.73-.36-.46-.39-2.83-2.4-4.93-4.21-9.66-8.17-14.11-7.73a2.69,2.69,0,0,1-1.16,0c-2.46-.75-3.7-6.16-3-9.94,1.26-6.38,8.68-10.66,14.92-11.35a17.83,17.83,0,0,1,17.59,9.09A17.68,17.68,0,0,1,538.18,390Z" transform="translate(-5.46 -25)" fill="#702c8b"/><path d="M502.12,452.61S473.58,421,470,417.62s-19-30.55-19-30.55l5.66-6.79,61.15,52Z" transform="translate(-5.46 -25)" fill="#fef3ed"/><path d="M638.58,578.18l-5.29,9s-3.53-1-8.86-2.8c-3.63-1.21-8.09-2.77-12.84-4.59-7.75-3-19.83-10.45-28.68-16.43h0l-2-1.33c-3.63-2.5-6.53-4.63-8.07-5.88a32,32,0,0,1-3.72-4.1c-.7-.87-1.46-1.84-2.28-2.89-7-9-17.57-24.12-23.44-32.59-2.62-3.78-4.31-6.24-4.31-6.24l34.81-8.65,2.52,5.91,14.85,34.92h0l.74,1.74s2.13.72,7.81,2.54c4.18,1.35,23.06,17.6,32.82,26.16C636.23,576.08,638.58,578.18,638.58,578.18Z" transform="translate(-5.46 -25)" fill="#fef3ed"/><path d="M501.4,430.06a32.43,32.43,0,0,1-14.09-23l1.42-.19a30.92,30.92,0,0,0,13.46,22Z" transform="translate(-5.46 -25)" fill="#221735"/><path d="M518.93,435.42a32.05,32.05,0,0,1-17.53-5.36l.79-1.22a31.7,31.7,0,0,0,3,1.79,29.86,29.86,0,0,0,23.26,1.77A30.4,30.4,0,0,0,546.16,417a31.21,31.21,0,0,0,1.75-23.63,30.61,30.61,0,0,0-15.21-18A30.29,30.29,0,0,0,491.76,389a31.23,31.23,0,0,0-3,17.83l-1.42.19a32.57,32.57,0,0,1,3.18-18.67,31.7,31.7,0,0,1,42.86-14.31,32.06,32.06,0,0,1,15.92,18.8,32.66,32.66,0,0,1-1.83,24.73,31.84,31.84,0,0,1-18.52,16.17A31.31,31.31,0,0,1,518.93,435.42Z" transform="translate(-5.46 -25)" fill="#fef3ed"/><polygon points="521.87 380.05 521.87 403.91 502.75 403.91 507.14 380.05 521.87 380.05" fill="#fd9e8a"/><path d="M527.32,416.54V405.05H512.59l-1,5.59C515.62,415.09,521.42,416.54,527.32,416.54Z" transform="translate(-5.46 -25)" fill="#221735"/><path d="M576.46,507.61a19.78,19.78,0,0,1-3.38,3.59,27.37,27.37,0,0,1-7.11,4.15h0a25.78,25.78,0,0,1-7.28,1.85,114.55,114.55,0,0,1-13.93-.52l-1.3-.1c-14.48-1.16-33.07-3.34-33.07-3.34l9.45,25.93,3.69,10.13-9.59,4.34-6.45-7.21c-5.78-6.46-13.88-15.53-17.35-19.49-5.26-6-11.14-21-7.73-29.5a9.7,9.7,0,0,1,1-1.89c1.61-2.41,6.16-4,11.7-5.1l2-.35c12.47-2.08,28.6-1.76,28.6-1.76s-24.5-30-26.28-37.15a12.23,12.23,0,0,1-.24-1.31.28.28,0,0,0,0-.06c0-.2-.06-.41-.08-.63s-.06-.76-.08-1.16V448c-.32-7.49,2.76-18.21,2.85-18.54h0l6.45-.77,4.64-.56,14.43-1.75,14.43-1.74h0c.1.17,1.55,2.67,3.81,6.64,3.7,6.46,9.57,16.82,15.37,27.45,7.52,13.77,14.91,28,17.27,34.68C580.24,499.19,579.11,503.93,576.46,507.61Z" transform="translate(-5.46 -25)" fill="#fef3ed"/><path d="M532.83,428.83s-14.83,4.87-5.51,16.5,39.87,14.16,39.87,14.16,4.26,10.82,7.11,15.15,14.91,14.49,14.91,14.49l6.75-2.22s-14.25-36.8-16.71-39.69S545.7,428.46,532.83,428.83Z" transform="translate(-5.46 -25)" fill="#fef3ed"/><path d="M560.11,459c-9.53-1.48-26.48-5.19-33.06-13.4-2.75-3.42-3.71-6.62-2.87-9.51,1.51-5.2,8.25-7.48,8.54-7.57l.1,0a35.21,35.21,0,0,1,9.77,1.55l-.18.7a34.81,34.81,0,0,0-9.52-1.52c-.6.21-6.68,2.45-8,7.07-.77,2.65.15,5.62,2.73,8.85,6.43,8,23.19,11.67,32.61,13.13Z" transform="translate(-5.46 -25)" fill="#221735"/><path d="M525.76,488.69l-.24-.68c.85-.32,21.11-7.87,31.74-6.94l-.06.72C546.73,480.89,526,488.61,525.76,488.69Z" transform="translate(-5.46 -25)" fill="#221735"/><path d="M506.1,547.25l13,16s5.07,11.24,9.24,15.34,10.26,5.15,10.79,3.57-4.81-30-6.63-30.67-6,2.17-6,2.17l-5.59-15.12Z" transform="translate(-5.46 -25)" fill="#f0664d"/><path d="M623.62,585.54l18.24,9.33s9.09,8.22,14.52,10.27,11.44.53,11.29-1.13-16.26-25.52-18.19-25.38-4.63,4.43-4.63,4.43l-11.1-11.57Z" transform="translate(-5.46 -25)" fill="#f0664d"/><path d="M454.53,393.27a31.8,31.8,0,0,0-6.16-7.21c-5.3-4.55-9.81-4.26-9.81-7.58,0-1.26,4.83-10.38,6.35-10.52s7.74,1.69,8.43,2.81c1.22,2-.59,3.69.69,6.17.83,1.62,2,1.87,4.19,3.54a24.61,24.61,0,0,1,5.37,5.72Z" transform="translate(-5.46 -25)" fill="#f0664d"/><path d="M438,375s-1.15,1.65-.77,2.2,4.42,4.27,5.19,4.26,1.32-.08,1.32-.79S440.19,375,438,375Z" transform="translate(-5.46 -25)" fill="#f0664d"/><path d="M438.32,374.28c-.55-.95.86-1.81,1.24-2.12s6.2,4.71,6.27,5.58-1.16,2.2-1.7,2.12S439.1,375.62,438.32,374.28Z" transform="translate(-5.46 -25)" fill="#f0664d"/><path d="M440.6,371.64c-.55-.95.85-1.81,1.24-2.12s6.19,4.71,6.27,5.58-1.16,2.2-1.7,2.12S441.38,373,440.6,371.64Z" transform="translate(-5.46 -25)" fill="#f0664d"/><path d="M442.14,369.59c-.55-.95.85-1.81,1.24-2.12s6.19,4.72,6.27,5.58-1.16,2.2-1.7,2.12S442.92,370.93,442.14,369.59Z" transform="translate(-5.46 -25)" fill="#f0664d"/><path d="M449.7,369s-4,.52-4.79,1.39-2.16,3.22-.77,3.93,3.87,0,4.1-.63,1.46-1.26,1.46-1.26-2.08,4-1.38,5.59a10.26,10.26,0,0,0,2.64,3.08Z" transform="translate(-5.46 -25)" fill="#f0664d"/><path d="M442.45,381.85c-1.06,0-5.21-4-5.48-4.41-.48-.69.38-2.06.77-2.62l.11-.16H438c2.37,0,6.09,5.16,6.09,6,0,1.13-1,1.15-1.66,1.16Zm-4.24-6.45a3.06,3.06,0,0,0-.66,1.62c.43.6,4.25,4,4.9,4.11.92,0,1-.15,1-.44C443.33,380.11,440.15,375.68,438.21,375.4Z" transform="translate(-5.46 -25)" fill="#221735"/><path d="M444.18,380.23h-.1c-.72-.1-5.32-4.46-6.06-5.76h0c-.65-1.11.61-2.06,1.15-2.46l.17-.13a.57.57,0,0,1,.58,0c1,.43,6.17,4.79,6.27,5.86a2.78,2.78,0,0,1-1,2A1.7,1.7,0,0,1,444.18,380.23Zm-5.55-6.13a30.94,30.94,0,0,0,5.58,5.41,1.74,1.74,0,0,0,.64-.49,2,2,0,0,0,.63-1.25c-.18-.67-4.8-4.82-5.81-5.24l-.08.06c-.66.49-1.24,1-1,1.51Z" transform="translate(-5.46 -25)" fill="#221735"/><path d="M446.46,377.59h-.1c-.73-.1-5.32-4.46-6.07-5.76h0c-.65-1.12.62-2.06,1.16-2.46l.17-.13a.55.55,0,0,1,.57,0c1,.43,6.18,4.79,6.28,5.86a2.78,2.78,0,0,1-1,1.95A1.72,1.72,0,0,1,446.46,377.59Zm-5.55-6.14a31,31,0,0,0,5.57,5.42,1.88,1.88,0,0,0,.65-.49,2,2,0,0,0,.62-1.25c-.17-.67-4.79-4.82-5.8-5.24l-.08.06c-.67.49-1.24,1-1,1.5Z" transform="translate(-5.46 -25)" fill="#221735"/><path d="M448,375.54h-.1c-.73-.1-5.32-4.46-6.07-5.76-.64-1.11.62-2,1.16-2.46l.17-.13a.6.6,0,0,1,.58,0c1,.43,6.17,4.79,6.27,5.86a2.82,2.82,0,0,1-1,2A1.76,1.76,0,0,1,448,375.54Zm-4.51-7.7-.08.06c-.66.5-1.24,1-1,1.51h0a30.94,30.94,0,0,0,5.58,5.41,1.61,1.61,0,0,0,.64-.49,2,2,0,0,0,.63-1.25C449.12,372.41,444.5,368.26,443.49,367.84Z" transform="translate(-5.46 -25)" fill="#221735"/><path d="M450.75,381.36a10.32,10.32,0,0,1-2.76-3.21c-.51-1.16.23-3.3.82-4.67a.88.88,0,0,0-.23.32,1.63,1.63,0,0,1-1,.79,4.87,4.87,0,0,1-3.6,0,1.39,1.39,0,0,1-.76-1c-.21-1.14.76-2.74,1.43-3.49.82-.91,4.32-1.41,5-1.5l.09.72c-1.5.2-4.07.72-4.57,1.27a4.6,4.6,0,0,0-1.26,2.86.65.65,0,0,0,.38.51,4.14,4.14,0,0,0,2.88,0,1.58,1.58,0,0,0,.73-.42c.27-.74,1.49-1.38,1.63-1.45l1-.51-.52,1c-.56,1.07-1.89,4.11-1.37,5.27a9.9,9.9,0,0,0,2.53,2.94Z" transform="translate(-5.46 -25)" fill="#221735"/><path d="M449.7,369s-4,.52-4.79,1.39-2.16,3.22-.77,3.93,3.87,0,4.1-.63,1.46-1.26,1.46-1.26-2.08,4-1.38,5.59a10.26,10.26,0,0,0,2.64,3.08Z" transform="translate(-5.46 -25)" fill="#f0664d"/><path d="M598.63,496.21s-.24,8.37-.61,9.53-.84,2.28.26,2.76,3.64-4.19,3.64-4.19.6-4.83-.68-5.83S598.63,496.21,598.63,496.21Z" transform="translate(-5.46 -25)" fill="#f0664d"/><path d="M582.92,484.06l6.61,9.48s-.54,6.43.61,8,4.11,4.38,4.63,3.43-.67-5.72.07-6.82,3.21-.68,4.48.72,1.62,9.17,1,12.8,2.64,1.35,2.85.23,3.37-7.17,2.05-10.94S596,485.86,596,485.86l-2.22-8.61Z" transform="translate(-5.46 -25)" fill="#f0664d"/><ellipse cx="513.54" cy="371.92" rx="14.21" ry="14.43" fill="#fd9e8a"/><path d="M511.44,394.21a.84.84,0,0,1-1,.73.87.87,0,0,1-.72-1,.85.85,0,1,1,1.68.25Z" transform="translate(-5.46 -25)" fill="#221735"/><path d="M519,395.3a.85.85,0,1,1-.72-1A.85.85,0,0,1,519,395.3Z" transform="translate(-5.46 -25)" fill="#221735"/><path d="M535.52,401.3a3.9,3.9,0,0,1-4.4,3.36,3.94,3.94,0,0,1-3.3-4.48,3.89,3.89,0,1,1,7.7,1.12Z" transform="translate(-5.46 -25)" fill="#fd9e8a"/><path d="M533.66,399.76a3.48,3.48,0,0,0-3.33,1,.36.36,0,0,0,.23.58,1.88,1.88,0,0,1,1.34.64.35.35,0,0,0,.5.07.37.37,0,0,0,.08-.5,2.71,2.71,0,0,0-1.06-.75,2.81,2.81,0,0,1,2.14-.3.36.36,0,0,0,.4-.31A.37.37,0,0,0,533.66,399.76Z" transform="translate(-5.46 -25)" fill="#221735"/><path d="M511.6,404.12c.12-.34,1.2.29,3.25.09,2.31-.22,3.41-1.26,3.65-.88s-.92,2.88-2.81,3.26C513.53,407,511.42,404.65,511.6,404.12Z" transform="translate(-5.46 -25)" fill="#fef3ed"/><path d="M514,399.78c-.44-.31-.94-.53-1.37-.85a1.39,1.39,0,0,1-.68-1.19c.06-.48.59-.81.91-1.11a13.47,13.47,0,0,0,1.21-1.29c.29-.35-.21-.87-.51-.51a13.8,13.8,0,0,1-1.4,1.46,2.15,2.15,0,0,0-.93,1.52c0,1.42,1.47,1.93,2.41,2.6C514,400.68,514.36,400.05,514,399.78Z" transform="translate(-5.46 -25)" fill="#221735"/><path d="M511.93,390.14a21.46,21.46,0,0,0-2.87.47.75.75,0,0,0-.5.9.73.73,0,0,0,.88.5c.44-.1.87-.19,1.31-.26l.33-.06.16,0h0l.68-.08a.78.78,0,0,0,.5-.21.73.73,0,0,0,.21-.52A.72.72,0,0,0,511.93,390.14Z" transform="translate(-5.46 -25)" fill="#221735"/><path d="M511.29,391.66Z" transform="translate(-5.46 -25)" fill="#221735"/><path d="M521.39,391.57a13,13,0,0,0-2.93-.93.76.76,0,0,0-.55.07.73.73,0,0,0,.17,1.33,12.63,12.63,0,0,1,1.38.34c.22.07.44.14.66.23l.33.13.15.06c-.19-.06,0,0,.06,0a.72.72,0,0,0,1-.26A.75.75,0,0,0,521.39,391.57Z" transform="translate(-5.46 -25)" fill="#221735"/><path d="M551.23,517.31c-2.32,0-4.55-.09-6.52-.26l.06-.72c6.27.52,15.23.31,21.08-1.32s6.89-3.95,6.91-4l.66.28c0,.11-1.15,2.67-7.38,4.4A59.46,59.46,0,0,1,551.23,517.31Z" transform="translate(-5.46 -25)" fill="#221735"/><path d="M498.76,449.93c-.05-.51-1.29-12.62,0-18.59l.69.16c-1.27,5.85,0,18.23,0,18.36Z" transform="translate(-5.46 -25)" fill="#221735"/><path d="M495.08,394l-1.43-.11a18,18,0,0,1,4.62-10.79,17.25,17.25,0,0,1,8.62-5.09l.34,1.41a15.84,15.84,0,0,0-7.92,4.67A16.52,16.52,0,0,0,495.08,394Z" transform="translate(-5.46 -25)" fill="#fef3ed"/><path d="M541.81,417.5l-1-1a19.38,19.38,0,0,0,3.89-6.59,19.92,19.92,0,0,0,.93-9l1.41-.19a21.29,21.29,0,0,1-1,9.71A21,21,0,0,1,541.81,417.5Z" transform="translate(-5.46 -25)" fill="#fef3ed"/><path d="M601,506.49l-.7-.1a10.5,10.5,0,0,0-1.61-7.61l.55-.47A11.11,11.11,0,0,1,601,506.49Z" transform="translate(-5.46 -25)" fill="#221735"/><path d="M568.4,462.08l-.52-.5c.4-.43,9.74-10.44,15.22-7.21l-.36.63C577.75,452.06,568.5,462,568.4,462.08Z" transform="translate(-5.46 -25)" fill="#221735"/><path d="M566.54,459l-.71-.05c0-.48.83-11.75,6-16.5l.48.55C567.36,447.54,566.55,458.89,566.54,459Z" transform="translate(-5.46 -25)" fill="#221735"/><path d="M470.34,417.62h-.71c0-.13.22-12.34,8.51-19.14l.45.56C470.56,405.63,470.34,417.51,470.34,417.62Z" transform="translate(-5.46 -25)" fill="#221735"/><path d="M473.1,420.62l-.67-.27c.28-.72,6.94-17.5,13-16l-.17.71c-2.78-.69-5.93,3.53-8.07,7.18A67.83,67.83,0,0,0,473.1,420.62Z" transform="translate(-5.46 -25)" fill="#221735"/><path d="M524.3,485.21l-.11-.72c16.83-2.86,42.35-7.94,43.64-10.17l.62.37C566.57,477.93,528.63,484.48,524.3,485.21Z" transform="translate(-5.46 -25)" fill="#221735"/><path d="M512.41,512.74c-.14-.09-13.74-9.35-15.73-22.57l.71-.11c1.94,12.9,15.28,22,15.41,22.08Z" transform="translate(-5.46 -25)" fill="#221735"/><path d="M509.59,513.8h-.3c-4.81-.3-23.13-7.6-26.55-12.3l.57-.43c3.14,4.3,20.78,11.43,25.73,12,.9.1,1.07,0,1.07,0l.52.5A1.38,1.38,0,0,1,509.59,513.8Z" transform="translate(-5.46 -25)" fill="#221735"/><path d="M572.14,550.25a20.22,20.22,0,0,1-5.35-.72l.19-.7c9.47,2.61,18-2.83,22.09-5.44a10.2,10.2,0,0,1,2.16-1.21l.17.7a12,12,0,0,0-1.95,1.13C586.05,546.18,579.66,550.25,572.14,550.25Z" transform="translate(-5.46 -25)" fill="#221735"/><path d="M583.27,563.43l-.71-.09c1.18-9.85,11-17.13,11.46-17.43l.42.59C594.34,546.57,584.42,553.9,583.27,563.43Z" transform="translate(-5.46 -25)" fill="#221735"/><path d="M538.8,581.13c-2.71-8-9-26.78-8.84-27.56l.7.15c.06.9,5.3,16.75,8.81,27.17Z" transform="translate(-5.46 -25)" fill="#221735"/><path d="M666.07,601.66c-1.26-2.44-17.47-20.22-17.63-20.4l.53-.5c.67.74,16.43,18,17.73,20.56Z" transform="translate(-5.46 -25)" fill="#221735"/><path d="M450.75,381.36a10.32,10.32,0,0,1-2.76-3.21c-.51-1.16.23-3.3.82-4.67a.88.88,0,0,0-.23.32,1.63,1.63,0,0,1-1,.79,4.87,4.87,0,0,1-3.6,0,1.39,1.39,0,0,1-.76-1c-.21-1.14.76-2.74,1.43-3.49.82-.91,4.32-1.41,5-1.5l.09.72c-1.5.2-4.07.72-4.57,1.27a4.6,4.6,0,0,0-1.26,2.86.65.65,0,0,0,.38.51,4.14,4.14,0,0,0,2.88,0,1.58,1.58,0,0,0,.73-.42c.27-.74,1.49-1.38,1.63-1.45l1-.51-.52,1c-.56,1.07-1.89,4.11-1.37,5.27a9.9,9.9,0,0,0,2.53,2.94Z" transform="translate(-5.46 -25)" fill="#221735"/><path d="M502.92,453l-1.54-9.61,20.46-2.27,2.87,10.06Zm-.71-9,1.31,8.19,20.26-1.7-2.46-8.61Z" transform="translate(-5.46 -25)" fill="#221735"/><path d="M513.89,388.32A8.29,8.29,0,0,0,518.3,386a33.15,33.15,0,0,1-8.48,2l3.24-2.15a33.19,33.19,0,0,1-5.28,1.16c-.61.08-1.37.06-1.63-.5a8.29,8.29,0,0,1,4.14-3.84,19,19,0,0,1,5.53-1.38,23.43,23.43,0,0,1,6.74-.1,11.65,11.65,0,0,1,4.22,1.49c.49.29,1.47.8,1.53,1.45s-1,1.11-1.44,1.38a18.51,18.51,0,0,1-8.11,2.92A17.66,17.66,0,0,1,513.89,388.32Z" transform="translate(-5.46 -25)" fill="#702c8b"/><path d="M532.53,389.74a11.58,11.58,0,0,1,.9,7.32,1.48,1.48,0,0,1-.95,1.17l-4.6,2.51a28.8,28.8,0,0,0,.52-5.23c-.09-3.39-1.36-6.64-1.46-10a3,3,0,0,1,.48-2.05.88.88,0,0,1,1.37-.12c.36.46.51,1.11.84,1.61.47.72,1,1.4,1.46,2.13A20.4,20.4,0,0,1,532.53,389.74Z" transform="translate(-5.46 -25)" fill="#702c8b"/><path d="M542.59,393.79a8.58,8.58,0,0,0-9.4-6.53l-.08-.72a9.62,9.62,0,0,1,7.13,2.12,9.73,9.73,0,0,1,3,4.95Z" transform="translate(-5.46 -25)" fill="#702c8b"/><path d="M532.76,386.66l-.72,0a10.79,10.79,0,0,0-2.66-7.81c-3.36-3.54-8.22-2.9-9.82-2.69a14.09,14.09,0,0,0-7.67,3.65l-.48-.54a14.8,14.8,0,0,1,8.06-3.83c4.52-.59,8,.39,10.42,2.91A11.52,11.52,0,0,1,532.76,386.66Z" transform="translate(-5.46 -25)" fill="#702c8b"/><path d="M538.1,378c14.63-5.1,29,2.49,33.7,12,2.89,5.81,2.37,12.42,2.25,14-.92,11.63-8,13.59-7.6,23.5,0,0,0,1.22,4.27,15.44,0,2.43-4.93,1.72-4.93,1.72-6.47-11.35-6.35-19-4.83-23.93,1.58-5.19,4.56-7.17,6-14.25.6-3,2-10.11-1.22-15.55-3.91-6.59-11.72-8.38-23-8.38Z" transform="translate(-5.46 -25)" fill="#fef3ed"/><path d="M548,383.13l-.64-.3c2.09-4.52.4-6,.38-6l.43-.57C548.27,376.34,550.37,378,548,383.13Z" transform="translate(-5.46 -25)"/><path d="M555.62,384l-.62-.35c1.38-2.51,1.39-3.88,1.16-4.58a1.22,1.22,0,0,0-.52-.72l.29-.67a1.92,1.92,0,0,1,.91,1.16C557.24,380,556.83,381.77,555.62,384Z" transform="translate(-5.46 -25)"/><path d="M562.65,387.59l-.27-.68c2.43-1,2.11-4.71,2.11-4.75l.71-.07C565.22,382.26,565.58,386.39,562.65,387.59Z" transform="translate(-5.46 -25)"/><path d="M566.8,393.58v-.73a4.26,4.26,0,0,0,4.26-3.69l.71.1A5,5,0,0,1,566.8,393.58Z" transform="translate(-5.46 -25)"/><path d="M570.8,401.89a7.35,7.35,0,0,1-3.24-.89l.32-.65A5.29,5.29,0,0,0,572,401a3.35,3.35,0,0,0,1.79-1.53l.64.3a3.94,3.94,0,0,1-2.18,1.92A4.38,4.38,0,0,1,570.8,401.89Z" transform="translate(-5.46 -25)"/><path d="M569.83,410.07a6.41,6.41,0,0,1-3.59-1.27l.39-.61c4.13,2.82,6.43-.42,6.53-.56l.58.41A5.05,5.05,0,0,1,569.83,410.07Z" transform="translate(-5.46 -25)"/><path d="M567.68,416.81a9.58,9.58,0,0,1-4.17-1.25l.36-.63a9.48,9.48,0,0,0,3.85,1.15c1.6,0,1.91-.41,1.91-.42l.64.34c-.09.18-.51.79-2.54.81Z" transform="translate(-5.46 -25)"/><path d="M565.23,423.73a10.55,10.55,0,0,1-4.77-1.62l.38-.61s3.8,2.38,5.79,1.16l.37.62A3.38,3.38,0,0,1,565.23,423.73Z" transform="translate(-5.46 -25)"/><path d="M563.18,432.9a3.21,3.21,0,0,1-2.85-1.63l.64-.33-.32.17.32-.17a2.52,2.52,0,0,0,2.71,1.2c2.18-.34,3.77-.67,3.79-.67l.14.71s-1.62.33-3.82.68A4.35,4.35,0,0,1,563.18,432.9Z" transform="translate(-5.46 -25)"/><polygon points="564.8 417.15 556.11 412.94 556.42 412.28 565.11 416.5 564.8 417.15"/><path d="M495.08,490.46c-.35,3.8-2.24,7.76-5.42,8.79-2.3.74-5-.15-7.27-1.8a9.7,9.7,0,0,1,1-1.89C485,493.15,489.54,491.54,495.08,490.46Z" transform="translate(-5.46 -25)" fill="#cbc3e0"/><path d="M581,562.05c-3.63-2.5-6.53-4.63-8.07-5.88a32,32,0,0,1-3.72-4.1c2.75-1.25,6.82-1.3,9.53,1S581.66,559,581,562.05Z" transform="translate(-5.46 -25)" fill="#cbc3e0"/><path d="M181.92,408.1c22,9.16,48.76,5.48,69.17,17.53,15.2,9,24.41,28.46,16.87,43.92-8.81,18.08-33.61,22.12-54.5,22-24.33-.18-49.61-3.1-70.18-15.5-27-16.28-38.49-44.16-44.74-72.7-2.06-9.38-10.05-24.05-2-32.56,12-12.72,30.18-2.4,41.29,5.66C152.42,387,164.8,401,181.92,408.1Z" transform="translate(-5.46 -25)" fill="#221735"/><circle cx="187.82" cy="361.33" r="45.02" fill="#f0664d"/><path d="M764.14,69.73C792.52,53.15,820.64,56.59,833,58.1c28.88,3.53,29.77,11,54.1,14.48,21.33,3.07,42-8,62.49-15.17s45.57-9.56,61.08,7.19c15.06,16.25,14.77,43.53,25.77,63.48,13.18,23.9,40.26,33.18,65.25,34.41,13.2.66,26.94-.28,39.07,5.63,15.58,7.59,25.72,25.66,28.92,44.41s.36,38.17-4.09,56.59c-4.21,17.42-10,34.6-19.24,49.32-13.68,21.71-34.4,37.08-47,59.59-14.74,26.3-17.82,61.2-38.68,81.6-22.57,22.08-57.3,18.15-85.1,5.7s-53.35-32.07-82.72-38.51c-29.6-6.48-60,1.09-90.2,1.83s-63.93-8-80.14-36.59c-5.75-10.13-8.74-21.9-11.27-33.58-6.68-30.85-10.68-62.78-7.84-94.36C707.29,220.06,730.9,218.57,730,184c-.77-28.28-14.34-33.19-11.12-56.42C723.58,93.42,757.15,73.81,764.14,69.73Z" transform="translate(-5.46 -25)" fill="#221735"/><path d="M787,99.31a.82.82,0,0,0-.2-.35.84.84,0,0,0-.31-.22.63.63,0,0,0-.38-.09l-.25,0a.93.93,0,0,0-.43.27l-.15.22a1.15,1.15,0,0,0-.14.55v.73a1,1,0,0,0,.09.41.82.82,0,0,0,.2.35.68.68,0,0,0,.31.22.62.62,0,0,0,.37.09l.26,0a1,1,0,0,0,.43-.28l.15-.22a1.13,1.13,0,0,0,.13-.54v-.73A.85.85,0,0,0,787,99.31Z" transform="translate(-5.46 -25)" fill="#fef3ed"/><path d="M763.7,173.07c-1.25,0-1.25,2.16,0,2.16S765,173.07,763.7,173.07Z" transform="translate(-5.46 -25)" fill="#fef3ed"/><path d="M926.16,95.73c-1.25,0-1.25,2.16,0,2.16S927.42,95.73,926.16,95.73Z" transform="translate(-5.46 -25)" fill="#fef3ed"/><path d="M867,367.89c-1.25,0-1.26,2.16,0,2.16S868.22,367.89,867,367.89Z" transform="translate(-5.46 -25)" fill="#fef3ed"/><path d="M1020.22,446.7c-1.25,0-1.25,2.15,0,2.15S1021.47,446.7,1020.22,446.7Z" transform="translate(-5.46 -25)" fill="#fef3ed"/><path d="M1135.33,208.1c-1.25,0-1.26,2.15,0,2.15S1136.58,208.1,1135.33,208.1Z" transform="translate(-5.46 -25)" fill="#fef3ed"/><path d="M763,357c-1.25,0-1.25,2.15,0,2.15S764.29,357,763,357Z" transform="translate(-5.46 -25)" fill="#fef3ed"/><path d="M741.34,303.68c-1.25,0-1.25,2.16,0,2.16S742.59,303.68,741.34,303.68Z" transform="translate(-5.46 -25)" fill="#fef3ed"/><path d="M1026.14,154.83c-1.25,0-1.25,2.16,0,2.16S1027.39,154.83,1026.14,154.83Z" transform="translate(-5.46 -25)" fill="#fef3ed"/><path d="M857.76,92c-2.19,0-2.19,3.77,0,3.77S860,92,857.76,92Z" transform="translate(-5.46 -25)" fill="#fef3ed"/><path d="M747.6,127.09a1.74,1.74,0,0,0-2.09-1.32,2.67,2.67,0,0,0,0,4.93,1.6,1.6,0,0,0,1.31-.19,1.82,1.82,0,0,0,.78-1.12,2.19,2.19,0,0,0-.05-1.11A2,2,0,0,0,747.6,127.09Z" transform="translate(-5.46 -25)" fill="#fef3ed"/><path d="M806.34,150.2a1.59,1.59,0,0,0-1.2-.55,1.67,1.67,0,0,0-1.2.55l-.66.73a2,2,0,0,0-.5,1.33,2.07,2.07,0,0,0,.5,1.34,1.63,1.63,0,0,0,1.2.55,1.67,1.67,0,0,0,1.2-.55l.66-.73a2.07,2.07,0,0,0,.5-1.34A2,2,0,0,0,806.34,150.2Z" transform="translate(-5.46 -25)" fill="#fef3ed"/><path d="M722.92,275.15c-2.19,0-2.19,3.77,0,3.77S725.11,275.15,722.92,275.15Z" transform="translate(-5.46 -25)" fill="#fef3ed"/><path d="M730.16,346.66c-2.19,0-2.2,3.77,0,3.77S732.35,346.66,730.16,346.66Z" transform="translate(-5.46 -25)" fill="#fef3ed"/><path d="M820.81,392.45a1.64,1.64,0,0,0-1.2-.56,1.72,1.72,0,0,0-1.2.56l-.66.73a2,2,0,0,0,0,2.66,1.59,1.59,0,0,0,1.2.55,1.67,1.67,0,0,0,1.2-.55l.66-.73a2,2,0,0,0,0-2.66Z" transform="translate(-5.46 -25)" fill="#fef3ed"/><path d="M903.38,398.16a1.55,1.55,0,0,0-.35-.61,1.39,1.39,0,0,0-.55-.39,1.23,1.23,0,0,0-.65-.16l-.46.07a1.79,1.79,0,0,0-.75.48l-.26.39a2.05,2.05,0,0,0-.23.95v.45a1.64,1.64,0,0,0,.14.73,1.51,1.51,0,0,0,.35.6,1.22,1.22,0,0,0,.55.39,1.16,1.16,0,0,0,.66.16l.45-.06a1.61,1.61,0,0,0,.75-.49c.09-.13.18-.25.26-.38a1.94,1.94,0,0,0,.24-1v-.45A1.52,1.52,0,0,0,903.38,398.16Z" transform="translate(-5.46 -25)" fill="#fef3ed"/><path d="M966.83,429.66a1.65,1.65,0,0,0-1.2-.55,1.61,1.61,0,0,0-1.2.55,2,2,0,0,0-.5,1.33v.73a2,2,0,0,0,.5,1.33,1.62,1.62,0,0,0,1.2.56,1.64,1.64,0,0,0,1.2-.56,2.08,2.08,0,0,0,.5-1.33V431A2,2,0,0,0,966.83,429.66Z" transform="translate(-5.46 -25)" fill="#fef3ed"/><path d="M1038.88,265.36a1.42,1.42,0,0,0-.36-.6,1.14,1.14,0,0,0-.54-.39,1.19,1.19,0,0,0-.66-.17l-.45.07a1.61,1.61,0,0,0-.75.49l-.27.38a2.05,2.05,0,0,0-.23.95v.45a1.52,1.52,0,0,0,.15.73,1.4,1.4,0,0,0,.35.6,1.17,1.17,0,0,0,.55.39,1.15,1.15,0,0,0,.65.17l.45-.07a1.61,1.61,0,0,0,.75-.49l.27-.38a2.05,2.05,0,0,0,.23-.95v-.45A1.64,1.64,0,0,0,1038.88,265.36Z" transform="translate(-5.46 -25)" fill="#fef3ed"/><path d="M1142.45,253.08a1.65,1.65,0,0,0-1.2-.55,1.69,1.69,0,0,0-1.21.55l-.65.73a2,2,0,0,0-.5,1.33,2,2,0,0,0,.5,1.34,1.63,1.63,0,0,0,1.2.55,1.68,1.68,0,0,0,1.2-.55l.66-.73a2,2,0,0,0,0-2.67Z" transform="translate(-5.46 -25)" fill="#fef3ed"/><path d="M997.2,104.9c-5,0-5,8.62,0,8.62S1002.21,104.9,997.2,104.9Z" transform="translate(-5.46 -25)" fill="#fef3ed"/><path d="M772.25,318c-5,0-5,8.62,0,8.62S777.26,318,772.25,318Z" transform="translate(-5.46 -25)" fill="#fef3ed"/><path d="M776.86,138.47c-5,0-5,8.62,0,8.62S781.86,138.47,776.86,138.47Z" transform="translate(-5.46 -25)" fill="#fef3ed"/><path d="M1061.46,182.49a4.52,4.52,0,0,0-1-1.9l-.79-.67a3.55,3.55,0,0,0-2-.59h-.66a2.69,2.69,0,0,0-1.49.37,2.86,2.86,0,0,0-1.25.89,3.3,3.3,0,0,0-.81,1.39,3.55,3.55,0,0,0-.33,1.66c0,.38.09.76.14,1.14a4.35,4.35,0,0,0,1,1.9l.78.68a3.66,3.66,0,0,0,2,.59h.66a2.7,2.7,0,0,0,1.5-.37,2.89,2.89,0,0,0,1.25-.9,3.2,3.2,0,0,0,.8-1.38,3.49,3.49,0,0,0,.34-1.66C1061.55,183.26,1061.5,182.87,1061.46,182.49Z" transform="translate(-5.46 -25)" fill="#fef3ed"/><path d="M50.94,274,42.57,262c27.52-21.64,68.49-48.17,112.39-72.77,48.73-27.3,95.72-49.38,128.93-60.58l4.26,14.28c-32.46,11-78.61,32.66-126.62,59.56C118.22,226.73,77.91,252.82,50.94,274Z" transform="translate(-5.46 -25)" fill="#f0664d"/><path d="M278,216a124.12,124.12,0,0,1-3.74,30.23h0c-12.5,49.32-54.83,85.62-105.13,85.62A102.79,102.79,0,0,1,134.9,326a105.41,105.41,0,0,1-10.75-4.48,107,107,0,0,1-18.36-11.3A114.64,114.64,0,0,1,72,268.43a121.32,121.32,0,0,1-11.71-48.61c0-1.28-.06-2.55-.06-3.84a123.19,123.19,0,0,1,3-27.24,119.7,119.7,0,0,1,9.09-25.92q1.25-2.58,2.63-5.09a115.55,115.55,0,0,1,12.87-18.86q2.15-2.55,4.41-5c19.7-20.88,46.85-33.78,76.84-33.78,1,0,2.06,0,3.08,0a105.13,105.13,0,0,1,10.56.85,103.66,103.66,0,0,1,29.93,8.75c1.19.56,2.36,1.13,3.53,1.73a108.27,108.27,0,0,1,23.42,16.22A113.71,113.71,0,0,1,254,143.45a118.56,118.56,0,0,1,21.4,47.43q.39,1.88.72,3.75A123.84,123.84,0,0,1,278,216Z" transform="translate(-5.46 -25)" fill="#702c8b"/><ellipse cx="335.09" cy="269.74" rx="40.26" ry="42.84" fill="#cbc3e0"/><g opacity="0.32"><path d="M211.12,25c12.09,3.82,24,8,35.84,12.26S270.55,46,282.27,50.47s23.36,9.13,35,13.86,23.16,9.5,34.67,14.38c23,9.81,46,19.63,68.31,30.58q16.79,8.2,33.14,17.15c2.71,1.5,5.43,3,8.13,4.55s5.39,3.1,8.06,4.7c5.34,3.19,10.64,6.43,15.8,9.95l-.21.38c-6.27-1.51-12.39-3.29-18.47-5.13-3-.91-6.06-1.88-9.08-2.84s-6-2-9-3q-17.94-6.1-35.42-13c-23.35-9.15-46.07-19.44-68.79-29.73q-17-7.77-33.89-15.78t-33.6-16.3c-11.13-5.56-22.23-11.17-33.24-17s-22-11.67-32.71-17.9Z" transform="translate(-5.46 -25)" fill="#f5d778"/></g><path d="M286.31,83.93a7.53,7.53,0,1,1-7.51-8A7.76,7.76,0,0,1,286.31,83.93Z" transform="translate(-5.46 -25)" fill="#cbc3e0"/><ellipse cx="375.37" cy="77.14" rx="20.4" ry="21.71" fill="#fd9e8a"/><g opacity="0.5"><path d="M182.77,101c-3.26,9.08-8.41,18.49-16.63,26.09-22.59,20.86-56.93,17.39-78.26,11.75q2.15-2.55,4.41-5c13.49.54,31.25-1,49.22-9.95a102.83,102.83,0,0,0,30.7-23.79A105.13,105.13,0,0,1,182.77,101Z" transform="translate(-5.46 -25)" fill="#fd9e8a"/></g><g opacity="0.5"><path d="M216.23,111.51c-10.1,19.43-29.24,47.63-60.92,58.59s-64.86,1-82.93-7.28q1.25-2.58,2.63-5.09a141.09,141.09,0,0,0,37.93,2.93c40.89-2.73,74.46-25.95,99.76-50.88C213.89,110.34,215.06,110.91,216.23,111.51Z" transform="translate(-5.46 -25)" fill="#fd9e8a"/></g><g opacity="0.5"><path d="M254,143.45a114.21,114.21,0,0,1-12,27.7C205.13,231.05,100.84,242,60.32,219.82c0-1.28-.06-2.55-.06-3.84a123.19,123.19,0,0,1,3-27.24c8.26,1.18,18.16,3.41,28,4.42,59.38,6.14,111.49-32.53,122.17-40.88a231.15,231.15,0,0,0,26.22-24.55A113.71,113.71,0,0,1,254,143.45Z" transform="translate(-5.46 -25)" fill="#fd9e8a"/></g><g opacity="0.5"><path d="M276.15,194.63c-29.73,30.54-118.86,108.66-170.36,115.58A114.64,114.64,0,0,1,72,268.43c12.41-16.22,55.4-10.38,108.54-26.14a263.66,263.66,0,0,0,94.86-51.41Q275.82,192.76,276.15,194.63Z" transform="translate(-5.46 -25)" fill="#fd9e8a"/></g><g opacity="0.5"><path d="M276.72,233.75a124.75,124.75,0,0,1-2.46,12.46h0a181.76,181.76,0,0,1-37.59,41C199.93,316.45,158.93,324.66,134.9,326a105.41,105.41,0,0,1-10.75-4.48,286.36,286.36,0,0,0,85.76-33.21A293.87,293.87,0,0,0,276.72,233.75Z" transform="translate(-5.46 -25)" fill="#fd9e8a"/></g><path d="M21.51,318.11c-3.19-.32-11.86-1.27-14.77-7.15-4.11-8.3,2.52-17.44,7.86-23.6,6.12-7.05,15.53-15.59,28-25.38L50.94,274c-20.84,16.39-27.86,25.16-30.21,29,3.57-.46,8.78-1.18,15-2.24,67.56-11.43,115.85-38.27,149.44-57.31,23.51-13.33,58.72-33.59,98.06-70.3a480.11,480.11,0,0,0,35.9-37.35c-3.8-.13-12.51.78-31,7l-4.26-14.28c12.16-4.11,22.09-6.6,29.5-7.42,6.5-.72,16.32.65,19.79,6.85.86,1.55,4.26,8.69-7.6,27.05-42.75,66.21-118.7,110.4-118.7,110.4S102.45,326.26,21.51,318.11Z" transform="translate(-5.46 -25)" fill="#f0664d"/><path d="M15,305.05A379.57,379.57,0,0,0,60.2,301l2.81-.42,2.8-.46c1.86-.33,3.73-.61,5.59-1L77,298.06c1.86-.34,3.7-.77,5.55-1.16,3.71-.75,7.39-1.67,11.08-2.52l5.5-1.41,2.75-.71,2.73-.77,5.47-1.56,5.44-1.68,2.71-.84,2.7-.89,5.4-1.81c1.79-.62,3.57-1.28,5.36-1.92s3.58-1.28,5.34-2,3.54-1.39,5.3-2.09,3.51-1.46,5.27-2.19q10.48-4.48,20.73-9.61c6.79-3.48,13.54-7.07,20.15-10.94A415.09,415.09,0,0,0,227,230.77l4.63-3.45c1.54-1.17,3.12-2.28,4.61-3.5l9.05-7.23c5.89-5,11.84-10,17.5-15.28,5.8-5.15,11.32-10.63,16.78-16.18s10.76-11.28,15.92-17.15,10.21-11.87,15.08-18c1.22-1.54,2.42-3.1,3.63-4.65s2.38-3.12,3.56-4.7c2.37-3.13,4.69-6.32,7-9.52a400.28,400.28,0,0,1-60.45,72l-4.27,4c-.71.66-1.41,1.34-2.14,2l-2.19,1.93c-2.94,2.56-5.87,5.13-8.83,7.66l-9,7.36c-1.49,1.25-3.06,2.38-4.6,3.57l-4.63,3.52a409.15,409.15,0,0,1-38.72,25.52c-6.67,3.88-13.47,7.47-20.33,10.95s-13.85,6.66-20.93,9.6a333.68,333.68,0,0,1-43.44,14.57l-2.76.74-2.78.67-5.55,1.33c-3.72.79-7.43,1.66-11.17,2.33-7.46,1.46-15,2.62-22.5,3.57s-15.1,1.6-22.66,2l-2.84.17-2.84.12c-1.89.06-3.78.18-5.67.2s-3.79.07-5.68.08Z" transform="translate(-5.46 -25)" fill="#f5d778"/><path d="M19.23,311.21a379.92,379.92,0,0,0,45.19-4.09l2.8-.41,2.8-.47c1.87-.32,3.74-.61,5.6-1l5.57-1.06c1.86-.34,3.71-.77,5.56-1.15,3.71-.76,7.38-1.68,11.07-2.52l5.5-1.42,2.75-.71,2.74-.77,5.47-1.55,5.43-1.69,2.72-.83,2.7-.9,5.4-1.8c1.79-.63,3.57-1.29,5.35-1.93s3.58-1.28,5.35-2,3.53-1.39,5.3-2.09,3.51-1.47,5.26-2.19q10.5-4.5,20.73-9.62c6.8-3.48,13.55-7.06,20.15-10.94a413.21,413.21,0,0,0,38.54-25.21l4.63-3.45c1.54-1.16,3.11-2.27,4.6-3.5l9.06-7.22c5.89-5,11.83-10,17.5-15.28,5.79-5.16,11.31-10.64,16.78-16.18S294.54,180,299.7,174.14s10.21-11.86,15.08-18c1.22-1.54,2.41-3.09,3.62-4.64s2.39-3.13,3.56-4.7c2.38-3.14,4.69-6.32,7-9.53A400.34,400.34,0,0,1,268.5,209.3l-4.27,4c-.72.67-1.42,1.35-2.14,2l-2.2,1.92c-2.94,2.56-5.86,5.13-8.82,7.67l-9,7.35c-1.49,1.25-3.07,2.39-4.6,3.57l-4.64,3.52a409.92,409.92,0,0,1-38.72,25.53c-6.66,3.88-13.47,7.47-20.33,10.95s-13.85,6.65-20.92,9.6A335.65,335.65,0,0,1,109.37,300l-2.76.74-2.78.67-5.55,1.33c-3.72.8-7.43,1.67-11.17,2.33-7.47,1.46-15,2.63-22.51,3.57s-15.09,1.6-22.66,2l-2.83.16-2.84.12c-1.89.07-3.79.18-5.68.2s-3.79.07-5.68.08Z" transform="translate(-5.46 -25)" fill="#f5d778"/><g opacity="0.38"><path d="M360.3,282.51a2.39,2.39,0,0,1,.89.26,10.13,10.13,0,0,0,2.92.36,9.7,9.7,0,0,1,5.73,2.51,4.59,4.59,0,0,1,1.53,2.36c.12.55.08,1.13.17,1.68.25,1.63,1.51,2.83,2.4,4.17a10,10,0,0,1,1.35,3,3.59,3.59,0,0,1,0,2.15,3.66,3.66,0,0,1-1.66,1.66,36.33,36.33,0,0,1-7.79,3.64,3.09,3.09,0,0,1-2.49.07c-1.44-.84-1.09-3.28-2.22-4.54s-3.09-.8-4.63-1.36a4.14,4.14,0,0,1-2.41-4.64c.35-1.6,1.57-2.78,2.62-4a6.77,6.77,0,0,0,1.81-4.31C358.59,284.6,359.14,282.53,360.3,282.51Z" transform="translate(-5.46 -25)" fill="#702c8b"/></g><g opacity="0.38"><path d="M323.45,314c1.36,2.3,2.24,5.63,4.77,5.93.79.09,1.64-.17,2.36.19a4.66,4.66,0,0,1,1.4,1.49c2.5,3.21,8.19,2.25,9.65-1.62a4.68,4.68,0,0,1,1-2c1-.87,2.61,0,3.34,1.2s1.08,2.64,2.07,3.58c1.62,1.55,4.24,1,6.06-.28s3.23-3.15,5.11-4.33,4.6-1.45,6,.33a4.78,4.78,0,0,1,.24,4.83,13.21,13.21,0,0,1-3.14,3.84,12.79,12.79,0,0,1-4.68,3.24c-2.3.7-4.81,0-7.13.57s-4,2.23-6.13,2.89c-3.59,1.1-7.36-.78-10.44-3s-6-5-9.66-5.85c-2.61-.63-5.39-.25-8-1a11.14,11.14,0,0,1-7.95-10.47c0-4.48,4.5-7.71,8.48-6a11.84,11.84,0,0,1,3.54,2.73A19.26,19.26,0,0,1,323.45,314Z" transform="translate(-5.46 -25)" fill="#702c8b"/></g><g opacity="0.38"><path d="M322.71,298c-1.61-3.39-.49-8.49,3-9.4.49.91,1.88.6,2.48-.24a16.07,16.07,0,0,0,1.15-2.87c1.21-2.71,4.59-3.68,5.88-6.35,1.42-2.94-.28-6.44-2.09-9.13s-3.9-5.74-3.2-9c2.07-.6,4.11,1.18,5.22,3.14s1.75,4.27,3.25,5.9c3.27,3.56,9.46,2.78,12.27,6.76,2.68,3.79.34,9.5-3.28,12.28-2,1.55-4.7,3.05-4.81,5.71a7.27,7.27,0,0,0,1.34,3.85c1.69,2.9,3.58,6,6.58,7.2,1.2.48,2.5.63,3.7,1.11,2,.81,3.59,2.5,5.09,4.13-.86,2.46-3.89,3.13-6.31,2.67s-4.77-1.66-7.23-1.49c-2.3.17-4.37,1.51-6.55,2.31s-4.95.89-6.46-1-1.24-5.1-2.22-7.45c-.86-2.09-3.26-3-4.82-4.38A11.93,11.93,0,0,1,322.71,298Z" transform="translate(-5.46 -25)" fill="#702c8b"/></g></svg>