<svg xmlns="http://www.w3.org/2000/svg" viewBox="0 0 1920 1024"><g style="isolation:isolate"><g id="Layer_1" data-name="Layer 1"><path d="M1880,796.39c-6.87,5.7-13.93,11.09-20.94,16.27,7,0,14-.32,20.94-1v33.49l-14.19,12.41A573.74,573.74,0,0,1,1794,907.41c-10.83,6.41-22.08,12.94-33.62,18.46a166.43,166.43,0,0,1-26.93,10.39c-31,8.62-62.46,5.53-93.92,5.5-31.68,0-63.54,2.56-95.16,4.6q-10.47.67-20.92,1.47c-14.89,1.12-29.77,2.37-44.66,3.53-13.09,1-26.19,2-39.29,2.72q-52.43,3-104.92,3.63c-70.1,1-140.2-.62-210.26-3.22q-29.35-1.1-58.69-2.37-50.51-2.18-101-4.52l-27.07-1.19q-14.37-.63-28.74-1.22l-10-.4c-60.43-2.42-120.86-4.28-181.34-4.57q-7.32,0-14.63,0c-12.72,0-2.12-14.57,1.67-19.28.37-.48.68-.85.89-1.1,11.94-14.13,26.25-26.08,40.67-37,3.87-2.94,7.75-5.81,11.59-8.62q7.88-5.77,15.93-11.32c-.6-.55-1.18-1.12-1.75-1.72a21.54,21.54,0,0,1,8.33-17.74c.82-.92,1.66-1.82,2.49-2.72a127.31,127.31,0,0,1-20.7-5.07q-9.13-.39-4.79-9.72c2.44-3.55,4.9-7.1,7.35-10.65A216,216,0,0,1,792.69,788a118.3,118.3,0,0,1-25.54,1.36c-22.44-1.69-34.81-6.88-40.81-13.65-17-19.17,17-51,17.44-51.74a98.65,98.65,0,0,1-29.45-13.35q-2.9-2-5.68-4.21A35.51,35.51,0,0,1,694,684a128.82,128.82,0,0,1-13.3-5.31c-13.14-6.13-32.25-18-32.68-37.57q1.23-17.77,14.22-27.94l6.95-8-2.49,3.12a210.42,210.42,0,0,1,22-23.74c20.06-18.09,42.24-33.25,64.7-47.27q-4.19-1.56-8.31-3.38-17.22-6.89-28.48-23.2-8.09-14.25-.65-29c2.53-8.89,7.25-16.74,12.57-23.71,9.6-12.58,19.44-24.63,30.64-35.29q4.93-4.69,10-9.14a83.77,83.77,0,0,1-13.51-8.89c-11.86-9.61-20.35-25.31-11.89-41.65,9.77-18.87,31.49-28,48.58-33.83a257.66,257.66,0,0,0,23.64-13.77c18.69-13.53,36.72-28.26,55.35-41.88,15.54-11.36,31.26-22.55,47.75-32q18.39-10.53,37-20.7c50.41-27.63,101.54-53.47,152.46-79.82,40-20.69,89-23.57,131.48-12.44,19.47,5.1,68.54,24.75,51.78,59.06q7.14-2.94,14.33-5.72c21.35-8.22,43.48-13.89,65.66-18.12a193.75,193.75,0,0,1,83.84,3A105.4,105.4,0,0,1,1495,185.2c8.86,7.17,15.84,17.76,15.28,29.46l2.32-.55a215.4,215.4,0,0,1,57.76-1.73l26.08,4.72a105.29,105.29,0,0,1,39.41,18.38c11.86,9.61,20.35,25.31,11.89,41.65q-10.53,17-27.4,24.87l-6.55,2.84,1.79.07q4.08.43,8.25,1,13-3.78,26.17-7.2a89.51,89.51,0,0,1,49.8,9.31l23.93,15.63c19.71,16.47,35.57,39.56,44.6,65.76,1.56,4.5,2.91,9.1,4,13.77a146.31,146.31,0,0,1,2.77,14.57,137.32,137.32,0,0,1,1,29.5c1.55.13,3.11.27,4.67.43l26.07,4.72c17.36,4.55,40,12.7,50.66,31.06,6.44,11.11,5.31,21.32.2,30.16,28.18-4.76,42.61,68.46-43.63,107.11-15.22,6.83-30.35,13.46-45.67,19.3-17.94,6.82-36.13,12.54-55,16.14l-3.06.57c25.12-1.67,50.28-3.39,75.36-5.9q11-1.11,22-2.44c24.1-2.93,48.18-6.38,72.33-8.78Z" transform="translate(0 -56)" fill="#c2f9ff"/><path d="M886.51,318.76H1280.2c16.38-20.59-18.9-42.5-46.8-16.63,19.88-29.41-20.83-31-36-13,4.91-50.23-54.58-50.3-59.59-4.55-27.38-30.16-46.27-39.06-68.32,4.42-14.14-33.87-50.38-46.46-61-2.47-21.45-36.46-83-50.92-74,13-10.07-8.81-35.57-21.78-47.72-12.11C875.77,296.25,878.45,309.92,886.51,318.76Z" transform="translate(0 -56)" fill="#fff"/><path d="M666.56,547.47h460.56c19.17-24.09-22.11-49.72-54.74-19.46,23.25-34.4-24.37-36.29-42.09-15.18,5.75-58.76-63.85-58.85-69.71-5.32-32-35.28-54.13-45.69-79.92,5.17-16.55-39.63-58.94-54.35-71.37-2.9-25.08-42.65-97-59.56-86.58,15.27-11.79-10.31-41.62-25.48-55.83-14.18C654,521.13,657.13,537.12,666.56,547.47Z" transform="translate(0 -56)" fill="#fff"/><path d="M1277.6,420.45h310.66c12.93-16.25-14.91-33.54-36.93-13.12,15.69-23.21-16.43-24.49-28.38-10.24,3.88-39.64-43.07-39.7-47-3.59-21.6-23.8-36.51-30.83-53.91,3.48-11.16-26.73-39.75-36.66-48.14-2-16.92-28.77-65.46-40.18-58.4,10.3-8-7-28.08-17.19-37.66-9.56C1269.12,402.69,1271.23,413.47,1277.6,420.45Z" transform="translate(0 -56)" fill="#fff"/><ellipse cx="928.25" cy="239.94" rx="71.08" ry="78.14" fill="#ffe05c"/><ellipse cx="928.25" cy="239.94" rx="43.41" ry="47.72" fill="#ffff80"/><path d="M1759.79,925.87a166.78,166.78,0,0,1-26.93,10.39c-31,8.62-62.46,5.53-93.93,5.5-31.67,0-63.53,2.56-95.15,4.6q-10.47.67-20.92,1.47c-14.89,1.12-29.78,2.37-44.66,3.53-13.09,1-26.19,2-39.29,2.72q-52.44,3-104.93,3.63c-43.07.6-86.14.23-129.2-.75q-40.53-.91-81.06-2.47c-53.24-2-106.46-4.51-159.69-6.89L937,946.41q-14.37-.63-28.74-1.22l-10-.4c-60.42-2.42-120.86-4.28-181.33-4.57q-7.32,0-14.63,0c-12.73,0-2.12-14.57,1.66-19.28.38-.48.69-.85.9-1.1,11.93-14.13,26.24-26.08,40.67-37,3.86-2.94,7.74-5.81,11.58-8.62q7.89-5.77,15.94-11.32c-.6-.55-1.18-1.12-1.75-1.72a21.51,21.51,0,0,1,8.33-17.74c.82-.92,1.65-1.82,2.48-2.72a127.19,127.19,0,0,1-20.69-5.07q-9.15-.39-4.8-9.72l7.36-10.65A216,216,0,0,1,792.1,788a118.33,118.33,0,0,1-25.54,1.36c-22.45-1.69-34.81-6.88-40.81-13.65-6.4-7.23-5.57-16.25-2-24.72,5.86-14,19.15-26.55,19.44-27a98.77,98.77,0,0,1-29.45-13.35c23.29-17.26,46.46-28.35,72.3-41.27,39.25-19.65,63.11-36.05,102-9.14,17,11.74,29.74,22.61,49.81,22.82,18.78.2,33.69-9,52.12-5.29,35.74,7.2,66.11,39.82,99.61,49,31,8.51,76.31-32.8,102-50.92,15.5-10.91,32.38-24.89,49.8-26.14,18.2-1.3,40.32,9.28,58.76,12.38,83.65,14.09,184.74-23.94,242.45,60,20.32,29.56,32.79,55.35,64.56,73.07,31.43,17.53,65.17,25.5,94.41,46.79C1731.89,864,1749,892.43,1759.79,925.87Z" transform="translate(0 -56)" fill="#84cfd3"/><path d="M1370.15,794.26c-13.27,22.79-36.76,38.49-53,58.3-20.49,25-45,37.28-69,57.19-16.16,13.39-27.49,34.11-43,46.94l-.33.27q-14.19-.33-28.4-.73-26.34-.75-52.66-1.74-19.77-.74-39.56-1.57c-40-1.65-80.08-3.52-120.13-5.31Q950.5,947,937,946.41l-28.74-1.22-7.87-.32-2.17-.08c-60.42-2.42-120.85-4.28-181.33-4.56q-7.32,0-14.63,0c-12.72,0-2.12-14.57,1.67-19.28.37-.47.68-.85.89-1.09,11.94-14.14,26.24-26.09,40.67-37,3.87-2.94,7.74-5.8,11.59-8.62q7.88-5.77,15.93-11.32c-.6-.55-1.18-1.12-1.75-1.72a21.55,21.55,0,0,1,8.33-17.74c.82-.91,1.65-1.82,2.48-2.72a126.42,126.42,0,0,1-20.69-5.07q-9.14-.39-4.8-9.71c2.45-3.56,4.91-7.1,7.36-10.66A216,216,0,0,1,792.1,788a118.33,118.33,0,0,1-25.54,1.36c-22.44-1.68-34.81-6.88-40.81-13.65-6.39-7.22-5.56-16.25-2-24.72,18.94,1.65,282.38,10.35,312.36,12.1,56,3.26,112.7.7,168,5.34q3.2.27,6.37.57a333.05,333.05,0,0,0,35.23,1c18-.23,36.13-.94,53.72.89,18.78,2,35.8,3,55.23,2S1383.58,771.17,1370.15,794.26Z" transform="translate(0 -56)" fill="#5ea6b7"/><path d="M1136.93,805.69c-11,6.87-20,18.52-26.54,29.75.38-12.57,4.21-25.51,6.7-37.21-15.71,11.07-17.61,34.77-23.77,51.49-3.51-2.8-7.72-6.51-12-8.46-2.59,7.32,1,16.93,2.57,23.89-5.24-4.83-10.45-10.13-16.21-13.82.19,10,2.75,19.92,3.1,29.68-10.31-3.13-23.27-6.12-33.76-11.72,10.11,13.66,28.33,25.6,34,41.88L1136.25,859C1129.69,846.32,1133.71,819.52,1136.93,805.69Z" transform="translate(0 -56)" fill="#b7b16c"/><path d="M1880,796.39c-6.87,5.7-13.93,11.09-20.94,16.27,7,0,14-.32,20.94-1v33.48l-14.18,12.41A575.21,575.21,0,0,1,1794,907.41c-10.84,6.41-22.08,12.94-33.63,18.46a165.76,165.76,0,0,1-26.92,10.39c-31,8.62-62.47,5.53-93.93,5.51-31.68,0-63.54,2.55-95.15,4.59q-10.47.67-20.92,1.47c-14.9,1.13-29.78,2.38-44.67,3.54q-10.57.82-21.18,1.57-9,.62-18.11,1.15-16.37.93-32.77,1.62l-2.51.1-.39,0q-34.61,1.42-69.25,1.89c-52.74.72-105.48,0-158.2-1.51q-26-.74-52.06-1.72-29.34-1.1-58.68-2.37c.14-.53.28-1.07.43-1.61a250.6,250.6,0,0,1,11.3-31.17c2.48-5.79,5.16-11.67,8-17.51,12.28-25.61,26.82-50.54,36.15-64.44,24.91-9.78,76.67-17.67,92.12-18.53,0-1-.12-2-.21-3-1.67-18.38-10.05-37.8-9.72-55.63.41-21.91,12.42-24,24.74-43a25.57,25.57,0,0,0,2.85-6.3c8.15-25.64-3.76-82.37,17.42-91.69,8.25-3.64,33.51,10.1,44.57,9a184.39,184.39,0,0,0,25.79-4.79c10.93-2.86,12.17-6.5,21.88-11.2,17.25-8.36,28.74-4,43-14.67,10.64-7.93,25.75-19.25,35.41-29,13.61-13.68,13.76-22.61,26.8-26.17a51.74,51.74,0,0,1,10.2-1.53c16.65-1.08,33.86,4.7,51.48,4.71,21.41,0,31.29-4.72,49.35-16.45,5.81-3.78,13.53-11.6,19.83-13.69,7.8-2.58,13.93,1.81,22.59-1,14.31-4.72,19.82-19,34.33-26,14.76-7.17,30.94-2,45.57-13.51,9.77-7.7,19.29-21.6,28.44-30.07,4.74-4.4,8.77-12.25,14.31-14.91,8.27-4,16.09,2,24.23-4,10.25-7.52,14.78-24.23,21.81-36.55q2.32,6.76,4,13.77a146.51,146.51,0,0,1,2.77,14.58,137.2,137.2,0,0,1,1,29.49c1.56.13,3.11.27,4.67.43l26.07,4.72c17.36,4.55,40,12.7,50.66,31.06a28.43,28.43,0,0,1,.2,30.17c13.1-2.22,23.23,12.41,21.66,32.6-1,12.58-6.51,27.32-18.7,41.47-10.32,12-25.42,23.55-46.59,33-15.22,6.83-30.35,13.47-45.66,19.3-17.95,6.82-36.14,12.54-55,16.14l-3.06.57c25.13-1.67,50.28-3.39,75.36-5.9q11-1.11,22-2.43c24.11-2.94,48.18-6.39,72.33-8.78Z" transform="translate(0 -56)" fill="#a3a29b"/><path d="M1281.6,698.72c-12.16-12.71-22.68-48.59-24.91-66.69L1244.24,679c-14.93,10.35-21,74.16-3.51,86,12.6,8.53,39,3.84,53.76,5.49,19,2.12,33.24,7.58,49.07,17.79,9.06-20.26,14.72-39.49,25.21-60.39,10.82-21.56,24.11-44.76,31.58-66.94-15.86,11.88-33,25.81-50.8,34.18C1328.92,704.79,1299.93,688.12,1281.6,698.72Z" transform="translate(0 -56)" fill="#7f7e77"/><path d="M1400.43,660.69a2.09,2.09,0,0,0-.08.23l.17-.13C1401.21,660.1,1401.18,660.07,1400.43,660.69Z" transform="translate(0 -56)" fill="#725748"/><path d="M1879.31,546.26c-1,12.58-6.51,27.32-18.7,41.47-7.44-.34-16.13-1.06-18.84-.73-34.2,4.12-78.7,25.53-108.48,19.66-12.58-2.47-27.21-10-40.56-5.48-11.17,3.76-17.19,15.22-27,22.54-10.27,7.64-20.58,15.46-29.8,22.49-9.91,7.57-27.56,7.71-34.28,17.11l-40.92,2c16.61-6.39,38.66-27.62,51.73-41.85,14.64-15.94,17.18-37.14,27-49.78,6.82-29.42,58.6-25.3,68.94-33.54,17.54-14,39.5,9.65,60.48,1.95,31.38-11.5,64.49-22.49,93-42.48a29.72,29.72,0,0,1-4.22,14.08C1870.75,511.44,1880.88,526.07,1879.31,546.26Z" transform="translate(0 -56)" fill="#7f7e77"/><path d="M1498.36,857.34c-11.95,32.4-26.56,64-40.76,95.6q-9,.62-18.1,1.14-16.37.93-32.77,1.63c-.33-.93-.66-1.84-1-2.75a55.33,55.33,0,0,0-19.15-25.17c-19.49-14.18-57.39-25.45-71.68-44.84-8.65-11.72-1.46-26.88-13.71-35.77-10.45-7.6-33.29-10.06-46.21-14.14-16.12-5.09-31-9.14-41.55-17.15-1.67-18.38-10.05-37.81-9.72-55.63.41-21.91,12.42-24,24.74-43a25.74,25.74,0,0,0,2.85-6.3c16.08,18.59,27.93,39.23,50.23,52.15,10.5,6.09,30.1,19.42,41.5,14.27,6.2-2.81,123.55-141.26,169-141.26,87.75,0,171.92-12.7,177.4-17.74.85,11.69-121,140.82-121,140.82s-142.71,45.06-133.42,45c4.64,0,31-12.17,35.58-15.64,8,20.79-27.2,25.48-7.21,36.73C1461.88,835.63,1481,843.64,1498.36,857.34Z" transform="translate(0 -56)" fill="#7f7e77"/><path d="M1651.15,605c-10.12,8.33-18.43,20.77-26.07,32.31-.17-2.19-.57-4.73-.71-7-6.59,3.14-12.15,10.09-16.14,16.72-3.39-9.69-4.55-19.9-5.2-30.4-10.39,11.11-9.71,31.74-19.22,43-5.81-3.79-11.93-7.53-17.82-11.1-.47.54-1,1.06-1.43,1.58,1.74,6,3.6,12.9,4.7,18.86-9.49-3.83-18.26-10.66-27.87-14.67,1.09,10.35,7.53,21.62,15.12,28.69-12.47-4-33.07-4.24-45.46.3,13.15,15.36,37,27.71,53.19,38.73l76.5-45C1635.46,648.06,1640.3,631.36,1651.15,605Z" transform="translate(0 -56)" fill="#b7b16c"/><path d="M1446.15,542.46a337.53,337.53,0,0,0-20.9,34.76c-4.93,9.56-10.44,26.52-18.73,33.4-7.43,6.16-17.84,4.91-27.08,8.1-20,6.93-30.3,17.25-51.59,17.23-20.09,0-38.52,1.14-58.44,2.25-2.47,22.27-17.58,48.25-26.78,67.62,12.89,10.57,21.58,27.18,29.85,41.17-16.61,7.34-24.08,12.34-26.81,23-1.45,5.63-1.57,12.85-1,22.85s5.66,31.15,1.37,40.63c-4.48,9.89-17.19,11-28.46,13.26-24.9,5-54.67,1-77.88,10.65-17.06,7.12-30.83,29.81-40.77,50.24-2.3,4.74-4.39,9.35-6.27,13.62-3.77-1.87,2,6.86-4,7.24-7.35.47-4.63,14.72-4.43,24.43-40-1.65-80.08-3.52-120.13-5.31Q950.5,947,937,946.41l-28.74-1.22-7.87-.32c2.51-3,5.12-5.21,6.33-7.29,17.34-29.78,28.5-27.91,40.47-41.51,14.69,9.4,30.45,21.95,47.64,21.94,14.81,0,44.24-25.27,59.1-23.9a116.67,116.67,0,0,1,31.45,7.72c12.28-25.61,26.82-50.54,36.15-64.44,24.91-9.78,76.67-17.67,92.12-18.53-.81-16.5-7.79-34-9.54-50.45a66,66,0,0,1-.39-8.15c.41-21.91,12.42-24,24.74-43,13.52-20.93-2.89-87.81,20.27-98,8.25-3.64,33.51,10.1,44.57,9a184.39,184.39,0,0,0,25.79-4.79c10.93-2.86,12.17-6.5,21.88-11.2,17.25-8.36,28.74-4,43-14.67,10.64-7.93,25.75-19.25,35.41-29C1433,555,1433.11,546,1446.15,542.46Z" transform="translate(0 -56)" fill="#c1beaa"/><path d="M1880,639.66V796.39c-6.87,5.7-13.93,11.09-20.94,16.27,7,0,14-.32,20.94-1v33.48l-14.18,12.41-3.77,3.05-1,.85-2.87,2.27-1.44,1.13-3.07,2.38-3.09,2.36-.85.64c-1,.73-1.91,1.44-2.87,2.16l-.79.58c-1.08.81-2.17,1.61-3.26,2.41-2.43,1.79-4.88,3.54-7.33,5.28-1.33.93-2.66,1.87-4,2.79l-2.81,1.94c-.29.21-.59.41-.89.61l-3.34,2.26-.25.17c-1.12.75-2.24,1.5-3.37,2.24l-3.69,2.43c-1.5,1-3,2-4.53,2.92-1.28.82-2.56,1.64-3.86,2.44l-2.14,1.34-1.86,1.16c-.91.56-1.81,1.12-2.71,1.66-1.15.71-2.3,1.41-3.46,2.1-1.5.91-3,1.81-4.51,2.7-10.84,6.41-22.08,12.94-33.63,18.46a165.76,165.76,0,0,1-26.92,10.39c-18,5-36.19,6.07-54.44,6.07q-2.44,0-4.89,0l-4.24,0c-6.41-.09-12.82-.26-19.24-.37l-3.79-.06-3.67,0h-3.66c-24.41,0-48.94,1.5-73.38,3.14-7.26.49-14.53,1-21.77,1.45q-10.47.67-20.92,1.47c-11.73.88-23.44,1.85-35.15,2.78l-9.52.76q-10.57.82-21.18,1.57-9,.62-18.11,1.15-16.37.93-32.77,1.62l-2.51.1-.39,0,.41-.62q.72-1.12,1.47-2.25c1-1.55,2-3.1,3.09-4.62q1.32-1.94,2.66-3.8l.23-.32c3.4-4.72,6.31-8.5,8.64-11.89,7-10.19,8.65-16.76,2.24-34.31-8.39-23-22.16-42.25-31.12-64.44-8-19.91-12.41-24.31,0-39.32,2.35-2.83,4.84-5.58,7.41-8.29,9.89-10.39,21-20.07,30.29-30.72,14-16.1,16.28-23.19,35.63-23.91,19.88-.74,21-1.79,31.53-21.07,6.81-12.52,37.7,6.85,46.54-3.92,28.19,19.53,31.38-34.26,60.69-46.5,16.84-7,25.74-4.22,32.42-20,6.19-14.62,4.41-33.63,8.41-48.9,5.58-21.31,12.7-13,30.43-17.5,11.81-3,23-11.82,35.48-13.89,14.57-2.43,29.64,1.66,42.6,6,9.69,3.26,25.17,14.76,34.34,15.2,13.82.65,38.77-15.17,52.93-19.6,6.73-2.11,23.87-10.12,39.11-14.93-1.81,23.23-19.13,53.82-65.29,74.5-15.22,6.83-30.35,13.47-45.66,19.3-17.95,6.82-36.14,12.54-55,16.14l-3.06.57c25.13-1.67,50.28-3.39,75.36-5.9q11-1.11,22-2.43C1831.78,645.5,1855.85,642.05,1880,639.66Z" transform="translate(0 -56)" fill="#a3a29b"/><path d="M1264.53,744.29c-10.9,5.27-21.73,11.55-33.2,16-10.07,3.88-18.76,1.6-26.91,8.87-1.78,31.28,12.38,61.65,5.56,76.86l94.87-31.29c13.41-16.24,34.87-49.39,41-65.13C1329.18,739.67,1281.8,735.93,1264.53,744.29Z" transform="translate(0 -56)" fill="#c1beaa"/><path d="M1408.51,926.56c-.49,3.17-1.14,6.36-1.79,9.65-.68,3.46-1.35,7-1.83,10.82-.31,2.43-.54,5-.64,7.61,0,.19,0,.38,0,.57s0,.4,0,.6l-.39,0q-8.91.38-17.84.67-25.7.87-51.41,1.22c-52.74.72-105.48,0-158.2-1.51q-26-.74-52.06-1.72-29.34-1.1-58.68-2.37c.14-.53.28-1.07.43-1.61,2.56-1.32,5.07-2.69,7.52-4.13,23.61-13.85,47.77-23.4,75-27.28,30.39-4.34,54,13,83.22,6.36,35.82-8.09,68.24-15.92,104.69-18,.88-19.78,1.53-52.39-6.85-68.15l74.72,56.71C1410.08,907.69,1410,917.05,1408.51,926.56Z" transform="translate(0 -56)" fill="#7f7e77"/><path d="M1880,796.39c-6.87,5.7-13.93,11.09-20.94,16.27,7,0,14-.32,20.94-1v33.48l-14.18,12.41-3.77,3.05-1,.85-2.87,2.27-1.44,1.13-3.07,2.38-3.09,2.36-.85.64c-1,.73-1.91,1.44-2.87,2.16l-.79.58c-1.08.81-2.17,1.61-3.26,2.41q-3.65,2.67-7.33,5.28c-1.33.93-2.66,1.87-4,2.79l-2.81,1.94c-.29.21-.59.41-.89.61l-3.34,2.26-.25.17c-1.12.75-2.24,1.5-3.37,2.24l-3.69,2.43c-1.5,1-3,2-4.53,2.92-1.28.82-2.56,1.64-3.86,2.44l-2.14,1.34-1.86,1.16c-.91.56-1.81,1.12-2.71,1.66-1.15.71-2.3,1.41-3.46,2.1-1.5.91-3,1.81-4.51,2.7-10.84,6.41-22.08,12.94-33.63,18.46a165.76,165.76,0,0,1-26.92,10.39c-18,5-36.19,6.07-54.44,6.07q-2.44,0-4.89,0l-4.24,0c-6.41-.09-12.82-.26-19.24-.37l-3.79-.06-3.67,0h-3.66c-24.41,0-48.94,1.5-73.38,3.14-7.26.49-14.53,1-21.77,1.45q-10.47.67-20.92,1.47c-11.73.88-23.44,1.85-35.15,2.78,9.44-11.07,18.53-22.93,24.65-31.12a164.37,164.37,0,0,0,9.68-15.62c5.35-9.24,11-18.63,18.6-23.45,15-9.54,43.43-11.08,60.48-13.74,17.57-2.73,32.93-6.8,49.6-10.06,4.59-10.87,8.86-29.64,16.71-38.31,9.84-10.86,28.29-9.87,42.34-16.56,32.75-15.57,21.89-40.34,21.58-71.64,23.53-5.56,46-14.19,68.66-23.32,15.17-6.12,37.84-20.75,53.38-22.43,8.8-1,17.51,4.54,26,10.72Z" transform="translate(0 -56)" fill="#7f7e77"/><path d="M1139.75,476.5c-3.31,2.45-12.68-.17-17.46.28-6.65.61-14.44,2.2-20.34,5.26-11.51,6-18,18.23-23.32,30.44-1.33,2.84-4.28,8.08-4.79,10.45-12.11,21.76-18.37,30.1-30.48,51.75-6.33,11.31-14.61,22.94-9,36.54,4.43,10.74,16.58,19.5,26.49,24,9.09,4.1,22.62,8.86,31.42,4,10.89-6,19.71-24.74,25.69-36.21,9.33-17.92,12.56-37.11,18.51-56.22,4.41-14.17,12.56-32.11,12.9-46.76Z" transform="translate(0 -56)" fill="#0d7c8e"/><path d="M1120,469.86c-22.72,5.2-52.61,25.37-58.67,53.58,8.12,4.52,34.56,16.06,38.84,11,3.39-4,37.16-51.11,52.39-58.69Z" transform="translate(0 -56)" fill="#19bff2"/><path d="M1086.12,500c5.8,1.78,12,.24,17.83-1.35q11.33-3.07,22.56-6.43c1.9-.56,3.8-1.14,5.69-1.71l4.5-1.39,3.51-1.09.42-.13,1.6-.51,3.34-1.06,1-.33.55-.18,3.78-1.23q10.15-3.31,20.23-6.85c3-1.05,6-2.12,9-3.2l5.23-1.9q2.82-1,5.63-2.1l2.35-.88c3.85-1.46,8-3.22,10.09-7.07,2.78-5.16.7-11.69-1.42-17.2-.68-1.76-1.39-3.57-2.2-5.3-1.67-3.59-3.77-6.87-6.89-8.87-4.63-3-10.4-2.36-15.69-1.48-.74.12-1.47.25-2.21.39q-3.49.6-7,1.34l-1.24.25c-2.15.46-4.31.94-6.45,1.44q-5.58,1.32-11.12,2.85c-6.54,1.79-13,3.79-19.48,5.91-2.19.71-4.37,1.45-6.55,2.19q-4.12,1.41-8.24,2.88c-2.08.74-4.17,1.48-6.25,2.24l-8,2.95c-6.41,2.37-13.26,4-18.65,7.56-4.44,2.93-7.88,7.21-9.28,14.36C1070.65,484.79,1076.52,497.07,1086.12,500Z" transform="translate(0 -56)" fill="#fcc11a"/><path d="M1076.24,472.73c.74-4.72,4.33-9.29,9-8.43,5.44,1,10.79,6.55,13,11.88,1.83,4.41,2.85,10.54-.22,14.65-2.91,3.88-7.23,2.39-10.19-.5-3.75-3.64-7.22-9.74-6.23-15.46.72-4.15,3.77-5.77,6.94-3.41s7.22,9,5,13.09c-2.75,5.05-6.37-3.21-7.07-5.7-.26-.94,1-1.52,1.46-.65.86,1.77,1.33,4.2,3,3.11,1.89-1.23-.93-5.12-1.92-6.38-1.56-2-4.3-4.6-5.43,1.93-.36,2.09,1,4.83,1.88,6.61,2.18,4.25,8.67,12.35,12.19,3.52,1.52-3.8-.45-9.21-2.47-12.43s-5.82-6.59-9.38-7.59c-7.31-2.07-8.47,7.83-7.63,13.19.91,5.79,5.88,12.68,11.17,14.57.34.12.29.77-.1.72C1080.41,494.43,1074.88,481.34,1076.24,472.73Z" transform="translate(0 -56)" fill="#9e7910"/><path d="M1086.11,500c5.81,1.78,12,.24,17.84-1.35q11.31-3.07,22.57-6.43l5.68-1.71q26.79-8.16,53.17-17.87c1.88-.7,3.76-1.39,5.63-2.1l2.35-.88c3.85-1.46,8-3.22,10.09-7.08,2.78-5.15.7-11.68-1.42-17.19-.68-1.76-1.39-3.56-2.2-5.3a17.09,17.09,0,0,1-5,8.89,28,28,0,0,1-7.12,4.95c-1.72.89-3.54,1.68-5.38,2.41-4,1.59-8.2,2.89-11.69,4.29a161.93,161.93,0,0,1-29.77,8.79c-4,.73-8.06,1.67-12.14,2.61-1.9.43-3.81.87-5.72,1.29a104.64,104.64,0,0,1-20.61,2.92c-2.2-10.1-11.41-15.46-20.34-16.5-4.44,2.93-7.88,7.21-9.28,14.36C1070.65,484.79,1076.52,497.07,1086.11,500Z" transform="translate(0 -56)" fill="#967311" opacity="0.4" style="mix-blend-mode:multiply"/><path d="M1173,459.73a96.4,96.4,0,0,1,3,16.31c1.88-.71,3.75-1.42,5.61-2.15a104.44,104.44,0,0,0-3.06-16.13c-.23-.85-.47-1.69-.73-2.52A92.09,92.09,0,0,0,1168,433.6c-.37-.6-.77-1.23-1.19-1.88-2.15.46-4.31.94-6.45,1.44,1.36,1.82,2.42,3.46,3.05,4.49a83.75,83.75,0,0,1,9,20.1C1172.62,458.4,1172.8,459.06,1173,459.73Z" transform="translate(0 -56)" fill="#39303d"/><path d="M1137.51,470.07a81.35,81.35,0,0,1,3.12,17.83c0,.06,0,.12,0,.18,2-.59,4-1.19,6-1.81a2.45,2.45,0,0,0,0-.27,88.14,88.14,0,0,0-3-17.12c-.2-.7-.41-1.39-.63-2.08a78,78,0,0,0-9.67-20.11c-1-1.45-2.16-3.1-3.52-4.77-2.19.71-4.37,1.45-6.55,2.19a52.89,52.89,0,0,1,5.16,6.55,70.83,70.83,0,0,1,8.55,17.5C1137.12,468.79,1137.32,469.43,1137.51,470.07Z" transform="translate(0 -56)" fill="#39303d"/><path d="M1171.37,470.84c-17.95,2.35-29.81-11.4-41.65,9.72-12.2,21.76-17.56,48.42-24.13,72.59-7.1,26.1-28.8,46.15-42.11,69.12a276.4,276.4,0,0,1,14.21,32.51h0c6.67.13,10-4.08,14.87-9.72,14.44-16.56,30-28.67,49.32-37.12,10.54-4.6,22.65-12.71,33.69-13.25,2.25-11.52,5.05-22.43,10-33.3,4.52-10,11.68-18.42,16.09-28.47,4.84-11,1.48-21.81-.54-33.67-2-11.7-.69-23.8-3-35.32Z" transform="translate(0 -56)" fill="#ff421d"/><path d="M1107.79,763a154.09,154.09,0,0,0-24.54,3.31l-.58.14c-2.92,5.47-11.4,20.19-16.45,39.48-7.46,28.45-5.49,41.45-8.88,92.26,4,1.15,10.21,1.5,14.52-3-1.29-15.28,35.69-94.71,47.91-132.64C1115.77,762.62,1111.78,762.76,1107.79,763Z" transform="translate(0 -56)" fill="#ffb278"/><path d="M1133.66,458.47c9.39-11.46,28.08-12.44,24.07-31.05l11.51,13.87c5.34,9.72,12.08,30.82.66,38.56-4,2.69-28.77,10.4-26.2,16.19C1135.32,487.22,1122.2,472.46,1133.66,458.47Z" transform="translate(0 -56)" fill="#4f2d34"/><path d="M1305.17,364.6c-11.36,14.7-45.48,60.12-52.8,67.28-11.09,10.86-23.64,18.05-36,27.08-2.55,1.86-5.17,3.54-7.53,5.52L1222.2,490c.19-1.32,6.33-5.21,8.38-6.93,3.81-3.22,8-5.71,11.89-8.71,6.18-4.74,13.91-10.13,19.09-16.37,7.75-9.34,39.44-48.62,51.78-83.71C1311.83,371.78,1306.6,367.09,1305.17,364.6Z" transform="translate(0 -56)" fill="#ffb278"/><path d="M1233.79,446.71c-13.41,9.39-32.11,9.34-44,21l5.08,45.14c2.29-6.54,13.28-12,18.69-14.92,7.78-4.19,14.89-7.92,22-13.66a48.39,48.39,0,0,0,6.55-6.18A247.87,247.87,0,0,0,1233.79,446.71Z" transform="translate(0 -56)" fill="#ff421d"/><path d="M1235.08,444.34l-11.78,7.56c2.59,4,6,30.56,8,36.06,3.13-2.09,10.5-7.8,11-12.13S1236.26,449.86,1235.08,444.34Z" transform="translate(0 -56)" fill="#ff624d"/><path d="M1070.29,654.28c5.29,19.65,4.45,100.08,3.11,112.5-.92,8.48.51,7,8.7,8.42,6.28,1.09,12.46,2.47,18.8,2.95a121.79,121.79,0,0,0,17-.5c18.78-48.72,13.65-131.15,15.4-140.6Z" transform="translate(0 -56)" fill="#203a49"/><path d="M1163.13,481.09c3,1.7,16.81,6.06,26,5,7.5-5.45,6.89-10.71,5.77-16.68a21.07,21.07,0,0,0-.87-2,28.23,28.23,0,0,1-1-6.32c-.16-2.46-.19-4.91-.4-6.88a40.36,40.36,0,0,0-.59-5L1158.8,443c2.12.53,5,5.38,7.22,10C1167.48,456,1165.4,479.68,1163.13,481.09Z" transform="translate(0 -56)" fill="#ffb278"/><path d="M1158.8,443c2.12.53,5,5.38,7.22,10a83.22,83.22,0,0,0,8.82,5,37.28,37.28,0,0,0,18.26,3.11c-.16-2.45-.19-4.91-.4-6.87a44.85,44.85,0,0,0-.58-5.05Z" transform="translate(0 -56)" fill="#e5804e"/><path d="M1137.19,408.46l11.53,5.6,1.1.53a16.74,16.74,0,0,1,3.7-1.69c5.75-1.89,13.45-1.87,18.77-1.54a65.3,65.3,0,0,1,8.47,1.44c5.53,1.16,10.55,2.21,9.7-.39-6.33-19.42-17.15-26.69-28.8-26.73C1140,385.6,1139.15,406,1137.19,408.46Z" transform="translate(0 -56)" fill="#663d43"/><path d="M1146.75,426.92a45.93,45.93,0,0,0,1.86-10.53c.07-.76.1-1.54.11-2.33,0-3.41-.34-7-.22-10.38a27.62,27.62,0,0,1,12-9.16c5-1.77,11.48,1.59,18.5,7.4,6.07,5,9.75,8.84,15.9,15.81,5,5.7,6.91,21.69,7.16,30,.26,8.53-19,10-25.67,9.61s-11.06-2.38-15.35-6.92q-.63-.67-1.26-1.41A72.87,72.87,0,0,1,1146.75,426.92Z" transform="translate(0 -56)" fill="#ffb278"/><path d="M1163.18,426.5a1.63,1.63,0,0,1,.92,1.53c.78-.94,1-2.47.08-3.1.51.33,1,.72,1,1.38a2.56,2.56,0,0,0,.93-2.36c.82,1.58-.08,2.37-.32,3.83l-1.4,3.67C1163.59,430.1,1164.6,427.49,1163.18,426.5Z" transform="translate(0 -56)" fill="#5b2500"/><path d="M1168.31,426.8c2.94.55,6.16,3.25,6.16,3.25.53.29.57.15,1,.61a28.58,28.58,0,0,0-8.23,8.7C1165,436.73,1161.45,425.5,1168.31,426.8Z" transform="translate(0 -56)" fill="#e5804e"/><path d="M1167.13,437.23a6.93,6.93,0,0,1,1.26-1.92,29.55,29.55,0,0,1,5.42-4.73,3.08,3.08,0,0,1,.76-.41,5.35,5.35,0,0,0-1-.81h0c-2-1.4-6.2-3.6-7.22-2.31s-1.07,3.19-.67,5.33A29.49,29.49,0,0,0,1167.13,437.23Z" transform="translate(0 -56)" fill="#fff"/><path d="M1165.66,432.37a11.16,11.16,0,0,0,2.73,2.94,29.55,29.55,0,0,1,5.42-4.73,10.62,10.62,0,0,0-.26-1.22h0c-2-1.4-6.2-3.6-7.22-2.31S1165.26,430.23,1165.66,432.37Z" transform="translate(0 -56)" fill="#121619"/><path d="M1167.64,431.56c.27.51.71.79,1,.62s.28-.74,0-1.25-.71-.79-1-.62S1167.37,431,1167.64,431.56Z" transform="translate(0 -56)" fill="#fff"/><path d="M1179.72,411.72a1.85,1.85,0,0,1,.91,1.54,2.29,2.29,0,0,0-.1-3,2,2,0,0,1,1,1.4,2.31,2.31,0,0,0,.7-2.21c.81,1.58.06,2.28-.07,3.67l-1,3.44C1180.31,415.21,1181.05,412.78,1179.72,411.72Z" transform="translate(0 -56)" fill="#5b2500"/><path d="M1184.46,412.26c2.26,1.1,4.6,4.14,4.6,4.14.4.37.44.25.72.73a18.51,18.51,0,0,0-7,5.93C1181.17,420.29,1179.18,409.7,1184.46,412.26Z" transform="translate(0 -56)" fill="#e5804e"/><path d="M1182.85,421.18a4.79,4.79,0,0,1,1.11-1.43,19,19,0,0,1,4.55-3,2.27,2.27,0,0,1,.62-.2,5.78,5.78,0,0,0-.74-.92h0c-1.5-1.65-4.62-4.45-5.5-3.53s-1,2.59-.87,4.55A32,32,0,0,0,1182.85,421.18Z" transform="translate(0 -56)" fill="#fff"/><path d="M1182,416.61a12.24,12.24,0,0,0,1.94,3.14,19,19,0,0,1,4.55-3,11.24,11.24,0,0,0-.12-1.12h0c-1.5-1.65-4.62-4.45-5.5-3.53S1181.85,414.65,1182,416.61Z" transform="translate(0 -56)" fill="#121619"/><path d="M1183.62,416.3c.17.51.5.85.73.75s.27-.58.09-1.09-.5-.84-.73-.75S1183.44,415.79,1183.62,416.3Z" transform="translate(0 -56)" fill="#fff"/><path d="M1172.85,408.09c-.49-4.61,4.34-5.51,7.3-3.15-1.69-1-2.9.05-3.81,1.48C1175.92,407.08,1173.15,410.32,1172.85,408.09Z" transform="translate(0 -56)" fill="#121619"/><path d="M1163.13,419.72c-4.33-1.66-8.07,4-7.43,8.12,0-2.28,1.74-3.5,3.72-4.27C1160.33,423.22,1165.19,420.62,1163.13,419.72Z" transform="translate(0 -56)" fill="#121619"/><path d="M1187.19,430.89c-2.73-1.05-5.69-3.56-6.58-5.29,0,0,5.87,4,8.22,4.18-.72,1.87-.93,4.22-3.24,4.31A3.07,3.07,0,0,0,1187.19,430.89Z" transform="translate(0 -56)" fill="#e5804e"/><path d="M1133.33,438a28.2,28.2,0,0,0,5.19,5.22c7.93,6.06,17.8,6.7,27.16,7.6-5.49-7.87-12.68-11.5-14.87-22.38-1.2-6,1-9.08,2.48-14.51.09-.34.17-.69.23-1.05a14.27,14.27,0,0,0-.07-6c-.38-1.55-1.37-7.39-1.34-7.53a16.13,16.13,0,0,0-2.92-.5l-.31,0a20,20,0,0,0-5.92.39c-5.36,1.18-11.72,5-15.09,16a23,23,0,0,0,1,14.92A32.29,32.29,0,0,0,1133.33,438Z" transform="translate(0 -56)" fill="#663d43"/><path d="M1148.5,403.68a27.62,27.62,0,0,1,12-9.16c5-1.77,11.48,1.59,18.5,7.4l0-.4c.32-3.1-7.94-8.59-10.77-9.95-4.25-2.05-9.23-1.27-13.32.67a10.09,10.09,0,0,0-5.74,6.63A18.68,18.68,0,0,0,1148.5,403.68Z" transform="translate(0 -56)" fill="#4f2d34"/><path d="M1133.33,438a28.2,28.2,0,0,0,5.19,5.22c7.93,6.06,17.8,6.7,27.16,7.6-6.31-15.06-12.68-11.5-14.87-22.38-1.2-6,1-9.08,2.48-14.51.09-.34.17-.69.23-1.05a14.27,14.27,0,0,0-.07-6c-.38-1.55-1.37-7.39-1.34-7.53a16.13,16.13,0,0,0-2.92-.5l-.31,0c-1.64,5.37,1.09,11.39-.38,17.08-1.83,7.09-8.49,13.33-15.2,14.18a18.47,18.47,0,0,1-4.46,0A32.29,32.29,0,0,0,1133.33,438Z" transform="translate(0 -56)" fill="#4f2d34"/><path d="M1153.15,455.27c-1.7-2.8-1-6.91,2-7.86,8.88-2.8,11.58,5.74,11.58,5.74,1.47,3-2.43,6-4.75,6.28A10,10,0,0,1,1153.15,455.27Z" transform="translate(0 -56)" fill="#ffb278"/><path d="M1158.11,449.23c1.6.65,4.85,2.39,4.85,2.39,1.72,1.94-2.66,4.73-4.58,2.32-.86-1.08-.39-2.95-2.2-2.71-1.25.17-1.65,1.6-1.52,2.8C1152.79,451.75,1155.59,448.22,1158.11,449.23Z" transform="translate(0 -56)" fill="#e5804e"/><path d="M1193.55,435.55l-.06.28a1.46,1.46,0,0,0-.07-.19Z" transform="translate(0 -56)" fill="#e5804e"/><path d="M1186.68,440.42c1.76.9,4.17,2.8,6,1.5a3.37,3.37,0,0,0,1.27-2.55,8.65,8.65,0,0,0-.5-3.54,5.81,5.81,0,0,1-.87,2.13A5.53,5.53,0,0,1,1186.68,440.42Z" transform="translate(0 -56)" fill="#e5804e"/><path d="M1186.68,440.42c1.76.9,4.17,2.8,6,1.5a3.37,3.37,0,0,0,1.27-2.55,12.18,12.18,0,0,1-1.37-1.41A5.53,5.53,0,0,1,1186.68,440.42Z" transform="translate(0 -56)" fill="#fff"/><path d="M1176.89,481.18c-4.86-2.44-6.79-6.41-11.73-8.45l-3.9,9.12c3.27,8.53,11.73,13.09,16.63,20.23,4.54-2.16,7.07-12.66,12.21-16.08C1186.11,484.15,1181.19,483.34,1176.89,481.18Z" transform="translate(0 -56)" fill="#ff624d"/><path d="M1199.05,582.81c-4.64-7.62-11.31-6.27-21.13-4.46-5.07.94-18,4.51-20.18,3.12l2.45,48.42c2.87-1.61,11.35-7.09,14.43-7.61.63,1.57-.55,22.19,5.74,45.44,7.69,28.37,12,30.16,34.05,74.95,3.89-1.38,10.74-.58,12.15-6.94C1220.66,722.78,1209.35,599.74,1199.05,582.81Z" transform="translate(0 -56)" fill="#ffb278"/><path d="M1159.64,476c-6.32-7.37-14.17-11.23-23-11.41-.55,2.72-1.08,5.45-1.63,8.17,7.5-.29,14,2.67,19.24,8.84,9.4,11,13.55,31.58,9.65,47.94-10.17,42.74-57.24,53-77.34,57.43-5.53,1.21-8,1.79-9.59,2.7l3.5,7.21A63.77,63.77,0,0,1,1088,595c3.43-.75,7.6-1.66,12.22-2.85,24.32-6.29,61.33-20.46,70.86-60.53C1175.64,512.48,1170.83,489.1,1159.64,476Z" transform="translate(0 -56)" fill="#39303d"/><path d="M1166.68,634.6c0-6.05,1.83-17.29,1.32-23.32-.75-8.71-2-18-3.78-28.22-.54-3.23-1.12-6.45-1.69-9.67a101.68,101.68,0,0,0-18.39,7.26c-11.39,5.92-22.77,12.21-33.6,19.14-5.14,3.3-10,6.72-14.89,10.56-2.71,2.13-6.76,5.71-10.16,6L1064,619.51c-4.23,1.65-11.21,21.37-11.58,31.54-.58,16.05,10.31,27.86,25,31,12.92,2.79,26.9-11.63,38.24-17.63C1126.47,658.71,1148.44,653.14,1166.68,634.6Z" transform="translate(0 -56)" fill="#2b4960"/><path d="M1132.9,640.5c8.95-4.06,19.38-9.91,24.3-13.73,3.33-10.36-5.7-28.88-10.15-29.62-5.73-.95-34.74,13.15-38.41,15.79a2.79,2.79,0,0,0-.58.51c-1,1.15.88,1.52-.56,2.17l.45,1.16,13.63,28A69.55,69.55,0,0,0,1132.9,640.5Z" transform="translate(0 -56)" fill="#203a49"/><path d="M1132.9,640.5c7.62-5.66,12.25-15.52,5.11-24-3.6-4.29-9-6-14.47-6.31a28,28,0,0,0-9.92,1.39c-1.47.43-3.78,1.42-5.56,1.88a5.81,5.81,0,0,1-1.62.23l1.51,3.1,13.63,28A69.55,69.55,0,0,0,1132.9,640.5Z" transform="translate(0 -56)" fill="#49190d" opacity="0.4" style="mix-blend-mode:multiply"/><path d="M1118.14,646.74c-5.31-.74-5.65-1.94-7.86-6.61-8.85-18.64-3.77-26.31-3.77-26.31C1113.82,615,1126,621,1126,621l3.64,25.45S1122.17,647.29,1118.14,646.74Z" transform="translate(0 -56)" fill="#203a49"/><path d="M1271.14,620l-.65-.29A1.1,1.1,0,0,0,1271.14,620Z" transform="translate(0 -56)" fill="#e5804e"/><path d="M1295.63,624.81c-1.15-2.42-5.74-2-7.69-2.62-3-.86-5.73-2-8.73-2.56-1.62-.33-6.26.68-8.07.33l17.91,8.12C1291.07,627.83,1297.19,628.07,1295.63,624.81Z" transform="translate(0 -56)" fill="#e5804e"/><path d="M1269.73,619.12l-.66-.26A1,1,0,0,0,1269.73,619.12Z" transform="translate(0 -56)" fill="#e5804e"/><path d="M1294.4,622.67c-1.26-2.36-5.82-1.75-7.79-2.21-3-.71-5.81-1.65-8.83-2.1-1.64-.24-6.23,1-8,.76l18.24,7.16C1290,625.92,1296.1,625.84,1294.4,622.67Z" transform="translate(0 -56)" fill="#e5804e"/><path d="M1283.49,622.46a74.12,74.12,0,0,0-12-5.38c-2.84-.74-7.44,1.92-10.4,3.2-7,3-8.67,3.75-15.83-1-6-4-10.88-11-16.46-15.86a218.9,218.9,0,0,1-32.3-35c-9.4-12.64-15.41-26.73-23.09-40.72-1.58-2.88-3-5.83-4.7-8.51L1145,532.86c1.19.26,4.47,7.17,6,9.49,2.76,4.32,4.85,9,7.41,13.43,4.05,7,8.62,15.71,14.08,21.66,12.52,13.65,27.85,25.22,42.16,36.2,11.05,8.49,27,25.57,41.56,24.65,7.38-.47,12.86-5.37,19.13-8.49,6-3,16.68,2.3,17.94-2.51C1293.76,625.16,1287.8,625,1283.49,622.46Z" transform="translate(0 -56)" fill="#ffb278"/><path d="M1146.86,467.48s-7,0-10.54,4.52c-8.83,11.47-5.6,28.29-3.64,36,3.39,13.35,8.43,23.29,13.63,35.32,7.15-4,15.51-6,22.36-11.09,2-1.51,6.9-4.56,7.49-7.41C1177,521,1161.7,468.35,1146.86,467.48Z" transform="translate(0 -56)" fill="#ff421d"/><path d="M1177,524.72c-.4,4-5.46,7.9-7.59,9.85-7.1,6.5-16.14,8.5-23.66,13.48-1.91-5-3.77-9.68-5.59-14.35,7.73-4,18.17-8,24-13.3,1.35-1.24,6.59-4.49,10.36-7.75C1176.18,519.05,1177.1,523.57,1177,524.72Z" transform="translate(0 -56)" fill="#ff624d"/><path d="M1045.69,556.24c-6.34,10.14-13.06,23.16-15.58,30.47,3,13.4,23.16,27.8,28,25.77,6.22-2.61,26.2-36.49,28.22-41.7a3.91,3.91,0,0,0,.26-.93c.31-1.9-1.79-1.09-.77-2.72l-1.15-1-30.42-21.79A85.89,85.89,0,0,0,1045.69,556.24Z" transform="translate(0 -56)" fill="#1091af"/><path d="M1045.69,556.24c-4.06,11-2.63,24.72,9.55,29.42,6.15,2.37,12.53.78,18.08-2.37a32.17,32.17,0,0,0,8.92-7.84c1.18-1.4,2.85-4,4.33-5.6a6.67,6.67,0,0,1,1.45-1.28l-3.37-2.42-30.42-21.79A85.89,85.89,0,0,0,1045.69,556.24Z" transform="translate(0 -56)" fill="#49190d" opacity="0.4" style="mix-blend-mode:multiply"/><path d="M1056.26,541.73c5.66-2.58,6.73-1.49,11.74,2.19,20,14.65,19.69,26.25,19.69,26.25-7.92,3.36-23.58,4.62-23.58,4.62l-19-25.39S1052,543.69,1056.26,541.73Z" transform="translate(0 -56)" fill="#19bff2"/><path d="M1193.37,465.19c.8,8-2.08,13.45-4.22,20.92l.72-.19c2.58-1,7.15,3.76,8.76,6.11,1.27-4.36,1.11-10.4.56-14.95C1198.7,473,1197.18,465.78,1193.37,465.19Z" transform="translate(0 -56)" fill="#ff624d"/><path d="M1334.58,341.38c-3.27-.7-12.43,6.68-15,8.65-.07-2.86.81-9.33,3.24-11.15s11.08,2.81,10-3.22c-1.53-8.91-19-2.66-23.25-1.26-1.58,9.3.36,23.4-5.16,31.51l3.76,17.57a68.14,68.14,0,0,1,11.49-15.2c4.36-4.26,5.45-9.52,9.13-14.41C1330.56,351.55,1342.77,343.14,1334.58,341.38Z" transform="translate(0 -56)" fill="#ffb278"/><path d="M1072.16,893.3l-14.42-.75c-.23,9.79-3.5,19-.68,29.75,12.06-1.82,23.82-3.57,35.91-7.63C1088.92,911.34,1070.4,898.2,1072.16,893.3Z" transform="translate(0 -56)" fill="#fff"/><path d="M1226.56,735.73l-14.42.67c.58,9.78-1.93,19.3,1.75,29.7,16.57-1.18,32.55-2.78,44.26-8C1253.84,755.16,1225.21,740.78,1226.56,735.73Z" transform="translate(0 -56)" fill="#fff"/><path d="M1335.49,332.49c-2.85-.1-5.6-.91-8.44-1.06-8.16-.44-17.15,2.73-12.53,13.29,2.28,5.22,9.48,11.49,14.41,13.53,5.92,2.44,12-1.9,15.93-7.22,2.42-3.28,12-16.06,11.72-18.54Z" transform="translate(0 -56)" fill="#e5804e"/><path d="M1477.57,223.59l-29.7-15.24c-9.45,18.2-22.47,41.82-37.25,56.53-16.28,16.22-30,37.46-47.76,51.22-3.53,2.72-13.89,8.47-16.59,11.75,2.58,4.31,2.14,11.23,4.68,15.46,42.17-21.51,83.88-56.38,112.45-97.95C1466.11,241.41,1478.23,225.4,1477.57,223.59Z" transform="translate(0 -56)" fill="#ffb278"/><path d="M1361.26,317.55c-6.09,4.12-13.09,9.37-16.87,9.78-5.65.62-13.73-2.06-19.21-2.06-3.61,0-11.89,2.44-13.13,6.69-.39,1.32,1.08,7.51,2.34,7.78,1.87.39,4-4.53,5-5.63,5.81,7.15,9.73,15.06,19.33,10.37,3.59-1.76,18.31-8.65,22.49-9.93Z" transform="translate(0 -56)" fill="#ffb278"/><path d="M1341,349.09c-1.43-3.67-6.49,0-8.56,2.53,1.61-2.47,3.64-7,.71-8.84s-5.89,3.26-7.56,5.47c1.1-2,3.29-8,.89-10-1.48-1.19-3.47-.28-5,1.2,2.07-5.14-3.48-7.59-7.92-1.71-4,5.25.54,14,6.84,13.34-.4,4.6,3.16,5.33,6.56,5.15a9.81,9.81,0,0,0,1.09,5.5c6.07-.48,7.89-3.51,7.89-3.51C1336.09,357.67,1342.15,352,1341,349.09Zm-21.61-6.39,0,0s0,0,0,0C1319.25,342.91,1319.24,342.9,1319.4,342.7Z" transform="translate(0 -56)" fill="#ffb278"/><path d="M1651.21,133.76c-1.06-1.9-7.61-3-9.71-3.87-3.9-1.61-7.68-3.55-11.62-5.17a217,217,0,0,0-24.94-8.61c-3.43-.94-7.78-2.26-11.22-2.09-4.09.21-5.55,2.51-8.93,4.15l50.61,49.46c0-.09,1-1.67,1.52-2.44C1640.5,159.48,1654.57,139.73,1651.21,133.76Z" transform="translate(0 -56)" fill="#601125"/><path d="M1665,187.47c-8.86-13.78-17.15-28.08-29-39.09-11.11-10.33-16.28-15.69-29-23.51-8.59-5.3-20.83-5.51-17.58-16.23,1.41-4.64,2.54-5.52,2.11-14.68-11.24-7-38.28-17.48-54.38-14a133,133,0,0,0-28.27,9.31c-6.64,3.13-16.76,14.16-22.37,13.62l-8.43,42.88c27.82,5.18,55.84,35.43,77,57.06,21.31,21.83,38.29,56.52,46.57,87.69,25.4-6.89,48.56-33.1,63.37-56.39C1676.92,215.44,1676.29,205,1665,187.47Z" transform="translate(0 -56)" fill="#7f192f"/><path d="M1503.89,112.9c-7.3,2.61-22.63,4.59-29.34,6.94-9.57,3.36-21.61,7.88-31.58,4.38-6.07-2.13-8.17-8.84-11.13-16.26-4.34-10.88-1.79-18.48,4.75-22.36A118,118,0,0,1,1448.16,80c2.51-1.11,5.25-2.27,8.11-3.46,9.25-3.84,19.78-8,28.07-11.11,2.82-1.07,5.38-2,7.55-2.83,3.51-1.3,6-2.19,6.82-2.45Z" transform="translate(0 -56)" fill="#423d32"/><path d="M1495.23,104.5l-4.72,4.34c-8.16-10.73-10.14-28.93-6.17-43.4,2.82-1.07,5.38-2,7.55-2.83C1486.59,75.28,1487.62,94.5,1495.23,104.5Z" transform="translate(0 -56)" fill="#798265"/><path d="M1458.57,120.67l-4.71,4.34c-8.46-11.13-10.29-30.29-5.7-45,2.51-1.11,5.25-2.27,8.11-3.46C1449.85,89.08,1450.51,110.06,1458.57,120.67Z" transform="translate(0 -56)" fill="#798265"/><path d="M1664.07,148.2c9.14,11.71,19.09,27,23.11,35.68-2.15,17.14-25.47,38-31.73,36.22-8.07-2.35-37.07-41.63-40.21-47.83a4.51,4.51,0,0,1-.44-1.11c-.62-2.34,2.09-1.63.63-3.51l1.31-1.39L1652,134.65A103.36,103.36,0,0,1,1664.07,148.2Z" transform="translate(0 -56)" fill="#601125"/><path d="M1664.07,148.2c6.4,13.15,6.28,30.42-8.33,38.05-7.37,3.86-15.51,2.81-22.8-.29-4.79-2-8.27-4.85-12.07-8.47-1.65-1.57-4-4.51-6.07-6.33a7.88,7.88,0,0,0-2-1.39l3.9-3.51L1652,134.65A103.36,103.36,0,0,1,1664.07,148.2Z" transform="translate(0 -56)" fill="#49190d" opacity="0.4" style="mix-blend-mode:multiply"/><path d="M1649.15,131.68c-7.37-2.39-8.56-.88-14.37,4.44-23.17,21.2-21.34,35.59-21.34,35.59,10.27,3,29.93,2.3,29.93,2.3L1664,139.59S1654.75,133.49,1649.15,131.68Z" transform="translate(0 -56)" fill="#7f192f"/><path d="M1539.83,68.11c-5.65-12.62-23.56-13.62-34.49-10.83-11.7,3-20.9,12.89-18.88,27.15,1.32,9.3,10.15,41.79,45.31,17.24C1540.79,95.38,1544.65,78.87,1539.83,68.11Z" transform="translate(0 -56)" fill="#423d32"/><path d="M1512.15,75.36a28.83,28.83,0,0,0-1.57-4.13,9,9,0,0,0-.26,5,6.5,6.5,0,0,0-4.16,1.42c2.54,2.92,2.87,2.43,2,6.55a21.7,21.7,0,0,0,3.41-.48c-.06,1.23.34,2.52.33,3.76l3.25-2.22c.13.43,1.05,2.17,1,1.81l2.8,1.81a2.61,2.61,0,0,1,3.43-2.38c-.58-1.36-1.79-2.78-2.36-4.12a7.62,7.62,0,0,1,2.52,0,27.33,27.33,0,0,0-4.4-2.65,10.64,10.64,0,0,1,2.59-2.29c-2.85,0-7.17.11-5.49-4.48A8.22,8.22,0,0,0,1512.15,75.36Z" transform="translate(0 -56)" fill="#28251f"/><path d="M1525.87,82a33.35,33.35,0,0,0-12.24-5l-.18,1.12a33,33,0,0,1,11.8,4.8c11.53,7.84,25.93,9.38,37.59,4l-.5-1C1551,91.08,1537.06,89.59,1525.87,82Z" transform="translate(0 -56)" fill="#798265"/><path d="M1512.56,83.74l-.18,1.12c1.14.1,2.31.21,3.51.39a40.86,40.86,0,0,1,17.4,7c1.19.86,2.37,1.82,3.51,2.75,3.09,2.53,6.28,5.14,10.3,6.18a38.18,38.18,0,0,0,9.4.83,36.33,36.33,0,0,1,9.21.82l.26-1.1a37.61,37.61,0,0,0-9.51-.85,38,38,0,0,1-9.11-.79c-3.77-1-6.72-3.4-9.85-6-1.16-1-2.34-1.92-3.57-2.81a42.05,42.05,0,0,0-17.9-7.22C1514.83,84,1513.68,83.84,1512.56,83.74Z" transform="translate(0 -56)" fill="#798265"/><path d="M1557.22,98.35a3.15,3.15,0,0,1,2.52,3.54,2.9,2.9,0,0,1-3.46,2.39,3.14,3.14,0,0,1-2.52-3.54A2.9,2.9,0,0,1,1557.22,98.35Z" transform="translate(0 -56)" fill="#601125"/><path d="M1554.94,86.07a3.15,3.15,0,0,1,2.52,3.54A2.9,2.9,0,0,1,1554,92a3.13,3.13,0,0,1-2.52-3.54A2.9,2.9,0,0,1,1554.94,86.07Z" transform="translate(0 -56)" fill="#601125"/><path d="M1451,172.78c-8.15,12.49-9.82,28-16,41.73-5.52,12.3-12.57,23.71-18.37,35.37,7,4.07,27.68,24.13,27.68,24.13s25.31-20.48,42.53-66.46Z" transform="translate(0 -56)" fill="#f95858"/><path d="M1495.28,385.29c-1,4.27-6.5,9.8-8.57,14.67a105.79,105.79,0,0,0-6.34,18.39c-2.44,11.14-6,28.82-7.58,40.36-5.12,37.61-7,68.78-9.84,97.37,3.94.65,11.72,5.5,15.5,3.14,2.69-1.67,5.32-14.21,6.86-17.84,4.78-11.32,12.58-36.89,16.3-48.67,7.7-24.39,5.74-37.71,14.94-60.87,4.65-11.71,11.64-24,17.39-34.95Z" transform="translate(0 -56)" fill="#ffb278"/><path d="M1557.14,267.06l-21.09,7.73c-7.6,17.36-21.26,38.64-29.87,58.76-8.46,19.77-17,37.49-19.15,58.39,15.38,5.8,38.79,23.45,50.81,11.48,6.86-6.84,9.7-22.24,14-31.26,5.38-11.22,12.56-21.66,18.24-32.12,9.14-16.81,21.11-35.78,25-54.48C1600,261.34,1575.19,267.06,1557.14,267.06Z" transform="translate(0 -56)" fill="#110e0e"/><path d="M1590.35,450.21c-2.72-12.13-8.66-20.49-14.39-30.74-6.67-11.94-4.91-19.47-.39-32.61a145.14,145.14,0,0,1,7.58-17.79l-42.88-3.1c-3.19,10-11.36,24.07-7.73,34.78C1536.05,411.1,1562,472.67,1570,495a163.74,163.74,0,0,1,6.82,26.33c.69,3.79.67,9.09,4.1,9.83,2.39.52,9.07-4.2,12-4.57C1594,502.35,1595.55,473.31,1590.35,450.21Z" transform="translate(0 -56)" fill="#ffb278"/><path d="M1473.7,161.19c-1.53,3.71-8.86,9-7.94,10l-7,.78c-4.43-2.74-7.18-11.22-13.17-9.56a8.42,8.42,0,0,0-2.29,1.06c-6.34,4-6.33,16.61-16.17,21.25a2.78,2.78,0,0,1-.57-.07c-2.12-.46-3.88-3.38-5.83-4.79-.58.65-1.22,1.13-2.08.85-1.32-.44-1.32-1.95-1.65-3.16l-.22-.21a2.23,2.23,0,0,1-.21.22c-1.54,1.65-1.86,1.94-3.19.44-.15-.18-.35-.38-.57-.6a30.41,30.41,0,0,1-4.13-4.54c-1.57,1.48-3.72,2.43-5.45,3.82-4.61-3.62-2.21-10.37-5.44-14.18-3.06-3.59-7.77-2.45-11.6-7.33-7-8.94-11.43-19.36-8.81-30.95,4.77-21.06,28.45-43.46,47.82-31.27,5.91,3.72,9.85,10.22,15.11,15.07,7.07,6.52,14,6.44,22.67,7.53,6.78.85,6.43.19,8.43,7.72a106.21,106.21,0,0,1,3.55,21.67C1475.19,150.07,1475.63,156.53,1473.7,161.19Z" transform="translate(0 -56)" fill="#ffb278"/><path d="M1403.17,156.84c-1,.57-2,1.2-3,1.89a13.26,13.26,0,0,0-1.76,2.63,11,11,0,0,1,.78.87,11.46,11.46,0,0,1,.84,1.22,6.35,6.35,0,0,0,2-1.26,4.17,4.17,0,0,0,1.38-2.7C1403.43,158.71,1403.85,157.81,1403.17,156.84Z" transform="translate(0 -56)" fill="#e5804e"/><path d="M1398.74,161.74h0c.45-.57.9-1.14,1.37-1.69s1-1.14,1.52-1.68l0,0c.49-.51,1-1,1.5-1.49-.44-1.24-2.12-2.18-3.83-2.23a4.32,4.32,0,0,0-1.72.28,2.59,2.59,0,0,0-.57.3,2.37,2.37,0,0,0-.59.5,4.44,4.44,0,0,0-1.06,3.6A10.34,10.34,0,0,1,1398.74,161.74Z" transform="translate(0 -56)" fill="#fff"/><path d="M1398.74,161.74h0c.45-.57.9-1.14,1.37-1.69a51.75,51.75,0,0,0-3.06-4.86,2.37,2.37,0,0,0-.59.5,4.44,4.44,0,0,0-1.06,3.6A10.34,10.34,0,0,1,1398.74,161.74Z" transform="translate(0 -56)" fill="#30241b"/><path d="M1397.63,158.89c.33.69.78,1.13,1,1s.07-.78-.26-1.47-.75-1.16-.95-1S1397.29,158.2,1397.63,158.89Z" transform="translate(0 -56)" fill="#fff"/><path d="M1399.28,145l2.8,2.85c.19.92-5.44,10.84-6.59,13.11-1.52-.33-5.15-1.22-4.63-3.22C1390.77,155.42,1396.58,146.78,1399.28,145Z" transform="translate(0 -56)" fill="#5b2a15"/><path d="M1419.37,168.66c0,4.89-1.73,6.45-2.43,8-.12.27-.26.59-.4.93-1.54,1.65-1.86,1.94-3.19.44-.15-.18-.35-.38-.57-.6C1414.71,175.73,1417.73,173.55,1419.37,168.66Z" transform="translate(0 -56)" fill="#e5804e"/><path d="M1434.14,99.36c-4.55-4.71-11.15-7.19-17.23-4.63L1402.5,129.5c3.35,1.34,16.36,11.92,19.61,12.31.6-1.23,2.82-2.89,2.92-4.21.09-1.1-2.11-4.24-2.58-5.39-1.41-3.43-2.65-6.43.78-9,5.29-3.94,19.89,3.21,25.66,2.68,2.81-4.38,4.22-7,4.69-11.59C1447.65,112.84,1438.23,103.6,1434.14,99.36Z" transform="translate(0 -56)" fill="#441d10"/><path d="M1434.14,99.36c-4.92,18.94-51.43,50.18-52,50.62,0,0-33.39-61.43,24.27-66.48,5.86-.51,12.63,1.79,18.16,5.5a30,30,0,0,1,8.09,7.78A20,20,0,0,1,1434.14,99.36Z" transform="translate(0 -56)" fill="#2c7cb7"/><path d="M1395.5,138c-.74-3.09-4.1-3.56-6.37-4.63-4.94-2.32-10-5-14.75-7.34l-.35,2.7c-3.76,11-22.28,47-16.87,47.92,18.63,3.08,28.52-20,35-30.23C1393.49,144.4,1396.11,140.61,1395.5,138Z" transform="translate(0 -56)" fill="#2c7cb7"/><path d="M1432.64,96.78c-3.21,2.85-6.59,6-9.49,1-2.06-3.55-.89-6.54,1.4-8.81A30,30,0,0,1,1432.64,96.78Z" transform="translate(0 -56)" fill="#441d10"/><path d="M1443.27,163.51c-6.34,4-6.33,16.61-16.17,21.25a2.78,2.78,0,0,1-.57-.07c7-5.37,10.24-14.57,12.17-23.12,2.34-10.35-.94-23.71-5.27-33.23C1441.24,133.29,1444.08,163,1443.27,163.51Z" transform="translate(0 -56)" fill="#e5804e"/><path d="M1425.67,137.2c-6.89-5.39-6.11-24.73,3.48-18.56,3.55,2.29,7.52,11.14,6.7,16.37-.87,5.56-5.68,5.68-7.27,7.38Z" transform="translate(0 -56)" fill="#ffb278"/><path d="M1427.36,122.23l0,.31c-1.17-.14-2.49,2.11-2.38,3.88.14,2.2,1.08,2.41,2.36,3s6.62,3.72,2.21,5C1423.4,136.27,1421,119.37,1427.36,122.23Z" transform="translate(0 -56)" fill="#e5804e"/><path d="M1627.43,234.6l-52,24.73c-16.72,25.22-49.28,77.75-46.11,115.76,18.82-2.45,38,5.76,53.52,18.08C1607.68,345,1667.25,290.17,1627.43,234.6Z" transform="translate(0 -56)" fill="#161313"/><path d="M1629.58,338.52c-5.14,9.61-12.11,20.73-16.36,25.89-9.84,2.93-24.93-8.38-24.86-13.34.1-6.41,17.58-37.47,20.55-41.34a3.36,3.36,0,0,1,.55-.6c1.2-1.06,1.22,1.08,2-.46l1,.57,22.82,17.08A95.47,95.47,0,0,1,1629.58,338.52Z" transform="translate(0 -56)" fill="#110e0e"/><path d="M1629.58,338.52c-6.35,8-16,12.44-22.38,3.94-3.24-4.29-3.88-10.4-3.24-16.45a39.61,39.61,0,0,1,2.89-10.87c.63-1.6,1.9-4.07,2.61-6a7.92,7.92,0,0,0,.48-1.77l2.53,1.88,22.82,17.08A95.47,95.47,0,0,1,1629.58,338.52Z" transform="translate(0 -56)" fill="#49190d" opacity="0.4" style="mix-blend-mode:multiply"/><path d="M1637.62,322.65c.23-5.92-.79-6.38-4.61-9.16-15.24-11.11-23-6.05-23-6.05-.14,8.16,3.2,22.09,3.2,22.09l22.2,5.85S1637.45,327.14,1637.62,322.65Z" transform="translate(0 -56)" fill="#161313"/><path d="M1580.76,244.07c-.16-3-.34-6.1-.6-9.14-.45.28-.9.56-1.35.82-15,8.75-34.14,11.18-50.18,9.94-23.45-1.81-47.43-7.31-63.83-35-7.7-13-11.91-33.16-13.79-44.72a106.64,106.64,0,0,0-9.15,21.49c.71,12.37,4.53,21.54,10.55,31.69,18.69,31.55,51.17,35.15,75.72,37,2.45.18,5,.29,7.54.31,14.86.12,31.26-2.78,45.2-10.24C1580.83,245.53,1580.8,244.8,1580.76,244.07Z" transform="translate(0 -56)" fill="#39303d"/><path d="M1534.51,282.67l-.57.62A1.34,1.34,0,0,0,1534.51,282.67Z" transform="translate(0 -56)" fill="#f95858"/><path d="M1638,252.37c-.37.25-.75.49-1.13.73-14.9,9.18-39.78,10.44-55.81,16.88-13,5.19-35.85,16.39-50.61,15.63,0,0,3.75-17.95,2.81-21.64-1.5-5.89-6.65-10.93-11.25-13.92-.81-.52-1.67-1-2.56-1.55-9.54-5.38-23.48-9.69-32.58-13.9-15.81-7.33-26-13.32-35-30.33-4.15-7.86-5.52-27,0-32.84,8-8.44,27.24-6.38,13.18-48.11-1.51-4.48-2.55-5-.8-8,.37-.62.86-1.35,1.5-2.25a53.12,53.12,0,0,1,6-7.14c4.91-4.78,10.47-7.49,17.76-7.18,31.67,1.35,61.58,20,87.34,42.23,6.79,5.86,13.3,12,19.48,18.07q2.22,2.2,4.33,4.67c2.09,2.43,4.1,5.06,6,7.82,13.22,19,22.58,44.91,28.13,66.85C1636.06,243.3,1637.12,248,1638,252.37Z" transform="translate(0 -56)" fill="#f95858"/><path d="M1593,519.76l-15.47,1.54c-3.51,17-18.54,29.31-19.68,37.1,9.37-.33,30.42-1.63,38-8.31C1603.86,543,1593.91,527.76,1593,519.76Z" transform="translate(0 -56)" fill="#fff"/><path d="M1636.85,253.1c-14.9,9.18-39.78,10.44-55.81,16.88-13,5.19-35.85,16.39-50.61,15.63,0,0,3.75-17.95,2.81-21.64-1.5-5.89-6.65-10.93-11.25-13.92-.81-.52-1.67-1-2.56-1.55,17.25-8.45,34.37-26.43,42-37.55,15.11-22.13,15-44.89,15.45-70,6.79,5.86,13.3,12,19.48,18.07q2.22,2.2,4.33,4.67c2.09,2.43,4.1,5.06,6,7.82,13.22,19,22.58,44.91,28.13,66.85.5,3.74,1,7.56,1.5,11.47C1636.45,250.87,1636.63,252,1636.85,253.1Z" transform="translate(0 -56)" fill="#cc4242"/><path d="M1481.23,553.76l-17.58-2.32c-3.51,17-21.35,29.31-22.49,37.09,9.37-.32,39.49-6.45,42.17-12.36C1485.44,571.53,1482.15,561.76,1481.23,553.76Z" transform="translate(0 -56)" fill="#fff"/><path d="M1481.93,137.23c-2-3.57-10.31-24.09-14.06-27.82,0,0-7.79,3.93-10.46,5.24.74,6.43,5.18,13.89,6.95,20.26a101,101,0,0,1,3.16,25.5c7.86-2.69,11.36-8.59,19.73-6.76C1486.87,149.82,1483.77,140.47,1481.93,137.23Z" transform="translate(0 -56)" fill="#cc4242"/><path d="M1611,171.76c-.46-3-1-6-1.52-9l-1.25,1c-14.07,10.53-32.8,15.28-48.87,16-23.49,1.07-47.87-1.46-67-27-12.2-16.3-18.82-31.48-20.11-46.81-2.2,2-10,5.56-10.39,6.18,2.86,14.59,12.36,32.36,23.61,47.38,21.77,29.08,49.84,31.86,74.42,30.74q3.69-.17,7.53-.61c14.78-1.7,30.79-6.58,43.89-15.7C1611.24,173.2,1611.13,172.48,1611,171.76Z" transform="translate(0 -56)" fill="#39303d"/><path d="M1450.8,166.24l.2-.11c0-.06,0-.11,0-.16Z" transform="translate(0 -56)" fill="#cc4242"/><path d="M1467.87,157.32c-1.54.69-13.31,6.64-16.87,8.81-.21,2.64-.91,5.22-1.36,7.75,3.08-.92,17.11,5.41,20.34,3.92C1467.58,172.24,1467.87,157.32,1467.87,157.32Z" transform="translate(0 -56)" fill="#cc4242"/><path d="M1604.47,139.81c-6.42-8-42.86-27.12-52-31.43-13.74-6.47-13.94,1.81-27.94-2l-26.35,24.12c11.37,5.65,64.87,17.26,74.85,25.27,21.47,17.19,21.15,63.9,29.59,92.24,4.68,1,9.79-.25,14.05-2.06C1619,231.19,1614.78,152.69,1604.47,139.81Z" transform="translate(0 -56)" fill="#ffb278"/><path d="M1622.52,270.32c-1.38-7.27-6.47-23.27-6-29.92l-9.22-2.87c-1.28,6-8.88,12.58-12.57,17.16s-6.68,15.07-5,18c5.94-.28,6.55-8.17,9.75-12,.46,8.6-8.32,26.49-4.77,28.13,3.81,3,7.58-11.89,9.23-15.62,1.23,6.86-3.27,21.73,1.56,23,5,1.52,3.2-15.26,5.64-19.65,1.19,4.35-.1,18.47,2.78,17.48,4.7.06,2.16-12.61,4-17.63,1.07,2.62,2.61,14.38,5.62,10.08C1625.36,283.84,1623.07,273.25,1622.52,270.32Z" transform="translate(0 -56)" fill="#ffb278"/><path d="M1552.08,103.7c-2.35-3.43-88.72-22.83-79.25,9.62,5.11,17.53,23.52,24.51,38.74,29,6.68,2,18.9,8.4,26,5.82C1545.09,145.35,1555,108,1552.08,103.7Z" transform="translate(0 -56)" fill="#f95858"/><path d="M1867.87,845.46a71.79,71.79,0,0,0-14.25,21.76A589.21,589.21,0,0,1,1794,907.41c-10.84,6.41-22.08,12.94-33.63,18.46a165.76,165.76,0,0,1-26.92,10.39c-28.57,8-57.58,5.94-86.6,5.56a269.53,269.53,0,0,0-21.95-29.71c19.67-3,39.73,9.28,57.86,13.43-6.58-11.32-15.28-20.9-16.9-34.71,10.94,9.62,22.23,20.66,35.09,26.55-2.87-25.35,1.07-56,17.71-75.92,6.15,20,1.36,44.24,11,63.7,4.61-13.6,17.68-31,30-36.27-.31,7.71-.33,16.08,2.49,23.07,12.26-12.26,23.59-34,40.2-38.63-3,8.73-5.9,18.4-6.94,28.36,6.63-9.8,16.26-10.3,19.65-20.83,3.76-11.63-2.94-31.59-8.62-40.77,10,9.92,16.13,24.77,21.48,38.57,4.82-4,9.6-10.52,13.48-15.24-.56,4.49,1.07,10.33.67,14.8A101,101,0,0,1,1867.87,845.46Z" transform="translate(0 -56)" fill="#b7b16c"/><path d="M1574.69,919.88c-2.61,8.57-7.15,16-8.54,25-7.26.49-14.53,1-21.77,1.45q-10.47.67-20.92,1.47c-11.73.88-23.44,1.85-35.15,2.78l-9.52.76q-10.57.82-21.18,1.57-9,.62-18.11,1.15-16.37.93-32.77,1.62l-2.51.1-.39,0q-8.91.38-17.84.67c-9.33-10.39-23-19.55-29.65-26.89,15.25,9,32.38,12.19,48.55,17.42,1.31.43,2.61.86,3.91,1.31q3.6,1.26,7.12,2.73c-1.37-2.26-2.8-4.54-4.23-6.85-1.66-2.64-3.33-5.32-5-8-2.59-4.26-5.08-8.56-7.26-12.9a48.47,48.47,0,0,1,9,3.25c3.93,1.79,7.86,3.91,11.82,5.77,6.23,2.93,12.56,5.21,19.11,4.51-1.1-20-6.47-38.73,3.39-56.23,5.46,16,8.7,44.38,23.7,52.9,4.72-8.51,9-19.27,17.21-25.41,4,7.62,6,16.83,11.13,23.41,8.76-7.27,17.27-22.55,27.77-27.64a16.08,16.08,0,0,1,5.76-1.64c-1.4,9.44-4,19.18-4.79,28.79,10.82-3.36,17.75-17.92,29.74-19-2.08,5.24-4.67,12-6.57,17.06C1555.41,925.64,1565.1,919.39,1574.69,919.88Z" transform="translate(0 -56)" fill="#b7b16c"/><path d="M1920,881.29h0V1080H0V873.69C0,812.2,49.68,762.35,110.94,762.35A110.48,110.48,0,0,1,139.23,766a120.66,120.66,0,0,1,214.63-27.35,50.93,50.93,0,0,1,74.52,22,86.43,86.43,0,0,1,38.13-8.78c46.27,0,84.11,36.12,87.15,81.78a56.81,56.81,0,0,1,9.38-.8,55.85,55.85,0,0,1,53.73,40.85h2.09v3.59a83.63,83.63,0,0,1,67.84,1.1,57.34,57.34,0,0,1,105.88,27.27,39.17,39.17,0,0,1,15.51-3.17,39.78,39.78,0,0,1,39.68,39.87,33.91,33.91,0,0,1-.28,4.64,87.48,87.48,0,0,1,105.28,6.54,76.27,76.27,0,0,1,99-68c-.29-1.73-.61-3.44-.79-5.22-4.79-48.21,30.28-91.19,78.33-96a87.36,87.36,0,0,1,88.84,52.37,58.41,58.41,0,0,1,40-4.69,67,67,0,0,1,111-10.49,104.42,104.42,0,0,1,160-66.72,43.69,43.69,0,0,1-.33-5.53,47.39,47.39,0,0,1,47.29-47.49,46.72,46.72,0,0,1,18.47,3.76,68.33,68.33,0,0,1,126.16-32.48,98.67,98.67,0,0,1,41.86-9.23c55.12,0,99.78,44.82,99.78,100.11a99.43,99.43,0,0,1-7.4,37.79A78.75,78.75,0,0,1,1920,879.43C1920,880.06,1920,880.67,1920,881.29Z" transform="translate(0 -56)" fill="#e8f2ff"/></g></g></svg>