<svg id="Layer_2" data-name="Layer 2" xmlns="http://www.w3.org/2000/svg" viewBox="0 0 704 443.79"><path d="M708,443.49c0,.17-157.6.3-352,.3s-352-.13-352-.3,157.57-.31,352-.31S708,443.32,708,443.49Z" transform="translate(-4)" fill="#1a2e35"/><polygon points="208.94 203.87 218.61 230.04 212.6 230.01 207.78 213.93 208.94 203.87" fill="#e1e1e1"/><polygon points="175.93 179.69 172.61 229.83 206.92 230.59 210.77 179.69 175.93 179.69" fill="#ececec"/><polygon points="179.37 183.72 176.6 225.47 202.1 226.73 205.66 183.48 179.37 183.72" fill="#fafafa"/><polygon points="184.96 189.62 182.89 218.97 196.96 218.97 199.44 189.62 184.96 189.62" fill="#e1e1e1"/><path d="M466.47,373.44c-16.89-9.62-35.85-27.22-43.23-47.19,18.27,10,33.62,26.75,43.23,47.19" transform="translate(-4)" fill="#1da1f2"/><path d="M465.37,343.5c-16.88-9.63-35.86-27.22-43.24-47.19,18.28,10,33.63,26.75,43.24,47.19" transform="translate(-4)" fill="#1da1f2"/><path d="M462.85,314.23C446,304.61,427,287,419.62,267c18.27,10,33.63,26.75,43.23,47.19" transform="translate(-4)" fill="#1da1f2"/><path d="M459.15,283.49c-15.66-12.08-32.51-32.32-37.59-53.2,17,12.58,30.35,31.5,37.59,53.2" transform="translate(-4)" fill="#1da1f2"/><path d="M454.39,259.77c-10.59-17.93-19.61-44-17.57-65.53,11.66,19,17.91,42.28,17.57,65.53" transform="translate(-4)" fill="#1da1f2"/><path d="M456.8,271.06c4.45-22.38,15.31-50,30.94-65.56a142.09,142.09,0,0,1-30.94,65.56" transform="translate(-4)" fill="#1da1f2"/><path d="M460.27,296.37c6.38-22.9,19.83-50.66,37.33-65.42a146,146,0,0,1-37.33,65.42" transform="translate(-4)" fill="#1da1f2"/><path d="M464.11,327.21c6.38-22.9,19.83-50.66,37.32-65.43a145.88,145.88,0,0,1-37.32,65.43" transform="translate(-4)" fill="#1da1f2"/><path d="M466,364.79c6.38-22.9,19.83-50.67,37.33-65.42A146.06,146.06,0,0,1,466,364.79" transform="translate(-4)" fill="#1da1f2"/><path d="M454,255.25a2.47,2.47,0,0,1,.11.36c.05.29.14.64.24,1.08.2,1,.49,2.4.85,4.16.75,3.61,1.72,8.86,2.83,15.36s2.3,14.28,3.45,22.93,2.2,18.2,3.08,28.24S466,347,466.37,355.76s.53,16.6.55,23.21,0,12-.13,15.65c-.05,1.81-.09,3.23-.12,4.25,0,.45,0,.82-.06,1.11a1.14,1.14,0,0,1,0,.37,2.29,2.29,0,0,1,0-.37v-5.36c0-3.69,0-9-.09-15.65s-.31-14.44-.7-23.18-1-18.3-1.88-28.34-2-19.56-3-28.19-2.24-16.43-3.3-22.94-2-11.77-2.61-15.4c-.32-1.77-.56-3.16-.73-4.18l-.18-1.09A1.35,1.35,0,0,1,454,255.25Z" transform="translate(-4)" fill="#1a2e35"/><g opacity="0.3"><path d="M466.47,373.44c-16.89-9.62-35.85-27.22-43.23-47.19,18.27,10,33.62,26.75,43.23,47.19" transform="translate(-4)"/></g><g opacity="0.3"><path d="M465.37,343.5c-16.88-9.63-35.86-27.22-43.24-47.19,18.28,10,33.63,26.75,43.24,47.19" transform="translate(-4)"/></g><g opacity="0.3"><path d="M462.85,314.23C446,304.61,427,287,419.62,267c18.27,10,33.63,26.75,43.23,47.19" transform="translate(-4)"/></g><g opacity="0.3"><path d="M459.15,283.49c-15.66-12.08-32.51-32.32-37.59-53.2,17,12.58,30.35,31.5,37.59,53.2" transform="translate(-4)"/></g><g opacity="0.3"><path d="M454.39,259.77c-10.59-17.93-19.61-44-17.57-65.53,11.66,19,17.91,42.28,17.57,65.53" transform="translate(-4)"/></g><g opacity="0.3"><path d="M456.8,271.06c4.45-22.38,15.31-50,30.94-65.56a142.09,142.09,0,0,1-30.94,65.56" transform="translate(-4)"/></g><g opacity="0.3"><path d="M460.27,296.37c6.38-22.9,19.83-50.66,37.33-65.42a146,146,0,0,1-37.33,65.42" transform="translate(-4)"/></g><g opacity="0.3"><path d="M464.11,327.21c6.38-22.9,19.83-50.66,37.32-65.43a145.88,145.88,0,0,1-37.32,65.43" transform="translate(-4)"/></g><g opacity="0.3"><path d="M466,364.79c6.38-22.9,19.83-50.67,37.33-65.42A146.06,146.06,0,0,1,466,364.79" transform="translate(-4)"/></g><path d="M470.73,379.5c-10.27-14.36-19.83-35.59-19.7-53.82a104.29,104.29,0,0,1,19.7,53.82" transform="translate(-4)" fill="#1da1f2"/><path d="M478.67,356.29c-10.26-14.35-19.83-35.59-19.69-53.82a104.34,104.34,0,0,1,19.69,53.82" transform="translate(-4)" fill="#1da1f2"/><path d="M485.32,333c-10.27-14.35-19.84-35.59-19.71-53.82A104.3,104.3,0,0,1,485.32,333" transform="translate(-4)" fill="#1da1f2"/><path d="M491.49,308.12c-8.62-15.69-15.75-38.06-13.57-56.05a106.27,106.27,0,0,1,13.57,56.05" transform="translate(-4)" fill="#1da1f2"/><path d="M494.76,288.12c-3-18-2.33-41.56,5.61-57.08a104.66,104.66,0,0,1-5.61,57.08" transform="translate(-4)" fill="#1da1f2"/><path d="M493.31,297.69c10-15.12,26.58-31.63,43.28-36.92a97,97,0,0,1-43.28,36.92" transform="translate(-4)" fill="#1da1f2"/><path d="M488.57,318.37c11.68-14.73,30.28-30.25,48.2-34.17a99.56,99.56,0,0,1-48.2,34.17" transform="translate(-4)" fill="#1da1f2"/><path d="M482.49,343.39c11.68-14.74,30.28-30.26,48.2-34.18a99.52,99.52,0,0,1-48.2,34.18" transform="translate(-4)" fill="#1da1f2"/><path d="M472.94,372.74c11.69-14.74,30.3-30.26,48.21-34.18a99.5,99.5,0,0,1-48.21,34.18" transform="translate(-4)" fill="#1da1f2"/><path d="M495.76,284.52a1.61,1.61,0,0,1,0,.31,8.57,8.57,0,0,1-.13.91c-.14.85-.31,2-.54,3.47-.48,3-1.25,7.37-2.29,12.73-2.07,10.72-5.36,25.44-9.9,41.44-2.28,8-4.65,15.55-6.91,22.37s-4.49,12.91-6.43,18-3.56,9.16-4.75,11.95c-.57,1.38-1,2.42-1.36,3.21l-.37.83a1.43,1.43,0,0,1-.15.27.8.8,0,0,1,.09-.3c.08-.23.18-.51.31-.85l1.25-3.26c1.11-2.83,2.68-6.93,4.57-12s4-11.19,6.29-18,4.57-14.38,6.86-22.36c4.53-16,7.89-30.66,10.07-41.34,1.1-5.34,2-9.67,2.49-12.68.28-1.45.5-2.61.65-3.44.08-.36.14-.69.19-.89S495.74,284.51,495.76,284.52Z" transform="translate(-4)" fill="#1a2e35"/><polygon points="482.84 437.94 446.75 437.94 440.01 385.29 489.76 385.29 482.84 437.94" fill="#375a64"/><rect x="435.54" y="384.75" width="58.69" height="8.18" fill="#375a64"/><path d="M498.23,393.08c0,.15-13,.27-29,.27s-29-.12-29-.27,13-.27,29-.27S498.23,392.93,498.23,393.08Z" transform="translate(-4)" fill="#1a2e35"/><path d="M248.65,0H424.2c9.14,0,16.54,7.8,16.54,17.43V419.82c0,9.63-7.4,17.43-16.54,17.43H248.65c-9.14,0-16.54-7.8-16.54-17.43V17.43C232.11,7.8,239.51,0,248.65,0Z" transform="translate(-4)" fill="#375a64"/><path d="M437.46,18.77V418.48c0,8.44-6.5,15.29-14.51,15.29h-173c-8,0-14.5-6.85-14.5-15.29V18.77c0-8.45,6.49-15.29,14.5-15.29H423C431,3.48,437.46,10.32,437.46,18.77Z" transform="translate(-4)" fill="#1a2e35"/><path d="M319.24,23a2.42,2.42,0,0,1,0-4.84h30a2.42,2.42,0,0,1,0,4.84Z" transform="translate(-4)" fill="#375a64"/><path d="M303.15,23a2.42,2.42,0,1,1,2.34-2.43h0A2.38,2.38,0,0,1,303.16,23Z" transform="translate(-4)" fill="#375a64"/><path d="M311.74,23a2.42,2.42,0,1,1,2.33-2.43h0A2.38,2.38,0,0,1,311.74,23Z" transform="translate(-4)" fill="#375a64"/><path d="M365.47,23a2.42,2.42,0,1,1,2.33-2.43h0A2.38,2.38,0,0,1,365.47,23Z" transform="translate(-4)" fill="#375a64"/><path d="M356.88,23a2.42,2.42,0,1,1,2.33-2.43h0A2.38,2.38,0,0,1,356.88,23Z" transform="translate(-4)" fill="#375a64"/><path d="M418.41,6.43H382.3a6.19,6.19,0,0,0-5.88,4.68l-2.29,8.37a6.93,6.93,0,0,1-6.58,5.24H305.31a6.94,6.94,0,0,1-6.59-5.24l-2.31-8.37a6.17,6.17,0,0,0-5.87-4.68H262.47c-12.38,0-22.39,10.63-22.36,23.67h0V412c0,8.81,6.74,16,15.1,16H419.48c7.34,0,13.28-6.31,13.27-14.05h0V21.6c0-8.36-6.39-15.15-14.32-15.17Z" transform="translate(-4)" fill="#fafafa"/><path d="M426.3,13.48a21.73,21.73,0,0,0-15.92-7H377.7l-5,18.29H300.16l-5-18.29H254.71c-8.09,0-14.63,6.94-14.61,15.47h0V298.4l.57.06c18.77,2.16,37-10.31,47.36-27.08s13.94-37.1,15.76-57,2-40.07,6.45-59.51C317.85,122,337,93.26,363.76,74.52,376.87,65.45,391.53,59,404,49,415,40.22,424.46,27.65,426.3,13.48Z" transform="translate(-4)" fill="#f5f5f5"/><path d="M432.75,418.38V296c-29.66,3.17-57.44,22.18-72.32,49.51C347,370.2,344.32,401.05,352.91,428h70.78a9.34,9.34,0,0,0,9.06-9.59Z" transform="translate(-4)" fill="#f5f5f5"/><path d="M441.41,145.29h-.66V95h.66a.71.71,0,0,1,.69.73h0v48.79A.71.71,0,0,1,441.41,145.29Z" transform="translate(-4)" fill="#375a64"/><path d="M231.39,126h.72v31.82h-.72a.72.72,0,0,1-.7-.74h0V126.74a.72.72,0,0,1,.7-.73Z" transform="translate(-4)" fill="#375a64"/><path d="M231.39,84.44h.72v31.82h-.72a.72.72,0,0,1-.7-.73h0V85.17A.72.72,0,0,1,231.39,84.44Z" transform="translate(-4)" fill="#375a64"/><path d="M231.51,53.23h.61V68h-.61a.64.64,0,0,1-.62-.65V53.89A.65.65,0,0,1,231.51,53.23Z" transform="translate(-4)" fill="#375a64"/><rect x="380.15" y="26.39" width="1.44" height="2.1" fill="#1a2e35"/><rect x="382.5" y="25.46" width="1.44" height="3.03" fill="#1a2e35"/><rect x="384.84" y="24.76" width="1.44" height="3.73" fill="#1a2e35"/><rect x="387.19" y="23.4" width="1.44" height="5.09" fill="#1a2e35"/><path d="M413.91,28.6h-7.23a.53.53,0,0,1-.51-.54h0V24.32a.51.51,0,0,1,.5-.53h7.23a.14.14,0,0,1,.13.13v1.23h.77a.14.14,0,0,1,.14.14h0v1.8a.14.14,0,0,1-.14.14H414v1.23a.14.14,0,0,1-.12.14Zm-.14-4.54h-7.11a.25.25,0,0,0-.24.26h0v3.74a.26.26,0,0,0,.25.26h7.1V27.09a.14.14,0,0,1,.14-.14h.77V25.46h-.77a.13.13,0,0,1-.14-.13h0Z" transform="translate(-4)" fill="#1a2e35"/><polygon points="403.01 27.7 403.01 24.67 409.18 24.67 409.18 26.04 409.18 26.34 409.18 27.7 403.01 27.7" fill="#1a2e35"/><path d="M399.52,28.31a.53.53,0,0,0-.53-.55.54.54,0,0,0-.53.55.54.54,0,0,0,.53.55h0A.54.54,0,0,0,399.52,28.31Z" transform="translate(-4)" fill="#1a2e35"/><path d="M397.19,27l.66.68a1.56,1.56,0,0,1,2.24,0l0,0,.65-.68a2.49,2.49,0,0,0-3.59,0h0Z" transform="translate(-4)" fill="#1a2e35"/><path d="M399,24.65a4,4,0,0,0-2.87,1.23l.66.68a3,3,0,0,1,4.37,0h0l.66-.68A4,4,0,0,0,399,24.65Z" transform="translate(-4)" fill="#1a2e35"/><path d="M395,24.74l.66.68a4.5,4.5,0,0,1,6.5-.07l.06.07.66-.68a5.46,5.46,0,0,0-7.89,0l0,0Z" transform="translate(-4)" fill="#1a2e35"/><ellipse cx="354.2" cy="170.99" rx="25.45" ry="26.93" fill="#f5f5f5"/><path d="M268.35,117.09c0-6.87,3.39-10.92,8.09-10.92s8.12,4.07,8.12,10.92S281.14,128,276.44,128,268.35,123.94,268.35,117.09Zm14.07,0c0-5.74-2.44-8.9-6-8.9s-6,3.16-6,8.9,2.43,8.9,6,8.9,6-3.16,6-8.9Z" transform="translate(-4)" fill="#1a2e35"/><path d="M302.18,116.91c0,7.3-3.77,11.11-9.28,11.11a8.85,8.85,0,0,1-4.81-1.17l.84-1.78a6.79,6.79,0,0,0,3.94,1c4.38,0,7.18-3,7.18-8.81,0-.49,0-1.1-.09-1.74a6.41,6.41,0,0,1-6.2,3.68c-4,0-6.84-2.52-6.84-6.45s3-6.59,6.93-6.59C299.25,106.17,302.18,110.12,302.18,116.91Zm-2.87-4.27c0-2.36-1.85-4.6-5.36-4.6-2.94,0-5,1.8-5,4.66s2,4.63,5.11,4.63S299.31,115.31,299.31,112.64Z" transform="translate(-4)" fill="#1a2e35"/><path d="M305.23,113.24a1.58,1.58,0,0,1,1.51-1.65h0a1.61,1.61,0,0,1,1.57,1.66h0a1.63,1.63,0,0,1-1.57,1.69,1.6,1.6,0,0,1-1.53-1.68Zm0,13.07a1.59,1.59,0,0,1,1.49-1.66h0a1.6,1.6,0,0,1,1.57,1.64v0a1.56,1.56,0,1,1-3.1,0Z" transform="translate(-4)" fill="#1a2e35"/><path d="M311.35,117.09c0-6.87,3.39-10.92,8.09-10.92s8.12,4.07,8.12,10.92S324.14,128,319.44,128,311.35,123.94,311.35,117.09Zm14.07,0c0-5.74-2.44-8.9-6-8.9s-6,3.16-6,8.9,2.43,8.9,6,8.9S325.42,122.83,325.42,117.09Z" transform="translate(-4)" fill="#1a2e35"/><path d="M330.55,117.09c0-6.87,3.39-10.92,8.09-10.92s8.12,4.07,8.12,10.92S343.34,128,338.64,128,330.55,123.94,330.55,117.09Zm14.06,0c0-5.74-2.43-8.9-6-8.9s-6,3.16-6,8.9,2.43,8.9,6,8.9S344.61,122.83,344.61,117.09Z" transform="translate(-4)" fill="#1a2e35"/><path d="M403.86,81.48H273.12c-7.18,0-13-6.17-13-13.75h0c0-7.57,5.82-13.72,13-13.75H403.86c7.19,0,13,6.18,13,13.75h0C416.87,75.31,411.05,81.45,403.86,81.48Z" transform="translate(-4)" fill="#e1e1e1"/><path d="M400.48,73a5.26,5.26,0,1,1,5-5.28v0A5.12,5.12,0,0,1,400.48,73Zm0-9.45a4.21,4.21,0,1,0,4,4.23v0A4.09,4.09,0,0,0,400.48,63.52Z" transform="translate(-4)" fill="#1a2e35"/><path d="M407.13,74.33a.44.44,0,0,1-.32-.13l-3.27-3a.54.54,0,0,1-.05-.73h0a.47.47,0,0,1,.69-.06h0l3.26,3a.54.54,0,0,1,.05.74A.48.48,0,0,1,407.13,74.33Z" transform="translate(-4)" fill="#1a2e35"/><path d="M399.72,125.67a7.18,7.18,0,0,0,1,0,5.37,5.37,0,0,0,2.69-1.24,5.49,5.49,0,0,0,1.35-1.7,5.4,5.4,0,0,0,.43-1.16,5.09,5.09,0,0,0,.15-1.35,6.32,6.32,0,0,0-.2-1.43,6.61,6.61,0,0,0-.57-1.41,5.38,5.38,0,0,0-2.27-2.19h0v-.06a4.12,4.12,0,0,0-2.07-3.71,3.68,3.68,0,0,0-4.32.76l-.12.14,0-.19a7.51,7.51,0,0,0-4.43-5.36,7,7,0,0,0-1.79-.48h-.92a5.53,5.53,0,0,0-.9.11,6.76,6.76,0,0,0-3.15,1.6,8.08,8.08,0,0,0-2,2.84,7.41,7.41,0,0,0-.59,3.26v.13h-.11a5,5,0,0,0-3.49.43,6.11,6.11,0,0,0-1.38,1,6.64,6.64,0,0,0-1,1.29,5.62,5.62,0,0,0-.54,1.45,4.78,4.78,0,0,0-.1,1.46,5.82,5.82,0,0,0,.71,2.38,5.7,5.7,0,0,0,2.49,2.44,7,7,0,0,0,1.16.41h-.07l-.24,0a1.7,1.7,0,0,1-.37-.1,3,3,0,0,1-.5-.19,5.71,5.71,0,0,1-2.54-2.51,6.17,6.17,0,0,1-.75-2.49,4.73,4.73,0,0,1,.09-1.5,5.75,5.75,0,0,1,.55-1.5,6.56,6.56,0,0,1,1-1.32,6.15,6.15,0,0,1,1.41-1,5.12,5.12,0,0,1,3.62-.41l-.11.1a7.91,7.91,0,0,1,.6-3.37,8.46,8.46,0,0,1,2.07-2.9,6.78,6.78,0,0,1,3.26-1.66,7.37,7.37,0,0,1,.93-.11h.47l.47,0a7,7,0,0,1,1.84.49A7.72,7.72,0,0,1,396,112l-.16-.06a3.86,3.86,0,0,1,4.54-.79,4.32,4.32,0,0,1,2.15,3.89l-.05-.08a5.43,5.43,0,0,1,2.33,2.27,6.76,6.76,0,0,1,.58,1.45,6,6,0,0,1,.19,1.46,5.36,5.36,0,0,1-.15,1.38,5.09,5.09,0,0,1-.47,1.19,5.6,5.6,0,0,1-4.12,2.93,3.39,3.39,0,0,1-.78,0Z" transform="translate(-4)" fill="#1a2e35"/><path d="M400.22,126.23h-.57a.51.51,0,0,1-.4-.36.56.56,0,0,1,.12-.54.58.58,0,0,1,.47-.15,4.1,4.1,0,0,0,.86,0,4.83,4.83,0,0,0,2.43-1.13,4.94,4.94,0,0,0,1.23-1.53,4.54,4.54,0,0,0,.53-2.26,5.65,5.65,0,0,0-.18-1.29,6,6,0,0,0-.53-1.29,4.75,4.75,0,0,0-2-2,.61.61,0,0,1-.34-.53,3.6,3.6,0,0,0-1.8-3.27,3.2,3.2,0,0,0-3.74.69l-.12.14a.5.5,0,0,1-.49.13.53.53,0,0,1-.35-.4l0-.18a7,7,0,0,0-4.12-5,6.36,6.36,0,0,0-1.66-.44,1.71,1.71,0,0,1-.41,0h-.19a1.13,1.13,0,0,0-.26,0h-.21a3.68,3.68,0,0,0-.58.07,6.21,6.21,0,0,0-2.95,1.5A7.64,7.64,0,0,0,383,111a6.83,6.83,0,0,0-.55,3v.12a.55.55,0,0,1-.18.44.48.48,0,0,1-.43.1h-.12a4.43,4.43,0,0,0-3.15.4,5.32,5.32,0,0,0-1.26.91,5.74,5.74,0,0,0-.91,1.17,4.89,4.89,0,0,0-.48,1.29,4.24,4.24,0,0,0-.1,1.28,5.44,5.44,0,0,0,.66,2.24,5.2,5.2,0,0,0,2.27,2.23,4.2,4.2,0,0,0,1,.33.56.56,0,0,1,.48.68.58.58,0,0,1-.65.38l-.24,0a2.64,2.64,0,0,1-.46-.13l-.11,0a2.44,2.44,0,0,1-.44-.19,6.12,6.12,0,0,1-2.77-2.63,6.76,6.76,0,0,1-.82-2.75,6,6,0,0,1,.1-1.64,6.42,6.42,0,0,1,.61-1.65,7.5,7.5,0,0,1,1.11-1.46,6.6,6.6,0,0,1,1.53-1.1,5.57,5.57,0,0,1,3.21-.72,8.78,8.78,0,0,1,.65-2.83,9,9,0,0,1,2.2-3.1,7.32,7.32,0,0,1,3.48-1.77,6.09,6.09,0,0,1,.73-.1h.75a4.91,4.91,0,0,1,.55,0,7.3,7.3,0,0,1,1.95.52,8.32,8.32,0,0,1,4.61,5,4.27,4.27,0,0,1,4.36-.26,4.8,4.8,0,0,1,2.43,4,6.06,6.06,0,0,1,2.21,2.31,6.86,6.86,0,0,1,.65,1.56,6.64,6.64,0,0,1,.22,1.6,6.5,6.5,0,0,1-.17,1.52,5.73,5.73,0,0,1-.52,1.34,6.06,6.06,0,0,1-1.51,1.86,5.8,5.8,0,0,1-3,1.32A4.74,4.74,0,0,1,400.22,126.23Z" transform="translate(-4)" fill="#1a2e35"/><path d="M388,121.91a44.78,44.78,0,0,1-2.92,5.14A43.33,43.33,0,0,1,388,121.91Z" transform="translate(-4)" fill="#1a2e35"/><path d="M385.09,127.61a.57.57,0,0,1-.29-.11c-.48-.3-.47-.39,1.2-3.34,1.51-2.67,1.63-2.7,1.85-2.75a.45.45,0,0,1,.37.06h0a.52.52,0,0,1,.22.32c.06.23.09.35-1.43,3C385.73,127.06,385.39,127.61,385.09,127.61Z" transform="translate(-4)" fill="#1a2e35"/><path d="M392.53,121.91a20.34,20.34,0,0,1-1.37,2.62,21.47,21.47,0,0,1-1.54,2.52,23.28,23.28,0,0,1,1.37-2.62A25,25,0,0,1,392.53,121.91Z" transform="translate(-4)" fill="#1a2e35"/><path d="M389.62,127.57a.48.48,0,0,1-.26-.07c-.47-.3-.46-.39,1.21-3.34,1.51-2.67,1.63-2.7,1.84-2.75a.5.5,0,0,1,.38.06h0c.47.3.47.39-1.2,3.33-1.52,2.67-1.63,2.7-1.85,2.75Z" transform="translate(-4)" fill="#1a2e35"/><path d="M397.1,121.91a20.4,20.4,0,0,1-1.38,2.62,20.2,20.2,0,0,1-1.54,2.52,21.09,21.09,0,0,1,1.38-2.62A25,25,0,0,1,397.1,121.91Z" transform="translate(-4)" fill="#1a2e35"/><path d="M394.22,127.61a.57.57,0,0,1-.28-.11c-.48-.3-.48-.39,1.2-3.34,1.51-2.67,1.63-2.7,1.84-2.75a.47.47,0,0,1,.38.06h0a.58.58,0,0,1,.23.32c.05.23.07.35-1.43,3C394.87,127.06,394.52,127.61,394.22,127.61Z" transform="translate(-4)" fill="#1a2e35"/><path d="M382.68,129.11a22.45,22.45,0,0,1-1.37,2.62,22.91,22.91,0,0,1-1.54,2.52A43.26,43.26,0,0,1,382.68,129.11Z" transform="translate(-4)" fill="#1a2e35"/><path d="M379.77,134.77a.48.48,0,0,1-.26-.07.6.6,0,0,1-.23-.33c0-.22-.08-.35,1.43-3,1.67-2.94,1.75-3,2.22-2.69h0c.47.3.47.39-1.21,3.33-1.51,2.67-1.63,2.7-1.84,2.75Z" transform="translate(-4)" fill="#1a2e35"/><path d="M387.25,129.11a22.45,22.45,0,0,1-1.37,2.62,24.55,24.55,0,0,1-1.54,2.52,19.76,19.76,0,0,1,1.37-2.62A23.25,23.25,0,0,1,387.25,129.11Z" transform="translate(-4)" fill="#1a2e35"/><path d="M384.34,134.77a.49.49,0,0,1-.49-.4c-.05-.22-.08-.35,1.43-3,1.67-3,1.75-3,2.22-2.69h0c.46.3.46.4-1.21,3.33-1.51,2.67-1.63,2.7-1.84,2.75Z" transform="translate(-4)" fill="#1a2e35"/><path d="M391.82,129.11a23.27,23.27,0,0,1-1.38,2.62,22.91,22.91,0,0,1-1.54,2.52,22.45,22.45,0,0,1,1.37-2.62A23.34,23.34,0,0,1,391.82,129.11Z" transform="translate(-4)" fill="#1a2e35"/><path d="M388.9,134.77a.48.48,0,0,1-.26-.07.6.6,0,0,1-.23-.33c-.05-.22-.07-.35,1.44-3,1.67-2.94,1.74-3,2.22-2.69h0c.47.3.47.39-1.2,3.33-1.52,2.67-1.63,2.7-1.85,2.75Z" transform="translate(-4)" fill="#1a2e35"/><path d="M396.59,129.22a20.4,20.4,0,0,1-1.38,2.62,20.62,20.62,0,0,1-1.55,2.51,21.69,21.69,0,0,1,1.38-2.61A23.34,23.34,0,0,1,396.59,129.22Z" transform="translate(-4)" fill="#1a2e35"/><path d="M393.7,134.93a.81.81,0,0,1-.29-.12c-.47-.3-.47-.4,1.21-3.34,1.52-2.67,1.63-2.7,1.84-2.75a.41.41,0,0,1,.37.06h0a.5.5,0,0,1,.23.32c.06.23.08.35-1.43,3C394.35,134.37,394,134.93,393.7,134.93Z" transform="translate(-4)" fill="#1a2e35"/><ellipse cx="314.17" cy="343.79" rx="4.2" ry="4.44" fill="#ececec"/><ellipse cx="328.2" cy="343.79" rx="4.2" ry="4.44" fill="#e1e1e1"/><ellipse cx="342.23" cy="343.79" rx="4.2" ry="4.44" fill="#e1e1e1"/><ellipse cx="356.26" cy="343.79" rx="4.2" ry="4.44" fill="#e1e1e1"/><path d="M264.26,365.89h22a6.08,6.08,0,0,1,5.92,6.23v23.33a6.09,6.09,0,0,1-5.92,6.24h-22a6.09,6.09,0,0,1-5.92-6.24V372.12A6.08,6.08,0,0,1,264.26,365.89Z" transform="translate(-4)" fill="#1da1f2"/><path d="M306.78,365.56h21.28a6.43,6.43,0,0,1,6.27,6.6v22.59a6.44,6.44,0,0,1-6.27,6.61H306.78a6.45,6.45,0,0,1-6.28-6.61V372.16A6.44,6.44,0,0,1,306.78,365.56Z" transform="translate(-4)" fill="#e1e1e1"/><path d="M349.3,365.22h20.57a6.82,6.82,0,0,1,6.63,7V394a6.82,6.82,0,0,1-6.63,7H349.3a6.82,6.82,0,0,1-6.63-7V372.21A6.82,6.82,0,0,1,349.3,365.22Z" transform="translate(-4)" fill="#375a64"/><path d="M391.54,365.89H412a6.89,6.89,0,0,1,6.71,7.07v21.66a6.9,6.9,0,0,1-6.71,7.07H391.54a6.9,6.9,0,0,1-6.71-7.07V373A6.9,6.9,0,0,1,391.54,365.89Z" transform="translate(-4)" fill="#1a2e35"/><path d="M264.21,288.39H286.3a6,6,0,0,1,5.87,6.18V318a6,6,0,0,1-5.87,6.18H264.21a6,6,0,0,1-5.87-6.18V294.57A6,6,0,0,1,264.21,288.39Z" transform="translate(-4)" fill="#375a64"/><path d="M307.38,288.05h20.07a7.07,7.07,0,0,1,6.88,7.25v21.31a7.07,7.07,0,0,1-6.88,7.24H307.38a7.07,7.07,0,0,1-6.88-7.24V295.3A7.07,7.07,0,0,1,307.38,288.05Z" transform="translate(-4)" fill="#1a2e35"/><path d="M348.76,287.72h21.65a6.27,6.27,0,0,1,6.09,6.42v23a6.26,6.26,0,0,1-6.09,6.41H348.76a6.25,6.25,0,0,1-6.09-6.41v-23A6.26,6.26,0,0,1,348.76,287.72Z" transform="translate(-4)" fill="#e1e1e1"/><path d="M391.49,287.39H412a6.84,6.84,0,0,1,6.66,7v21.77a6.84,6.84,0,0,1-6.66,7H391.49a6.84,6.84,0,0,1-6.66-7V294.4A6.84,6.84,0,0,1,391.49,287.39Z" transform="translate(-4)" fill="#1da1f2"/><path d="M271.61,299.92a6.41,6.41,0,0,1,1.7-.79l.36-1.79,2.85,0,.41,1.77a6.87,6.87,0,0,1,1.74.69l1.42-1,2.06,2.1-.89,1.56a7.31,7.31,0,0,1,.73,1.81l1.69.37.06,3-1.68.43a7.82,7.82,0,0,1-.65,1.83l.94,1.52-2,2.18-1.5-.94a7,7,0,0,1-1.71.79l-.35,1.78-2.86.06-.41-1.77a6.92,6.92,0,0,1-1.73-.73l-1.45,1-2-2.11.89-1.56a7.74,7.74,0,0,1-.74-1.81l-1.69-.37-.06-3,1.68-.44a7.34,7.34,0,0,1,.69-1.83l-.95-1.53,2-2.17,1.48.95Zm.95,3.63a4.11,4.11,0,0,0,.1,5.57,3.58,3.58,0,0,0,5.25-.08h0a4.1,4.1,0,0,0-.1-5.57,3.57,3.57,0,0,0-5.24.08h0Z" transform="translate(-4)" fill="#fff"/><path d="M351.69,391.81l1.23-4.87a9.19,9.19,0,0,1,3.37-12.13,8.27,8.27,0,0,1,11.52,3.55,9.19,9.19,0,0,1-3.37,12.13,8,8,0,0,1-8.1,0Zm4.85-3.13.29.18a6.75,6.75,0,0,0,9.54-2.5A7.55,7.55,0,0,0,364,376.31a6.76,6.76,0,0,0-9.54,2.5,7.65,7.65,0,0,0,0,7.57l.18.31-.69,2.75Z" transform="translate(-4)" fill="#fff"/><path d="M363.41,383.9a1.42,1.42,0,0,0-1.22-.29c-.31.14-.52.69-.72.93a.29.29,0,0,1-.39.09,5.55,5.55,0,0,1-2.75-2.49.38.38,0,0,1,0-.49,1.89,1.89,0,0,0,.5-.85,2,2,0,0,0-.22-1,2.4,2.4,0,0,0-.71-1.13,1,1,0,0,0-1.05.16,2.31,2.31,0,0,0-.74,1.8,2.76,2.76,0,0,0,.06.57,5.15,5.15,0,0,0,.52,1.26,7.86,7.86,0,0,0,.54.87,8.5,8.5,0,0,0,2.34,2.29,6.61,6.61,0,0,0,1.45.74,3.12,3.12,0,0,0,1.7.28,2,2,0,0,0,1.53-1.21,1,1,0,0,0,.07-.62C364.29,384.36,363.73,384.11,363.41,383.9Z" transform="translate(-4)" fill="#fff" fill-rule="evenodd"/><path d="M281.22,385.94a2.58,2.58,0,0,0-2.31-.55c-.6.26-1,1.26-1.37,1.76a.55.55,0,0,1-.74.17,10.61,10.61,0,0,1-5.22-4.73.7.7,0,0,1,.08-.93,2.66,2.66,0,0,0,.52-3.55c-.32-.69-.65-1.74-1.35-2.15a1.74,1.74,0,0,0-2,.32,4.36,4.36,0,0,0-1.41,3.44,4.9,4.9,0,0,0,.12,1.08,9.62,9.62,0,0,0,1,2.39c.31.57.66,1.12,1,1.65A16.3,16.3,0,0,0,274,389.2a12.75,12.75,0,0,0,2.77,1.37,5.88,5.88,0,0,0,3.22.54,3.93,3.93,0,0,0,2.92-2.3,2,2,0,0,0,.14-1.17C282.88,386.81,281.84,386.33,281.22,385.94Z" transform="translate(-4)" fill="#fff" fill-rule="evenodd"/><path d="M407,378.06a1,1,0,1,0,1,1.05h0A1,1,0,0,0,407,378.06Z" transform="translate(-4)" fill="#fff"/><path d="M402.64,379.1a4.4,4.4,0,1,0,4.15,4.41v0A4.27,4.27,0,0,0,402.64,379.1Zm0,7.2a2.81,2.81,0,1,1,2.66-2.82h0A2.74,2.74,0,0,1,402.64,386.3Z" transform="translate(-4)" fill="#fff"/><path d="M405.93,392.71H399.2a5.21,5.21,0,0,1-5.05-5.36v-7.12a5.21,5.21,0,0,1,5.05-5.36h6.73a5.23,5.23,0,0,1,5.07,5.36v7.12A5.23,5.23,0,0,1,405.93,392.71Zm-6.73-16.16a3.59,3.59,0,0,0-3.47,3.68v7.12A3.59,3.59,0,0,0,399.2,391h6.73a3.59,3.59,0,0,0,3.48-3.68v-7.12a3.57,3.57,0,0,0-3.48-3.68Z" transform="translate(-4)" fill="#fff"/><path d="M309.93,392.18a.77.77,0,0,1-.54-.24.87.87,0,0,1,0-1.13l4-4.24a7.65,7.65,0,0,1,.51-9.7,6.6,6.6,0,0,1,9.68,0l0,0a7.59,7.59,0,0,1,0,10.31,6.58,6.58,0,0,1-9.14.53l-4,4.26A.72.72,0,0,1,309.93,392.18Zm8.85-15.82a5.69,5.69,0,0,0,0,11.37,5.23,5.23,0,0,0,3.85-1.67,5.91,5.91,0,0,0,0-8A5.28,5.28,0,0,0,318.78,376.36Z" transform="translate(-4)" fill="#fff"/><path d="M340.79,138.2c0,.15-15.86.27-35.43.27s-35.45-.12-35.45-.27,15.87-.27,35.45-.27S340.79,138.05,340.79,138.2Z" transform="translate(-4)" fill="#1a2e35"/><path d="M318.88,305.8a4.44,4.44,0,0,0,2.48-4.08,4.09,4.09,0,0,0-3.49-4.53,4,4,0,0,0-4.3,3.67,4.49,4.49,0,0,0,0,.82,4.43,4.43,0,0,0,2.48,4.13c-6,1-5.72,7.85-5.72,7.85l14.18.06S324.82,306.72,318.88,305.8Z" transform="translate(-4)" fill="#fff"/><path d="M370.67,311.37a5.21,5.21,0,0,0-.94-5.34,5.11,5.11,0,0,0-5.18-1.78,5.82,5.82,0,0,0-6.73-4.93,6,6,0,0,0-4.76,5.72,4.58,4.58,0,0,0-3.56,5.31,5,5,0,0,0,.25.92Z" transform="translate(-4)" fill="#fff"/><path d="M404.65,311.49a1.38,1.38,0,1,1-1.37-1.47,1.41,1.41,0,0,1,1.37,1.47Z" transform="translate(-4)" fill="#fff"/><path d="M400.52,309.61a3.68,3.68,0,0,1,5.39-.23l.14.15a.75.75,0,0,0,1.1,0,.85.85,0,0,0,0-1.16,5.19,5.19,0,0,0-7.61-.05l-.11.12c-.69.77.4,1.94,1.09,1.17Z" transform="translate(-4)" fill="#fff"/><path d="M395.84,302.82a11,11,0,0,1,7.4-3.14,10.69,10.69,0,0,1,7.56,3.06c.72.72,1.82-.43,1.09-1.15a12.17,12.17,0,0,0-8.64-3.54,12.55,12.55,0,0,0-8.48,3.6c-.76.69.33,1.86,1.09,1.17Z" transform="translate(-4)" fill="#fff"/><path d="M397.68,306.58a7.3,7.3,0,0,1,10.69-.63c.16.15.31.3.46.46.7.76,1.8-.39,1.1-1.15a8.78,8.78,0,0,0-12.87-.35c-.16.16-.32.33-.47.51C395.94,306.19,397,307.36,397.68,306.58Z" transform="translate(-4)" fill="#fff"/><path d="M201.3,403.24l-.37,21.85s20.89,7.72,21.16,11.77l-40,.77-.76-34.06Z" transform="translate(-4)" fill="#1da1f2"/><path d="M188.52,423.49a1.75,1.75,0,0,0-1.1,2,1.57,1.57,0,0,0,1.86,1.17,1.85,1.85,0,0,0,1.15-2.13,1.63,1.63,0,0,0-2.06-1" transform="translate(-4)" fill="#e1e1e1"/><path d="M182.05,437.63l0-3.44,38.38.55s1.8.79,1.62,2.12Z" transform="translate(-4)" fill="#1a2e35"/><path d="M201.58,424.86c0,.21-1,.32-2,1s-1.45,1.57-1.63,1.49.09-1.28,1.26-2.07S201.62,424.67,201.58,424.86Z" transform="translate(-4)" fill="#1a2e35"/><path d="M205.81,426.62c.05.2-.79.57-1.45,1.45s-.82,1.82-1,1.81-.34-1.17.49-2.26S205.8,426.42,205.81,426.62Z" transform="translate(-4)" fill="#1a2e35"/><path d="M208.3,431.89c-.18.05-.47-1,0-2.12s1.39-1.61,1.47-1.44-.47.78-.84,1.72S208.48,431.86,208.3,431.89Z" transform="translate(-4)" fill="#1a2e35"/><path d="M201.12,419.87c-.08.19-1-.08-2.09,0s-2,.49-2.06.32.71-.94,2-1S201.23,419.7,201.12,419.87Z" transform="translate(-4)" fill="#1a2e35"/><path d="M178,391.59l-14.35,15.73S174,428,171.57,431.2l-29.82-28.31,21.38-25.48Z" transform="translate(-4)" fill="#1da1f2"/><path d="M141.78,402.89l2.26-2.47,27.74,28.05s.81,1.88-.17,2.75Z" transform="translate(-4)" fill="#1a2e35"/><path d="M164.31,407.62c-.14.15-.93-.47-2.06-.66s-2.07.11-2.15-.09.89-.87,2.26-.62S164.46,407.51,164.31,407.62Z" transform="translate(-4)" fill="#1a2e35"/><path d="M166.27,412c-.09.18-.94-.15-2,0s-1.77.74-1.91.6.5-1.1,1.81-1.31S166.4,411.8,166.27,412Z" transform="translate(-4)" fill="#1a2e35"/><path d="M164.69,417.6c-.16-.09.29-1.05,1.38-1.54s2.06-.18,2,0-.85.24-1.74.65S164.85,417.72,164.69,417.6Z" transform="translate(-4)" fill="#1a2e35"/><path d="M167.18,403.65c-.18.08-.65-.77-1.54-1.49s-1.72-1.05-1.72-1.26,1.11-.17,2.13.69S167.37,403.6,167.18,403.65Z" transform="translate(-4)" fill="#1a2e35"/><path d="M257,166.47l-17.63,12.31.27,4.87,4.56,10.27s2.13,2.13,8.37-4.56,14.12-19.94,14.12-19.94Z" transform="translate(-4)" fill="#ffbf9d"/><path d="M286.62,140.83a1.49,1.49,0,0,0-1.14-.91l-8.65-1.23a2.67,2.67,0,0,0-2.1.68l-24.66,22.46,1.12,1.15,9.27,2.36,26.35-24.1Z" transform="translate(-4)" fill="#1a2e35"/><path d="M279.78,142.69a.51.51,0,0,0,.73.05.56.56,0,0,0,.26-.68A.52.52,0,0,0,280,142,.55.55,0,0,0,279.78,142.69Z" transform="translate(-4)" fill="#fff"/><path d="M286.79,141.24a10.69,10.69,0,0,1-1.69-.13l-4.57-.57-3.17-.42a1.7,1.7,0,0,0-1.49.41l-1.41,1.29-6.32,5.75c-4.49,4.07-8.57,7.74-11.54,10.37l-3.55,3.1a12.21,12.21,0,0,1-1.3,1.08,9.46,9.46,0,0,1,1.21-1.24l3.43-3.23c2.9-2.7,6.95-6.41,11.44-10.48l6.35-5.73,1.42-1.27a2.16,2.16,0,0,1,1.85-.5l3.16.49,4.57.73A11.28,11.28,0,0,1,286.79,141.24Z" transform="translate(-4)" fill="#375a64"/><path d="M277.83,145.93s-.79-.4-1.88,1.86-4.34,8.7-4.34,8.7l-3.69-3.73-5.63-.86s-1.49.81-.79,1.7,4,2.55,4,2.55l1.51,4.6-6.28-5.86s-2.61,0-2.3,1.72,3.91,8.13,3.91,8.13l-3.56-1.38-3.63-4s-1.34-.33-1.17,1,3.53,7,3.53,7l4.72,4.42s3,.64,3.57-.21a11,11,0,0,0,.95-2.13s1.7,0,2.21-.69a5.52,5.52,0,0,0,.65-2.06s2.37,1.19,3.06-.18a18.17,18.17,0,0,0,1.25-5.51c.05-1.2,4.13-11.27,4.11-11.62S279.57,145.7,277.83,145.93Z" transform="translate(-4)" fill="#ffbf9d"/><path d="M265.94,171.6a2.88,2.88,0,0,1-1.54.05,9.82,9.82,0,0,1-6.42-3.78c-.6-.8-.84-1.37-.78-1.41a16.38,16.38,0,0,0,3.91,3.44C263.58,171.37,266,171.41,265.94,171.6Z" transform="translate(-4)" fill="#ff9a6c"/><path d="M265.2,169.15c-.12.1-.95-.69-1.74-1.92a5.6,5.6,0,0,1-1.11-2.38c.14-.09.81.85,1.59,2S265.32,169,265.2,169.15Z" transform="translate(-4)" fill="#ff9a6c"/><path d="M269.39,165c-.12.11-.94-.69-1.65-1.93a4.9,4.9,0,0,1-.89-2.44c.15-.06.69.92,1.38,2.11A8.06,8.06,0,0,1,269.39,165Z" transform="translate(-4)" fill="#ff9a6c"/><path d="M273.47,161.9a18.51,18.51,0,0,1-1-2.66,15.54,15.54,0,0,1-1-2.63c.13-.11,1,.88,1.57,2.4A4.83,4.83,0,0,1,273.47,161.9Z" transform="translate(-4)" fill="#ff9a6c"/><path d="M230.9,141.8c-6.69-.25-20.77-20.78-20.68-27.87l.52-42.64c-.2-11.45,5.93-21.13,16.76-21l1,.07c10.09.74,17.95,9.51,18.06,20.17.13,9.93.15,20.9-.25,26.2-.8,11-11.31,11.93-11.31,11.93s-.09,2.56-.16,5.78c-.16,7.25,2.51,27.6-4.33,27.35Z" transform="translate(-4)" fill="#ffbf9d"/><path d="M235,108.63a24.18,24.18,0,0,1-13.22-5.18s2.72,8.48,13.13,8.25Z" transform="translate(-4)" fill="#ff9a6c"/><path d="M243.05,79.5A1.53,1.53,0,0,1,241.52,81a1.45,1.45,0,0,1-1.43-1.48s0,0,0,0A1.51,1.51,0,0,1,241.61,78a1.46,1.46,0,0,1,1.44,1.48Z" transform="translate(-4)" fill="#1a2e35"/><path d="M244,75.19c-.2.19-1.26-.77-2.85-.88s-2.81.69-3,.44c-.08-.1.13-.46.65-.81a3.9,3.9,0,0,1,4.66.35C244,74.73,244.14,75.1,244,75.19Z" transform="translate(-4)" fill="#1a2e35"/><path d="M228.47,79.15a1.52,1.52,0,0,1-1.53,1.48,1.47,1.47,0,0,1-1.44-1.47v0A1.53,1.53,0,0,1,227,77.63a1.47,1.47,0,0,1,1.44,1.49Z" transform="translate(-4)" fill="#1a2e35"/><path d="M228.4,74.47c-.19.19-1.26-.76-2.86-.87s-2.81.64-3,.43.13-.45.66-.81a3.88,3.88,0,0,1,4.65.35C228.36,74,228.53,74.39,228.4,74.47Z" transform="translate(-4)" fill="#1a2e35"/><path d="M233.29,87.83a10.87,10.87,0,0,1,2.61-.31c.41,0,.8-.07.89-.36a2.29,2.29,0,0,0-.2-1.29c-.31-1.08-.65-2.19-1-3.37-1.38-4.81-2.34-8.71-2.15-8.77s1.44,3.78,2.81,8.57c.33,1.18.65,2.3,1,3.38a2.61,2.61,0,0,1,.1,1.7,1,1,0,0,1-.71.58,2.72,2.72,0,0,1-.7.06A9.78,9.78,0,0,1,233.29,87.83Z" transform="translate(-4)" fill="#1a2e35"/><path d="M228.66,68.16c-.24.42-1.76-.15-3.64-.33s-3.46,0-3.63-.43c-.07-.22.27-.58,1-.89a6.09,6.09,0,0,1,5.54.58C228.53,67.53,228.77,68,228.66,68.16Z" transform="translate(-4)" fill="#1a2e35"/><path d="M243.92,71.22c-.36.37-1.64-.11-3.2-.21s-2.89.1-3.17-.32c-.13-.2.1-.57.69-.9a5.1,5.1,0,0,1,5.14.42C243.91,70.64,244.07,71.05,243.92,71.22Z" transform="translate(-4)" fill="#1a2e35"/><path d="M211.07,79.48c-.17-.09-7-2.75-7.23,4.82s6.93,6.23,6.95,6S211.07,79.48,211.07,79.48Z" transform="translate(-4)" fill="#ffbf9d"/><path d="M208.72,87.35s-.13.09-.34.19a1.25,1.25,0,0,1-.93,0c-.74-.33-1.3-1.61-1.3-3a4.42,4.42,0,0,1,.41-1.86,1.48,1.48,0,0,1,1-1,.64.64,0,0,1,.71.38c.1.22,0,.37.08.38s.16-.11.11-.43a.84.84,0,0,0-.26-.48.94.94,0,0,0-.66-.22,1.79,1.79,0,0,0-1.3,1.12,4.71,4.71,0,0,0-.5,2.06c0,1.52.65,3,1.7,3.32a1.26,1.26,0,0,0,1.13-.15C208.7,87.54,208.74,87.36,208.72,87.35Z" transform="translate(-4)" fill="#ff9a6c"/><path d="M228.89,88.62c-.1,0-.17.42,0,1.08a4.36,4.36,0,0,0,1.23,2.24,6.62,6.62,0,0,0,2,1.32c.57.24.93.31,1,.22s-.24-.36-.73-.69a14.62,14.62,0,0,1-1.78-1.38C229.32,90.16,229.11,88.57,228.89,88.62Z" transform="translate(-4)" fill="#1a2e35"/><path d="M177.32,219.32l-4.57,30.26,3.36,25,.14,5.43,3.4,26.67s-1.26,25.14-1.89,30.6,1.61,82.28,1.61,82.28l23.06-1.09s8.74-114,8.7-115.23,12-85.28,12-85.28Z" transform="translate(-4)" fill="#1a2e35"/><path d="M235.71,224s-.46,102.38-2.61,108.3-62.85,69.59-62.85,69.59L151,386l49.07-69.93,3-97.55Z" transform="translate(-4)" fill="#1a2e35"/><path d="M219.6,250.78c.13,0-2.74,25.87-6.41,57.77s-6.75,57.64-6.85,57.63,2.74-25.87,6.41-57.77S219.47,250.74,219.6,250.78Z" transform="translate(-4)" fill="#375a64"/><path d="M179.63,306.68a1,1,0,0,1,0,.25,5.25,5.25,0,0,1,0,.74c-.05.69-.11,1.64-.19,2.84-.2,2.47-.41,6-.65,10.44-.47,8.83-.86,21-.76,34.51s.48,25.7.69,34.54c.1,4.38.18,7.95.24,10.46v3.84a.69.69,0,0,1,0-.25,5.25,5.25,0,0,0,0-.74c0-.69-.07-1.64-.12-2.84-.09-2.51-.22-6.08-.38-10.46-.31-8.84-.76-21-.83-34.54s.34-25.72.9-34.54c.29-4.41.56-8,.81-10.44.12-1.19.21-2.14.28-2.83,0-.3.06-.54.08-.73A1,1,0,0,1,179.63,306.68Z" transform="translate(-4)" fill="#375a64"/><path d="M203,248.59c.06.13-4.14,2.47-9.39,5.24s-9.54,4.91-9.6,4.81,4.14-2.47,9.39-5.23S202.92,248.47,203,248.59Z" transform="translate(-4)" fill="#375a64"/><path d="M249.5,169.39l11.6,11s-18.16,21-23.76,25.63,1.79-31.67,1.79-31.67Z" transform="translate(-4)" fill="#1da1f2"/><path d="M210.11,103.75l-4.82,7.08-18.77,7.34L178,185.73l-5.37,60.33s7.52-11.35,13.27-11.51,34.83,8.45,36.79,10l3.85-13.68,3.12,15.82s5.47,1.3,8.32-7.34l-1.21-30s3.84-54,3.63-62.2S235,116.43,235,116.43l-2,6.67-16.91-15.26Z" transform="translate(-4)" fill="#1da1f2"/><path d="M192,116.12s-12.33,0-16.31,24.13-9.73,50.12-6.77,59.83,14.49,37.63,14.49,37.63l15.9-6.05-6.53-43.89,7.54-43S201.24,117.88,192,116.12Z" transform="translate(-4)" fill="#1da1f2"/><path d="M206.13,241.35s-7.58-9.43-8.15-9.2L185.4,237a58.31,58.31,0,0,0,.08,10.32c.49,4.92,1.31,10.18,1.31,10.18l16.54-9.33a32.63,32.63,0,0,0,1.62,5.68c.92,2.07,4.12-.12,4.12-.12Z" transform="translate(-4)" fill="#ffbf9d"/><path d="M200.31,144.82a4.11,4.11,0,0,1-.11.77c-.11.51-.21,1.27-.37,2.24-.34,2-.82,4.89-1.46,8.6-1.3,7.47-3.14,18.2-5.42,31.37v-.06c1.87,12.5,4.1,27.47,6.56,43.88v.19l-.17.07L183.5,238l-.21.08-.09-.21-5-12.38c-3-7.6-6-15-8.53-22.34-.33-.91-.61-1.84-.91-2.75-.13-.47-.22-.95-.34-1.42a8.54,8.54,0,0,1-.24-1.43,24.69,24.69,0,0,1-.24-2.86c0-.95-.07-1.89,0-2.84a102.91,102.91,0,0,1,.88-11c.87-7.1,2.06-13.75,3.14-20s2.13-12.07,3.06-17.39c.43-2.66.93-5.19,1.43-7.56.32-1.18.65-2.31.93-3.44a32,32,0,0,1,1.11-3.14,26.32,26.32,0,0,1,5.67-9.17,14.48,14.48,0,0,1,5.61-3.58,9.86,9.86,0,0,1,1.67-.39l.44,0H192l-.58.07a10.57,10.57,0,0,0-1.65.44,14.6,14.6,0,0,0-5.51,3.63,26.21,26.21,0,0,0-5.58,9.14c-.34,1-.72,2.07-1.07,3.12s-.6,2.23-.91,3.44c-.49,2.37-1,4.89-1.39,7.56l-3,17.4c-1.09,6.25-2.23,12.94-3.1,20a107.57,107.57,0,0,0-.85,10.92c0,.92,0,1.86,0,2.79a22,22,0,0,0,.24,2.82,8,8,0,0,0,.24,1.37c.11.46.19.92.33,1.38.29.91.58,1.83.9,2.75,2.55,7.28,5.5,14.71,8.53,22.31l5.05,12.38-.3-.14,15.89-6-.15.26c-2.42-16.41-4.63-31.39-6.47-43.89v-.07c2.35-13.16,4.26-23.88,5.58-31.34.66-3.7,1.2-6.59,1.56-8.58.19-1,.32-1.71.42-2.24S200.31,144.82,200.31,144.82Z" transform="translate(-4)" fill="#1a2e35"/><path d="M233.06,123.1a5.92,5.92,0,0,1-.38.9l-1.14,2.45-4.16,8.48-.15.32-.21-.31c-1.48-2.14-3.17-4.46-5-6.82a134.68,134.68,0,0,0-10-11.32c-1.35-1.38-2.47-2.46-3.26-3.21a10.2,10.2,0,0,1-1.18-1.19,10.87,10.87,0,0,1,1.31,1c.81.69,2,1.76,3.35,3.1a113.84,113.84,0,0,1,10.12,11.25c1.87,2.38,3.56,4.71,5,6.88H227l4.3-8.41,1.26-2.38A4.55,4.55,0,0,1,233.06,123.1Z" transform="translate(-4)" fill="#1a2e35"/><path d="M237.21,126.71c.17-.06,1,3,.4,7.09l-.11.73-.33-.69c-.18-.35-.36-.72-.53-1.11-.9-2.13-1.37-4.12-1.87-5.55a22.86,22.86,0,0,1-.8-2.27,7.53,7.53,0,0,1,1.12,2.14c.58,1.38,1.11,3.4,1.95,5.47.17.38.34.73.51,1.08l-.44.06a23.51,23.51,0,0,0,.22-5C237.32,127.46,237.17,126.73,237.21,126.71Z" transform="translate(-4)" fill="#1a2e35"/><path d="M233.87,126.59v4.11c0,2.65-.15,6.48-.4,11.21-.47,9.46-1.56,22.49-2.67,36.88s-2.22,27.4-3,36.87c-.39,4.68-.72,8.49-.95,11.17-.12,1.28-.22,2.3-.29,3,0,.32-.06.58-.08.78a1.08,1.08,0,0,1-.05.27v-.27a6.4,6.4,0,0,1,0-.79c.05-.73.11-1.75.2-3,.19-2.68.47-6.49.81-11.18.72-9.47,1.73-22.49,2.84-36.88s2.26-27.42,2.82-36.86c.28-4.72.44-8.55.53-11.19,0-1.3.08-2.31.11-3a4.48,4.48,0,0,1,0-.79A.84.84,0,0,1,233.87,126.59Z" transform="translate(-4)" fill="#1a2e35"/><path d="M240.52,150.07c.13,0-.58,13.37-1.58,29.84s-2,29.81-2.07,29.79.59-13.36,1.59-29.83S240.39,150.07,240.52,150.07Z" transform="translate(-4)" fill="#1a2e35"/><path d="M203.39,133.92c-.08,0-.08-1.21-.53-3.07a14.74,14.74,0,0,0-9.14-10.53c-1.71-.63-2.85-.74-2.84-.83a2.15,2.15,0,0,1,.8,0,11.23,11.23,0,0,1,2.14.48,14.09,14.09,0,0,1,9.37,10.79,13.5,13.5,0,0,1,.26,2.29A2.54,2.54,0,0,1,203.39,133.92Z" transform="translate(-4)" fill="#1a2e35"/><g opacity="0.3"><path d="M237.53,205.64a57.79,57.79,0,0,0,1.74-31.26c-.65,10.5-1.14,21-1.77,31.5" transform="translate(-4)"/></g><g opacity="0.3"><path d="M199.65,148.56c-4.06,22.38-7.37,43.61-6.91,40.67l6.53,42.43,3.86,6.05C199.81,209.24,197,176.92,199.65,148.56Z" transform="translate(-4)"/></g><path d="M254,57.7a4.4,4.4,0,0,0-2.11-3.51,7.58,7.58,0,0,0,0-1.26,5.48,5.48,0,0,0-4.87-4.81,5.18,5.18,0,0,0-5.78-4.61,5,5,0,0,0-2.76,1.36,5.89,5.89,0,0,0-6.53-1.42,1.61,1.61,0,0,0-.72.52.8.8,0,0,0-.11.59,3.62,3.62,0,0,0-4.21-2.07,4.19,4.19,0,0,0-3,1.38,6,6,0,0,0-7.68,3,5.87,5.87,0,0,0-5.44,3.88,4.35,4.35,0,0,0-3.7,2.33,4.86,4.86,0,0,0,0,4.54s-5.06.83-4.07,5.63c.5,2.45,3.57,2.25,3.57,2.25L209.36,81c-.07.07.77,1.92,1.65,1.6a4.46,4.46,0,0,0,2-2,11,11,0,0,0,1.69-2.86,2.72,2.72,0,0,0-.78-3,3.85,3.85,0,0,0,2.45-2.93,12.18,12.18,0,0,0,0-4.13l-.61-6a7,7,0,0,0,6.42-3.81,3.93,3.93,0,0,0,5.72-.67,3.07,3.07,0,0,0,.28-.42,5.3,5.3,0,0,0,6.22,3.94c-.39,1.54,2.16,3.18,3.58,3.7a5,5,0,0,0,3.3-.43,8.27,8.27,0,0,0,2.81,1.3h.15c2,.35,4.09-1.43,5.18-3.22a3.64,3.64,0,0,0,1.54-.06A4.34,4.34,0,0,0,254,57.7Z" transform="translate(-4)" fill="#1a2e35"/><path d="M196.1,170.32c0,.08-1.3-.57-3.46-1.5a74.77,74.77,0,0,0-8.52-3.09,72.29,72.29,0,0,0-8.81-2c-2.29-.37-3.71-.52-3.7-.6a3.35,3.35,0,0,1,1,0,25.32,25.32,0,0,1,2.74.23,55.73,55.73,0,0,1,17.43,5.1c1.05.51,1.89,1,2.46,1.29A3.7,3.7,0,0,1,196.1,170.32Z" transform="translate(-4)" fill="#fff"/><path d="M187.05,235.89a1.39,1.39,0,0,1-.12-.28l-.33-.82c-.28-.76-.65-1.83-1.18-3.18-1-2.75-2.46-6.77-4.06-11.8a135.33,135.33,0,0,1-4.57-18,87.24,87.24,0,0,1-1.26-10.94,80.55,80.55,0,0,1,.3-11.83,184.31,184.31,0,0,1,4-22.45c1.51-6.82,3.05-12.94,4.36-18.05s2.49-9.23,3.31-12.06l1-3.26c.11-.35.2-.62.26-.84a2.33,2.33,0,0,1,.11-.28,2.5,2.5,0,0,1-.05.29c-.06.23-.14.51-.22.86-.22.79-.51,1.89-.88,3.29-.77,2.85-1.86,7-3.15,12.1s-2.76,11.24-4.27,18.07a185.47,185.47,0,0,0-3.91,22.38,80.9,80.9,0,0,0-.32,11.75,90.1,90.1,0,0,0,1.23,10.88,141.34,141.34,0,0,0,4.45,18c1.55,5,2.95,9.06,3.91,11.85l1.09,3.21c.12.34.2.63.28.84A1.32,1.32,0,0,1,187.05,235.89Z" transform="translate(-4)" fill="#fff"/><path d="M194.5,204.35a2.9,2.9,0,0,1-.79.43c-.52.24-1.31.56-2.24.92A54.18,54.18,0,0,1,176,208.94c-1,.06-1.83.07-2.4.06a2.89,2.89,0,0,1-.88-.08,27.54,27.54,0,0,1,3.26-.36,75.48,75.48,0,0,0,7.78-1.21,67.75,67.75,0,0,0,7.62-2.06A28.18,28.18,0,0,1,194.5,204.35Z" transform="translate(-4)" fill="#fff"/><path d="M202.92,137.9c-.08.06-.88-1.26-2.52-3.06a26.47,26.47,0,0,0-3.12-2.87,24.15,24.15,0,0,0-13.23-5.13c-2.35-.15-3.82,0-3.83-.06a4.39,4.39,0,0,1,1-.2,9.89,9.89,0,0,1,1.21-.11,14.55,14.55,0,0,1,1.62,0,21.76,21.76,0,0,1,4.18.55,23.5,23.5,0,0,1,9.31,4.56,23,23,0,0,1,3.1,3,16.14,16.14,0,0,1,1,1.31,10.88,10.88,0,0,1,.71,1.06A4.27,4.27,0,0,1,202.92,137.9Z" transform="translate(-4)" fill="#fff"/><path d="M211.4,239.6a1.93,1.93,0,0,1,0-.34v-4.8c0-3.35.1-8.13.18-14,.2-11.87.49-28.2.79-46.24.16-9,.28-17.63,0-25.44-.13-3.91-.36-7.61-.68-11.07a60.89,60.89,0,0,0-1.48-9.51,26.55,26.55,0,0,0-2.94-7.26,18.3,18.3,0,0,0-3.75-4.46,14.86,14.86,0,0,0-3-2c-.74-.36-1.16-.49-1.15-.52a7,7,0,0,1,1.19.43,13.37,13.37,0,0,1,3.12,1.92,18.41,18.41,0,0,1,3.86,4.47,26.08,26.08,0,0,1,3.05,7.32,60.29,60.29,0,0,1,1.55,9.56c.34,3.44.6,7.18.73,11.1.3,7.82.2,16.44,0,25.44-.36,18-.7,34.39-.94,46.24-.15,5.88-.27,10.66-.34,14-.06,1.63-.1,2.91-.13,3.81,0,.42,0,.74,0,1A1.5,1.5,0,0,1,211.4,239.6Z" transform="translate(-4)" fill="#fff"/><path d="M227.39,217.26a5.27,5.27,0,0,1-1.25-.14c-.8-.11-2-.31-3.38-.57-2.85-.51-6.78-1.28-11.1-2.22s-8.22-1.89-11-2.61c-1.41-.36-2.54-.69-3.33-.89a5.58,5.58,0,0,1-1.19-.41,5.73,5.73,0,0,1,1.24.2l3.36.69,11.05,2.45,11,2.38,3.35.74A5.76,5.76,0,0,1,227.39,217.26Z" transform="translate(-4)" fill="#fff"/><path d="M230.07,179.67c0,.15-8-.36-17.76-1.14s-17.72-1.53-17.72-1.68,8,.36,17.76,1.14S230.09,179.51,230.07,179.67Z" transform="translate(-4)" fill="#fff"/><path d="M232.68,146.58a6.44,6.44,0,0,1-1.31.17c-.82.07-2,.15-3.5.24-3,.16-7,.28-11.55.25s-8.6-.2-11.55-.4c-1.48-.1-2.67-.2-3.49-.28a7.24,7.24,0,0,1-1.31-.18,4.79,4.79,0,0,1,1.31,0l3.49.11c3,.09,7,.2,11.54.24s8.59,0,11.55-.1l3.5-.07A5.3,5.3,0,0,1,232.68,146.58Z" transform="translate(-4)" fill="#fff"/><path d="M211.56,115.68a13.81,13.81,0,0,1-2.36.59A52.84,52.84,0,0,0,198.1,120a15.29,15.29,0,0,1-2.23,1,9.12,9.12,0,0,1,2.08-1.34,36.4,36.4,0,0,1,5.44-2.37,34.55,34.55,0,0,1,5.73-1.43A9.09,9.09,0,0,1,211.56,115.68Z" transform="translate(-4)" fill="#fff"/><path d="M231.42,127.53a6.57,6.57,0,0,1-.92-.83l-2.37-2.37c-2-2-4.79-4.75-7.94-7.69s-6.08-5.5-8.22-7.37l-2.52-2.22a5.94,5.94,0,0,1-.89-.85,4.69,4.69,0,0,1,1,.69c.65.47,1.53,1.17,2.61,2.06,2.19,1.78,5.16,4.31,8.33,7.26s5.91,5.75,7.83,7.82c1,1,1.74,1.89,2.26,2.5A6.1,6.1,0,0,1,231.42,127.53Z" transform="translate(-4)" fill="#fff"/><path d="M224.93,116.21a23.34,23.34,0,0,1-3,3.9,20.77,20.77,0,0,1-3.39,3.53,21.76,21.76,0,0,1,3-3.9A22.72,22.72,0,0,1,224.93,116.21Z" transform="translate(-4)" fill="#fff"/><path d="M240.5,147.19a18.12,18.12,0,0,1-3.65-.12,22.2,22.2,0,0,1-3.63-.23,8.56,8.56,0,0,1,3.66-.31A9,9,0,0,1,240.5,147.19Z" transform="translate(-4)" fill="#fff"/><path d="M238.16,182.16a25.49,25.49,0,0,1-7.4-.18,24.59,24.59,0,0,1,7.4.18Z" transform="translate(-4)" fill="#fff"/><path d="M237.5,134.56a.66.66,0,0,1,0,.28v.84c0,.78,0,1.86.05,3.23s0,3.12,0,5.11-.06,4.26-.14,6.76c-.27,10-1.08,23.85-2.1,39.1S233.42,219,233.06,229c-.12,2.5-.19,4.77-.23,6.75s-.1,3.71-.11,5.11,0,2.44-.05,3.22v.84a1.41,1.41,0,0,1,0,.29,1.31,1.31,0,0,1,0-.28v-.84c0-.79,0-1.87,0-3.23s0-3.12,0-5.11.05-4.26.14-6.76c.27-10,1.09-23.85,2.11-39.11s1.88-29.06,2.24-39.07c.11-2.5.18-4.77.22-6.76s.1-3.7.11-5.1,0-2.45.05-3.23v-.84A1.31,1.31,0,0,1,237.5,134.56Z" transform="translate(-4)" fill="#fff"/><path d="M237,217.08a21.43,21.43,0,0,1-4.68,1.19,21,21,0,0,1-4.76.65,20.53,20.53,0,0,1,4.67-1.18A26,26,0,0,1,237,217.08Z" transform="translate(-4)" fill="#fff"/><path d="M255.66,175.72a21.15,21.15,0,0,1-2.61,1.79c-1.62,1.07-3.85,2.58-6.24,4.34s-4.51,3.43-6,4.67a22.37,22.37,0,0,1-2.5,1.95,16.16,16.16,0,0,1,2.28-2.25c1.46-1.32,3.55-3.05,5.95-4.81s4.68-3.23,6.35-4.22A16.27,16.27,0,0,1,255.66,175.72Z" transform="translate(-4)" fill="#fff"/><path d="M252.5,189.78a17.78,17.78,0,0,1-1.38-2.4c-.81-1.5-2-3.57-3.26-5.81s-2.58-4.22-3.51-5.65a16.11,16.11,0,0,1-1.43-2.36,11.85,11.85,0,0,1,1.73,2.13c1,1.38,2.32,3.34,3.65,5.59s2.41,4.36,3.14,5.92A13.86,13.86,0,0,1,252.5,189.78Z" transform="translate(-4)" fill="#fff"/></svg>