<svg id="Layer_2" data-name="Layer 2" xmlns="http://www.w3.org/2000/svg" viewBox="0 0 708 444.06"><polygon points="181.23 189.86 50.11 189.86 50.11 17.41 150.41 17.72 181.23 53.11 181.23 189.86" fill="#ececec"/><path d="M89.34,115.77c-.17.17-2.35-1.91-5.74-5.41s-8-8.42-13-13.94L70,95.8l.56-.62.05-.06c5-5.56,9.57-10.53,12.94-14.06s5.55-5.64,5.73-5.47-1.7,2.58-4.85,6.34-7.6,8.86-12.58,14.43l-.06.06V95.18c5,5.51,9.46,10.58,12.62,14.3S89.5,115.6,89.34,115.77Z" transform="translate(0 0.03)" fill="#1a2e35"/><path d="M142,75.59c.17-.17,2.35,1.91,5.73,5.41s8,8.43,13,13.94l.56.62-.55.62-.06.06c-5,5.57-9.56,10.53-12.94,14.07s-5.62,5.66-5.74,5.46,1.7-2.58,4.85-6.34,7.59-8.86,12.58-14.42l0-.06v1.24c-5-5.52-9.45-10.58-12.61-14.31S141.78,75.77,142,75.59Z" transform="translate(0 0.03)" fill="#1a2e35"/><path d="M99.69,122.11c-.4-.26,6.41-12.8,15.2-28S131.14,66.79,131.54,67s-6.4,12.8-15.2,28S100.09,122.37,99.69,122.11Z" transform="translate(0 0.03)" fill="#1a2e35"/><path d="M150.4,17.7l-.12,28.89a7.24,7.24,0,0,0,7,7.46h.22l23.71-.94Z" transform="translate(0 0.03)" fill="#e1e1e1"/><rect x="34.81" y="134.23" width="58.15" height="37.37" fill="#1da1f2"/><path d="M51.33,160.53l1.51-1.88a4.51,4.51,0,0,0,3.81,2.29c2.06,0,3.13-1.32,3.13-3.91V146.19h-6.6v-2.4h9.18v13.1c0,4.3-2,6.43-5.71,6.43A6.24,6.24,0,0,1,51.33,160.53Z" transform="translate(0 0.03)" fill="#fff"/><path d="M66,160.89l1-2.15A9.19,9.19,0,0,0,73,161c3.15,0,4.51-1.29,4.51-3,0-4.71-11.06-1.73-11.06-8.91,0-3,2.19-5.51,7-5.51a10.38,10.38,0,0,1,5.87,1.71l-.86,2.21a9,9,0,0,0-5-1.58c-3.1,0-4.43,1.38-4.43,3.06,0,4.72,11,1.77,11,8.86,0,2.95-2.24,5.49-7.06,5.49A10.49,10.49,0,0,1,66,160.89Z" transform="translate(0 0.03)" fill="#fff"/><path d="M293,27.58a9.21,9.21,0,0,0-4.75,8.25l.41,68.42a9.28,9.28,0,0,0,4.18,7.81L346.52,146h0L398,110.67a9.32,9.32,0,0,0,3.91-7.75l-.43-71.44a9.15,9.15,0,0,0-5.14-8.33L345.67,0Z" transform="translate(0 0.03)" fill="#1da1f2"/><g opacity="0.2"><path d="M345.67,0l.87,146,51.35-35.19a9.27,9.27,0,0,0,4-7.71l-.4-71.72a9,9,0,0,0-5.09-8.14Z" transform="translate(0 0.03)"/></g><path d="M360.7,82l-31.33.2-6.39,16-8.67,0,26.32-64H349l27.16,63.69-8.85.06Zm-3-7.28L344.8,43.47,332.27,74.86Z" transform="translate(0 0.03)" fill="#fff"/><rect x="321.21" y="111.85" width="295.72" height="182.23" fill="#1a2e35"/><path d="M344.34,284.89c-.15,0-.28-37.27-.28-83.23s.13-83.23.28-83.23.29,37.26.29,83.23S344.5,284.89,344.34,284.89Z" transform="translate(0 0.03)" fill="#e1e1e1"/><path d="M338.26,125.45c0,.17-2.19.3-4.89.3s-4.9-.13-4.9-.3a40.09,40.09,0,0,1,9.79,0Z" transform="translate(0 0.03)" fill="#e1e1e1"/><path d="M338.26,136.42c0,.17-2.19.3-4.89.3s-4.9-.13-4.9-.3a40.09,40.09,0,0,1,9.79,0Z" transform="translate(0 0.03)" fill="#e1e1e1"/><path d="M338.26,147.39c0,.17-2.19.3-4.89.3s-4.9-.13-4.9-.3a40.09,40.09,0,0,1,9.79,0Z" transform="translate(0 0.03)" fill="#e1e1e1"/><path d="M338.26,158.36a40.09,40.09,0,0,1-9.79,0c0-.17,2.19-.3,4.9-.3S338.26,158.19,338.26,158.36Z" transform="translate(0 0.03)" fill="#e1e1e1"/><path d="M338.26,169.33a40.09,40.09,0,0,1-9.79,0c0-.17,2.19-.3,4.9-.3S338.26,169.16,338.26,169.33Z" transform="translate(0 0.03)" fill="#e1e1e1"/><path d="M338.26,180.29c0,.17-2.19.3-4.89.3s-4.9-.13-4.9-.3a41.11,41.11,0,0,1,9.79,0Z" transform="translate(0 0.03)" fill="#e1e1e1"/><path d="M338.26,191.26c0,.17-2.19.3-4.89.3s-4.9-.13-4.9-.3a40.09,40.09,0,0,1,9.79,0Z" transform="translate(0 0.03)" fill="#e1e1e1"/><path d="M338.26,202.23c0,.17-2.19.3-4.89.3s-4.9-.13-4.9-.3a40.09,40.09,0,0,1,9.79,0Z" transform="translate(0 0.03)" fill="#e1e1e1"/><path d="M338.26,213.2a40.09,40.09,0,0,1-9.79,0c0-.17,2.19-.3,4.9-.3S338.26,213,338.26,213.2Z" transform="translate(0 0.03)" fill="#e1e1e1"/><path d="M338.26,224.17a40.09,40.09,0,0,1-9.79,0c0-.17,2.19-.3,4.9-.3S338.26,224,338.26,224.17Z" transform="translate(0 0.03)" fill="#e1e1e1"/><path d="M338.26,235.14a41.11,41.11,0,0,1-9.79,0c0-.17,2.19-.3,4.9-.3S338.26,235,338.26,235.14Z" transform="translate(0 0.03)" fill="#e1e1e1"/><path d="M338.26,246.1c0,.17-2.19.3-4.89.3s-4.9-.13-4.9-.3a40.09,40.09,0,0,1,9.79,0Z" transform="translate(0 0.03)" fill="#e1e1e1"/><path d="M338.26,257.07c0,.17-2.19.3-4.89.3s-4.9-.13-4.9-.3a40.09,40.09,0,0,1,9.79,0Z" transform="translate(0 0.03)" fill="#e1e1e1"/><path d="M338.26,268c0,.17-2.19.3-4.89.3s-4.9-.13-4.9-.3,2.19-.3,4.9-.3S338.26,267.87,338.26,268Z" transform="translate(0 0.03)" fill="#e1e1e1"/><path d="M338.26,279a40.09,40.09,0,0,1-9.79,0c0-.17,2.19-.3,4.9-.3A22.52,22.52,0,0,1,338.26,279Z" transform="translate(0 0.03)" fill="#e1e1e1"/><path d="M377.52,124.81c0,.16-5.69.3-12.71.3s-12.71-.14-12.71-.3,5.69-.3,12.71-.3S377.52,124.64,377.52,124.81Z" transform="translate(0 0.03)" fill="#1da1f2"/><path d="M377.52,279c0,.16-5.69.3-12.71.3s-12.71-.14-12.71-.3,5.69-.3,12.71-.3S377.52,278.84,377.52,279Z" transform="translate(0 0.03)" fill="#1da1f2"/><path d="M412.91,147.39c0,.17-10.64.3-23.77.3s-23.78-.13-23.78-.3,10.64-.3,23.78-.3S412.91,147.23,412.91,147.39Z" transform="translate(0 0.03)" fill="#1da1f2"/><path d="M467.9,147.39c0,.17-10.64.3-23.77.3s-23.78-.13-23.78-.3,10.64-.3,23.78-.3S467.9,147.23,467.9,147.39Z" transform="translate(0 0.03)" fill="#e1e1e1"/><path d="M446.89,158.36c0,.16-15.69.3-35,.3s-35.05-.14-35.05-.3,15.69-.3,35.05-.3S446.89,158.19,446.89,158.36Z" transform="translate(0 0.03)" fill="#e1e1e1"/><path d="M446.89,169.33c0,.16-15.69.3-35,.3s-35.05-.14-35.05-.3,15.69-.3,35.05-.3S446.89,169.16,446.89,169.33Z" transform="translate(0 0.03)" fill="#e1e1e1"/><path d="M495.13,202.23c0,.17-15.69.3-35,.3s-35.05-.13-35.05-.3,15.69-.3,35.05-.3S495.13,202.07,495.13,202.23Z" transform="translate(0 0.03)" fill="#e1e1e1"/><path d="M474.31,180.29c0,.17-15.69.3-35,.3s-35-.13-35-.3,15.68-.29,35-.29S474.31,180.13,474.31,180.29Z" transform="translate(0 0.03)" fill="#e1e1e1"/><path d="M560,180.29c0,.17-15.69.3-35,.3s-35-.13-35-.3,15.69-.29,35-.29S560,180.13,560,180.29Z" transform="translate(0 0.03)" fill="#e1e1e1"/><path d="M530.17,158.36c0,.16-15.69.3-35,.3s-35-.14-35-.3,15.68-.3,35-.3S530.17,158.19,530.17,158.36Z" transform="translate(0 0.03)" fill="#fafafa"/><path d="M578.58,202.23c0,.17-15.69.3-35,.3s-35-.13-35-.3,15.68-.3,35-.3S578.58,202.07,578.58,202.23Z" transform="translate(0 0.03)" fill="#fafafa"/><path d="M568.91,169.33c0,.16-24.36.3-54.41.3s-54.41-.14-54.41-.3,24.35-.3,54.41-.3S568.91,169.16,568.91,169.33Z" transform="translate(0 0.03)" fill="#375a64"/><path d="M377.52,136.42c0,.17-5.69.3-12.71.3s-12.71-.13-12.71-.3,5.69-.3,12.71-.3S377.52,136.26,377.52,136.42Z" transform="translate(0 0.03)" fill="#fafafa"/><path d="M377.52,268c0,.17-5.69.3-12.71.3s-12.71-.13-12.71-.3,5.69-.3,12.71-.3S377.52,267.87,377.52,268Z" transform="translate(0 0.03)" fill="#fafafa"/><path d="M390.11,180.29c0,.17-5.69.3-12.71.3s-12.71-.13-12.71-.3,5.69-.29,12.71-.29S390.11,180.13,390.11,180.29Z" transform="translate(0 0.03)" fill="#fafafa"/><path d="M593.81,180.29c0,.17-5.69.3-12.7.3s-12.71-.13-12.71-.3,5.69-.29,12.71-.29S593.81,180.13,593.81,180.29Z" transform="translate(0 0.03)" fill="#1da1f2"/><path d="M412.91,224.1c0,.17-10.64.3-23.77.3s-23.78-.13-23.78-.3,10.64-.3,23.78-.3S412.91,224,412.91,224.1Z" transform="translate(0 0.03)" fill="#1da1f2"/><path d="M467.9,224.1c0,.17-10.64.3-23.77.3s-23.78-.13-23.78-.3,10.64-.3,23.78-.3S467.9,224,467.9,224.1Z" transform="translate(0 0.03)" fill="#e1e1e1"/><path d="M446.89,235.07c0,.17-15.69.3-35,.3s-35.05-.13-35.05-.3,15.69-.3,35.05-.3S446.89,234.91,446.89,235.07Z" transform="translate(0 0.03)" fill="#e1e1e1"/><path d="M446.89,246c0,.16-15.69.3-35,.3s-35.05-.14-35.05-.3,15.69-.3,35.05-.3S446.89,245.87,446.89,246Z" transform="translate(0 0.03)" fill="#e1e1e1"/><path d="M474.31,257c0,.16-15.69.3-35,.3s-35-.14-35-.3,15.68-.3,35-.3S474.31,256.84,474.31,257Z" transform="translate(0 0.03)" fill="#e1e1e1"/><path d="M560,257c0,.16-15.69.3-35,.3s-35-.14-35-.3,15.69-.3,35-.3S560,256.84,560,257Z" transform="translate(0 0.03)" fill="#e1e1e1"/><path d="M530.17,235.07c0,.17-15.69.3-35,.3s-35-.13-35-.3,15.68-.3,35-.3S530.17,234.91,530.17,235.07Z" transform="translate(0 0.03)" fill="#fafafa"/><path d="M568.91,246c0,.16-24.36.3-54.41.3s-54.41-.14-54.41-.3,24.35-.3,54.41-.3S568.91,245.87,568.91,246Z" transform="translate(0 0.03)" fill="#375a64"/><path d="M390.11,257c0,.16-5.69.3-12.71.3s-12.71-.14-12.71-.3,5.69-.3,12.71-.3S390.11,256.84,390.11,257Z" transform="translate(0 0.03)" fill="#fafafa"/><path d="M593.81,257c0,.16-5.69.3-12.7.3s-12.71-.14-12.71-.3,5.69-.3,12.71-.3S593.81,256.84,593.81,257Z" transform="translate(0 0.03)" fill="#1da1f2"/><path d="M656,291.54c-.2.13-2-3.11-5.75-8.65-1.85-2.77-4.19-6.11-7.09-9.81a105,105,0,0,0-10.65-11.75,59.19,59.19,0,0,0-7-5.72,26.22,26.22,0,0,0-8.52-4.05,9.85,9.85,0,0,0-4.58-.07,6.79,6.79,0,0,0-3.75,2.54,12.1,12.1,0,0,0-2.06,4.7,27.1,27.1,0,0,0-.65,5.6,57.8,57.8,0,0,0,1.25,11.95,101,101,0,0,0,3.29,12.22,151.67,151.67,0,0,0,10.7,24.31,145.77,145.77,0,0,0,14.56,22,95,95,0,0,0,8.36,9.13,52.75,52.75,0,0,0,9.17,7.12,23.49,23.49,0,0,0,4.91,2.2,10.37,10.37,0,0,0,4.88.46,6.7,6.7,0,0,0,3.95-2.16,11.36,11.36,0,0,0,2.24-4.23,29.6,29.6,0,0,0,.93-9.83,66.2,66.2,0,0,0-1.16-9.3,114.28,114.28,0,0,0-4.3-15.62c-1.58-4.51-3.14-8.32-4.48-11.41-2.69-6.17-4.42-9.47-4.22-9.59a9.22,9.22,0,0,1,1.52,2.24c.9,1.52,2.19,3.81,3.69,6.84s3.23,6.8,5,11.31A108.2,108.2,0,0,1,671,327.72a67.84,67.84,0,0,1,1.39,9.61,32.21,32.21,0,0,1-.88,10.71,13.9,13.9,0,0,1-2.72,5.24,9.08,9.08,0,0,1-5.3,3,12.85,12.85,0,0,1-6-.46,26,26,0,0,1-5.47-2.38,53.78,53.78,0,0,1-9.72-7.4,95.79,95.79,0,0,1-8.66-9.35,146.14,146.14,0,0,1-14.91-22.38,151.06,151.06,0,0,1-10.87-24.84,103.5,103.5,0,0,1-3.32-12.61,59.93,59.93,0,0,1-1.2-12.6,29.4,29.4,0,0,1,.78-6.2,14.67,14.67,0,0,1,2.61-5.7,9.22,9.22,0,0,1,5.11-3.36,12.13,12.13,0,0,1,5.65.13,28.13,28.13,0,0,1,9.21,4.55,61.12,61.12,0,0,1,7.17,6.08A100.17,100.17,0,0,1,644.41,272c2.82,3.85,5.05,7.32,6.78,10.21s3,5.2,3.76,6.79A9.54,9.54,0,0,1,656,291.54Z" transform="translate(0 0.03)" fill="#1da1f2"/><path d="M622.45,291.47c.19.13-1.57,3.27-4.32,9.17-1.37,2.94-3,6.59-4.59,10.91a104.47,104.47,0,0,0-4.43,15,58,58,0,0,0-1.22,9,28.06,28.06,0,0,0,.87,9.48,11.39,11.39,0,0,0,2.16,4.1,7,7,0,0,0,3.79,2.24,10.35,10.35,0,0,0,4.73-.14,21.08,21.08,0,0,0,4.85-1.84,47.62,47.62,0,0,0,9.17-6.38,90.85,90.85,0,0,0,8.43-8.45,135.18,135.18,0,0,0,14.76-20.71,137.38,137.38,0,0,0,10.93-23.22,93.77,93.77,0,0,0,3.4-11.74,53.85,53.85,0,0,0,1.31-11.53,25.28,25.28,0,0,0-.61-5.41,11.81,11.81,0,0,0-2-4.54,7.14,7.14,0,0,0-3.59-2.59,9.76,9.76,0,0,0-4.43-.21,24.24,24.24,0,0,0-8.42,3.4,53.49,53.49,0,0,0-7,5.16,97.83,97.83,0,0,0-10.74,10.9c-2.93,3.47-5.3,6.61-7.19,9.22-3.76,5.23-5.63,8.3-5.82,8.17a8.82,8.82,0,0,1,1.09-2.4c.82-1.51,2.07-3.72,3.84-6.45s4-6,6.89-9.64A93,93,0,0,1,645,261.54a55.24,55.24,0,0,1,7.22-5.53,26.15,26.15,0,0,1,9.15-3.86,12.08,12.08,0,0,1,5.48.21,9.56,9.56,0,0,1,4.84,3.39,14.38,14.38,0,0,1,2.54,5.53,28.22,28.22,0,0,1,.74,6,56.33,56.33,0,0,1-1.28,12.21,96.6,96.6,0,0,1-3.44,12.15,138.64,138.64,0,0,1-11.12,23.77A134.74,134.74,0,0,1,644,336.54a89.41,89.41,0,0,1-8.74,8.67,50,50,0,0,1-9.76,6.66,23.93,23.93,0,0,1-5.43,2,12.53,12.53,0,0,1-5.81.07,9.46,9.46,0,0,1-5-3.07,13.87,13.87,0,0,1-2.62-5.09,30,30,0,0,1-.81-10.38,59.76,59.76,0,0,1,1.45-9.3,100.13,100.13,0,0,1,4.91-15.2c1.79-4.32,3.55-7.93,5.09-10.82s2.83-5.06,3.74-6.51S622.36,291.42,622.45,291.47Z" transform="translate(0 0.03)" fill="#1da1f2"/><path d="M637.09,278.23c0,.25-3.45.31-9.64.95-3.09.32-6.86.79-11.19,1.61a88.87,88.87,0,0,0-14.42,3.93,50.68,50.68,0,0,0-7.85,3.62,25.08,25.08,0,0,0-7.17,5.78,11.09,11.09,0,0,0-2.16,4.1,8,8,0,0,0,.19,4.58,11.86,11.86,0,0,0,2.6,4.19,22.67,22.67,0,0,0,4,3.38,45.89,45.89,0,0,0,10,4.89,80.94,80.94,0,0,0,11.23,3.13,125.82,125.82,0,0,0,48.84,0,80.94,80.94,0,0,0,11.23-3.13,45.89,45.89,0,0,0,10-4.89,22.67,22.67,0,0,0,4-3.38,11.77,11.77,0,0,0,2.6-4.19,7.9,7.9,0,0,0,.2-4.59,11.26,11.26,0,0,0-2.17-4.1,25.31,25.31,0,0,0-7.16-5.77,52.26,52.26,0,0,0-7.86-3.62A88.76,88.76,0,0,0,658,280.79c-4.34-.82-8.11-1.29-11.2-1.61-6.18-.64-9.64-.7-9.64-.95a8.17,8.17,0,0,1,2.51-.27c1.65-.06,4.08-.1,7.21.05a114,114,0,0,1,11.37,1.12,85.6,85.6,0,0,1,14.8,3.58,53.73,53.73,0,0,1,8.24,3.58,27.2,27.2,0,0,1,7.93,6.2,13.69,13.69,0,0,1,2.71,5,10.79,10.79,0,0,1-.17,6.14,14.36,14.36,0,0,1-3.12,5.19,25,25,0,0,1-4.45,3.83A48.74,48.74,0,0,1,673.63,318a84.89,84.89,0,0,1-11.58,3.3,125.24,125.24,0,0,1-49.92,0,84.89,84.89,0,0,1-11.58-3.3,49.05,49.05,0,0,1-10.48-5.28,25.08,25.08,0,0,1-4.46-3.83,14.48,14.48,0,0,1-3.11-5.19,10.79,10.79,0,0,1-.18-6.14,13.56,13.56,0,0,1,2.72-5,27,27,0,0,1,7.92-6.2,52.82,52.82,0,0,1,8.24-3.59,85.6,85.6,0,0,1,14.8-3.58A114.28,114.28,0,0,1,627.38,278c3.13-.15,5.56-.11,7.2-.05A8.2,8.2,0,0,1,637.09,278.23Z" transform="translate(0 0.03)" fill="#1da1f2"/><ellipse cx="639.79" cy="302.85" rx="9.11" ry="9.64" fill="#1da1f2"/><path d="M165.27,202.94H490.11a6.74,6.74,0,0,1,6.74,6.74v216a14.57,14.57,0,0,1-14.57,14.57H172.08a14.57,14.57,0,0,1-14.57-14.57v-215A7.75,7.75,0,0,1,165.27,202.94Z" transform="translate(0 0.03)" fill="#375a64"/><path d="M143.32,422.71H511v7a13.72,13.72,0,0,1-13.72,13.72H157a13.72,13.72,0,0,1-13.72-13.72h0v-7Z" transform="translate(0 0.03)" fill="#375a64"/><rect x="166.62" y="212.4" width="320.17" height="200.42" fill="#e1e1e1"/><polygon points="293.73 422.74 298.29 430.42 362.49 430.42 366.73 422.74 293.73 422.74" fill="#1a2e35"/><rect x="157.57" y="422.67" width="339.34" height="1.14" fill="#1a2e35"/><rect x="176.12" y="224.01" width="301.94" height="188.8" fill="#1a2e35"/><path d="M199.29,407.25c-.16,0-.28-40.21-.28-89.81s.12-89.81.28-89.81.28,40.2.28,89.81S199.45,407.25,199.29,407.25Z" transform="translate(0 0.03)" fill="#e1e1e1"/><path d="M193.2,243.91c0,.17-2.2.3-4.91.3s-4.9-.13-4.9-.3A40.25,40.25,0,0,1,193.2,243.91Z" transform="translate(0 0.03)" fill="#e1e1e1"/><path d="M193.58,233.72a40.25,40.25,0,0,1-9.81,0c0-.17,2.19-.3,4.9-.3S193.58,233.55,193.58,233.72Z" transform="translate(0 0.03)" fill="#e1e1e1"/><path d="M193.2,254.9a40.25,40.25,0,0,1-9.81,0c0-.17,2.2-.3,4.9-.3S193.2,254.73,193.2,254.9Z" transform="translate(0 0.03)" fill="#e1e1e1"/><path d="M193.2,265.88c0,.17-2.2.3-4.91.3s-4.9-.13-4.9-.3A40.25,40.25,0,0,1,193.2,265.88Z" transform="translate(0 0.03)" fill="#e1e1e1"/><path d="M193.2,276.87a40.25,40.25,0,0,1-9.81,0c0-.17,2.2-.3,4.9-.3S193.2,276.7,193.2,276.87Z" transform="translate(0 0.03)" fill="#e1e1e1"/><path d="M193.2,287.85c0,.17-2.2.3-4.91.3s-4.9-.13-4.9-.3A40.25,40.25,0,0,1,193.2,287.85Z" transform="translate(0 0.03)" fill="#e1e1e1"/><path d="M193.2,298.84c0,.17-2.2.3-4.91.3s-4.9-.13-4.9-.3,2.2-.3,4.9-.3S193.2,298.67,193.2,298.84Z" transform="translate(0 0.03)" fill="#e1e1e1"/><path d="M193.2,309.83a40.25,40.25,0,0,1-9.81,0c0-.17,2.2-.3,4.9-.3S193.2,309.66,193.2,309.83Z" transform="translate(0 0.03)" fill="#e1e1e1"/><path d="M193.2,320.81c0,.17-2.2.3-4.91.3s-4.9-.13-4.9-.3A40.25,40.25,0,0,1,193.2,320.81Z" transform="translate(0 0.03)" fill="#e1e1e1"/><path d="M193.2,331.8a40.25,40.25,0,0,1-9.81,0c0-.17,2.2-.3,4.9-.3S193.2,331.63,193.2,331.8Z" transform="translate(0 0.03)" fill="#e1e1e1"/><path d="M193.2,342.78c0,.17-2.2.3-4.91.3s-4.9-.13-4.9-.3A40.25,40.25,0,0,1,193.2,342.78Z" transform="translate(0 0.03)" fill="#e1e1e1"/><path d="M193.2,353.77a40.25,40.25,0,0,1-9.81,0c0-.17,2.2-.3,4.9-.3S193.2,353.6,193.2,353.77Z" transform="translate(0 0.03)" fill="#e1e1e1"/><path d="M193.2,364.75c0,.17-2.2.3-4.91.3s-4.9-.13-4.9-.3A40.25,40.25,0,0,1,193.2,364.75Z" transform="translate(0 0.03)" fill="#e1e1e1"/><path d="M193.2,375.74c0,.17-2.2.3-4.91.3s-4.9-.13-4.9-.3,2.2-.3,4.9-.3S193.2,375.57,193.2,375.74Z" transform="translate(0 0.03)" fill="#e1e1e1"/><path d="M193.2,386.73a40.25,40.25,0,0,1-9.81,0c0-.17,2.2-.3,4.9-.3S193.2,386.56,193.2,386.73Z" transform="translate(0 0.03)" fill="#e1e1e1"/><path d="M193.2,397.71c0,.17-2.2.3-4.91.3s-4.9-.13-4.9-.3A40.25,40.25,0,0,1,193.2,397.71Z" transform="translate(0 0.03)" fill="#e1e1e1"/><path d="M232.52,243.26c0,.17-5.7.3-12.73.3s-12.73-.13-12.73-.3,5.7-.3,12.73-.3S232.52,243.1,232.52,243.26Z" transform="translate(0 0.03)" fill="#1da1f2"/><path d="M232.52,397.71c0,.17-5.7.3-12.73.3s-12.73-.13-12.73-.3,5.7-.3,12.73-.3S232.52,397.55,232.52,397.71Z" transform="translate(0 0.03)" fill="#1da1f2"/><path d="M268,265.88c0,.17-10.66.3-23.81.3s-23.82-.13-23.82-.3,10.66-.3,23.82-.3S268,265.72,268,265.88Z" transform="translate(0 0.03)" fill="#1da1f2"/><path d="M323.05,265.88c0,.17-10.67.3-23.82.3s-23.81-.13-23.81-.3,10.66-.3,23.81-.3S323.05,265.72,323.05,265.88Z" transform="translate(0 0.03)" fill="#e1e1e1"/><path d="M302,276.87c0,.16-15.72.3-35.1.3s-35.1-.14-35.1-.3,15.71-.3,35.1-.3S302,276.7,302,276.87Z" transform="translate(0 0.03)" fill="#e1e1e1"/><path d="M302,287.85c0,.17-15.72.3-35.1.3s-35.1-.13-35.1-.3,15.71-.3,35.1-.3S302,287.69,302,287.85Z" transform="translate(0 0.03)" fill="#e1e1e1"/><path d="M350.32,320.81c0,.17-15.72.3-35.1.3s-35.1-.13-35.1-.3,15.71-.3,35.1-.3S350.32,320.65,350.32,320.81Z" transform="translate(0 0.03)" fill="#e1e1e1"/><path d="M329.46,298.84c0,.17-15.71.3-35.09.3s-35.1-.13-35.1-.3,15.71-.3,35.1-.3S329.46,298.67,329.46,298.84Z" transform="translate(0 0.03)" fill="#e1e1e1"/><path d="M415.25,298.84c0,.17-15.72.3-35.1.3s-35.1-.13-35.1-.3,15.71-.3,35.1-.3S415.25,298.67,415.25,298.84Z" transform="translate(0 0.03)" fill="#e1e1e1"/><path d="M385.41,276.87c0,.16-15.71.3-35.09.3s-35.1-.14-35.1-.3,15.71-.3,35.1-.3S385.41,276.7,385.41,276.87Z" transform="translate(0 0.03)" fill="#fafafa"/><path d="M433.9,320.81c0,.17-15.71.3-35.09.3s-35.1-.13-35.1-.3,15.71-.3,35.1-.3S433.9,320.65,433.9,320.81Z" transform="translate(0 0.03)" fill="#fafafa"/><path d="M424.22,287.85c0,.17-24.4.3-54.5.3s-54.5-.13-54.5-.3,24.4-.3,54.5-.3S424.22,287.69,424.22,287.85Z" transform="translate(0 0.03)" fill="#375a64"/><path d="M232.52,254.9c0,.16-5.7.3-12.73.3s-12.73-.14-12.73-.3,5.7-.3,12.73-.3S232.52,254.73,232.52,254.9Z" transform="translate(0 0.03)" fill="#fafafa"/><path d="M232.52,386.73c0,.16-5.7.3-12.73.3s-12.73-.14-12.73-.3,5.7-.3,12.73-.3S232.52,386.56,232.52,386.73Z" transform="translate(0 0.03)" fill="#fafafa"/><path d="M245.13,298.84c0,.17-5.7.3-12.73.3s-12.73-.13-12.73-.3,5.7-.3,12.73-.3S245.13,298.67,245.13,298.84Z" transform="translate(0 0.03)" fill="#fafafa"/><path d="M449.16,298.84c0,.17-5.7.3-12.73.3s-12.73-.13-12.73-.3,5.7-.3,12.73-.3S449.16,298.67,449.16,298.84Z" transform="translate(0 0.03)" fill="#1da1f2"/><path d="M268,342.72c0,.16-10.66.3-23.81.3s-23.82-.14-23.82-.3,10.66-.3,23.82-.3S268,342.55,268,342.72Z" transform="translate(0 0.03)" fill="#1da1f2"/><path d="M323.05,342.72c0,.16-10.67.3-23.82.3s-23.81-.14-23.81-.3,10.66-.3,23.81-.3S323.05,342.55,323.05,342.72Z" transform="translate(0 0.03)" fill="#e1e1e1"/><path d="M302,353.7c0,.17-15.72.3-35.1.3s-35.1-.13-35.1-.3,15.71-.3,35.1-.3S302,353.54,302,353.7Z" transform="translate(0 0.03)" fill="#e1e1e1"/><path d="M302,364.69c0,.17-15.72.3-35.1.3s-35.1-.13-35.1-.3,15.71-.3,35.1-.3S302,364.52,302,364.69Z" transform="translate(0 0.03)" fill="#e1e1e1"/><path d="M329.46,375.68c0,.16-15.71.29-35.09.29s-35.1-.13-35.1-.29,15.71-.3,35.1-.3S329.46,375.51,329.46,375.68Z" transform="translate(0 0.03)" fill="#e1e1e1"/><path d="M415.25,375.68c0,.16-15.72.29-35.1.29s-35.1-.13-35.1-.29,15.71-.3,35.1-.3S415.25,375.51,415.25,375.68Z" transform="translate(0 0.03)" fill="#e1e1e1"/><path d="M385.41,353.7c0,.17-15.71.3-35.09.3s-35.1-.13-35.1-.3,15.71-.3,35.1-.3S385.41,353.54,385.41,353.7Z" transform="translate(0 0.03)" fill="#fafafa"/><path d="M424.22,364.69c0,.17-24.4.3-54.5.3s-54.5-.13-54.5-.3,24.4-.3,54.5-.3S424.22,364.52,424.22,364.69Z" transform="translate(0 0.03)" fill="#375a64"/><path d="M245.13,375.68c0,.16-5.7.29-12.73.29s-12.73-.13-12.73-.29,5.7-.3,12.73-.3S245.13,375.51,245.13,375.68Z" transform="translate(0 0.03)" fill="#fafafa"/><path d="M449.16,375.68c0,.16-5.7.29-12.73.29s-12.73-.13-12.73-.29,5.7-.3,12.73-.3S449.16,375.51,449.16,375.68Z" transform="translate(0 0.03)" fill="#1da1f2"/><path d="M708,443.49c0,.17-158.5.3-354,.3s-354-.13-354-.3,158.47-.3,354-.3S708,443.33,708,443.49Z" transform="translate(0 0.03)" fill="#1a2e35"/><path d="M564.69,378.56,569,393a16,16,0,0,0,12.19,11.55l29,5.76,7.89-.27-7.89-10.33-21.8-7.86a6,6,0,0,1-4.4-4.42l-8.68-20-11,7.13Z" transform="translate(0 0.03)" fill="#ffbf9d"/><path d="M543.92,282a10.65,10.65,0,0,0-1.63-6.36c-1.11-1.86-2.72-3.56-4.77-3.9a5.5,5.5,0,0,0-5.65,3.52,7.93,7.93,0,0,0,.87,7.09,9.41,9.41,0,0,0,2.64,2.62,17.47,17.47,0,0,0-6.57,8.79c-.4,1.22-.67,2.49-1.18,3.67a5.26,5.26,0,0,1-2.4,2.81c-.82.39-1.75.44-2.59.76a5,5,0,0,0-2.86,3.51,6.36,6.36,0,0,0,.77,4.61,5.06,5.06,0,0,1,1,2.15,6.14,6.14,0,0,1-.31,1.59,4.6,4.6,0,0,0,1.9,4.78,4.07,4.07,0,0,0,4.88-.51,6.07,6.07,0,0,0,2.5,3.32,2.32,2.32,0,0,0,3.14-.92,3.38,3.38,0,0,0,.18-.44A3.32,3.32,0,0,0,537.4,321a3.51,3.51,0,0,0,2.65-3.15l23.38-27.05C559.92,281,546.27,281.82,543.92,282Z" transform="translate(0 0.03)" fill="#1da1f2"/><path d="M540,291.45a3,3,0,0,0-2.61,3.13h0L539,336.23c.06,4.92,8.5,10.74,13.48,10.62h0c5-.11,3.55-5.75,3.62-10.43.12-7.82.12-10.75.12-10.71s6.36-1.11,7.67-9.88c.66-4.36.45-11.51.1-17.35-.31-5.26-3.6-11.72-8.56-11.16Z" transform="translate(0 0.03)" fill="#ffbf9d"/><path d="M561.84,304.15a1.11,1.11,0,0,1-1,1.14,1,1,0,0,1-1.09-.91v-.09a1.1,1.1,0,0,1,1-1.13,1,1,0,0,1,1.09.91Z" transform="translate(0 0.03)" fill="#1a2e35"/><path d="M562.53,302.19c-.13.15-.94-.48-2.08-.48s-2,.61-2.11.46.07-.33.44-.61a2.84,2.84,0,0,1,1.68-.55,2.69,2.69,0,0,1,1.66.57C562.47,301.86,562.59,302.13,562.53,302.19Z" transform="translate(0 0.03)" fill="#1a2e35"/><path d="M550.66,304.15a1.11,1.11,0,0,1-1,1.14,1,1,0,0,1-1.09-.89.41.41,0,0,1,0-.11,1.1,1.1,0,0,1,1-1.13,1,1,0,0,1,1.09.89A.38.38,0,0,1,550.66,304.15Z" transform="translate(0 0.03)" fill="#1a2e35"/><path d="M551.28,302.42c-.13.15-.94-.48-2.08-.48s-2,.61-2.11.46.08-.33.44-.61a2.85,2.85,0,0,1,1.69-.55,2.77,2.77,0,0,1,1.66.56C551.23,302.09,551.35,302.36,551.28,302.42Z" transform="translate(0 0.03)" fill="#1a2e35"/><path d="M555.43,311.39a8.37,8.37,0,0,1,1.86-.35c.29,0,.57-.09.62-.3a1.56,1.56,0,0,0-.2-.92c-.27-.75-.56-1.53-.86-2.35a42.74,42.74,0,0,1-1.94-6.16,41.94,41.94,0,0,1,2.4,6c.29.82.57,1.61.83,2.36a1.9,1.9,0,0,1,.15,1.22.74.74,0,0,1-.48.45,1.61,1.61,0,0,1-.49.07A6.65,6.65,0,0,1,555.43,311.39Z" transform="translate(0 0.03)" fill="#1a2e35"/><path d="M556.22,325.71a20.17,20.17,0,0,1-11.1-3.13s2.7,6,11,5.2Z" transform="translate(0 0.03)" fill="#ff9a6c"/><path d="M555,314.31a2,2,0,0,0-1.85-.81,1.87,1.87,0,0,0-1.3.74,1.32,1.32,0,0,0-.09,1.44,1.34,1.34,0,0,0,1.5.4,4.07,4.07,0,0,0,1.46-.92,1.42,1.42,0,0,0,.33-.36.45.45,0,0,0,0-.45" transform="translate(0 0.03)" fill="#ff9a6c"/><path d="M552.07,312.23c.18,0,.19,1.3,1.25,2.23s2.38.79,2.39,1-.29.25-.85.27a3,3,0,0,1-2-.74,2.85,2.85,0,0,1-1-1.87C551.84,312.55,552,312.22,552.07,312.23Z" transform="translate(0 0.03)" fill="#1a2e35"/><path d="M551.8,300.3c-.12.33-1.26.18-2.6.35s-2.43.55-2.61.26.11-.45.55-.77a4.08,4.08,0,0,1,1.93-.71,4,4,0,0,1,2,.25C551.6,299.89,551.84,300.15,551.8,300.3Z" transform="translate(0 0.03)" fill="#1da1f2"/><path d="M562.11,298.69c-.2.28-1,0-1.94,0s-1.75.18-1.94-.1,0-.42.4-.68a2.67,2.67,0,0,1,3.12.1C562.09,298.28,562.2,298.56,562.11,298.69Z" transform="translate(0 0.03)" fill="#1da1f2"/><path d="M538.27,305.48a2,2,0,0,0-2.17.11,4.32,4.32,0,0,0-1.72,4.83,4,4,0,0,0,4.14,2.72" transform="translate(0 0.03)" fill="#ffbf9d"/><path d="M551.3,284.4a16.19,16.19,0,0,1,8,2.61,12,12,0,0,1,5.69,7.14,2.66,2.66,0,0,1-.07,2,1.77,1.77,0,0,1-2.27.52,5.52,5.52,0,0,1-1.85-1.81,3.5,3.5,0,0,1-6.88-.08,3.19,3.19,0,0,1-3.2,3,4.14,4.14,0,0,1-3.53-2.95,11.23,11.23,0,0,1-1.46,4.28,3.45,3.45,0,0,1-3.75,1.62,8.12,8.12,0,0,1-.05,3.92c-.44,1.24-1.74,2.24-2.93,1.81s-1.59-1.85-1.86-3.11a30.78,30.78,0,0,1-.89-7.34,12.37,12.37,0,0,1,2.14-7,11.05,11.05,0,0,1,6.07-4,25.42,25.42,0,0,1,7.22-.7" transform="translate(0 0.03)" fill="#1da1f2"/><path d="M537.69,310.53c0-.07-.33.07-.73-.12a1.74,1.74,0,0,1-.38-2.42,1.76,1.76,0,0,1,.56-.49c.41-.18.72-.09.73-.16s-.28-.27-.82-.14a1.48,1.48,0,0,0-.81.53,2,2,0,0,0-.42,1.15,1.77,1.77,0,0,0,1,1.83C537.42,310.86,537.73,310.56,537.69,310.53Z" transform="translate(0 0.03)" fill="#ff9a6c"/><path d="M534.53,311a1.33,1.33,0,0,0-.34.1,5.18,5.18,0,0,0-.92.44,7,7,0,0,0-2.7,2.69,5.7,5.7,0,0,0-.74,2.64,6.44,6.44,0,0,0,.69,3.08,7.18,7.18,0,0,0,2.2,2.6,5.81,5.81,0,0,0,3.38,1.15,6.41,6.41,0,0,0,5.6-3.7,6,6,0,0,0,.59-3.1,6.72,6.72,0,0,0-.8-2.62,6.14,6.14,0,0,0-2.74-2.64,3.89,3.89,0,0,0-1-.32q-.35-.06-.36,0,.65.22,1.26.51a6.46,6.46,0,0,1,3.25,5.13,5.63,5.63,0,0,1-.58,2.88,6.07,6.07,0,0,1-5.25,3.44,6.19,6.19,0,0,1-5.23-3.49,5.73,5.73,0,0,1,0-5.37,7.34,7.34,0,0,1,2.52-2.7C534.09,311.2,534.55,311,534.53,311Z" transform="translate(0 0.03)" fill="#1a2e35"/><path d="M541.38,283.81c-.09,0-.26-.77-.78-1.91a10.65,10.65,0,0,0-2.86-3.82,10,10,0,0,0-4.17-2.05c-1.18-.27-1.94-.26-1.94-.35a3.77,3.77,0,0,1,2-.07,9,9,0,0,1,4.47,2,9.75,9.75,0,0,1,2.87,4.12A4.78,4.78,0,0,1,541.38,283.81Z" transform="translate(0 0.03)" fill="#e1e1e1"/><path d="M522.32,317.11a.68.68,0,0,1-.29-.29,1.73,1.73,0,0,1-.2-1.2,2.55,2.55,0,0,1,1-1.59,23.42,23.42,0,0,1,2.06-1.19,2.68,2.68,0,0,0,1.43-2.17,13.18,13.18,0,0,0-.56-3.3,6.59,6.59,0,0,1-.17-1.93,3.36,3.36,0,0,1,.77-1.91,7.37,7.37,0,0,1,3.51-1.95,5.61,5.61,0,0,0,3.13-1.91,5.14,5.14,0,0,0,.52-3.46,19.21,19.21,0,0,1-.22-3.47,9.7,9.7,0,0,1,.69-3,9.3,9.3,0,0,1,2.45-3.52,6.83,6.83,0,0,1,.92-.68q.35-.21.36-.18c0,.05-.43.34-1.13,1a9.65,9.65,0,0,0-2.23,3.5,9.85,9.85,0,0,0-.59,2.84,19.18,19.18,0,0,0,.27,3.38,5.7,5.7,0,0,1-.58,3.86,6.21,6.21,0,0,1-3.41,2.14A6.91,6.91,0,0,0,526.8,304a3.67,3.67,0,0,0-.51,3.33,13.06,13.06,0,0,1,.52,3.46,3.16,3.16,0,0,1-.58,1.56,3.9,3.9,0,0,1-1.12.94c-.79.44-1.53.7-2.08,1.1a2.22,2.22,0,0,0-1,1.36A1.72,1.72,0,0,0,522.32,317.11Z" transform="translate(0 0.03)" fill="#e1e1e1"/><path d="M551.87,294.48c-.09,0-.17-.92-.6-2.33a12.61,12.61,0,0,0-2.8-4.86,11.55,11.55,0,0,0-4.61-3c-1.33-.46-2.21-.53-2.21-.63A4.83,4.83,0,0,1,544,284a10.68,10.68,0,0,1,4.9,2.93,11.7,11.7,0,0,1,2.78,5.17A5.77,5.77,0,0,1,551.87,294.48Z" transform="translate(0 0.03)" fill="#e1e1e1"/><path d="M558.55,290.64a20.09,20.09,0,0,0-1.44-2.71,11.38,11.38,0,0,0-5.68-4.18,16.57,16.57,0,0,0-7-.59,29.78,29.78,0,0,1-3,.37,9.76,9.76,0,0,1,2.9-.79,15.18,15.18,0,0,1,7.24.44,11,11,0,0,1,5.84,4.5,8.17,8.17,0,0,1,1,2.11A2.09,2.09,0,0,1,558.55,290.64Z" transform="translate(0 0.03)" fill="#e1e1e1"/><path d="M544.08,281.61a3,3,0,0,1-.84,1.27,7.92,7.92,0,0,1-3,2,7.77,7.77,0,0,1-3.54.47,2.77,2.77,0,0,1-1.42-.42c0-.19,2.24.37,4.77-.61A14.78,14.78,0,0,0,544.08,281.61Z" transform="translate(0 0.03)" fill="#1a2e35"/><path d="M549.9,443.57c-19.91-7-6.26-34.84-6.26-34.84l87.06,8.66c7,0,12.68,5.93,12.68,13.32h0c0,7.36-5.64,13.32-12.6,13.32l-80.88-.46" transform="translate(0 0.03)" fill="#1a2e35"/><path d="M529.52,443.54c-19.4-6.93-6-34.82-6-34.82l84.87,8.47c8.29.11,12.33,4.34,12.33,13.28h0c0,7.36-2.58,13.56-12.3,13.35l-78.87-.28" transform="translate(0 0.03)" fill="#1a2e35"/><path d="M549.23,413.43h.94l2.72.12,10,.52,32.92,1.9c1.61.08,3.2.23,4.76.25s3.12.1,4.64.19,3,.22,4.46.39a15.17,15.17,0,0,1,4.25.92,9.66,9.66,0,0,1,5.67,6,18.91,18.91,0,0,1,.87,3.93,27.08,27.08,0,0,1,.23,3.71,16.66,16.66,0,0,1-1.12,6.25,10.1,10.1,0,0,1-2.64,3.81,7.06,7.06,0,0,1-2.4,1.43c-.6.2-.61.14,0-.09a7.72,7.72,0,0,0,2.33-1.49,10.26,10.26,0,0,0,2.52-3.77,16.46,16.46,0,0,0,1-6.14,32,32,0,0,0-.26-3.66,19.34,19.34,0,0,0-.88-3.83,9.44,9.44,0,0,0-2.07-3.47,9.79,9.79,0,0,0-3.4-2.28,14.71,14.71,0,0,0-4.15-.88c-1.45-.16-2.93-.28-4.45-.37s-3-.16-4.62-.18-3.15-.17-4.76-.25l-32.94-2.06-10-.67-2.71-.21-.71-.07Z" transform="translate(0 0.03)" fill="#375a64"/><path d="M579.4,415.25l-7-3.62-4.86-17.13-.46-21.82,9.85-4.39-7.82-20.77c-1.42-3.07-4.3-11.2-11.7-13.88a10.21,10.21,0,0,1,.25-3.44c.58-1-18-1.63-19.1-1.22s.17,4,0,4.61c-6.61,1.93-13.06,4.82-15.47,14.45-.94,3.75-.62,11.67-.12,15.48l5.18,28.92-2.9,9.49s-10.17,22.41-6.32,31.17,10.41,10.73,10.41,10.73l50.68-.11Z" transform="translate(0 0.03)" fill="#1da1f2"/><g opacity="0.3"><path d="M528.55,381a111.31,111.31,0,0,0,3.72,13.67,30,30,0,0,0,4.07,7.89,18.7,18.7,0,0,0,9.76,6.3,29.2,29.2,0,0,0,11.55.6L538.47,398l-5.1-18.74Z" transform="translate(0 0.03)"/></g><path d="M567.55,393.9a10,10,0,0,1-.14-1.55c0-1.08-.11-2.51-.19-4.23-.15-3.57-.31-8.5-.47-13.95s-.27-10.39-.33-14v-4.23a10.16,10.16,0,0,1,0-1.56,10,10,0,0,1,.13,1.55c.05,1.08.12,2.51.2,4.23.14,3.57.31,8.5.47,13.95s.27,10.39.33,14c0,1.73,0,3.15.05,4.24A10,10,0,0,1,567.55,393.9Z" transform="translate(0 0.03)" fill="#1a2e35"/><path d="M548.78,373.48a1.19,1.19,0,0,1-.35.15l-1.07.42-4.19,1.55-15.29,5.59-.25.09V381c-1-5.88-2.26-12.76-3.57-20.2h0c-.21-3.66-.9-7.5-.6-11.52a11,11,0,0,1,.74-2.82,14.44,14.44,0,0,1,1.27-2.55,10.43,10.43,0,0,1,4-3.63,8.44,8.44,0,0,1,9.55,1.09,12.53,12.53,0,0,1,2.55,4.13,40.84,40.84,0,0,1,1.5,4.32c.8,2.83,1.41,5.51,2,8,1.16,4.84,2.11,8.78,2.77,11.55l.73,3.12.18.8a1.13,1.13,0,0,1,0,.26,1.4,1.4,0,0,1-.09-.29c-.06-.22-.14-.49-.23-.83l-.83-3.13c-.72-2.75-1.73-6.64-3-11.43-.62-2.4-1.25-5.06-2.07-7.87a39.83,39.83,0,0,0-1.5-4.26,12.37,12.37,0,0,0-2.44-3.92,8,8,0,0,0-9-1,9.84,9.84,0,0,0-3.8,3.44,12.81,12.81,0,0,0-1.21,2.43,10.67,10.67,0,0,0-.71,2.66c-.28,3.88.39,7.72.6,11.43h0c1.28,7.45,2.47,14.33,3.48,20.22l-.3-.18,15.24-5.3,4.27-1.46,1.13-.37A2.13,2.13,0,0,1,548.78,373.48Z" transform="translate(0 0.03)" fill="#1a2e35"/><path d="M533.53,378.83a4.71,4.71,0,0,1-.9-2c-.35-1.16-.52-2.13-.37-2.18s.56.84.91,2S533.68,378.78,533.53,378.83Z" transform="translate(0 0.03)" fill="#1a2e35"/><path d="M538.52,377.34a4.12,4.12,0,0,1-.74-1.94c-.25-1.11-.35-2-.19-2.08s.48.83.74,1.94S538.67,377.3,538.52,377.34Z" transform="translate(0 0.03)" fill="#1a2e35"/><path d="M543.55,375.43c-.15,0-.48-.66-.74-1.58s-.36-1.71-.2-1.76.48.66.74,1.59S543.7,375.39,543.55,375.43Z" transform="translate(0 0.03)" fill="#1a2e35"/><path d="M570.79,371c-.13.09-.7-.68-1.09-1.79s-.45-2.08-.3-2.1.44.84.83,1.89S570.93,371,570.79,371Z" transform="translate(0 0.03)" fill="#1a2e35"/><path d="M574.58,368.75c-.14.08-.59-.59-1-1.47s-.65-1.68-.51-1.75.6.59,1,1.48S574.72,368.68,574.58,368.75Z" transform="translate(0 0.03)" fill="#1a2e35"/><path d="M541.51,334.46c.06,0,.09.2.1.52h-.3a27.52,27.52,0,0,1-.35-2.73,9.57,9.57,0,0,1,0-3.29,9.42,9.42,0,0,1,.54,3.24,22.91,22.91,0,0,1,.08,2.75h-.3C541.39,334.63,541.46,334.45,541.51,334.46Z" transform="translate(0 0.03)" fill="#1a2e35"/><path d="M546,334.47a13,13,0,0,1-.38-5.38A13,13,0,0,1,546,334.47Z" transform="translate(0 0.03)" fill="#1a2e35"/><path d="M550.78,335.54a9.24,9.24,0,0,1-.33-3.22,9.77,9.77,0,0,1,.24-3.23,9.27,9.27,0,0,1,.33,3.23A9.69,9.69,0,0,1,550.78,335.54Z" transform="translate(0 0.03)" fill="#1a2e35"/><path d="M554.66,334.87a13.12,13.12,0,0,1,0-5.51A13.81,13.81,0,0,1,554.66,334.87Z" transform="translate(0 0.03)" fill="#1a2e35"/><path d="M579.72,415.86c0,.17-9.45-.38-21.09-1.22s-21.06-1.65-21-1.82,9.45.38,21.09,1.22S579.73,415.7,579.72,415.86Z" transform="translate(0 0.03)" fill="#1a2e35"/><path d="M530.8,380.2l4.68,16.07A16.13,16.13,0,0,0,547.67,408l29,5.83,7.89-.27-2.69-7.13-27-11.29a6,6,0,0,1-4.4-4.48l-4.08-16.17Z" transform="translate(0 0.03)" fill="#ffbf9d"/><polygon points="556.44 414.04 556.69 412.05 578.97 411.13 589.91 381.96 631.56 384.95 617.51 417.33 556.44 414.04" fill="#375a64"/><path d="M606.3,400.85a2.12,2.12,0,0,1-2.88.8l-.12-.08a2.4,2.4,0,0,1-.68-3.19,2.1,2.1,0,0,1,2.86-.8l.14.09A2.38,2.38,0,0,1,606.3,400.85Z" transform="translate(0 0.03)" fill="#fff"/><path d="M253.91,204.57c18.15-7,8.83-35.92,8.83-35.92l-92.14,8.93c-7.2-.05-13.07,6.11-13.07,13.73h0c0,7.59,5.81,13.74,13,13.74l83.4-.48" transform="translate(0 0.03)" fill="#1a2e35"/><path d="M135.27,284.76l-.19-9.66,17.53-6.59.72,13.46-1,.5c-4.4,2.2-22.52,10.85-25.9,11.18C122.68,294,135.27,284.76,135.27,284.76Z" transform="translate(0 0.03)" fill="#1da1f2"/><g opacity="0.4"><path d="M129.22,289.54s-4.29,3.57-3.36,4.15,19.55-7.43,27.47-11.72l-.17-.38-21.65,9.55S130.18,289.17,129.22,289.54Z" transform="translate(0 0.03)" fill="#fff"/></g><path d="M153.41,281.47l-.27.15-.78.4-2.91,1.41c-2.47,1.18-5.9,2.75-9.72,4.4s-7.32,3.06-9.86,4.05l-3,1.14-.83.3a1.4,1.4,0,0,1-.29.09l.28-.13.81-.34,3-1.21c2.52-1,6-2.46,9.83-4.11s7.25-3.2,9.73-4.33l2.94-1.35.81-.36Z" transform="translate(0 0.03)" fill="#1a2e35"/><path d="M131.62,291.41a7.54,7.54,0,0,0-1.13-1.26,7.35,7.35,0,0,0-1.47-.77,2.35,2.35,0,0,1,1.6.59A2.49,2.49,0,0,1,131.62,291.41Z" transform="translate(0 0.03)" fill="#1a2e35"/><path d="M135.44,286.75a2,2,0,0,1-.77-.44c-.39-.3-.68-.57-.65-.62s.38.14.77.44S135.47,286.7,135.44,286.75Z" transform="translate(0 0.03)" fill="#1a2e35"/><path d="M136.48,285.44c0,.06-.35,0-.74-.15s-.67-.32-.65-.37.34,0,.73.15A1.66,1.66,0,0,1,136.48,285.44Z" transform="translate(0 0.03)" fill="#1a2e35"/><path d="M136.68,283.46a2.51,2.51,0,0,1-.8.48c-.46.21-.87.33-.89.27s.34-.27.8-.48S136.66,283.4,136.68,283.46Z" transform="translate(0 0.03)" fill="#1a2e35"/><path d="M136.53,282.19a2.58,2.58,0,0,1-.84.7,1.71,1.71,0,0,1-1,.28,5.6,5.6,0,0,1,.94-.49A6,6,0,0,1,136.53,282.19Z" transform="translate(0 0.03)" fill="#1a2e35"/><path d="M134.31,285.48a3.15,3.15,0,0,1-1.05.45,6.38,6.38,0,0,1-1.22.22,3.14,3.14,0,0,1-.75,0,.62.62,0,0,1-.39-.24.47.47,0,0,1,0-.51,2,2,0,0,1,2.61-.43,2,2,0,0,1,.62.6c.12.17.16.28.14.28a3.13,3.13,0,0,0-.84-.74,1.94,1.94,0,0,0-1.13-.23,1.74,1.74,0,0,0-1.21.63c-.12.2,0,.38.25.42a2.73,2.73,0,0,0,.7,0,6.83,6.83,0,0,0,1.19-.17C133.89,285.62,134.29,285.45,134.31,285.48Z" transform="translate(0 0.03)" fill="#1a2e35"/><path d="M134.06,285.66a1.21,1.21,0,0,1-.42-.72,2.09,2.09,0,0,1,0-.93,1.17,1.17,0,0,1,.66-.94c.25-.08.48.17.52.37a1.37,1.37,0,0,1,0,.57,3.38,3.38,0,0,1-.24.88,1.66,1.66,0,0,1-.42.71,8,8,0,0,0,.28-.76,4.27,4.27,0,0,0,.19-.86c.05-.29,0-.76-.3-.69s-.43.47-.51.76a2,2,0,0,0,0,.85A5.15,5.15,0,0,0,134.06,285.66Z" transform="translate(0 0.03)" fill="#1a2e35"/><path d="M151.26,276.89c0,.05-.48.16-1.19.57a5.76,5.76,0,0,0-2.18,2.28,6.18,6.18,0,0,0-.7,3.16,8.46,8.46,0,0,0,.16,1.36,1.09,1.09,0,0,1-.13-.34,5.67,5.67,0,0,1-.18-1,5.94,5.94,0,0,1,.66-3.28,5.57,5.57,0,0,1,2.3-2.31,5.11,5.11,0,0,1,.91-.37A1.36,1.36,0,0,1,151.26,276.89Z" transform="translate(0 0.03)" fill="#1a2e35"/><path d="M146.81,270.44a35.94,35.94,0,0,1,1.5,3.49,29.88,29.88,0,0,1,1.31,3.57,35.94,35.94,0,0,1-1.5-3.49A29.88,29.88,0,0,1,146.81,270.44Z" transform="translate(0 0.03)" fill="#1a2e35"/><path d="M144.67,283.58a10.27,10.27,0,0,1-2.29,1.27,9.37,9.37,0,0,1-2.46.82c0-.06,1.07-.45,2.38-1S144.64,283.52,144.67,283.58Z" transform="translate(0 0.03)" fill="#1a2e35"/><path d="M147.86,282.19c.06,0,0,.28,0,.59v.58a.91.91,0,0,1-.18-.59C147.69,282.42,147.81,282.17,147.86,282.19Z" transform="translate(0 0.03)" fill="#1a2e35"/><path d="M148.46,280.09s0,.25-.09.5-.22.44-.27.42,0-.25.08-.5S148.4,280.07,148.46,280.09Z" transform="translate(0 0.03)" fill="#1a2e35"/><path d="M149.9,278.62c0,.07-.21.16-.41.35s-.33.4-.38.38,0-.32.24-.55S149.9,278.56,149.9,278.62Z" transform="translate(0 0.03)" fill="#1a2e35"/><path d="M151,277.75a.34.34,0,0,1-.14.29c-.14.11-.24.17-.28.12s0-.17.14-.28S151,277.71,151,277.75Z" transform="translate(0 0.03)" fill="#1a2e35"/><path d="M205.61,176.26l-51.45,1c-8.23.16-15.09,6.7-16.1,15.34l-10.2,87.7h28l8.53-75.75h40.57Z" transform="translate(0 0.03)" fill="#1a2e35"/><path d="M128.21,274.74c0,.14,6.12.3,13.67.35s13.55-.15,13.68-.17c.86-.09-6.12-.29-13.68-.34S128.21,274.6,128.21,274.74Z" transform="translate(0 0.03)" fill="#375a64"/><path d="M233.91,173.5h-1l-2.89.11-10.64.53-35.08,1.93c-1.72.08-3.41.23-5.08.25s-3.32.1-4.94.2-3.2.22-4.76.38a17.07,17.07,0,0,0-4.52.93,11.18,11.18,0,0,0-3.76,2.42A9.9,9.9,0,0,0,159,184a19,19,0,0,0-.93,4,31.18,31.18,0,0,0-.25,3.74A16,16,0,0,0,159,198a10.39,10.39,0,0,0,2.81,3.84,7.65,7.65,0,0,0,2.56,1.45c.64.2.65.13,0-.1a7.88,7.88,0,0,1-2.48-1.5,10.51,10.51,0,0,1-2.69-3.8,16,16,0,0,1-1.1-6.2,26.72,26.72,0,0,1,.28-3.69,18.35,18.35,0,0,1,.93-3.87,9.57,9.57,0,0,1,2.2-3.5,10.57,10.57,0,0,1,3.63-2.3,16.69,16.69,0,0,1,4.42-.89c1.54-.16,3.13-.28,4.74-.37s3.25-.16,4.92-.19,3.36-.17,5.08-.25l35.08-2.07,10.64-.69,2.89-.21.75-.06A1,1,0,0,0,233.91,173.5Z" transform="translate(0 0.03)" fill="#375a64"/><path d="M217.52,137.12,213.05,152a16.55,16.55,0,0,1-12.57,11.91l-26,7.62-2-5.09-1.89-7.52,22.48-8.11a6.18,6.18,0,0,0,4.53-4.55l9-20.59L217.88,133Z" transform="translate(0 0.03)" fill="#c78976"/><path d="M228.42,90.76C218.9,92,215.83,96,212,102a34.5,34.5,0,0,0-3.85,8l-7.21,21.61,15.05,4.9-.51,17.65-6.85,21.47,57.8,4.81-.17-31.21-.41-18.83c.54-7.13,1.95-22.26.75-25.84C261.46,89.19,250.11,92.14,241.78,90c-1.71-.45-10-.36-11.46,0" transform="translate(0 0.03)" fill="#1da1f2"/><path d="M266.38,147.21c0,.16-11.31.3-25.25.3s-25.25-.14-25.25-.3,11.3-.3,25.25-.3S266.38,147,266.38,147.21Z" transform="translate(0 0.03)" fill="#fafafa"/><path d="M265.53,157.88c0,.16-11.3.3-25.25.3S215,158,215,157.88s11.3-.3,25.25-.3S265.53,157.71,265.53,157.88Z" transform="translate(0 0.03)" fill="#fafafa"/><path d="M265.8,170.12c0,.17-12,.3-26.7.3s-26.7-.13-26.7-.3,12-.3,26.7-.3S265.8,170,265.8,170.12Z" transform="translate(0 0.03)" fill="#fafafa"/><g opacity="0.3"><path d="M258.78,140.38c-.75,4.14-1.07,8.6-2.41,12.57a31.22,31.22,0,0,1-3.87,8.32,19.37,19.37,0,0,1-9.8,6.95c-3.81,1.25-22.16,5.59-26.15,5.27l33.57-16.81,4-17.71Z" transform="translate(0 0.03)"/></g><path d="M256.82,139.77l-3.69,15a16.75,16.75,0,0,1-12.07,12.61l-29.64,7.35-8.13.08V163l29.82-8.52a6.26,6.26,0,0,0,4.35-4.81l2.87-13.21Z" transform="translate(0 0.03)" fill="#c78976"/><g opacity="0.3"><path d="M235.33,138.36" transform="translate(0 0.03)" fill="none" stroke="#000" stroke-miterlimit="10" stroke-width="0.25"/></g><path d="M266.67,103.61c0,.16-12.46.3-27.83.3s-27.83-.14-27.83-.3,12.46-.3,27.83-.3S266.67,103.44,266.67,103.61Z" transform="translate(0 0.03)" fill="#fafafa"/><path d="M267,113.79c0,.17-13.43.3-30,.3s-30-.13-30-.3,13.42-.3,30-.3S267,113.63,267,113.79Z" transform="translate(0 0.03)" fill="#fafafa"/><path d="M266.24,124.8c0,.17-14.14.42-31.57.56s-31.58.13-31.58,0,14.13-.42,31.57-.56S266.24,124.64,266.24,124.8Z" transform="translate(0 0.03)" fill="#fafafa"/><path d="M265.8,136.47c0,.16-11.31.29-25.25.29s-25.25-.13-25.25-.29,11.3-.3,25.25-.3S265.8,136.3,265.8,136.47Z" transform="translate(0 0.03)" fill="#fafafa"/><path d="M261.9,141a1,1,0,0,1,0-.25l.09-.72c.1-.68.24-1.61.41-2.8.36-2.43.88-6,1.45-10.39s1.24-9.75,1.58-15.76c.11-3,.35-6.26-1.12-9.17a9.83,9.83,0,0,0-3.05-3.66,10.45,10.45,0,0,0-4.48-1.83h-.06a8.79,8.79,0,0,0-5.5.4,15,15,0,0,0-5.1,2.93,4.28,4.28,0,0,0-.78.92,12,12,0,0,0-.57,1.13,14.74,14.74,0,0,0-.84,2.42,50.25,50.25,0,0,0-1,5c-.56,3.33-1.11,6.57-1.63,9.69-1.07,6.23-2.05,12-2.91,17.08l-.17-.26L255,139.51l4.61,1.08,1.2.3a1.87,1.87,0,0,1,.4.13l-.42-.06-1.21-.23-4.63-.95-16.79-3.59-.21-.05v-.22c.84-5.1,1.8-10.87,2.83-17.11.52-3.13,1.06-6.37,1.61-9.7.28-1.67.56-3.36,1-5.06a17.16,17.16,0,0,1,.86-2.5,11.13,11.13,0,0,1,.61-1.19,4.48,4.48,0,0,1,.88-1.06,15.65,15.65,0,0,1,5.3-3,9.17,9.17,0,0,1,5.85-.38h-.06a11,11,0,0,1,4.73,2,10.19,10.19,0,0,1,3.22,3.88,12.18,12.18,0,0,1,.84,2.35,15.3,15.3,0,0,1,.35,2.43l.06,1.2V109a17.47,17.47,0,0,1-.1,2.3c-.37,6-1.09,11.36-1.7,15.78s-1.2,8-1.62,10.38c-.21,1.17-.38,2.1-.5,2.78-.06.28-.1.52-.14.71A.75.75,0,0,1,261.9,141Z" transform="translate(0 0.03)" fill="#1a2e35"/><path d="M215.77,153.84a9.53,9.53,0,0,0,.07-1.6v-4.37c0-3.68,0-8.77-.1-14.4s-.15-10.71-.23-14.39c-.06-1.78-.1-3.25-.13-4.37a10.67,10.67,0,0,0-.11-1.6,9.53,9.53,0,0,0-.08,1.6v4.37c0,3.68,0,8.77.09,14.4s.15,10.71.24,14.4c0,1.77.09,3.24.13,4.36A10.67,10.67,0,0,0,215.77,153.84Z" transform="translate(0 0.03)" fill="#1a2e35"/><polygon points="233.91 177.44 234.43 174.87 211.98 172.35 202.19 142.6 156.48 142.26 171.46 176.76 233.91 177.44" fill="#375a64"/><path d="M185.77,161.26a2.46,2.46,0,0,0,.7-3.28,2.19,2.19,0,0,0-3-.82l-.12.08a2.46,2.46,0,0,0-.69,3.29,2.18,2.18,0,0,0,3,.82l.14-.09" transform="translate(0 0.03)" fill="#fff"/><path d="M216.88,41.8a6.41,6.41,0,0,0-5,5.12,6.75,6.75,0,0,0,2.86,6.73,3.08,3.08,0,0,0,3,.37,4,4,0,0,0,1.66-2.52,14.36,14.36,0,0,0-.73-9.89" transform="translate(0 0.03)" fill="#1a2e35"/><path d="M235.74,100.53h0c-5.43,0-9.81-4.69-9.75-10.44,0-3.58.09-6.68.09-6.68s-7.83-.77-8.41-9-.33-27.14-.33-27.14h0a25.8,25.8,0,0,1,27.32,1.83l1.2.86-.37,40.32a10,10,0,0,1-9.74,10.25Z" transform="translate(0 0.03)" fill="#c78976"/><path d="M226.06,83.29a17.42,17.42,0,0,0,9.95-3.7s-2,6.06-9.84,5.83Z" transform="translate(0 0.03)" fill="#bf654e"/><path d="M243.86,59.06c.14-.05,4.91-.71,4.46,5.24s-6,3.51-6,3.34S243.86,59.06,243.86,59.06Z" transform="translate(0 0.03)" fill="#c78976"/><path d="M244.22,65.69a2,2,0,0,0,.25.18,1,1,0,0,0,.73.08,2.58,2.58,0,0,0,1.3-2.21,3.52,3.52,0,0,0-.16-1.51,1.19,1.19,0,0,0-.68-.86.49.49,0,0,0-.6.24c-.09.16-.06.28-.09.29s-.11-.11-.05-.36a.67.67,0,0,1,.25-.35.71.71,0,0,1,.55-.11,1.48,1.48,0,0,1,1,1,3.74,3.74,0,0,1,.21,1.69,2.67,2.67,0,0,1-1.62,2.45,1,1,0,0,1-.89-.23C244.22,65.84,244.2,65.7,244.22,65.69Z" transform="translate(0 0.03)" fill="#bf654e"/><path d="M222.7,50.69a23.19,23.19,0,0,0,3.66-2.8,6,6,0,0,0,4.3,2.88,5.81,5.81,0,0,0,4.82-1.7A3.22,3.22,0,0,0,237,51.66a2.87,2.87,0,0,0,2.89,0l.12,9.5a4.6,4.6,0,0,0,.56,2.62c.52.73,1.73,1,2.21.19a7.13,7.13,0,0,1,.3-3.43,2.14,2.14,0,0,1,2.71-1.28,25.2,25.2,0,0,0,.32-5.62,5.57,5.57,0,0,1,.22-1.72c.3-.52.45-.12,1-.24a4.22,4.22,0,0,0,3-3.83,5.48,5.48,0,0,0-2.15-4.61A6.6,6.6,0,0,0,243.38,42a3.38,3.38,0,0,0,0-4.32,4.8,4.8,0,0,0-4.09-1.59c-1.51.1-3.2,1-3.39,2.57a6.56,6.56,0,0,0-6-5.7,6.49,6.49,0,0,0-6.27,5.34c-1.81-.85-4.33-1.79-6.13-.92a6.2,6.2,0,0,0-3.73,5.46s-.46,6.51,3.44,7.83S222.7,50.69,222.7,50.69Z" transform="translate(0 0.03)" fill="#1a2e35"/><path d="M219.39,60.43a1.13,1.13,0,0,0,1.05,1.16,1.06,1.06,0,0,0,1.12-1h0a1.12,1.12,0,0,0-1.05-1.16,1.06,1.06,0,0,0-1.12,1Z" transform="translate(0 0.03)" fill="#1a2e35"/><path d="M219.15,59.13c.14.15,1-.49,2.13-.49s2,.63,2.16.47-.08-.33-.45-.62a2.92,2.92,0,0,0-1.73-.57,2.79,2.79,0,0,0-1.69.58C219.21,58.8,219.09,59.07,219.15,59.13Z" transform="translate(0 0.03)" fill="#1a2e35"/><path d="M230.86,60.72a1.11,1.11,0,0,0,1,1.16,1.07,1.07,0,0,0,1.13-1,1.12,1.12,0,0,0-1-1.16,1.06,1.06,0,0,0-1.13,1Z" transform="translate(0 0.03)" fill="#1a2e35"/><path d="M230.66,59.37c.14.15,1-.5,2.13-.5s2,.63,2.16.47-.08-.33-.45-.62a2.84,2.84,0,0,0-1.73-.56,2.72,2.72,0,0,0-1.69.57C230.72,59,230.59,59.3,230.66,59.37Z" transform="translate(0 0.03)" fill="#1a2e35"/><path d="M226.41,68.55a6.8,6.8,0,0,0-1.9-.36c-.3,0-.58-.1-.63-.32a1.59,1.59,0,0,1,.2-.93l.88-2.41a43.5,43.5,0,0,0,2-6.3,42.05,42.05,0,0,0-2.46,6.12c-.3.84-.58,1.65-.85,2.42a2,2,0,0,0-.16,1.24.79.79,0,0,0,.5.46,2.09,2.09,0,0,0,.5.08A7.71,7.71,0,0,0,226.41,68.55Z" transform="translate(0 0.03)" fill="#1a2e35"/><path d="M229.86,69.4c-.19,0-.2,1.34-1.28,2.29s-2.44.81-2.45,1,.3.27.87.28a3,3,0,0,0,3-2.67C230.09,69.73,229.94,69.4,229.86,69.4Z" transform="translate(0 0.03)" fill="#1a2e35"/><path d="M230.36,54.51c.11.34,1.28.18,2.66.36s2.48.57,2.66.26c.08-.14-.11-.46-.56-.78a4.54,4.54,0,0,0-4.08-.48C230.56,54.09,230.31,54.35,230.36,54.51Z" transform="translate(0 0.03)" fill="#1a2e35"/><path d="M219.58,55.55c.21.28,1,0,2,0s1.79.19,2-.11c.08-.14-.05-.42-.41-.69a2.7,2.7,0,0,0-1.61-.46,2.59,2.59,0,0,0-1.58.57C219.6,55.12,219.49,55.41,219.58,55.55Z" transform="translate(0 0.03)" fill="#1a2e35"/><path d="M221.81,41.41a1.58,1.58,0,0,0-.3-.09,1,1,0,0,0-.81.22,1.16,1.16,0,0,0-.36,1.25,2,2,0,0,0,1.16,1.34,2.39,2.39,0,0,0,2.1-.14,2.75,2.75,0,0,0,1.25-2.13,3.13,3.13,0,0,0-1-2.6,3.34,3.34,0,0,0-2.75-.93,4.37,4.37,0,0,0-2.66,1.4,5.49,5.49,0,0,0-1.28,2.64,7.56,7.56,0,0,0,.79,5A8.12,8.12,0,0,0,220.18,50c.64.49,1,.69,1,.74a3.16,3.16,0,0,1-1.16-.54,7.93,7.93,0,0,1-3.4-7.93A5.91,5.91,0,0,1,218,39.31a4.86,4.86,0,0,1,3-1.58,3.87,3.87,0,0,1,3.18,1.09,3.72,3.72,0,0,1,1.12,3.09,3.31,3.31,0,0,1-1.55,2.51,2.75,2.75,0,0,1-2.48.08A2.31,2.31,0,0,1,220,42.85a1.43,1.43,0,0,1,.54-1.51,1.08,1.08,0,0,1,1-.15C221.75,41.29,221.82,41.4,221.81,41.41Z" transform="translate(0 0.03)" fill="#375a64"/><path d="M39.67,422.16c.73-3.06-1.18-6.12-3.31-8.32s-4.69-4.18-5.81-7.1c-1.81-4.74.56-10.9-2.52-14.85-1.81-2.32-5-3.08-6.64-5.56a13.41,13.41,0,0,1-1.46-4.44,46,46,0,0,0-10.74-21,41,41,0,0,0,4.28,20.25c1.25,2.48,2.78,4.9,3.2,7.68.69,4.51-1.66,9.17-.59,13.6,1.23,5.06,6.63,8.42,6.91,13.64.24,4.41-3.37,8.3-3.08,12.71A12.23,12.23,0,0,0,21.8,434c3.25,5.65,8,9.53,15.19,9.36l8.8.28Z" transform="translate(0 0.03)" fill="#1da1f2"/><g opacity="0.3"><path d="M39.67,422.16c.73-3.06-1.18-6.12-3.31-8.32s-4.69-4.18-5.81-7.1c-1.81-4.74.56-10.9-2.52-14.85-1.81-2.32-5-3.08-6.64-5.56a13.41,13.41,0,0,1-1.46-4.44,46,46,0,0,0-10.74-21,41,41,0,0,0,4.28,20.25c1.25,2.48,2.78,4.9,3.2,7.68.69,4.51-1.66,9.17-.59,13.6,1.23,5.06,6.63,8.42,6.91,13.64.24,4.41-3.37,8.3-3.08,12.71A12.23,12.23,0,0,0,21.8,434c3.25,5.65,8,9.53,15.19,9.36l8.8.28Z" transform="translate(0 0.03)"/></g><path d="M47.57,443.89a6.84,6.84,0,0,0,2.43-.07,14.16,14.16,0,0,0,2.85-.78A11.91,11.91,0,0,0,56.37,441a5.11,5.11,0,0,0,1.44-2,10,10,0,0,0,.4-2.78,27.46,27.46,0,0,1,.19-3,8.41,8.41,0,0,1,1.06-3c1-1.94,2.74-3.77,3.28-6.39a23.42,23.42,0,0,0-.28-8.15c-.42-2.79-.84-5.83.16-8.75s2.84-5.55,3.79-8.84.47-6.87.66-10.39a14.35,14.35,0,0,1,1.11-5.17c.71-1.65,1.69-3.21,2.45-5,1.54-3.52,1.79-7.49,2.2-11.39q.3-2.94.6-5.94a31.11,31.11,0,0,1,.94-6,55.85,55.85,0,0,1,2.08-5.77,21.11,21.11,0,0,0,1-3c.14-1.06.23-2.14.27-3.21a40.61,40.61,0,0,0-.27-6.43c-.25-2.15-.63-4.28-.86-6.43V329l0-.43-.36.2A13.82,13.82,0,0,0,71.47,333a23.08,23.08,0,0,0-2.88,5.69c-1.45,4-2,8.2-2.67,12.2a34.41,34.41,0,0,1-3.56,11.27c-1,1.67-2.11,3.19-3.12,4.81a13.54,13.54,0,0,0-2.16,5.32c-.49,3.93,1.57,7.38,1.17,10.87A12.73,12.73,0,0,1,56.67,388c-.79,1.5-1.73,2.88-2.61,4.27a28.51,28.51,0,0,0-2.34,4.31,14.47,14.47,0,0,0-1,4.67c-.2,3.14.24,6.11,0,8.92a21.17,21.17,0,0,1-2.13,7.66c-1,2.3-2.22,4.37-3.2,6.39a23,23,0,0,0-1.32,3,14.92,14.92,0,0,0-.75,2.94,19.74,19.74,0,0,0,0,5.32,13.65,13.65,0,0,0,2.55,6.75,6.94,6.94,0,0,0,.72.81,3.18,3.18,0,0,0,.58.52l.5.37a11.93,11.93,0,0,1-1.71-1.77,14,14,0,0,1-2.42-6.71,19.56,19.56,0,0,1,.08-5.24,15.09,15.09,0,0,1,.76-2.88,29.17,29.17,0,0,1,1.33-2.93c1-2,2.17-4.06,3.25-6.37a21.93,21.93,0,0,0,2.2-7.8c.22-2.87-.21-5.85,0-8.92a13.73,13.73,0,0,1,1-4.51,27.44,27.44,0,0,1,2.31-4.22c.88-1.38,1.82-2.77,2.64-4.3a13.24,13.24,0,0,0,1.65-5c.4-3.72-1.65-7.18-1.14-10.85a12.94,12.94,0,0,1,2.08-5.08c1-1.59,2.16-3.11,3.15-4.82,2-3.43,2.92-7.44,3.63-11.46s1.24-8.18,2.66-12.1a22.9,22.9,0,0,1,2.8-5.54,13.3,13.3,0,0,1,4.52-4.08l-.41-.23v.37c.23,2.18.61,4.31.86,6.43a39.48,39.48,0,0,1,.27,6.34,29.41,29.41,0,0,1-.26,3.11,18.75,18.75,0,0,1-1,2.9,58,58,0,0,0-2.09,5.84,31.13,31.13,0,0,0-1,6l-.6,6c-.4,3.92-.65,7.83-2.14,11.22-.73,1.69-1.71,3.25-2.43,5a15,15,0,0,0-1.15,5.36c-.17,3.59.29,7.1-.61,10.28s-2.8,5.83-3.76,8.84-.57,6.17-.14,9,.88,5.53.33,8-2.16,4.32-3.21,6.31a8.9,8.9,0,0,0-1.07,3.12,27.42,27.42,0,0,0-.17,3,10.27,10.27,0,0,1-.36,2.7,5,5,0,0,1-1.35,2,12,12,0,0,1-3.44,2.07,14.61,14.61,0,0,1-2.81.83,10.77,10.77,0,0,1-1.79.19Z" transform="translate(0 0.03)" fill="#1a2e35"/><path d="M74.78,334.12a.83.83,0,0,1-.08.28,5.69,5.69,0,0,0-.19.84c-.17.73-.37,1.84-.7,3.22s-1.12,3-1.8,4.87-1.4,4.13-2.05,6.61-1.24,5.25-1.85,8.2a35.79,35.79,0,0,1-2.76,9.11c-.72,1.51-1.52,3.05-2.15,4.72A22.37,22.37,0,0,0,62,377.32a108.66,108.66,0,0,1-1.84,11.27c-1.72,7.63-3.36,14.9-4.86,21.53l-4.07,17.55c-1.13,5-2,9-2.7,11.85l-.71,3.23c-.07.34-.12.62-.17.85a1.41,1.41,0,0,0,0,.29.94.94,0,0,0,.1-.28l.22-.83c.2-.78.47-1.85.81-3.2.69-2.84,1.67-6.86,2.88-11.8s2.61-10.94,4.19-17.53,3.16-13.9,4.9-21.54a111,111,0,0,0,1.84-11.31,21.84,21.84,0,0,1,1.19-5.22c.61-1.63,1.4-3.16,2.11-4.69a35.92,35.92,0,0,0,2.76-9.24c.59-3,1.14-5.72,1.77-8.19s1.3-4.7,2-6.61a45,45,0,0,0,1.72-4.93c.32-1.43.46-2.51.59-3.26,0-.34.1-.62.13-.85A.92.92,0,0,0,74.78,334.12Z" transform="translate(0 0.03)" fill="#1a2e35"/><path d="M49.13,443.91c5.72-3.65,7.31-14.62,4.88-21.21s-6.66-12.59-7.34-19.62c-.53-5.41,1.11-11-.1-16.25-1.65-7.12-8.27-12.61-8.23-19.94,0-4.12,2.21-8,2-12.11-.25-5-3.93-9-6.22-13.45-3.5-6.78-3.78-14.82-5-22.43s-4-15.77-10.43-19.47c-.91,6.47-2.5,10.92-1.94,19.68.2,3.15,3.69,9.16,4.19,16.05.31,4.13.53,8.26.79,12.38s.52,8.11,1.9,11.86c1.06,2.87,2.75,5.48,3.54,8.45,1.49,5.58-.4,11.65.81,17.31,1,4.8,4.19,8.91,4.86,13.77.93,6.84-3.21,14-1,20.48,1.08,3.23,3.62,5.82,4.35,9.16.57,2.59,0,5.34.49,7.94.84,4.19,8.42,7.41,12.47,7.12" transform="translate(0 0.03)" fill="#1da1f2"/><path d="M20.33,305.84a2.29,2.29,0,0,0,0,.37,9.64,9.64,0,0,0,.13,1.06c.14.93.29,2.31.6,4.08s1.21,3.79,1.92,6.2,1.49,5.2,2.15,8.31,1.24,6.56,1.84,10.28a44.06,44.06,0,0,0,3,11.6c.81,1.94,1.73,3.88,2.42,6a28.69,28.69,0,0,1,1.24,6.56q.52,7.11,1.76,14.14c1.82,9.58,3.54,18.71,5.11,27s3.14,15.73,4.4,22,2.29,11.28,3,14.82c.36,1.71.64,3.06.84,4l.24,1a1.08,1.08,0,0,0,.1.35,2.16,2.16,0,0,0,0-.36,6.74,6.74,0,0,0-.17-1l-.75-4c-.67-3.55-1.64-8.61-2.83-14.86l-4.28-22c-1.55-8.3-3.26-17.42-5.06-27q-1.26-7.2-1.77-14.1a28.28,28.28,0,0,0-1.29-6.69c-.71-2.11-1.63-4.06-2.45-6a44,44,0,0,1-3-11.47c-.62-3.7-1.21-7.16-1.91-10.28s-1.46-5.91-2.24-8.32-1.65-4.41-2-6.15-.54-3.13-.71-4.05l-.19-1A1.64,1.64,0,0,0,20.33,305.84Z" transform="translate(0 0.03)" fill="#1a2e35"/><path d="M667.19,413.37c-1.33,2-3.9,1.34-5.1.12a10.47,10.47,0,0,1-2.16-4.68c-1-3.86-2.11-7.91-1.33-11.84a6.86,6.86,0,0,1,1.43-3.22,3.17,3.17,0,0,1,3.08-1.09c1.3.37,2.11,1.71,2.69,3a29.48,29.48,0,0,1,2.64,12.12,10.21,10.21,0,0,1-1.25,5.6" transform="translate(0 0.03)" fill="#1da1f2"/><g opacity="0.2"><path d="M667.19,413.37c-1.33,2-3.9,1.34-5.1.12a10.47,10.47,0,0,1-2.16-4.68c-1-3.86-2.11-7.91-1.33-11.84a6.86,6.86,0,0,1,1.43-3.22,3.17,3.17,0,0,1,3.08-1.09c1.3.37,2.11,1.71,2.69,3a29.48,29.48,0,0,1,2.64,12.12,10.21,10.21,0,0,1-1.25,5.6" transform="translate(0 0.03)"/></g><path d="M662.22,423.52a10.92,10.92,0,0,0-7.13-.92,5.81,5.81,0,0,0-3.52,1.66,2.75,2.75,0,0,0,0,3.72,3.32,3.32,0,0,0,2.22.6c1.89,0,4-.38,5.49.82.85.68,1.43,1.82,2.45,2.16a2.38,2.38,0,0,0,2.67-1.26,4.66,4.66,0,0,0,.31-3.24A5,5,0,0,0,662.22,423.52Z" transform="translate(0 0.03)" fill="#1da1f2"/><path d="M670.83,416.25a7.64,7.64,0,0,1-1.07-6.71,13,13,0,0,1,3.75-5.76,20.15,20.15,0,0,1,6.73-4.2,6.86,6.86,0,0,1,3-.54,3.18,3.18,0,0,1,2.54,1.62c.71,1.43,0,3.16-.71,4.58a54.7,54.7,0,0,1-4.41,7.11c-1.33,1.8-2.84,3.59-4.86,4.4s-4.11.72-5.18-.76" transform="translate(0 0.03)" fill="#1da1f2"/><path d="M667.28,443.58a3.5,3.5,0,0,1-.12-.91c-.06-.66-.14-1.49-.23-2.48a34.32,34.32,0,0,0-.53-3.64,28.18,28.18,0,0,0-1.25-4.3,15.83,15.83,0,0,0-2.08-3.89,7.75,7.75,0,0,0-2.62-2.31,7.18,7.18,0,0,0-2.21-.73,3.58,3.58,0,0,1-.86-.13,3.17,3.17,0,0,1,.87,0,6.62,6.62,0,0,1,2.31.63,7.89,7.89,0,0,1,2.77,2.33,15.6,15.6,0,0,1,2.15,4,27.56,27.56,0,0,1,1.24,4.37,32.62,32.62,0,0,1,.46,3.69c.07,1,.1,1.9.12,2.49A5.18,5.18,0,0,1,667.28,443.58Z" transform="translate(0 0.03)" fill="#1a2e35"/><path d="M667.12,441.67a1.48,1.48,0,0,1,0-.42V440c0-1.05,0-2.56-.06-4.43-.08-3.75-.39-8.92-1-14.6s-1.38-10.8-2.09-14.47c-.17-.92-.34-1.74-.5-2.47s-.29-1.35-.41-1.86l-.27-1.17a2,2,0,0,1-.07-.42,1.9,1.9,0,0,1,.14.4c.09.3.2.68.33,1.15s.3,1.13.47,1.85.37,1.55.55,2.47A144.59,144.59,0,0,1,666.42,421c.59,5.69.85,10.88.88,14.63,0,1.88,0,3.4-.07,4.45,0,.49-.05.89-.07,1.2A3,3,0,0,1,667.12,441.67Z" transform="translate(0 0.03)" fill="#1a2e35"/><path d="M667.09,431.67a8.83,8.83,0,0,1,0-1.26,25.31,25.31,0,0,1,.37-3.42,43.59,43.59,0,0,1,3-10.89,32,32,0,0,1,5.79-9.52,14.34,14.34,0,0,1,1.36-1.34c.21-.18.39-.37.58-.52l.53-.38a8.38,8.38,0,0,1,1-.68,37.21,37.21,0,0,0-3.29,3.11,33.35,33.35,0,0,0-5.64,9.48,47.86,47.86,0,0,0-2,5.84c-.52,1.83-.86,3.51-1.12,4.93s-.39,2.58-.47,3.38A7.69,7.69,0,0,1,667.09,431.67Z" transform="translate(0 0.03)" fill="#1a2e35"/></svg>