<?xml version="1.0" encoding="utf-8"?>
<!-- Generator: Adobe Illustrator 26.0.3, SVG Export Plug-In . SVG Version: 6.00 Build 0)  -->
<svg version="1.1" id="Layer_2_00000169525501963241888230000013586568852358512042_"
	 xmlns="http://www.w3.org/2000/svg" xmlns:xlink="http://www.w3.org/1999/xlink" x="0px" y="0px" viewBox="0 0 495.9 429.8"
	 style="enable-background:new 0 0 495.9 429.8;" xml:space="preserve">
<style type="text/css">
	.st0{fill:#1A2E35;}
	.st1{fill:none;stroke:#1A2E35;stroke-linecap:round;stroke-linejoin:round;}
	.st2{fill:#FFFFFF;stroke:#1A2E35;stroke-linecap:round;stroke-linejoin:round;}
	.st3{fill:#1A2E35;stroke:#1A2E35;stroke-linecap:round;stroke-linejoin:round;}
	.st4{fill:#1DA1F2;}
	.st5{fill:none;stroke:#1A2E35;stroke-linecap:round;stroke-miterlimit:10;}
	.st6{fill:none;stroke:#1DA1F2;stroke-width:3;stroke-linecap:round;stroke-miterlimit:10;}
	.st7{fill:#1DA1F2;stroke:#1A2E35;stroke-linecap:round;stroke-linejoin:round;}
</style>
<path class="st0" d="M330.3,49c34.1,0.5,62.7,12.2,85.1,35.6c2.7,2.5,2.8,6.7,0.3,9.4c-0.3,0.3-0.7,0.6-1,0.9
	c-3.4,2.6-8.2,2.2-11.1-0.9c-8.2-8.7-17.9-15.8-28.7-20.9c-34.8-16.5-76.3-12.4-106.2,10.5c-4,3.2-7.9,6.7-11.5,10.4
	c-3.2,3.1-8,3.6-11.4,0.9c-3.4-2.7-3.6-7.1-0.5-10.3c18.8-19.7,42.5-31.3,71.1-34.9c2.2-0.3,4.5-0.5,6.7-0.6
	C325.4,49,327.8,49,330.3,49z"/>
<path class="st0" d="M333.1,77.7c21.9,0.3,42.8,9.5,57.8,25.5c3.1,3.3,2.8,7.5-0.7,10.3c-3.4,2.6-8.3,2.2-11.2-1
	c-8.3-8.7-18.4-15.1-30.7-18.1c-25.1-6.1-46.8-0.5-65,16.3c-0.7,0.6-1.3,1.3-1.9,1.9c-3,3.1-7.7,3.5-11.1,0.9
	c-3.5-2.7-3.8-7.1-0.8-10.3c7.2-7.6,15.8-13.8,25.3-18C306.1,80.1,317.9,77.7,333.1,77.7z"/>
<path class="st0" d="M368.6,126.5c-0.1,3.1-2.1,5.8-5,6.7c-3.1,1.1-6.5,0.3-8.8-2c-3.4-3.6-7.5-6.3-12-8.1c-12.8-5-27.3-1.9-36.9,8
	c-2.1,2.3-5.4,3.2-8.4,2.3c-2.9-0.6-5.1-3-5.5-5.9c-0.3-2,0.4-4.1,1.8-5.6c16.5-18,46.9-20.5,66.7-5.5c2.3,1.7,4.4,3.6,6.3,5.7
	c1.1,1.2,1.5,2.9,2.3,4.3L368.6,126.5z"/>
<path class="st0" d="M330.2,164c-8.9,0-15.9-6.4-15.9-14.4c0-7.9,7.1-14.3,15.8-14.3s15.9,6.4,15.9,14.4S339,164,330.2,164z"/>
<line class="st1" x1="193.3" y1="177.6" x2="193.3" y2="176"/>
<line class="st1" x1="157.2" y1="178" x2="157.2" y2="176.4"/>
<path class="st2" d="M192,143.7h-30.1c-4.9,0-8.9,3.6-8.9,8V164c0,4.4,4,8,8.9,8l0,0l0.3,12.4l9.5-12.4H192c4.9,0,8.9-3.6,8.9-8
	v-12.3C200.9,147.2,196.9,143.7,192,143.7z"/>
<path class="st3" d="M180.6,150.3h24.8c4,0,7.3,2.9,7.3,6.6V167c0,3.6-3.3,6.6-7.3,6.6l0,0l-0.2,10.2l-7.8-10.2h-16.7
	c-4.1,0-7.3-2.9-7.3-6.6v-10.1C173.3,153.3,176.6,150.3,180.6,150.3z"/>
<path class="st4" d="M188,161.9c0-1.4-1.1-2.7-2.5-2.7c0,0,0,0,0,0c-1.5-0.1-2.7,1-2.8,2.4c0,1.4,1.1,2.7,2.5,2.7c0,0,0,0,0,0h0.1
	C186.7,164.4,187.9,163.3,188,161.9z"/>
<ellipse class="st4" cx="193.7" cy="161.9" rx="2.7" ry="2.4"/>
<ellipse class="st4" cx="202.2" cy="161.9" rx="2.7" ry="2.4"/>
<line class="st1" x1="117.8" y1="184.5" x2="117.8" y2="182.9"/>
<rect x="79.5" y="89.5" class="st2" width="53.2" height="27.9"/>
<polygon class="st2" points="79.5,117.4 105.7,95.7 132.7,117.4 "/>
<polygon class="st2" points="79.5,89.5 106.1,103.4 132.7,89.5 "/>
<line class="st1" x1="79.5" y1="113.8" x2="79.5" y2="112.2"/>
<path class="st2" d="M202.7,40.1c-4.6-8.5-14.4-14.3-25.8-14.3c-13.4,0-24.6,8.1-27.7,19c-0.5,0-0.9-0.1-1.4-0.1
	c-9.9,0-17.9,7-17.9,15.7c0,8,6.8,14.5,15.5,15.5v0.2h53.8c11.4,0,20.6-8.1,20.6-18.1C219.8,49,212.4,41.6,202.7,40.1z"/>
<line class="st1" x1="-5.8" y1="252.2" x2="-5.8" y2="250.6"/>
<path class="st5" d="M141.9,369c0,0-1.1-0.1-2.9-0.2"/>
<path class="st3" d="M447.8,179.5L447.8,179.5c-2.1-0.3-4.1,1.1-4.5,3.2l-20.4,141.4l13.3,1.3l15.2-141.9
	C451.5,181.4,449.9,179.6,447.8,179.5C447.8,179.5,447.8,179.5,447.8,179.5L447.8,179.5z"/>
<path class="st3" d="M242.8,179.5L242.8,179.5c2.1-0.3,4.1,1.1,4.5,3.2l20.4,141.4l-13.3,1.3l-15.2-141.9
	C239.1,181.4,240.7,179.6,242.8,179.5C242.8,179.5,242.8,179.5,242.8,179.5L242.8,179.5z"/>
<path class="st2" d="M262.1,321.2H473c1.7-0.1,3,1.2,3.1,2.9c0,0,0,0,0,0v67.8c0,1.7-1.4,3-3.1,2.9c0,0,0,0,0,0H262.1
	c-1.7,0.1-3-1.2-3.1-2.9c0,0,0,0,0,0v-67.8C259,322.5,260.4,321.1,262.1,321.2C262,321.2,262.1,321.2,262.1,321.2z"/>
<path class="st2" d="M257.2,330.3h220.7c1.5,0,2.8,1.1,2.8,2.7c0,0,0,0,0,0v50.1c0,1.5-1.3,2.7-2.8,2.7H257.2
	c-1.5,0-2.8-1.2-2.8-2.7v-50.1C254.4,331.4,255.6,330.2,257.2,330.3C257.2,330.3,257.2,330.3,257.2,330.3z"/>
<path class="st2" d="M148.2,321.2h210.9c1.7-0.1,3,1.2,3.1,2.9c0,0,0,0,0,0.1v67.8c0,1.7-1.4,3-3.1,2.9c0,0,0,0-0.1,0H148.2
	c-1.7,0.1-3-1.2-3.1-2.9c0,0,0,0,0,0v-67.8C145.1,322.5,146.5,321.1,148.2,321.2C148.1,321.2,148.2,321.2,148.2,321.2z"/>
<path class="st2" d="M143.3,330.3H364c1.5,0,2.8,1.1,2.8,2.7c0,0,0,0,0,0v50.1c0,1.5-1.3,2.7-2.8,2.7H143.3c-1.5,0-2.8-1.2-2.8-2.7
	v-50.1C140.5,331.4,141.8,330.2,143.3,330.3z"/>
<path class="st3" d="M162.9,342.4h183.4c1.8,0,3.3,1.4,3.4,3.2v23.4c0,1.8-1.6,3.3-3.4,3.2H162.9c-1.8,0-3.3-1.4-3.4-3.2v-23.4
	C159.5,343.8,161.1,342.4,162.9,342.4C162.9,342.4,162.9,342.4,162.9,342.4z"/>
<path class="st6" d="M170.1,349.6c-3.2,1-5.4,4-5.5,7.4c0,4.4,4,7.9,8.8,7.9s8.8-3.5,8.8-7.9c-0.1-3.3-2.3-6.2-5.4-7.3"/>
<line class="st6" x1="173.5" y1="346.6" x2="173.5" y2="352.4"/>
<path class="st2" d="M276.4,365.6c0,0-8.6,2.4-10.4,2.7s-7.4-1-7.6,1s3.2,3.7,8.6,5.6s11.3,3.5,15.3,3.4s3.2-7.3,3.5-8.5
	S276.4,365.6,276.4,365.6z"/>
<path class="st2" d="M269.8,373.2c-6.8-2.5-9.9-3.8-11.2-4.4c-0.1,0.1-0.2,0.3-0.2,0.5c-0.2,2,3.2,3.7,8.6,5.6s11.3,3.5,15.3,3.4
	c1.4-0.1,2.5-1.1,2.8-2.4C279.9,376,274.7,375.1,269.8,373.2z"/>
<path class="st7" d="M328.6,293.2l-2.2,1.1v2.9c0,0-46.9,7-47.5,10.7s-2.5,58.3-2.5,58.3s7.6,7.3,9.2,5.7s2-7,2-7l7.8-48.4
	c0,0,52.9,4.4,60.9,2.1s11.9-11.8,12.1-16.2s0.2-6.4,0.2-6.4l-36-4.4L328.6,293.2z"/>
<path class="st2" d="M312.6,367.6l-0.3,0.5c-1.7,2.5-3.7,4.8-5.8,6.8c-3.5,3.3-9.2,6.1-9,7.2s4.1,1.8,17.4-1.8
	c6-1.6,10.4-1.6,11-3.5s-4.3-9.7-4.3-9.7L312.6,367.6z"/>
<path class="st2" d="M326,376.8c0.1-0.9-0.1-1.8-0.5-2.6c-4.5,1.9-9.2,3.5-14,4.6c-4.4,1.1-8.8,1.9-13.3,2.4c-0.4,0.4-0.7,0.7-0.7,1
	c0.2,1.1,4.1,1.8,17.4-1.8C320.9,378.6,325.3,378.6,326,376.8z"/>
<path class="st7" d="M341.5,301.1c0,0-4.9-3.8-5.3-1.6s-1.2,2.8-1.2,2.8s-34.4,3.7-38.2,5.9s-5.1,5.1-2.9,9.5s17.4,52.7,17.4,52.7
	c1.6,0.6,3.2,1.1,4.9,1.5c2.2,0.4,7-1.6,7-1.6s-0.6-9-2-11.9s-7.3-36.8-7.3-36.8s24.8,0.1,33.2,0.1s17.6-6.2,19.4-11.4s1-6.2,1-6.2"
	/>
<line class="st1" x1="313.8" y1="321.4" x2="312.6" y2="315.6"/>
<path class="st1" d="M352.9,309.2c0.6,0.8,1.2,1.7,1.6,2.7"/>
<path class="st1" d="M343.5,302.9c3,1.1,5.7,2.8,8,4.9"/>
<path class="st1" d="M351.3,303.9c3.1,1.2,5.7,3.4,7.5,6.2"/>
<path class="st2" d="M329.1,248.2c0,0,0,0.3,0,0.7c-0.2,2.6-3.4,6.5-1.5,11.3c4.3,11,3.5,19.1,3.1,16.7c0.6,3.7-3.1,11.6-3.1,14.1
	s-7.6,3,9.6,7.5s23.1,4.4,27.4,2.9s7.4-2.8,7.8-5.9s-3.3-8.6-3.5-13.4s-0.9-19.7-6-29.3s-18.6-16.2-18.6-16.2L329.1,248.2z"/>
<path class="st1" d="M356.1,284.2c0.9-0.6,1.7-1.2,2.5-1.9"/>
<path class="st1" d="M334.5,295.1c6.3-2.5,12.4-5.4,18.3-8.8"/>
<path class="st1" d="M341.1,293.9c-2.4,1.1-5,2-7.6,2.6"/>
<path class="st1" d="M344.4,292.3c0,0-0.6,0.3-1.5,0.8"/>
<line class="st1" x1="347.2" y1="268.1" x2="352.7" y2="262"/>
<path class="st2" d="M327.2,207.4c-1.4,1.3-2.6,2.7-3.7,4.2c-0.9,1.6-1,2.7-2.6,3.7s-4.7,0.4-4.6,2s2,3.2,2,3.2s-1.5,10-1,11.5
	s8.5,1.9,8.5,1.9l4.1,11.8l14.3-8.7l0.4-3.5c0.4-1.4,2.9-5.7,5-9s1.2-11.8-4-15.5s-11.9-3.3-14-3.4S327.2,207.4,327.2,207.4z"/>
<path class="st1" d="M319.3,222.6c1.4,1.3,3.5,1.7,5.3,1.1"/>
<path class="st0" d="M325.4,216.6c-0.3,0.7-0.9,1.2-1.2,1.1s-0.3-0.8,0-1.5s0.9-1.2,1.2-1.1S325.7,215.8,325.4,216.6z"/>
<path class="st1" d="M324.8,213c0,0,3.1-0.6,3.5,2.2"/>
<polygon class="st3" points="325.9,234 330.8,233.9 327.4,237.6 "/>
<polyline class="st1" points="337.2,229.4 335,228.9 333.7,230.7 "/>
<path class="st3" d="M336,203.1c0,0,3.1-3.2-0.6-4.7s-16.3,1.2-15,6.2s13.1,5.6,14.3,5.7s-2.2,1.1-1.4,2.7s3.2,2.3,3.3,3.9
	c0.1,1.6-2.1,3.8-1,4.8s2.7-0.5,3.8-0.8s4,2.3,1.7,5.6s-3.9,3-3.9,3c-0.6,1.3-0.1,2.8,1.1,3.6c2,1.6,6.3,1.1,7.3-0.4
	s2.9-2.9,6.7-6.3s5.6-11.8,3-17.6S340.7,200.5,336,203.1z"/>
<polygon class="st2" points="344.2,234.1 324.7,246.9 325.8,252.5 347.8,238 "/>
<polygon class="st2" points="295.5,309.2 329.9,302.5 321.9,298.2 289.3,304.7 "/>
<polygon class="st3" points="280.2,280 295.5,309.2 289.3,304.7 273.7,277.3 "/>
<path class="st2" d="M307.9,296.8l-7.9,1.9l-4.9,6.4c0.4,0.4,1,0.5,1.5,0.5c1.1-0.5,2.1-1.1,3-1.8l5.7-1.4c0,0-3,1.6-3,1.9
	s0.5,0.5,1.9,0.4s4.6-2.8,4.6-2.8l2.2-2.5L307.9,296.8z"/>
<polygon class="st2" points="329.2,264.9 325.2,281.5 307.9,296.8 312,300.2 326.4,294.3 327.3,292 330.8,278.1 "/>
<path class="st2" d="M303.1,293.4c0,0-5.5,0.7-7.5,0.7s-7,0.4-7.8,0.7s-4.7,2.6-4.5,4.2s3.7,0.2,3.7,0.2c0.7,1.5,1.6,2.9,2.7,4.2
	c1.6,2,2.5,1.3,5.7,0.2c2.9-1.2,5.6-2.7,8.2-4.4l2.9-2.4L303.1,293.4z"/>
<path class="st2" d="M351.1,241.8c0,0-8.4-1.1-11.5,2.6s-6.1,10.1-6.8,14.9s-4.5,14.3-4.5,14.3l-26,19.4l4.5,6.1
	c0,0,31.5-13.2,32.4-14.1s11.2-25.2,11.2-25.2"/>
</svg>
