<?xml version="1.0" encoding="utf-8"?>
<!-- Generator: Adobe Illustrator 19.0.0, SVG Export Plug-In . SVG Version: 6.00 Build 0)  -->
<svg version="1.1" id="Layer_2" xmlns="http://www.w3.org/2000/svg" xmlns:xlink="http://www.w3.org/1999/xlink" x="0px" y="0px"
	 viewBox="46 175.2 704 443.8" style="enable-background:new 46 175.2 704 443.8;" xml:space="preserve">
<style type="text/css">
	.st0{fill:#1A2E35;}
	.st1{fill:none;stroke:#1A2E35;stroke-linecap:round;stroke-linejoin:round;}
	.st2{fill:#FFFFFF;stroke:#1A2E35;stroke-linecap:round;stroke-linejoin:round;}
	.st3{fill:#1A2E35;stroke:#1A2E35;stroke-linecap:round;stroke-linejoin:round;}
	.st4{fill:#1DA1F2;}
	.st5{fill:none;stroke:#1A2E35;stroke-linecap:round;stroke-miterlimit:10;}
	.st6{fill:none;stroke:#1DA1F2;stroke-width:3;stroke-linecap:round;stroke-miterlimit:10;}
	.st7{fill:#1DA1F2;stroke:#1A2E35;stroke-linecap:round;stroke-linejoin:round;}
</style>
<path class="st0" d="M459.3,211.4c38.3,0.6,70.3,13.8,95.5,40.3c3,2.8,3.1,7.6,0.3,10.6c-0.3,0.3-0.8,0.7-1.1,1
	c-3.8,2.9-9.2,2.5-12.5-1c-9.2-9.8-20.1-17.9-32.2-23.6c-39-18.7-85.6-14-119.1,11.9c-4.5,3.6-8.9,7.6-12.9,11.8
	c-3.6,3.5-9,4.1-12.8,1c-3.8-3.1-4-8-0.6-11.6c21.1-22.3,47.7-35.4,79.8-39.5c2.5-0.3,5-0.6,7.5-0.7
	C453.8,211.4,456.5,211.4,459.3,211.4z"/>
<path class="st0" d="M462.4,243.9c24.6,0.3,48,10.7,64.8,28.8c3.5,3.7,3.1,8.5-0.8,11.6c-3.8,2.9-9.3,2.5-12.6-1.1
	c-9.3-9.8-20.6-17.1-34.4-20.5c-28.2-6.9-52.5-0.6-72.9,18.4c-0.8,0.7-1.5,1.5-2.1,2.1c-3.4,3.5-8.6,4-12.5,1
	c-3.9-3.1-4.3-8-0.9-11.6c8.1-8.6,17.7-15.6,28.4-20.4C432.1,246.6,445.4,243.9,462.4,243.9z"/>
<path class="st0" d="M502.2,299.1c-0.1,3.5-2.4,6.6-5.6,7.6c-3.5,1.2-7.3,0.3-9.9-2.3c-3.8-4.1-8.4-7.1-13.5-9.2
	c-14.4-5.7-30.6-2.1-41.4,9c-2.4,2.6-6.1,3.6-9.4,2.6c-3.3-0.7-5.7-3.4-6.2-6.7c-0.3-2.3,0.4-4.6,2-6.3
	c18.5-20.4,52.6-23.2,74.8-6.2c2.6,1.9,4.9,4.1,7.1,6.4c1.2,1.4,1.7,3.3,2.6,4.9L502.2,299.1z"/>
<path class="st0" d="M459.2,341.5c-10,0-17.8-7.2-17.8-16.3c0-8.9,8-16.2,17.7-16.2s17.8,7.2,17.8,16.3
	C476.9,334.4,469,341.5,459.2,341.5z"/>
<line class="st1" x1="305.6" y1="356.9" x2="305.6" y2="355"/>
<line class="st1" x1="265.1" y1="357.3" x2="265.1" y2="355.5"/>
<path class="st2" d="M304.1,318.5h-33.8c-5.5,0-10,4.1-10,9v13.9c0,5,4.5,9,10,9l0,0l0.3,14l10.7-14h22.8c5.5,0,10-4.1,10-9v-13.9
	C314.1,322.5,309.6,318.5,304.1,318.5z"/>
<path class="st3" d="M291.3,326h27.8c4.5,0,8.2,3.3,8.2,7.5v11.4c0,4.1-3.7,7.5-8.2,7.5l0,0l-0.2,11.5l-8.8-11.5h-18.7
	c-4.6,0-8.2-3.3-8.2-7.5v-11.4C283.1,329.4,286.8,326,291.3,326z"/>
<path class="st4" d="M299.6,339.1c0-1.6-1.2-3.1-2.8-3.1l0,0c-1.7-0.1-3,1.1-3.1,2.7c0,1.6,1.2,3.1,2.8,3.1l0,0h0.1
	C298.2,341.9,299.5,340.7,299.6,339.1z"/>
<ellipse class="st4" cx="306" cy="339.1" rx="3" ry="2.7"/>
<ellipse class="st4" cx="315.6" cy="339.1" rx="3" ry="2.7"/>
<line class="st1" x1="220.9" y1="364.7" x2="220.9" y2="362.8"/>
<rect x="177.9" y="257.2" class="st2" width="59.7" height="31.5"/>
<polygon class="st2" points="177.9,288.8 207.3,264.2 237.6,288.8 "/>
<polygon class="st2" points="177.9,257.2 207.7,273 237.6,257.2 "/>
<line class="st1" x1="177.9" y1="284.7" x2="177.9" y2="282.9"/>
<path class="st2" d="M316.1,201.4c-5.2-9.6-16.2-16.2-28.9-16.2c-15,0-27.6,9.2-31.1,21.5c-0.6,0-1-0.1-1.6-0.1
	c-11.1,0-20.1,7.9-20.1,17.8c0,9,7.6,16.4,17.4,17.5v0.2h60.4c12.8,0,23.1-9.2,23.1-20.5C335.3,211.4,327,203.1,316.1,201.4z"/>
<path class="st5" d="M247.9,573.3c0,0-1.2-0.1-3.3-0.2"/>
<path class="st3" d="M591.1,359L591.1,359c-2.4-0.3-4.6,1.2-5,3.6l-22.9,159.9l14.9,1.5l17.1-160.4
	C595.2,361.1,593.4,359.1,591.1,359L591.1,359L591.1,359z"/>
<path class="st3" d="M361.1,359L361.1,359c2.4-0.3,4.6,1.2,5,3.6L389,522.5l-14.9,1.5l-17.1-160.4
	C356.9,361.1,358.7,359.1,361.1,359L361.1,359L361.1,359z"/>
<path class="st2" d="M382.8,519.2h236.6c1.9-0.1,3.4,1.4,3.5,3.3l0,0v76.7c0,1.9-1.6,3.4-3.5,3.3l0,0H382.8
	c-1.9,0.1-3.4-1.4-3.5-3.3l0,0v-76.7C379.3,520.7,380.8,519.1,382.8,519.2C382.6,519.2,382.8,519.2,382.8,519.2z"/>
<path class="st2" d="M377.3,529.5h247.6c1.7,0,3.1,1.2,3.1,3.1l0,0v56.6c0,1.7-1.5,3.1-3.1,3.1H377.3c-1.7,0-3.1-1.4-3.1-3.1v-56.6
	C374.1,530.8,375.5,529.4,377.3,529.5L377.3,529.5z"/>
<path class="st2" d="M255,519.2h236.6c1.9-0.1,3.4,1.4,3.5,3.3c0,0,0,0,0,0.1v76.7c0,1.9-1.6,3.4-3.5,3.3c0,0,0,0-0.1,0H255
	c-1.9,0.1-3.4-1.4-3.5-3.3l0,0v-76.7C251.5,520.7,253.1,519.1,255,519.2C254.9,519.2,255,519.2,255,519.2z"/>
<path class="st2" d="M249.5,529.5h247.6c1.7,0,3.1,1.2,3.1,3.1l0,0v56.6c0,1.7-1.5,3.1-3.1,3.1H249.5c-1.7,0-3.1-1.4-3.1-3.1v-56.6
	C246.3,530.8,247.8,529.4,249.5,529.5z"/>
<path class="st3" d="M271.5,543.2h205.8c2,0,3.7,1.6,3.8,3.6v26.5c0,2-1.8,3.7-3.8,3.6H271.5c-2,0-3.7-1.6-3.8-3.6v-26.5
	C267.6,544.8,269.4,543.2,271.5,543.2L271.5,543.2z"/>
<path class="st6" d="M279.5,551.3c-3.6,1.1-6.1,4.5-6.2,8.4c0,5,4.5,8.9,9.9,8.9c5.4,0,9.9-4,9.9-8.9c-0.1-3.7-2.6-7-6.1-8.3"/>
<line class="st6" x1="283.4" y1="547.9" x2="283.4" y2="554.5"/>
<path class="st2" d="M398.8,569.4c0,0-9.6,2.7-11.7,3.1s-8.3-1.1-8.5,1.1c-0.2,2.3,3.6,4.2,9.6,6.3c6.1,2.1,12.7,4,17.2,3.8
	c4.5-0.1,3.6-8.3,3.9-9.6C409.7,572.8,398.8,569.4,398.8,569.4z"/>
<path class="st2" d="M391.4,578c-7.6-2.8-11.1-4.3-12.6-5c-0.1,0.1-0.2,0.3-0.2,0.6c-0.2,2.3,3.6,4.2,9.6,6.3
	c6.1,2.1,12.7,4,17.2,3.8c1.6-0.1,2.8-1.2,3.1-2.7C402.7,581.2,396.9,580.2,391.4,578z"/>
<path class="st7" d="M457.4,487.6l-2.5,1.2v3.3c0,0-52.6,7.9-53.3,12.1c-0.7,4.2-2.8,65.9-2.8,65.9s8.5,8.3,10.3,6.4
	c1.8-1.8,2.2-7.9,2.2-7.9l8.8-54.7c0,0,59.3,5,68.3,2.4s13.4-13.3,13.6-18.3s0.2-7.2,0.2-7.2l-40.4-5L457.4,487.6z"/>
<path class="st2" d="M439.4,571.7l-0.3,0.6c-1.9,2.8-4.2,5.4-6.5,7.7c-3.9,3.7-10.3,6.9-10.1,8.1c0.2,1.2,4.6,2,19.5-2
	c6.7-1.8,11.7-1.8,12.3-4c0.7-2.1-4.8-11-4.8-11L439.4,571.7z"/>
<path class="st2" d="M454.4,582.1c0.1-1-0.1-2-0.6-2.9c-5,2.1-10.3,4-15.7,5.2c-4.9,1.2-9.9,2.1-14.9,2.7c-0.4,0.5-0.8,0.8-0.8,1.1
	c0.2,1.2,4.6,2,19.5-2C448.7,584.1,453.7,584.1,454.4,582.1z"/>
<path class="st7" d="M471.8,496.5c0,0-5.5-4.3-5.9-1.8c-0.4,2.5-1.3,3.2-1.3,3.2s-38.6,4.2-42.9,6.7c-4.3,2.5-5.7,5.8-3.3,10.7
	c2.5,5,19.5,59.6,19.5,59.6c1.8,0.7,3.6,1.2,5.5,1.7c2.5,0.5,7.9-1.8,7.9-1.8s-0.7-10.2-2.2-13.5c-1.6-3.3-8.2-41.6-8.2-41.6
	s27.8,0.1,37.2,0.1s19.7-7,21.8-12.9s1.1-7,1.1-7"/>
<line class="st1" x1="440.8" y1="519.5" x2="439.4" y2="512.9"/>
<path class="st1" d="M484.6,505.7c0.7,0.9,1.3,1.9,1.8,3.1"/>
<path class="st1" d="M474.1,498.5c3.4,1.2,6.4,3.2,9,5.5"/>
<path class="st1" d="M482.8,499.7c3.5,1.4,6.4,3.8,8.4,7"/>
<path class="st2" d="M457.9,436.7c0,0,0,0.3,0,0.8c-0.2,2.9-3.8,7.3-1.7,12.8c4.8,12.4,3.9,21.6,3.5,18.9c0.7,4.2-3.5,13.1-3.5,15.9
	c0,2.8-8.5,3.4,10.8,8.5c19.3,5.1,25.9,5,30.7,3.3c4.8-1.7,8.3-3.2,8.8-6.7c0.4-3.5-3.7-9.7-3.9-15.2c-0.2-5.4-1-22.3-6.7-33.1
	c-5.7-10.9-20.9-18.3-20.9-18.3L457.9,436.7z"/>
<path class="st1" d="M488.2,477.4c1-0.7,1.9-1.4,2.8-2.1"/>
<path class="st1" d="M464,489.7c7.1-2.8,13.9-6.1,20.5-10"/>
<path class="st1" d="M471.4,488.4c-2.7,1.2-5.6,2.3-8.5,2.9"/>
<path class="st1" d="M475.1,486.5c0,0-0.7,0.3-1.7,0.9"/>
<line class="st1" x1="478.2" y1="459.2" x2="484.4" y2="452.3"/>
<path class="st2" d="M455.8,390.5c-1.6,1.5-2.9,3.1-4.2,4.7c-1,1.8-1.1,3.1-2.9,4.2c-1.8,1.1-5.3,0.5-5.2,2.3
	c0.1,1.8,2.2,3.6,2.2,3.6s-1.7,11.3-1.1,13s9.5,2.1,9.5,2.1l4.6,13.3l16-9.8l0.4-4c0.4-1.6,3.3-6.4,5.6-10.2
	c2.4-3.7,1.3-13.3-4.5-17.5c-5.8-4.2-13.4-3.7-15.7-3.8C458.4,388.4,455.8,390.5,455.8,390.5z"/>
<path class="st1" d="M446.9,407.7c1.6,1.5,3.9,1.9,5.9,1.2"/>
<path class="st0" d="M453.8,401c-0.3,0.8-1,1.4-1.3,1.2s-0.3-0.9,0-1.7s1-1.4,1.3-1.2C454.1,399.4,454.1,400,453.8,401z"/>
<path class="st1" d="M453.1,396.9c0,0,3.5-0.7,3.9,2.5"/>
<polygon class="st3" points="454.3,420.6 459.8,420.5 456,424.7 "/>
<polyline class="st1" points="467,415.4 464.5,414.9 463.1,416.9 "/>
<path class="st3" d="M465.7,385.7c0,0,3.5-3.6-0.7-5.3s-18.3,1.4-16.8,7c1.5,5.7,14.7,6.3,16,6.4c1.3,0.1-2.5,1.2-1.6,3.1
	c0.9,1.8,3.6,2.6,3.7,4.4c0.1,1.8-2.4,4.3-1.1,5.4c1.2,1.1,3-0.6,4.3-0.9c1.2-0.3,4.5,2.6,1.9,6.3s-4.4,3.4-4.4,3.4
	c-0.7,1.5-0.1,3.2,1.2,4.1c2.2,1.8,7.1,1.2,8.2-0.5c1.1-1.7,3.3-3.3,7.5-7.1s6.3-13.3,3.4-19.9C484.4,385.6,470.9,382.7,465.7,385.7
	z"/>
<polygon class="st2" points="474.9,420.7 453,435.2 454.2,441.5 478.9,425.1 "/>
<polygon class="st2" points="420.2,505.7 458.8,498.1 449.8,493.2 413.3,500.6 "/>
<polygon class="st3" points="403.1,472.6 420.2,505.7 413.3,500.6 395.8,469.6 "/>
<path class="st2" d="M434.1,491.6l-8.9,2.1l-5.5,7.2c0.4,0.5,1.1,0.6,1.7,0.6c1.2-0.6,2.4-1.2,3.4-2l6.4-1.6c0,0-3.4,1.8-3.4,2.1
	s0.6,0.6,2.1,0.5c1.6-0.1,5.2-3.2,5.2-3.2l2.5-2.8L434.1,491.6z"/>
<polygon class="st2" points="458,455.6 453.5,474.3 434.1,491.6 438.7,495.5 454.9,488.8 455.9,486.2 459.8,470.5 "/>
<path class="st2" d="M428.8,487.8c0,0-6.2,0.8-8.4,0.8s-7.9,0.5-8.8,0.8c-0.9,0.3-5.3,2.9-5,4.7c0.2,1.8,4.2,0.2,4.2,0.2
	c0.8,1.7,1.8,3.3,3,4.7c1.8,2.3,2.8,1.5,6.4,0.2c3.3-1.4,6.3-3.1,9.2-5l3.3-2.7L428.8,487.8z"/>
<path class="st2" d="M482.6,429.4c0,0-9.4-1.2-12.9,2.9c-3.5,4.2-6.8,11.4-7.6,16.8s-5,16.2-5,16.2l-29.2,21.9l5,6.9
	c0,0,35.3-14.9,36.3-15.9s12.6-28.5,12.6-28.5"/>
</svg>
