<svg id="Layer_2" data-name="Layer 2" xmlns="http://www.w3.org/2000/svg" viewBox="0 0 645.03 636.82"><polygon points="140.07 296.45 154.88 334.51 145.68 334.47 138.3 311.08 140.07 296.45" fill="#e1e1e1"/><polygon points="89.5 261.29 84.41 334.21 136.97 335.31 142.88 261.29 89.5 261.29" fill="#ececec"/><polygon points="94.76 267.16 90.52 327.86 129.59 329.7 135.05 266.8 94.76 267.16" fill="#fafafa"/><polygon points="103.33 275.74 100.16 318.41 121.72 318.41 125.52 275.74 103.33 275.74" fill="#e1e1e1"/><path d="M744.55,628.37c-25.87-14-54.93-39.59-66.24-68.62,28,14.48,51.52,38.89,66.24,68.62" transform="translate(-216.04 -85.33)" fill="#ff735d"/><path d="M742.86,584.83c-25.86-14-54.93-39.59-66.24-68.62,28,14.48,51.52,38.89,66.24,68.62" transform="translate(-216.04 -85.33)" fill="#ff735d"/><path d="M739,542.27c-25.86-14-54.92-39.6-66.23-68.62,28,14.48,51.52,38.89,66.23,68.62" transform="translate(-216.04 -85.33)" fill="#ff735d"/><path d="M733.34,497.56c-24-17.56-49.81-47-57.6-77.36,26,18.29,46.5,45.81,57.6,77.36" transform="translate(-216.04 -85.33)" fill="#ff735d"/><path d="M726.05,463.07C709.81,437,696,399.14,699.13,367.78c17.86,27.6,27.43,61.49,26.92,95.29" transform="translate(-216.04 -85.33)" fill="#ff735d"/><path d="M729.73,479.49c6.83-32.55,23.46-72.71,47.41-95.33a202.22,202.22,0,0,1-47.41,95.33" transform="translate(-216.04 -85.33)" fill="#ff735d"/><path d="M735.05,516.3c9.78-33.3,30.39-73.67,57.19-95.13a209.89,209.89,0,0,1-57.19,95.13" transform="translate(-216.04 -85.33)" fill="#ff735d"/><path d="M740.93,561.14c9.78-33.3,30.39-73.67,57.19-95.14a209.87,209.87,0,0,1-57.19,95.14" transform="translate(-216.04 -85.33)" fill="#ff735d"/><path d="M743.89,615.78c9.78-33.3,30.39-73.67,57.19-95.13a209.89,209.89,0,0,1-57.19,95.13" transform="translate(-216.04 -85.33)" fill="#ff735d"/><path d="M725.4,456.5a3.19,3.19,0,0,1,.16.53c.09.41.22.93.37,1.56q.47,2.21,1.31,6.05c1.14,5.25,2.63,12.88,4.33,22.34s3.52,20.76,5.29,33.34,3.37,26.47,4.72,41.07,2.21,28.57,2.81,41.26.82,24.14.85,33.76,0,17.38-.2,22.75q-.12,3.95-.19,6.19c0,.65-.06,1.18-.08,1.61a1.88,1.88,0,0,1-.06.54,2.07,2.07,0,0,1,0-.55c0-.42,0-1,0-1.6,0-1.5,0-3.57,0-6.19,0-5.37,0-13.14-.14-22.75s-.48-21-1.08-33.71-1.56-26.61-2.88-41.21-3-28.45-4.64-41-3.43-23.88-5.06-33.35-3-17.11-4-22.39q-.72-3.87-1.12-6.08l-.27-1.59A2.06,2.06,0,0,1,725.4,456.5Z" transform="translate(-216.04 -85.33)" fill="#1a2e35"/><g opacity="0.3"><path d="M744.55,628.37c-25.87-14-54.93-39.59-66.24-68.62,28,14.48,51.52,38.89,66.24,68.62" transform="translate(-216.04 -85.33)"/></g><g opacity="0.3"><path d="M742.86,584.83c-25.86-14-54.93-39.59-66.24-68.62,28,14.48,51.52,38.89,66.24,68.62" transform="translate(-216.04 -85.33)"/></g><g opacity="0.3"><path d="M739,542.27c-25.86-14-54.92-39.6-66.23-68.62,28,14.48,51.52,38.89,66.23,68.62" transform="translate(-216.04 -85.33)"/></g><g opacity="0.3"><path d="M733.34,497.56c-24-17.56-49.81-47-57.6-77.36,26,18.29,46.5,45.81,57.6,77.36" transform="translate(-216.04 -85.33)"/></g><g opacity="0.3"><path d="M726.05,463.07C709.81,437,696,399.14,699.13,367.78c17.86,27.6,27.43,61.49,26.92,95.29" transform="translate(-216.04 -85.33)"/></g><g opacity="0.3"><path d="M729.73,479.49c6.83-32.55,23.46-72.71,47.41-95.33a202.22,202.22,0,0,1-47.41,95.33" transform="translate(-216.04 -85.33)"/></g><g opacity="0.3"><path d="M735.05,516.3c9.78-33.3,30.39-73.67,57.19-95.13a209.89,209.89,0,0,1-57.19,95.13" transform="translate(-216.04 -85.33)"/></g><g opacity="0.3"><path d="M740.93,561.14c9.78-33.3,30.39-73.67,57.19-95.14a209.87,209.87,0,0,1-57.19,95.14" transform="translate(-216.04 -85.33)"/></g><g opacity="0.3"><path d="M743.89,615.78c9.78-33.3,30.39-73.67,57.19-95.13a209.89,209.89,0,0,1-57.19,95.13" transform="translate(-216.04 -85.33)"/></g><path d="M751.08,637.17c-15.73-20.87-30.39-51.75-30.18-78.26a147.07,147.07,0,0,1,30.18,78.26" transform="translate(-216.04 -85.33)" fill="#ff735d"/><path d="M763.25,603.43c-15.73-20.87-30.39-51.75-30.18-78.27a147.13,147.13,0,0,1,30.18,78.27" transform="translate(-216.04 -85.33)" fill="#ff735d"/><path d="M773.43,569.57c-15.74-20.87-30.39-51.75-30.19-78.26a147.08,147.08,0,0,1,30.19,78.26" transform="translate(-216.04 -85.33)" fill="#ff735d"/><path d="M782.88,533.38c-13.2-22.81-24.13-55.35-20.78-81.5a148.28,148.28,0,0,1,20.78,81.5" transform="translate(-216.04 -85.33)" fill="#ff735d"/><path d="M787.89,504.3c-4.53-26.22-3.57-60.44,8.6-83,5.32,28,2.27,57.54-8.6,83" transform="translate(-216.04 -85.33)" fill="#ff735d"/><path d="M785.67,518.22c15.38-22,40.72-46,66.32-53.7a146.79,146.79,0,0,1-66.32,53.7" transform="translate(-216.04 -85.33)" fill="#ff735d"/><path d="M778.41,548.29c17.9-21.43,46.4-44,73.85-49.7a152.71,152.71,0,0,1-73.85,49.7" transform="translate(-216.04 -85.33)" fill="#ff735d"/><path d="M769.09,584.67c17.9-21.43,46.4-44,73.86-49.7a152.7,152.7,0,0,1-73.86,49.7" transform="translate(-216.04 -85.33)" fill="#ff735d"/><path d="M754.47,627.35c17.91-21.44,46.41-44,73.86-49.7a152.7,152.7,0,0,1-73.86,49.7" transform="translate(-216.04 -85.33)" fill="#ff735d"/><path d="M789.42,499.06a1.28,1.28,0,0,1,0,.45c0,.36-.12.79-.19,1.32-.21,1.24-.48,2.92-.83,5.05-.73,4.39-1.92,10.72-3.51,18.51-3.17,15.59-8.21,37-15.16,60.26-3.5,11.62-7.13,22.61-10.6,32.53s-6.87,18.77-9.85,26.14-5.45,13.31-7.27,17.37c-.88,2-1.58,3.52-2.09,4.67l-.57,1.2a1.76,1.76,0,0,1-.22.4,1.41,1.41,0,0,1,.13-.44c.13-.33.28-.74.48-1.24l1.92-4.74c1.7-4.11,4.1-10.07,7-17.48s6.16-16.27,9.64-26.18,7-20.91,10.51-32.52c6.94-23.22,12.08-44.58,15.43-60.11,1.68-7.77,3-14.07,3.81-18.44.42-2.11.76-3.79,1-5,.12-.52.21-1,.29-1.3S789.4,499.05,789.42,499.06Z" transform="translate(-216.04 -85.33)" fill="#1a2e35"/><polygon points="559.72 636.82 504.42 636.82 494.1 560.26 570.32 560.26 559.72 636.82" fill="#375a64"/><rect x="487.25" y="559.48" width="89.92" height="11.9" fill="#375a64"/><path d="M793.21,656.92c0,.22-19.9.4-44.44.4s-44.45-.18-44.45-.4,19.89-.39,44.45-.39S793.21,656.7,793.21,656.92Z" transform="translate(-216.04 -85.33)" fill="#1a2e35"/><rect x="169.44" width="319.65" height="635.82" rx="25.34" fill="#375a64"/><rect x="232.45" y="248.45" width="625.7" height="309.57" rx="22.23" transform="translate(732.51 -227.39) rotate(90)" fill="#1a2e35"/><path d="M522.34,110.43a3.57,3.57,0,0,1,0-7.14h45.72a3.57,3.57,0,0,1,0,7.14Z" transform="translate(-216.04 -85.33)" fill="#375a64"/><path d="M497.83,110.43a3.57,3.57,0,1,1,3.56-3.57A3.56,3.56,0,0,1,497.83,110.43Z" transform="translate(-216.04 -85.33)" fill="#375a64"/><path d="M510.92,110.43a3.57,3.57,0,1,1,3.55-3.57A3.57,3.57,0,0,1,510.92,110.43Z" transform="translate(-216.04 -85.33)" fill="#375a64"/><path d="M592.77,110.43a3.57,3.57,0,1,1,3.55-3.57A3.57,3.57,0,0,1,592.77,110.43Z" transform="translate(-216.04 -85.33)" fill="#375a64"/><path d="M579.69,110.43a3.57,3.57,0,1,1,3.55-3.57A3.57,3.57,0,0,1,579.69,110.43Z" transform="translate(-216.04 -85.33)" fill="#375a64"/><path d="M670.92,94.68H615.59a9.38,9.38,0,0,0-9,6.8l-3.52,12.18A10.51,10.51,0,0,1,593,121.27H497.63a10.52,10.52,0,0,1-10.09-7.61L484,101.48a9.38,9.38,0,0,0-9-6.8H432a34.34,34.34,0,0,0-34.26,34.42V684.4a23.2,23.2,0,0,0,23.15,23.26H672.55a20.38,20.38,0,0,0,20.33-20.43V116.74A22,22,0,0,0,670.92,94.68Z" transform="translate(-216.04 -85.33)" fill="#fafafa"/><path d="M683,104.93a34.09,34.09,0,0,0-24.38-10.25H608.54l-7.68,26.59H489.74l-7.68-26.59H420.11a22.44,22.44,0,0,0-22.39,22.49V519.24l.87.1c28.77,3.14,56.76-15,72.56-39.39S492.52,426,495.3,397.09s3.12-58.28,9.89-86.54a195.9,195.9,0,0,1,82-116.86c20.08-13.18,42.55-22.58,61.69-37.1C665.69,143.82,680.18,125.54,683,104.93Z" transform="translate(-216.04 -85.33)" fill="#f5f5f5"/><path d="M692.88,693.72V515.81c-45.44,4.62-88,32.26-110.8,72-20.6,35.84-24.68,80.7-11.52,119.85H679A13.91,13.91,0,0,0,692.88,693.72Z" transform="translate(-216.04 -85.33)" fill="#f5f5f5"/><path d="M706.18,223.53h1a0,0,0,0,1,0,0V296.6a0,0,0,0,1,0,0h-1a1.07,1.07,0,0,1-1.07-1.07V224.59A1.07,1.07,0,0,1,706.18,223.53Z" transform="translate(1196.29 434.8) rotate(180)" fill="#375a64"/><path d="M168.33,183.23h1.11a0,0,0,0,1,0,0V229.5a0,0,0,0,1,0,0h-1.11a1.07,1.07,0,0,1-1.07-1.07V184.3A1.07,1.07,0,0,1,168.33,183.23Z" fill="#375a64"/><path d="M168.33,122.79h1.11a0,0,0,0,1,0,0v46.27a0,0,0,0,1,0,0h-1.11a1.07,1.07,0,0,1-1.07-1.07V123.85A1.07,1.07,0,0,1,168.33,122.79Z" fill="#375a64"/><path d="M168.52,77.41h.93a0,0,0,0,1,0,0V98.93a0,0,0,0,1,0,0h-.93a.95.95,0,0,1-.95-.95V78.36A.95.95,0,0,1,168.52,77.41Z" fill="#375a64"/><rect x="405.19" y="30.04" width="2.19" height="3.09" fill="#1a2e35"/><rect x="408.77" y="28.66" width="2.19" height="4.47" fill="#1a2e35"/><rect x="412.34" y="27.63" width="2.19" height="5.5" fill="#1a2e35"/><rect x="415.91" y="25.63" width="2.19" height="7.5" fill="#1a2e35"/><path d="M666.56,118.62h-11a.79.79,0,0,1-.79-.8v-5.5a.78.78,0,0,1,.78-.79h11a.2.2,0,0,1,.14.06.18.18,0,0,1,.06.14v1.81h1.18a.2.2,0,0,1,.2.21v2.65a.2.2,0,0,1-.2.2h-1.18v1.81A.2.2,0,0,1,666.56,118.62Zm-.2-6.69H655.53a.38.38,0,0,0-.38.39v5.5a.39.39,0,0,0,.39.39h10.82V116.4a.21.21,0,0,1,.2-.21h1.18V114h-1.18a.2.2,0,0,1-.2-.2Z" transform="translate(-216.04 -85.33)" fill="#1a2e35"/><polygon points="440.01 31.97 440.01 27.5 449.42 27.5 449.42 29.52 449.42 29.96 449.42 31.97 440.01 31.97" fill="#1a2e35"/><path d="M644.65,118.19a.81.81,0,1,0-.8.81A.81.81,0,0,0,644.65,118.19Z" transform="translate(-216.04 -85.33)" fill="#1a2e35"/><path d="M641.1,116.24l1,1a2.41,2.41,0,0,1,3.44,0l1-1a3.87,3.87,0,0,0-5.49,0Z" transform="translate(-216.04 -85.33)" fill="#1a2e35"/><path d="M643.85,112.8a6.12,6.12,0,0,0-4.37,1.82l1,1a4.71,4.71,0,0,1,6.68,0l1-1A6.11,6.11,0,0,0,643.85,112.8Z" transform="translate(-216.04 -85.33)" fill="#1a2e35"/><path d="M637.81,112.94l1,1a7,7,0,0,1,10,0l1-1a8.5,8.5,0,0,0-12.08,0Z" transform="translate(-216.04 -85.33)" fill="#1a2e35"/><ellipse cx="362.62" cy="248.65" rx="38.99" ry="39.16" fill="#f5f5f5"/><path d="M441,255.6c0-10,5.2-15.89,12.4-15.89s12.44,5.93,12.44,15.89-5.24,15.89-12.44,15.89S441,265.55,441,255.6Zm21.56,0c0-8.35-3.74-12.95-9.16-12.95s-9.15,4.6-9.15,12.95,3.73,12.94,9.15,12.94S462.54,263.94,462.54,255.6Z" transform="translate(-216.04 -85.33)" fill="#1a2e35"/><path d="M492.84,255.33c0,10.62-5.78,16.16-14.22,16.16a14.23,14.23,0,0,1-7.37-1.7l1.28-2.59a10.9,10.9,0,0,0,6.05,1.47c6.71,0,11-4.33,11-12.81,0-.71-.05-1.6-.14-2.54-1.55,3.44-5.19,5.36-9.5,5.36-6.18,0-10.49-3.67-10.49-9.38s4.58-9.59,10.62-9.59C488.35,239.71,492.84,245.46,492.84,255.33Zm-4.4-6.21c0-3.43-2.84-6.69-8.22-6.69-4.49,0-7.6,2.63-7.6,6.78s3,6.74,7.82,6.74S488.44,253,488.44,249.12Z" transform="translate(-216.04 -85.33)" fill="#1a2e35"/><path d="M497.51,250a2.36,2.36,0,0,1,2.35-2.41,2.4,2.4,0,0,1,2.4,2.41,2.44,2.44,0,0,1-2.4,2.46A2.4,2.4,0,0,1,497.51,250Zm0,19a2.35,2.35,0,0,1,2.35-2.41,2.39,2.39,0,0,1,2.4,2.41,2.43,2.43,0,0,1-2.4,2.45A2.4,2.4,0,0,1,497.51,269Z" transform="translate(-216.04 -85.33)" fill="#1a2e35"/><path d="M506.88,255.6c0-10,5.2-15.89,12.4-15.89s12.44,5.93,12.44,15.89-5.24,15.89-12.44,15.89S506.88,265.55,506.88,255.6Zm21.56,0c0-8.35-3.74-12.95-9.16-12.95s-9.15,4.6-9.15,12.95,3.73,12.94,9.15,12.94S528.44,263.94,528.44,255.6Z" transform="translate(-216.04 -85.33)" fill="#1a2e35"/><path d="M536.3,255.6c0-10,5.2-15.89,12.4-15.89s12.44,5.93,12.44,15.89-5.24,15.89-12.44,15.89S536.3,265.55,536.3,255.6Zm21.55,0c0-8.35-3.73-12.95-9.15-12.95s-9.15,4.6-9.15,12.95,3.73,12.94,9.15,12.94S557.85,263.94,557.85,255.6Z" transform="translate(-216.04 -85.33)" fill="#1a2e35"/><path d="M648.63,203.82H448.32a20,20,0,0,1-19.92-20h0a20,20,0,0,1,19.92-20H648.63a20,20,0,0,1,19.92,20h0A20,20,0,0,1,648.63,203.82Z" transform="translate(-216.04 -85.33)" fill="#e1e1e1"/><path d="M643.44,191.44a7.64,7.64,0,1,1,7.6-7.64A7.63,7.63,0,0,1,643.44,191.44Zm0-13.75a6.12,6.12,0,1,0,6.08,6.11A6.11,6.11,0,0,0,643.44,177.69Z" transform="translate(-216.04 -85.33)" fill="#1a2e35"/><path d="M653.64,193.42a.73.73,0,0,1-.5-.19l-5-4.39a.76.76,0,0,1-.07-1.08.75.75,0,0,1,1.07-.07l5,4.39a.77.77,0,0,1,.07,1.08A.76.76,0,0,1,653.64,193.42Z" transform="translate(-216.04 -85.33)" fill="#1a2e35"/><path d="M642.28,268.07a12,12,0,0,0,1.6-.07,8.38,8.38,0,0,0,4.11-1.8,8.12,8.12,0,0,0,2.07-2.47,7.53,7.53,0,0,0,.67-1.7,7.77,7.77,0,0,0,.23-1.95,9.52,9.52,0,0,0-.31-2.08,9.19,9.19,0,0,0-.88-2.05,8,8,0,0,0-3.47-3.19l-.08,0v-.09a5.91,5.91,0,0,0-3.18-5.39,5.82,5.82,0,0,0-6.61,1.11l-.19.19-.06-.27a11.1,11.1,0,0,0-6.78-7.8,11,11,0,0,0-2.75-.69,5.49,5.49,0,0,0-.7,0c-.23,0-.47,0-.7,0a9.11,9.11,0,0,0-1.38.16,10.39,10.39,0,0,0-4.83,2.33,11.8,11.8,0,0,0-3.08,4.12,10.51,10.51,0,0,0-.91,4.75v.18l-.17,0a8,8,0,0,0-5.34.63,9.31,9.31,0,0,0-2.12,1.44,9.52,9.52,0,0,0-1.52,1.87,7.81,7.81,0,0,0-.84,2.11,7,7,0,0,0-.15,2.12A8.2,8.2,0,0,0,606,263a8.57,8.57,0,0,0,3.81,3.55,11.3,11.3,0,0,0,1.79.59l-.12,0-.36-.07a3.57,3.57,0,0,1-.57-.14,6.21,6.21,0,0,1-.77-.28A8.54,8.54,0,0,1,605.9,263a8.45,8.45,0,0,1-1.16-3.63,7,7,0,0,1,.14-2.17,7.82,7.82,0,0,1,.85-2.18,9.12,9.12,0,0,1,1.56-1.93,9.52,9.52,0,0,1,2.16-1.49A8.19,8.19,0,0,1,615,251l-.17.14a10.81,10.81,0,0,1,.92-4.89,12.14,12.14,0,0,1,3.16-4.22,10.63,10.63,0,0,1,5-2.41,9.8,9.8,0,0,1,1.42-.16c.24,0,.48,0,.72,0a5.81,5.81,0,0,1,.72.05,11.19,11.19,0,0,1,2.83.71,11.42,11.42,0,0,1,7,8l-.25-.08a6.11,6.11,0,0,1,6.95-1.15,6.19,6.19,0,0,1,3.3,5.65l-.07-.12a8.18,8.18,0,0,1,3.56,3.31,9.32,9.32,0,0,1,.89,2.1,8.42,8.42,0,0,1,.3,2.13,7.74,7.74,0,0,1-.24,2,7.47,7.47,0,0,1-.71,1.74,8.12,8.12,0,0,1-2.13,2.49,8.32,8.32,0,0,1-4.19,1.77,6.37,6.37,0,0,1-1.2,0Z" transform="translate(-216.04 -85.33)" fill="#1a2e35"/><path d="M643.05,268.89l-.44,0-.44,0a.79.79,0,0,1-.61-.53.76.76,0,0,1,.19-.78.92.92,0,0,1,.71-.22,6.93,6.93,0,0,0,1.33-.06,7.58,7.58,0,0,0,3.72-1.64,7.27,7.27,0,0,0,1.88-2.23,6.31,6.31,0,0,0,.81-3.28,8,8,0,0,0-.28-1.88,8.37,8.37,0,0,0-.8-1.87,7.22,7.22,0,0,0-3.13-2.88.87.87,0,0,1-.52-.77,5.19,5.19,0,0,0-2.76-4.76,5.09,5.09,0,0,0-5.73,1l-.19.2a.75.75,0,0,1-.75.19.77.77,0,0,1-.53-.57l-.06-.27a10.36,10.36,0,0,0-6.32-7.25,9.72,9.72,0,0,0-2.54-.64c-.24,0-.44,0-.63-.05h-.28a2.64,2.64,0,0,0-.4,0l-.33,0a5.28,5.28,0,0,0-.89.11,9.56,9.56,0,0,0-4.52,2.18,11.13,11.13,0,0,0-2.88,3.84,9.67,9.67,0,0,0-.84,4.4v.18a.8.8,0,0,1-.27.63.74.74,0,0,1-.67.15l-.18,0a7.14,7.14,0,0,0-4.82.58,8.42,8.42,0,0,0-1.94,1.32,8.66,8.66,0,0,0-1.39,1.71,7.07,7.07,0,0,0-.74,1.87,6.26,6.26,0,0,0-.14,1.87,7.49,7.49,0,0,0,1,3.25,7.78,7.78,0,0,0,3.48,3.24,7,7,0,0,0,1.48.49.88.88,0,0,1,.64.4.76.76,0,0,1,.09.59.89.89,0,0,1-1,.54l-.36-.07a3.89,3.89,0,0,1-.71-.18l-.17-.05a3.61,3.61,0,0,1-.67-.27,9.21,9.21,0,0,1-4.24-3.83,9.35,9.35,0,0,1-1.26-4,8.34,8.34,0,0,1,.15-2.38,8.72,8.72,0,0,1,.94-2.4,10,10,0,0,1,1.69-2.12,10.55,10.55,0,0,1,2.35-1.61A8.91,8.91,0,0,1,614,250a11.87,11.87,0,0,1,1-4.12,13,13,0,0,1,3.36-4.5,11.46,11.46,0,0,1,5.33-2.58,7.75,7.75,0,0,1,1.13-.14l.35,0h.8a5.69,5.69,0,0,1,.83.06,11.61,11.61,0,0,1,3,.75,12.38,12.38,0,0,1,7.06,7.21,6.84,6.84,0,0,1,6.68-.38,6.94,6.94,0,0,1,3.72,5.78,9.08,9.08,0,0,1,3.39,3.35,10.2,10.2,0,0,1,1,2.28,9.55,9.55,0,0,1,.33,2.32,8.89,8.89,0,0,1-.26,2.21,8,8,0,0,1-.8,1.95,8.73,8.73,0,0,1-2.31,2.7,9,9,0,0,1-4.57,1.92A8.15,8.15,0,0,1,643.05,268.89Z" transform="translate(-216.04 -85.33)" fill="#1a2e35"/><path d="M624.28,262.61a65.06,65.06,0,0,1-4.47,7.47,61.45,61.45,0,0,1,4.47-7.47Z" transform="translate(-216.04 -85.33)" fill="#1a2e35"/><path d="M619.86,270.9a.91.91,0,0,1-.44-.17c-.73-.44-.72-.57,1.84-4.86,2.32-3.87,2.5-3.92,2.83-4a.76.76,0,0,1,.57.09h0a.74.74,0,0,1,.34.47c.09.33.13.51-2.19,4.38C620.85,270.1,620.33,270.9,619.86,270.9Z" transform="translate(-216.04 -85.33)" fill="#1a2e35"/><path d="M631.27,262.61a31.18,31.18,0,0,1-2.1,3.81,33.93,33.93,0,0,1-2.36,3.66,31.18,31.18,0,0,1,2.1-3.81A32.21,32.21,0,0,1,631.27,262.61Z" transform="translate(-216.04 -85.33)" fill="#1a2e35"/><path d="M626.81,270.84a.8.8,0,0,1-.4-.11c-.72-.44-.71-.57,1.85-4.86,2.32-3.87,2.5-3.92,2.82-4a.87.87,0,0,1,.59.09h0c.72.44.71.57-1.85,4.85-2.32,3.88-2.5,3.93-2.83,4Z" transform="translate(-216.04 -85.33)" fill="#1a2e35"/><path d="M638.27,262.61a30.53,30.53,0,0,1-2.11,3.81,32.21,32.21,0,0,1-2.36,3.66,30.53,30.53,0,0,1,2.11-3.81A32.21,32.21,0,0,1,638.27,262.61Z" transform="translate(-216.04 -85.33)" fill="#1a2e35"/><path d="M633.86,270.9a.87.87,0,0,1-.44-.17c-.73-.44-.73-.57,1.84-4.86,2.32-3.87,2.5-3.92,2.82-4a.78.78,0,0,1,.58.09h0a.79.79,0,0,1,.35.47c.08.33.12.51-2.19,4.38C634.85,270.1,634.32,270.9,633.86,270.9Z" transform="translate(-216.04 -85.33)" fill="#1a2e35"/><path d="M616.18,273.08a33.11,33.11,0,0,1-2.11,3.81,32.21,32.21,0,0,1-2.36,3.66,61.45,61.45,0,0,1,4.47-7.47Z" transform="translate(-216.04 -85.33)" fill="#1a2e35"/><path d="M611.71,281.31a.79.79,0,0,1-.39-.11.82.82,0,0,1-.35-.47c-.08-.33-.13-.51,2.19-4.39,2.56-4.27,2.68-4.35,3.4-3.91h0c.72.44.71.57-1.85,4.85-2.32,3.88-2.5,3.92-2.82,4Z" transform="translate(-216.04 -85.33)" fill="#1a2e35"/><path d="M623.17,273.08a32.05,32.05,0,0,1-2.1,3.81,33.93,33.93,0,0,1-2.36,3.66,29.62,29.62,0,0,1,2.1-3.81A32.21,32.21,0,0,1,623.17,273.08Z" transform="translate(-216.04 -85.33)" fill="#1a2e35"/><path d="M618.71,281.31a.75.75,0,0,1-.74-.58c-.08-.33-.13-.51,2.19-4.39,2.56-4.28,2.68-4.35,3.4-3.91h0c.71.44.71.58-1.85,4.85-2.32,3.88-2.5,3.92-2.83,4Z" transform="translate(-216.04 -85.33)" fill="#1a2e35"/><path d="M630.17,273.08a31.36,31.36,0,0,1-2.11,3.81,32.21,32.21,0,0,1-2.36,3.66,30.53,30.53,0,0,1,2.11-3.81A32.21,32.21,0,0,1,630.17,273.08Z" transform="translate(-216.04 -85.33)" fill="#1a2e35"/><path d="M625.71,281.31a.8.8,0,0,1-.4-.11.82.82,0,0,1-.35-.47c-.08-.33-.12-.51,2.2-4.39,2.55-4.27,2.67-4.35,3.4-3.91h0c.72.44.72.57-1.84,4.85-2.33,3.88-2.5,3.92-2.83,4Z" transform="translate(-216.04 -85.33)" fill="#1a2e35"/><path d="M637.48,273.24a31.36,31.36,0,0,1-2.11,3.81A30.45,30.45,0,0,1,633,280.7a31.71,31.71,0,0,1,2.11-3.8A32.21,32.21,0,0,1,637.48,273.24Z" transform="translate(-216.04 -85.33)" fill="#1a2e35"/><path d="M633.06,281.53a.91.91,0,0,1-.44-.17c-.72-.44-.72-.58,1.85-4.86,2.32-3.87,2.49-3.92,2.82-4a.72.72,0,0,1,.57.09h0a.79.79,0,0,1,.35.47c.08.33.12.51-2.2,4.38C634.05,280.73,633.53,281.53,633.06,281.53Z" transform="translate(-216.04 -85.33)" fill="#1a2e35"/><ellipse cx="301.29" cy="499.92" rx="6.43" ry="6.46" fill="#ececec"/><ellipse cx="322.79" cy="499.92" rx="6.43" ry="6.46" fill="#e1e1e1"/><ellipse cx="344.29" cy="499.92" rx="6.43" ry="6.46" fill="#e1e1e1"/><ellipse cx="365.79" cy="499.92" rx="6.43" ry="6.46" fill="#e1e1e1"/><rect x="209.63" y="532.05" width="51.83" height="52.06" rx="9.07" fill="#ff735d"/><rect x="274.23" y="531.57" width="51.83" height="52.06" rx="9.61" fill="#e1e1e1"/><rect x="338.83" y="531.08" width="51.83" height="52.06" rx="10.16" fill="#375a64"/><rect x="403.43" y="532.05" width="51.83" height="52.06" rx="10.28" fill="#1a2e35"/><rect x="209.63" y="419.36" width="51.83" height="52.06" rx="8.99" fill="#375a64"/><rect x="274.23" y="418.87" width="51.83" height="52.06" rx="10.54" fill="#1a2e35"/><rect x="338.83" y="418.39" width="51.83" height="52.06" rx="9.33" fill="#e1e1e1"/><rect x="403.43" y="417.9" width="51.83" height="52.06" rx="10.2" fill="#ff735d"/><path d="M446,521.45a10.25,10.25,0,0,1,2.61-1.14l.54-2.61,4.37-.07.63,2.58a10.24,10.24,0,0,1,2.66,1L459,519.8l3.15,3.05-1.37,2.27a10.88,10.88,0,0,1,1.13,2.63l2.59.54.08,4.4-2.57.63a10.81,10.81,0,0,1-1,2.66l1.44,2.22-3,3.17L457.15,540a10.85,10.85,0,0,1-2.62,1.14l-.54,2.6-4.37.08-.63-2.58a11,11,0,0,1-2.66-1.05l-2.21,1.46L441,538.58l1.37-2.27a10.85,10.85,0,0,1-1.14-2.62l-2.59-.55-.08-4.39,2.57-.63a11.07,11.07,0,0,1,1.05-2.67l-1.45-2.22,3-3.16,2.27,1.38Zm1.46,5.29a5.75,5.75,0,0,0,.15,8.1,5.69,5.69,0,0,0,8.06-.14,5.75,5.75,0,0,0-.15-8.1A5.68,5.68,0,0,0,447.47,526.74Z" transform="translate(-216.04 -85.33)" fill="#fff"/><path d="M568.69,655.08l1.89-7.08A13,13,0,1,1,582,654.76a12.93,12.93,0,0,1-6.19-1.59Zm7.44-4.56.44.27a10.65,10.65,0,1,0-3.62-3.61l.28.45-1.06,4Z" transform="translate(-216.04 -85.33)" fill="#fff"/><path d="M586.65,643.58a2.2,2.2,0,0,0-1.87-.42c-.48.2-.79,1-1.1,1.35a.46.46,0,0,1-.6.13,8.42,8.42,0,0,1-4.21-3.62.53.53,0,0,1,.06-.71,2.92,2.92,0,0,0,.77-1.25,2.73,2.73,0,0,0-.35-1.47,3.46,3.46,0,0,0-1.08-1.65,1.5,1.5,0,0,0-1.61.24,3.31,3.31,0,0,0-1.14,2.61,3.85,3.85,0,0,0,.1.83,7.24,7.24,0,0,0,.79,1.83,13,13,0,0,0,.83,1.26,12.66,12.66,0,0,0,3.58,3.34,10.89,10.89,0,0,0,2.23,1.07,4.93,4.93,0,0,0,2.6.41,3.13,3.13,0,0,0,2.35-1.76,1.48,1.48,0,0,0,.11-.9C588,644.25,587.14,643.88,586.65,643.58Z" transform="translate(-216.04 -85.33)" fill="#fff" fill-rule="evenodd"/><path d="M460.73,646.54c-1-.61-2.34-1.29-3.54-.8-.92.38-1.51,1.83-2.1,2.56a.88.88,0,0,1-1.14.25,16,16,0,0,1-8-6.88,1,1,0,0,1,.12-1.35,5.34,5.34,0,0,0,1.45-2.36,5.24,5.24,0,0,0-.64-2.81c-.49-1-1-2.53-2.07-3.12a2.8,2.8,0,0,0-3.06.46,6.27,6.27,0,0,0-2.16,5,7,7,0,0,0,.19,1.58,13.36,13.36,0,0,0,1.5,3.47,27.49,27.49,0,0,0,1.57,2.4,24.31,24.31,0,0,0,6.8,6.34,20.91,20.91,0,0,0,4.24,2c1.66.55,3.14,1.12,4.94.78a6,6,0,0,0,4.47-3.35,2.84,2.84,0,0,0,.21-1.7C463.26,647.81,461.67,647.11,460.73,646.54Z" transform="translate(-216.04 -85.33)" fill="#fff" fill-rule="evenodd"/><path d="M653.49,635.08A1.52,1.52,0,1,0,655,636.6,1.52,1.52,0,0,0,653.49,635.08Z" transform="translate(-216.04 -85.33)" fill="#fff"/><path d="M646.76,636.59a6.39,6.39,0,1,0,6.36,6.39A6.38,6.38,0,0,0,646.76,636.59Zm0,10.48a4.09,4.09,0,1,1,4.07-4.09A4.09,4.09,0,0,1,646.76,647.07Z" transform="translate(-216.04 -85.33)" fill="#fff"/><path d="M651.8,656.39H641.49a7.79,7.79,0,0,1-7.75-7.8V638.24a7.79,7.79,0,0,1,7.75-7.8H651.8a7.79,7.79,0,0,1,7.76,7.8v10.35A7.79,7.79,0,0,1,651.8,656.39Zm-10.31-23.51a5.35,5.35,0,0,0-5.32,5.36v10.35a5.34,5.34,0,0,0,5.32,5.35H651.8a5.35,5.35,0,0,0,5.33-5.35V638.24a5.35,5.35,0,0,0-5.33-5.36Z" transform="translate(-216.04 -85.33)" fill="#fff"/><path d="M504.71,655.61a1.15,1.15,0,0,1-.82-.34,1.18,1.18,0,0,1,0-1.64l6.16-6.18a10.69,10.69,0,0,1,.77-14.1,10.49,10.49,0,0,1,14.89,0,10.62,10.62,0,0,1,0,15,10.48,10.48,0,0,1-14,.77l-6.16,6.19A1.11,1.11,0,0,1,504.71,655.61Zm13.56-23a8.27,8.27,0,1,0,5.82,14.11,8.27,8.27,0,0,0-5.82-14.11Z" transform="translate(-216.04 -85.33)" fill="#fff"/><path d="M552,286.29c0,.22-24.31.4-54.29.4s-54.31-.18-54.31-.4,24.31-.39,54.31-.39S552,286.07,552,286.29Z" transform="translate(-216.04 -85.33)" fill="#1a2e35"/><path d="M518.43,530a6.41,6.41,0,0,0,3.79-5.92,6,6,0,1,0-11.94-.06,6.4,6.4,0,0,0,3.8,6c-9.18,1.39-8.77,11.41-8.77,11.41l21.73.1S527.53,531.35,518.43,530Z" transform="translate(-216.04 -85.33)" fill="#fff"/><path d="M597.78,538.11a7.33,7.33,0,0,0-1.45-7.77,8.07,8.07,0,0,0-7.93-2.59,8.88,8.88,0,0,0-17.61,1.15,6.68,6.68,0,0,0-5.07,9.06Z" transform="translate(-216.04 -85.33)" fill="#fff"/><path d="M649.84,538.28a2.11,2.11,0,1,1-2.1-2.14A2.11,2.11,0,0,1,649.84,538.28Z" transform="translate(-216.04 -85.33)" fill="#fff"/><path d="M643.51,535.55a5.84,5.84,0,0,1,8.47-.12,1.19,1.19,0,0,0,1.69-1.68,8.25,8.25,0,0,0-11.84.1c-1.05,1.11.62,2.81,1.68,1.7Z" transform="translate(-216.04 -85.33)" fill="#fff"/><path d="M636.33,525.67a17.26,17.26,0,0,1,11.34-4.56,16.81,16.81,0,0,1,11.58,4.45c1.11,1.05,2.8-.63,1.68-1.68a19.19,19.19,0,0,0-13.24-5.15,19.81,19.81,0,0,0-13,5.24c-1.16,1,.52,2.7,1.67,1.7Z" transform="translate(-216.04 -85.33)" fill="#fff"/><path d="M639.16,531.14a11.6,11.6,0,0,1,17.08-.24c1.07,1.1,2.76-.58,1.69-1.68a13.95,13.95,0,0,0-20.44.23c-1,1.12.63,2.82,1.67,1.69Z" transform="translate(-216.04 -85.33)" fill="#fff"/><path d="M338.27,671.7l-.56,31.77s32,11.23,32.42,17.12l-61.35,1.12-1.16-49.53Z" transform="translate(-216.04 -85.33)" fill="#ff735d"/><path d="M318.69,701.14a2.53,2.53,0,0,0-1.68,2.91,2.41,2.41,0,0,0,2.85,1.7,2.66,2.66,0,0,0,1.76-3.09c-.43-1.16-2.08-2-3.16-1.44" transform="translate(-216.04 -85.33)" fill="#e1e1e1"/><path d="M308.78,721.71l.07-5,58.8.79s2.76,1.15,2.48,3.09Z" transform="translate(-216.04 -85.33)" fill="#1a2e35"/><path d="M338.7,703.13c0,.31-1.5.47-3,1.46s-2.22,2.28-2.5,2.16.14-1.86,1.93-3S338.76,702.86,338.7,703.13Z" transform="translate(-216.04 -85.33)" fill="#1a2e35"/><path d="M345.18,705.69c.08.29-1.21.83-2.21,2.12s-1.26,2.64-1.56,2.63-.52-1.7.75-3.29S345.17,705.4,345.18,705.69Z" transform="translate(-216.04 -85.33)" fill="#1a2e35"/><path d="M349,713.36c-.27.07-.72-1.43,0-3.09s2.13-2.34,2.26-2.09-.72,1.14-1.3,2.51S349.27,713.32,349,713.36Z" transform="translate(-216.04 -85.33)" fill="#1a2e35"/><path d="M338,695.88c-.13.28-1.51-.11-3.2,0s-3,.71-3.16.46,1.09-1.36,3.08-1.5S338.17,695.64,338,695.88Z" transform="translate(-216.04 -85.33)" fill="#1a2e35"/><path d="M302.6,654.76l-22,22.87s15.77,30.09,12.13,34.72l-45.69-41.16,32.75-37.05Z" transform="translate(-216.04 -85.33)" fill="#ff735d"/><path d="M268.3,662.92a2.49,2.49,0,0,0-3.2,1,2.43,2.43,0,0,0,.93,3.2,2.65,2.65,0,0,0,3.39-1.06c.47-1.14-.15-2.92-1.35-3.21" transform="translate(-216.04 -85.33)" fill="#e1e1e1"/><path d="M247.09,671.19l3.45-3.6,42.51,40.8s1.24,2.73-.27,4Z" transform="translate(-216.04 -85.33)" fill="#1a2e35"/><path d="M281.6,678.06c-.21.22-1.42-.68-3.16-.95s-3.17.15-3.29-.13,1.36-1.27,3.46-.9S281.83,677.9,281.6,678.06Z" transform="translate(-216.04 -85.33)" fill="#1a2e35"/><path d="M284.61,684.37c-.14.26-1.45-.23-3.05,0s-2.72,1.07-2.93.86.77-1.6,2.77-1.9S284.8,684.15,284.61,684.37Z" transform="translate(-216.04 -85.33)" fill="#1a2e35"/><path d="M282.19,692.58c-.25-.13.44-1.53,2.11-2.24s3.15-.26,3.08,0-1.31.35-2.67.95S282.43,692.76,282.19,692.58Z" transform="translate(-216.04 -85.33)" fill="#1a2e35"/><path d="M286,672.29c-.27.12-1-1.11-2.36-2.16S281,668.6,281,668.3s1.71-.25,3.27,1S286.29,672.22,286,672.29Z" transform="translate(-216.04 -85.33)" fill="#1a2e35"/><path d="M423.58,327.4l-27,17.9.4,7.09,7,14.92s3.26,3.1,12.81-6.62,21.64-29,21.64-29Z" transform="translate(-216.04 -85.33)" fill="#ffbf9d"/><path d="M469,290.12a2.24,2.24,0,0,0-1.75-1.32L454,287a4.19,4.19,0,0,0-3.22,1L413,320.65l1.71,1.68,14.2,3.43,40.38-35.05Z" transform="translate(-216.04 -85.33)" fill="#1a2e35"/><path d="M458.51,292.82a.84.84,0,0,0,1.13.08.81.81,0,0,0,.39-1,.83.83,0,0,0-1.13-.07A.8.8,0,0,0,458.51,292.82Z" transform="translate(-216.04 -85.33)" fill="#fff"/><path d="M469.26,290.71a16,16,0,0,1-2.59-.19l-7-.83-4.86-.61a2.75,2.75,0,0,0-2.29.6l-2.16,1.88-9.67,8.36c-6.88,5.92-13.14,11.25-17.69,15.08l-5.43,4.5a17.2,17.2,0,0,1-2,1.57,15.29,15.29,0,0,1,1.85-1.8l5.26-4.69c4.45-3.93,10.65-9.32,17.53-15.24l9.72-8.33,2.19-1.86a3.47,3.47,0,0,1,2.82-.72l4.85.71,7,1.07A18.45,18.45,0,0,1,469.26,290.71Z" transform="translate(-216.04 -85.33)" fill="#375a64"/><path d="M455.53,297.53s-1.21-.58-2.88,2.71S446,312.89,446,312.89l-5.66-5.42-8.62-1.25s-2.28,1.17-1.21,2.46,6.07,3.71,6.07,3.71l2.31,6.69-9.62-8.52s-4-.07-3.53,2.51,6,11.81,6,11.81l-5.46-2L420.72,317s-2.06-.48-1.79,1.47,5.41,10.18,5.41,10.18l7.22,6.43s4.66.93,5.47-.3a15.86,15.86,0,0,0,1.46-3.11s2.61,0,3.39-1a7.68,7.68,0,0,0,1-3s3.62,1.74,4.68-.26a25.29,25.29,0,0,0,1.92-8c.07-1.75,6.33-16.4,6.3-16.9S458.19,297.2,455.53,297.53Z" transform="translate(-216.04 -85.33)" fill="#ffbf9d"/><path d="M437.32,334.86a4.67,4.67,0,0,1-2.37.07,15.25,15.25,0,0,1-9.84-5.49c-.91-1.16-1.28-2-1.19-2.05s2.22,2.87,6,5S437.35,334.59,437.32,334.86Z" transform="translate(-216.04 -85.33)" fill="#ff9a6c"/><path d="M436.18,331.3c-.18.15-1.45-1-2.66-2.79s-1.91-3.35-1.7-3.47,1.23,1.24,2.43,2.95S436.37,331.13,436.18,331.3Z" transform="translate(-216.04 -85.33)" fill="#ff9a6c"/><path d="M442.6,325.29c-.18.16-1.44-1-2.53-2.81s-1.58-3.45-1.36-3.54,1.05,1.34,2.11,3.07S442.79,325.13,442.6,325.29Z" transform="translate(-216.04 -85.33)" fill="#ff9a6c"/><path d="M448.85,320.76c-.25,0-.65-1.78-1.5-3.87s-1.78-3.68-1.58-3.83,1.53,1.28,2.41,3.5S449.09,320.74,448.85,320.76Z" transform="translate(-216.04 -85.33)" fill="#ff9a6c"/><path d="M383.63,291.53c-10.25-.36-31.82-30.22-31.69-40.53l.8-62c-.31-16.66,9.08-30.73,25.67-30.58l1.53.1a29.73,29.73,0,0,1,27.67,29.32c.19,14.44.22,30.4-.39,38.1C406,241.89,389.9,243.3,389.9,243.3s-.14,3.71-.25,8.4c-.25,10.54,3.85,40.13-6.64,39.77Z" transform="translate(-216.04 -85.33)" fill="#ffbf9d"/><path d="M389.9,243.3a38.23,38.23,0,0,1-20.26-7.54s4.17,12.33,20.11,12Z" transform="translate(-216.04 -85.33)" fill="#ff9a6c"/><path d="M402.24,200.93a2.28,2.28,0,0,1-2.34,2.15,2.17,2.17,0,0,1-2.2-2.21,2.27,2.27,0,0,1,2.34-2.15A2.18,2.18,0,0,1,402.24,200.93Z" transform="translate(-216.04 -85.33)" fill="#1a2e35"/><path d="M403.76,194.67c-.3.28-1.93-1.12-4.37-1.28s-4.31,1-4.56.63c-.12-.14.2-.66,1-1.17a6.18,6.18,0,0,1,3.67-.87,6,6,0,0,1,3.46,1.38C403.69,194,403.91,194.54,403.76,194.67Z" transform="translate(-216.04 -85.33)" fill="#1a2e35"/><path d="M379.9,200.43a2.28,2.28,0,0,1-2.34,2.15,2.17,2.17,0,0,1-2.2-2.21,2.28,2.28,0,0,1,2.34-2.15A2.18,2.18,0,0,1,379.9,200.43Z" transform="translate(-216.04 -85.33)" fill="#1a2e35"/><path d="M379.8,193.62c-.3.28-1.94-1.11-4.38-1.27s-4.31.94-4.55.63c-.12-.15.2-.66,1-1.18a6.16,6.16,0,0,1,3.67-.87,6,6,0,0,1,3.46,1.38C379.73,192.94,380,193.5,379.8,193.62Z" transform="translate(-216.04 -85.33)" fill="#1a2e35"/><path d="M387.29,213.05c0-.14,1.54-.3,4-.45.62,0,1.22-.11,1.36-.53a3.22,3.22,0,0,0-.3-1.88c-.48-1.56-1-3.18-1.52-4.89-2.11-7-3.58-12.67-3.3-12.75s2.21,5.49,4.31,12.45c.51,1.72,1,3.35,1.45,4.92a3.62,3.62,0,0,1,.16,2.47,1.56,1.56,0,0,1-1.09.85,4.15,4.15,0,0,1-1.07.08C388.83,213.28,387.29,213.19,387.29,213.05Z" transform="translate(-216.04 -85.33)" fill="#1a2e35"/><path d="M380.2,184.44c-.38.61-2.7-.21-5.58-.47s-5.31,0-5.56-.63c-.11-.32.41-.85,1.46-1.29a9.73,9.73,0,0,1,8.49.84C380,183.53,380.36,184.15,380.2,184.44Z" transform="translate(-216.04 -85.33)" fill="#1a2e35"/><path d="M403.57,188.9c-.54.53-2.5-.16-4.89-.31s-4.43.14-4.87-.46c-.19-.3.16-.84,1.07-1.32a8.19,8.19,0,0,1,7.87.62C403.56,188.05,403.81,188.64,403.57,188.9Z" transform="translate(-216.04 -85.33)" fill="#1a2e35"/><path d="M353.25,200.91c-.27-.13-10.7-4-11.08,7s10.62,9.07,10.65,8.75S353.25,200.91,353.25,200.91Z" transform="translate(-216.04 -85.33)" fill="#ffbf9d"/><path d="M349.64,212.35c-.05,0-.2.13-.52.27a1.92,1.92,0,0,1-1.42,0c-1.13-.47-2-2.34-2-4.31a6.4,6.4,0,0,1,.63-2.71,2.22,2.22,0,0,1,1.47-1.41,1,1,0,0,1,1.1.56c.14.32.06.53.12.55s.24-.17.17-.63a1.23,1.23,0,0,0-.41-.7,1.43,1.43,0,0,0-1-.31,2.67,2.67,0,0,0-2,1.62,6.55,6.55,0,0,0-.76,3c0,2.21,1,4.31,2.6,4.82a2,2,0,0,0,1.74-.22C349.61,212.62,349.68,212.37,349.64,212.35Z" transform="translate(-216.04 -85.33)" fill="#ff9a6c"/><path d="M380.54,214.2c-.15,0-.25.61-.07,1.56a6.16,6.16,0,0,0,1.89,3.26,10.27,10.27,0,0,0,3.12,1.93c.87.34,1.43.45,1.5.31s-.37-.52-1.12-1a23.86,23.86,0,0,1-2.72-2C381.2,216.44,380.89,214.13,380.54,214.2Z" transform="translate(-216.04 -85.33)" fill="#1a2e35"/><path d="M301.54,404.25l-7,44,5.14,36.36.22,7.9,5.21,38.78s-1.94,36.55-2.9,44.49,2.46,119.65,2.46,119.65L340,693.85S353.4,528.1,353.34,526.28s18.41-124,18.41-124Z" transform="translate(-216.04 -85.33)" fill="#1a2e35"/><path d="M391,411s-.71,148.88-4,157.49S290.7,669.68,290.7,669.68l-29.43-23L336.45,545l4.62-141.86Z" transform="translate(-216.04 -85.33)" fill="#1a2e35"/><path d="M366.32,450c.2,0-4.2,37.62-9.82,84S346.15,617.82,346,617.8s4.2-37.61,9.82-84S366.12,449.94,366.32,450Z" transform="translate(-216.04 -85.33)" fill="#375a64"/><path d="M305.07,531.28a1.33,1.33,0,0,1,0,.37c0,.29,0,.64-.06,1.08-.07,1-.17,2.38-.29,4.13-.3,3.58-.63,8.77-1,15.18-.72,12.83-1.31,30.58-1.16,50.18s.73,37.37,1.06,50.22c.15,6.38.27,11.56.36,15.22,0,1.75,0,3.13,0,4.14,0,.44,0,.79,0,1.08a1.65,1.65,0,0,1,0,.36,1.45,1.45,0,0,1-.05-.36c0-.29,0-.64-.06-1.08-.05-1-.11-2.38-.19-4.13-.14-3.65-.34-8.84-.58-15.21-.47-12.85-1.16-30.6-1.28-50.23s.53-37.39,1.38-50.22c.45-6.41.86-11.6,1.24-15.18.19-1.74.33-3.12.43-4.12.06-.43.1-.78.13-1.06A2.09,2.09,0,0,1,305.07,531.28Z" transform="translate(-216.04 -85.33)" fill="#375a64"/><path d="M340.85,446.82c.09.18-6.35,3.59-14.39,7.61s-14.62,7.14-14.71,7,6.35-3.59,14.39-7.61S340.76,446.64,340.85,446.82Z" transform="translate(-216.04 -85.33)" fill="#375a64"/><path d="M412.12,331.64l17.77,16.05s-27.81,30.52-36.4,37.27,2.74-46.06,2.74-46.06Z" transform="translate(-216.04 -85.33)" fill="#ff735d"/><path d="M351.78,236.2l-7.39,10.29-28.76,10.68-13,98.24-8.23,87.72s11.51-16.5,20.32-16.73S368.09,438.69,371.1,441L377,421.11l4.77,23s8.38,1.89,12.75-10.68l-1.86-43.59s5.89-78.59,5.57-90.44-8.32-44.77-8.32-44.77l-3,9.71L361,242.15Z" transform="translate(-216.04 -85.33)" fill="#ff735d"/><path d="M324,254.18s-18.9-.06-25,35.1-14.9,72.88-10.37,87S310.84,431,310.84,431l24.35-8.81-10-63.82,11.56-62.45S338.19,256.75,324,254.18Z" transform="translate(-216.04 -85.33)" fill="#ff735d"/><path d="M345.67,436.29s-11.6-13.71-12.48-13.38l-19.28,7a81.13,81.13,0,0,0,.13,15c.75,7.15,2,14.81,2,14.81l25.35-13.58a45.84,45.84,0,0,0,2.48,8.27c1.41,3,6.31-.18,6.31-.18Z" transform="translate(-216.04 -85.33)" fill="#ffbf9d"/><path d="M336.76,295.92s0,.38-.17,1.12-.32,1.85-.56,3.26c-.52,2.89-1.27,7.11-2.24,12.5-2,10.86-4.82,26.47-8.31,45.62v-.09c2.86,18.17,6.29,39.94,10.06,63.81l0,.28-.27.1L311,431.35l-.32.11-.14-.31-7.73-18c-4.65-11.05-9.17-21.86-13.07-32.49-.5-1.32-.94-2.67-1.39-4-.21-.67-.34-1.37-.52-2.06a12.34,12.34,0,0,1-.38-2.07,34.7,34.7,0,0,1-.36-4.16c-.07-1.39-.11-2.76-.05-4.13a143.48,143.48,0,0,1,1.35-15.93c1.33-10.33,3.15-20,4.81-29.13s3.26-17.55,4.69-25.28c.66-3.87,1.43-7.55,2.19-11,.49-1.71,1-3.36,1.43-5s1.14-3.09,1.69-4.56A38.11,38.11,0,0,1,311.89,260a22.49,22.49,0,0,1,8.6-5.21,15.42,15.42,0,0,1,2.56-.56l.67-.05H324l-.89.11a17.13,17.13,0,0,0-2.53.63,22.7,22.7,0,0,0-8.44,5.28,37.92,37.92,0,0,0-8.55,13.3c-.53,1.46-1.11,3-1.64,4.53s-.92,3.25-1.4,5c-.74,3.45-1.49,7.11-2.13,11-1.41,7.74-2.95,16.21-4.61,25.3s-3.42,18.81-4.74,29.1a145.75,145.75,0,0,0-1.31,15.87c-.06,1.35,0,2.71.05,4.07a33,33,0,0,0,.36,4.09,11.41,11.41,0,0,0,.37,2c.17.67.3,1.34.51,2,.45,1.32.88,2.66,1.38,4,3.9,10.59,8.42,21.4,13.07,32.44l7.73,18-.46-.2,24.35-8.8-.23.39c-3.71-23.87-7.09-45.65-9.92-63.83v-.1c3.6-19.13,6.53-34.73,8.56-45.57,1-5.39,1.84-9.59,2.39-12.48.28-1.41.49-2.49.64-3.25S336.76,295.92,336.76,295.92Z" transform="translate(-216.04 -85.33)" fill="#1a2e35"/><path d="M386.93,264.34a8,8,0,0,1-.57,1.3l-1.76,3.56-6.36,12.34L378,282l-.32-.45c-2.26-3.11-4.86-6.48-7.71-9.92a197.4,197.4,0,0,0-15.3-16.46c-2.07-2-3.79-3.57-5-4.66a16.09,16.09,0,0,1-1.8-1.74,14.93,14.93,0,0,1,2,1.52c1.24,1,3,2.55,5.14,4.51a166.6,166.6,0,0,1,15.5,16.36c2.87,3.45,5.46,6.85,7.7,10l-.57,0c2.65-4.92,4.92-9.12,6.59-12.23l1.93-3.46A6.82,6.82,0,0,1,386.93,264.34Z" transform="translate(-216.04 -85.33)" fill="#1a2e35"/><path d="M393.3,269.58c.25-.09,1.47,4.37.6,10.32l-.16,1.05-.51-1c-.28-.51-.55-1.05-.81-1.61-1.37-3.1-2.1-6-2.86-8.07s-1.33-3.26-1.23-3.31a10.59,10.59,0,0,1,1.71,3.12c.89,2,1.71,4.94,3,7.95.25.55.51,1.07.77,1.57l-.67.09a32.27,32.27,0,0,0,.34-7.21C393.47,270.68,393.23,269.61,393.3,269.58Z" transform="translate(-216.04 -85.33)" fill="#1a2e35"/><path d="M388.17,269.41a1.93,1.93,0,0,1,0,.39c0,.3,0,.68,0,1.15,0,1,0,2.51,0,4.44-.05,3.85-.22,9.42-.6,16.3-.72,13.75-2.39,32.7-4.1,53.63s-3.4,39.84-4.57,53.61c-.61,6.81-1.11,12.35-1.47,16.24-.18,1.87-.33,3.34-.43,4.41-.06.47-.1.84-.13,1.14a2.42,2.42,0,0,1-.07.39s0-.13,0-.39,0-.68.06-1.15c.07-1.07.17-2.55.3-4.43.3-3.89.72-9.43,1.24-16.25,1.11-13.77,2.65-32.71,4.35-53.63s3.46-39.87,4.32-53.6c.44-6.87.68-12.43.82-16.28.07-1.88.12-3.36.16-4.43,0-.47,0-.85.06-1.15A1.47,1.47,0,0,1,388.17,269.41Z" transform="translate(-216.04 -85.33)" fill="#1a2e35"/><path d="M398.37,303.56c.2,0-.89,19.44-2.43,43.38s-3,43.35-3.16,43.33.89-19.43,2.43-43.38S398.16,303.55,398.37,303.56Z" transform="translate(-216.04 -85.33)" fill="#1a2e35"/><path d="M341.48,280.07c-.13,0-.13-1.76-.82-4.46a21.8,21.8,0,0,0-14-15.32c-2.62-.92-4.37-1.07-4.35-1.2a3.38,3.38,0,0,1,1.23,0,17.9,17.9,0,0,1,3.28.69,20.84,20.84,0,0,1,14.35,15.69,18,18,0,0,1,.4,3.34A3.3,3.3,0,0,1,341.48,280.07Z" transform="translate(-216.04 -85.33)" fill="#1a2e35"/><g opacity="0.3"><path d="M393.78,384.36a80,80,0,0,0,2.67-45.46c-1,15.27-1.75,30.54-2.71,45.81" transform="translate(-216.04 -85.33)"/></g><g opacity="0.3"><path d="M335.75,301.36c-6.23,32.54-11.3,63.41-10.59,59.14l10,61.69,5.92,8.81C336,389.6,331.7,342.59,335.75,301.36Z" transform="translate(-216.04 -85.33)"/></g><path d="M418.94,169.23a6.35,6.35,0,0,0-3.23-5.1,10,10,0,0,0-.06-1.83c-.52-3.67-3.77-6.89-7.46-7a7.86,7.86,0,0,0-13.09-4.72,9.37,9.37,0,0,0-10-2.07,2.41,2.41,0,0,0-1.11.76,1.07,1.07,0,0,0-.16.85,5.64,5.64,0,0,0-6.45-3,6.62,6.62,0,0,0-4.62,2A9.46,9.46,0,0,0,361,153.48a9,9,0,0,0-8.34,5.65,6.7,6.7,0,0,0-5.66,3.38,6.76,6.76,0,0,0,.07,6.61s-7.75,1.2-6.24,8.18c.77,3.56,5.48,3.28,5.48,3.28l4.31,22.52c-.1.1,1.19,2.79,2.54,2.33s2.2-1.78,3-2.94a15.53,15.53,0,0,0,2.58-4.16c.51-1.56.2-3.55-1.19-4.41a5.69,5.69,0,0,0,3.76-4.26,17,17,0,0,0,.07-6l-.93-8.78a10.91,10.91,0,0,0,9.83-5.54,6.24,6.24,0,0,0,9.2-1.59,8.13,8.13,0,0,0,9.52,5.73c-.59,2.24,3.31,4.62,5.49,5.38s5.06-.63,5.06-.63a12.79,12.79,0,0,0,4.3,1.9h0l.23,0c3.06.51,6.26-2.08,7.94-4.69a5.87,5.87,0,0,0,2.36-.09A6.32,6.32,0,0,0,418.94,169.23Z" transform="translate(-216.04 -85.33)" fill="#1a2e35"/><path d="M330.31,333c-.06.11-2-.83-5.31-2.18a118.43,118.43,0,0,0-13.05-4.5,115.56,115.56,0,0,0-13.5-2.87c-3.5-.54-5.68-.76-5.67-.88a5.42,5.42,0,0,1,1.54,0c1,0,2.43.14,4.2.34a88.67,88.67,0,0,1,26.7,7.42c1.61.74,2.9,1.39,3.77,1.87A6,6,0,0,1,330.31,333Z" transform="translate(-216.04 -85.33)" fill="#fff"/><path d="M316.45,428.34a2,2,0,0,1-.19-.4l-.5-1.19c-.43-1.11-1-2.66-1.81-4.62-1.55-4-3.78-9.85-6.23-17.17a190.92,190.92,0,0,1-7-26.18,122.32,122.32,0,0,1-1.93-15.91,112.23,112.23,0,0,1,.46-17.21c1.19-11.76,3.75-22.72,6.07-32.64S310,294.21,312,286.77s3.81-13.42,5.07-17.54c.63-2,1.13-3.6,1.48-4.74.17-.5.31-.9.41-1.22a2.06,2.06,0,0,1,.17-.41,2.32,2.32,0,0,1-.09.43c-.09.33-.2.74-.33,1.25-.33,1.15-.78,2.75-1.35,4.78-1.17,4.15-2.85,10.15-4.82,17.6s-4.23,16.34-6.54,26.27-4.81,20.86-6,32.55a112,112,0,0,0-.48,17.09,123.23,123.23,0,0,0,1.88,15.82,198.65,198.65,0,0,0,6.81,26.14c2.38,7.32,4.53,13.17,6,17.23l1.67,4.67c.18.5.31.91.42,1.22A2.15,2.15,0,0,1,316.45,428.34Z" transform="translate(-216.04 -85.33)" fill="#fff"/><path d="M327.85,382.49a4.48,4.48,0,0,1-1.21.62c-.79.35-2,.81-3.42,1.33a86.89,86.89,0,0,1-23.73,4.72c-1.55.08-2.8.1-3.67.08a4.3,4.3,0,0,1-1.35-.11,45.22,45.22,0,0,1,5-.53c3.07-.3,7.3-.83,11.92-1.75s8.72-2.05,11.67-3A44.62,44.62,0,0,1,327.85,382.49Z" transform="translate(-216.04 -85.33)" fill="#fff"/><path d="M340.76,285.86c-.13.09-1.35-1.83-3.86-4.45a39.8,39.8,0,0,0-4.78-4.18,38.73,38.73,0,0,0-14-6.51,38.37,38.37,0,0,0-6.27-.94c-3.61-.23-5.86.07-5.87-.09a6.61,6.61,0,0,1,1.56-.29,13,13,0,0,1,1.86-.16c.73,0,1.56-.09,2.48,0a34.63,34.63,0,0,1,6.4.8,36.73,36.73,0,0,1,14.27,6.63A34.54,34.54,0,0,1,337.3,281a23.22,23.22,0,0,1,1.59,1.91,14.47,14.47,0,0,1,1.08,1.53A6.17,6.17,0,0,1,340.76,285.86Z" transform="translate(-216.04 -85.33)" fill="#fff"/><path d="M353.75,433.74a3,3,0,0,1,0-.49c0-.37,0-.84,0-1.44,0-1.32,0-3.18,0-5.54.06-4.87.16-11.82.28-20.38.31-17.25.74-41,1.21-67.23.24-13.14.42-25.64,0-37-.2-5.68-.56-11.07-1.05-16.1a84.14,84.14,0,0,0-2.26-13.82,37.28,37.28,0,0,0-4.51-10.56,26.81,26.81,0,0,0-5.74-6.48,22.31,22.31,0,0,0-4.64-2.91c-1.14-.53-1.78-.72-1.76-.76a10.8,10.8,0,0,1,1.82.62,21.1,21.1,0,0,1,4.78,2.8,27.21,27.21,0,0,1,5.91,6.49,37,37,0,0,1,4.67,10.65,83.16,83.16,0,0,1,2.38,13.9c.52,5,.91,10.45,1.12,16.14.46,11.38.3,23.91.06,37-.56,26.23-1.07,50-1.44,67.23-.23,8.56-.41,15.51-.53,20.37-.08,2.37-.14,4.22-.19,5.54,0,.6-.05,1.07-.07,1.44A1.82,1.82,0,0,1,353.75,433.74Z" transform="translate(-216.04 -85.33)" fill="#fff"/><path d="M378.25,401.26a9.36,9.36,0,0,1-1.92-.2c-1.22-.17-3-.46-5.18-.83-4.36-.75-10.38-1.87-17-3.24s-12.59-2.74-16.89-3.79c-2.16-.53-3.89-1-5.09-1.3a8.31,8.31,0,0,1-1.83-.59,9,9,0,0,1,1.9.29l5.14,1,16.93,3.56,16.94,3.47,5.13,1.08A8.39,8.39,0,0,1,378.25,401.26Z" transform="translate(-216.04 -85.33)" fill="#fff"/><path d="M382.36,346.59c0,.22-12.2-.52-27.21-1.65S328,342.72,328,342.5s12.2.52,27.21,1.65S382.38,346.37,382.36,346.59Z" transform="translate(-216.04 -85.33)" fill="#fff"/><path d="M386.35,298.48a9.57,9.57,0,0,1-2,.24c-1.26.11-3.09.23-5.36.35-4.52.23-10.78.41-17.7.37s-13.18-.3-17.7-.58c-2.26-.15-4.09-.29-5.35-.41a10.69,10.69,0,0,1-2-.27,8.72,8.72,0,0,1,2,0l5.36.16c4.53.14,10.78.3,17.68.35s13.16,0,17.69-.14l5.36-.1A8.75,8.75,0,0,1,386.35,298.48Z" transform="translate(-216.04 -85.33)" fill="#fff"/><path d="M354,253.55a21.91,21.91,0,0,1-3.62.85,83.87,83.87,0,0,0-17,5.49,24.19,24.19,0,0,1-3.43,1.44,13.79,13.79,0,0,1,3.19-1.95,56.9,56.9,0,0,1,8.34-3.45,56,56,0,0,1,8.78-2.08A14.34,14.34,0,0,1,354,253.55Z" transform="translate(-216.04 -85.33)" fill="#fff"/><path d="M384.42,270.77a8.82,8.82,0,0,1-1.4-1.2l-3.63-3.45c-3.07-2.91-7.34-6.9-12.17-11.18s-9.32-8-12.59-10.71L350.77,241a9.07,9.07,0,0,1-1.37-1.24,7.48,7.48,0,0,1,1.56,1c1,.69,2.34,1.71,4,3,3.36,2.58,7.91,6.27,12.76,10.56s9.06,8.35,12,11.37c1.48,1.51,2.67,2.75,3.46,3.63A8.5,8.5,0,0,1,384.42,270.77Z" transform="translate(-216.04 -85.33)" fill="#fff"/><path d="M374.48,254.32c.16.15-1.91,2.68-4.62,5.67s-5,5.28-5.2,5.13,1.9-2.68,4.62-5.67S374.32,254.17,374.48,254.32Z" transform="translate(-216.04 -85.33)" fill="#fff"/><path d="M398.34,299.36c0,.22-2.52,0-5.59-.17s-5.56-.1-5.57-.33,2.49-.61,5.61-.46S398.38,299.15,398.34,299.36Z" transform="translate(-216.04 -85.33)" fill="#fff"/><path d="M394.75,350.21c0,.22-2.55.34-5.68.27s-5.66-.31-5.66-.53,2.55-.34,5.68-.27S394.76,350,394.75,350.21Z" transform="translate(-216.04 -85.33)" fill="#fff"/><path d="M393.74,281a1.2,1.2,0,0,1,0,.41c0,.32,0,.72,0,1.22,0,1.13,0,2.7.07,4.7s0,4.53,0,7.42-.08,6.2-.21,9.84c-.41,14.57-1.65,34.67-3.21,56.85s-2.9,42.27-3.46,56.83c-.17,3.64-.28,6.93-.34,9.82s-.16,5.39-.17,7.42-.06,3.56-.08,4.69c0,.5,0,.9,0,1.22a2.7,2.7,0,0,1,0,.42,1.2,1.2,0,0,1,0-.41c0-.32,0-.73,0-1.22,0-1.14,0-2.71-.07-4.7s0-4.53,0-7.42.09-6.2.22-9.84c.42-14.57,1.67-34.68,3.23-56.86s2.89-42.26,3.44-56.82c.16-3.64.27-6.93.33-9.83s.16-5.38.17-7.42.06-3.56.08-4.69c0-.5,0-.9,0-1.22A2.64,2.64,0,0,1,393.74,281Z" transform="translate(-216.04 -85.33)" fill="#fff"/><path d="M393,401c0,.22-3.17,1-7.16,1.73s-7.26,1.16-7.3.94,3.17-1,7.16-1.72S393,400.83,393,401Z" transform="translate(-216.04 -85.33)" fill="#fff"/><path d="M421.57,340.85a33.51,33.51,0,0,1-4,2.61c-2.49,1.55-5.9,3.74-9.57,6.3s-6.91,5-9.23,6.79a34,34,0,0,1-3.83,2.84,24.9,24.9,0,0,1,3.48-3.27c2.24-1.92,5.44-4.44,9.13-7s7.17-4.69,9.73-6.13A24.83,24.83,0,0,1,421.57,340.85Z" transform="translate(-216.04 -85.33)" fill="#fff"/><path d="M416.72,361.3a24.6,24.6,0,0,1-2.11-3.49c-1.24-2.19-3-5.2-5-8.45s-3.95-6.14-5.37-8.22a24.63,24.63,0,0,1-2.2-3.43,17.75,17.75,0,0,1,2.66,3.1c1.53,2,3.55,4.85,5.58,8.13s3.7,6.34,4.81,8.6A19,19,0,0,1,416.72,361.3Z" transform="translate(-216.04 -85.33)" fill="#fff"/><path d="M861.07,720.86c0,.22-144.41.39-322.5.39S216,721.08,216,720.86s144.37-.4,322.53-.4S861.07,720.64,861.07,720.86Z" transform="translate(-216.04 -85.33)" fill="#1a2e35"/></svg>