<svg id="Layer_2" data-name="Layer 2" xmlns="http://www.w3.org/2000/svg" viewBox="0 0 708 444.03"><polygon points="181.23 189.83 50.11 189.83 50.11 17.38 150.41 17.69 181.23 53.08 181.23 189.83" fill="#ececec"/><path d="M289.34,273.8c-.17.17-2.35-1.91-5.74-5.41s-8-8.42-13-13.94l-.56-.62.56-.62.05-.06c5-5.56,9.57-10.53,12.94-14.06s5.55-5.64,5.73-5.47-1.7,2.58-4.85,6.34-7.6,8.86-12.58,14.43l-.06.06v-1.24c5,5.51,9.46,10.58,12.62,14.3S289.5,273.63,289.34,273.8Z" transform="translate(-200 -158.03)" fill="#1a2e35"/><path d="M342,233.62c.17-.17,2.35,1.91,5.73,5.41s8,8.43,13,13.94l.56.62-.55.62-.06.06c-5,5.57-9.56,10.53-12.94,14.07S342.12,274,342,273.8s1.7-2.58,4.85-6.34,7.59-8.86,12.58-14.42l.05-.06v1.24c-5-5.52-9.45-10.58-12.61-14.31S341.78,233.8,342,233.62Z" transform="translate(-200 -158.03)" fill="#1a2e35"/><path d="M299.69,280.14c-.4-.26,6.41-12.8,15.2-28s16.25-27.32,16.65-27.07-6.4,12.8-15.2,28S300.09,280.4,299.69,280.14Z" transform="translate(-200 -158.03)" fill="#1a2e35"/><path d="M350.4,175.73l-.12,28.89a7.24,7.24,0,0,0,7.24,7.46l23.71-.94Z" transform="translate(-200 -158.03)" fill="#e1e1e1"/><rect x="34.81" y="134.2" width="58.15" height="37.37" fill="#ff4f5b"/><path d="M251.33,318.56l1.51-1.88a4.5,4.5,0,0,0,3.81,2.29c2.06,0,3.13-1.32,3.13-3.91V304.22h-6.6v-2.4h9.18v13.1c0,4.3-2,6.43-5.71,6.43A6.25,6.25,0,0,1,251.33,318.56Z" transform="translate(-200 -158.03)" fill="#fff"/><path d="M266,318.92l1-2.15a9.14,9.14,0,0,0,6,2.23c3.15,0,4.51-1.29,4.51-3,0-4.71-11.06-1.73-11.06-8.91,0-3,2.19-5.51,7-5.51a10.35,10.35,0,0,1,5.87,1.71l-.86,2.21a9,9,0,0,0-5-1.58c-3.1,0-4.43,1.38-4.43,3.06,0,4.72,11.05,1.77,11.05,8.86,0,2.95-2.24,5.49-7.06,5.49A10.49,10.49,0,0,1,266,318.92Z" transform="translate(-200 -158.03)" fill="#fff"/><path d="M493,185.61a9.2,9.2,0,0,0-4.75,8.25l.41,68.42a9.27,9.27,0,0,0,4.18,7.81L546.52,304h0L598,268.7a9.33,9.33,0,0,0,3.91-7.75l-.43-71.44a9.14,9.14,0,0,0-5.14-8.33L545.67,158Z" transform="translate(-200 -158.03)" fill="#ff4f5b"/><g opacity="0.2"><path d="M545.67,158,546.54,304l51.35-35.19a9.27,9.27,0,0,0,4-7.71l-.4-71.72a9,9,0,0,0-5.09-8.14Z" transform="translate(-200 -158.03)"/></g><path d="M560.7,240l-31.33.2-6.39,16-8.67.05,26.32-64.05,8.34,0,27.16,63.69-8.85.06Zm-3-7.28-12.9-31.22-12.53,31.39Z" transform="translate(-200 -158.03)" fill="#fff"/><rect x="321.21" y="111.82" width="295.72" height="182.23" fill="#1a2e35"/><path d="M544.34,442.92c-.15,0-.28-37.27-.28-83.23s.13-83.23.28-83.23.29,37.26.29,83.23S544.5,442.92,544.34,442.92Z" transform="translate(-200 -158.03)" fill="#e1e1e1"/><path d="M538.26,283.48c0,.17-2.19.3-4.89.3s-4.9-.13-4.9-.3a40.09,40.09,0,0,1,9.79,0Z" transform="translate(-200 -158.03)" fill="#e1e1e1"/><path d="M538.26,294.45c0,.17-2.19.3-4.89.3s-4.9-.13-4.9-.3a40.09,40.09,0,0,1,9.79,0Z" transform="translate(-200 -158.03)" fill="#e1e1e1"/><path d="M538.26,305.42c0,.17-2.19.3-4.89.3s-4.9-.13-4.9-.3a40.09,40.09,0,0,1,9.79,0Z" transform="translate(-200 -158.03)" fill="#e1e1e1"/><path d="M538.26,316.39a40.09,40.09,0,0,1-9.79,0c0-.17,2.19-.3,4.9-.3S538.26,316.22,538.26,316.39Z" transform="translate(-200 -158.03)" fill="#e1e1e1"/><path d="M538.26,327.36a40.09,40.09,0,0,1-9.79,0c0-.17,2.19-.3,4.9-.3S538.26,327.19,538.26,327.36Z" transform="translate(-200 -158.03)" fill="#e1e1e1"/><path d="M538.26,338.32c0,.17-2.19.3-4.89.3s-4.9-.13-4.9-.3a41.46,41.46,0,0,1,9.79,0Z" transform="translate(-200 -158.03)" fill="#e1e1e1"/><path d="M538.26,349.29c0,.17-2.19.3-4.89.3s-4.9-.13-4.9-.3a40.09,40.09,0,0,1,9.79,0Z" transform="translate(-200 -158.03)" fill="#e1e1e1"/><path d="M538.26,360.26c0,.17-2.19.3-4.89.3s-4.9-.13-4.9-.3a40.09,40.09,0,0,1,9.79,0Z" transform="translate(-200 -158.03)" fill="#e1e1e1"/><path d="M538.26,371.23a40.09,40.09,0,0,1-9.79,0c0-.17,2.19-.3,4.9-.3S538.26,371.06,538.26,371.23Z" transform="translate(-200 -158.03)" fill="#e1e1e1"/><path d="M538.26,382.2a40.09,40.09,0,0,1-9.79,0c0-.17,2.19-.3,4.9-.3S538.26,382,538.26,382.2Z" transform="translate(-200 -158.03)" fill="#e1e1e1"/><path d="M538.26,393.17a41.46,41.46,0,0,1-9.79,0c0-.17,2.19-.3,4.9-.3S538.26,393,538.26,393.17Z" transform="translate(-200 -158.03)" fill="#e1e1e1"/><path d="M538.26,404.13c0,.17-2.19.3-4.89.3s-4.9-.13-4.9-.3a40.09,40.09,0,0,1,9.79,0Z" transform="translate(-200 -158.03)" fill="#e1e1e1"/><path d="M538.26,415.1c0,.17-2.19.3-4.89.3s-4.9-.13-4.9-.3a40.09,40.09,0,0,1,9.79,0Z" transform="translate(-200 -158.03)" fill="#e1e1e1"/><path d="M538.26,426.07c0,.17-2.19.3-4.89.3s-4.9-.13-4.9-.3,2.19-.3,4.9-.3S538.26,425.9,538.26,426.07Z" transform="translate(-200 -158.03)" fill="#e1e1e1"/><path d="M538.26,437a40.09,40.09,0,0,1-9.79,0c0-.17,2.19-.3,4.9-.3S538.26,436.87,538.26,437Z" transform="translate(-200 -158.03)" fill="#e1e1e1"/><path d="M577.52,282.84c0,.16-5.69.3-12.71.3s-12.71-.14-12.71-.3,5.69-.3,12.71-.3S577.52,282.67,577.52,282.84Z" transform="translate(-200 -158.03)" fill="#ff4f5b"/><path d="M577.52,437c0,.16-5.69.3-12.71.3s-12.71-.14-12.71-.3,5.69-.3,12.71-.3S577.52,436.87,577.52,437Z" transform="translate(-200 -158.03)" fill="#ff4f5b"/><path d="M612.91,305.42c0,.17-10.64.3-23.77.3s-23.78-.13-23.78-.3,10.64-.3,23.78-.3S612.91,305.26,612.91,305.42Z" transform="translate(-200 -158.03)" fill="#ff4f5b"/><path d="M667.9,305.42c0,.17-10.64.3-23.77.3s-23.78-.13-23.78-.3,10.64-.3,23.78-.3S667.9,305.26,667.9,305.42Z" transform="translate(-200 -158.03)" fill="#e1e1e1"/><path d="M646.89,316.39c0,.16-15.69.3-35,.3s-35.05-.14-35.05-.3,15.69-.3,35.05-.3S646.89,316.22,646.89,316.39Z" transform="translate(-200 -158.03)" fill="#e1e1e1"/><path d="M646.89,327.36c0,.16-15.69.3-35,.3s-35.05-.14-35.05-.3,15.69-.3,35.05-.3S646.89,327.19,646.89,327.36Z" transform="translate(-200 -158.03)" fill="#e1e1e1"/><path d="M695.13,360.26c0,.17-15.69.3-35,.3s-35.05-.13-35.05-.3,15.69-.3,35.05-.3S695.13,360.1,695.13,360.26Z" transform="translate(-200 -158.03)" fill="#e1e1e1"/><path d="M674.31,338.32c0,.17-15.69.3-35,.3s-35-.13-35-.3,15.68-.29,35-.29S674.31,338.16,674.31,338.32Z" transform="translate(-200 -158.03)" fill="#e1e1e1"/><path d="M760,338.32c0,.17-15.69.3-35,.3s-35-.13-35-.3,15.69-.29,35-.29S760,338.16,760,338.32Z" transform="translate(-200 -158.03)" fill="#e1e1e1"/><path d="M730.17,316.39c0,.16-15.69.3-35,.3s-35-.14-35-.3,15.68-.3,35-.3S730.17,316.22,730.17,316.39Z" transform="translate(-200 -158.03)" fill="#fafafa"/><path d="M778.58,360.26c0,.17-15.69.3-35,.3s-35-.13-35-.3,15.68-.3,35-.3S778.58,360.1,778.58,360.26Z" transform="translate(-200 -158.03)" fill="#fafafa"/><path d="M768.91,327.36c0,.16-24.36.3-54.41.3s-54.41-.14-54.41-.3,24.35-.3,54.41-.3S768.91,327.19,768.91,327.36Z" transform="translate(-200 -158.03)" fill="#375a64"/><path d="M577.52,294.45c0,.17-5.69.3-12.71.3s-12.71-.13-12.71-.3,5.69-.3,12.71-.3S577.52,294.29,577.52,294.45Z" transform="translate(-200 -158.03)" fill="#fafafa"/><path d="M577.52,426.07c0,.17-5.69.3-12.71.3s-12.71-.13-12.71-.3,5.69-.3,12.71-.3S577.52,425.9,577.52,426.07Z" transform="translate(-200 -158.03)" fill="#fafafa"/><path d="M590.11,338.32c0,.17-5.69.3-12.71.3s-12.71-.13-12.71-.3,5.69-.29,12.71-.29S590.11,338.16,590.11,338.32Z" transform="translate(-200 -158.03)" fill="#fafafa"/><path d="M793.81,338.32c0,.17-5.69.3-12.7.3s-12.71-.13-12.71-.3,5.69-.29,12.71-.29S793.81,338.16,793.81,338.32Z" transform="translate(-200 -158.03)" fill="#ff4f5b"/><path d="M612.91,382.13c0,.17-10.64.3-23.77.3s-23.78-.13-23.78-.3,10.64-.3,23.78-.3S612.91,382,612.91,382.13Z" transform="translate(-200 -158.03)" fill="#ff4f5b"/><path d="M667.9,382.13c0,.17-10.64.3-23.77.3s-23.78-.13-23.78-.3,10.64-.3,23.78-.3S667.9,382,667.9,382.13Z" transform="translate(-200 -158.03)" fill="#e1e1e1"/><path d="M646.89,393.1c0,.17-15.69.3-35,.3s-35.05-.13-35.05-.3,15.69-.3,35.05-.3S646.89,392.94,646.89,393.1Z" transform="translate(-200 -158.03)" fill="#e1e1e1"/><path d="M646.89,404.07c0,.16-15.69.3-35,.3s-35.05-.14-35.05-.3,15.69-.3,35.05-.3S646.89,403.9,646.89,404.07Z" transform="translate(-200 -158.03)" fill="#e1e1e1"/><path d="M674.31,415c0,.16-15.69.3-35,.3s-35-.14-35-.3,15.68-.3,35-.3S674.31,414.87,674.31,415Z" transform="translate(-200 -158.03)" fill="#e1e1e1"/><path d="M760,415c0,.16-15.69.3-35,.3s-35-.14-35-.3,15.69-.3,35-.3S760,414.87,760,415Z" transform="translate(-200 -158.03)" fill="#e1e1e1"/><path d="M730.17,393.1c0,.17-15.69.3-35,.3s-35-.13-35-.3,15.68-.3,35-.3S730.17,392.94,730.17,393.1Z" transform="translate(-200 -158.03)" fill="#fafafa"/><path d="M768.91,404.07c0,.16-24.36.3-54.41.3s-54.41-.14-54.41-.3,24.35-.3,54.41-.3S768.91,403.9,768.91,404.07Z" transform="translate(-200 -158.03)" fill="#375a64"/><path d="M590.11,415c0,.16-5.69.3-12.71.3s-12.71-.14-12.71-.3,5.69-.3,12.71-.3S590.11,414.87,590.11,415Z" transform="translate(-200 -158.03)" fill="#fafafa"/><path d="M793.81,415c0,.16-5.69.3-12.7.3s-12.71-.14-12.71-.3,5.69-.3,12.71-.3S793.81,414.87,793.81,415Z" transform="translate(-200 -158.03)" fill="#ff4f5b"/><path d="M856,449.57c-.2.13-2-3.11-5.75-8.65-1.85-2.77-4.19-6.11-7.09-9.81a105.78,105.78,0,0,0-10.65-11.75,59.28,59.28,0,0,0-7-5.72,26.23,26.23,0,0,0-8.52-4.05,9.86,9.86,0,0,0-4.58-.07,6.79,6.79,0,0,0-3.75,2.54,12.12,12.12,0,0,0-2.06,4.7,27.51,27.51,0,0,0-.65,5.6,58.21,58.21,0,0,0,1.25,11.95,100.26,100.26,0,0,0,3.29,12.22,151.08,151.08,0,0,0,10.7,24.31,146.52,146.52,0,0,0,14.56,22,94.28,94.28,0,0,0,8.36,9.13,52.56,52.56,0,0,0,9.17,7.12,23.73,23.73,0,0,0,4.91,2.2,10.46,10.46,0,0,0,4.88.46,6.7,6.7,0,0,0,3.95-2.16,11.31,11.31,0,0,0,2.24-4.23,29.75,29.75,0,0,0,.93-9.83,66.19,66.19,0,0,0-1.16-9.3,113.23,113.23,0,0,0-4.3-15.62c-1.58-4.51-3.14-8.32-4.48-11.41-2.69-6.17-4.42-9.47-4.22-9.59a9.23,9.23,0,0,1,1.52,2.24c.9,1.52,2.19,3.81,3.69,6.84s3.23,6.8,5,11.31A108.22,108.22,0,0,1,871,485.75a68.13,68.13,0,0,1,1.39,9.61,32.24,32.24,0,0,1-.88,10.71,14,14,0,0,1-2.72,5.24,9.11,9.11,0,0,1-5.3,3,12.84,12.84,0,0,1-6-.46,25.75,25.75,0,0,1-5.47-2.38,54.19,54.19,0,0,1-9.72-7.4,95.64,95.64,0,0,1-8.66-9.35,146.36,146.36,0,0,1-14.91-22.38,150.14,150.14,0,0,1-10.87-24.84,102,102,0,0,1-3.32-12.61,59.89,59.89,0,0,1-1.2-12.6,29.4,29.4,0,0,1,.78-6.2,14.65,14.65,0,0,1,2.61-5.7,9.21,9.21,0,0,1,5.11-3.36,12.2,12.2,0,0,1,5.65.13,28.15,28.15,0,0,1,9.21,4.55,60.46,60.46,0,0,1,7.17,6.08,99.88,99.88,0,0,1,10.54,12.27c2.82,3.85,5.05,7.32,6.78,10.21s3,5.2,3.76,6.79A9.45,9.45,0,0,1,856,449.57Z" transform="translate(-200 -158.03)" fill="#ff4f5b"/><path d="M822.45,449.5c.19.13-1.57,3.27-4.32,9.17-1.37,2.94-3,6.59-4.59,10.91a104.52,104.52,0,0,0-4.43,15,58.92,58.92,0,0,0-1.22,9,27.94,27.94,0,0,0,.87,9.48,11.35,11.35,0,0,0,2.16,4.1,7,7,0,0,0,3.79,2.24,10.28,10.28,0,0,0,4.73-.14,21.15,21.15,0,0,0,4.85-1.84,47.47,47.47,0,0,0,9.17-6.38,89.67,89.67,0,0,0,8.43-8.45,135.38,135.38,0,0,0,14.76-20.71,137.59,137.59,0,0,0,10.93-23.22,93.15,93.15,0,0,0,3.4-11.74,53.8,53.8,0,0,0,1.31-11.53,25,25,0,0,0-.61-5.41,11.8,11.8,0,0,0-2-4.54,7.11,7.11,0,0,0-3.59-2.59,9.73,9.73,0,0,0-4.43-.21,24.28,24.28,0,0,0-8.42,3.4,54,54,0,0,0-7,5.16,97.44,97.44,0,0,0-10.74,10.9c-2.93,3.47-5.3,6.61-7.19,9.22-3.76,5.23-5.63,8.3-5.82,8.17a8.8,8.8,0,0,1,1.09-2.4c.82-1.51,2.07-3.72,3.84-6.45s4-6,6.89-9.64a92.85,92.85,0,0,1,10.66-11.43,55.34,55.34,0,0,1,7.22-5.53,26.31,26.31,0,0,1,9.15-3.86,12,12,0,0,1,5.48.21,9.54,9.54,0,0,1,4.84,3.39,14.45,14.45,0,0,1,2.54,5.53,27.7,27.7,0,0,1,.74,6,55.74,55.74,0,0,1-1.28,12.21,95.59,95.59,0,0,1-3.44,12.15,138.45,138.45,0,0,1-11.12,23.77,134.71,134.71,0,0,1-15.15,21.13,89.3,89.3,0,0,1-8.74,8.67,49.9,49.9,0,0,1-9.76,6.66,23.87,23.87,0,0,1-5.43,2,12.53,12.53,0,0,1-5.81.07,9.46,9.46,0,0,1-5-3.07,13.82,13.82,0,0,1-2.62-5.09,30,30,0,0,1-.81-10.38,59.55,59.55,0,0,1,1.45-9.3,99.32,99.32,0,0,1,4.91-15.2c1.79-4.32,3.55-7.93,5.09-10.82s2.83-5.06,3.74-6.51S822.36,449.45,822.45,449.5Z" transform="translate(-200 -158.03)" fill="#ff4f5b"/><path d="M837.09,436.26c0,.25-3.45.31-9.64.95-3.09.32-6.86.79-11.19,1.61a89.31,89.31,0,0,0-14.42,3.93,51.3,51.3,0,0,0-7.85,3.62,25.09,25.09,0,0,0-7.17,5.78,11.09,11.09,0,0,0-2.16,4.1,8,8,0,0,0,.19,4.58,11.83,11.83,0,0,0,2.6,4.19,22.57,22.57,0,0,0,4,3.38,45.81,45.81,0,0,0,10,4.89,81.07,81.07,0,0,0,11.23,3.13,126,126,0,0,0,48.84,0,80.3,80.3,0,0,0,11.23-3.13,46.12,46.12,0,0,0,10-4.89,22.5,22.5,0,0,0,4-3.38,11.69,11.69,0,0,0,2.6-4.19,7.91,7.91,0,0,0,.2-4.59,11.19,11.19,0,0,0-2.17-4.1,25.32,25.32,0,0,0-7.16-5.77,51.84,51.84,0,0,0-7.86-3.62,89.22,89.22,0,0,0-14.41-3.93c-4.34-.82-8.11-1.29-11.2-1.61-6.18-.64-9.64-.7-9.64-.95a8.39,8.39,0,0,1,2.51-.27c1.65-.06,4.08-.1,7.21.05a113.37,113.37,0,0,1,11.37,1.12,85.79,85.79,0,0,1,14.8,3.58,52.89,52.89,0,0,1,8.24,3.58,27.2,27.2,0,0,1,7.93,6.2,13.66,13.66,0,0,1,2.71,5,10.72,10.72,0,0,1-.17,6.14,14.38,14.38,0,0,1-3.12,5.19,24.9,24.9,0,0,1-4.45,3.83A48.89,48.89,0,0,1,873.63,476a84.29,84.29,0,0,1-11.58,3.3,125.36,125.36,0,0,1-49.92,0,84.29,84.29,0,0,1-11.58-3.3,49,49,0,0,1-10.48-5.28,25,25,0,0,1-4.46-3.83,14.5,14.5,0,0,1-3.11-5.19,10.8,10.8,0,0,1-.18-6.14,13.64,13.64,0,0,1,2.72-5,27,27,0,0,1,7.92-6.2,52.44,52.44,0,0,1,8.24-3.59,85.79,85.79,0,0,1,14.8-3.58A113.54,113.54,0,0,1,827.38,436c3.13-.15,5.56-.11,7.2-.05A8.32,8.32,0,0,1,837.09,436.26Z" transform="translate(-200 -158.03)" fill="#ff4f5b"/><ellipse cx="639.79" cy="302.82" rx="9.11" ry="9.64" fill="#ff4f5b"/><path d="M165.27,202.94H490.11a6.74,6.74,0,0,1,6.74,6.74v216a14.57,14.57,0,0,1-14.57,14.57H172.08a14.57,14.57,0,0,1-14.57-14.57v-215A7.75,7.75,0,0,1,165.27,202.94Z" fill="#375a64"/><path d="M143.32,422.71H511a0,0,0,0,1,0,0v7a13.72,13.72,0,0,1-13.72,13.72H157a13.72,13.72,0,0,1-13.72-13.72v-7A0,0,0,0,1,143.32,422.71Z" fill="#375a64"/><rect x="166.62" y="212.37" width="320.17" height="200.42" fill="#e1e1e1"/><polygon points="293.73 422.71 298.29 430.39 362.49 430.39 366.73 422.71 293.73 422.71" fill="#1a2e35"/><rect x="157.57" y="422.64" width="339.34" height="1.14" fill="#1a2e35"/><rect x="176.12" y="223.98" width="301.94" height="188.8" fill="#1a2e35"/><path d="M399.29,565.28c-.16,0-.28-40.21-.28-89.81s.12-89.81.28-89.81.28,40.2.28,89.81S399.45,565.28,399.29,565.28Z" transform="translate(-200 -158.03)" fill="#e1e1e1"/><path d="M393.2,401.94c0,.17-2.2.3-4.91.3s-4.9-.13-4.9-.3a40.25,40.25,0,0,1,9.81,0Z" transform="translate(-200 -158.03)" fill="#e1e1e1"/><path d="M393.58,391.75a40.25,40.25,0,0,1-9.81,0c0-.17,2.19-.3,4.9-.3S393.58,391.58,393.58,391.75Z" transform="translate(-200 -158.03)" fill="#e1e1e1"/><path d="M393.2,412.93a40.25,40.25,0,0,1-9.81,0c0-.17,2.2-.3,4.9-.3S393.2,412.76,393.2,412.93Z" transform="translate(-200 -158.03)" fill="#e1e1e1"/><path d="M393.2,423.91c0,.17-2.2.3-4.91.3s-4.9-.13-4.9-.3a40.25,40.25,0,0,1,9.81,0Z" transform="translate(-200 -158.03)" fill="#e1e1e1"/><path d="M393.2,434.9a40.25,40.25,0,0,1-9.81,0c0-.17,2.2-.3,4.9-.3S393.2,434.73,393.2,434.9Z" transform="translate(-200 -158.03)" fill="#e1e1e1"/><path d="M393.2,445.88c0,.17-2.2.3-4.91.3s-4.9-.13-4.9-.3a40.25,40.25,0,0,1,9.81,0Z" transform="translate(-200 -158.03)" fill="#e1e1e1"/><path d="M393.2,456.87c0,.17-2.2.3-4.91.3s-4.9-.13-4.9-.3,2.2-.3,4.9-.3S393.2,456.7,393.2,456.87Z" transform="translate(-200 -158.03)" fill="#e1e1e1"/><path d="M393.2,467.86a40.25,40.25,0,0,1-9.81,0c0-.17,2.2-.3,4.9-.3S393.2,467.69,393.2,467.86Z" transform="translate(-200 -158.03)" fill="#e1e1e1"/><path d="M393.2,478.84c0,.17-2.2.3-4.91.3s-4.9-.13-4.9-.3a40.25,40.25,0,0,1,9.81,0Z" transform="translate(-200 -158.03)" fill="#e1e1e1"/><path d="M393.2,489.83a40.25,40.25,0,0,1-9.81,0c0-.17,2.2-.3,4.9-.3S393.2,489.66,393.2,489.83Z" transform="translate(-200 -158.03)" fill="#e1e1e1"/><path d="M393.2,500.81c0,.17-2.2.3-4.91.3s-4.9-.13-4.9-.3a40.25,40.25,0,0,1,9.81,0Z" transform="translate(-200 -158.03)" fill="#e1e1e1"/><path d="M393.2,511.8a40.25,40.25,0,0,1-9.81,0c0-.17,2.2-.3,4.9-.3S393.2,511.63,393.2,511.8Z" transform="translate(-200 -158.03)" fill="#e1e1e1"/><path d="M393.2,522.78c0,.17-2.2.3-4.91.3s-4.9-.13-4.9-.3a40.25,40.25,0,0,1,9.81,0Z" transform="translate(-200 -158.03)" fill="#e1e1e1"/><path d="M393.2,533.77c0,.17-2.2.3-4.91.3s-4.9-.13-4.9-.3,2.2-.3,4.9-.3S393.2,533.6,393.2,533.77Z" transform="translate(-200 -158.03)" fill="#e1e1e1"/><path d="M393.2,544.76a40.25,40.25,0,0,1-9.81,0c0-.17,2.2-.3,4.9-.3S393.2,544.59,393.2,544.76Z" transform="translate(-200 -158.03)" fill="#e1e1e1"/><path d="M393.2,555.74c0,.17-2.2.3-4.91.3s-4.9-.13-4.9-.3a40.25,40.25,0,0,1,9.81,0Z" transform="translate(-200 -158.03)" fill="#e1e1e1"/><path d="M432.52,401.29c0,.17-5.7.3-12.73.3s-12.73-.13-12.73-.3,5.7-.3,12.73-.3S432.52,401.13,432.52,401.29Z" transform="translate(-200 -158.03)" fill="#ff4f5b"/><path d="M432.52,555.74c0,.17-5.7.3-12.73.3s-12.73-.13-12.73-.3,5.7-.3,12.73-.3S432.52,555.58,432.52,555.74Z" transform="translate(-200 -158.03)" fill="#ff4f5b"/><path d="M468,423.91c0,.17-10.66.3-23.81.3s-23.82-.13-23.82-.3,10.66-.3,23.82-.3S468,423.75,468,423.91Z" transform="translate(-200 -158.03)" fill="#ff4f5b"/><path d="M523.05,423.91c0,.17-10.67.3-23.82.3s-23.81-.13-23.81-.3,10.66-.3,23.81-.3S523.05,423.75,523.05,423.91Z" transform="translate(-200 -158.03)" fill="#e1e1e1"/><path d="M502,434.9c0,.16-15.72.3-35.1.3s-35.1-.14-35.1-.3,15.71-.3,35.1-.3S502,434.73,502,434.9Z" transform="translate(-200 -158.03)" fill="#e1e1e1"/><path d="M502,445.88c0,.17-15.72.3-35.1.3s-35.1-.13-35.1-.3,15.71-.3,35.1-.3S502,445.72,502,445.88Z" transform="translate(-200 -158.03)" fill="#e1e1e1"/><path d="M550.32,478.84c0,.17-15.72.3-35.1.3s-35.1-.13-35.1-.3,15.71-.3,35.1-.3S550.32,478.68,550.32,478.84Z" transform="translate(-200 -158.03)" fill="#e1e1e1"/><path d="M529.46,456.87c0,.17-15.71.3-35.09.3s-35.1-.13-35.1-.3,15.71-.3,35.1-.3S529.46,456.7,529.46,456.87Z" transform="translate(-200 -158.03)" fill="#e1e1e1"/><path d="M615.25,456.87c0,.17-15.72.3-35.1.3s-35.1-.13-35.1-.3,15.71-.3,35.1-.3S615.25,456.7,615.25,456.87Z" transform="translate(-200 -158.03)" fill="#e1e1e1"/><path d="M585.41,434.9c0,.16-15.71.3-35.09.3s-35.1-.14-35.1-.3,15.71-.3,35.1-.3S585.41,434.73,585.41,434.9Z" transform="translate(-200 -158.03)" fill="#fafafa"/><path d="M633.9,478.84c0,.17-15.71.3-35.09.3s-35.1-.13-35.1-.3,15.71-.3,35.1-.3S633.9,478.68,633.9,478.84Z" transform="translate(-200 -158.03)" fill="#fafafa"/><path d="M624.22,445.88c0,.17-24.4.3-54.5.3s-54.5-.13-54.5-.3,24.4-.3,54.5-.3S624.22,445.72,624.22,445.88Z" transform="translate(-200 -158.03)" fill="#375a64"/><path d="M432.52,412.93c0,.16-5.7.3-12.73.3s-12.73-.14-12.73-.3,5.7-.3,12.73-.3S432.52,412.76,432.52,412.93Z" transform="translate(-200 -158.03)" fill="#fafafa"/><path d="M432.52,544.76c0,.16-5.7.3-12.73.3s-12.73-.14-12.73-.3,5.7-.3,12.73-.3S432.52,544.59,432.52,544.76Z" transform="translate(-200 -158.03)" fill="#fafafa"/><path d="M445.13,456.87c0,.17-5.7.3-12.73.3s-12.73-.13-12.73-.3,5.7-.3,12.73-.3S445.13,456.7,445.13,456.87Z" transform="translate(-200 -158.03)" fill="#fafafa"/><path d="M649.16,456.87c0,.17-5.7.3-12.73.3s-12.73-.13-12.73-.3,5.7-.3,12.73-.3S649.16,456.7,649.16,456.87Z" transform="translate(-200 -158.03)" fill="#ff4f5b"/><path d="M468,500.75c0,.16-10.66.3-23.81.3s-23.82-.14-23.82-.3,10.66-.3,23.82-.3S468,500.58,468,500.75Z" transform="translate(-200 -158.03)" fill="#ff4f5b"/><path d="M523.05,500.75c0,.16-10.67.3-23.82.3s-23.81-.14-23.81-.3,10.66-.3,23.81-.3S523.05,500.58,523.05,500.75Z" transform="translate(-200 -158.03)" fill="#e1e1e1"/><path d="M502,511.73c0,.17-15.72.3-35.1.3s-35.1-.13-35.1-.3,15.71-.3,35.1-.3S502,511.57,502,511.73Z" transform="translate(-200 -158.03)" fill="#e1e1e1"/><path d="M502,522.72c0,.17-15.72.3-35.1.3s-35.1-.13-35.1-.3,15.71-.3,35.1-.3S502,522.55,502,522.72Z" transform="translate(-200 -158.03)" fill="#e1e1e1"/><path d="M529.46,533.71c0,.16-15.71.29-35.09.29s-35.1-.13-35.1-.29,15.71-.3,35.1-.3S529.46,533.54,529.46,533.71Z" transform="translate(-200 -158.03)" fill="#e1e1e1"/><path d="M615.25,533.71c0,.16-15.72.29-35.1.29s-35.1-.13-35.1-.29,15.71-.3,35.1-.3S615.25,533.54,615.25,533.71Z" transform="translate(-200 -158.03)" fill="#e1e1e1"/><path d="M585.41,511.73c0,.17-15.71.3-35.09.3s-35.1-.13-35.1-.3,15.71-.3,35.1-.3S585.41,511.57,585.41,511.73Z" transform="translate(-200 -158.03)" fill="#fafafa"/><path d="M624.22,522.72c0,.17-24.4.3-54.5.3s-54.5-.13-54.5-.3,24.4-.3,54.5-.3S624.22,522.55,624.22,522.72Z" transform="translate(-200 -158.03)" fill="#375a64"/><path d="M445.13,533.71c0,.16-5.7.29-12.73.29s-12.73-.13-12.73-.29,5.7-.3,12.73-.3S445.13,533.54,445.13,533.71Z" transform="translate(-200 -158.03)" fill="#fafafa"/><path d="M649.16,533.71c0,.16-5.7.29-12.73.29s-12.73-.13-12.73-.29,5.7-.3,12.73-.3S649.16,533.54,649.16,533.71Z" transform="translate(-200 -158.03)" fill="#ff4f5b"/><path d="M908,601.52c0,.17-158.5.3-354,.3s-354-.13-354-.3,158.47-.3,354-.3S908,601.36,908,601.52Z" transform="translate(-200 -158.03)" fill="#1a2e35"/><path d="M764.69,536.59,769,551a16,16,0,0,0,12.19,11.55l29,5.76,7.89-.27-7.89-10.33-21.8-7.86a6,6,0,0,1-4.4-4.42l-8.68-20-11,7.13Z" transform="translate(-200 -158.03)" fill="#ffbf9d"/><path d="M743.92,440.07a10.65,10.65,0,0,0-1.63-6.36c-1.11-1.86-2.72-3.56-4.77-3.9a5.49,5.49,0,0,0-5.65,3.52,7.91,7.91,0,0,0,.87,7.09,9.41,9.41,0,0,0,2.64,2.62,17.48,17.48,0,0,0-6.57,8.79c-.4,1.22-.67,2.49-1.18,3.67a5.26,5.26,0,0,1-2.4,2.81c-.82.39-1.75.44-2.59.76a5,5,0,0,0-2.86,3.51,6.36,6.36,0,0,0,.77,4.61,5.06,5.06,0,0,1,1,2.15,6.3,6.3,0,0,1-.31,1.59,4.61,4.61,0,0,0,1.9,4.78,4.08,4.08,0,0,0,4.88-.51,6.06,6.06,0,0,0,2.5,3.32,2.31,2.31,0,0,0,3.32-1.36,3.32,3.32,0,0,0,3.56,1.91,3.5,3.5,0,0,0,2.65-3.15l23.38-27.05C759.92,439,746.27,439.85,743.92,440.07Z" transform="translate(-200 -158.03)" fill="#ff4f5b"/><path d="M740,449.48a3,3,0,0,0-2.61,3.13h0L739,494.26c.06,4.92,8.5,10.74,13.48,10.62h0c5-.11,3.55-5.75,3.62-10.43.12-7.82.12-10.75.12-10.71s6.36-1.11,7.67-9.88c.66-4.36.45-11.51.1-17.35-.31-5.26-3.6-11.72-8.56-11.16Z" transform="translate(-200 -158.03)" fill="#ffbf9d"/><path d="M761.84,462.18a1.11,1.11,0,0,1-1,1.14,1,1,0,0,1-1.09-1,1.1,1.1,0,0,1,1-1.13A1,1,0,0,1,761.84,462.18Z" transform="translate(-200 -158.03)" fill="#1a2e35"/><path d="M762.53,460.22c-.13.15-.94-.48-2.08-.48s-2,.61-2.11.46.07-.33.44-.61a2.82,2.82,0,0,1,1.68-.55,2.68,2.68,0,0,1,1.66.57C762.47,459.89,762.59,460.16,762.53,460.22Z" transform="translate(-200 -158.03)" fill="#1a2e35"/><path d="M750.66,462.18a1.11,1.11,0,0,1-1,1.14,1,1,0,0,1-1.1-1,1.1,1.1,0,0,1,1-1.13A1,1,0,0,1,750.66,462.18Z" transform="translate(-200 -158.03)" fill="#1a2e35"/><path d="M751.28,460.45c-.13.15-.94-.48-2.08-.48s-2,.61-2.11.46.08-.33.44-.61a2.85,2.85,0,0,1,1.69-.55,2.73,2.73,0,0,1,1.66.56C751.23,460.12,751.35,460.39,751.28,460.45Z" transform="translate(-200 -158.03)" fill="#1a2e35"/><path d="M755.43,469.42a8.31,8.31,0,0,1,1.86-.35c.29,0,.57-.09.62-.3a1.58,1.58,0,0,0-.2-.92c-.27-.75-.56-1.53-.86-2.35a41.7,41.7,0,0,1-1.94-6.16,42,42,0,0,1,2.4,6c.29.82.57,1.61.83,2.36a1.89,1.89,0,0,1,.15,1.22.74.74,0,0,1-.48.45,1.86,1.86,0,0,1-.49.07A6.77,6.77,0,0,1,755.43,469.42Z" transform="translate(-200 -158.03)" fill="#1a2e35"/><path d="M756.22,483.74a20.17,20.17,0,0,1-11.1-3.13s2.7,6,11,5.2Z" transform="translate(-200 -158.03)" fill="#ff9a6c"/><path d="M755,472.34a2,2,0,0,0-1.85-.81,1.87,1.87,0,0,0-1.3.74,1.33,1.33,0,0,0-.09,1.44,1.34,1.34,0,0,0,1.5.4,4.1,4.1,0,0,0,1.46-.92,1.4,1.4,0,0,0,.33-.36.43.43,0,0,0,0-.45" transform="translate(-200 -158.03)" fill="#ff9a6c"/><path d="M752.07,470.26c.18,0,.19,1.3,1.25,2.23s2.38.79,2.39,1-.29.25-.85.27a3,3,0,0,1-2-.74,2.87,2.87,0,0,1-1-1.87C751.84,470.58,752,470.25,752.07,470.26Z" transform="translate(-200 -158.03)" fill="#1a2e35"/><path d="M751.8,458.33c-.12.33-1.26.18-2.6.35s-2.43.55-2.61.26c-.08-.14.11-.45.55-.77a4.13,4.13,0,0,1,1.93-.71,4,4,0,0,1,2,.25C751.6,457.92,751.84,458.18,751.8,458.33Z" transform="translate(-200 -158.03)" fill="#ff4f5b"/><path d="M762.11,456.72c-.2.28-1,0-1.94,0s-1.75.18-1.94-.1,0-.42.4-.68a2.68,2.68,0,0,1,3.12.1C762.09,456.31,762.2,456.59,762.11,456.72Z" transform="translate(-200 -158.03)" fill="#ff4f5b"/><path d="M738.27,463.51a2,2,0,0,0-2.17.11,4.31,4.31,0,0,0-1.72,4.83,4,4,0,0,0,4.14,2.72" transform="translate(-200 -158.03)" fill="#ffbf9d"/><path d="M751.3,442.43a16.14,16.14,0,0,1,8,2.61,12,12,0,0,1,5.69,7.14,2.65,2.65,0,0,1-.07,2,1.76,1.76,0,0,1-2.27.52,5.42,5.42,0,0,1-1.85-1.81,3.5,3.5,0,0,1-6.88-.08,3.19,3.19,0,0,1-3.2,3,4.15,4.15,0,0,1-3.53-2.95,11.22,11.22,0,0,1-1.46,4.28,3.45,3.45,0,0,1-3.75,1.62,8.11,8.11,0,0,1-.05,3.92c-.44,1.24-1.74,2.24-2.93,1.81s-1.59-1.85-1.86-3.11a30.84,30.84,0,0,1-.89-7.34,12.38,12.38,0,0,1,2.14-7,11.07,11.07,0,0,1,6.07-4,25.42,25.42,0,0,1,7.22-.7" transform="translate(-200 -158.03)" fill="#ff4f5b"/><path d="M737.69,468.56c0-.07-.33.07-.73-.12a1.73,1.73,0,0,1,.18-2.91c.41-.18.72-.09.73-.16s-.28-.27-.82-.14a1.44,1.44,0,0,0-.81.53,2,2,0,0,0-.42,1.15,1.76,1.76,0,0,0,1,1.83C737.42,468.89,737.73,468.59,737.69,468.56Z" transform="translate(-200 -158.03)" fill="#ff9a6c"/><path d="M734.53,469a1.3,1.3,0,0,0-.34.1,5.46,5.46,0,0,0-.92.44,7,7,0,0,0-2.7,2.69,5.66,5.66,0,0,0-.74,2.64,6.37,6.37,0,0,0,.69,3.08,7.11,7.11,0,0,0,2.2,2.6,5.85,5.85,0,0,0,3.38,1.15,6.4,6.4,0,0,0,5.6-3.7,6,6,0,0,0,.59-3.1,6.72,6.72,0,0,0-.8-2.62,6.1,6.1,0,0,0-2.74-2.64,4,4,0,0,0-1-.32q-.35-.06-.36,0a12.74,12.74,0,0,1,1.26.51,6.47,6.47,0,0,1,3.25,5.13,5.63,5.63,0,0,1-.58,2.88,6.06,6.06,0,0,1-5.25,3.44,6.19,6.19,0,0,1-5.23-3.49,5.75,5.75,0,0,1,0-5.37,7.31,7.31,0,0,1,2.52-2.7C734.09,469.23,734.55,469.05,734.53,469Z" transform="translate(-200 -158.03)" fill="#1a2e35"/><path d="M741.38,441.84c-.09,0-.26-.77-.78-1.91a10.67,10.67,0,0,0-2.86-3.82,9.91,9.91,0,0,0-4.17-2.05c-1.18-.27-1.94-.26-1.94-.35a3.77,3.77,0,0,1,2-.07,9,9,0,0,1,4.47,2,9.75,9.75,0,0,1,2.87,4.12A4.74,4.74,0,0,1,741.38,441.84Z" transform="translate(-200 -158.03)" fill="#e1e1e1"/><path d="M722.32,475.14s-.14-.05-.29-.29a1.73,1.73,0,0,1-.2-1.2,2.56,2.56,0,0,1,1-1.59,22.52,22.52,0,0,1,2.06-1.19,2.67,2.67,0,0,0,1.43-2.17,13.18,13.18,0,0,0-.56-3.3,6.71,6.71,0,0,1-.17-1.93,3.39,3.39,0,0,1,.77-1.91,7.39,7.39,0,0,1,3.51-1.95A5.66,5.66,0,0,0,733,457.7a5.14,5.14,0,0,0,.52-3.46,18.77,18.77,0,0,1-.22-3.47,9.74,9.74,0,0,1,.69-3,9.32,9.32,0,0,1,2.45-3.52,6.48,6.48,0,0,1,.92-.68q.35-.21.36-.18c0,.05-.43.34-1.13,1a9.76,9.76,0,0,0-2.23,3.5,9.86,9.86,0,0,0-.59,2.84,18.63,18.63,0,0,0,.27,3.38,5.72,5.72,0,0,1-.58,3.86,6.19,6.19,0,0,1-3.41,2.14A6.94,6.94,0,0,0,726.8,462a3.69,3.69,0,0,0-.51,3.33,12.89,12.89,0,0,1,.52,3.46,3.17,3.17,0,0,1-.58,1.56,3.77,3.77,0,0,1-1.12.94c-.79.44-1.53.7-2.08,1.1a2.24,2.24,0,0,0-1,1.36A1.73,1.73,0,0,0,722.32,475.14Z" transform="translate(-200 -158.03)" fill="#e1e1e1"/><path d="M751.87,452.51c-.09,0-.17-.92-.6-2.33a12.58,12.58,0,0,0-2.8-4.86,11.49,11.49,0,0,0-4.61-2.95c-1.33-.46-2.21-.53-2.21-.63A4.74,4.74,0,0,1,744,442a10.65,10.65,0,0,1,4.9,2.93,11.6,11.6,0,0,1,2.78,5.17A5.84,5.84,0,0,1,751.87,452.51Z" transform="translate(-200 -158.03)" fill="#e1e1e1"/><path d="M758.55,448.67a20.14,20.14,0,0,0-1.44-2.71,11.42,11.42,0,0,0-5.68-4.18,16.59,16.59,0,0,0-7-.59c-1.82.2-2.94.47-3,.37a9.87,9.87,0,0,1,2.9-.79,15.17,15.17,0,0,1,7.24.44,11,11,0,0,1,5.84,4.5,8.11,8.11,0,0,1,1,2.11C758.55,448.35,758.59,448.66,758.55,448.67Z" transform="translate(-200 -158.03)" fill="#e1e1e1"/><path d="M744.08,439.64c.06,0-.2.58-.84,1.27a8,8,0,0,1-3,2,7.76,7.76,0,0,1-3.54.47,2.74,2.74,0,0,1-1.42-.42c0-.19,2.24.37,4.77-.61S744,439.51,744.08,439.64Z" transform="translate(-200 -158.03)" fill="#1a2e35"/><path d="M749.9,601.6c-19.91-7-6.26-34.84-6.26-34.84l87.06,8.66c7,0,12.68,5.93,12.68,13.32h0c0,7.36-5.64,13.32-12.6,13.32l-80.88-.46" transform="translate(-200 -158.03)" fill="#1a2e35"/><path d="M729.52,601.57c-19.4-6.93-6-34.82-6-34.82l84.87,8.47c8.29.11,12.33,4.34,12.33,13.28h0c0,7.36-2.58,13.56-12.3,13.35l-78.87-.28" transform="translate(-200 -158.03)" fill="#1a2e35"/><path d="M749.23,571.46h.24l.7,0,2.72.12,10,.52L795.81,574c1.61.08,3.2.23,4.76.25s3.12.1,4.64.19,3,.22,4.46.39a15.22,15.22,0,0,1,4.25.92,9.65,9.65,0,0,1,5.67,6,19,19,0,0,1,.87,3.93,28.08,28.08,0,0,1,.23,3.71,16.57,16.57,0,0,1-1.12,6.25,10.16,10.16,0,0,1-2.64,3.81,7,7,0,0,1-2.4,1.43c-.6.2-.61.14,0-.09a7.64,7.64,0,0,0,2.33-1.49,10.27,10.27,0,0,0,2.52-3.77,16.47,16.47,0,0,0,1-6.14,31.5,31.5,0,0,0-.26-3.66,19.07,19.07,0,0,0-.88-3.83,9.47,9.47,0,0,0-2.07-3.47,9.65,9.65,0,0,0-3.4-2.28,14.89,14.89,0,0,0-4.15-.88c-1.45-.16-2.93-.28-4.45-.37s-3-.16-4.62-.18-3.15-.17-4.76-.25l-32.94-2.06-10-.67-2.71-.21-.71-.07Z" transform="translate(-200 -158.03)" fill="#375a64"/><path d="M779.4,573.28l-7-3.62-4.86-17.13-.46-21.82,9.85-4.39-7.82-20.77c-1.42-3.07-4.3-11.2-11.7-13.88a10.15,10.15,0,0,1,.25-3.44c.58-1-18-1.63-19.1-1.22s.17,4,0,4.61c-6.61,1.93-13.06,4.82-15.47,14.45-.94,3.75-.62,11.67-.12,15.48l5.18,28.92-2.9,9.49s-10.17,22.41-6.32,31.17,10.41,10.73,10.41,10.73l50.68-.11Z" transform="translate(-200 -158.03)" fill="#ff4f5b"/><g opacity="0.3"><path d="M728.55,539a112.13,112.13,0,0,0,3.72,13.67,29.8,29.8,0,0,0,4.07,7.89,18.67,18.67,0,0,0,9.76,6.3,29.18,29.18,0,0,0,11.55.6L738.47,556l-5.1-18.74Z" transform="translate(-200 -158.03)"/></g><path d="M767.55,551.93a10.34,10.34,0,0,1-.14-1.55c0-1.08-.11-2.51-.19-4.23-.15-3.57-.31-8.5-.47-13.95s-.27-10.39-.33-14c0-1.72,0-3.15,0-4.23a10.1,10.1,0,0,1,0-1.56,9.75,9.75,0,0,1,.13,1.55c.05,1.08.12,2.51.2,4.23.14,3.57.31,8.5.47,13.95s.27,10.39.33,14c0,1.73,0,3.15.05,4.24A9.9,9.9,0,0,1,767.55,551.93Z" transform="translate(-200 -158.03)" fill="#1a2e35"/><path d="M748.78,531.51a1.43,1.43,0,0,1-.35.15l-1.07.42-4.19,1.55-15.29,5.59-.25.09,0-.28c-1-5.88-2.26-12.76-3.57-20.2v0c-.21-3.66-.9-7.5-.6-11.52a11.25,11.25,0,0,1,.74-2.82,14.44,14.44,0,0,1,1.27-2.55,10.37,10.37,0,0,1,4-3.63,8.44,8.44,0,0,1,9.55,1.09,12.62,12.62,0,0,1,2.55,4.13,41.11,41.11,0,0,1,1.5,4.32c.8,2.83,1.41,5.51,2,8,1.16,4.84,2.11,8.78,2.77,11.55l.73,3.12.18.8a.78.78,0,0,1,0,.26,1.32,1.32,0,0,1-.09-.29c-.06-.22-.14-.49-.23-.83l-.83-3.13c-.72-2.75-1.73-6.64-3-11.43-.62-2.4-1.25-5.06-2.07-7.87a39.42,39.42,0,0,0-1.5-4.26,12.32,12.32,0,0,0-2.44-3.92,8,8,0,0,0-9-1,9.78,9.78,0,0,0-3.8,3.44,12.81,12.81,0,0,0-1.21,2.43,10.48,10.48,0,0,0-.71,2.66c-.28,3.88.39,7.72.6,11.43v0c1.28,7.45,2.47,14.33,3.48,20.22l-.3-.18,15.24-5.3,4.27-1.46,1.13-.37A1.85,1.85,0,0,1,748.78,531.51Z" transform="translate(-200 -158.03)" fill="#1a2e35"/><path d="M733.53,536.86c-.15,0-.55-.84-.9-2s-.52-2.13-.37-2.18.56.84.91,2S733.68,536.81,733.53,536.86Z" transform="translate(-200 -158.03)" fill="#1a2e35"/><path d="M738.52,535.37c-.15,0-.49-.83-.74-1.94s-.35-2-.19-2.08.48.83.74,1.94S738.67,535.33,738.52,535.37Z" transform="translate(-200 -158.03)" fill="#1a2e35"/><path d="M743.55,533.46c-.15,0-.48-.66-.74-1.58s-.36-1.71-.2-1.76.48.66.74,1.59S743.7,533.42,743.55,533.46Z" transform="translate(-200 -158.03)" fill="#1a2e35"/><path d="M770.79,529.05c-.13.09-.7-.68-1.09-1.79s-.45-2.08-.3-2.1.44.84.83,1.89S770.93,529,770.79,529.05Z" transform="translate(-200 -158.03)" fill="#1a2e35"/><path d="M774.58,526.78c-.14.08-.59-.59-1-1.47s-.65-1.68-.51-1.75.6.59,1,1.48S774.72,526.71,774.58,526.78Z" transform="translate(-200 -158.03)" fill="#1a2e35"/><path d="M741.51,492.49c.06,0,.09.2.1.52h-.3a26,26,0,0,1-.35-2.73,9.62,9.62,0,0,1,0-3.29,9.54,9.54,0,0,1,.54,3.24,21.81,21.81,0,0,1,.08,2.75h-.3C741.39,492.66,741.46,492.48,741.51,492.49Z" transform="translate(-200 -158.03)" fill="#1a2e35"/><path d="M746,492.5a13.09,13.09,0,0,1-.38-5.38,13.09,13.09,0,0,1,.38,5.38Z" transform="translate(-200 -158.03)" fill="#1a2e35"/><path d="M750.78,493.57a9.12,9.12,0,0,1-.33-3.22,9.79,9.79,0,0,1,.24-3.23,9.2,9.2,0,0,1,.33,3.23A9.66,9.66,0,0,1,750.78,493.57Z" transform="translate(-200 -158.03)" fill="#1a2e35"/><path d="M754.66,492.9a13.23,13.23,0,0,1,0-5.51,13.69,13.69,0,0,1,0,5.51Z" transform="translate(-200 -158.03)" fill="#1a2e35"/><path d="M779.72,573.89c0,.17-9.45-.38-21.09-1.22s-21.06-1.65-21-1.82,9.45.38,21.09,1.22S779.73,573.73,779.72,573.89Z" transform="translate(-200 -158.03)" fill="#1a2e35"/><path d="M730.8,538.23l4.68,16.07A16.13,16.13,0,0,0,747.67,566l29,5.83,7.89-.27-2.69-7.13-27-11.29a6,6,0,0,1-4.4-4.48l-4.08-16.17Z" transform="translate(-200 -158.03)" fill="#ffbf9d"/><polygon points="556.44 414.01 556.69 412.02 578.97 411.1 589.91 381.93 631.56 384.92 617.51 417.3 556.44 414.01" fill="#375a64"/><path d="M806.3,558.88a2.11,2.11,0,0,1-3,.72,2.4,2.4,0,0,1-.68-3.19,2.1,2.1,0,0,1,3-.71A2.38,2.38,0,0,1,806.3,558.88Z" transform="translate(-200 -158.03)" fill="#fff"/><path d="M453.91,362.6c18.15-7,8.83-35.92,8.83-35.92l-92.14,8.93c-7.2-.05-13.07,6.11-13.07,13.73h0c0,7.59,5.81,13.74,13,13.74l83.4-.48" transform="translate(-200 -158.03)" fill="#1a2e35"/><path d="M335.27,442.79l-.19-9.66,17.53-6.59.72,13.46-1,.5c-4.4,2.2-22.52,10.85-25.9,11.18C322.68,452.05,335.27,442.79,335.27,442.79Z" transform="translate(-200 -158.03)" fill="#ff4f5b"/><g opacity="0.4"><path d="M329.22,447.57s-4.29,3.57-3.36,4.15,19.55-7.43,27.47-11.72l-.17-.38-21.65,9.55S330.18,447.2,329.22,447.57Z" transform="translate(-200 -158.03)" fill="#fff"/></g><path d="M353.41,439.5l-.27.15-.78.4-2.91,1.41c-2.47,1.18-5.9,2.75-9.72,4.4s-7.32,3.06-9.86,4.05l-3,1.14-.83.3a1.14,1.14,0,0,1-.29.09l.28-.13.81-.34,3-1.21c2.52-1,6-2.46,9.83-4.11s7.25-3.2,9.73-4.33l2.94-1.35.81-.36Z" transform="translate(-200 -158.03)" fill="#1a2e35"/><path d="M331.62,449.44a7.2,7.2,0,0,0-1.13-1.26,7.41,7.41,0,0,0-1.47-.77,2.34,2.34,0,0,1,1.6.59A2.5,2.5,0,0,1,331.62,449.44Z" transform="translate(-200 -158.03)" fill="#1a2e35"/><path d="M335.44,444.78c0,.05-.38-.14-.77-.44s-.68-.57-.65-.62.38.14.77.44S335.47,444.73,335.44,444.78Z" transform="translate(-200 -158.03)" fill="#1a2e35"/><path d="M336.48,443.47c0,.06-.35,0-.74-.15s-.67-.32-.65-.37.34,0,.73.15A1.6,1.6,0,0,1,336.48,443.47Z" transform="translate(-200 -158.03)" fill="#1a2e35"/><path d="M336.68,441.49c0,.05-.34.27-.8.48s-.87.33-.89.27.34-.27.8-.48S336.66,441.43,336.68,441.49Z" transform="translate(-200 -158.03)" fill="#1a2e35"/><path d="M336.53,440.22s-.3.42-.84.7a1.69,1.69,0,0,1-1,.28,5.36,5.36,0,0,1,.94-.49A5.62,5.62,0,0,1,336.53,440.22Z" transform="translate(-200 -158.03)" fill="#1a2e35"/><path d="M334.31,443.51a3.12,3.12,0,0,1-1.05.45,6.36,6.36,0,0,1-1.22.22,3.75,3.75,0,0,1-.75,0,.64.64,0,0,1-.39-.24.49.49,0,0,1,0-.51,2,2,0,0,1,2.61-.43,2,2,0,0,1,.62.6c.12.17.16.28.14.28a3.16,3.16,0,0,0-.84-.74,2,2,0,0,0-1.13-.23,1.74,1.74,0,0,0-1.21.63c-.12.2,0,.38.25.42a3.27,3.27,0,0,0,.7,0,6.42,6.42,0,0,0,1.19-.17C333.89,443.65,334.29,443.48,334.31,443.51Z" transform="translate(-200 -158.03)" fill="#1a2e35"/><path d="M334.06,443.69a1.16,1.16,0,0,1-.42-.72,2,2,0,0,1,0-.93,1.19,1.19,0,0,1,.66-.94c.25-.08.48.17.52.37a1.38,1.38,0,0,1,0,.57,3.72,3.72,0,0,1-.24.88,1.66,1.66,0,0,1-.42.71s.13-.29.28-.76a4.41,4.41,0,0,0,.19-.86c.05-.29,0-.76-.3-.69s-.43.47-.51.76a2,2,0,0,0,0,.85A4.28,4.28,0,0,0,334.06,443.69Z" transform="translate(-200 -158.03)" fill="#1a2e35"/><path d="M351.26,434.92c0,.05-.48.16-1.19.57a5.79,5.79,0,0,0-2.18,2.28,6.24,6.24,0,0,0-.7,3.16c0,.85.2,1.35.16,1.36a1.12,1.12,0,0,1-.13-.34,5.33,5.33,0,0,1-.18-1,6,6,0,0,1,.66-3.28,5.51,5.51,0,0,1,2.3-2.31,4.94,4.94,0,0,1,.91-.37A1.48,1.48,0,0,1,351.26,434.92Z" transform="translate(-200 -158.03)" fill="#1a2e35"/><path d="M346.81,428.47a34.29,34.29,0,0,1,1.5,3.49,30.71,30.71,0,0,1,1.31,3.57,34.29,34.29,0,0,1-1.5-3.49A30.71,30.71,0,0,1,346.81,428.47Z" transform="translate(-200 -158.03)" fill="#1a2e35"/><path d="M344.67,441.61a10.26,10.26,0,0,1-2.29,1.27,9.19,9.19,0,0,1-2.46.82c0-.06,1.07-.45,2.38-1S344.64,441.55,344.67,441.61Z" transform="translate(-200 -158.03)" fill="#1a2e35"/><path d="M347.86,440.22c.06,0,0,.28,0,.59s0,.56,0,.58-.19-.24-.18-.59S347.81,440.2,347.86,440.22Z" transform="translate(-200 -158.03)" fill="#1a2e35"/><path d="M348.46,438.12c.05,0,0,.25-.09.5s-.22.44-.27.42,0-.25.08-.5S348.4,438.1,348.46,438.12Z" transform="translate(-200 -158.03)" fill="#1a2e35"/><path d="M349.9,436.65c0,.07-.21.16-.41.35s-.33.4-.38.38,0-.32.24-.55S349.9,436.59,349.9,436.65Z" transform="translate(-200 -158.03)" fill="#1a2e35"/><path d="M351,435.78c0,.05,0,.18-.14.29s-.24.17-.28.12,0-.17.14-.28S351,435.74,351,435.78Z" transform="translate(-200 -158.03)" fill="#1a2e35"/><path d="M405.61,334.29l-51.45,1c-8.23.16-15.09,6.7-16.1,15.34l-10.2,87.7h27.95l8.53-75.75h40.57Z" transform="translate(-200 -158.03)" fill="#1a2e35"/><path d="M328.21,432.77c0,.14,6.12.3,13.67.35s13.55-.15,13.68-.17c.86-.09-6.12-.29-13.68-.34S328.21,432.63,328.21,432.77Z" transform="translate(-200 -158.03)" fill="#375a64"/><path d="M433.91,331.53h-.26l-.75,0-2.89.11-10.64.53-35.08,1.93c-1.72.08-3.41.23-5.08.25s-3.32.1-4.94.2-3.2.22-4.76.38a17.14,17.14,0,0,0-4.52.93,11.1,11.1,0,0,0-3.76,2.42A10,10,0,0,0,359,342a18.84,18.84,0,0,0-.93,4,30.5,30.5,0,0,0-.25,3.74A15.88,15.88,0,0,0,359,356a10.37,10.37,0,0,0,2.81,3.84,7.66,7.66,0,0,0,2.56,1.45c.64.2.65.13,0-.1a7.88,7.88,0,0,1-2.48-1.5,10.42,10.42,0,0,1-2.69-3.8,16,16,0,0,1-1.1-6.2,26.57,26.57,0,0,1,.28-3.69,18.3,18.3,0,0,1,.93-3.87,9.64,9.64,0,0,1,2.2-3.5,10.55,10.55,0,0,1,3.63-2.3,16.68,16.68,0,0,1,4.42-.89c1.54-.16,3.13-.28,4.74-.37s3.25-.16,4.92-.19,3.36-.17,5.08-.25l35.08-2.07,10.64-.69,2.89-.21.75-.06A1,1,0,0,0,433.91,331.53Z" transform="translate(-200 -158.03)" fill="#375a64"/><path d="M417.52,295.15,413.05,310a16.55,16.55,0,0,1-12.57,11.91l-26,7.62-2-5.09-1.89-7.52,22.48-8.11a6.17,6.17,0,0,0,4.53-4.55l9-20.59L417.88,291Z" transform="translate(-200 -158.03)" fill="#c78976"/><path d="M428.42,248.79C418.9,250,415.83,254.06,412,260a34.49,34.49,0,0,0-3.85,8l-7.21,21.61,15.05,4.9-.51,17.65-6.85,21.47,57.8,4.81-.17-31.21-.41-18.83c.54-7.13,1.95-22.26.75-25.84-5.14-15.34-16.49-12.39-24.82-14.58-1.71-.45-10-.36-11.46,0" transform="translate(-200 -158.03)" fill="#ff4f5b"/><path d="M466.38,305.24c0,.16-11.31.3-25.25.3s-25.25-.14-25.25-.3,11.3-.3,25.25-.3S466.38,305.07,466.38,305.24Z" transform="translate(-200 -158.03)" fill="#fafafa"/><path d="M465.53,315.91c0,.16-11.3.3-25.25.3s-25.25-.14-25.25-.3,11.3-.3,25.25-.3S465.53,315.74,465.53,315.91Z" transform="translate(-200 -158.03)" fill="#fafafa"/><path d="M465.8,328.15c0,.17-12,.3-26.7.3s-26.7-.13-26.7-.3,12-.3,26.7-.3S465.8,328,465.8,328.15Z" transform="translate(-200 -158.03)" fill="#fafafa"/><g opacity="0.3"><path d="M458.78,298.41c-.75,4.14-1.07,8.6-2.41,12.57a31.14,31.14,0,0,1-3.87,8.32,19.38,19.38,0,0,1-9.8,6.95c-3.81,1.25-22.16,5.59-26.15,5.27l33.57-16.81L454.17,297Z" transform="translate(-200 -158.03)"/></g><path d="M456.82,297.8l-3.69,15a16.75,16.75,0,0,1-12.07,12.61l-29.64,7.35-8.13.08V321l29.82-8.52a6.27,6.27,0,0,0,4.35-4.81l2.87-13.21Z" transform="translate(-200 -158.03)" fill="#c78976"/><g opacity="0.3"><path d="M435.33,296.39" transform="translate(-200 -158.03)" fill="none" stroke="#000" stroke-miterlimit="10" stroke-width="0.25"/></g><path d="M466.67,261.64c0,.16-12.46.3-27.83.3s-27.83-.14-27.83-.3,12.46-.3,27.83-.3S466.67,261.47,466.67,261.64Z" transform="translate(-200 -158.03)" fill="#fafafa"/><path d="M467,271.82c0,.17-13.43.3-30,.3s-30-.13-30-.3,13.42-.3,30-.3S467,271.66,467,271.82Z" transform="translate(-200 -158.03)" fill="#fafafa"/><path d="M466.24,282.83c0,.17-14.14.42-31.57.56s-31.58.13-31.58,0,14.13-.42,31.57-.56S466.24,282.67,466.24,282.83Z" transform="translate(-200 -158.03)" fill="#fafafa"/><path d="M465.8,294.5c0,.16-11.31.29-25.25.29s-25.25-.13-25.25-.29,11.3-.3,25.25-.3S465.8,294.33,465.8,294.5Z" transform="translate(-200 -158.03)" fill="#fafafa"/><path d="M461.9,299.05a.94.94,0,0,1,0-.25l.09-.72c.1-.68.24-1.61.41-2.8.36-2.43.88-6,1.45-10.39s1.24-9.75,1.58-15.76c.11-3,.35-6.26-1.12-9.17a9.73,9.73,0,0,0-3.05-3.66,10.45,10.45,0,0,0-4.48-1.83h-.06a8.73,8.73,0,0,0-5.5.4,15,15,0,0,0-5.1,2.93,4.23,4.23,0,0,0-.78.92,12,12,0,0,0-.57,1.13,15.74,15.74,0,0,0-.84,2.42,50.29,50.29,0,0,0-1,5c-.56,3.33-1.11,6.57-1.63,9.69-1.07,6.23-2.05,12-2.91,17.08l-.17-.26L455,297.54l4.61,1.08,1.2.3a2.18,2.18,0,0,1,.4.13l-.42-.06-1.21-.23-4.63-.95-16.79-3.59-.21-.05,0-.22c.84-5.1,1.8-10.87,2.83-17.11.52-3.13,1.06-6.37,1.61-9.7.28-1.67.56-3.36,1-5.06a17.58,17.58,0,0,1,.86-2.5,12.1,12.1,0,0,1,.61-1.19,4.56,4.56,0,0,1,.88-1.06,15.73,15.73,0,0,1,5.3-3,9.18,9.18,0,0,1,5.85-.38l-.06,0a11,11,0,0,1,4.73,2,10.17,10.17,0,0,1,3.22,3.88,12.68,12.68,0,0,1,.84,2.35,15.81,15.81,0,0,1,.35,2.43l.06,1.2c0,.39,0,.78,0,1.17,0,.78,0,1.55-.1,2.3-.37,6-1.09,11.36-1.7,15.78s-1.2,8-1.62,10.38c-.21,1.17-.38,2.1-.5,2.78-.06.28-.1.52-.14.71A1,1,0,0,1,461.9,299.05Z" transform="translate(-200 -158.03)" fill="#1a2e35"/><path d="M415.77,311.87a10.12,10.12,0,0,0,.07-1.6c0-1.12,0-2.59,0-4.37,0-3.68,0-8.77-.1-14.4s-.15-10.71-.23-14.39c-.06-1.78-.1-3.25-.13-4.37a10.88,10.88,0,0,0-.11-1.6,9.23,9.23,0,0,0-.08,1.6c0,1.12,0,2.59,0,4.37,0,3.68,0,8.77.09,14.4s.15,10.71.24,14.4c.05,1.77.09,3.24.13,4.36A10.88,10.88,0,0,0,415.77,311.87Z" transform="translate(-200 -158.03)" fill="#1a2e35"/><polygon points="233.91 177.41 234.43 174.84 211.98 172.32 202.19 142.57 156.48 142.23 171.46 176.73 233.91 177.41" fill="#375a64"/><path d="M385.77,319.29a2.46,2.46,0,0,0,.7-3.28,2.19,2.19,0,0,0-3.11-.74,2.46,2.46,0,0,0-.69,3.29,2.17,2.17,0,0,0,3.1.73" transform="translate(-200 -158.03)" fill="#fff"/><path d="M416.88,199.83a6.4,6.4,0,0,0-5,5.12,6.74,6.74,0,0,0,2.86,6.73,3.09,3.09,0,0,0,3,.37,4,4,0,0,0,1.66-2.52,14.4,14.4,0,0,0-.73-9.89" transform="translate(-200 -158.03)" fill="#1a2e35"/><path d="M435.74,258.56h0c-5.43,0-9.81-4.69-9.75-10.44,0-3.58.09-6.68.09-6.68s-7.83-.77-8.41-9-.33-27.14-.33-27.14h0a25.79,25.79,0,0,1,27.32,1.83l1.2.86-.37,40.32A10,10,0,0,1,435.74,258.56Z" transform="translate(-200 -158.03)" fill="#c78976"/><path d="M426.06,241.32a17.46,17.46,0,0,0,9.95-3.7s-2.05,6.06-9.84,5.83Z" transform="translate(-200 -158.03)" fill="#bf654e"/><path d="M443.86,217.09c.14-.05,4.91-.71,4.46,5.24s-6,3.51-6,3.34S443.86,217.09,443.86,217.09Z" transform="translate(-200 -158.03)" fill="#c78976"/><path d="M444.22,223.72s.09.08.25.18a1,1,0,0,0,.73.08,2.58,2.58,0,0,0,1.3-2.21,3.54,3.54,0,0,0-.16-1.51,1.18,1.18,0,0,0-.68-.86.49.49,0,0,0-.6.24c-.09.16-.06.28-.09.29s-.11-.11-.05-.36a.66.66,0,0,1,.25-.35.73.73,0,0,1,.55-.11,1.46,1.46,0,0,1,1,1,3.74,3.74,0,0,1,.21,1.69,2.68,2.68,0,0,1-1.62,2.45,1,1,0,0,1-.89-.23C444.22,223.87,444.2,223.73,444.22,223.72Z" transform="translate(-200 -158.03)" fill="#bf654e"/><path d="M422.7,208.72a23.22,23.22,0,0,0,3.66-2.8,6,6,0,0,0,4.3,2.88,5.79,5.79,0,0,0,4.82-1.7,3.22,3.22,0,0,0,1.53,2.59,2.87,2.87,0,0,0,2.89,0l.12,9.5a4.56,4.56,0,0,0,.56,2.62c.52.73,1.73.95,2.21.19a7.07,7.07,0,0,1,.3-3.43,2.14,2.14,0,0,1,2.71-1.28,25.23,25.23,0,0,0,.32-5.62,5.45,5.45,0,0,1,.22-1.72c.3-.52.45-.12,1-.24a4.22,4.22,0,0,0,3-3.83,5.51,5.51,0,0,0-2.15-4.61,6.6,6.6,0,0,0-4.81-1.22,3.37,3.37,0,0,0,0-4.32,4.81,4.81,0,0,0-4.09-1.59c-1.51.1-3.2,1-3.39,2.57a6.56,6.56,0,0,0-6-5.7,6.49,6.49,0,0,0-6.27,5.34c-1.81-.85-4.33-1.79-6.13-.92a6.2,6.2,0,0,0-3.73,5.46s-.46,6.51,3.44,7.83S422.7,208.72,422.7,208.72Z" transform="translate(-200 -158.03)" fill="#1a2e35"/><path d="M419.39,218.46a1.13,1.13,0,0,0,1.05,1.16,1.06,1.06,0,0,0,1.12-1,1.12,1.12,0,0,0-1.05-1.16A1.06,1.06,0,0,0,419.39,218.46Z" transform="translate(-200 -158.03)" fill="#1a2e35"/><path d="M419.15,217.16c.14.15,1-.49,2.13-.49s2,.63,2.16.47-.08-.33-.45-.62a2.89,2.89,0,0,0-1.73-.57,2.78,2.78,0,0,0-1.69.58C419.21,216.83,419.09,217.1,419.15,217.16Z" transform="translate(-200 -158.03)" fill="#1a2e35"/><path d="M430.86,218.75a1.11,1.11,0,0,0,1,1.16,1.07,1.07,0,0,0,1.13-1,1.12,1.12,0,0,0-1-1.16A1.06,1.06,0,0,0,430.86,218.75Z" transform="translate(-200 -158.03)" fill="#1a2e35"/><path d="M430.66,217.4c.14.15,1-.5,2.13-.5s2,.63,2.16.47-.08-.33-.45-.62a2.83,2.83,0,0,0-1.73-.56,2.72,2.72,0,0,0-1.69.57C430.72,217.06,430.59,217.33,430.66,217.4Z" transform="translate(-200 -158.03)" fill="#1a2e35"/><path d="M426.41,226.58a6.92,6.92,0,0,0-1.9-.36c-.3,0-.58-.1-.63-.32a1.63,1.63,0,0,1,.2-.93l.88-2.41a43.39,43.39,0,0,0,2-6.3,42,42,0,0,0-2.46,6.12c-.3.84-.58,1.65-.85,2.42a2,2,0,0,0-.16,1.24.78.78,0,0,0,.5.46,2.05,2.05,0,0,0,.5.08A7.55,7.55,0,0,0,426.41,226.58Z" transform="translate(-200 -158.03)" fill="#1a2e35"/><path d="M429.86,227.43c-.19,0-.2,1.34-1.28,2.29s-2.44.81-2.45,1,.3.27.87.28a3,3,0,0,0,2-.75,3,3,0,0,0,1-1.92C430.09,227.76,429.94,227.43,429.86,227.43Z" transform="translate(-200 -158.03)" fill="#1a2e35"/><path d="M430.36,212.54c.11.34,1.28.18,2.66.36s2.48.57,2.66.26c.08-.14-.11-.46-.56-.78a4.15,4.15,0,0,0-2-.73,4.23,4.23,0,0,0-2.08.25C430.56,212.12,430.31,212.38,430.36,212.54Z" transform="translate(-200 -158.03)" fill="#1a2e35"/><path d="M419.58,213.58c.21.28,1,0,2,0s1.79.19,2-.11c.08-.14-.05-.42-.41-.69a2.68,2.68,0,0,0-1.61-.46,2.59,2.59,0,0,0-1.58.57C419.6,213.15,419.49,213.44,419.58,213.58Z" transform="translate(-200 -158.03)" fill="#1a2e35"/><path d="M421.81,199.44s-.11-.05-.3-.09a1,1,0,0,0-.81.22,1.16,1.16,0,0,0-.36,1.25,2,2,0,0,0,1.16,1.34,2.38,2.38,0,0,0,2.1-.14,2.77,2.77,0,0,0,1.25-2.13,3.14,3.14,0,0,0-1-2.6,3.34,3.34,0,0,0-2.75-.93,4.37,4.37,0,0,0-2.66,1.4,5.53,5.53,0,0,0-1.28,2.64,7.54,7.54,0,0,0,.79,5,8.1,8.1,0,0,0,2.23,2.61c.64.49,1.05.69,1,.74a3.22,3.22,0,0,1-1.16-.54,7.93,7.93,0,0,1-3.4-7.93,6,6,0,0,1,1.39-2.94,4.85,4.85,0,0,1,3-1.58,3.84,3.84,0,0,1,3.18,1.09,3.71,3.71,0,0,1,1.12,3.09,3.29,3.29,0,0,1-1.55,2.51,2.72,2.72,0,0,1-2.48.08,2.31,2.31,0,0,1-1.31-1.65,1.43,1.43,0,0,1,.54-1.51,1.07,1.07,0,0,1,1-.15C421.75,199.32,421.82,199.43,421.81,199.44Z" transform="translate(-200 -158.03)" fill="#375a64"/><path d="M239.67,580.19c.73-3.06-1.18-6.12-3.31-8.32s-4.69-4.18-5.81-7.1c-1.81-4.74.56-10.9-2.52-14.85-1.81-2.32-5-3.08-6.64-5.56a13.34,13.34,0,0,1-1.46-4.44,46,46,0,0,0-10.74-21,41.08,41.08,0,0,0,4.28,20.25c1.25,2.48,2.78,4.9,3.2,7.68.69,4.51-1.66,9.17-.59,13.6,1.23,5.06,6.63,8.42,6.91,13.64.24,4.41-3.37,8.3-3.08,12.71a12.28,12.28,0,0,0,1.89,5.22c3.25,5.65,8,9.53,15.19,9.36l8.8.28Z" transform="translate(-200 -158.03)" fill="#ff4f5b"/><g opacity="0.3"><path d="M239.67,580.19c.73-3.06-1.18-6.12-3.31-8.32s-4.69-4.18-5.81-7.1c-1.81-4.74.56-10.9-2.52-14.85-1.81-2.32-5-3.08-6.64-5.56a13.34,13.34,0,0,1-1.46-4.44,46,46,0,0,0-10.74-21,41.08,41.08,0,0,0,4.28,20.25c1.25,2.48,2.78,4.9,3.2,7.68.69,4.51-1.66,9.17-.59,13.6,1.23,5.06,6.63,8.42,6.91,13.64.24,4.41-3.37,8.3-3.08,12.71a12.28,12.28,0,0,0,1.89,5.22c3.25,5.65,8,9.53,15.19,9.36l8.8.28Z" transform="translate(-200 -158.03)"/></g><path d="M247.57,601.92a6.72,6.72,0,0,0,2.43-.07,14.11,14.11,0,0,0,2.85-.78,11.94,11.94,0,0,0,3.52-2.07,5.1,5.1,0,0,0,1.44-2,10,10,0,0,0,.4-2.78,28.28,28.28,0,0,1,.19-3,8.5,8.5,0,0,1,1.06-3c1-1.94,2.74-3.77,3.28-6.39s.14-5.36-.28-8.15-.84-5.83.16-8.75,2.84-5.55,3.79-8.84.47-6.87.66-10.39a14.39,14.39,0,0,1,1.11-5.17c.71-1.65,1.69-3.21,2.45-5,1.54-3.52,1.79-7.49,2.2-11.39q.3-2.94.6-5.94a31.36,31.36,0,0,1,.94-6,56.23,56.23,0,0,1,2.08-5.77,20.43,20.43,0,0,0,1-3,32.07,32.07,0,0,0,.27-3.21,39.59,39.59,0,0,0-.27-6.43c-.25-2.15-.63-4.28-.86-6.43,0-.12,0-.25,0-.37l-.05-.43-.36.2a13.9,13.9,0,0,0-4.71,4.25,23.25,23.25,0,0,0-2.88,5.69c-1.45,4-1.95,8.2-2.67,12.2a34.35,34.35,0,0,1-3.56,11.27c-.95,1.67-2.11,3.19-3.12,4.81a13.57,13.57,0,0,0-2.16,5.32c-.49,3.93,1.57,7.38,1.17,10.87a12.68,12.68,0,0,1-1.58,4.83c-.79,1.5-1.73,2.88-2.61,4.27a28.11,28.11,0,0,0-2.34,4.31,14.44,14.44,0,0,0-1.05,4.67c-.2,3.14.24,6.11,0,8.92a21.26,21.26,0,0,1-2.13,7.66c-1.05,2.3-2.22,4.37-3.2,6.39-.49,1-1,2-1.32,3a15,15,0,0,0-.75,2.94,19.4,19.4,0,0,0,0,5.32,13.75,13.75,0,0,0,2.55,6.75,6.09,6.09,0,0,0,.72.81,3.2,3.2,0,0,0,.58.52l.5.37a12,12,0,0,1-1.71-1.77,14,14,0,0,1-2.42-6.71,19.32,19.32,0,0,1,.08-5.24,15,15,0,0,1,.76-2.88c.37-1,.83-1.93,1.33-2.93,1-2,2.17-4.06,3.25-6.37a21.91,21.91,0,0,0,2.2-7.8c.22-2.87-.21-5.85,0-8.92a13.71,13.71,0,0,1,1-4.51,27.21,27.21,0,0,1,2.31-4.22c.88-1.38,1.82-2.77,2.64-4.3a13.15,13.15,0,0,0,1.65-5c.4-3.72-1.65-7.18-1.14-10.85a13,13,0,0,1,2.08-5.08c1-1.59,2.16-3.11,3.15-4.82,2-3.43,2.92-7.44,3.63-11.46s1.24-8.18,2.66-12.1a22.72,22.72,0,0,1,2.8-5.54,13.37,13.37,0,0,1,4.52-4.08l-.41-.23c0,.12,0,.24,0,.37.23,2.18.61,4.31.86,6.43a39.68,39.68,0,0,1,.27,6.34,31,31,0,0,1-.26,3.11,19,19,0,0,1-1,2.9,57.12,57.12,0,0,0-2.09,5.84,30.82,30.82,0,0,0-.95,6c-.2,2-.4,4-.6,6-.4,3.92-.65,7.83-2.14,11.22-.73,1.69-1.71,3.25-2.43,5a14.94,14.94,0,0,0-1.15,5.36c-.17,3.59.29,7.1-.61,10.28s-2.8,5.83-3.76,8.84-.57,6.17-.14,8.95.88,5.53.33,8-2.16,4.32-3.21,6.31a9,9,0,0,0-1.07,3.12,27.1,27.1,0,0,0-.17,3,10.07,10.07,0,0,1-.36,2.7,5,5,0,0,1-1.35,2,12,12,0,0,1-3.44,2.07,14,14,0,0,1-2.81.83,10.63,10.63,0,0,1-1.79.19Z" transform="translate(-200 -158.03)" fill="#1a2e35"/><path d="M274.78,492.15s0,.09-.08.28-.12.5-.19.84c-.17.73-.37,1.84-.7,3.22s-1.12,2.95-1.8,4.87-1.4,4.13-2.05,6.61-1.24,5.25-1.85,8.2a35.68,35.68,0,0,1-2.76,9.11c-.72,1.51-1.52,3.05-2.15,4.72a22.66,22.66,0,0,0-1.24,5.35c-.41,3.69-1,7.43-1.84,11.27-1.72,7.63-3.36,14.9-4.86,21.53l-4.07,17.55c-1.13,5-2.05,9-2.7,11.85l-.71,3.23c-.07.34-.12.62-.17.85a1.58,1.58,0,0,0,0,.29.87.87,0,0,0,.1-.28l.22-.83c.2-.78.47-1.85.81-3.2.69-2.84,1.67-6.86,2.88-11.8s2.61-10.94,4.19-17.53,3.16-13.9,4.9-21.54a112.14,112.14,0,0,0,1.84-11.31,22.18,22.18,0,0,1,1.19-5.22c.61-1.63,1.4-3.16,2.11-4.69a35.68,35.68,0,0,0,2.76-9.24c.59-3,1.14-5.72,1.77-8.19s1.3-4.7,2-6.61,1.4-3.5,1.72-4.93.46-2.51.59-3.26c.05-.34.1-.62.13-.85A1.06,1.06,0,0,0,274.78,492.15Z" transform="translate(-200 -158.03)" fill="#1a2e35"/><path d="M249.13,601.94c5.72-3.65,7.31-14.62,4.88-21.21s-6.66-12.59-7.34-19.62c-.53-5.41,1.11-11-.1-16.25-1.65-7.12-8.27-12.61-8.23-19.94,0-4.12,2.21-8,2-12.11-.25-5-3.93-9-6.22-13.45-3.5-6.78-3.78-14.82-5-22.43s-4-15.77-10.43-19.47c-.91,6.47-2.5,10.92-1.94,19.68.2,3.15,3.69,9.16,4.19,16.05.31,4.13.53,8.26.79,12.38s.52,8.11,1.9,11.86c1.06,2.87,2.75,5.48,3.54,8.45,1.49,5.58-.4,11.65.81,17.31,1,4.8,4.19,8.91,4.86,13.77.93,6.84-3.21,14-1,20.48,1.08,3.23,3.62,5.82,4.35,9.16.57,2.59,0,5.34.49,7.94.84,4.19,8.42,7.41,12.47,7.12" transform="translate(-200 -158.03)" fill="#ff4f5b"/><path d="M220.33,463.87a1.71,1.71,0,0,0,0,.37c0,.27.07.62.13,1.06.14.93.29,2.31.6,4.08s1.21,3.79,1.92,6.2,1.49,5.2,2.15,8.31,1.24,6.56,1.84,10.28,1.24,7.75,3,11.6c.81,1.94,1.73,3.88,2.42,6a28.54,28.54,0,0,1,1.24,6.56,141.37,141.37,0,0,0,1.76,14.14c1.82,9.58,3.54,18.71,5.11,27s3.14,15.73,4.4,22,2.29,11.28,3,14.82c.36,1.71.64,3.06.84,4l.24,1a1.08,1.08,0,0,0,.1.35,2,2,0,0,0,0-.36c0-.27-.1-.62-.17-1l-.75-4c-.67-3.55-1.64-8.61-2.83-14.86l-4.28-22c-1.55-8.3-3.26-17.42-5.06-27q-1.26-7.2-1.77-14.1a28,28,0,0,0-1.29-6.69c-.71-2.11-1.63-4.06-2.45-6-1.75-3.8-2.38-7.77-3-11.47s-1.21-7.16-1.91-10.28-1.46-5.91-2.24-8.32-1.65-4.41-2-6.15-.54-3.13-.71-4.05l-.19-1A1.52,1.52,0,0,0,220.33,463.87Z" transform="translate(-200 -158.03)" fill="#1a2e35"/><path d="M867.19,571.4c-1.33,2-3.9,1.34-5.1.12a10.46,10.46,0,0,1-2.16-4.68c-1-3.86-2.11-7.91-1.33-11.84a6.8,6.8,0,0,1,1.43-3.22,3.17,3.17,0,0,1,3.08-1.09c1.3.37,2.11,1.71,2.69,3a29.5,29.5,0,0,1,2.64,12.12,10.19,10.19,0,0,1-1.25,5.6" transform="translate(-200 -158.03)" fill="#ff4f5b"/><g opacity="0.2"><path d="M867.19,571.4c-1.33,2-3.9,1.34-5.1.12a10.46,10.46,0,0,1-2.16-4.68c-1-3.86-2.11-7.91-1.33-11.84a6.8,6.8,0,0,1,1.43-3.22,3.17,3.17,0,0,1,3.08-1.09c1.3.37,2.11,1.71,2.69,3a29.5,29.5,0,0,1,2.64,12.12,10.19,10.19,0,0,1-1.25,5.6" transform="translate(-200 -158.03)"/></g><path d="M862.22,581.55a10.89,10.89,0,0,0-7.13-.92,5.79,5.79,0,0,0-3.52,1.66c-.88,1-1.05,2.84,0,3.72a3.33,3.33,0,0,0,2.22.6c1.89,0,4-.38,5.49.82.85.68,1.43,1.82,2.45,2.16a2.37,2.37,0,0,0,2.67-1.26,4.63,4.63,0,0,0,.31-3.24A5,5,0,0,0,862.22,581.55Z" transform="translate(-200 -158.03)" fill="#ff4f5b"/><path d="M870.83,574.28a7.64,7.64,0,0,1-1.07-6.71,12.93,12.93,0,0,1,3.75-5.76,20.17,20.17,0,0,1,6.73-4.2,6.86,6.86,0,0,1,3-.54,3.16,3.16,0,0,1,2.54,1.62c.71,1.43,0,3.16-.71,4.58a55.12,55.12,0,0,1-4.41,7.11c-1.33,1.8-2.84,3.59-4.86,4.4s-4.11.72-5.18-.76" transform="translate(-200 -158.03)" fill="#ff4f5b"/><path d="M867.28,601.61a3.79,3.79,0,0,1-.12-.91c-.06-.66-.14-1.49-.23-2.48a36,36,0,0,0-.53-3.64,28.75,28.75,0,0,0-1.25-4.3,16.06,16.06,0,0,0-2.08-3.89,7.79,7.79,0,0,0-2.62-2.31,7,7,0,0,0-2.21-.73,3.74,3.74,0,0,1-.86-.13,3.45,3.45,0,0,1,.87,0,6.54,6.54,0,0,1,2.31.63,7.91,7.91,0,0,1,2.77,2.33,15.59,15.59,0,0,1,2.15,4,27.19,27.19,0,0,1,1.24,4.37,32.74,32.74,0,0,1,.46,3.69c.07,1,.1,1.9.12,2.49A5.09,5.09,0,0,1,867.28,601.61Z" transform="translate(-200 -158.03)" fill="#1a2e35"/><path d="M867.12,599.7a1.5,1.5,0,0,1,0-.42c0-.32,0-.72,0-1.21,0-1.05,0-2.56-.06-4.43-.08-3.75-.39-8.92-1-14.6s-1.38-10.8-2.09-14.47c-.17-.92-.34-1.74-.5-2.47s-.29-1.35-.41-1.86l-.27-1.17a1.79,1.79,0,0,1-.07-.42,2,2,0,0,1,.14.4c.09.3.2.68.33,1.15s.3,1.13.47,1.85.37,1.55.55,2.47A145.8,145.8,0,0,1,866.42,579c.59,5.69.85,10.88.88,14.63,0,1.88,0,3.4-.07,4.45,0,.49-.05.89-.07,1.2A2.7,2.7,0,0,1,867.12,599.7Z" transform="translate(-200 -158.03)" fill="#1a2e35"/><path d="M867.09,589.7a9.33,9.33,0,0,1,0-1.26c0-.81.15-2,.37-3.42a43.63,43.63,0,0,1,1-5,45.61,45.61,0,0,1,2-5.89,31.92,31.92,0,0,1,5.79-9.52,14.12,14.12,0,0,1,1.36-1.34c.21-.18.39-.37.58-.52l.53-.38a7.73,7.73,0,0,1,1-.68,36,36,0,0,0-3.29,3.11,33.28,33.28,0,0,0-5.64,9.48,48,48,0,0,0-2,5.84c-.52,1.83-.86,3.51-1.12,4.93s-.39,2.58-.47,3.38A7.16,7.16,0,0,1,867.09,589.7Z" transform="translate(-200 -158.03)" fill="#1a2e35"/></svg>