<svg id="Layer_2" data-name="Layer 2" xmlns="http://www.w3.org/2000/svg" viewBox="0 0 733 670"><path d="M660.09,151.14c65.4,1,120,24.45,162.95,71.45,5.87,6.42,5.15,15.32-1.4,20.65a15.48,15.48,0,0,1-21.27-1.88,185.41,185.41,0,0,0-55-42c-66.55-33.08-146.14-25-203.47,21-7.9,6.33-14.93,13.67-22.05,20.82-6.17,6.2-15.27,7.19-21.8,1.87s-6.92-14.21-1.05-20.66q54-59.29,136-70c4.28-.56,8.59-1,12.9-1.18C650.62,151,655.36,151.14,660.09,151.14Z" transform="translate(-161.5 -59.56)" fill="#1a2e35"/><path d="M665.49,208.57c41.34,1,80.2,17.74,110.78,51.21,6,6.6,5.33,15.12-1.37,20.57-6.37,5.18-15.6,4.48-21.49-2-15.95-17.5-35.29-30.33-58.87-36.36-48-12.28-89.6-1.08-124.39,32.61-1.29,1.25-2.49,2.6-3.72,3.91-5.74,6.12-15,6.95-21.31,1.88-6.62-5.34-7.3-14.17-1.51-20.63a150.77,150.77,0,0,1,48.72-36.18C613.72,213.55,636.4,208.66,665.49,208.57Z" transform="translate(-161.5 -59.56)" fill="#1a2e35"/><path d="M733.5,306.52a14.36,14.36,0,0,1-9.66,13.4,15.48,15.48,0,0,1-16.84-4,64,64,0,0,0-23.09-16.26c-24.82-9.95-52.19-3.77-70.65,16-4.38,4.69-9.84,6.39-16.15,4.57a13.83,13.83,0,0,1-10.52-11.82,13.25,13.25,0,0,1,3.51-11.14c31.61-36.09,89.76-41.2,127.78-11.11a88.72,88.72,0,0,1,12,11.35c2.1,2.42,3,5.77,4.46,8.7Z" transform="translate(-161.5 -59.56)" fill="#1a2e35"/><path d="M660,381.72c-17,0-30.42-12.74-30.41-28.78,0-15.79,13.55-28.62,30.28-28.69s30.43,12.89,30.38,28.86S676.82,381.71,660,381.72Z" transform="translate(-161.5 -59.56)" fill="#1a2e35"/><ellipse cx="291.06" cy="435.57" rx="36.17" ry="34.25" fill="none" stroke="#1a2e35" stroke-linecap="round" stroke-linejoin="round" stroke-width="2"/><ellipse cx="291.06" cy="435.57" rx="17.89" ry="34.25" fill="none" stroke="#1a2e35" stroke-linecap="round" stroke-linejoin="round" stroke-width="2"/><path d="M427.68,470.91a37.64,37.64,0,0,0,50.11-.32" transform="translate(-161.5 -59.56)" fill="none" stroke="#1a2e35" stroke-linecap="round" stroke-linejoin="round" stroke-width="2"/><path d="M477.55,519.45a37.62,37.62,0,0,0-50.34.34" transform="translate(-161.5 -59.56)" fill="none" stroke="#1a2e35" stroke-linecap="round" stroke-linejoin="round" stroke-width="2"/><line x1="254.9" y1="435.57" x2="327.23" y2="435.57" fill="none" stroke="#1a2e35" stroke-linecap="round" stroke-linejoin="round" stroke-width="2"/><line x1="291.06" y1="401.32" x2="291.06" y2="469.83" fill="none" stroke="#1a2e35" stroke-linecap="round" stroke-linejoin="round" stroke-width="2"/><line x1="291.24" y1="390.49" x2="291.24" y2="387.99" fill="none" stroke="#1a2e35" stroke-linecap="round" stroke-linejoin="round"/><line x1="291.24" y1="383.01" x2="291.24" y2="6.85" fill="none" stroke="#1a2e35" stroke-linecap="round" stroke-linejoin="round" stroke-dasharray="4.98 4.98"/><line x1="291.24" y1="4.36" x2="291.24" y2="1.86" fill="none" stroke="#1a2e35" stroke-linecap="round" stroke-linejoin="round"/><path d="M394.39,250.38c-12.42,0-22.48,9.53-22.48,21.28s22.48,35.8,22.48,35.8,22.47-24,22.47-35.8S406.8,250.38,394.39,250.38Zm0,31a9.69,9.69,0,1,1,10.21-9.68A10,10,0,0,1,394.39,281.34Z" transform="translate(-161.5 -59.56)" fill="#1a2e35" stroke="#1a2e35" stroke-linecap="round" stroke-linejoin="round"/><line x1="232.89" y1="190.82" x2="232.89" y2="188.32" fill="none" stroke="#1a2e35" stroke-linecap="round" stroke-linejoin="round"/><line x1="232.89" y1="183.35" x2="232.89" y2="6.85" fill="none" stroke="#1a2e35" stroke-linecap="round" stroke-linejoin="round" stroke-dasharray="4.97 4.97"/><line x1="232.89" y1="4.36" x2="232.89" y2="1.86" fill="none" stroke="#1a2e35" stroke-linecap="round" stroke-linejoin="round"/><path d="M341.25,425H296.72c-7.25,0-13.14,5.57-13.14,12.44v19.21c0,6.87,5.89,12.44,13.14,12.44h0l.44,19.29,14-19.29h30.11c7.26,0,13.14-5.57,13.14-12.44V437.44C354.39,430.57,348.51,425,341.25,425Z" transform="translate(-161.5 -59.56)" fill="#fff" stroke="#1a2e35" stroke-linecap="round" stroke-linejoin="round"/><path d="M324.45,435.37h36.6c6,0,10.8,4.58,10.8,10.23v15.78c0,5.65-4.84,10.23-10.8,10.23h0l-.36,15.86L349.2,471.61H324.45c-6,0-10.8-4.58-10.8-10.23V445.6C313.65,440,318.49,435.37,324.45,435.37Z" transform="translate(-161.5 -59.56)" fill="#1a2e35" stroke="#1a2e35" stroke-linecap="round" stroke-linejoin="round"/><path d="M335.39,453.48a4,4,0,1,0-4,3.81A3.92,3.92,0,0,0,335.39,453.48Z" transform="translate(-161.5 -59.56)" fill="#5ae4a7"/><ellipse cx="182.33" cy="393.92" rx="4.02" ry="3.81" fill="#5ae4a7"/><ellipse cx="194.79" cy="393.92" rx="4.02" ry="3.81" fill="#5ae4a7"/><line x1="170.79" y1="351.96" x2="170.79" y2="349.46" fill="none" stroke="#1a2e35" stroke-linecap="round" stroke-linejoin="round"/><line x1="170.79" y1="344.48" x2="170.79" y2="8.18" fill="none" stroke="#1a2e35" stroke-linecap="round" stroke-linejoin="round" stroke-dasharray="4.98 4.98"/><line x1="170.79" y1="5.69" x2="170.79" y2="3.19" fill="none" stroke="#1a2e35" stroke-linecap="round" stroke-linejoin="round"/><rect x="75.54" y="243.74" width="78.66" height="43.54" fill="#fff" stroke="#1a2e35" stroke-linecap="round" stroke-linejoin="round"/><polygon points="75.54 287.28 114.24 253.42 154.19 287.28 75.54 287.28" fill="#fff" stroke="#1a2e35" stroke-linecap="round" stroke-linejoin="round"/><polygon points="75.54 243.74 114.87 265.51 154.19 243.74 75.54 243.74" fill="#fff" stroke="#1a2e35" stroke-linecap="round" stroke-linejoin="round"/><line x1="114.17" y1="241.75" x2="114.17" y2="239.25" fill="none" stroke="#1a2e35" stroke-linecap="round" stroke-linejoin="round"/><line x1="114.17" y1="234.28" x2="114.17" y2="177.13" fill="none" stroke="#1a2e35" stroke-linecap="round" stroke-linejoin="round" stroke-dasharray="4.97 4.97"/><line x1="114.17" y1="174.65" x2="114.17" y2="172.15" fill="none" stroke="#1a2e35" stroke-linecap="round" stroke-linejoin="round"/><path d="M296.7,168.83c-6.8-13.21-21.35-22.34-38.19-22.34-19.79,0-36.4,12.6-41,29.62-.68-.05-1.36-.1-2.05-.1-14.57,0-26.39,11-26.39,24.46,0,12.43,10,22.66,22.94,24.23v.24h79.57c16.83,0,30.48-12.66,30.48-28.26C322,182.7,311.08,171.09,296.7,168.83Z" transform="translate(-161.5 -59.56)" fill="#fff" stroke="#1a2e35" stroke-linecap="round" stroke-linejoin="round"/><line x1="97.01" y1="86.93" x2="97.01" y2="84.43" fill="none" stroke="#1a2e35" stroke-linecap="round" stroke-linejoin="round"/><line x1="97.01" y1="79.64" x2="97.01" y2="5.39" fill="none" stroke="#1a2e35" stroke-linecap="round" stroke-linejoin="round" stroke-dasharray="4.79 4.79"/><line x1="97.01" y1="3" x2="97.01" y2="0.5" fill="none" stroke="#1a2e35" stroke-linecap="round" stroke-linejoin="round"/><path d="M208,409.31a8.43,8.43,0,0,0-4.94,1.58L183.45,397a7.21,7.21,0,0,0,.54-2.75,8.18,8.18,0,1,0-8.17,7.74,8.45,8.45,0,0,0,4.93-1.58l19.59,13.91a7.2,7.2,0,0,0,0,5.52l-19.59,13.91a8.38,8.38,0,0,0-4.93-1.58,7.75,7.75,0,1,0,8.17,7.74,7.3,7.3,0,0,0-.54-2.76L203,423.21a8.43,8.43,0,0,0,4.94,1.58,7.75,7.75,0,1,0,0-15.48Z" transform="translate(-161.5 -59.56)" fill="#1a2e35"/><line x1="34.41" y1="95.86" x2="34.41" y2="93.36" fill="none" stroke="#1a2e35" stroke-linecap="round" stroke-linejoin="round"/><line x1="34.41" y1="88.1" x2="34.41" y2="6.62" fill="none" stroke="#1a2e35" stroke-linecap="round" stroke-linejoin="round" stroke-dasharray="5.26 5.26"/><line x1="34.41" y1="3.99" x2="34.41" y2="1.49" fill="none" stroke="#1a2e35" stroke-linecap="round" stroke-linejoin="round"/><line x1="34.41" y1="333.36" x2="34.41" y2="330.86" fill="none" stroke="#1a2e35" stroke-linecap="round" stroke-linejoin="round"/><line x1="34.41" y1="325.78" x2="34.41" y2="175.82" fill="none" stroke="#1a2e35" stroke-linecap="round" stroke-linejoin="round" stroke-dasharray="5.08 5.08"/><line x1="34.41" y1="173.28" x2="34.41" y2="170.78" fill="none" stroke="#1a2e35" stroke-linecap="round" stroke-linejoin="round"/><ellipse cx="117.72" cy="513.02" rx="19.73" ry="49" fill="#5ae4a7" stroke="#1a2e35" stroke-miterlimit="10"/><ellipse cx="325.21" cy="537.76" rx="35.11" ry="15.96" transform="translate(-450.66 610.48) rotate(-70.99)" fill="#5ae4a7" stroke="#1a2e35" stroke-miterlimit="10"/><path d="M195.77,653.2c-20.07-3.22-35.15-12.54-33.67-20.82s19-12.37,39-9.15,35.16,12.54,33.68,20.82S215.85,656.42,195.77,653.2Z" transform="translate(-161.5 -59.56)" fill="#5ae4a7" stroke="#1a2e35" stroke-miterlimit="10"/><path d="M359.07,607.9c-16.77,15.75-36.58,22.58-44.25,15.25s-.29-26,16.47-41.78,36.59-22.58,44.26-15.26S375.84,592.15,359.07,607.9Z" transform="translate(-161.5 -59.56)" fill="#5ae4a7" stroke="#1a2e35" stroke-miterlimit="10"/><path d="M243.52,564.69c16.22,22.29,21,45.78,10.8,52.47s-31.72-5.94-47.94-28.22-21-45.78-10.79-52.47S227.31,542.41,243.52,564.69Z" transform="translate(-161.5 -59.56)" fill="#5ae4a7" stroke="#1a2e35" stroke-miterlimit="10"/><line x1="119.1" y1="559.58" x2="120.63" y2="626.95" fill="none" stroke="#1a2e35" stroke-linecap="round" stroke-miterlimit="10"/><line x1="117.26" y1="494.8" x2="119.1" y2="559.58" fill="none" stroke="#1a2e35" stroke-linecap="round" stroke-miterlimit="10"/><line x1="117.4" y1="484.23" x2="117.26" y2="489.2" fill="none" stroke="#1a2e35" stroke-linecap="round" stroke-miterlimit="10"/><path d="M254.24,614c9.89,19.67,17.93,43.55,19.48,70.69" transform="translate(-161.5 -59.56)" fill="none" stroke="#1a2e35" stroke-linecap="round" stroke-miterlimit="10"/><path d="M220.36,564.88A221.68,221.68,0,0,1,254.24,614" transform="translate(-161.5 -59.56)" fill="none" stroke="#1a2e35" stroke-linecap="round" stroke-miterlimit="10"/><path d="M209.7,554.21s2,1.77,5.4,5.15" transform="translate(-161.5 -59.56)" fill="none" stroke="#1a2e35" stroke-linecap="round" stroke-miterlimit="10"/><path d="M316.05,620.89a217.09,217.09,0,0,0-32,60.11" transform="translate(-161.5 -59.56)" fill="none" stroke="#1a2e35" stroke-linecap="round" stroke-miterlimit="10"/><path d="M338.74,596.2a179,179,0,0,0-22.69,24.69" transform="translate(-161.5 -59.56)" fill="none" stroke="#1a2e35" stroke-linecap="round" stroke-miterlimit="10"/><path d="M363,578.71s-7,3.41-17.28,11.59" transform="translate(-161.5 -59.56)" fill="none" stroke="#1a2e35" stroke-linecap="round" stroke-miterlimit="10"/><path d="M315.22,566.49c-10.93,32.57-25.6,80.7-32.44,122.47" transform="translate(-161.5 -59.56)" fill="none" stroke="#1a2e35" stroke-linecap="round" stroke-miterlimit="10"/><path d="M321.87,547.17c-1.94,5.49-4.2,12-6.65,19.32" transform="translate(-161.5 -59.56)" fill="none" stroke="#1a2e35" stroke-linecap="round" stroke-miterlimit="10"/><path d="M328.69,528.48s-1.91,5-5,13.54" transform="translate(-161.5 -59.56)" fill="none" stroke="#1a2e35" stroke-linecap="round" stroke-miterlimit="10"/><path d="M233.8,639.53c13.65,4.91,27,14.37,33.45,32.28" transform="translate(-161.5 -59.56)" fill="none" stroke="#1a2e35" stroke-linecap="round" stroke-miterlimit="10"/><path d="M208.58,634.68a90.51,90.51,0,0,1,25.22,4.85" transform="translate(-161.5 -59.56)" fill="none" stroke="#1a2e35" stroke-linecap="round" stroke-miterlimit="10"/><path d="M192.24,635.06s2.43-.33,6.43-.48" transform="translate(-161.5 -59.56)" fill="none" stroke="#1a2e35" stroke-linecap="round" stroke-miterlimit="10"/><path d="M367.59,653.2c20.08-3.22,35.15-12.54,33.67-20.82s-18.95-12.37-39-9.15-35.15,12.54-33.67,20.82S347.51,656.42,367.59,653.2Z" transform="translate(-161.5 -59.56)" fill="#5ae4a7" stroke="#1a2e35" stroke-miterlimit="10"/><path d="M330,639.38c-13.8,4.86-27.35,14.33-33.89,32.43" transform="translate(-161.5 -59.56)" fill="none" stroke="#1a2e35" stroke-linecap="round" stroke-miterlimit="10"/><path d="M356.9,634.58a92,92,0,0,0-26.9,4.8" transform="translate(-161.5 -59.56)" fill="none" stroke="#1a2e35" stroke-linecap="round" stroke-miterlimit="10"/><path d="M371.13,635.06s-1.6-.22-4.35-.38" transform="translate(-161.5 -59.56)" fill="none" stroke="#1a2e35" stroke-linecap="round" stroke-miterlimit="10"/><path d="M329.71,729.06A86.69,86.69,0,0,0,339,690.49a75.68,75.68,0,0,0-3.73-23.58H230.24a75.68,75.68,0,0,0-3.73,23.58,86.69,86.69,0,0,0,9.33,38.57Z" transform="translate(-161.5 -59.56)" fill="#1a2e35"/><path d="M227.55,677.94c-.3,1.81-.53,3.65-.71,5.51H338.71c-.17-1.86-.4-3.7-.71-5.51Z" transform="translate(-161.5 -59.56)" fill="#7a7a7a"/><path d="M337.52,706.11c.35-1.83.65-3.66.88-5.51H227.15c.23,1.85.53,3.68.89,5.51Z" transform="translate(-161.5 -59.56)" fill="#7a7a7a"/><path d="M240.09,690.8a4.53,4.53,0,1,1-4.52-4.29A4.41,4.41,0,0,1,240.09,690.8Z" transform="translate(-161.5 -59.56)" fill="#8c8c8c"/><path d="M262.73,690.8a4.54,4.54,0,1,1-4.53-4.29A4.42,4.42,0,0,1,262.73,690.8Z" transform="translate(-161.5 -59.56)" fill="#8c8c8c"/><path d="M285.36,690.8a4.53,4.53,0,1,1-4.52-4.29A4.41,4.41,0,0,1,285.36,690.8Z" transform="translate(-161.5 -59.56)" fill="#8c8c8c"/><ellipse cx="141.97" cy="631.24" rx="4.53" ry="4.29" fill="#8c8c8c"/><path d="M330.63,690.8a4.53,4.53,0,1,1-4.52-4.29A4.41,4.41,0,0,1,330.63,690.8Z" transform="translate(-161.5 -59.56)" fill="#8c8c8c"/><path d="M824.07,393.07h0a6,6,0,0,0-6.65,4.93L787.25,618.61l19.62,2.1,22.52-221.43A5.78,5.78,0,0,0,824.07,393.07Z" transform="translate(-161.5 -59.56)" fill="#1a2e35" stroke="#1a2e35" stroke-linecap="round" stroke-linejoin="round"/><path d="M520.92,393.07h0a6,6,0,0,1,6.65,4.93l30.17,220.61-19.63,2.1L515.6,399.28A5.78,5.78,0,0,1,520.92,393.07Z" transform="translate(-161.5 -59.56)" fill="#1a2e35" stroke="#1a2e35" stroke-linecap="round" stroke-linejoin="round"/><rect x="383.23" y="554.61" width="321.15" height="114.89" rx="4.59" fill="#fff" stroke="#1a2e35" stroke-linecap="round" stroke-linejoin="round"/><rect x="376.44" y="568.77" width="334.73" height="86.56" rx="4.17" fill="#fff" stroke="#1a2e35" stroke-linecap="round" stroke-linejoin="round"/><rect x="214.82" y="554.61" width="321.15" height="114.89" rx="4.59" fill="#fff" stroke="#1a2e35" stroke-linecap="round" stroke-linejoin="round"/><rect x="208.02" y="568.77" width="334.73" height="86.56" rx="4.17" fill="#fff" stroke="#1a2e35" stroke-linecap="round" stroke-linejoin="round"/><rect x="236.18" y="587.75" width="281.31" height="46.53" rx="5.01" fill="#1a2e35" stroke="#1a2e35" stroke-linecap="round" stroke-linejoin="round"/><path d="M413.3,658.58a12.41,12.41,0,0,0-8.21,11.49c0,6.84,5.85,12.37,13.06,12.37s13.06-5.53,13.06-12.37a12.37,12.37,0,0,0-8-11.39" transform="translate(-161.5 -59.56)" fill="none" stroke="#5ae4a7" stroke-linecap="round" stroke-miterlimit="10" stroke-width="3"/><line x1="256.79" y1="594.24" x2="256.79" y2="603.38" fill="none" stroke="#5ae4a7" stroke-linecap="round" stroke-miterlimit="10" stroke-width="3"/><path d="M570.54,683.53s-12.7,3.78-15.39,4.27-11-1.54-11.23,1.54,4.77,5.79,12.75,8.82,16.74,5.54,22.68,5.28,4.81-11.34,5.13-13.24S570.54,683.53,570.54,683.53Z" transform="translate(-161.5 -59.56)" fill="#fff" stroke="#1a2e35" stroke-linecap="round" stroke-linejoin="round"/><path d="M560.84,695.42c-10-3.88-14.57-5.9-16.6-6.84a1.38,1.38,0,0,0-.32.76c-.25,3.07,4.77,5.79,12.75,8.82s16.74,5.54,22.68,5.28c2.22-.1,3.45-1.71,4.14-3.78A60.26,60.26,0,0,1,560.84,695.42Z" transform="translate(-161.5 -59.56)" fill="#fff" stroke="#1a2e35" stroke-linecap="round" stroke-linejoin="round"/><path d="M647.78,570.55l-3.33,1.72v4.59s-69.42,11-70.33,16.69-3.65,91-3.65,91,11.19,11.42,13.61,8.84,3-10.84,3-10.84L598.63,607s78.19,6.8,90,3.36,17.55-18.34,17.85-25.21.31-10,.31-10l-53.25-6.88Z" transform="translate(-161.5 -59.56)" fill="#5ae4a7" stroke="#1a2e35" stroke-linecap="round" stroke-linejoin="round"/><path d="M624.18,686.6s-.17.28-.5.78a73.78,73.78,0,0,1-8.57,10.68c-5.15,5.16-13.62,9.46-13.32,11.18s6.05,2.87,25.72-2.87c8.85-2.57,15.43-2.57,16.34-5.44s-6.36-15.19-6.36-15.19Z" transform="translate(-161.5 -59.56)" fill="#fff" stroke="#1a2e35" stroke-linecap="round" stroke-linejoin="round"/><path d="M643.85,700.93c.25-.79-.12-2.28-.78-4a125.39,125.39,0,0,1-20.7,7.19,142,142,0,0,1-19.62,3.67c-.65.6-1,1.11-1,1.49.31,1.72,6.05,2.87,25.72-2.87C636.36,703.8,642.94,703.8,643.85,700.93Z" transform="translate(-161.5 -59.56)" fill="#fff" stroke="#1a2e35" stroke-linecap="round" stroke-linejoin="round"/><path d="M666.84,582.87s-7.26-6-7.87-2.58-1.81,4.3-1.81,4.3-50.83,5.73-56.58,9.17-7.56,8-4.23,14.9,25.71,82.24,25.71,82.24a37.9,37.9,0,0,0,7.27,2.29c3.32.58,10.28-2.58,10.28-2.58s-.84-14-3-18.62-10.78-57.44-10.78-57.44,36.74.13,49.14.13,26-9.74,28.74-17.77,1.51-9.74,1.51-9.74" transform="translate(-161.5 -59.56)" fill="#5ae4a7" stroke="#1a2e35" stroke-linecap="round" stroke-linejoin="round"/><line x1="464.37" y1="554.99" x2="462.62" y2="545.97" fill="none" stroke="#1a2e35" stroke-linecap="round" stroke-linejoin="round"/><path d="M683.64,595.54a18.1,18.1,0,0,1,2.35,4.17" transform="translate(-161.5 -59.56)" fill="none" stroke="#1a2e35" stroke-linecap="round" stroke-linejoin="round"/><path d="M669.81,585.6a35.28,35.28,0,0,1,11.88,7.66" transform="translate(-161.5 -59.56)" fill="none" stroke="#1a2e35" stroke-linecap="round" stroke-linejoin="round"/><path d="M681.3,587.21a24,24,0,0,1,11.07,9.68" transform="translate(-161.5 -59.56)" fill="none" stroke="#1a2e35" stroke-linecap="round" stroke-linejoin="round"/><path d="M648.52,500.24s0,.4-.08,1.12c-.26,4-5,10.07-2.17,17.61,6.42,17.15,5.12,29.74,4.54,26.08.9,5.73-4.54,18.05-4.54,22.06s-11.2,4.62,14.22,11.78,34.19,6.85,40.54,4.56,10.89-4.3,11.5-9.17-4.85-13.47-5.15-20.92-1.37-30.77-8.94-45.67-27.53-25.22-27.53-25.22Z" transform="translate(-161.5 -59.56)" fill="#fff" stroke="#1a2e35" stroke-linecap="round" stroke-linejoin="round"/><path d="M688.34,556.42c1.32-.95,2.56-1.92,3.69-2.89" transform="translate(-161.5 -59.56)" fill="none" stroke="#1a2e35" stroke-linecap="round" stroke-linejoin="round"/><path d="M656.45,573.33a205.44,205.44,0,0,0,27.06-13.67" transform="translate(-161.5 -59.56)" fill="none" stroke="#1a2e35" stroke-linecap="round" stroke-linejoin="round"/><path d="M666.22,571.68A64,64,0,0,1,655,575.77" transform="translate(-161.5 -59.56)" fill="none" stroke="#1a2e35" stroke-linecap="round" stroke-linejoin="round"/><path d="M671.12,569.17s-.84.49-2.29,1.23" transform="translate(-161.5 -59.56)" fill="none" stroke="#1a2e35" stroke-linecap="round" stroke-linejoin="round"/><line x1="513.81" y1="471.74" x2="521.98" y2="462.28" fill="none" stroke="#1a2e35" stroke-linecap="round" stroke-linejoin="round"/><path d="M645.65,436.69s-4.14,4.15-5.45,6.62-1.5,4.26-3.82,5.83-6.91.58-6.79,3.13,2.92,5,2.92,5-2.26,15.55-1.4,18,12.6,2.93,12.6,2.93l6,18.47,21.15-13.57.56-5.38c.52-2.18,4.31-8.93,7.46-14s1.74-18.42-5.84-24.17-17.64-5.16-20.74-5.36S645.65,436.69,645.65,436.69Z" transform="translate(-161.5 -59.56)" fill="#fff" stroke="#1a2e35" stroke-linecap="round" stroke-linejoin="round"/><path d="M634,460.31a7.73,7.73,0,0,0,7.82,1.67" transform="translate(-161.5 -59.56)" fill="none" stroke="#1a2e35" stroke-linecap="round" stroke-linejoin="round"/><path d="M643,451c-.51,1.13-1.32,1.89-1.8,1.69s-.45-1.27.07-2.4,1.32-1.9,1.8-1.7S643.47,449.81,643,451Z" transform="translate(-161.5 -59.56)" fill="#1a2e35"/><path d="M642.13,445.33s4.56-.86,5.24,3.41" transform="translate(-161.5 -59.56)" fill="none" stroke="#1a2e35" stroke-linecap="round" stroke-linejoin="round"/><polygon points="482.21 418.65 489.54 418.39 484.52 424.19 482.21 418.65" fill="#1a2e35" stroke="#1a2e35" stroke-linecap="round" stroke-linejoin="round"/><polyline points="498.93 411.46 495.76 410.56 493.88 413.36" fill="none" stroke="#1a2e35" stroke-linecap="round" stroke-linejoin="round"/><path d="M658.66,429.85s4.57-5-.92-7.3-24.17,1.92-22.16,9.69S655,441,656.69,441.12s-3.33,1.8-2,4.16,4.72,3.53,4.84,6.08-3.13,6-1.54,7.46,4-.74,5.63-1.31,5.93,3.56,2.5,8.78-5.73,4.73-5.73,4.73a4.73,4.73,0,0,0,1.57,5.61c3,2.48,9.26,1.76,10.8-.66s4.24-4.59,9.85-9.81,8.26-18.39,4.38-27.48S665.66,425.85,658.66,429.85Z" transform="translate(-161.5 -59.56)" fill="#1a2e35" stroke="#1a2e35" stroke-linecap="round" stroke-linejoin="round"/><polygon points="509.35 418.68 480.52 438.79 482.17 447.46 514.62 424.82 509.35 418.68" fill="#fff" stroke="#1a2e35" stroke-linecap="round" stroke-linejoin="round"/><polygon points="437.38 535.93 488.15 525.4 476.3 518.73 428.12 528.91 437.38 535.93" fill="#fff" stroke="#1a2e35" stroke-linecap="round" stroke-linejoin="round"/><polygon points="414.77 490.3 437.38 535.93 428.12 528.91 405.14 486.09 414.77 490.3" fill="#1a2e35" stroke="#1a2e35" stroke-linecap="round" stroke-linejoin="round"/><path d="M617.12,576.09,605.42,579l-7.26,9.93a2.92,2.92,0,0,0,2.22.76c1.21-.19,4.44-2.86,4.44-2.86l8.47-2.1s-4.44,2.48-4.44,3,.81.77,2.83.58,6.85-4.4,6.85-4.4l3.23-3.82Z" transform="translate(-161.5 -59.56)" fill="#fff" stroke="#1a2e35" stroke-linecap="round" stroke-linejoin="round"/><polygon points="487.22 466.77 481.24 492.65 455.62 516.53 461.67 521.88 482.95 512.71 484.42 509.08 489.56 487.4 487.22 466.77" fill="#fff" stroke="#1a2e35" stroke-linecap="round" stroke-linejoin="round"/><path d="M610,570.88S601.86,572,598.84,572s-10.29.57-11.5,1.15-7,4-6.66,6.59,5.45.28,5.45.28a36,36,0,0,0,3.93,6.59c2.42,3.16,3.63,2,8.47.29s12.1-6.88,12.1-6.88l4.24-3.72Z" transform="translate(-161.5 -59.56)" fill="#fff" stroke="#1a2e35" stroke-linecap="round" stroke-linejoin="round"/><path d="M681.06,490.32s-12.4-1.72-16.94,4-9.08,15.76-10,23.21-6.65,22.35-6.65,22.35L609,570.22l6.65,9.46s46.64-20.59,47.85-22,16.64-39.26,16.64-39.26" transform="translate(-161.5 -59.56)" fill="#fff" stroke="#1a2e35" stroke-linecap="round" stroke-linejoin="round"/><line x1="16.77" y1="669.5" x2="732.5" y2="669.5" fill="none" stroke="#1a2e35" stroke-linecap="round" stroke-linejoin="round"/></svg>