<svg id="Layer_2" data-name="Layer 2" xmlns="http://www.w3.org/2000/svg" viewBox="0 0 767.09 712.41"><rect x="83.97" y="135.3" width="211.66" height="135.84" fill="#fff"/><path d="M476.63,325.2s0-.85,0-2.47,0-4,0-7.17c0-6.29,0-15.51-.08-27.32,0-23.6-.09-57.52-.16-98.88l.31.29L265,189.72h0l.38-.36c0,48.39,0,94.41,0,135.84l-.35-.33,152.48.16,43.57.09,11.59,0,3,0,1,0-1,0-2.95,0-11.52,0-43.49.09L265,325.53h-.35v-.33c0-41.43,0-87.45,0-135.84V189H265l211.65.08h.3v.29c-.07,41.43-.12,75.42-.16,99.06,0,11.78-.06,21-.08,27.26,0,3.11,0,5.49,0,7.11S476.63,325.2,476.63,325.2Z" transform="translate(-181 -54.06)" fill="#e1e1e1"/><path d="M265,201.48c0-.2,47.34-.36,105.73-.36s105.75.16,105.75.36-47.33.36-105.75.36S265,201.68,265,201.48Z" transform="translate(-181 -54.06)" fill="#e1e1e1"/><g opacity="0.3"><path d="M273.32,195.36a1.7,1.7,0,1,1-1.7-1.62A1.67,1.67,0,0,1,273.32,195.36Z" transform="translate(-181 -54.06)" fill="#e1e1e1"/></g><g opacity="0.3"><ellipse cx="96.43" cy="141.3" rx="1.7" ry="1.63" fill="#e1e1e1"/></g><g opacity="0.3"><path d="M284.86,195.36a1.7,1.7,0,1,1-1.7-1.62A1.67,1.67,0,0,1,284.86,195.36Z" transform="translate(-181 -54.06)" fill="#e1e1e1"/></g><rect x="102.16" y="161.59" width="56.46" height="54.12" fill="#e1e1e1"/><path d="M447.6,230.94c0,.2-22,.37-49.18.37s-49.18-.17-49.18-.37,22-.36,49.18-.36S447.6,230.74,447.6,230.94Z" transform="translate(-181 -54.06)" fill="#e1e1e1"/><path d="M447.6,241c0,.2-22,.36-49.18.36s-49.18-.16-49.18-.36,22-.36,49.18-.36S447.6,240.8,447.6,241Z" transform="translate(-181 -54.06)" fill="#e1e1e1"/><path d="M447.6,251.06c0,.2-22,.36-49.18.36s-49.18-.16-49.18-.36,22-.37,49.18-.37S447.6,250.86,447.6,251.06Z" transform="translate(-181 -54.06)" fill="#e1e1e1"/><path d="M407.37,261.11a13.38,13.38,0,0,1-2.28.14l-6.23.12c-5.26.07-12.53.11-20.55.11s-15.3,0-20.56-.11l-6.22-.12a13.59,13.59,0,0,1-2.29-.14,13.59,13.59,0,0,1,2.29-.14l6.22-.11c5.26-.07,12.53-.11,20.56-.11s15.29,0,20.55.11l6.23.11A13.38,13.38,0,0,1,407.37,261.11Z" transform="translate(-181 -54.06)" fill="#e1e1e1"/><rect x="105.7" y="233.95" width="26.53" height="25.43" fill="#e1e1e1"/><rect x="153.82" y="233.95" width="26.53" height="25.43" fill="#e1e1e1"/><rect x="201.94" y="233.95" width="26.53" height="25.43" fill="#e1e1e1"/><rect x="250.05" y="233.95" width="26.53" height="25.43" fill="#e1e1e1"/><path d="M872.4,233.51a24.08,24.08,0,0,1-4.49,4.53l1.17,5.68-9.15,3.89L856.32,243a25.35,25.35,0,0,1-6.52.16l-3.36,4.81-9.34-3.45.87-5.73a24.28,24.28,0,0,1-4.72-4.31l-5.93,1.12-4.06-8.76,4.85-3.47a22.51,22.51,0,0,1-.16-6.25l-5-3.22,3.6-9,6,.84a23.79,23.79,0,0,1,4.49-4.53l-1.17-5.68,9.15-3.89,3.61,4.65a25.35,25.35,0,0,1,6.52-.16l3.36-4.81,9.34,3.44-.87,5.74a24,24,0,0,1,4.72,4.31l5.93-1.12,4.06,8.76-4.85,3.46a22.53,22.53,0,0,1,.16,6.25l5,3.23-3.6,8.95-6-.84Zm-10.1-9.78a10.14,10.14,0,0,0-6.15-13.29,10.87,10.87,0,0,0-13.87,5.9,10.15,10.15,0,0,0,6.15,13.29A10.86,10.86,0,0,0,862.3,223.73Z" transform="translate(-181 -54.06)" fill="none"/><path d="M862.3,223.73a7.45,7.45,0,0,1-1.15,2.3,10.68,10.68,0,0,1-5.81,4.07,11.33,11.33,0,0,1-5,.29,11.12,11.12,0,0,1-5.23-2.4A9.88,9.88,0,0,1,843,225.7a9.42,9.42,0,0,1-1.34-2.89,10.15,10.15,0,0,1,.33-6.58,10.71,10.71,0,0,1,4.36-5.09,10.41,10.41,0,0,1,3-1.28,10.58,10.58,0,0,1,3.14-.37,11.3,11.3,0,0,1,5.55,1.59,10.58,10.58,0,0,1,3.54,3.46,9.83,9.83,0,0,1,1.45,6.75,7.21,7.21,0,0,1-.75,2.44,21.35,21.35,0,0,0,.51-2.47,9.86,9.86,0,0,0-1.58-6.51,10.24,10.24,0,0,0-3.43-3.25,11,11,0,0,0-5.3-1.47,10.19,10.19,0,0,0-3,.37,10,10,0,0,0-2.85,1.23,10.2,10.2,0,0,0-4.11,4.81,9.7,9.7,0,0,0-.32,6.21,9.27,9.27,0,0,0,1.25,2.75,9.49,9.49,0,0,0,2,2.18,10.61,10.61,0,0,0,5,2.32,10.87,10.87,0,0,0,4.82-.2,10.74,10.74,0,0,0,5.73-3.8A21.9,21.9,0,0,0,862.3,223.73Z" transform="translate(-181 -54.06)" fill="#e1e1e1"/><path d="M872.4,233.51a1.81,1.81,0,0,1,.38,0l1.14.14,4.48.57-.11.06,3.55-9,0,.18-5-3.2-.09-.06v-.11a22.47,22.47,0,0,0-.18-6.2l0-.11.1-.07,4.84-3.48-.07.26-4.08-8.76.27.13-5.93,1.14-.15,0-.1-.12a24.19,24.19,0,0,0-4.68-4.26l-.13-.09,0-.15c.27-1.78.57-3.74.87-5.73l.17.28-9.34-3.44.34-.1c-1,1.5-2.19,3.15-3.36,4.81l-.1.15-.17,0a25.46,25.46,0,0,0-6.44.16l-.18,0-.11-.13-3.61-4.65.36.09L836,195.8l.17-.32,1.17,5.68,0,.18-.14.11a23.51,23.51,0,0,0-4.44,4.47h0l-.3.12h-.18l-.19,0-.38-.05-.75-.11-1.5-.21-3-.42.33-.18q-1.81,4.53-3.6,8.94l-.11-.34,5,3.22.15.1,0,.18a22,22,0,0,0,.16,6.17l0,.17-.14.1L823.44,227l.09-.34q2.07,4.5,4.05,8.77l-.32-.16,5.94-1.11.16,0,.11.12a23.49,23.49,0,0,0,4.66,4.27l.13.1,0,.15q-.45,2.94-.89,5.73l-.16-.27,9.33,3.47-.28.09,3.38-4.81.07-.1h.13a25.64,25.64,0,0,0,6.47-.14l.12,0,.07.1,3.6,4.65-.22-.05L869,243.6l-.08.15c-.45-2.28-.82-4.14-1.13-5.7V238l.05,0a25.09,25.09,0,0,0,3.52-3.26l.77-.9.26-.29a1.8,1.8,0,0,1-.21.32c-.16.21-.4.53-.74.93a23.26,23.26,0,0,1-3.48,3.35l0-.09c.33,1.55.73,3.41,1.21,5.68l0,.1-.1,0L860,247.77l-.14.06-.08-.12c-1.13-1.43-2.31-3-3.63-4.63l.19.07a25.44,25.44,0,0,1-6.57.18l.2-.09-3.35,4.82-.1.15-.18-.07L837,244.71l-.19-.07,0-.19c.28-1.86.56-3.77.86-5.74l.11.25a24.26,24.26,0,0,1-4.78-4.35l.27.09-5.94,1.13-.22,0-.09-.2q-2-4.28-4.06-8.76l-.1-.2.19-.14,4.84-3.46-.11.27a22.7,22.7,0,0,1-.17-6.33l.13.28-5-3.23-.2-.13.08-.22,3.6-8.94.09-.22.24,0,3,.42,1.5.21.75.1.38.05.19,0h.18l-.29.11h0a24.38,24.38,0,0,1,4.55-4.58l-.11.29-1.17-5.69,0-.23.22-.09,9.14-3.89.23-.09.14.18c1.24,1.61,2.48,3.2,3.61,4.65l-.29-.11a26.25,26.25,0,0,1,6.6-.15l-.27.12,3.37-4.81.12-.18.22.08,9.33,3.46.2.08,0,.2c-.31,2-.61,4-.88,5.73l-.11-.24a24.32,24.32,0,0,1,4.77,4.37l-.25-.09,5.93-1.11.19,0,.08.17,4,8.77.07.16-.14.1-4.86,3.45.08-.19a22.74,22.74,0,0,1,.14,6.3l-.08-.16,5,3.24.1.07,0,.11c-1.49,3.64-2.72,6.64-3.65,8.93l0,.07h-.08l-4.43-.67-1.14-.18Z" transform="translate(-181 -54.06)" fill="#e1e1e1"/><path d="M925.59,206.23a19.83,19.83,0,0,1-3.73,3.76l1,4.72-7.59,3.22-3-3.85a21.25,21.25,0,0,1-5.41.13l-2.79,4-7.74-2.86.72-4.76a20,20,0,0,1-3.92-3.58l-4.92.94-3.36-7.28,4-2.87a18.69,18.69,0,0,1-.14-5.18l-4.16-2.68,3-7.42,5,.69a19.83,19.83,0,0,1,3.74-3.75l-1-4.72,7.59-3.23,3,3.86a21.25,21.25,0,0,1,5.41-.13l2.79-4,7.74,2.86-.72,4.75a20,20,0,0,1,3.92,3.58l4.92-.93,3.36,7.27-4,2.87a19.16,19.16,0,0,1,.14,5.19l4.16,2.67-3,7.43-5-.7Zm-8.37-8.11a8.44,8.44,0,0,0-5.11-11A9,9,0,0,0,900.6,192a8.43,8.43,0,0,0,5.11,11A9,9,0,0,0,917.22,198.12Z" transform="translate(-181 -54.06)" fill="#e1e1e1" fill-rule="evenodd"/><path d="M892.91,161.92a31.38,31.38,0,0,1-5.85,5.89l1.52,7.39-11.9,5.06-4.7-6a33.36,33.36,0,0,1-8.48.2l-4.38,6.26L847,176.19l1.13-7.45a31.63,31.63,0,0,1-6.14-5.61l-7.72,1.46L829,153.18l6.31-4.5a29.47,29.47,0,0,1-.21-8.13l-6.53-4.2,4.68-11.64L841,125.8a31.38,31.38,0,0,1,5.85-5.89l-1.52-7.4,11.89-5.06,4.7,6a33.45,33.45,0,0,1,8.49-.2l4.37-6.26,12.15,4.48L885.79,119a31.4,31.4,0,0,1,6.15,5.61l7.71-1.46,5.28,11.4L898.62,139a29.08,29.08,0,0,1,.22,8.13l6.53,4.2L900.69,163l-7.78-1.08ZM879.77,149.2a13.22,13.22,0,0,0-8-17.3,14.16,14.16,0,0,0-18,7.67,13.21,13.21,0,0,0,8,17.3A14.16,14.16,0,0,0,879.77,149.2Z" transform="translate(-181 -54.06)" fill="#e1e1e1" fill-rule="evenodd"/><path d="M773.58,100.15a5.56,5.56,0,0,1,.88-1L777,96.72c2.19-2.08,5.24-4.91,8.63-8l.08-.07v.42c-3.42-3-6.49-5.82-8.69-7.85l-2.58-2.42a5.22,5.22,0,0,1-.89-1,6,6,0,0,1,1,.79l2.71,2.29c2.27,2,5.39,4.68,8.8,7.72l.24.21-.23.21-.08.07c-3.39,3.1-6.49,5.88-8.75,7.88-1.06.92-2,1.71-2.7,2.34A5.59,5.59,0,0,1,773.58,100.15Z" transform="translate(-181 -54.06)" fill="#e1e1e1"/><path d="M747.2,77.84a5.65,5.65,0,0,1-.89,1l-2.57,2.47c-2.18,2.07-5.23,4.9-8.62,8l-.08.07v-.41c3.41,3,6.48,5.81,8.68,7.84l2.59,2.43a6,6,0,0,1,.89.94,5.54,5.54,0,0,1-1.05-.78l-2.71-2.29c-2.28-2-5.39-4.68-8.81-7.72l-.23-.21.23-.21.08-.07c3.39-3.1,6.48-5.89,8.74-7.88l2.7-2.34A6.28,6.28,0,0,1,747.2,77.84Z" transform="translate(-181 -54.06)" fill="#e1e1e1"/><path d="M754,105.41c-.16-.06,2.61-7.52,6.18-16.67s6.59-16.51,6.75-16.46S764.28,79.8,760.71,89,754.12,105.46,754,105.41Z" transform="translate(-181 -54.06)" fill="#e1e1e1"/><path d="M803.56,121.37s0-.43,0-1.25,0-2,0-3.59c0-3.15,0-7.74-.06-13.59,0-11.7-.08-28.43-.13-48.59l.25.24-85.81,0h0l.3-.28c0,24.23,0,47.11,0,67l-.27-.25,62,.12,17.56.07,4.67,0,1.2,0h.42l-.39,0H802l-4.61,0-17.51.07-62.14.13h-.26v-.26c0-19.91,0-42.79,0-67v-.29h.31l85.81,0h.25v.24c-.06,20.22-.1,37-.13,48.74,0,5.83,0,10.4-.06,13.54q0,2.31,0,3.54C803.58,121,803.56,121.37,803.56,121.37Z" transform="translate(-181 -54.06)" fill="#e1e1e1"/><path d="M804.23,64.29c0,.16-19.37.29-43.26.29s-43.27-.13-43.27-.29S737.07,64,761,64,804.23,64.13,804.23,64.29Z" transform="translate(-181 -54.06)" fill="#e1e1e1"/><path d="M724.75,59.4a1.16,1.16,0,1,1-1.16-1.11A1.14,1.14,0,0,1,724.75,59.4Z" transform="translate(-181 -54.06)" fill="#e1e1e1"/><ellipse cx="546.8" cy="5.34" rx="1.16" ry="1.11" fill="#e1e1e1"/><path d="M733.17,59.4A1.16,1.16,0,1,1,732,58.29,1.14,1.14,0,0,1,733.17,59.4Z" transform="translate(-181 -54.06)" fill="#e1e1e1"/><rect x="258.25" y="32.62" width="198.42" height="77.25" fill="#fff"/><path d="M637.67,163.93s0-.48,0-1.38,0-2.26,0-4c0-3.53,0-8.7,0-15.37,0-13.34-.07-32.62-.12-56.49l.22.21L439.26,87h0l.31-.3c0,27.05,0,53.16,0,77.25l-.3-.29,142.26.14,41.27.08,11.05,0,2.86,0,1,0-.95,0H633.9l-11,0-41.2.08-142.47.14H439v-.29c0-24.09,0-50.2,0-77.25v-.31h.33l198.41.09h.22v.22c0,23.92-.09,43.25-.12,56.61,0,6.65,0,11.82-.06,15.33,0,1.74,0,3.06,0,4S637.67,163.93,637.67,163.93Z" transform="translate(-181 -54.06)" fill="#e1e1e1"/><path d="M439.45,97.09c0-.16,44.35-.3,99-.3s99.06.14,99.06.3-44.34.3-99.06.3S439.45,97.26,439.45,97.09Z" transform="translate(-181 -54.06)" fill="#e1e1e1"/><g opacity="0.3"><path d="M447.75,92.43a1.44,1.44,0,1,1-1.44-1.38A1.4,1.4,0,0,1,447.75,92.43Z" transform="translate(-181 -54.06)" fill="#ececec"/></g><g opacity="0.3"><path d="M452.69,92.43a1.44,1.44,0,1,1-1.44-1.38A1.41,1.41,0,0,1,452.69,92.43Z" transform="translate(-181 -54.06)" fill="#ececec"/></g><g opacity="0.3"><ellipse cx="275.11" cy="38.37" rx="1.44" ry="1.38" fill="#ececec"/></g><rect x="275.11" y="55.59" width="47.93" height="45.94" fill="#e1e1e1"/><path d="M623.94,122c0,.17-24.66.3-55.08.3s-55.08-.13-55.08-.3,24.66-.3,55.08-.3S623.94,121.79,623.94,122Z" transform="translate(-181 -54.06)" fill="#e1e1e1"/><path d="M623.94,131.32c0,.17-24.66.3-55.08.3s-55.08-.13-55.08-.3,24.66-.3,55.08-.3S623.94,131.15,623.94,131.32Z" transform="translate(-181 -54.06)" fill="#e1e1e1"/><path d="M584.69,140.68a3.3,3.3,0,0,1-.72.06l-2.06,0-7.6.1-25.07.09-25.08-.09-7.59-.1-2.07,0a3.42,3.42,0,0,1-.72-.06,3.42,3.42,0,0,1,.72-.06l2.07-.06,7.59-.1,25.08-.08,25.07.08,7.6.1,2.06.06A3.3,3.3,0,0,1,584.69,140.68Z" transform="translate(-181 -54.06)" fill="#e1e1e1"/><path d="M948.09,721.89c0,.23-168.68.42-376.7.42s-376.73-.19-376.73-.42,168.63-.43,376.73-.43S948.09,721.65,948.09,721.89Z" transform="translate(-181 -54.06)" fill="#1a2e35"/><rect x="466.5" y="166.07" width="236.87" height="184.97" fill="#e1e1e1"/><rect x="449.65" y="177.82" width="236.87" height="184.97" fill="#ececec"/><rect x="426.45" y="190.7" width="243.19" height="189.9" fill="#fff"/><path d="M850.64,434.66s0-1.2,0-3.5,0-5.7-.05-10.14c0-8.88,0-21.89-.09-38.48-.05-33.15-.11-80.58-.19-137.78l.37.35-243.17.07h0l.44-.42c0,68.67,0,133.51,0,189.9l-.39-.37,175.73.19,49.72.09,13.18.05,3.39,0,1.17,0s-.37,0-1.12,0l-3.35,0-13.1,0-49.64.1-176,.19h-.39v-.38c0-56.39,0-121.23,0-189.9v-.42h.46l243.17.07H851v.35c-.08,57.29-.14,104.8-.19,138,0,16.56-.07,29.54-.09,38.4,0,4.41,0,7.78,0,10.08S850.64,434.66,850.64,434.66Z" transform="translate(-181 -54.06)" fill="#1a2e35"/><path d="M637.09,272.2l-2.61.92,2.61.91V275l-3.73-1.36v-1l3.73-1.36Z" transform="translate(-181 -54.06)" fill="#ff4f5b"/><path d="M643.25,270.49v5.26H642v-2.16h-2.5v2.16h-1.27v-5.26h1.27v2.07H642v-2.07Z" transform="translate(-181 -54.06)" fill="#ff4f5b"/><path d="M645.68,271.48h-1.76v-1h4.79v1H647v4.27h-1.27Z" transform="translate(-181 -54.06)" fill="#ff4f5b"/><path d="M654.38,275.75v-3.16l-1.61,2.6h-.58l-1.61-2.53v3.09h-1.19v-5.26h1l2.06,3.27,2-3.27h1l0,5.26Z" transform="translate(-181 -54.06)" fill="#ff4f5b"/><path d="M656.86,270.49h1.27v4.27h2.76v1h-4Z" transform="translate(-181 -54.06)" fill="#ff4f5b"/><path d="M665.16,272.63v1L661.43,275V274l2.61-.91-2.61-.92v-.93Z" transform="translate(-181 -54.06)" fill="#ff4f5b"/><path d="M634.87,416.21l-2.61.92,2.61.91V419l-3.73-1.36v-1l3.73-1.36Z" transform="translate(-181 -54.06)" fill="#ff4f5b"/><path d="M637.67,413.43h1.09l-2.58,7.08h-1.09Z" transform="translate(-181 -54.06)" fill="#ff4f5b"/><path d="M644.1,414.5v5.26h-1.27V417.6h-2.49v2.16h-1.27V414.5h1.27v2.07h2.49V414.5Z" transform="translate(-181 -54.06)" fill="#ff4f5b"/><path d="M646.53,415.49h-1.75v-1h4.78v1H647.8v4.27h-1.27Z" transform="translate(-181 -54.06)" fill="#ff4f5b"/><path d="M655.23,419.76V416.6l-1.61,2.6H653l-1.61-2.53v3.09h-1.19V414.5h1l2.05,3.27,2-3.27h1v5.26Z" transform="translate(-181 -54.06)" fill="#ff4f5b"/><path d="M657.72,414.5H659v4.27h2.75v1h-4Z" transform="translate(-181 -54.06)" fill="#ff4f5b"/><path d="M666,416.64v1L662.29,419V418l2.61-.91-2.61-.92v-.93Z" transform="translate(-181 -54.06)" fill="#ff4f5b"/><path d="M654.31,286.6l-2.78,1,2.78,1v.63L650.8,288v-.65l3.51-1.33Z" transform="translate(-181 -54.06)"/><path d="M660.38,285v5.26h-.79v-2.34h-3.15v2.34h-.78V285h.78v2.27h3.15V285Z" transform="translate(-181 -54.06)"/><path d="M666,289.61v.65h-4V285h3.87v.66H662.8v1.61h2.75v.64H662.8v1.7Z" transform="translate(-181 -54.06)"/><path d="M670.76,289h-2.92l-.6,1.31h-.81l2.49-5.26h.77l2.5,5.26h-.83Zm-.27-.6-1.19-2.58-1.18,2.58Z" transform="translate(-181 -54.06)"/><path d="M673,285h2.31a2.65,2.65,0,1,1,0,5.26H673Zm2.26,4.61a2,2,0,1,0,0-3.95h-1.48v3.95Z" transform="translate(-181 -54.06)"/><path d="M682.68,287.31V288l-3.51,1.33v-.63l2.79-1-2.79-1V286Z" transform="translate(-181 -54.06)"/><path d="M654.31,304.62l-2.78,1,2.78,1v.63L650.8,306v-.65l3.51-1.33Z" transform="translate(-181 -54.06)"/><path d="M656.75,303.68h-1.89V303h4.54v.66h-1.88v4.6h-.77Z" transform="translate(-181 -54.06)"/><path d="M660.25,303H661v5.26h-.79Z" transform="translate(-181 -54.06)"/><path d="M663.77,303.68h-1.88V303h4.54v.66h-1.88v4.6h-.78Z" transform="translate(-181 -54.06)"/><path d="M667.28,303h.78v4.61h3v.65h-3.75Z" transform="translate(-181 -54.06)"/><path d="M675.92,307.63v.65h-4V303h3.87v.66h-3.08v1.61h2.75v.64h-2.75v1.7Z" transform="translate(-181 -54.06)"/><path d="M680.39,305.33V306l-3.51,1.33v-.63l2.79-1-2.79-1V304Z" transform="translate(-181 -54.06)"/><path d="M683.85,303h.78v4.61h3v.65h-3.75Z" transform="translate(-181 -54.06)"/><path d="M688,306.29a2.16,2.16,0,1,1,2.16,2A2,2,0,0,1,688,306.29Zm3.56,0a1.4,1.4,0,1,0-1.4,1.41A1.34,1.34,0,0,0,691.51,306.29Z" transform="translate(-181 -54.06)"/><path d="M695.54,304.26v.7h-.17a1.22,1.22,0,0,0-1.31,1.35v2h-.75v-4H694V305A1.6,1.6,0,0,1,695.54,304.26Z" transform="translate(-181 -54.06)"/><path d="M700.16,306.53h-3.37a1.41,1.41,0,0,0,1.51,1.17,1.61,1.61,0,0,0,1.2-.48l.41.46a2.13,2.13,0,0,1-1.64.65,2,2,0,0,1-2.23-2,2,2,0,0,1,2.09-2,2,2,0,0,1,2,2.06A1.49,1.49,0,0,1,700.16,306.53Zm-3.37-.52h2.67a1.35,1.35,0,0,0-2.67,0Z" transform="translate(-181 -54.06)"/><path d="M708.12,306v2.29h-.75v-2.21c0-.78-.4-1.16-1.08-1.16a1.18,1.18,0,0,0-1.25,1.32v2h-.75v-2.21c0-.78-.39-1.16-1.07-1.16a1.18,1.18,0,0,0-1.25,1.32v2h-.75v-4h.72v.59a1.74,1.74,0,0,1,1.44-.63,1.56,1.56,0,0,1,1.44.74,1.9,1.9,0,0,1,1.6-.74A1.56,1.56,0,0,1,708.12,306Z" transform="translate(-181 -54.06)"/><path d="M711.47,303.07a.49.49,0,0,1,.51-.47.48.48,0,0,1,.51.45.51.51,0,0,1-1,0Zm.13,1.23h.76v4h-.76Z" transform="translate(-181 -54.06)"/><path d="M718.09,306.29a2,2,0,0,1-2.1,2,1.82,1.82,0,0,1-1.45-.65v2.06h-.75V304.3h.72v.63a1.81,1.81,0,0,1,1.48-.67A2,2,0,0,1,718.09,306.29Zm-.76,0a1.4,1.4,0,1,0-1.4,1.41A1.34,1.34,0,0,0,717.33,306.29Z" transform="translate(-181 -54.06)"/><path d="M718.61,307.86l.31-.57a2.76,2.76,0,0,0,1.46.42c.7,0,1-.21,1-.55,0-.89-2.63-.12-2.63-1.7,0-.72.67-1.2,1.73-1.2a3.22,3.22,0,0,1,1.52.36l-.32.57a2.29,2.29,0,0,0-1.2-.31c-.66,0-1,.23-1,.55,0,.94,2.64.17,2.64,1.72,0,.72-.69,1.18-1.8,1.18A3,3,0,0,1,718.61,307.86Z" transform="translate(-181 -54.06)"/><path d="M726.93,304.3v4h-.71v-.6a1.72,1.72,0,0,1-1.41.65,1.6,1.6,0,0,1-1.79-1.74V304.3h.75v2.21a1,1,0,0,0,1.12,1.17,1.19,1.19,0,0,0,1.29-1.32V304.3Z" transform="translate(-181 -54.06)"/><path d="M735.26,306v2.29h-.75v-2.21c0-.78-.39-1.16-1.08-1.16a1.17,1.17,0,0,0-1.24,1.32v2h-.76v-2.21c0-.78-.39-1.16-1.07-1.16a1.18,1.18,0,0,0-1.25,1.32v2h-.75v-4h.72v.59a1.74,1.74,0,0,1,1.44-.63A1.56,1.56,0,0,1,732,305a1.9,1.9,0,0,1,1.6-.74A1.56,1.56,0,0,1,735.26,306Z" transform="translate(-181 -54.06)"/><path d="M742.07,304.62l-2.78,1,2.78,1v.63L738.56,306v-.65l3.51-1.33Z" transform="translate(-181 -54.06)"/><path d="M745,302h.68L743.05,309h-.68Z" transform="translate(-181 -54.06)"/><path d="M747.5,303.68h-1.89V303h4.54v.66h-1.88v4.6h-.77Z" transform="translate(-181 -54.06)"/><path d="M751,303h.78v5.26H751Z" transform="translate(-181 -54.06)"/><path d="M754.52,303.68h-1.88V303h4.54v.66H755.3v4.6h-.78Z" transform="translate(-181 -54.06)"/><path d="M758,303h.79v4.61h3v.65H758Z" transform="translate(-181 -54.06)"/><path d="M766.67,307.63v.65h-4V303h3.88v.66h-3.09v1.61h2.75v.64h-2.75v1.7Z" transform="translate(-181 -54.06)"/><path d="M771.15,305.33V306l-3.52,1.33v-.63l2.79-1-2.79-1V304Z" transform="translate(-181 -54.06)"/><path d="M654.31,322.64l-2.78,1,2.78,1v.63L650.8,324v-.65l3.51-1.33Z" transform="translate(-181 -54.06)"/><path d="M657.2,320h.68l-2.59,7.08h-.68Z" transform="translate(-181 -54.06)"/><path d="M663.13,321v5.26h-.78V324H659.2v2.34h-.79V321h.79v2.26h3.15V321Z" transform="translate(-181 -54.06)"/><path d="M668.76,325.65v.65h-4V321h3.88v.66h-3.09v1.61h2.75V324h-2.75v1.7Z" transform="translate(-181 -54.06)"/><path d="M673.52,325H670.6l-.6,1.31h-.81l2.48-5.26h.78l2.49,5.26h-.82Zm-.28-.6-1.18-2.58-1.18,2.58Z" transform="translate(-181 -54.06)"/><path d="M675.76,321h2.31a2.65,2.65,0,1,1,0,5.26h-2.31Zm2.26,4.61a2,2,0,1,0,0-3.95h-1.48v3.95Z" transform="translate(-181 -54.06)"/><path d="M685.44,323.35V324l-3.51,1.33v-.63l2.79-1-2.79-1V322Z" transform="translate(-181 -54.06)"/><path d="M639.75,338.28l-2.78,1,2.78,1V341l-3.51-1.33V339l3.51-1.33Z" transform="translate(-181 -54.06)"/><path d="M645.81,340.52c0,.9-.71,1.42-2.1,1.42h-2.62v-5.26h2.47c1.26,0,2,.51,2,1.36a1.23,1.23,0,0,1-.73,1.17A1.28,1.28,0,0,1,645.81,340.52Zm-3.93-3.23V339h1.61c.8,0,1.25-.28,1.25-.84s-.45-.84-1.25-.84Zm3.14,3.17c0-.61-.47-.88-1.34-.88h-1.8v1.75h1.8C644.55,341.33,645,341.07,645,340.46Z" transform="translate(-181 -54.06)"/><path d="M646.58,339.31A2.92,2.92,0,1,1,649.5,342,2.73,2.73,0,0,1,646.58,339.31Zm5,0a2.14,2.14,0,1,0-2.13,2A2,2,0,0,0,651.63,339.31Z" transform="translate(-181 -54.06)"/><path d="M653.6,336.68h2.32a2.65,2.65,0,1,1,0,5.26H653.6Zm2.27,4.61a2,2,0,1,0,0-4h-1.48v4Z" transform="translate(-181 -54.06)"/><path d="M661.94,340.12v1.82h-.78v-1.83L659,336.68h.84l1.76,2.77,1.76-2.77h.78Z" transform="translate(-181 -54.06)"/><path d="M668.12,339v.64L664.61,341v-.62l2.79-1-2.79-1v-.62Z" transform="translate(-181 -54.06)"/><path d="M639.75,356.3l-2.78,1,2.78,1V359l-3.51-1.33V357l3.51-1.33Z" transform="translate(-181 -54.06)"/><path d="M645.81,354.7V360H645v-2.34h-3.15V360h-.79V354.7h.79V357H645V354.7Z" transform="translate(-181 -54.06)"/><path d="M648.71,354.7V360h-.78v-4.61h-1.24v-.65Z" transform="translate(-181 -54.06)"/><path d="M653.57,357v.64L650.05,359v-.62l2.79-1-2.79-1v-.62Z" transform="translate(-181 -54.06)"/><path d="M657.09,354.7h.58v4.78h3.07V360h-3.65Z" transform="translate(-181 -54.06)"/><path d="M661.11,358a2.1,2.1,0,1,1,2.1,2A2,2,0,0,1,661.11,358Zm3.63,0a1.54,1.54,0,1,0-1.53,1.55A1.48,1.48,0,0,0,664.74,358Z" transform="translate(-181 -54.06)"/><path d="M668.51,356v.52h-.13A1.3,1.3,0,0,0,667,358v2h-.56V356H667v.77A1.56,1.56,0,0,1,668.51,356Z" transform="translate(-181 -54.06)"/><path d="M673.06,358.15h-3.45a1.52,1.52,0,0,0,1.63,1.38,1.67,1.67,0,0,0,1.26-.52l.31.34a2.08,2.08,0,0,1-1.59.65,2,2,0,0,1-2.16-2,2,2,0,0,1,4,0S673.06,358.09,673.06,358.15Zm-3.45-.4h2.93a1.47,1.47,0,0,0-2.93,0Z" transform="translate(-181 -54.06)"/><path d="M681,357.67V360h-.56v-2.24a1.1,1.1,0,0,0-1.18-1.26,1.3,1.3,0,0,0-1.38,1.43V360h-.56v-2.24a1.11,1.11,0,0,0-1.19-1.26,1.3,1.3,0,0,0-1.38,1.43V360h-.56V356h.54v.72a1.69,1.69,0,0,1,1.51-.75,1.5,1.5,0,0,1,1.47.83,1.81,1.81,0,0,1,1.63-.83A1.52,1.52,0,0,1,681,357.67Z" transform="translate(-181 -54.06)"/><path d="M684.44,354.76a.4.4,0,0,1,.41-.38.38.38,0,1,1-.41.38Zm.13,1.25h.55V360h-.55Z" transform="translate(-181 -54.06)"/><path d="M690.85,358a2,2,0,0,1-2.05,2,1.82,1.82,0,0,1-1.57-.78v2.2h-.56V356h.54v.78a1.8,1.8,0,0,1,1.59-.81A2,2,0,0,1,690.85,358Zm-.55,0a1.54,1.54,0,1,0-1.54,1.55A1.49,1.49,0,0,0,690.3,358Z" transform="translate(-181 -54.06)"/><path d="M691.41,359.51l.25-.42a2.56,2.56,0,0,0,1.47.44c.78,0,1.1-.25,1.1-.64,0-1-2.67-.22-2.67-1.78,0-.65.58-1.13,1.63-1.13a2.87,2.87,0,0,1,1.46.37l-.24.42a2.2,2.2,0,0,0-1.22-.33c-.74,0-1.07.27-1.07.65,0,1.07,2.67.26,2.67,1.78,0,.69-.63,1.13-1.7,1.13A2.84,2.84,0,0,1,691.41,359.51Z" transform="translate(-181 -54.06)"/><path d="M699.53,356V360H699v-.72a1.67,1.67,0,0,1-1.48.76,1.56,1.56,0,0,1-1.74-1.7V356h.55v2.24a1.13,1.13,0,0,0,1.24,1.27,1.31,1.31,0,0,0,1.4-1.44V356Z" transform="translate(-181 -54.06)"/><path d="M707.89,357.67V360h-.55v-2.24a1.11,1.11,0,0,0-1.19-1.26,1.3,1.3,0,0,0-1.38,1.43V360h-.56v-2.24a1.11,1.11,0,0,0-1.19-1.26,1.3,1.3,0,0,0-1.38,1.43V360h-.55V356h.53v.72a1.69,1.69,0,0,1,1.51-.75,1.5,1.5,0,0,1,1.47.83,1.81,1.81,0,0,1,1.63-.83A1.52,1.52,0,0,1,707.89,357.67Z" transform="translate(-181 -54.06)"/><path d="M715.21,354.38V360h-.53v-.78a1.82,1.82,0,0,1-1.59.82,2,2,0,1,1,0-4,1.8,1.8,0,0,1,1.56.78v-2.38Zm-.55,3.6a1.53,1.53,0,1,0-1.53,1.55A1.48,1.48,0,0,0,714.66,358Z" transform="translate(-181 -54.06)"/><path d="M716.34,358a2.1,2.1,0,1,1,2.11,2A2,2,0,0,1,716.34,358Zm3.63,0a1.53,1.53,0,1,0-1.52,1.55A1.47,1.47,0,0,0,720,358Z" transform="translate(-181 -54.06)"/><path d="M721.67,354.38h.56V360h-.56Z" transform="translate(-181 -54.06)"/><path d="M723.36,358a2.1,2.1,0,1,1,2.1,2A2,2,0,0,1,723.36,358Zm3.63,0a1.53,1.53,0,1,0-1.53,1.55A1.47,1.47,0,0,0,727,358Z" transform="translate(-181 -54.06)"/><path d="M730.77,356v.52h-.14a1.3,1.3,0,0,0-1.38,1.46v2h-.56V356h.53v.77A1.58,1.58,0,0,1,730.77,356Z" transform="translate(-181 -54.06)"/><path d="M733.31,359.51l.25-.42a2.56,2.56,0,0,0,1.47.44c.78,0,1.1-.25,1.1-.64,0-1-2.67-.22-2.67-1.78,0-.65.58-1.13,1.63-1.13a2.87,2.87,0,0,1,1.46.37l-.25.42a2.17,2.17,0,0,0-1.21-.33c-.75,0-1.08.27-1.08.65,0,1.07,2.68.26,2.68,1.78,0,.69-.63,1.13-1.7,1.13A2.84,2.84,0,0,1,733.31,359.51Z" transform="translate(-181 -54.06)"/><path d="M737.59,354.76a.4.4,0,0,1,.4-.38.38.38,0,1,1-.4.38Zm.12,1.25h.56V360h-.56Z" transform="translate(-181 -54.06)"/><path d="M742,359.72a1.35,1.35,0,0,1-.87.28,1.07,1.07,0,0,1-1.21-1.15v-2.39h-.73V356h.73v-.87h.56V356h1.26v.45h-1.26v2.36a.65.65,0,0,0,.71.72,1,1,0,0,0,.61-.2Z" transform="translate(-181 -54.06)"/><path d="M748.16,357.51V360h-.53v-.61a1.57,1.57,0,0,1-1.42.65c-.93,0-1.5-.47-1.5-1.15s.4-1.12,1.59-1.12h1.31v-.24c0-.68-.4-1.05-1.17-1.05a2.12,2.12,0,0,0-1.37.47l-.25-.4a2.65,2.65,0,0,1,1.67-.53C747.56,356,748.16,356.49,748.16,357.51Zm-.55,1.26v-.64h-1.3c-.79,0-1,.3-1,.7s.38.75,1,.75A1.33,1.33,0,0,0,747.61,358.77Z" transform="translate(-181 -54.06)"/><path d="M756.48,357.67V360h-.56v-2.24a1.1,1.1,0,0,0-1.18-1.26,1.3,1.3,0,0,0-1.38,1.43V360h-.56v-2.24a1.11,1.11,0,0,0-1.19-1.26,1.3,1.3,0,0,0-1.38,1.43V360h-.56V356h.53v.72a1.72,1.72,0,0,1,1.52-.75,1.49,1.49,0,0,1,1.46.83,1.83,1.83,0,0,1,1.64-.83A1.52,1.52,0,0,1,756.48,357.67Z" transform="translate(-181 -54.06)"/><path d="M761.59,358.15h-3.45a1.5,1.5,0,0,0,1.62,1.38A1.71,1.71,0,0,0,761,359l.31.34a2.08,2.08,0,0,1-1.59.65,2,2,0,0,1-2.17-2,1.94,1.94,0,0,1,2-2,1.92,1.92,0,0,1,2,2S761.59,358.09,761.59,358.15Zm-3.45-.4h2.93a1.42,1.42,0,0,0-1.47-1.31A1.41,1.41,0,0,0,758.14,357.75Z" transform="translate(-181 -54.06)"/><path d="M764.9,359.72a1.35,1.35,0,0,1-.87.28,1.07,1.07,0,0,1-1.21-1.15v-2.39h-.73V356h.73v-.87h.56V356h1.25v.45h-1.25v2.36a.65.65,0,0,0,.71.72,1,1,0,0,0,.61-.2Z" transform="translate(-181 -54.06)"/><path d="M766.47,359.59a1.41,1.41,0,0,1-.11.43l-.33,1h-.38l.27-1.09a.39.39,0,0,1-.29-.38.42.42,0,0,1,.84,0Z" transform="translate(-181 -54.06)"/><path d="M769.29,358a2,2,0,0,1,2.12-2,1.83,1.83,0,0,1,1.62.78l-.42.27a1.42,1.42,0,0,0-1.2-.59,1.55,1.55,0,1,0,0,3.09,1.41,1.41,0,0,0,1.2-.58l.42.27a1.85,1.85,0,0,1-1.62.78A2,2,0,0,1,769.29,358Z" transform="translate(-181 -54.06)"/><path d="M773.62,358a2.1,2.1,0,1,1,2.11,2A2,2,0,0,1,773.62,358Zm3.64,0a1.54,1.54,0,1,0-1.53,1.55A1.47,1.47,0,0,0,777.26,358Z" transform="translate(-181 -54.06)"/><path d="M782.75,357.67V360h-.56v-2.24a1.12,1.12,0,0,0-1.24-1.26,1.33,1.33,0,0,0-1.44,1.43V360H779V356h.54v.73a1.74,1.74,0,0,1,1.56-.76A1.54,1.54,0,0,1,782.75,357.67Z" transform="translate(-181 -54.06)"/><path d="M783.68,359.51l.25-.42a2.56,2.56,0,0,0,1.47.44c.78,0,1.11-.25,1.11-.64,0-1-2.68-.22-2.68-1.78,0-.65.58-1.13,1.63-1.13a2.82,2.82,0,0,1,1.46.37l-.24.42a2.18,2.18,0,0,0-1.22-.33c-.74,0-1.07.27-1.07.65,0,1.07,2.67.26,2.67,1.78,0,.69-.62,1.13-1.7,1.13A2.84,2.84,0,0,1,783.68,359.51Z" transform="translate(-181 -54.06)"/><path d="M791.68,358.15h-3.45a1.5,1.5,0,0,0,1.62,1.38,1.67,1.67,0,0,0,1.26-.52l.32.34a2.1,2.1,0,0,1-1.6.65,2,2,0,0,1-2.16-2,2,2,0,0,1,4,0Zm-3.45-.4h2.92a1.47,1.47,0,0,0-2.92,0Z" transform="translate(-181 -54.06)"/><path d="M792.4,358a2,2,0,0,1,2.13-2,1.82,1.82,0,0,1,1.61.78l-.42.27a1.41,1.41,0,0,0-1.19-.59,1.55,1.55,0,1,0,0,3.09,1.4,1.4,0,0,0,1.19-.58l.42.27a1.84,1.84,0,0,1-1.61.78A2,2,0,0,1,792.4,358Z" transform="translate(-181 -54.06)"/><path d="M799.44,359.72a1.32,1.32,0,0,1-.87.28,1.07,1.07,0,0,1-1.2-1.15v-2.39h-.74V356h.74v-.87h.55V356h1.26v.45h-1.26v2.36a.65.65,0,0,0,.72.72,1,1,0,0,0,.61-.2Z" transform="translate(-181 -54.06)"/><path d="M803.9,358.15h-3.45a1.5,1.5,0,0,0,1.62,1.38,1.67,1.67,0,0,0,1.26-.52l.32.34a2.1,2.1,0,0,1-1.6.65,2,2,0,0,1-2.16-2,2,2,0,0,1,4,0Zm-3.45-.4h2.92a1.47,1.47,0,0,0-2.92,0Z" transform="translate(-181 -54.06)"/><path d="M807.21,359.72a1.35,1.35,0,0,1-.87.28,1.07,1.07,0,0,1-1.21-1.15v-2.39h-.74V356h.74v-.87h.56V356h1.25v.45h-1.25v2.36a.65.65,0,0,0,.71.72,1,1,0,0,0,.61-.2Z" transform="translate(-181 -54.06)"/><path d="M811.93,356V360h-.53v-.72a1.66,1.66,0,0,1-1.48.76,1.56,1.56,0,0,1-1.74-1.7V356h.55v2.24a1.13,1.13,0,0,0,1.24,1.27,1.32,1.32,0,0,0,1.41-1.44V356Z" transform="translate(-181 -54.06)"/><path d="M817.08,358.15h-3.45a1.5,1.5,0,0,0,1.62,1.38,1.67,1.67,0,0,0,1.26-.52l.32.34a2.08,2.08,0,0,1-1.59.65,2,2,0,0,1-2.17-2,1.94,1.94,0,0,1,2-2,1.91,1.91,0,0,1,2,2Zm-3.45-.4h2.92a1.47,1.47,0,0,0-2.92,0Z" transform="translate(-181 -54.06)"/><path d="M820.3,356v.52h-.14a1.31,1.31,0,0,0-1.39,1.46v2h-.55V356h.53v.77A1.59,1.59,0,0,1,820.3,356Z" transform="translate(-181 -54.06)"/><path d="M639.6,366.52V369h-.53v-.62a1.57,1.57,0,0,1-1.42.66c-.93,0-1.51-.47-1.51-1.15s.41-1.12,1.6-1.12H639v-.24c0-.68-.4-1.05-1.16-1.05a2.15,2.15,0,0,0-1.38.47l-.25-.4a2.7,2.7,0,0,1,1.68-.53C639,365,639.6,365.5,639.6,366.52Zm-.56,1.26v-.64h-1.29c-.8,0-1.06.3-1.06.7s.39.75,1,.75A1.32,1.32,0,0,0,639,367.78Z" transform="translate(-181 -54.06)"/><path d="M644.89,363.39V369h-.54v-.78a1.8,1.8,0,0,1-1.59.82,2,2,0,1,1,0-4,1.82,1.82,0,0,1,1.57.78v-2.38Zm-.55,3.6a1.54,1.54,0,1,0-1.53,1.54A1.48,1.48,0,0,0,644.34,367Z" transform="translate(-181 -54.06)"/><path d="M646.31,363.77a.4.4,0,0,1,.41-.38.38.38,0,1,1,0,.76A.39.39,0,0,1,646.31,363.77Zm.12,1.25H647v4h-.56Z" transform="translate(-181 -54.06)"/><path d="M652.72,367a2,2,0,0,1-2.05,2,1.83,1.83,0,0,1-1.57-.78v2.2h-.56V365h.54v.78a1.8,1.8,0,0,1,1.59-.81A2,2,0,0,1,652.72,367Zm-.55,0a1.54,1.54,0,1,0-3.08,0,1.54,1.54,0,0,0,3.08,0Z" transform="translate(-181 -54.06)"/><path d="M653.73,363.77a.4.4,0,0,1,.41-.38.38.38,0,1,1,0,.76A.39.39,0,0,1,653.73,363.77Zm.12,1.25h.56v4h-.56Z" transform="translate(-181 -54.06)"/><path d="M655.39,368.52l.25-.42a2.54,2.54,0,0,0,1.47.44c.78,0,1.1-.25,1.1-.64,0-1-2.67-.22-2.67-1.79,0-.64.58-1.12,1.63-1.12a2.87,2.87,0,0,1,1.46.37l-.25.42a2.17,2.17,0,0,0-1.21-.33c-.75,0-1.08.27-1.08.65,0,1.07,2.68.26,2.68,1.78,0,.69-.63,1.13-1.7,1.13A2.82,2.82,0,0,1,655.39,368.52Z" transform="translate(-181 -54.06)"/><path d="M659.38,367a2,2,0,0,1,2.12-2,1.83,1.83,0,0,1,1.62.78l-.42.27a1.42,1.42,0,0,0-1.2-.59,1.54,1.54,0,1,0,0,3.08,1.42,1.42,0,0,0,1.2-.57l.42.27a1.85,1.85,0,0,1-1.62.78A2,2,0,0,1,659.38,367Z" transform="translate(-181 -54.06)"/><path d="M664.07,363.77a.41.41,0,0,1,.41-.38.38.38,0,1,1,0,.76A.4.4,0,0,1,664.07,363.77Zm.13,1.25h.56v4h-.56Z" transform="translate(-181 -54.06)"/><path d="M670.1,366.68V369h-.55v-2.24a1.13,1.13,0,0,0-1.24-1.26,1.32,1.32,0,0,0-1.45,1.43V369h-.55v-4h.53v.73a1.77,1.77,0,0,1,1.57-.76A1.54,1.54,0,0,1,670.1,366.68Z" transform="translate(-181 -54.06)"/><path d="M675.44,365v3.47c0,1.36-.69,2-2.06,2a3,3,0,0,1-1.92-.61l.28-.41a2.54,2.54,0,0,0,1.63.54c1,0,1.52-.46,1.52-1.43v-.51a1.89,1.89,0,0,1-1.61.77,1.92,1.92,0,1,1,0-3.83,1.88,1.88,0,0,1,1.63.79V365Zm-.54,1.88a1.57,1.57,0,1,0-1.56,1.45A1.45,1.45,0,0,0,674.9,366.9Z" transform="translate(-181 -54.06)"/><path d="M682.64,367.16h-3.45a1.5,1.5,0,0,0,1.63,1.37,1.67,1.67,0,0,0,1.26-.51l.31.34a2.08,2.08,0,0,1-1.59.65,2,2,0,0,1-2.16-2,2,2,0,0,1,4,0C682.65,367,682.64,367.1,682.64,367.16Zm-3.45-.4h2.93a1.47,1.47,0,0,0-2.93,0Z" transform="translate(-181 -54.06)"/><path d="M683.78,363.39h.56V369h-.56Z" transform="translate(-181 -54.06)"/><path d="M685.76,363.77a.4.4,0,0,1,.41-.38.38.38,0,1,1-.41.38Zm.13,1.25h.56v4h-.56Z" transform="translate(-181 -54.06)"/><path d="M690.17,368.73a1.35,1.35,0,0,1-.87.28,1.07,1.07,0,0,1-1.21-1.15v-2.39h-.74V365h.74v-.87h.56V365h1.25v.45h-1.25v2.36a.65.65,0,0,0,.71.72,1,1,0,0,0,.61-.2Z" transform="translate(-181 -54.06)"/><path d="M691.73,368.6a1.16,1.16,0,0,1-.11.43l-.33,1h-.37l.26-1.09a.39.39,0,0,1-.28-.38.42.42,0,0,1,.83,0Z" transform="translate(-181 -54.06)"/><path d="M694.4,368.52l.25-.42a2.53,2.53,0,0,0,1.46.44c.79,0,1.11-.25,1.11-.64,0-1-2.67-.22-2.67-1.79,0-.64.57-1.12,1.63-1.12a2.81,2.81,0,0,1,1.45.37l-.24.42a2.17,2.17,0,0,0-1.21-.33c-.75,0-1.08.27-1.08.65,0,1.07,2.68.26,2.68,1.78,0,.69-.63,1.13-1.71,1.13A2.79,2.79,0,0,1,694.4,368.52Z" transform="translate(-181 -54.06)"/><path d="M702.39,367.16h-3.45a1.49,1.49,0,0,0,1.62,1.37,1.7,1.7,0,0,0,1.27-.51l.31.34a2.08,2.08,0,0,1-1.59.65,2,2,0,0,1-2.17-2,1.94,1.94,0,0,1,2-2,1.92,1.92,0,0,1,2,2C702.4,367,702.39,367.1,702.39,367.16Zm-3.45-.4h2.92a1.47,1.47,0,0,0-2.92,0Z" transform="translate(-181 -54.06)"/><path d="M707.29,363.39V369h-.53v-.78a1.82,1.82,0,0,1-1.59.82,2,2,0,1,1,0-4,1.83,1.83,0,0,1,1.57.78v-2.38Zm-.55,3.6a1.53,1.53,0,1,0-1.53,1.54A1.47,1.47,0,0,0,706.74,367Z" transform="translate(-181 -54.06)"/><path d="M714.65,363.39V369h-.53v-.78a1.82,1.82,0,0,1-1.59.82,2,2,0,1,1,0-4,1.83,1.83,0,0,1,1.57.78v-2.38Zm-.54,3.6a1.54,1.54,0,1,0-1.53,1.54A1.48,1.48,0,0,0,714.11,367Z" transform="translate(-181 -54.06)"/><path d="M716.08,363.77a.4.4,0,0,1,.4-.38.38.38,0,1,1-.4.38Zm.12,1.25h.56v4h-.56Z" transform="translate(-181 -54.06)"/><path d="M721.42,366.52V369h-.53v-.62a1.57,1.57,0,0,1-1.42.66c-.93,0-1.51-.47-1.51-1.15s.41-1.12,1.6-1.12h1.31v-.24c0-.68-.4-1.05-1.17-1.05a2.1,2.1,0,0,0-1.37.47l-.25-.4a2.65,2.65,0,0,1,1.67-.53C720.82,365,721.42,365.5,721.42,366.52Zm-.55,1.26v-.64h-1.3c-.8,0-1.06.3-1.06.7s.39.75,1,.75A1.33,1.33,0,0,0,720.87,367.78Z" transform="translate(-181 -54.06)"/><path d="M729.74,366.68V369h-.56v-2.24a1.1,1.1,0,0,0-1.18-1.26,1.29,1.29,0,0,0-1.38,1.43V369h-.56v-2.24a1.11,1.11,0,0,0-1.19-1.26,1.3,1.3,0,0,0-1.38,1.43V369h-.56v-4h.53v.72A1.72,1.72,0,0,1,725,365a1.49,1.49,0,0,1,1.46.83,1.83,1.83,0,0,1,1.64-.83A1.52,1.52,0,0,1,729.74,366.68Z" transform="translate(-181 -54.06)"/><path d="M734.5,365.31l-2.78,1,2.78,1V368L731,366.66V366l3.51-1.33Z" transform="translate(-181 -54.06)"/><path d="M737.39,362.64h.69l-2.59,7.08h-.68Z" transform="translate(-181 -54.06)"/><path d="M743.32,363.71V369h-.78v-2.34h-3.15V369h-.78v-5.26h.78V366h3.15v-2.26Z" transform="translate(-181 -54.06)"/><path d="M746.22,363.71V369h-.78v-4.61H744.2v-.65Z" transform="translate(-181 -54.06)"/><path d="M751.08,366v.64L747.57,368v-.62l2.79-1-2.79-1v-.62Z" transform="translate(-181 -54.06)"/><path d="M639.75,383.33l-2.78,1,2.78,1V386l-3.51-1.33V384l3.51-1.33Z" transform="translate(-181 -54.06)"/><path d="M645.52,383.56c0,1.15-.86,1.84-2.28,1.84h-1.36V387h-.79v-5.26h2.15C644.66,381.73,645.52,382.42,645.52,383.56Zm-.78,0c0-.75-.53-1.18-1.53-1.18h-1.33v2.36h1.33C644.21,384.74,644.74,384.31,644.74,383.56Z" transform="translate(-181 -54.06)"/><path d="M650,384v.64L646.45,386v-.62l2.79-1-2.79-1v-.62Z" transform="translate(-181 -54.06)"/><path d="M656.63,383.33l-2.78,1,2.78,1V386l-3.51-1.33V384l3.51-1.33Z" transform="translate(-181 -54.06)"/><path d="M658,381.73h.79V387H658Z" transform="translate(-181 -54.06)"/><path d="M665.49,387v-3.83l-2,3.19h-.36l-2-3.17V387h-.75v-5.26H661l2.29,3.7,2.26-3.7h.65V387Z" transform="translate(-181 -54.06)"/><path d="M671.68,384.33h.76v2.05a3.3,3.3,0,0,1-2.08.67,2.7,2.7,0,1,1,0-5.38,2.84,2.84,0,0,1,2.11.81L672,383a2.24,2.24,0,0,0-1.59-.61,2,2,0,1,0,0,4,2.39,2.39,0,0,0,1.28-.34Z" transform="translate(-181 -54.06)"/><path d="M675.53,386.39l.29-.59a2.88,2.88,0,0,0,1.82.61c.94,0,1.35-.35,1.35-.81,0-1.29-3.32-.47-3.32-2.43,0-.81.66-1.5,2.1-1.5a3.23,3.23,0,0,1,1.76.47l-.26.6a2.84,2.84,0,0,0-1.5-.43c-.94,0-1.33.37-1.33.83,0,1.29,3.32.48,3.32,2.42,0,.8-.67,1.49-2.12,1.49A3.38,3.38,0,0,1,675.53,386.39Z" transform="translate(-181 -54.06)"/><path d="M684.57,387l-1.19-1.61h-1.7V387h-.78v-5.26H683c1.43,0,2.29.69,2.29,1.83a1.66,1.66,0,0,1-1.21,1.66l1.31,1.77Zm0-3.43c0-.75-.53-1.18-1.53-1.18h-1.34v2.37H683C684,384.75,684.55,384.31,684.55,383.56Z" transform="translate(-181 -54.06)"/><path d="M686.15,384.36a2.72,2.72,0,0,1,2.91-2.69,2.77,2.77,0,0,1,2.08.82l-.51.47a2.06,2.06,0,0,0-1.54-.62,2,2,0,1,0,0,4,2.07,2.07,0,0,0,1.54-.63l.51.47a2.75,2.75,0,0,1-2.09.83A2.72,2.72,0,0,1,686.15,384.36Z" transform="translate(-181 -54.06)"/><path d="M692,383.17h3.51v.6H692Zm0,1.78h3.51v.6H692Z" transform="translate(-181 -54.06)"/><path d="M698.59,381.73h.66l0,2h-.56Zm1.42,0h.66l0,2h-.56Z" transform="translate(-181 -54.06)"/><path d="M702,381.73h.78v4.61h3V387H702Z" transform="translate(-181 -54.06)"/><path d="M706.09,385a2.16,2.16,0,1,1,2.16,2A2,2,0,0,1,706.09,385Zm3.56,0a1.4,1.4,0,1,0-1.4,1.4A1.34,1.34,0,0,0,709.65,385Z" transform="translate(-181 -54.06)"/><path d="M713.68,383v.7h-.17A1.21,1.21,0,0,0,712.2,385v2h-.75v-4h.72v.67A1.6,1.6,0,0,1,713.68,383Z" transform="translate(-181 -54.06)"/><path d="M718.31,385.24h-3.38a1.4,1.4,0,0,0,1.51,1.16,1.56,1.56,0,0,0,1.2-.48l.42.47a2.14,2.14,0,0,1-1.64.65,2,2,0,0,1-2.24-2,2,2,0,0,1,2.09-2,2,2,0,0,1,2.05,2C718.32,385.08,718.31,385.17,718.31,385.24Zm-3.38-.52h2.67a1.35,1.35,0,0,0-2.67,0Z" transform="translate(-181 -54.06)"/><path d="M726.26,384.7V387h-.75v-2.21c0-.78-.39-1.16-1.08-1.16a1.17,1.17,0,0,0-1.24,1.32V387h-.76v-2.21c0-.78-.39-1.16-1.07-1.16a1.18,1.18,0,0,0-1.25,1.32V387h-.75v-4h.72v.59a1.71,1.71,0,0,1,1.44-.63,1.56,1.56,0,0,1,1.44.74,1.87,1.87,0,0,1,1.6-.74A1.56,1.56,0,0,1,726.26,384.7Z" transform="translate(-181 -54.06)"/><path d="M729.61,381.77a.49.49,0,0,1,.51-.47.47.47,0,1,1-.51.47Zm.14,1.24h.75v4h-.75Z" transform="translate(-181 -54.06)"/><path d="M736.24,385a2,2,0,0,1-2.1,2,1.83,1.83,0,0,1-1.46-.65v2.06h-.75V383h.72v.63a1.79,1.79,0,0,1,1.49-.67A2,2,0,0,1,736.24,385Zm-.76,0a1.4,1.4,0,1,0-2.8,0,1.4,1.4,0,1,0,2.8,0Z" transform="translate(-181 -54.06)"/><path d="M736.75,386.57l.31-.57a2.79,2.79,0,0,0,1.46.41c.7,0,1-.2,1-.54,0-.89-2.63-.12-2.63-1.71,0-.71.67-1.19,1.74-1.19a3.09,3.09,0,0,1,1.51.36l-.32.57a2.29,2.29,0,0,0-1.2-.31c-.66,0-1,.23-1,.54,0,.94,2.63.18,2.63,1.73,0,.72-.69,1.18-1.8,1.18A3.08,3.08,0,0,1,736.75,386.57Z" transform="translate(-181 -54.06)"/><path d="M745.07,383v4h-.71v-.6A1.74,1.74,0,0,1,743,387a1.6,1.6,0,0,1-1.79-1.74V383h.75v2.21a1,1,0,0,0,1.12,1.17,1.2,1.2,0,0,0,1.29-1.32V383Z" transform="translate(-181 -54.06)"/><path d="M753.4,384.7V387h-.75v-2.21c0-.78-.39-1.16-1.08-1.16a1.17,1.17,0,0,0-1.24,1.32V387h-.76v-2.21c0-.78-.39-1.16-1.07-1.16a1.18,1.18,0,0,0-1.25,1.32V387h-.75v-4h.72v.59a1.71,1.71,0,0,1,1.44-.63,1.55,1.55,0,0,1,1.44.74,1.87,1.87,0,0,1,1.6-.74A1.56,1.56,0,0,1,753.4,384.7Z" transform="translate(-181 -54.06)"/><path d="M754.56,381.73h.66l-.06,2h-.55Zm1.42,0h.66l-.06,2H756Z" transform="translate(-181 -54.06)"/><path d="M761.17,384v.64L757.65,386v-.62l2.79-1-2.79-1v-.62Z" transform="translate(-181 -54.06)"/><path d="M765.73,383.33l-2.79,1,2.79,1V386l-3.52-1.33V384l3.52-1.33Z" transform="translate(-181 -54.06)"/><path d="M768.62,380.66h.68l-2.59,7.08H766Z" transform="translate(-181 -54.06)"/><path d="M774.26,383.56c0,1.15-.87,1.84-2.29,1.84h-1.36V387h-.78v-5.26H772C773.39,381.73,774.26,382.42,774.26,383.56Zm-.79,0c0-.75-.52-1.18-1.53-1.18h-1.33v2.36h1.33C773,384.74,773.47,384.31,773.47,383.56Z" transform="translate(-181 -54.06)"/><path d="M778.7,384v.64L775.18,386v-.62l2.8-1-2.8-1v-.62Z" transform="translate(-181 -54.06)"/><path d="M639.75,401.35l-2.78,1,2.78,1V404l-3.51-1.33v-.64l3.51-1.33Z" transform="translate(-181 -54.06)"/><path d="M642.64,398.68h.68l-2.59,7.08h-.68Z" transform="translate(-181 -54.06)"/><path d="M648.57,403.59c0,.9-.71,1.42-2.1,1.42h-2.62v-5.26h2.46c1.27,0,2,.51,2,1.36a1.24,1.24,0,0,1-.74,1.17A1.29,1.29,0,0,1,648.57,403.59Zm-3.93-3.23V402h1.6c.8,0,1.26-.28,1.26-.84s-.46-.84-1.26-.84Zm3.14,3.17c0-.61-.47-.88-1.34-.88h-1.8v1.75h1.8C647.31,404.4,647.78,404.14,647.78,403.53Z" transform="translate(-181 -54.06)"/><path d="M649.33,402.38a2.93,2.93,0,1,1,2.93,2.69A2.74,2.74,0,0,1,649.33,402.38Zm5,0a2.13,2.13,0,1,0-2.12,2A2,2,0,0,0,654.38,402.38Z" transform="translate(-181 -54.06)"/><path d="M656.36,399.75h2.31a2.65,2.65,0,1,1,0,5.26h-2.31Zm2.27,4.61a2,2,0,1,0,0-4h-1.49v4Z" transform="translate(-181 -54.06)"/><path d="M664.7,403.19V405h-.78v-1.83l-2.18-3.43h.84l1.76,2.77,1.76-2.77h.78Z" transform="translate(-181 -54.06)"/><path d="M670.88,402.06v.64L667.36,404v-.62l2.8-1-2.8-1v-.62Z" transform="translate(-181 -54.06)"/><path d="M850.64,260.56c0,.23-54.25.42-121.16.42s-121.16-.19-121.16-.42,54.24-.42,121.16-.42S850.64,260.33,850.64,260.56Z" transform="translate(-181 -54.06)" fill="#1a2e35"/><path d="M615.58,252.27a1.56,1.56,0,1,1-1.56-1.5A1.53,1.53,0,0,1,615.58,252.27Z" transform="translate(-181 -54.06)" fill="#1a2e35"/><ellipse cx="439.01" cy="198.21" rx="1.56" ry="1.49" fill="#1a2e35"/><path d="M627.56,252.27a1.56,1.56,0,1,1-1.56-1.5A1.53,1.53,0,0,1,627.56,252.27Z" transform="translate(-181 -54.06)" fill="#1a2e35"/><path d="M623.71,436.23c-.25,0-.44-39.42-.44-88s.19-88.05.44-88.05.44,39.42.44,88.05S624,436.23,623.71,436.23Z" transform="translate(-181 -54.06)" fill="#e1e1e1"/><rect x="103.37" y="35.43" width="100.16" height="68.44" fill="#ff4f5b"/><path d="M385.31,99.64c0,.24-22.61.42-50.49.42s-50.5-.18-50.5-.42,22.61-.42,50.5-.42S385.31,99.41,385.31,99.64Z" transform="translate(-181 -54.06)" fill="#fff"/><path d="M292.54,94.65a1.37,1.37,0,0,1-2.7,0,1.37,1.37,0,0,1,2.7,0Z" transform="translate(-181 -54.06)" fill="#fff"/><path d="M297.46,94.65a1.37,1.37,0,1,1-1.35-1.14A1.25,1.25,0,0,1,297.46,94.65Z" transform="translate(-181 -54.06)" fill="#fff"/><ellipse cx="120.02" cy="40.59" rx="1.35" ry="1.14" fill="#fff"/><path d="M321.41,126.94c0,4.11-3.11,6.59-8.22,6.59h-5.41v6.09h-2.13v-19.3h7.54C318.3,120.32,321.41,122.8,321.41,126.94Zm-2.13,0c0-3.09-2.13-4.85-6.15-4.85h-5.35v9.64h5.35C317.15,131.73,319.28,130,319.28,126.94Z" transform="translate(-181 -54.06)" fill="#fff"/><path d="M342.83,120.32v19.3h-2.1v-8.91h-12.6v8.91H326v-19.3h2.13v8.6h12.6v-8.6Z" transform="translate(-181 -54.06)" fill="#fff"/><path d="M365.14,126.94c0,4.11-3.11,6.59-8.23,6.59H351.5v6.09h-2.12v-19.3h7.53C362,120.32,365.14,122.8,365.14,126.94Zm-2.13,0c0-3.09-2.13-4.85-6.16-4.85H351.5v9.64h5.35C360.88,131.73,363,130,363,126.94Z" transform="translate(-181 -54.06)" fill="#fff"/><rect x="647.96" y="297.14" width="90.54" height="61.87" fill="#ff4f5b"/><path d="M859.5,379.93v12.28h-3v-5h-5.82v5h-3V379.93h3v4.84h5.82v-4.84Z" transform="translate(-181 -54.06)" fill="#fff"/><path d="M865.19,382.24h-4.1v-2.31h11.16v2.31h-4.1v10h-3Z" transform="translate(-181 -54.06)" fill="#fff"/><path d="M873.85,379.93h3v10h6.42v2.32h-9.38Z" transform="translate(-181 -54.06)" fill="#fff"/><path d="M896.56,392.21l0-7.37-3.77,6.07h-1.34L887.68,385v7.21H884.9V379.93h2.45l4.8,7.63,4.72-7.63h2.43l0,12.28Z" transform="translate(-181 -54.06)" fill="#fff"/><path d="M920.21,360.38c0,.15-20.43.27-45.64.27s-45.65-.12-45.65-.27,20.44-.27,45.65-.27S920.21,360.23,920.21,360.38Z" transform="translate(-181 -54.06)" fill="#fff"/><path d="M836.35,355.86a1.24,1.24,0,1,1-1.22-1A1.14,1.14,0,0,1,836.35,355.86Z" transform="translate(-181 -54.06)" fill="#fff"/><path d="M840.79,355.86a1.23,1.23,0,1,1-1.21-1A1.13,1.13,0,0,1,840.79,355.86Z" transform="translate(-181 -54.06)" fill="#fff"/><path d="M845.24,355.86a1.24,1.24,0,1,1-1.22-1A1.14,1.14,0,0,1,845.24,355.86Z" transform="translate(-181 -54.06)" fill="#fff"/><rect x="55.31" y="296.25" width="66.74" height="45.6" fill="#ff4f5b"/><path d="M303.57,357.08c0,.11-15.06.2-33.64.2s-33.65-.09-33.65-.2,15.06-.21,33.65-.21S303.57,357,303.57,357.08Z" transform="translate(-181 -54.06)" fill="#fff"/><path d="M241.75,353.75a.91.91,0,1,1-.9-.76A.83.83,0,0,1,241.75,353.75Z" transform="translate(-181 -54.06)" fill="#fff"/><path d="M245,353.75a.91.91,0,1,1-.9-.76A.83.83,0,0,1,245,353.75Z" transform="translate(-181 -54.06)" fill="#fff"/><path d="M248.3,353.75a.91.91,0,0,1-1.79,0,.91.91,0,0,1,1.79,0Z" transform="translate(-181 -54.06)" fill="#fff"/><path d="M634,174.56c0-7,5.54-12.15,13-12.15a12.19,12.19,0,0,1,8.9,3.32l-1.15,1.13A10.71,10.71,0,0,0,647,164c-6.39,0-11.21,4.52-11.21,10.54s4.82,10.55,11.21,10.55a10.75,10.75,0,0,0,7.68-2.88l1.15,1.13a12.22,12.22,0,0,1-8.9,3.36C639.54,186.72,634,181.55,634,174.56Z" transform="translate(-181 -54.06)" fill="#ff4f5b"/><path d="M659.3,183.47l.82-1.31a12.12,12.12,0,0,0,8.25,3c5,0,7.22-2.09,7.22-4.69,0-7.19-15.61-2.88-15.61-11.71,0-3.39,2.71-6.37,8.85-6.37a13.89,13.89,0,0,1,7.54,2.15l-.68,1.41a12.74,12.74,0,0,0-6.86-2c-4.85,0-7,2.16-7,4.79,0,7.19,15.61,2.95,15.61,11.64,0,3.39-2.82,6.34-9,6.34C664.69,186.72,661.12,185.38,659.3,183.47Z" transform="translate(-181 -54.06)" fill="#ff4f5b"/><path d="M681.05,183.47l.82-1.31a12.14,12.14,0,0,0,8.25,3c5,0,7.22-2.09,7.22-4.69,0-7.19-15.61-2.88-15.61-11.71,0-3.39,2.71-6.37,8.86-6.37a13.89,13.89,0,0,1,7.54,2.15l-.68,1.41a12.74,12.74,0,0,0-6.86-2c-4.86,0-7,2.16-7,4.79,0,7.19,15.61,2.95,15.61,11.64,0,3.39-2.82,6.34-9,6.34C686.44,186.72,682.87,185.38,681.05,183.47Z" transform="translate(-181 -54.06)" fill="#ff4f5b"/><path d="M720.45,205.73s0-.45,0-1.28,0-2.07,0-3.64c0-3.22,0-7.89-.09-13.87,0-12-.1-29.18-.18-50.17l.35.34-111.37.09h0l.44-.43c0,24.49,0,47.81,0,69l-.4-.39,80.12.19,23,.1,6.13.05,1.59,0,.56,0-.51,0-1.55,0-6,0-22.88.1-80.39.19h-.41v-.38c0-21.15,0-44.47,0-69v-.42h.45l111.37.09h.35v.33c-.08,21.08-.14,38.35-.19,50.38,0,5.94-.07,10.59-.09,13.79,0,1.55,0,2.74,0,3.58S720.45,205.73,720.45,205.73Z" transform="translate(-181 -54.06)" fill="#ff4f5b"/><path d="M720.45,147c0,.24-25,.43-55.71.43S609,147.24,609,147s24.94-.42,55.72-.42S720.45,146.77,720.45,147Z" transform="translate(-181 -54.06)" fill="#ff4f5b"/><path d="M617.3,142a1.38,1.38,0,1,1-1.36-1.14A1.27,1.27,0,0,1,617.3,142Z" transform="translate(-181 -54.06)" fill="#ff4f5b"/><path d="M622.25,142a1.38,1.38,0,1,1-1.35-1.14A1.26,1.26,0,0,1,622.25,142Z" transform="translate(-181 -54.06)" fill="#ff4f5b"/><path d="M627.21,142a1.38,1.38,0,1,1-1.36-1.14A1.27,1.27,0,0,1,627.21,142Z" transform="translate(-181 -54.06)" fill="#ff4f5b"/><path d="M398.76,441.36l44.16,142.88a15.51,15.51,0,0,0,14.94,10.69l179.17.48c9.51,0,17.09-7.62,16.59-16.72h0c-.47-8.43-7.73-15-16.54-15H568.56L513.69,417.11h-96C404.48,417.11,395,429.25,398.76,441.36Z" transform="translate(-181 -54.06)" fill="#375a64"/><path d="M550.35,575.39c0,.33-18.27.6-40.8.6s-40.81-.27-40.81-.6,18.27-.61,40.81-.61S550.35,575.05,550.35,575.39Z" transform="translate(-181 -54.06)" fill="#1a2e35"/><path d="M411.93,421.65c.34-.11,12.54,34.1,27.25,76.4s26.38,76.68,26.05,76.79S452.7,540.74,438,498.43,411.6,421.75,411.93,421.65Z" transform="translate(-181 -54.06)" fill="#1a2e35"/><polygon points="361.89 667.83 350.97 667.58 350.97 540.87 361.89 540.87 361.89 667.83" fill="#375a64"/><polygon points="305.61 667.25 407.26 667.25 361.21 651.91 350.29 651.91 305.61 667.25" fill="#375a64"/><path d="M460.9,384.35l16.82,80.53-3,60.36,113-18-4.44-52.85-.08-43.74L611,462.12l21.58-40L593,353.55h0a67.14,67.14,0,0,0-25.85-16.05,55.5,55.5,0,0,0-16.21-3h0a67.64,67.64,0,0,1-39.13,0c-1.59.19-3.8.39-6.57.71l-.51.05c-24,2.8-42.3,21.93-43.63,45.06Z" transform="translate(-181 -54.06)" fill="#ff4f5b"/><path d="M505.27,335.27s-46.45.33-52.21,47.36l-.78,34.48,40-.33Z" transform="translate(-181 -54.06)" fill="#ff4f5b"/><path d="M616.24,395.76c0,.33-36.55.6-81.63.6s-81.64-.27-81.64-.6,36.55-.61,81.64-.61S616.24,395.42,616.24,395.76Z" transform="translate(-181 -54.06)" fill="#fafafa"/><path d="M616.24,403.21c0,.34-36.55.61-81.63.61s-81.64-.27-81.64-.61,36.55-.6,81.64-.6S616.24,402.88,616.24,403.21Z" transform="translate(-181 -54.06)" fill="#fafafa"/><path d="M613.62,389.58c0,.33-36,.6-80.32.6s-80.33-.27-80.33-.6,36-.61,80.33-.61S613.62,389.25,613.62,389.58Z" transform="translate(-181 -54.06)" fill="#fafafa"/><path d="M582.64,462.12c-.35,0-.19-19.06.35-42.56S584.25,377,584.6,377s.19,19.06-.35,42.57S583,462.13,582.64,462.12Z" transform="translate(-181 -54.06)" fill="#1a2e35"/><path d="M566.76,431.22s22,1.5,25.93,7.07,10,21.45,7.7,21.56a6.42,6.42,0,0,1-3.95-1.19l-6-10.23s1,9.88-2.63,10.08-21.44,3.61-21.44,3.61Z" transform="translate(-181 -54.06)" fill="#ffbf9d"/><path d="M452.3,407.93l-.09,54.29c.72,12.69,13.12,21.75,26.07,19l88.59-17.49L566.68,429,490.25,443l-1-36.85Z" transform="translate(-181 -54.06)" fill="#ff4f5b"/><path d="M502.84,476.91a6.43,6.43,0,0,1,1.17-.31l3.43-.74,13-2.64,46.11-9-.45.53c0-10.93,0-23-.06-35.76l.74.59-15.57,2.87-60.88,11.11-.66.12,0-.64c.58-16.16,1.06-29.62,1.4-39.15.2-4.64.36-8.31.48-10.94.07-1.19.12-2.14.17-2.87a4,4,0,0,1,.11-1,4.73,4.73,0,0,1,.05,1v2.88c-.05,2.63-.11,6.3-.18,10.94-.24,9.53-.56,23-.95,39.15l-.64-.51L551,431.22l15.58-2.86.74-.13V429c0,12.75,0,24.83-.06,35.76v.45l-.46.08-46.2,8.61-13.08,2.34-3.47.58A6.31,6.31,0,0,1,502.84,476.91Z" transform="translate(-181 -54.06)" fill="#1a2e35"/><path d="M553.65,335.27c.05,0,.17.26.37.79a15,15,0,0,1,.68,2.4,18.84,18.84,0,0,1-.41,9.14A23.87,23.87,0,0,1,546.6,359a24.41,24.41,0,0,1-16.12,5.84,22.37,22.37,0,0,1-16-6.2,21.2,21.2,0,0,1-5.93-12.3,18.62,18.62,0,0,1,1.12-9.08,11.87,11.87,0,0,1,1.14-2.24c.3-.49.48-.74.52-.72s-.54,1.09-1.2,3.11a19.5,19.5,0,0,0-.69,8.82,20.72,20.72,0,0,0,5.88,11.63,21.46,21.46,0,0,0,15.11,5.77,24.37,24.37,0,0,0,22.95-16.24,19.69,19.69,0,0,0,.79-8.82C553.93,336.43,553.53,335.3,553.65,335.27Z" transform="translate(-181 -54.06)" fill="#1a2e35"/><path d="M557.93,466.65c-.18,0-.11-2.07,0-5.36s.3-7.85.33-12.87-.08-9.58-.17-12.88-.13-5.34,0-5.35.52,2,.84,5.3.57,7.88.54,12.94-.34,9.62-.7,12.92S558.1,466.66,557.93,466.65Z" transform="translate(-181 -54.06)" fill="#fafafa"/><path d="M553.36,467.53c-.18,0-.2-2-.16-5.31,0-3.75.09-8.05.14-12.8s0-9.05,0-12.79c0-3.28,0-5.31.22-5.32s.44,2,.67,5.29.41,7.81.39,12.83-.25,9.55-.52,12.82S553.53,467.54,553.36,467.53Z" transform="translate(-181 -54.06)" fill="#fafafa"/><path d="M642.07,683.26l16.74,44.2,23.76,31.29a4.7,4.7,0,0,1-1.39,6.92h0a5.17,5.17,0,0,1-4.58.37c-9.58-3.81-44.75-18-45.79-21.29-1.2-3.82-23.9-51.36-23.9-51.36Z" transform="translate(-181 -54.06)" fill="#ff4f5b"/><g opacity="0.6"><path d="M681.18,765.67l-51.57-23.88.75,1.86a7.35,7.35,0,0,0,3.46,3.75c4.23,2.19,16,8,42.64,18.7a5.22,5.22,0,0,0,4.72-.43Z" transform="translate(-181 -54.06)" fill="#fff"/></g><g opacity="0.6"><path d="M633.25,724.16a2.75,2.75,0,1,1-1.13,5.39c-1.46-.31-2.78-2.1-2.33-3.46s2.4-2.49,3.74-1.85" transform="translate(-181 -54.06)" fill="#fff"/></g><path d="M663,750.42c.31,0,.41-2.66,2.62-4.9s4.93-2.64,4.88-2.93c0-.13-.73-.25-1.85,0a7.92,7.92,0,0,0-3.82,2.23,7.4,7.4,0,0,0-2,3.83C662.64,749.75,662.83,750.43,663,750.42Z" transform="translate(-181 -54.06)" fill="#1a2e35"/><path d="M668.6,755.07c.29.11,1.18-1.86,3.28-3.39s4.28-1.92,4.24-2.22-2.53-.38-4.9,1.4S668.31,755,668.6,755.07Z" transform="translate(-181 -54.06)" fill="#1a2e35"/><path d="M653.84,745.16c.3.13,1.65-2.91,4.7-5.57s6.28-3.75,6.17-4-3.66.39-6.9,3.28S653.57,745.12,653.84,745.16Z" transform="translate(-181 -54.06)" fill="#1a2e35"/><path d="M647.58,732.13c.23.22,2.35-1.73,5.59-3.07s6.15-1.56,6.14-1.87-3.11-.56-6.58.92S647.36,732,647.58,732.13Z" transform="translate(-181 -54.06)" fill="#1a2e35"/><path d="M642.33,719.28c.24.2,2.19-2.21,5.72-3.35s6.59-.5,6.65-.8c0-.12-.68-.49-2-.68a11.35,11.35,0,0,0-5,.5,10.88,10.88,0,0,0-4.26,2.62C642.55,718.49,642.22,719.21,642.33,719.28Z" transform="translate(-181 -54.06)" fill="#1a2e35"/><path d="M647,713.51a3.78,3.78,0,0,0-.61-1.68,12.36,12.36,0,0,0-3.13-3.83,5.9,5.9,0,0,0-3.28-1.59,2.05,2.05,0,0,0-2,1.2,3.11,3.11,0,0,0,.08,2.25c1.18,2.76,4.77,4.52,8.19,3.7a8,8,0,0,0,6-6.66,2.66,2.66,0,0,0-.74-2.17,2,2,0,0,0-2.31-.22,6.76,6.76,0,0,0-2.4,2.63,13.52,13.52,0,0,0-1.74,4.56,4.07,4.07,0,0,0-.09,1.78c.21,0,.28-2.58,2.48-6a6.38,6.38,0,0,1,2.15-2.23,1.07,1.07,0,0,1,1.26.11,1.81,1.81,0,0,1,.4,1.45,7.14,7.14,0,0,1-5.25,5.72c-2.88.72-6-.83-7-3a2.18,2.18,0,0,1-.13-1.57,1.11,1.11,0,0,1,1.08-.67,5.28,5.28,0,0,1,2.79,1.29C646,711.06,646.79,713.63,647,713.51Z" transform="translate(-181 -54.06)" fill="#1a2e35"/><path d="M712.76,671.7l-1.45,35.92s37.6,13.47,38,20.13l-72.76-.18-.14-56.06Z" transform="translate(-181 -54.06)" fill="#ff4f5b"/><g opacity="0.6"><path d="M688.82,704.54a2.69,2.69,0,1,0,1.27,5.23c1.42-.34,2.65-2.12,2.17-3.45s-2.42-2.35-3.71-1.7" transform="translate(-181 -54.06)" fill="#fff"/></g><g opacity="0.6"><path d="M676.56,727.57V722l69.91,2.23s3.23,1.36,2.86,3.54Z" transform="translate(-181 -54.06)" fill="#fff"/></g><path d="M712.49,707.27c0,.34-1.79.49-3.54,1.58s-2.69,2.52-3,2.38.2-2.1,2.35-3.39S712.57,707,712.49,707.27Z" transform="translate(-181 -54.06)" fill="#1a2e35"/><path d="M720.11,710.31c.08.33-1.46.91-2.67,2.34s-1.56,3-1.92,3-.57-1.94,1-3.7S720.11,710,720.11,710.31Z" transform="translate(-181 -54.06)" fill="#1a2e35"/><path d="M724.42,719.08c-.32.07-.81-1.63.11-3.5s2.58-2.6,2.73-2.31-.88,1.28-1.61,2.82S724.77,719,724.42,719.08Z" transform="translate(-181 -54.06)" fill="#1a2e35"/><path d="M711.87,699.05c-.15.3-1.78-.17-3.79,0s-3.57.72-3.75.43,1.32-1.5,3.69-1.62S712.05,698.78,711.87,699.05Z" transform="translate(-181 -54.06)" fill="#1a2e35"/><g opacity="0.3"><polygon points="531.46 624.75 531.21 631.15 495.45 630.75 495.42 624.98 531.46 624.75"/></g><path d="M712,691.79c0,.14-1.4.35-3.64,0a17.06,17.06,0,0,1-3.81-1.14,16.54,16.54,0,0,1-2.09-1.07,4.34,4.34,0,0,1-1.1-.82,1.43,1.43,0,0,1-.15-1.81,2,2,0,0,1,1.56-.78,4.9,4.9,0,0,1,1.36.19,13.31,13.31,0,0,1,2.26.75,13,13,0,0,1,3.36,2.12c1.68,1.5,2.26,2.78,2.13,2.84s-1-.95-2.69-2.19a14.86,14.86,0,0,0-3.25-1.77,14.17,14.17,0,0,0-2.09-.62c-.77-.2-1.42-.21-1.62.12-.07.13-.08.18.08.39a3.86,3.86,0,0,0,.81.61,21.69,21.69,0,0,0,1.92,1.06,21.24,21.24,0,0,0,3.52,1.3C710.66,691.51,712,691.61,712,691.79Z" transform="translate(-181 -54.06)" fill="#1a2e35"/><path d="M711.56,692.28c-.13.05-.83-1.17-.95-3.38a10.69,10.69,0,0,1,.51-3.82,11.13,11.13,0,0,1,.93-2.12,3,3,0,0,1,2.33-1.75,1.69,1.69,0,0,1,1.52,1,4.47,4.47,0,0,1,.37,1.29,7.71,7.71,0,0,1,0,2.35,7.91,7.91,0,0,1-1.57,3.6c-1.43,1.81-2.91,2.21-2.94,2.09s1.12-.82,2.21-2.56a7.86,7.86,0,0,0,1.17-3.28,6.83,6.83,0,0,0-.07-2c-.11-.75-.4-1.34-.69-1.27s-1,.55-1.27,1.14a11.23,11.23,0,0,0-.91,1.89,12.34,12.34,0,0,0-.72,3.49C711.38,691,711.75,692.23,711.56,692.28Z" transform="translate(-181 -54.06)" fill="#1a2e35"/><path d="M676.49,499.51c-43,4.27-100,9.86-100,9.86l7.77,67.06S668,555.23,667.42,557s3.88,142.68,3.88,142.68h50.41L722.66,540C723,516,701.42,497,676.49,499.51Z" transform="translate(-181 -54.06)" fill="#1a2e35"/><path d="M473.68,526.57v20.79c0,14.16,16.82,29.17,31.59,29.17h11.42c9,0,23.09-6.28,30.36-11.37l4.36-3.06L603.91,718S664,707.67,664,705.85,623.3,578.17,604.52,519.76c-7.67-23.85-34.33-37.72-59-29.63q-1.26.42-2.52.9C516.13,501.35,473.68,526.57,473.68,526.57Z" transform="translate(-181 -54.06)" fill="#1a2e35"/><path d="M664,705.85a2.08,2.08,0,0,1-.26-.56l-.67-1.66c-.57-1.47-1.4-3.65-2.38-6.47-2-5.64-4.77-13.85-8.12-24-6.7-20.31-15.68-48.45-25.45-79.57-4.86-15.57-9.49-30.4-13.71-43.9-2.09-6.74-4.08-13.15-5.94-19.16-.94-3-1.84-5.9-2.7-8.68A78.17,78.17,0,0,0,602,514a32.46,32.46,0,0,0-8.48-11.51,71.11,71.11,0,0,0-8.89-6.63c-2.57-1.66-4.62-2.88-6-3.69l-1.57-.94a2.19,2.19,0,0,1-.52-.36,2.48,2.48,0,0,1,.58.25l1.64.84c1.44.75,3.54,1.9,6.16,3.51A67.86,67.86,0,0,1,594,502a32.86,32.86,0,0,1,8.83,11.68,76.94,76.94,0,0,1,2.84,7.94c.89,2.78,1.81,5.68,2.77,8.67,1.9,6,3.92,12.4,6.06,19.13l13.79,43.87,25.1,79.67c3.24,10.1,5.88,18.31,7.74,24.1l2.15,6.54c.23.69.41,1.25.55,1.7A1.94,1.94,0,0,1,664,705.85Z" transform="translate(-181 -54.06)" fill="#375a64"/><path d="M676.64,536.83c.31.21-2.54,4.33-4.94,9.91s-3.45,10.41-3.82,10.35.16-5.09,2.66-10.81S676.4,536.64,676.64,536.83Z" transform="translate(-181 -54.06)" fill="#375a64"/><path d="M686.27,543.32c.15.33-4.18,2.15-8.69,5.58s-7.42,7-7.73,6.78,2.23-4.2,6.95-7.73S686.19,543,686.27,543.32Z" transform="translate(-181 -54.06)" fill="#375a64"/><path d="M604.47,718c-.33.1-14.51-41.62-31.67-93.17S542,531.39,542.33,531.28s14.51,41.61,31.67,93.18S604.8,717.88,604.47,718Z" transform="translate(-181 -54.06)" fill="#375a64"/><polygon points="359.05 420.75 530.88 422.33 562.92 335.52 437.94 336.33 408.93 414.39 359.05 415.11 359.05 420.75" fill="#375a64"/><path d="M670.32,440.46a6.71,6.71,0,0,1-5.91-7.53,6.91,6.91,0,0,1,7.86-5.68,6.72,6.72,0,0,1,5.92,7.54A6.91,6.91,0,0,1,670.32,440.46Z" transform="translate(-181 -54.06)" fill="#fff"/><path d="M526,239.83c1.62-5.78,6.15-8.62,12.06-10.55A20.16,20.16,0,0,1,555.84,232c3.32,2.42,5.92,5.94,9.86,7.26,6.49,2.16,14.1-2.5,20.33.29a8.67,8.67,0,0,1,4.84,9.75,9.12,9.12,0,0,1-9,6.44c4.24,1.48,5.55,7.27,3.08,10.88s-7.56,5-12,4.19-8.3-3.37-11.66-6.26-6.36-6.16-9.94-8.78-7.93-4.61-12.43-4.38c-6.1.31-11.33,4.72-14,10s-3.35,11.23-3.69,17.07-.44,11.79-2.25,17.38c-.21.65-.53,1.39-1.22,1.59-1,.29-1.83-.72-2.32-1.59a83.36,83.36,0,0,1-10.24-31.93c-.69-6.48-.51-12.61,3.2-18.06s13.1-9.46,17.71-6" transform="translate(-181 -54.06)" fill="#1a2e35"/><path d="M514.24,266.94l-3.12,65.56c-.53,11.15,1.07,27.63,19.49,27.63h0c16-1.16,20.72-15.48,21.2-25.88.23-4.94.43-9.05.49-9.56,0,0,17.49-.81,19.53-17.27,1-7.95,1.63-24.5,2-39.47.43-16.09-12.12-29.78-28.81-31.48l-1.66-.17C525.39,235.47,514.6,249.67,514.24,266.94Z" transform="translate(-181 -54.06)" fill="#ffbf9d"/><path d="M552.36,324.46a41.3,41.3,0,0,1-21.75-8.4s4,12.41,21.31,12.67Z" transform="translate(-181 -54.06)" fill="#ff9a6c"/><path d="M567.62,278.48a2.44,2.44,0,0,1-2.63,2.13,2.31,2.31,0,0,1-2.3-2.38,2.45,2.45,0,0,1,2.63-2.14A2.32,2.32,0,0,1,567.62,278.48Z" transform="translate(-181 -54.06)" fill="#1a2e35"/><path d="M569.26,275.66c-.33.28-2-1.23-4.69-1.5s-4.72.81-5,.47c-.12-.15.25-.67,1.16-1.18a7,7,0,0,1,4-.75,6.7,6.7,0,0,1,3.7,1.57C569.22,275,569.43,275.54,569.26,275.66Z" transform="translate(-181 -54.06)" fill="#1a2e35"/><path d="M541.6,276.69a2.45,2.45,0,0,1-2.63,2.14,2.3,2.3,0,0,1-2.29-2.39,2.44,2.44,0,0,1,2.63-2.13A2.29,2.29,0,0,1,541.6,276.69Z" transform="translate(-181 -54.06)" fill="#1a2e35"/><path d="M543.23,273.48c-.34.28-2.05-1.23-4.69-1.49s-4.72.8-5,.46c-.12-.15.25-.67,1.16-1.17a7,7,0,0,1,4-.76,6.63,6.63,0,0,1,3.7,1.58C543.18,272.78,543.4,273.36,543.23,273.48Z" transform="translate(-181 -54.06)" fill="#1a2e35"/><path d="M550.74,293.25c0-.15,1.68-.25,4.37-.31.69,0,1.34-.06,1.5-.49a3.14,3.14,0,0,0-.24-2q-.69-2.44-1.45-5.13c-2-7.3-3.35-13.27-3-13.34s2.18,5.78,4.17,13.07c.47,1.8.93,3.51,1.36,5.15a3.66,3.66,0,0,1,.07,2.58,1.73,1.73,0,0,1-1.22.83,5.18,5.18,0,0,1-1.16,0C552.4,293.55,550.73,293.39,550.74,293.25Z" transform="translate(-181 -54.06)" fill="#1a2e35"/><path d="M542.77,294.21c.43,0,.13,2.77,2.37,5s5.32,2.21,5.3,2.6c0,.17-.74.46-2,.36a7.27,7.27,0,0,1-4.45-2,5.87,5.87,0,0,1-1.8-4.15C542.18,294.82,542.57,294.17,542.77,294.21Z" transform="translate(-181 -54.06)" fill="#1a2e35"/><path d="M545,263.62c-.34.67-2.94.07-6.08.11s-5.74.6-6.08-.06c-.15-.32.35-.92,1.44-1.48a10.23,10.23,0,0,1,4.63-1,10.46,10.46,0,0,1,4.63,1C544.65,262.71,545.17,263.31,545,263.62Z" transform="translate(-181 -54.06)" fill="#1a2e35"/><path d="M569.11,268.23c-.53.53-2.29-.26-4.47-.51s-4.09,0-4.45-.67c-.15-.31.2-.86,1.07-1.32a6.48,6.48,0,0,1,3.75-.57,6.37,6.37,0,0,1,3.44,1.52C569.15,267.35,569.34,268,569.11,268.23Z" transform="translate(-181 -54.06)" fill="#1a2e35"/><path d="M514.29,279.29c-.28-.15-11.45-4.55-12.32,6.76s11.14,9.81,11.19,9.49S514.29,279.29,514.29,279.29Z" transform="translate(-181 -54.06)" fill="#ffbf9d"/><path d="M509.89,291c-.05,0-.22.12-.58.25a2.09,2.09,0,0,1-1.54-.08c-1.21-.52-2.11-2.5-2-4.54a6.39,6.39,0,0,1,.79-2.78,2.36,2.36,0,0,1,1.67-1.4,1.06,1.06,0,0,1,1.17.63c.13.32,0,.54.1.57s.27-.17.21-.65a1.27,1.27,0,0,0-.41-.74,1.62,1.62,0,0,0-1.11-.37,2.91,2.91,0,0,0-2.29,1.6,6.54,6.54,0,0,0-.95,3.1c-.1,2.29.95,4.51,2.62,5.1a2.28,2.28,0,0,0,1.9-.16C509.85,291.27,509.93,291,509.89,291Z" transform="translate(-181 -54.06)" fill="#ff9a6c"/><path d="M577.88,264.89a25.64,25.64,0,0,1-21.54-7c-3.8-3.83-6.49-9-11.56-11.13a14.63,14.63,0,0,0-10.84.31,27.26,27.26,0,0,0-8.89,6.31c2.39,8.72-.88,17.84-4.1,26.31a4.57,4.57,0,0,1-1.66,2.46c-1.51.88-3.5-.13-4.58-1.47-1.72-2.15-2.17-5-2.37-7.67a44.88,44.88,0,0,1,2.14-18.27,31.75,31.75,0,0,1,10.82-15,32.4,32.4,0,0,1,22.76-5.7,39.28,39.28,0,0,1,21.37,9.89,21.52,21.52,0,0,1,6.34,8.71" transform="translate(-181 -54.06)" fill="#1a2e35"/><path d="M247.36,613.31c6-3,13.12-3.37,19.81-2.31,3.6.57,7.34,1.6,9.79,4.19s2.91,7.14.1,9.37c-1.67,1.32-4,1.52-6.17,1.5-5.24-.06-11.05-.95-15.23,2.08-2.39,1.72-4,4.58-6.83,5.43a6.87,6.87,0,0,1-7.43-3.17,10.63,10.63,0,0,1-.84-8.15A12.44,12.44,0,0,1,247.36,613.31Z" transform="translate(-181 -54.06)" fill="#ff4f5b"/><path d="M233.56,587.77c3.68,5,10.84,3.37,14.16.29s4.73-7.54,6-11.8c2.92-9.72,5.87-19.92,3.7-29.82a16.33,16.33,0,0,0-4-8.11,9.27,9.27,0,0,0-8.56-2.73c-3.61.91-5.85,4.3-7.47,7.53a68.55,68.55,0,0,0-7.33,30.51c0,4.91.58,10.07,3.48,14.13" transform="translate(-181 -54.06)" fill="#ff4f5b"/><path d="M223.44,595c4-4.55,4.76-11.19,3-16.89S220.61,567.56,216,563.6A56.76,56.76,0,0,0,197.29,553a20.72,20.72,0,0,0-8.41-1.37c-2.85.26-5.72,1.66-7,4.09-2,3.6-.08,8,2,11.52a136.55,136.55,0,0,0,12.27,17.92c3.68,4.54,7.9,9,13.51,11.08s11.43,1.82,14.4-1.91" transform="translate(-181 -54.06)" fill="#ff4f5b"/><path d="M233.31,663.86a11.3,11.3,0,0,0,.33-2.29c.17-1.67.38-3.77.63-6.26a89.25,89.25,0,0,1,1.47-9.17,68.26,68.26,0,0,1,3.48-10.83,39.53,39.53,0,0,1,5.77-9.8,21.34,21.34,0,0,1,7.29-5.81,21.07,21.07,0,0,1,6.15-1.84,11.57,11.57,0,0,0,2.38-.33,12.58,12.58,0,0,0-2.42,0,19.24,19.24,0,0,0-6.41,1.59,21.46,21.46,0,0,0-7.69,5.87,38.61,38.61,0,0,0-6,10,64.12,64.12,0,0,0-3.46,11,76,76,0,0,0-1.27,9.29c-.21,2.66-.29,4.81-.32,6.3A9.69,9.69,0,0,0,233.31,663.86Z" transform="translate(-181 -54.06)" fill="#1a2e35"/><path d="M233.76,659.05a5,5,0,0,0,.06-1.07c0-.8,0-1.8,0-3,0-2.64,0-6.46.14-11.17.25-9.44,1.09-19.59,2.73-33.9,1.55-13.46,3.63-29.13,5.83-39.31.47-2.32.94-4.4,1.39-6.23s.79-3.4,1.14-4.68.54-2.18.74-3a3.75,3.75,0,0,0,.19-1.05,5.18,5.18,0,0,0-.38,1c-.25.77-.55,1.73-.92,2.92s-.83,2.83-1.31,4.65-1,3.9-1.54,6.21a332,332,0,0,0-6.12,36.47,362.85,362.85,0,0,0-2.45,36.86c-.05,4.73.05,8.56.18,11.2.08,1.24.14,2.24.19,3A4.17,4.17,0,0,0,233.76,659.05Z" transform="translate(-181 -54.06)" fill="#1a2e35"/><path d="M233.82,633.86a18.92,18.92,0,0,0,0-3.18,84.52,84.52,0,0,0-1-8.61,107.54,107.54,0,0,0-2.92-12.54,98.6,98.6,0,0,0-5.47-14.84,78.63,78.63,0,0,0-16.07-24,38.87,38.87,0,0,0-3.78-3.37c-.58-.47-1.09-.94-1.61-1.31l-1.47-1a19.42,19.42,0,0,0-2.79-1.71c-.16.21,4,2.53,9.15,7.82a83.16,83.16,0,0,1,15.67,23.9,114,114,0,0,1,5.5,14.7,124.78,124.78,0,0,1,3.11,12.42c.68,3.58,1.08,6.5,1.32,8.52A19,19,0,0,0,233.82,633.86Z" transform="translate(-181 -54.06)" fill="#1a2e35"/><polygon points="27.42 624.23 30.05 658.81 76.4 658.81 79.03 624.23 27.42 624.23" fill="#1a2e35"/><rect x="22.94" y="610.6" width="61.62" height="13.63" fill="#1a2e35"/><polygon points="22.95 657.49 22.95 661.27 25.84 661.27 83.55 661.27 83.55 657.49 22.95 657.49" fill="#375a64"/><polygon points="28.68 667.91 25.84 661.27 81.34 661.27 78.03 667.91 28.68 667.91" fill="#375a64"/><path d="M259.17,689.59a1.28,1.28,0,0,1-.21.32l-.7.88c-.65.81-1.56,1.92-2.7,3.31l-.12.15-.11-.15-6.63-8.8h.38l-6.53,8.87-.21.27-.23-.26-7.74-8.83h.44l-.42.52-6.93,8.32-.23.28-.21-.29-6.53-8.86h.38l-8.05,8.79-.14.16-.11-.18L210.05,690,209.4,689a1.86,1.86,0,0,1-.2-.38s.11.11.27.34l.72,1,2.64,4h-.25l7.92-8.9.2-.22.18.24,6.59,8.82H227l6.91-8.34.42-.51.22-.26.23.25,7.72,8.85-.43,0,6.59-8.82.2-.26.19.26,6.49,8.89h-.24l2.81-3.22.75-.84A2,2,0,0,1,259.17,689.59Z" transform="translate(-181 -54.06)" fill="#e1e1e1"/><path d="M260.68,678.06c0,.16-11.61.28-25.94.28s-25.93-.12-25.93-.28,11.61-.27,25.93-.27S260.68,677.91,260.68,678.06Z" transform="translate(-181 -54.06)" fill="#375a64"/><path d="M263,715.7c0,.15-12.62.28-28.19.28s-28.18-.13-28.18-.28,12.61-.28,28.18-.28S263,715.55,263,715.7Z" transform="translate(-181 -54.06)" fill="#1a2e35"/><polygon points="629.91 263.54 597.71 392.61 606.72 392.61 638.43 263.54 629.91 263.54" fill="#1a2e35"/><path d="M798.54,402.61c-.58,2.36,14.58,72.72,14.58,72.72h-7.3l-11.45-55.76Z" transform="translate(-181 -54.06)" fill="#1a2e35"/><rect x="573.94" y="514.29" width="150.82" height="153.26" fill="#ff4f5b"/><rect x="724.76" y="536.69" width="7.41" height="7.1" fill="#1a2e35"/><rect x="724.76" y="559.22" width="7.41" height="7.1" fill="#1a2e35"/><rect x="724.76" y="581.76" width="7.41" height="7.1" fill="#1a2e35"/><rect x="724.76" y="604.3" width="7.41" height="7.1" fill="#1a2e35"/><path d="M913.44,637.9a10.67,10.67,0,0,1,2.28-.48,40,40,0,0,1,6.34-.58,17.63,17.63,0,0,1,9.17,2.32,10.82,10.82,0,0,1,3.92,4,10.2,10.2,0,0,1,1.17,5.75,11.86,11.86,0,0,1-1.92,5.56,15,15,0,0,1-3.9,4,20.5,20.5,0,0,1-8.82,3.34,30.17,30.17,0,0,1-6.38.2,9.21,9.21,0,0,1-2.31-.31,19,19,0,0,1,2.32,0,35.15,35.15,0,0,0,6.26-.46,20.45,20.45,0,0,0,8.44-3.38,12.31,12.31,0,0,0,5.43-8.95,9.39,9.39,0,0,0-1.06-5.31,10,10,0,0,0-3.59-3.7,17.39,17.39,0,0,0-8.74-2.37,50.91,50.91,0,0,0-6.29.3A12.87,12.87,0,0,1,913.44,637.9Z" transform="translate(-181 -54.06)" fill="#1a2e35"/><path d="M911.6,615.49a2.89,2.89,0,0,1,.7-.41,16.29,16.29,0,0,1,2.2-.85,18.18,18.18,0,0,1,8.66-.46,8.22,8.22,0,0,1,2.76,1.05,4.65,4.65,0,0,1,2,2.53,7.05,7.05,0,0,1-1.69,6.46,7.45,7.45,0,0,1-3.12,2.2,5,5,0,0,1-4.09-.21,4,4,0,0,1-2.34-3.4,4.07,4.07,0,0,1,2.39-3.51,6.82,6.82,0,0,1,4.32-.44,9.06,9.06,0,0,1,3.76,1.72,9.71,9.71,0,0,1,3.76,6.44,8.89,8.89,0,0,1-1.93,6.42,13.54,13.54,0,0,1-4.64,3.75,22.75,22.75,0,0,1-8.4,2.1c-1,.08-1.82.11-2.36.11a2.64,2.64,0,0,1-.82,0c0-.06,1.12-.14,3.14-.39a24.42,24.42,0,0,0,8.15-2.3,13.22,13.22,0,0,0,4.34-3.64,8.17,8.17,0,0,0,1.71-5.92,8.86,8.86,0,0,0-3.49-5.88,8.24,8.24,0,0,0-3.4-1.54,5.94,5.94,0,0,0-3.73.35,3.28,3.28,0,0,0-1.93,2.77,3.16,3.16,0,0,0,1.88,2.67,4.18,4.18,0,0,0,3.39.19,6.73,6.73,0,0,0,2.78-2,6.4,6.4,0,0,0,1.62-5.77c-.53-1.9-2.45-2.84-4.15-3.19a18.6,18.6,0,0,0-8.43.2C912.64,615.05,911.63,615.57,911.6,615.49Z" transform="translate(-181 -54.06)" fill="#1a2e35"/><path d="M911.67,593.5a4.47,4.47,0,0,1,1.65-.3,12.69,12.69,0,0,1,4.52.61,13,13,0,0,1,5.64,3.64,11.84,11.84,0,0,1,2.92,7.46,11.72,11.72,0,0,1-2.44,7.61,12.83,12.83,0,0,1-5.39,4,12.62,12.62,0,0,1-4.48.88,4.56,4.56,0,0,1-1.66-.2,17.19,17.19,0,0,0,5.89-1.22,12.8,12.8,0,0,0,5-3.88,11.44,11.44,0,0,0-.45-14.11,12.86,12.86,0,0,0-5.23-3.58A17.33,17.33,0,0,0,911.67,593.5Z" transform="translate(-181 -54.06)" fill="#1a2e35"/><path d="M799.72,486.92a14.23,14.23,0,0,1,1.27,2.86,52,52,0,0,1,2,8.71c.63,3.82,1.15,8.53,1.68,14s1,11.71,1.92,18.55c.24,1.71.52,3.46.89,5.22a22.36,22.36,0,0,0,1.62,5.22,19.63,19.63,0,0,0,3.7,4.38,29,29,0,0,0,4.88,3.6,29.59,29.59,0,0,0,12.18,4,24.92,24.92,0,0,0,13.32-2.2,15.62,15.62,0,0,0,8.61-10.36,11.37,11.37,0,0,0-.51-6.89,12.38,12.38,0,0,0-4.68-5.43,14.51,14.51,0,0,0-7.14-2.27,11.67,11.67,0,0,0-7.22,2,7.83,7.83,0,0,0-2.45,2.77,5.54,5.54,0,0,0-.47,3.54,8.64,8.64,0,0,0,4.68,5.7,22.4,22.4,0,0,0,7.7,2,72.33,72.33,0,0,0,8,.53,131.83,131.83,0,0,0,15.74-.85c10.29-1.1,20.22-2.69,29.81-2.78s18.82,1.17,26.55,4.8a31,31,0,0,1,9.87,7.07,21.47,21.47,0,0,1,5.13,9.72,25.25,25.25,0,0,1-2.93,18.23,31.44,31.44,0,0,1-10,10.26,38.86,38.86,0,0,1-8.28,4,28.1,28.1,0,0,1-3.11.9s.26-.11.77-.28,1.28-.42,2.27-.78a39.33,39.33,0,0,0,8.15-4.16,31.32,31.32,0,0,0,9.79-10.22A24.82,24.82,0,0,0,936.23,561a21,21,0,0,0-5-9.42,30.38,30.38,0,0,0-9.69-6.87c-7.59-3.53-16.74-4.83-26.21-4.66s-19.4,1.71-29.73,2.83a131,131,0,0,1-15.85.87,74.11,74.11,0,0,1-8.12-.53,23.53,23.53,0,0,1-8-2.14,9.5,9.5,0,0,1-5.11-6.29,6.3,6.3,0,0,1,.54-4,8.49,8.49,0,0,1,2.72-3.08,12.56,12.56,0,0,1,7.78-2.2,15.45,15.45,0,0,1,7.58,2.43,13.05,13.05,0,0,1,5,5.81,12.16,12.16,0,0,1,.54,7.36,16.4,16.4,0,0,1-9.06,10.88,25.66,25.66,0,0,1-13.77,2.25,30.45,30.45,0,0,1-12.48-4.11,29.18,29.18,0,0,1-5-3.72,19.65,19.65,0,0,1-3.82-4.58,22.94,22.94,0,0,1-1.65-5.38c-.36-1.79-.64-3.54-.87-5.26-.88-6.88-1.3-13.12-1.79-18.59s-.95-10.18-1.52-14a57.75,57.75,0,0,0-1.84-8.71,20,20,0,0,0-.79-2.17C799.81,487.18,799.72,486.92,799.72,486.92Z" transform="translate(-181 -54.06)" fill="#1a2e35"/><path d="M897.19,715.2s0-.23,0-.68,0-1.11,0-2c0-1.74,0-4.28,0-7.59,0-6.66-.06-16.37-.1-28.71,0-24.67-.12-59.83-.2-101.89l.38.37-136.33,0h0l.44-.42c0,51.78,0,100.16-.07,140.83l-.37-.36,98.8.19,27.69.09,7.32,0c1.66,0,2.54,0,2.54,0s-.83,0-2.46,0l-7.24,0-27.62.1-99,.18h-.38v-.36c0-40.67,0-89.05-.06-140.83V574h.45l136.33,0h.39v.37c-.08,42.16-.15,77.4-.19,102.13,0,12.3-.08,22-.11,28.62,0,3.28,0,5.8,0,7.53,0,.83,0,1.46,0,1.92S897.19,715.2,897.19,715.2Z" transform="translate(-181 -54.06)" fill="#1a2e35"/><path d="M858.79,591.69a.71.71,0,1,1-.7-.67A.69.69,0,0,1,858.79,591.69Z" transform="translate(-181 -54.06)" fill="#1a2e35"/><path d="M862.64,591.69a.7.7,0,0,1-1.4,0,.7.7,0,0,1,1.4,0Z" transform="translate(-181 -54.06)" fill="#1a2e35"/><path d="M866.49,591.69a.7.7,0,0,1-1.4,0,.7.7,0,0,1,1.4,0Z" transform="translate(-181 -54.06)" fill="#1a2e35"/><path d="M870.34,591.69a.7.7,0,1,1-.7-.67A.68.68,0,0,1,870.34,591.69Z" transform="translate(-181 -54.06)" fill="#1a2e35"/><path d="M874.2,591.69a.71.71,0,0,1-1.41,0,.71.71,0,0,1,1.41,0Z" transform="translate(-181 -54.06)" fill="#1a2e35"/><path d="M878.05,591.69a.7.7,0,0,1-1.4,0,.7.7,0,0,1,1.4,0Z" transform="translate(-181 -54.06)" fill="#1a2e35"/><path d="M881.9,591.69a.7.7,0,0,1-1.4,0,.7.7,0,0,1,1.4,0Z" transform="translate(-181 -54.06)" fill="#1a2e35"/><ellipse cx="698.42" cy="540.11" rx="0.7" ry="0.67" fill="#1a2e35"/><ellipse cx="694.48" cy="540.11" rx="0.7" ry="0.67" fill="#1a2e35"/><path d="M872.24,594.17a.7.7,0,1,1-.7-.67A.69.69,0,0,1,872.24,594.17Z" transform="translate(-181 -54.06)" fill="#1a2e35"/><ellipse cx="686.6" cy="540.11" rx="0.7" ry="0.67" fill="#1a2e35"/><ellipse cx="682.66" cy="540.11" rx="0.7" ry="0.67" fill="#1a2e35"/><path d="M860.42,594.17a.7.7,0,0,1-1.4,0,.7.7,0,0,1,1.4,0Z" transform="translate(-181 -54.06)" fill="#1a2e35"/><path d="M858.79,597a.71.71,0,1,1-.7-.67A.69.69,0,0,1,858.79,597Z" transform="translate(-181 -54.06)" fill="#1a2e35"/><path d="M862.64,597a.7.7,0,0,1-1.4,0,.7.7,0,0,1,1.4,0Z" transform="translate(-181 -54.06)" fill="#1a2e35"/><path d="M866.49,597a.7.7,0,0,1-1.4,0,.7.7,0,0,1,1.4,0Z" transform="translate(-181 -54.06)" fill="#1a2e35"/><path d="M870.34,597a.7.7,0,1,1-.7-.67A.68.68,0,0,1,870.34,597Z" transform="translate(-181 -54.06)" fill="#1a2e35"/><path d="M874.2,597a.71.71,0,0,1-1.41,0,.71.71,0,0,1,1.41,0Z" transform="translate(-181 -54.06)" fill="#1a2e35"/><path d="M878.05,597a.7.7,0,0,1-1.4,0,.7.7,0,0,1,1.4,0Z" transform="translate(-181 -54.06)" fill="#1a2e35"/><path d="M881.9,597a.7.7,0,0,1-1.4,0,.7.7,0,0,1,1.4,0Z" transform="translate(-181 -54.06)" fill="#1a2e35"/><path d="M880.12,599.46a.7.7,0,1,1-.7-.67A.69.69,0,0,1,880.12,599.46Z" transform="translate(-181 -54.06)" fill="#1a2e35"/><path d="M876.18,599.46a.7.7,0,1,1-.7-.67A.69.69,0,0,1,876.18,599.46Z" transform="translate(-181 -54.06)" fill="#1a2e35"/><path d="M872.24,599.46a.7.7,0,1,1-.7-.67A.69.69,0,0,1,872.24,599.46Z" transform="translate(-181 -54.06)" fill="#1a2e35"/><path d="M868.3,599.46a.7.7,0,1,1-.7-.67A.69.69,0,0,1,868.3,599.46Z" transform="translate(-181 -54.06)" fill="#1a2e35"/><path d="M864.36,599.46a.7.7,0,1,1-.7-.67A.69.69,0,0,1,864.36,599.46Z" transform="translate(-181 -54.06)" fill="#1a2e35"/><path d="M860.42,599.46a.7.7,0,0,1-1.4,0,.7.7,0,0,1,1.4,0Z" transform="translate(-181 -54.06)" fill="#1a2e35"/><path d="M858.79,602.27a.71.71,0,1,1-.7-.67A.69.69,0,0,1,858.79,602.27Z" transform="translate(-181 -54.06)" fill="#1a2e35"/><path d="M862.64,602.27a.7.7,0,1,1-.7-.67A.68.68,0,0,1,862.64,602.27Z" transform="translate(-181 -54.06)" fill="#1a2e35"/><path d="M866.49,602.27a.7.7,0,1,1-.7-.67A.68.68,0,0,1,866.49,602.27Z" transform="translate(-181 -54.06)" fill="#1a2e35"/><path d="M870.34,602.27a.7.7,0,1,1-.7-.67A.68.68,0,0,1,870.34,602.27Z" transform="translate(-181 -54.06)" fill="#1a2e35"/><path d="M874.2,602.27a.71.71,0,1,1-.71-.67A.69.69,0,0,1,874.2,602.27Z" transform="translate(-181 -54.06)" fill="#1a2e35"/><path d="M878.05,602.27a.7.7,0,1,1-.7-.67A.69.69,0,0,1,878.05,602.27Z" transform="translate(-181 -54.06)" fill="#1a2e35"/><path d="M881.9,602.27a.7.7,0,1,1-.7-.67A.68.68,0,0,1,881.9,602.27Z" transform="translate(-181 -54.06)" fill="#1a2e35"/><ellipse cx="698.42" cy="550.69" rx="0.7" ry="0.67" fill="#1a2e35"/><ellipse cx="694.48" cy="550.69" rx="0.7" ry="0.67" fill="#1a2e35"/><path d="M872.24,604.75a.7.7,0,1,1-.7-.67A.69.69,0,0,1,872.24,604.75Z" transform="translate(-181 -54.06)" fill="#1a2e35"/><ellipse cx="686.6" cy="550.69" rx="0.7" ry="0.67" fill="#1a2e35"/><ellipse cx="682.66" cy="550.69" rx="0.7" ry="0.67" fill="#1a2e35"/><path d="M860.42,604.75a.7.7,0,0,1-1.4,0,.7.7,0,0,1,1.4,0Z" transform="translate(-181 -54.06)" fill="#1a2e35"/><path d="M805.48,440.3a8.5,8.5,0,0,1,2.74.46,15.46,15.46,0,0,1,6.67,4.17,27.48,27.48,0,0,1,5.89,10.69,101.29,101.29,0,0,1,3.71,15.66c1.88,11.79,2.15,26,1.07,41.72-.41,3.91-1.28,8.07-3.78,11.58A15.22,15.22,0,0,1,817,529a11,11,0,0,1-6.59,1.5,10.43,10.43,0,0,1-6.26-2.79,7.25,7.25,0,0,1-1.85-3,5.9,5.9,0,0,1,0-3.48,7.56,7.56,0,0,1,4.71-5.1,5.84,5.84,0,0,1,3.74,0,6.7,6.7,0,0,1,3,2.16,8.57,8.57,0,0,1,1.64,6.72,17.93,17.93,0,0,1-2.43,6.37,25.65,25.65,0,0,1-9.63,9.3,26.82,26.82,0,0,1-25,.34,29.26,29.26,0,0,1-9.13-7.54,36.68,36.68,0,0,1-5.54-9.51,60,60,0,0,1-3.7-19.13c-.34-5.95,0-11.34-.6-16a25.43,25.43,0,0,0-1.58-6.32,17.75,17.75,0,0,0-2.82-4.73,14.05,14.05,0,0,0-6.27-4.45,19.63,19.63,0,0,0-2.69-.62,8.88,8.88,0,0,1,2.74.46,14,14,0,0,1,6.48,4.4,17.79,17.79,0,0,1,3,4.79,25.27,25.27,0,0,1,1.67,6.41c.67,4.72.37,10.12.74,16a59.87,59.87,0,0,0,3.76,18.91,35.81,35.81,0,0,0,5.47,9.3,28.51,28.51,0,0,0,8.9,7.31,26,26,0,0,0,24.22-.36,24.84,24.84,0,0,0,9.29-9,17.17,17.17,0,0,0,2.33-6.08,7.72,7.72,0,0,0-1.47-6.09,5.94,5.94,0,0,0-2.58-1.88,4.89,4.89,0,0,0-3.14,0,6.71,6.71,0,0,0-4.17,4.51,5.69,5.69,0,0,0,1.68,5.64,9.55,9.55,0,0,0,5.72,2.55,10.21,10.21,0,0,0,6.08-1.38,14.19,14.19,0,0,0,4.5-4.18c2.39-3.33,3.26-7.34,3.68-11.19,1.11-15.62.91-29.84-.89-41.56a104.14,104.14,0,0,0-3.56-15.61,27.28,27.28,0,0,0-5.68-10.61,15.62,15.62,0,0,0-6.46-4.23A17.86,17.86,0,0,0,805.48,440.3Z" transform="translate(-181 -54.06)" fill="#e1e1e1"/><rect x="555.06" y="409.68" width="56.16" height="10.26" fill="#e1e1e1"/><rect x="132.63" y="515.7" width="73.25" height="151.12" fill="#1a2e35"/><path d="M380.58,705s0-.23,0-.66,0-1.07,0-1.87c0-1.68,0-4.1,0-7.23,0-6.32-.07-15.49-.12-27-.05-23-.12-55.47-.2-93.22l.42.4-61.27,0h0l.44-.42c-.05,50.49-.09,96.34-.13,130l-.31-.31,44.74.17,12.23.07,3.2,0,1.11,0-1.05,0-3.14,0-12.16.08-44.93.16H319V705c0-33.64-.08-79.49-.12-130v-.42h.45l61.27,0H381v.4c-.08,37.86-.15,70.39-.2,93.49-.05,11.47-.09,20.61-.12,26.9,0,3.1,0,5.5-.05,7.15,0,.79,0,1.39,0,1.83S380.58,705,380.58,705Z" transform="translate(-181 -54.06)" fill="#375a64"/><path d="M376.8,586a13.75,13.75,0,0,1-.09-1.57c0-1.08-.06-2.54-.11-4.38l.2.18c-9.48.14-29.8.24-53.29.24h0L324,580h0v3c0,1,0,2,0,2.92l-.43-.42c14.9,0,28.15.1,37.73.18l11.34.13,3.1,0a9,9,0,0,1,1.12.06,6,6,0,0,1-1,.06l-3,.06-11.23.12c-9.57.09-23,.17-38.05.18h-.44v-6.35h0l.44-.43h0c23.49,0,43.81.1,53.29.24H377V580c-.05,1.89-.08,3.38-.11,4.48A14.56,14.56,0,0,1,376.8,586Z" transform="translate(-181 -54.06)" fill="#375a64"/><path d="M328.87,590.27c0,.23-1.1.42-2.46.42s-2.45-.19-2.45-.42,1.1-.42,2.45-.42S328.87,590,328.87,590.27Z" transform="translate(-181 -54.06)" fill="#375a64"/><path d="M375.37,598.07c0,.23-11.34.42-25.33.42s-25.33-.19-25.33-.42,11.34-.42,25.33-.42S375.37,597.84,375.37,598.07Z" transform="translate(-181 -54.06)" fill="#375a64"/><path d="M375.59,607.49c0,.23-11.15.42-24.89.42s-24.9-.19-24.9-.42,11.15-.42,24.9-.42S375.59,607.26,375.59,607.49Z" transform="translate(-181 -54.06)" fill="#375a64"/><ellipse cx="169.04" cy="575.44" rx="4.03" ry="3.86" fill="#ff4f5b"/><path d="M338.68,629.32c0,.23-2.41.42-5.39.42s-5.39-.19-5.39-.42,2.42-.42,5.39-.42S338.68,629.09,338.68,629.32Z" transform="translate(-181 -54.06)" fill="#375a64"/><path d="M371.4,628.32c0,.24-2.3.42-5.13.42s-5.13-.18-5.13-.42,2.3-.42,5.13-.42S371.4,628.09,371.4,628.32Z" transform="translate(-181 -54.06)" fill="#375a64"/><path d="M316.15,645.6a15.34,15.34,0,0,1-2.74-.48,24.36,24.36,0,0,1-7.26-3.22,30.37,30.37,0,0,1-8.74-8.74A49.1,49.1,0,0,1,291,618.32,58.25,58.25,0,0,1,289,599a38.77,38.77,0,0,1,7.69-21,33.88,33.88,0,0,1,9.19-8.36,31.59,31.59,0,0,1,5.89-2.81,32.59,32.59,0,0,1,6.53-1.49c4.46-.6,9-.52,13.6-.77a35.06,35.06,0,0,0,13.38-3c4.15-2,7.42-5.52,8.31-9.78a13.14,13.14,0,0,0-3-11.85,14.4,14.4,0,0,0-11.22-4.84,10.39,10.39,0,0,0-5.65,2,5.8,5.8,0,0,0-2.36,4.89c.28,3.73,3.84,6.83,7.54,7a12.67,12.67,0,0,0,9.67-4.16,21.86,21.86,0,0,0,4.67-8.8,71.67,71.67,0,0,0,1.95-9.09c1.72-11.75,1.14-21.42.9-28-.18-3.28-.31-5.85-.41-7.64,0-.84-.07-1.5-.09-2a5,5,0,0,1,0-.68,3.35,3.35,0,0,1,.1.68q.06.72.18,2c.15,1.74.36,4.32.57,7.63.35,6.63,1,16.31-.62,28.15a73.34,73.34,0,0,1-1.91,9.18,22.67,22.67,0,0,1-4.79,9.09,13.38,13.38,0,0,1-10.26,4.43,8.8,8.8,0,0,1-8.3-7.68,6.53,6.53,0,0,1,2.65-5.54,11.17,11.17,0,0,1,6.11-2.2,15.24,15.24,0,0,1,11.93,5.1,14.19,14.19,0,0,1,.11,18.69,17.2,17.2,0,0,1-5.66,4.23,35.67,35.67,0,0,1-13.73,3c-4.61.25-9.16.17-13.54.75a32.55,32.55,0,0,0-6.35,1.44,31.06,31.06,0,0,0-5.73,2.72,33.31,33.31,0,0,0-9,8.14A38.11,38.11,0,0,0,289.74,599a57.83,57.83,0,0,0,1.9,19.16,49.24,49.24,0,0,0,6.19,14.74,30.33,30.33,0,0,0,8.52,8.72,25.09,25.09,0,0,0,7.1,3.32c.88.25,1.55.41,2,.49A4.88,4.88,0,0,1,316.15,645.6Z" transform="translate(-181 -54.06)" fill="#1a2e35"/><rect x="110.19" y="281.27" width="173.44" height="114.16" fill="#1a2e35"/><rect x="183.5" y="379.86" width="23.62" height="43.06" fill="#1a2e35"/><polygon points="127.45 421.27 127.45 436.77 216.93 436.77 216.93 667.58 225.17 667.58 225.17 436.77 598.9 438.54 598.9 667.58 606.97 667.58 606.97 438.11 664.65 438.55 664.65 419.93 127.45 421.27" fill="#1a2e35"/><polygon points="184.72 433.75 220 458.11 216.93 460.93 181.36 435.24 184.72 433.75" fill="#1a2e35"/><polygon points="640.23 436.03 599.29 463.97 602.35 466.79 643.59 437.51 640.23 436.03" fill="#1a2e35"/><rect x="257.58" y="415.56" width="92.49" height="6.52" fill="#1a2e35"/></svg>